<?xml version="1.0" encoding="UTF-8" standalone="no"?>
<!-- Created with Inkscape (http://www.inkscape.org/) -->

<svg
   width="210mm"
   height="297mm"
   viewBox="0 0 210 297"
   version="1.1"
   id="svg4914"
   inkscape:version="1.1.1 (3bf5ae0d25, 2021-09-20, custom)"
   sodipodi:docname="leaner-portrait.svg"
   xmlns:inkscape="http://www.inkscape.org/namespaces/inkscape"
   xmlns:sodipodi="http://sodipodi.sourceforge.net/DTD/sodipodi-0.dtd"
   xmlns="http://www.w3.org/2000/svg"
   xmlns:svg="http://www.w3.org/2000/svg">
  <sodipodi:namedview
     id="namedview4916"
     pagecolor="#ffffff"
     bordercolor="#666666"
     borderopacity="1.0"
     inkscape:pageshadow="2"
     inkscape:pageopacity="0.0"
     inkscape:pagecheckerboard="0"
     inkscape:document-units="mm"
     showgrid="false"
     fit-margin-top="0"
     fit-margin-left="0"
     fit-margin-right="0"
     fit-margin-bottom="0"
     inkscape:zoom="1.0548528"
     inkscape:cx="586.33775"
     inkscape:cy="682.55971"
     inkscape:window-width="2558"
     inkscape:window-height="1413"
     inkscape:window-x="0"
     inkscape:window-y="0"
     inkscape:window-maximized="1"
     inkscape:current-layer="layer1" />
  <defs
     id="defs4911">
    <inkscape:path-effect
       effect="bspline"
       id="path-effect4331"
       is_visible="true"
       lpeversion="1"
       weight="33.333333"
       steps="2"
       helper_size="0"
       apply_no_weight="true"
       apply_with_weight="true"
       only_selected="false" />
    <inkscape:path-effect
       effect="bspline"
       id="path-effect3824"
       is_visible="true"
       lpeversion="1"
       weight="33.333333"
       steps="2"
       helper_size="0"
       apply_no_weight="true"
       apply_with_weight="true"
       only_selected="false" />
    <inkscape:path-effect
       effect="bspline"
       id="path-effect3683"
       is_visible="true"
       lpeversion="1"
       weight="33.333333"
       steps="2"
       helper_size="0"
       apply_no_weight="true"
       apply_with_weight="true"
       only_selected="false" />
    <inkscape:path-effect
       effect="bspline"
       id="path-effect1831"
       is_visible="true"
       lpeversion="1"
       weight="33.333333"
       steps="2"
       helper_size="0"
       apply_no_weight="true"
       apply_with_weight="true"
       only_selected="false" />
    <inkscape:path-effect
       effect="bspline"
       id="path-effect1648"
       is_visible="true"
       lpeversion="1"
       weight="33.333333"
       steps="2"
       helper_size="0"
       apply_no_weight="true"
       apply_with_weight="true"
       only_selected="false" />
    <inkscape:path-effect
       effect="bspline"
       id="path-effect862"
       is_visible="true"
       lpeversion="1"
       weight="33.333333"
       steps="2"
       helper_size="0"
       apply_no_weight="true"
       apply_with_weight="true"
       only_selected="false" />
    <inkscape:path-effect
       effect="bspline"
       id="path-effect825"
       is_visible="true"
       lpeversion="1"
       weight="33.333333"
       steps="2"
       helper_size="0"
       apply_no_weight="true"
       apply_with_weight="true"
       only_selected="false" />
    <inkscape:path-effect
       effect="bspline"
       id="path-effect821"
       is_visible="true"
       lpeversion="1"
       weight="33.333333"
       steps="2"
       helper_size="0"
       apply_no_weight="true"
       apply_with_weight="true"
       only_selected="false" />
    <inkscape:path-effect
       effect="bspline"
       id="path-effect784"
       is_visible="true"
       lpeversion="1"
       weight="33.333333"
       steps="2"
       helper_size="0"
       apply_no_weight="true"
       apply_with_weight="true"
       only_selected="false" />
    <inkscape:path-effect
       effect="bspline"
       id="path-effect587"
       is_visible="true"
       lpeversion="1"
       weight="33.333333"
       steps="2"
       helper_size="0"
       apply_no_weight="true"
       apply_with_weight="true"
       only_selected="false" />
    <inkscape:path-effect
       effect="bspline"
       id="path-effect484"
       is_visible="true"
       lpeversion="1"
       weight="33.333333"
       steps="2"
       helper_size="0"
       apply_no_weight="true"
       apply_with_weight="true"
       only_selected="false" />
    <inkscape:path-effect
       effect="bspline"
       id="path-effect367"
       is_visible="true"
       lpeversion="1"
       weight="33.333333"
       steps="2"
       helper_size="0"
       apply_no_weight="true"
       apply_with_weight="true"
       only_selected="false" />
    <inkscape:path-effect
       effect="bspline"
       id="path-effect363"
       is_visible="true"
       lpeversion="1"
       weight="33.333333"
       steps="2"
       helper_size="0"
       apply_no_weight="true"
       apply_with_weight="true"
       only_selected="false" />
    <inkscape:path-effect
       effect="bspline"
       id="path-effect166"
       is_visible="true"
       lpeversion="1"
       weight="33.333333"
       steps="2"
       helper_size="0"
       apply_no_weight="true"
       apply_with_weight="true"
       only_selected="false" />
    <inkscape:path-effect
       effect="bspline"
       id="path-effect42"
       is_visible="true"
       lpeversion="1"
       weight="33.333333"
       steps="2"
       helper_size="0"
       apply_no_weight="true"
       apply_with_weight="true"
       only_selected="false" />
  </defs>
  <g
     inkscape:label="Layer 1"
     inkscape:groupmode="layer"
     id="layer1"
     transform="translate(-0.89812475,-0.168753)">
    <rect
       style="fill:#c5c8c6;fill-opacity:1;fill-rule:evenodd;stroke:none;stroke-width:0.264583"
       id="rect5123"
       width="210"
       height="297"
       x="0.89812475"
       y="0.168753"
       ry="32.218616" />
    <path
       style="color:#000000;fill:#969896;stroke-width:1.72446;-inkscape-stroke:none"
       d="m 71.734531,292.99404 0.45468,-0.003 -0.0538,-4.83992 3.166,-4.45933 0.8858,-6.26461 3.2906,-5.12284 1.46175,-2.27008 3.69478,5.27777 4.64457,1.81202 0.16503,-0.42774 -4.51659,-1.7615 -3.76213,-5.37545 0.89927,-11.13822 v -0.003 l 0.96327,-1.47522 9.09042,-13.88654 11.943199,17.24114 v 0.003 l 0.8858,6.29829 0.74772,5.30808 -2.36103,5.93455 0.42438,0.16841 2.25663,-5.6752 5.7156,5.48658 0.31659,-0.33007 -5.90423,-5.66509 v -0.003 l -0.38059,-2.70456 -1.19902,-8.53806 13.14221,5.46301 v 0.003 l 0.006,0.003 4.03494,4.98475 1.50217,1.85244 v 0.003 l 0.10429,4.61089 0.45472,-0.0101 -0.0978,-4.32123 6.2781,2.99758 3.20976,4.40207 0.36713,-0.26944 -3.27376,-4.49638 -6.67217,-3.18283 -5.29122,-6.53406 h 0.4749 l -0.0572,0.35365 0.44794,0.0741 0.0675,-0.42438 6.77992,0.0101 -0.1043,0.42101 0.44122,0.11114 0.1314,-0.53215 2.42166,0.003 h 0.004 l 6.34882,3.58699 0.22565,-0.39743 -6.01873,-3.39838 v -0.003 l 4.97803,-2.33404 2.87295,-1.34723 7.78362,1.42469 h 0.004 l 3.43879,2.08484 2.23639,1.35733 1.8255,4.67488 0.42437,-0.16503 -1.74128,-4.46943 4.24713,-0.49174 -0.0505,-0.45132 -4.46606,0.51195 h -0.004 l -1.54292,-0.9364 -3.66783,-2.22629 6.40607,-1.30681 4.74225,-4.12589 -0.29976,-0.34355 -4.65131,4.04843 -6.82035,1.38764 -7.54783,-1.37755 v -0.003 l 2.88306,-5.41249 1.72782,-1.12156 1.32027,5.34513 0.44123,-0.10778 -1.31356,-5.33167 4.86687,0.81844 0.0775,-0.45132 -4.61763,-0.77802 2.04778,-1.33038 -0.24586,-0.38397 -2.39807,1.55942 -1.4348,-1.39775 v -0.003 l 0.2021,-1.46511 -0.45133,-0.0607 -0.15503,1.13167 -2.98411,-2.91001 -0.4008,-2.01073 -1.6032,-8.00929 3.96422,-13.15232 5.47987,7.5748 v 0.003 l 0.0809,6.81699 0.45807,-0.007 -0.0775,-6.51385 6.15683,3.102 2.64057,5.42932 -0.13474,5.20367 -2.10504,4.10568 0.40418,0.20881 2.15219,-4.1966 0.14145,-5.4226 -2.55299,-5.25082 5.92444,0.33344 0.0235,-0.4547 -6.26125,-0.35363 h -0.006 l -6.46333,-3.25694 -0.004,-0.003 -5.72573,-7.92171 -1.53247,-10.42082 -1.17546,-7.9756 21.85206,8.7469 h 0.004 v 0.003 l 5.74257,10.47807 v 0.003 l 0.004,0.46815 0.0606,8.58859 -2.12862,4.50311 0.4109,0.19535 1.94338,-4.10905 3.1222,6.73277 5.67183,4.02485 4.91739,0.36376 0.0336,-0.4547 -4.7894,-0.35702 -5.46975,-3.88002 -3.25692,-7.01905 -0.0404,-5.8234 -0.0202,-2.86286 8.30903,5.58426 3.21314,7.01569 v 0.003 l -0.55572,6.67553 0.45468,0.0371 0.53215,-6.37575 3.70152,2.19261 0.2324,-0.39405 -3.95412,-2.33745 -3.0919,-6.75635 7.56133,-0.27619 5.76614,4.2606 4.94769,0.33344 0.0304,-0.45468 -4.81296,-0.32334 -5.47985,-4.05179 4.63783,-3.56679 0.11452,2.77194 0.45469,-0.0202 -0.128,-3.09189 v -0.003 l 0.23578,-0.18187 h 0.004 l 3.15925,-0.0438 1.57962,0.81507 3.23671,3.62404 0.34018,-0.30313 -3.29397,-3.68803 -0.89591,-0.46143 0.83528,-0.0138 -0.006,-0.45805 -1.6874,0.0236 h -0.004 l -2.62374,-1.35397 v -0.003 l 0.93969,-3.19631 3.2603,-3.21988 -0.31997,-0.3267 -3.34449,3.30745 -0.9498,3.22325 -0.62982,-0.3267 -3.68467,-5.94802 4.22355,-0.52879 -0.0572,-0.45468 -4.50648,0.56583 -7.34576,-3.94064 v -0.003 l 7.9857,-6.83718 0.004,-0.004 6.04907,-1.58638 4.18651,1.91982 0.18861,-0.41429 -3.95748,-1.81538 3.71498,-3.63417 -0.3166,-0.32334 -3.91371,3.82278 -4.82981,1.2664 -0.93969,0.24586 0.70729,-3.99116 0.40754,-2.29703 0.004,-0.004 3.12895,-3.86991 -0.35366,-0.28628 -2.87295,3.54993 -1.16536,-5.18344 -3.63078,-3.30746 -0.30986,0.3368 3.52637,3.21314 1.22598,5.45967 -1.16536,6.57109 -8.16084,6.98876 h -0.004 l -8.11706,0.29638 -7.79035,0.2863 -22.19559,-8.88835 -21.41082,-26.83344 v -54.67015 h -0.4547 v 54.6747 l -24.162539,31.8249 -0.003,0.003 -17.44323,7.23126 -9.4845,3.93053 h -0.007 l -15.27083,-0.8858 -8.43702,-7.16388 -0.62983,-0.53552 -2.37113,-8.57513 v -0.004 l 0.88581,-6.5307 -2.25661,-5.01843 0.95316,-4.72877 -0.44794,-0.0876 -0.98011,4.87023 2.25997,5.0319 -0.80496,5.9379 -4.73552,-5.60446 v -0.004 l -1.83224,-5.36198 1.68741,-4.74224 -0.42775,-0.15159 -1.59982,4.49301 -3.44555,-3.1424 -0.30986,0.3368 3.65774,3.33439 1.41795,4.1461 0.27282,0.80498 -4.27745,-1.72109 -0.16848,0.42436 4.68499,1.88613 5.02853,5.95139 2.27344,8.23156 -6.18377,-2.03767 -3.12556,-4.93424 -4.22357,-2.94706 -0.25934,0.37385 4.14608,2.89655 2.97065,4.68499 -4.2101,1.53247 0.15503,0.42775 4.40206,-1.59983 6.54754,2.15557 8.91192,7.57142 -9.1241,6.18714 -0.01,0.003 -7.13022,0.89591 -4.36164,4.32798 -1.39439,0.46479 h -0.003 l -1.96824,-2.13415 -5.76614,-2.10168 -4.85003,1.60657 0.14141,0.43448 4.70182,-1.55605 5.51016,2.00737 1.75477,1.90297 -2.48901,0.82855 0.14141,0.43111 2.68435,-0.89254 h 0.003 l 0.94979,1.03063 v 0.003 l -0.73912,2.85355 v 0.003 l -1.6874,0.58268 0.0809,0.23239 -0.69382,-0.0607 -0.0404,0.45468 5.26093,0.47154 2.81235,-1.48869 h 0.003 l 2.72141,0.7275 0.36038,2.62373 -3.90696,2.36102 h -0.003 l -5.042,0.0202 v 0.45469 l 4.76582,-0.0202 -2.65068,6.31849 v 0.003 l -0.003,0.003 -4.09222,3.21314 0.28293,0.35701 3.86318,-3.03464 1.39438,5.51018 0.44122,-0.1145 -1.45837,-5.77625 2.74834,-6.55089 3.73182,-2.24986 0.17852,1.30342 0.4513,-0.064 -0.20545,-1.49543 v -0.003 l 3.07168,-1.85243 8.1339,-1.58299 2.36776,-0.46143 -2.94707,10.14462 -5.41248,4.04843 -2.34082,4.27745 0.4008,0.21892 2.29366,-4.18988 5.12957,-3.8396 h 0.003 l 1.96358,6.56773 v 0.003 l -1.32027,4.53005 0.43784,0.12796 1.21926,-4.18653 3.65097,4.2741 5.0319,1.66045 0.14485,-0.43111 -4.91401,-1.62342 -3.8093,-4.45931 v -0.003 l -2.04441,-6.84054 v -0.003 l 3.03798,-10.45111 14.4524,-14.89362 0.003,-0.003 21.65333,-8.9759 5.03527,-2.08484 1.11146,29.8849 -9.58891,14.65111 -0.60961,0.9296 -0.003,0.003 -10.81153,5.76277 -6.61152,0.52541 0.0371,0.4547 6.25114,-0.49511 -4.72876,9.19147 v 0.003 l -5.05211,2.4048 0.19534,0.41091 4.77257,-2.27009 -0.45133,6.9315 v 0.003 l -2.78539,5.33839 0.40753,0.21219 2.57995,-4.95443 0.4008,0.95653 1.68067,3.98779 v 0.003 l -0.21556,4.50985 0.45469,0.0236 0.19871,-4.16967 3.69478,2.43848 z m -0.0471,-4.10905 -3.71499,-2.45196 -2.23977,-5.31818 v -0.003 l 0.4749,-7.26493 4.8938,-9.52154 5.38892,-2.87296 5.08916,-2.71131 -0.86896,10.80141 -0.003,0.003 v 0.003 l -4.89719,7.61858 -0.003,0.003 -4.75911,2.40481 -4.46269,-0.67699 -0.0708,0.45132 4.60752,0.69719 4.56036,-2.30039 -0.81843,5.77288 -3.1862,4.48964 z M 128.94131,265.6453 h -0.004 l -2.31384,-0.003 1.09125,-4.39197 -1.97369,-6.01875 v -0.003 l 0.31659,-0.83528 2.68773,-7.04937 2.77864,-2.98749 3.72174,-4.00126 1.93662,9.65626 v 0.003 0.003 l -1.23945,6.0962 -3.77896,3.95749 0.33005,0.3166 3.57354,-3.74531 1.57625,4.10232 0.0742,-0.0304 -0.57593,1.08453 -0.004,0.003 z m -2.7854,-0.003 -6.82032,-0.007 0.82179,-5.12285 4.43238,-4.12925 0.80159,-0.74771 1.84908,5.63141 z m -7.28176,-0.0101 h -0.97675 l -13.46892,-5.60448 -1.56615,-2.25997 -10.525229,-15.19673 v -0.003 l -1.12157,-30.13412 1.79854,-2.36777 22.219189,-29.26516 21.2761,26.665 v 0.004 l 2.75846,18.73661 v 0.003 l -4.08547,13.54639 -5.06559,5.44616 -1.69413,1.81877 -7.8476,2.7315 h -0.004 l -4.82308,-0.42775 -0.0371,0.4547 4.41555,0.39069 -4.15283,4.60079 -0.25261,5.89749 -0.61972,0.0742 0.0505,0.45132 0.7814,-0.0909 2.4688,3.89013 0.38732,-0.24588 -2.35091,-3.70486 3.23335,-0.38061 z m -2.69446,-5.01843 0.24248,-5.65836 4.31452,-4.77592 3.4186,-1.18894 4.00462,-1.39438 -2.85612,7.49734 -1.26638,1.17882 -4.19325,3.90697 z m 21.77457,-0.3368 -1.56278,-4.06864 v -0.003 l 0.80159,-3.94065 0.36041,-1.79181 h 0.004 l 2.97401,2.90327 -0.38398,2.78541 v 0.003 l -0.32332,0.60625 z m 2.70792,-4.50986 0.27284,-1.9939 1.11819,1.09125 z m -105.205079,-13.52953 -0.30987,-2.23978 2.78877,0.74435 -1.15525,0.69719 z m 3.06493,-1.81203 h -0.003 l -3.4388,-0.91949 -0.27281,-1.96695 v -0.003 l 2.06126,-3.82613 2.41826,-4.48628 8.43703,-5.71898 0.8757,-0.59278 14.83639,0.85888 -14.1291,14.55676 -5.63479,1.09799 z m -9.48111,-0.26272 -3.92718,-0.35027 4.06528,-1.40786 h 0.003 l 2.11177,0.56585 z m 5.56069,-0.78474 -2.06127,-0.549 1.84907,-0.98011 z m -7.87119,-0.60963 0.58605,-2.27681 1.45163,1.57289 z m 5.16325,-0.1145 h -0.003 -0.003 l -2.58668,-0.69046 -1.8457,-2.00062 0.40416,-1.57627 0.003,-0.003 4.24378,-4.2101 6.59469,-0.82853 -4.29766,7.97896 z m -4.80623,-3.0919 -0.60962,-0.66014 0.85212,-0.28291 z m 146.531339,-3.03126 -8.61215,-5.78635 v -0.003 l -1.03064,-1.87937 -4.57384,-8.34946 7.57816,-0.27955 8.02612,-0.29302 7.595,4.07536 0.8656,1.39776 2.97737,4.80286 0.0876,2.12525 -5.07569,3.90361 h -0.004 z m 13.35441,-4.57383 -0.0572,-1.42469 0.41427,0.21217 z m 0.48837,-0.0438 0.28291,-0.95318 1.78845,0.92286 z"
       id="path4045-7" />
    <path
       style="color:#000000;fill:#282a2e;stroke-width:1.72446;-inkscape-stroke:none"
       d="m 71.731331,13.313929 0.454685,0.0034 -0.0538,4.839918 3.165996,4.459329 0.885802,6.264613 3.290597,5.122837 1.461748,2.270081 3.69478,-5.277768 4.644574,-1.812024 0.165029,0.427745 -4.516591,1.761502 -3.762128,5.375443 0.89927,11.138221 v 0.0034 l 0.963271,1.475218 9.090418,13.886553 11.943198,-17.241149 v -0.0034 l 0.8858,-6.298292 0.74772,-5.308081 -2.36103,-5.934542 0.42438,-0.168411 2.25663,5.675201 5.7156,-5.486588 0.31659,0.33007 -5.90423,5.665096 v 0.0034 l -0.38059,2.704563 -1.19902,8.538057 13.14221,-5.463007 v -0.0034 l 0.006,-0.0034 4.03494,-4.984747 1.50217,-1.852439 v -0.0034 l 0.10429,-4.610892 0.45472,0.01012 -0.0978,4.321235 6.2781,-2.997583 3.20976,-4.40207 0.36713,0.269445 -3.27376,4.496375 -6.67217,3.18283 -5.29122,6.534059 h 0.4749 l -0.0572,-0.353647 0.44794,-0.07411 0.0675,0.424377 6.77992,-0.01012 -0.1043,-0.421009 0.44122,-0.11114 0.1314,0.532154 2.42166,-0.0034 h 0.004 l 6.34882,-3.586996 0.22565,0.397432 -6.01873,3.398385 v 0.0034 l 4.97803,2.33404 2.87295,1.347229 7.78362,-1.42469 h 0.004 l 3.43879,-2.084841 2.23639,-1.357333 1.8255,-4.674883 0.42437,0.16503 -1.74128,4.469433 4.24713,0.491736 -0.0505,0.451323 -4.46606,-0.511947 h -0.004 l -1.54292,0.936397 -3.66783,2.226292 6.40607,1.306808 4.74225,4.125891 -0.29976,0.343546 -4.65131,-4.048429 -6.82035,-1.387633 -7.54783,1.377545 v 0.0034 l 2.88306,5.412488 1.72782,1.121566 1.32027,-5.34513 0.44123,0.107782 -1.31356,5.331663 4.86687,-0.818442 0.0775,0.451324 -4.61763,0.778021 2.04778,1.330381 -0.24586,0.383966 -2.39807,-1.559421 -1.4348,1.397754 v 0.0034 l 0.2021,1.465113 -0.45133,0.0607 -0.15503,-1.131674 -2.98411,2.910015 -0.4008,2.01073 -1.6032,8.009289 3.96422,13.152316 5.47987,-7.574797 v -0.0034 l 0.0809,-6.816985 0.45807,0.0069 -0.0775,6.513844 6.15683,-3.101997 2.64057,-5.429319 -0.13474,-5.203675 -2.10504,-4.10568 0.40418,-0.208814 2.15219,4.196611 0.14145,5.422593 -2.55299,5.250822 5.92444,-0.33344 0.0235,0.454703 -6.26125,0.353633 h -0.006 l -6.46333,3.25694 -0.004,0.0034 -5.72573,7.921706 -1.53247,10.420816 -1.17546,7.975594 21.85206,-8.746889 h 0.004 v -0.0034 l 5.74257,-10.478068 v -0.0034 l 0.004,-0.468154 0.0606,-8.588585 -2.12862,-4.503115 0.4109,-0.195346 1.94338,4.109044 3.1222,-6.732766 5.67183,-4.024855 4.91739,-0.363756 0.0336,0.454704 -4.7894,0.357013 -5.46975,3.880018 -3.25692,7.019059 -0.0404,5.823391 -0.0202,2.862867 8.30903,-5.584261 3.21314,-7.015695 v -0.0034 l -0.55572,-6.67553 0.45468,-0.03708 0.53215,6.375751 3.70152,-2.192608 0.2324,0.394055 -3.95412,2.337444 -3.0919,6.756355 7.56133,0.276189 5.76614,-4.260606 4.94769,-0.33344 0.0304,0.454687 -4.81296,0.323334 -5.47985,4.051792 4.63783,3.566789 0.11452,-2.771937 0.45469,0.02018 -0.128,3.091893 v 0.0034 l 0.23578,0.181861 h 0.004 l 3.15925,0.0438 1.57962,-0.815063 3.23671,-3.624041 0.34018,0.303124 -3.29397,3.688035 -0.89591,0.461429 0.83528,0.0138 -0.006,0.45805 -1.6874,-0.02363 h -0.004 l -2.62374,1.353971 v 0.0034 l 0.93969,3.196307 3.2603,3.219881 -0.31997,0.326698 -3.34449,-3.307448 -0.9498,-3.223244 -0.62982,0.326697 -3.68467,5.948017 4.22355,0.528787 -0.0572,0.454685 -4.50648,-0.565827 -7.34576,3.940634 v 0.0034 l 7.9857,6.837175 0.004,0.0036 6.04907,1.586382 4.18651,-1.919822 0.18861,0.414283 -3.95748,1.815389 3.71498,3.634163 -0.3166,0.32334 -3.91371,-3.822779 -4.82981,-1.266401 -0.93969,-0.245858 0.70729,3.991158 0.40754,2.29703 0.004,0.004 3.12895,3.86991 -0.35366,0.28628 -2.87295,-3.54993 -1.16536,5.18344 -3.63078,3.30746 -0.30986,-0.3368 3.52637,-3.21314 1.22598,-5.45967 -1.16536,-6.57109 -8.16084,-6.988749 h -0.004 l -8.11706,-0.296382 -7.79035,-0.286294 -22.19559,8.888342 -21.41082,26.833433 V 180.634 h -0.4547 v -54.6747 l -24.162536,-31.824901 -0.0033,-0.0033 -17.443228,-7.231249 -9.484503,-3.930528 h -0.0066 l -15.270831,0.8858 -8.437024,7.163878 -0.629825,0.535527 -2.371129,8.575113 v 0.004 l 0.885803,6.5307 -2.256601,5.01843 0.95316,4.72877 -0.44794,0.0876 -0.980117,-4.87023 2.259968,-5.0319 -0.804955,-5.9379 -4.735521,5.60446 v 0.004 l -1.83224,5.36198 1.687412,4.74224 -0.427751,0.15159 -1.599819,-4.49301 -3.445548,3.1424 -0.309868,-0.3368 3.657746,-3.33439 1.417945,-4.1461 0.272821,-0.80498 -4.277448,1.72109 -0.168483,-0.42436 4.684998,-1.88613 5.028522,-5.95139 2.273446,-8.23155 -6.183768,2.037677 -3.125569,4.934224 -4.223569,2.947059 -0.259332,-0.37385 4.146076,-2.896545 2.970652,-4.68498 -4.210101,-1.532472 0.155027,-0.427751 4.402065,1.599831 6.547538,-2.15557 8.911921,-7.571418 -9.124107,-6.187145 -0.0099,-0.0034 -7.130217,-0.895905 -4.361641,-4.32798 -1.394389,-0.464792 h -0.0033 l -1.968242,2.134153 -5.766141,2.101677 -4.850026,-1.60657 0.141406,-0.434475 4.70182,1.556042 5.510164,-2.007366 1.754769,-1.902968 -2.48901,-0.828548 0.141407,-0.431114 2.684351,0.892543 h 0.0033 l 0.949794,-1.030637 v -0.0034 L 26.20854,67.36093 v -0.0034 l -1.687401,-0.582675 0.08087,-0.232388 -0.693816,0.0607 -0.04038,-0.454686 5.260932,-0.471534 2.812345,1.488685 h 0.0033 L 34.665798,66.438137 35.02618,63.8144 31.119224,61.453382 h -0.0033 l -5.042001,-0.02018 v -0.454688 l 4.765823,0.02018 -2.650683,-6.318499 v -0.0034 l -0.0033,-0.0034 -4.092218,-3.213137 0.282923,-0.357014 3.863186,3.03464 1.394378,-5.510178 0.441217,0.114504 -1.458369,5.776244 2.748343,6.550903 3.731815,2.249859 0.178519,-1.303428 0.451306,0.06398 -0.205452,1.495429 v 0.0034 l 3.071677,1.852424 8.133902,1.582996 2.367761,0.461431 -2.947073,-10.144629 -5.412481,-4.048429 -2.340816,-4.277454 0.400805,-0.21892 2.293657,4.189886 5.129571,3.839598 h 0.0033 l 1.963578,-6.567733 v -0.0034 l -1.320274,-4.530052 0.437839,-0.127954 1.21926,4.186523 3.650979,-4.274091 5.0319,-1.660459 0.14485,0.431115 -4.914018,1.623416 -3.809296,4.459315 v 0.0034 l -2.044415,6.840541 v 0.0034 l 3.037988,10.451115 14.452398,14.893616 0.0033,0.0034 21.653332,8.975898 5.035267,2.084842 1.111456,-29.884901 -9.588904,-14.651107 -0.609613,-0.9296 -0.0033,-0.0034 -10.811534,-5.762776 -6.611518,-0.525407 0.03708,-0.454697 6.251138,0.495101 -4.728756,-9.191462 v -0.0034 l -5.052111,-2.404803 0.19534,-0.410906 4.772568,2.270082 -0.451329,-6.931494 v -0.0034 l -2.785388,-5.338394 0.407527,-0.212189 2.579958,4.954435 0.400794,-0.956533 1.680667,-3.987796 v -0.0034 l -0.215553,-4.509848 0.454685,-0.02357 0.198708,4.169674 3.69478,-2.438485 z m -0.04709,4.109048 -3.714992,2.451957 -2.239768,5.318184 v 0.0034 l 0.474898,7.264932 4.893806,9.521543 5.388917,2.872956 5.089159,2.711306 -0.868958,-10.801409 -0.0033,-0.0034 v -0.0034 l -4.897195,-7.618578 -0.0033,-0.0034 -4.759104,-2.404805 -4.462689,0.676985 -0.07075,-0.451322 4.607518,-0.697192 4.560362,2.300393 -0.818433,-5.772875 -3.186196,-4.48964 z m 57.253869,23.239695 h -0.004 l -2.31384,0.0034 1.09125,4.391963 -1.97369,6.018756 v 0.0034 l 0.31659,0.835274 2.68773,7.049374 2.77864,2.987493 3.72174,4.001265 1.93662,-9.656264 v -0.0034 -0.0034 l -1.23945,-6.0962 -3.77896,-3.957499 0.33005,-0.316592 3.57354,3.745305 1.57625,-4.102319 0.0742,0.03036 -0.57593,-1.084525 -0.004,-0.0034 z m -2.7854,0.0034 -6.82032,0.0067 0.82179,5.122845 4.43238,4.129254 0.80159,0.747705 1.84908,-5.631407 z m -7.28176,0.01012 h -0.97675 l -13.46892,5.604481 -1.56615,2.259964 -10.525228,15.19674 v 0.0034 l -1.121568,30.13412 1.79854,2.367761 22.219186,29.265152 21.2761,-26.665001 v -0.0036 l 2.75846,-18.736597 v -0.0034 l -4.08547,-13.546387 -5.06559,-5.446167 -1.69413,-1.818763 -7.8476,-2.731499 h -0.004 l -4.82308,0.42775 -0.0371,-0.454703 4.41555,-0.390692 -4.15283,-4.600789 -0.25261,-5.89749 -0.61972,-0.07415 0.0505,-0.451323 0.7814,0.09088 2.4688,-3.890126 0.38732,0.245874 -2.35091,3.704866 3.23335,0.380604 z m -2.69446,5.018426 0.24248,5.65836 4.31452,4.775923 3.4186,1.188942 4.00462,1.394376 -2.85612,-7.497336 -1.26638,-1.178819 -4.19325,-3.906971 z m 21.77457,0.336801 -1.56278,4.068641 v 0.0034 l 0.80159,3.940649 0.36041,1.791811 h 0.004 l 2.97401,-2.903271 -0.38398,-2.785406 v -0.0034 l -0.32332,-0.606249 z m 2.70792,4.509859 0.27284,1.993898 1.11819,-1.09125 z m -105.205079,13.52954 -0.309868,2.239771 2.788766,-0.744343 -1.155245,-0.697196 z m 3.064933,1.81202 h -0.0033 l -3.438804,0.919495 -0.272811,1.966946 v 0.0034 l 2.061261,3.826131 2.418262,4.486284 8.437025,5.718975 0.875701,0.592781 14.83639,-0.858879 -14.129099,-14.556757 -5.634791,-1.097993 z m -9.481111,0.26272 -3.927178,0.35027 4.065273,1.407862 h 0.0033 l 2.111773,-0.565844 z m 5.560688,0.784747 -2.061271,0.548997 1.849074,0.98011 z m -7.871191,0.609629 0.586056,2.276812 1.451625,-1.572891 z m 5.16325,0.114503 h -0.0033 -0.0033 l -2.58668,0.690454 -1.845696,2.000625 0.40416,1.57627 0.0033,0.0034 4.24378,4.210097 6.594685,0.82853 -4.29766,-7.978956 z m -4.806225,3.091892 -0.609624,0.660139 0.852123,0.282913 z m 146.531335,3.031261 -8.61215,5.78635 v 0.0034 l -1.03064,1.879377 -4.57384,8.349456 7.57816,0.279551 8.02612,0.293018 7.595,-4.075364 0.8656,-1.397756 2.97737,-4.802859 0.0876,-2.12525 -5.07569,-3.903609 h -0.004 z m 13.35441,4.573835 -0.0572,1.424691 0.41427,-0.212176 z m 0.48837,0.0438 0.28291,0.953175 1.78845,-0.922858 z"
       id="path4045" />
    <path
       style="fill:#373b41;fill-rule:evenodd;stroke-width:0.264999"
       d="m 169.78252,169.10594 c 1.29265,-0.56263 2.58542,-1.12531 3.8283,-1.19658 1.24288,-0.0713 2.43543,0.34851 3.62833,0.76842 0.0721,-0.2359 0.14404,-0.47164 1.14523,-0.56903 1.00119,-0.0974 2.9311,-0.0561 5.0627,0.53197 2.1316,0.58807 4.46469,1.72273 6.84075,2.08593 2.37606,0.36319 4.79505,-0.0449 6.38067,1.28224 1.58561,1.32716 2.33791,4.38911 1.03907,6.06267 -1.29883,1.67357 -4.64883,1.959 -7.79663,1.57041 -3.14779,-0.3886 -6.09325,-1.45131 -8.08766,-2.0417 -1.99441,-0.59039 -3.03795,-0.70837 -4.08121,-0.82632 0.0402,-0.25596 0.0803,-0.51169 -0.42738,-0.40272 -0.50771,0.10897 -1.56342,0.58313 -2.66758,0.79783 -1.10416,0.21471 -2.25713,0.16987 -3.40984,0.12505 0,0 -1.45475,-8.18817 -1.45475,-8.18817 z"
       id="path1829"
       inkscape:path-effect="#path-effect1831"
       inkscape:original-d="m 169.78252,169.10594 c 0,0 2.58556,-1.12499 3.87794,-1.68788 1.19319,0.42018 3.57869,1.25972 3.57869,1.25972 0,0 0.14436,-0.47154 0.21614,-0.70771 1.93027,0.0416 3.86019,0.0828 5.78989,0.12385 2.33345,1.13498 4.66654,2.26964 6.99941,3.40407 2.41935,-0.40786 4.83834,-0.81596 7.25712,-1.22433 0.75259,3.06234 1.50488,6.12429 2.25693,9.18604 -3.34988,0.28571 -6.69988,0.57114 -10.05022,0.85632 -2.94532,-1.0625 -5.89078,-2.12522 -8.83657,-3.18822 -1.04301,-0.11769 -3.12978,-0.35385 -3.12978,-0.35385 0,0 0.0806,-0.51165 0.12055,-0.76787 -1.0555,0.47444 -2.11121,0.9486 -3.16721,1.4225 -1.15247,-0.0446 -3.45814,-0.13447 -3.45814,-0.13447 0,0 -1.45475,-8.18817 -1.45475,-8.18817 z" />
    <path
       style="fill:#373b41;fill-rule:evenodd;stroke-width:0.304616"
       d="m 148.01152,170.6335 c 0.53519,-2.67121 3.99751,-2.72137 7.4989,-2.31524 3.5014,0.40613 7.04168,1.26843 10.20208,0.6616 3.1604,-0.60682 5.94102,-2.68258 7.7399,-2.34474 1.79888,0.33783 2.61586,3.08879 2.98768,6.00454 0.37181,2.91574 0.29856,5.99617 -2.32673,7.38578 -2.62529,1.3896 -7.80274,1.08861 -11.87035,1.45059 -4.0676,0.36198 -7.02501,1.38698 -9.69982,-0.74629 -2.6748,-2.13327 -5.06684,-7.42503 -4.53166,-10.09624 z"
       id="path1646"
       inkscape:path-effect="#path-effect1648"
       inkscape:original-d="m 145.08408,168.01246 c 3.46263,-0.0499 6.92495,-0.1 10.38696,-0.15049 3.54073,0.86264 7.08101,1.72494 10.62107,2.58695 2.78104,-2.07554 5.56167,-4.15129 8.34204,-6.2274 0.81733,2.75137 1.63432,5.50233 2.45101,8.25304 -0.073,3.08085 -0.1462,6.16128 -0.21977,9.24147 -5.17735,-0.3007 -10.3548,-0.60169 -15.53265,-0.903 -2.95721,1.02535 -5.91462,2.05035 -8.87239,3.07506 -2.39183,-5.29168 -4.78387,-10.58344 -7.17627,-15.87563 z" />
    <path
       style="fill:#282a2e;fill-rule:evenodd;stroke-width:0.264999"
       d="m 110.86965,152.18725 c 1.29693,0.043 2.59411,0.0861 3.78935,-0.27682 1.19524,-0.36286 2.28893,-1.13153 4.05906,-2.6945 1.77014,-1.56297 4.21655,-3.92008 6.63594,-6.00466 2.4194,-2.08458 4.8115,-3.89639 7.00284,-5.31236 2.19134,-1.41597 4.18171,-2.43601 6.40264,-2.90616 2.22093,-0.47016 4.672,-0.39044 6.55166,0.69113 1.87966,1.08156 3.18778,3.16454 5.84204,5.18809 2.65426,2.02355 6.65422,3.98756 9.34991,6.85465 2.69569,2.86709 4.08701,6.63677 5.44808,8.47116 1.36107,1.83438 2.69159,1.73357 3.28688,2.20894 0.5953,0.47537 0.45555,1.52661 0.46268,2.66182 0.007,1.1352 0.16108,2.3542 -0.18109,2.94504 -0.34218,0.59084 -1.18067,0.55379 -1.80857,1.36235 -0.62791,0.80855 -1.04487,2.46249 -2.0024,3.40347 -0.95753,0.94097 -2.45582,1.16917 -3.48232,1.66366 -1.02651,0.49448 -1.58093,1.25514 -2.45599,0.73741 -0.87506,-0.51773 -2.07094,-2.31405 -2.24158,-3.20263 -0.17063,-0.88857 0.6839,-0.86907 0.65639,-1.31073 -0.0275,-0.44165 -0.93703,-1.34468 -1.84212,-1.33213 -0.9051,0.0126 -1.80544,0.94095 -3.17305,0.58217 -1.36762,-0.35877 -3.20269,-2.00491 -5.20998,-4.03994 -2.00729,-2.03503 -4.18661,-4.4588 -5.76299,-5.05771 -1.57639,-0.59892 -2.54938,0.62733 -3.48127,1.40324 -0.93189,0.77592 -1.82272,1.10149 -2.95793,1.49939 -1.13522,0.3979 -2.51472,0.86808 -2.78173,1.52659 -0.26701,0.65851 0.57836,1.50498 0.79585,2.21386 0.21749,0.70889 -0.1926,1.28035 0.2726,1.39343 0.4652,0.11307 1.80542,-0.23215 3.60624,0.38238 1.80083,0.61454 4.06202,2.18851 5.96234,2.65452 1.90033,0.46602 3.43985,-0.17567 4.90162,-0.0166 1.46177,0.1591 2.84552,1.1187 4.68982,2.00806 1.84431,0.88936 4.14902,1.70853 5.78135,2.61069 1.63233,0.90217 2.59225,1.88712 2.66768,3.24749 0.0754,1.36037 -0.73328,3.09623 -1.17199,4.20316 -0.43872,1.10693 -0.50745,1.58478 -2.756,2.14639 -2.24855,0.5616 -6.67699,1.20718 -12.4126,1.59436 -5.73561,0.38718 -12.77806,0.51591 -17.81716,0.24092 -5.0391,-0.27498 -8.07464,-0.95372 -10.58111,-0.93329 -2.50646,0.0204 -4.48372,0.74018 -6.46087,1.45989 1.42043,-3.17726 2.84081,-6.3544 2.81796,-10.26206 -0.0228,-3.90765 -1.48907,-8.5457 -2.13004,-12.33493 -0.64098,-3.78923 -0.45655,-6.7296 -0.27214,-9.66978 0,0 0,1e-5 0,1e-5 z"
       id="path164"
       inkscape:path-effect="#path-effect166"
       inkscape:original-d="m 110.86965,152.18725 c 0,0 2.5941,0.0863 3.89079,0.12906 1.09401,-0.76844 2.1877,-1.53711 3.28119,-2.30608 2.44683,-2.357 4.89323,-4.71412 7.33953,-7.07164 2.39246,-1.81161 4.78456,-3.62341 7.17644,-5.43551 1.99074,-1.01983 3.98111,-2.03987 5.97133,-3.06022 2.45147,0.08 4.90254,0.15971 7.35348,0.23917 1.30846,2.08336 2.61658,4.16635 3.92452,6.2492 4.00046,1.96439 8.00042,3.92841 12.00034,5.89227 1.39166,3.77016 2.78298,7.53984 4.17412,11.30949 1.33087,-0.10055 2.66139,-0.20136 3.99174,-0.30243 -0.13949,1.05157 -0.27924,2.10281 -0.41925,3.15385 0.15421,1.2193 0.30816,2.4383 0.46184,3.65706 -0.83827,-0.0368 -1.67676,-0.0738 -2.51554,-0.11117 -0.41671,1.65426 -0.83367,3.3082 -1.2509,4.9619 -1.49809,0.22848 -2.99638,0.45667 -4.49497,0.68461 -0.55417,0.76095 -1.10859,1.52161 -1.66328,2.28201 -1.19567,-1.79612 -2.39155,-3.59244 -3.58773,-5.38906 0.85484,0.0198 1.70937,0.0393 2.56365,0.0585 -0.90929,-0.9028 -1.8188,-1.80584 -2.72861,-2.70915 -0.90012,0.92869 -1.80046,1.85708 -2.70109,2.78522 -1.83489,-1.64593 -3.66996,-3.29207 -5.50533,-4.93851 -2.17918,-2.42365 -4.35849,-4.84742 -6.5382,-7.2716 -0.97279,1.22659 -1.94578,2.45284 -2.9191,3.6789 -0.89063,0.32586 -1.78146,0.65143 -2.67262,0.97676 -1.37928,0.47046 -2.75878,0.94065 -4.13857,1.41058 0.84566,0.84677 1.69103,1.69324 2.53615,2.53947 -0.40984,0.57175 -0.81993,1.14322 -1.23029,1.71443 1.34054,-0.34497 2.68076,-0.69019 4.02074,-1.03568 2.26155,1.5743 4.52274,3.14827 6.78371,4.72201 1.53985,-0.64144 3.07938,-1.28312 4.61868,-1.92509 1.38406,0.9599 2.76781,1.9195 4.15132,2.87885 2.30508,0.81947 4.6098,1.63863 6.9143,2.45755 0.96021,0.98526 1.92013,1.97021 2.8798,2.95492 -0.80848,1.73618 -1.6172,3.47204 -2.42619,5.20766 -0.0685,0.47813 -0.1372,0.95598 -0.20619,1.43358 -4.42836,0.64587 -8.8568,1.29145 -13.2856,1.93678 -7.04246,0.129 -14.08491,0.25772 -21.12776,0.38619 -3.03539,-0.6785 -6.07093,-1.35724 -9.10678,-2.03626 -1.97693,0.71999 -5.93145,2.15914 -5.93145,2.15914 0,0 2.84113,-6.35426 4.2613,-9.53179 -1.46602,-4.63797 -2.93224,-9.27602 -4.39876,-13.91443 0.18468,-2.93998 0.55324,-8.82055 0.55324,-8.82055 z"
       sodipodi:nodetypes="cccccccccccccccccccccccccccccccccccccccccccc" />
    <path
       style="fill:#282a2e;fill-rule:evenodd;stroke-width:0.264999"
       d="m 169.22184,163.12911 c -0.0492,-0.0556 0.16611,-1.57691 0.81351,-2.16795 0.64739,-0.59104 1.72644,-0.25167 1.72625,0.66307 -1.8e-4,0.91474 -1.07923,2.40485 -1.75147,3.11774 -0.67224,0.7129 -0.93799,0.64854 -0.61742,-0.0146 0.32058,-0.66318 1.2278,-1.92509 1.4101,-2.75199 0.1823,-0.82691 -0.36067,-1.21894 -0.78926,-0.70987 -0.4286,0.50907 -0.74246,1.91921 -0.79171,1.86363 z"
       id="path361"
       inkscape:path-effect="#path-effect363"
       inkscape:original-d="m 168.95727,164.59466 c 0.21562,-1.52108 0.43097,-3.04242 0.64607,-4.56402 1.07935,0.33964 2.1584,0.67901 3.2372,1.01813 -1.07882,1.49042 -2.15787,2.98052 -3.2372,4.47039 -0.2655,-0.0641 -0.53125,-0.12846 -0.79728,-0.19309 0.90753,-1.26169 1.81475,-2.5236 2.72173,-3.7858 -0.54272,-0.39178 -1.08568,-0.78381 -1.62892,-1.17611 -0.31361,1.41046 -0.62747,2.8206 -0.9416,4.2305 z" />
    <path
       style="fill:#282a2e;fill-rule:evenodd;stroke-width:0.264999"
       d="m 168.5565,163.69746 c 0.34235,0.65747 0.68486,1.31524 1.12972,2.77415 0.44485,1.4589 0.99226,3.71914 2.49926,5.58163 1.507,1.86248 3.97323,3.32723 7.38973,4.19265 3.41651,0.86543 7.7831,1.13166 10.16394,1.98904 2.38084,0.85738 2.77595,2.30523 3.17115,3.75343 0,0 0.9691,0.31013 0.9691,0.31013 0.0504,0.52466 0.10084,1.04961 -5.00696,1.15479 -5.1078,0.10518 -15.37391,-0.20884 -25.63996,-0.52286 0.0149,-0.39399 0.0298,-0.78771 0.17412,-0.9824 0.14433,-0.19469 0.41754,-0.18983 0.69102,-0.18496 -0.50497,-0.92318 -1.00976,-1.84602 -1.04809,-3.32551 -0.0383,-1.47949 0.39018,-3.51511 -0.11198,-5.09019 -0.50215,-1.57509 -1.93521,-2.68958 -1.15394,-4.22128 0.78127,-1.53169 3.77702,-3.48012 6.77289,-5.42862 z"
       id="path365"
       inkscape:path-effect="#path-effect367"
       inkscape:original-d="m 168.5565,163.69746 c 0,0 0.68496,1.31519 1.02706,1.97241 0.5477,2.2606 1.09511,4.52083 1.64227,6.78086 2.4666,1.46507 4.93283,2.92982 7.39885,4.39433 4.36702,0.26651 8.73361,0.53274 13.10002,0.79871 0.39547,1.44849 1.1856,4.34459 1.1856,4.34459 l 0.9691,0.31013 c 0,0 0.10108,1.04959 0.15122,1.57399 -10.26599,-0.31376 -30.79814,-0.94206 -30.79814,-0.94206 0,0 0.0301,-0.7877 0.0447,-1.18196 0.27375,0.005 0.82044,0.0146 0.82044,0.0146 0,0 -1.00967,-1.84607 -1.51491,-2.76953 0.42879,-2.03541 0.85731,-4.07102 1.28556,-6.10691 -1.4329,-1.11431 -2.86596,-2.22881 -4.29938,-3.34364 2.99619,-1.94828 8.98761,-5.84552 8.98761,-5.84552 z"
       sodipodi:nodetypes="ccccccccccccccc" />
    <path
       style="fill:#e0e0e0;fill-rule:evenodd;stroke-width:0.264999"
       d="m 43.87193,162.37532 c 0.332611,-0.65793 0.997884,-1.97388 0.61766,-3.29945 -0.380225,-1.32557 -1.806217,-2.66085 -4.475689,-3.4099 -2.669473,-0.74906 -6.582242,-0.91162 -10.116265,-2.5326 -3.534023,-1.62098 -6.689092,-4.7005 -8.647131,-7.66979 -1.958039,-2.96928 -2.718773,-5.8282 -1.617076,-9.0286 1.101698,-3.2004 4.065825,-6.74179 7.319639,-8.5035 3.253813,-1.76171 6.796825,-1.74365 11.279528,0.802 4.482704,2.54565 9.904816,7.61842 12.687029,10.92124 2.782213,3.30281 2.924662,4.83548 2.344252,6.06097 -0.58041,1.22549 -1.883653,2.14406 -1.680437,3.0247 0.203217,0.88063 1.912592,1.72308 2.927033,3.6713 1.014441,1.94822 1.334192,5.00195 -0.610064,6.95638 -1.944256,1.95442 -6.15253,2.80977 -8.25681,3.23747 -2.10428,0.42771 -2.10428,0.4277 -1.771669,-0.23022 z"
       id="path482"
       inkscape:path-effect="#path-effect484"
       inkscape:original-d="m 43.539319,163.03324 c 0.665538,-1.31569 1.330814,-2.63164 1.995823,-3.94786 -1.425784,-1.33507 -2.851777,-2.67035 -4.278063,-4.00592 -3.912661,-0.1623 -7.825431,-0.32485 -11.738542,-0.48768 -3.154929,-3.07938 -6.309996,-6.15891 -9.465391,-9.23876 -0.760499,-2.85877 -1.521232,-5.71769 -2.282245,-8.57693 2.964511,-3.54127 5.92864,-7.08266 8.892563,-10.62439 3.543416,0.0183 7.086428,0.0364 10.629243,0.0542 5.422588,5.07323 10.844697,10.14601 16.26665,15.21862 0.142719,1.53299 0.285168,3.06566 0.427355,4.59809 -1.303034,0.91887 -2.606278,1.83744 -3.909814,2.75577 1.709705,0.84275 3.41908,1.6852 5.128223,2.5274 0.320026,3.05411 0.639778,6.10784 0.95927,9.16136 -4.208176,0.85565 -8.416451,1.711 -12.625072,2.56611 z" />
    <path
       style="fill:#e0e0e0;fill-rule:evenodd;stroke-width:0.264999"
       d="m 19.842471,135.73243 c 0.193949,-0.52889 0.581899,-1.58681 0.0053,-1.73011 -0.576557,-0.1433 -2.117719,0.6282 -3.393804,2.23391 -1.276086,1.60571 -2.286859,4.04534 -2.347843,6.07376 -0.06098,2.02842 0.719164,3.44806 1.263909,4.8395 0.544745,1.39143 0.799964,2.65595 1.365731,3.76946 0.565767,1.11351 1.441966,2.07611 2.183049,4.55258 0.741083,2.47646 1.34754,6.46749 2.221978,10.95649 0.874438,4.48899 2.016428,9.474 3.03543,12.52432 1.019001,3.05031 1.914597,4.16497 6.324594,4.52348 4.409997,0.3585 12.334035,-0.0389 17.753952,-0.81491 5.419917,-0.77606 8.33555,-1.93073 10.379213,-2.1938 2.043663,-0.26308 3.215068,0.36522 3.419531,-0.64299 0.204463,-1.00821 -0.557783,-3.65296 -2.471699,-5.26578 -1.913916,-1.61282 -4.979573,-2.19338 -7.78988,-4.05175 -2.810308,-1.85837 -5.365032,-4.99465 -7.499679,-5.09019 -2.134647,-0.0955 -3.848804,2.84979 -5.505923,4.38179 -1.657118,1.532 -3.257627,1.65071 -4.857925,1.7694 -2.87023,-6.37593 -5.740316,-12.75154 -7.289889,-16.51105 -1.549573,-3.75952 -1.778398,-4.90257 -2.714112,-6.57979 -0.935715,-1.67722 -2.578415,-3.8885 -3.408982,-6.01341 -0.830567,-2.12492 -0.848753,-4.16331 -0.857847,-5.18266 -0.0091,-1.01936 -0.0091,-1.01936 0.184855,-1.54825 z"
       id="path585"
       inkscape:path-effect="#path-effect587"
       inkscape:original-d="m 19.648523,136.26132 c 0.388215,-1.05766 0.776166,-2.11558 1.163852,-3.17377 -1.540961,0.77179 -3.082125,1.54328 -4.623585,2.31453 -1.010548,2.43999 -2.021321,4.87962 -3.032378,7.31903 1.279315,1.40268 1.669009,3.03689 2.503117,4.55494 0.255493,1.26483 0.510711,2.52935 0.76567,3.79362 0.876385,0.96278 1.752581,1.92538 2.628309,2.88748 0.606647,3.99081 1.213105,7.98184 1.819377,11.97313 1.142578,4.98669 2.28457,9.9717 3.426504,14.95736 0.895908,1.11498 1.791504,2.22964 2.686858,3.34407 7.92462,-0.39711 15.848658,-0.79447 23.77259,-1.1921 2.916016,-1.15444 5.83165,-2.3091 8.74708,-3.46406 1.171716,0.62858 2.343121,1.25687 3.514286,1.88491 -0.762013,-2.6446 -1.524259,-5.28935 -2.286786,-7.93442 -3.065518,-0.58032 -6.131176,-1.16087 -9.197162,-1.7417 -2.55456,-3.13614 -5.109284,-6.27242 -7.664326,-9.40903 -1.713965,2.94573 -3.428129,5.89106 -5.14259,8.8362 -1.600065,0.11896 -4.800893,0.35608 -4.800893,0.35608 0,0 -5.740196,-12.75159 -8.610689,-19.12778 -0.22857,-1.14283 -0.457395,-2.28588 -0.686489,-3.42922 -1.642497,-2.21109 -3.285193,-4.42237 -4.928187,-6.63395 -0.01792,-2.03822 -0.03611,-4.07661 -0.05456,-6.11532 z"
       sodipodi:nodetypes="sccccccccccccccccccccss" />
    <path
       style="fill:#282a2e;fill-rule:evenodd;stroke-width:0.264999"
       d="m 53.259163,147.05625 c 0.241026,-0.22582 0.401654,-0.29936 2.91211,0.24774 2.510457,0.5471 7.370353,1.71467 10.831598,3.31908 3.461245,1.60442 5.523708,3.6454 12.563089,4.34367 7.039381,0.69828 19.054927,0.0541 31.07096,-0.59007 0,0 0.41371,2.58546 0.41371,2.58546 -12.344881,0.53323 -24.689509,1.06646 -32.109164,0.17334 -7.419654,-0.89312 -9.914009,-3.21277 -13.520768,-4.96683 -3.606758,-1.75406 -8.326031,-2.94234 -13.045087,-4.13057 0.321271,-0.37801 0.642527,-0.75601 0.883552,-0.98182 z"
       id="path782"
       inkscape:path-effect="#path-effect784"
       inkscape:original-d="m 53.339424,146.90403 c 0.160902,-0.0733 0.321538,-0.14682 0.481907,-0.22062 4.860354,1.16787 9.720249,2.33544 14.579976,3.50276 2.06281,2.04132 4.125272,4.0823 6.187514,6.12306 12.016535,-0.64393 36.048099,-1.93256 36.048099,-1.93256 l 0.41371,2.58546 c 0,0 -24.689497,1.06673 -37.034643,1.5997 -2.494187,-2.31947 -4.988541,-4.63912 -7.483207,-6.95908 -4.718886,-1.18799 -14.157169,-3.56468 -14.157169,-3.56468 0,0 0.642808,-0.75577 0.963813,-1.13404 z"
       sodipodi:nodetypes="cccccccccc" />
    <path
       style="fill:#282a2e;fill-rule:evenodd;stroke-width:0.264999"
       d="m 112.32764,167.35937 c 0,0 0.27278,2.46547 0.27278,2.46547 -11.02629,0.53284 -22.052324,1.06566 -31.418503,0.2516 -9.366178,-0.81405 -17.072002,-2.97502 -23.120914,-4.15296 -6.048913,-1.17795 -10.440547,-1.37276 -12.931309,-1.15343 -2.490762,0.21934 -3.080245,0.85278 -3.669749,1.48624 0,0 1.272963,-2.02425 1.272963,-2.02425 0.90926,-0.35221 1.818664,-0.70448 4.38061,-0.80572 2.561947,-0.10124 6.776281,0.0484 12.53426,1.09672 5.757978,1.0483 13.05919,2.9951 22.096546,3.61754 9.037357,0.62244 19.810106,-0.0794 30.583316,-0.78121 z"
       id="path819"
       inkscape:path-effect="#path-effect821"
       inkscape:original-d="m 112.32764,167.35937 c 0,0 0.27278,2.46547 0.27278,2.46547 0,0 -22.052311,1.06594 -33.078864,1.59851 -7.705865,-2.16079 -15.41169,-4.32175 -23.117931,-6.48302 -4.391546,-0.19455 -8.78318,-0.38936 -13.175168,-0.58443 -0.589251,0.63374 -1.768512,1.90039 -1.768512,1.90039 0,0 1.272963,-2.02425 1.272963,-2.02425 0,0 1.818786,-0.70416 2.727781,-1.05663 4.214767,0.14992 8.429101,0.29958 12.643254,0.44897 7.301765,1.94714 14.602976,3.89394 21.904066,5.84051 10.77369,-0.70159 32.319631,-2.10552 32.319631,-2.10552 z" />
    <path
       style="fill:#e0e0e0;fill-rule:evenodd;stroke-width:0.264999"
       d="m 59.533746,145.80365 c 0.116688,-0.0555 0.233491,-0.111 1.836919,-0.2 1.603429,-0.089 4.693333,-0.21156 7.079389,0.76396 2.386056,0.97552 4.067917,3.04847 5.750046,5.12174 -2.167069,-1.18049 -4.333822,-2.3608 -6.778243,-3.30847 -2.444421,-0.94767 -5.166395,-1.66248 -7.888111,-2.37723 z"
       id="path823"
       inkscape:path-effect="#path-effect825"
       inkscape:original-d="m 59.533746,145.80365 c 0,0 0.233643,-0.11068 0.350065,-0.16642 3.090294,-0.1223 6.180198,-0.24487 9.269902,-0.3677 1.682427,2.07358 5.046387,6.21982 5.046387,6.21982 0,0 -4.333872,-2.36071 -6.501206,-3.54146 -2.721505,-0.7145 -8.165148,-2.14424 -8.165148,-2.14424 z" />
    <path
       style="fill:#e0e0e0;fill-rule:evenodd;stroke-width:0.264999"
       d="m 100.61285,149.08454 c 2.04133,0.15486 4.15384,0.66834 5.30998,1.6993 1.15614,1.03096 1.35617,2.57911 0.0476,3.61494 -1.30852,1.03582 -4.12565,1.55961 -6.343461,1.1456 -2.217814,-0.41402 -3.836263,-1.76607 -4.380456,-2.79184 -0.544194,-1.02577 -0.0138,-1.72502 -0.28651,-1.8386 -0.27271,-0.11358 -1.348647,0.35861 -1.537381,0.1935 -0.188734,-0.16511 0.509863,-0.96757 1.844348,-1.47075 1.334485,-0.50318 3.304509,-0.70702 5.34583,-0.55215 z"
       id="path860"
       inkscape:path-effect="#path-effect862"
       inkscape:original-d="m 100.54136,148.72585 c 2.11277,0.51374 4.22528,1.02722 6.33753,1.54044 0.20031,1.54848 0.40034,3.09663 0.60011,4.64454 -2.81698,0.52408 -5.63411,1.04787 -8.451564,1.5714 -1.618253,-1.35184 -3.236701,-2.70389 -4.855448,-4.05623 0.530677,-0.69901 1.061071,-1.39826 1.591209,-2.09779 -1.075714,0.47247 -2.15165,0.94466 -3.227874,1.41659 0.698894,-0.80223 1.397495,-1.60468 2.095844,-2.40742 1.970368,-0.20358 3.940392,-0.40742 5.910193,-0.61153 z" />
    <path
       id="path4329"
       style="fill:#e0e0e0;fill-rule:evenodd;stroke-width:0.264999"
       sodipodi:type="inkscape:offset"
       inkscape:radius="-0.88608384"
       inkscape:original="M 23.324219 6.3125 C 19.215205 6.5845544 15.10653 8.0476522 12.367188 10.974609 C 6.8885021 16.828524 6.88946 28.537786 7.2460938 34.470703 C 7.6027275 40.40362 8.3152412 40.561746 8.671875 35.070312 C 9.0285088 29.578879 9.0279667 18.437623 13.878906 12.867188 C 18.729846 7.2967518 28.432264 7.2969436 33.283203 10.277344 C 38.134143 13.257744 38.134354 19.218819 34.244141 22.199219 C 30.353928 25.179619 22.573807 25.178715 18.683594 23.490234 C 14.793381 21.801754 14.793521 18.424807 16.9375 16.736328 C 19.081479 15.04785 23.368641 15.048259 25.539062 15.734375 C 27.709484 16.420491 27.795345 18.646396 26.898438 19.496094 C 26.00153 20.345792 24.142761 20.345398 23.041016 20.101562 C 21.93927 19.857727 21.329931 18.993576 20.806641 18.388672 C 20.28335 17.783768 19.682513 17.308043 19.335938 17.740234 C 18.989362 18.172426 18.886758 20.530257 20.777344 21.404297 C 22.667929 22.278337 26.526348 22.279265 28.455078 20.654297 C 30.383808 19.029328 30.383279 15.779265 27.462891 14.154297 C 24.542503 12.529328 18.701638 12.529782 15.78125 14.972656 C 12.860862 17.415531 12.860363 22.301266 17.34375 24.744141 C 21.827137 27.187015 30.793957 27.185292 35.277344 23.507812 C 39.760731 19.830334 39.759935 12.476307 34.28125 8.7988281 C 31.541907 6.9600887 27.433233 6.0404456 23.324219 6.3125 z "
       d="M 23.382812,7.1972656 C 19.443909,7.4580571 15.551628,8.8682994 13.013672,11.580078 8.9307536,15.942631 8.0660785,24.144597 8.0527344,30.287109 8.179816,28.286064 8.3653357,26.099714 8.7148438,23.861328 9.3776129,19.616697 10.59332,15.291021 13.210938,12.285156 15.828552,9.2792945 19.692114,7.8213869 23.501953,7.4824219 c 3.809839,-0.338965 7.594173,0.4109313 10.244141,2.0390625 0.121684,0.074762 0.205879,0.1735262 0.322265,0.2519531 C 33.965979,9.6987612 33.89409,9.6069652 33.787109,9.5351562 31.274668,7.8487209 27.321629,6.9364799 23.382812,7.1972656 Z m -1.71875,6.7265624 c -2.053625,0.09596 -4.077229,0.693591 -5.314453,1.728516 -1.237226,1.034927 -1.845625,2.572554 -1.68164,4.111328 0.0047,0.04382 0.04294,0.08507 0.04883,0.128906 -0.114249,-1.471422 0.477654,-2.91106 1.671875,-3.851562 1.297552,-1.02188 3.052445,-1.446497 4.771484,-1.580078 1.719039,-0.133582 3.401446,0.03415 4.646485,0.427734 2.689184,0.850108 3.179455,3.849526 1.701171,5.25 -0.116335,0.110212 -0.263538,0.149241 -0.390624,0.236328 0.261545,-0.131382 0.571994,-0.233657 0.767578,-0.398438 0.741722,-0.624906 1.106354,-1.552945 1.011718,-2.482421 -0.09464,-0.929477 -0.624348,-1.87595 -1.865234,-2.566407 -1.240841,-0.690431 -3.313562,-1.09987 -5.367188,-1.003906 z m -1.603515,4.97461 c 0.0092,0.110802 -0.0045,0.199701 0.02148,0.316406 0.123959,0.557564 0.402133,1.077664 1.066407,1.384765 0.298772,0.138126 0.921167,0.107828 1.376953,0.195313 -1.213848,-0.419437 -1.960235,-1.330915 -2.388672,-1.826172 -0.03113,-0.03599 -0.04467,-0.0366 -0.07617,-0.07031 z m 4.210937,2.144531 c 0.105913,-0.0029 0.167561,0.04594 0.273438,0.03906 0.03547,-0.0023 0.06615,-0.01678 0.101562,-0.01953 -0.133121,0.004 -0.245069,-0.01653 -0.375,-0.01953 z m -8.851562,0.724609 c 0.06297,0.102774 0.08225,0.209815 0.154297,0.310547 -0.07073,-0.09906 -0.09236,-0.208944 -0.154297,-0.310547 z m 1.99414,1.894531 c 0.145563,0.09212 0.194393,0.217986 0.353516,0.304688 0.04155,0.02264 0.113672,0.02855 0.15625,0.05078 -0.201188,-0.102739 -0.327117,-0.242309 -0.509766,-0.355469 z m 3.265626,1.265625 c 0.408822,0.101266 0.734671,0.237768 1.171874,0.3125 -0.431594,-0.06744 -0.766393,-0.218716 -1.171874,-0.3125 z m 8.177734,0.169922 c -0.78489,0.130155 -1.546067,0.338722 -2.34375,0.382813 -0.912178,0.05042 -1.776166,-0.05442 -2.660156,-0.107422 0.810947,0.058 1.586735,0.200276 2.416015,0.162109 0.893076,-0.0411 1.723692,-0.28027 2.587891,-0.4375 z"
       transform="translate(0.04867901,1.1085394)" />
    <path
       id="path4329-5"
       style="fill:#e0e0e0;fill-rule:evenodd;stroke-width:0.264999"
       sodipodi:type="inkscape:offset"
       inkscape:radius="-0.88608384"
       inkscape:original="M 23.324219 6.3125 C 19.215205 6.5845544 15.10653 8.0476522 12.367188 10.974609 C 6.8885021 16.828524 6.88946 28.537786 7.2460938 34.470703 C 7.6027275 40.40362 8.3152412 40.561746 8.671875 35.070312 C 9.0285088 29.578879 9.0279667 18.437623 13.878906 12.867188 C 18.729846 7.2967518 28.432264 7.2969436 33.283203 10.277344 C 38.134143 13.257744 38.134354 19.218819 34.244141 22.199219 C 30.353928 25.179619 22.573807 25.178715 18.683594 23.490234 C 14.793381 21.801754 14.793521 18.424807 16.9375 16.736328 C 19.081479 15.04785 23.368641 15.048259 25.539062 15.734375 C 27.709484 16.420491 27.795345 18.646396 26.898438 19.496094 C 26.00153 20.345792 24.142761 20.345398 23.041016 20.101562 C 21.93927 19.857727 21.329931 18.993576 20.806641 18.388672 C 20.28335 17.783768 19.682513 17.308043 19.335938 17.740234 C 18.989362 18.172426 18.886758 20.530257 20.777344 21.404297 C 22.667929 22.278337 26.526348 22.279265 28.455078 20.654297 C 30.383808 19.029328 30.383279 15.779265 27.462891 14.154297 C 24.542503 12.529328 18.701638 12.529782 15.78125 14.972656 C 12.860862 17.415531 12.860363 22.301266 17.34375 24.744141 C 21.827137 27.187015 30.793957 27.185292 35.277344 23.507812 C 39.760731 19.830334 39.759935 12.476307 34.28125 8.7988281 C 31.541907 6.9600887 27.433233 6.0404456 23.324219 6.3125 z "
       transform="matrix(-1,0,0,1,212.98899,2.1062716)"
       d="M 23.382812,7.1972656 C 19.443909,7.4580571 15.551628,8.8682994 13.013672,11.580078 8.9307536,15.942631 8.0660785,24.144597 8.0527344,30.287109 8.179816,28.286064 8.3653357,26.099714 8.7148438,23.861328 9.3776129,19.616697 10.59332,15.291021 13.210938,12.285156 15.828552,9.2792945 19.692114,7.8213869 23.501953,7.4824219 c 3.809839,-0.338965 7.594173,0.4109313 10.244141,2.0390625 0.121684,0.074762 0.205879,0.1735262 0.322265,0.2519531 C 33.965979,9.6987612 33.89409,9.6069652 33.787109,9.5351562 31.274668,7.8487209 27.321629,6.9364799 23.382812,7.1972656 Z m -1.71875,6.7265624 c -2.053625,0.09596 -4.077229,0.693591 -5.314453,1.728516 -1.237226,1.034927 -1.845625,2.572554 -1.68164,4.111328 0.0047,0.04382 0.04294,0.08507 0.04883,0.128906 -0.114249,-1.471422 0.477654,-2.91106 1.671875,-3.851562 1.297552,-1.02188 3.052445,-1.446497 4.771484,-1.580078 1.719039,-0.133582 3.401446,0.03415 4.646485,0.427734 2.689184,0.850108 3.179455,3.849526 1.701171,5.25 -0.116335,0.110212 -0.263538,0.149241 -0.390624,0.236328 0.261545,-0.131382 0.571994,-0.233657 0.767578,-0.398438 0.741722,-0.624906 1.106354,-1.552945 1.011718,-2.482421 -0.09464,-0.929477 -0.624348,-1.87595 -1.865234,-2.566407 -1.240841,-0.690431 -3.313562,-1.09987 -5.367188,-1.003906 z m -1.603515,4.97461 c 0.0092,0.110802 -0.0045,0.199701 0.02148,0.316406 0.123959,0.557564 0.402133,1.077664 1.066407,1.384765 0.298772,0.138126 0.921167,0.107828 1.376953,0.195313 -1.213848,-0.419437 -1.960235,-1.330915 -2.388672,-1.826172 -0.03113,-0.03599 -0.04467,-0.0366 -0.07617,-0.07031 z m 4.210937,2.144531 c 0.105913,-0.0029 0.167561,0.04594 0.273438,0.03906 0.03547,-0.0023 0.06615,-0.01678 0.101562,-0.01953 -0.133121,0.004 -0.245069,-0.01653 -0.375,-0.01953 z m -8.851562,0.724609 c 0.06297,0.102774 0.08225,0.209815 0.154297,0.310547 -0.07073,-0.09906 -0.09236,-0.208944 -0.154297,-0.310547 z m 1.99414,1.894531 c 0.145563,0.09212 0.194393,0.217986 0.353516,0.304688 0.04155,0.02264 0.113672,0.02855 0.15625,0.05078 -0.201188,-0.102739 -0.327117,-0.242309 -0.509766,-0.355469 z m 3.265626,1.265625 c 0.408822,0.101266 0.734671,0.237768 1.171874,0.3125 -0.431594,-0.06744 -0.766393,-0.218716 -1.171874,-0.3125 z m 8.177734,0.169922 c -0.78489,0.130155 -1.546067,0.338722 -2.34375,0.382813 -0.912178,0.05042 -1.776166,-0.05442 -2.660156,-0.107422 0.810947,0.058 1.586735,0.200276 2.416015,0.162109 0.893076,-0.0411 1.723692,-0.28027 2.587891,-0.4375 z" />
    <path
       id="path4329-3"
       style="fill:#e0e0e0;fill-rule:evenodd;stroke-width:0.264999"
       sodipodi:type="inkscape:offset"
       inkscape:radius="-0.88608384"
       inkscape:original="M 23.324219 6.3125 C 19.215205 6.5845544 15.10653 8.0476522 12.367188 10.974609 C 6.8885021 16.828524 6.88946 28.537786 7.2460938 34.470703 C 7.6027275 40.40362 8.3152412 40.561746 8.671875 35.070312 C 9.0285088 29.578879 9.0279667 18.437623 13.878906 12.867188 C 18.729846 7.2967518 28.432264 7.2969436 33.283203 10.277344 C 38.134143 13.257744 38.134354 19.218819 34.244141 22.199219 C 30.353928 25.179619 22.573807 25.178715 18.683594 23.490234 C 14.793381 21.801754 14.793521 18.424807 16.9375 16.736328 C 19.081479 15.04785 23.368641 15.048259 25.539062 15.734375 C 27.709484 16.420491 27.795345 18.646396 26.898438 19.496094 C 26.00153 20.345792 24.142761 20.345398 23.041016 20.101562 C 21.93927 19.857727 21.329931 18.993576 20.806641 18.388672 C 20.28335 17.783768 19.682513 17.308043 19.335938 17.740234 C 18.989362 18.172426 18.886758 20.530257 20.777344 21.404297 C 22.667929 22.278337 26.526348 22.279265 28.455078 20.654297 C 30.383808 19.029328 30.383279 15.779265 27.462891 14.154297 C 24.542503 12.529328 18.701638 12.529782 15.78125 14.972656 C 12.860862 17.415531 12.860363 22.301266 17.34375 24.744141 C 21.827137 27.187015 30.793957 27.185292 35.277344 23.507812 C 39.760731 19.830334 39.759935 12.476307 34.28125 8.7988281 C 31.541907 6.9600887 27.433233 6.0404456 23.324219 6.3125 z "
       transform="rotate(180,106.04141,148.27118)"
       d="M 23.382812,7.1972656 C 19.443909,7.4580571 15.551628,8.8682994 13.013672,11.580078 8.9307536,15.942631 8.0660785,24.144597 8.0527344,30.287109 8.179816,28.286064 8.3653357,26.099714 8.7148438,23.861328 9.3776129,19.616697 10.59332,15.291021 13.210938,12.285156 15.828552,9.2792945 19.692114,7.8213869 23.501953,7.4824219 c 3.809839,-0.338965 7.594173,0.4109313 10.244141,2.0390625 0.121684,0.074762 0.205879,0.1735262 0.322265,0.2519531 C 33.965979,9.6987612 33.89409,9.6069652 33.787109,9.5351562 31.274668,7.8487209 27.321629,6.9364799 23.382812,7.1972656 Z m -1.71875,6.7265624 c -2.053625,0.09596 -4.077229,0.693591 -5.314453,1.728516 -1.237226,1.034927 -1.845625,2.572554 -1.68164,4.111328 0.0047,0.04382 0.04294,0.08507 0.04883,0.128906 -0.114249,-1.471422 0.477654,-2.91106 1.671875,-3.851562 1.297552,-1.02188 3.052445,-1.446497 4.771484,-1.580078 1.719039,-0.133582 3.401446,0.03415 4.646485,0.427734 2.689184,0.850108 3.179455,3.849526 1.701171,5.25 -0.116335,0.110212 -0.263538,0.149241 -0.390624,0.236328 0.261545,-0.131382 0.571994,-0.233657 0.767578,-0.398438 0.741722,-0.624906 1.106354,-1.552945 1.011718,-2.482421 -0.09464,-0.929477 -0.624348,-1.87595 -1.865234,-2.566407 -1.240841,-0.690431 -3.313562,-1.09987 -5.367188,-1.003906 z m -1.603515,4.97461 c 0.0092,0.110802 -0.0045,0.199701 0.02148,0.316406 0.123959,0.557564 0.402133,1.077664 1.066407,1.384765 0.298772,0.138126 0.921167,0.107828 1.376953,0.195313 -1.213848,-0.419437 -1.960235,-1.330915 -2.388672,-1.826172 -0.03113,-0.03599 -0.04467,-0.0366 -0.07617,-0.07031 z m 4.210937,2.144531 c 0.105913,-0.0029 0.167561,0.04594 0.273438,0.03906 0.03547,-0.0023 0.06615,-0.01678 0.101562,-0.01953 -0.133121,0.004 -0.245069,-0.01653 -0.375,-0.01953 z m -8.851562,0.724609 c 0.06297,0.102774 0.08225,0.209815 0.154297,0.310547 -0.07073,-0.09906 -0.09236,-0.208944 -0.154297,-0.310547 z m 1.99414,1.894531 c 0.145563,0.09212 0.194393,0.217986 0.353516,0.304688 0.04155,0.02264 0.113672,0.02855 0.15625,0.05078 -0.201188,-0.102739 -0.327117,-0.242309 -0.509766,-0.355469 z m 3.265626,1.265625 c 0.408822,0.101266 0.734671,0.237768 1.171874,0.3125 -0.431594,-0.06744 -0.766393,-0.218716 -1.171874,-0.3125 z m 8.177734,0.169922 c -0.78489,0.130155 -1.546067,0.338722 -2.34375,0.382813 -0.912178,0.05042 -1.776166,-0.05442 -2.660156,-0.107422 0.810947,0.058 1.586735,0.200276 2.416015,0.162109 0.893076,-0.0411 1.723692,-0.28027 2.587891,-0.4375 z" />
    <path
       id="path4329-56"
       style="fill:#e0e0e0;fill-rule:evenodd;stroke-width:0.264999"
       sodipodi:type="inkscape:offset"
       inkscape:radius="-0.88608384"
       inkscape:original="M 23.324219 6.3125 C 19.215205 6.5845544 15.10653 8.0476522 12.367188 10.974609 C 6.8885021 16.828524 6.88946 28.537786 7.2460938 34.470703 C 7.6027275 40.40362 8.3152412 40.561746 8.671875 35.070312 C 9.0285088 29.578879 9.0279667 18.437623 13.878906 12.867188 C 18.729846 7.2967518 28.432264 7.2969436 33.283203 10.277344 C 38.134143 13.257744 38.134354 19.218819 34.244141 22.199219 C 30.353928 25.179619 22.573807 25.178715 18.683594 23.490234 C 14.793381 21.801754 14.793521 18.424807 16.9375 16.736328 C 19.081479 15.04785 23.368641 15.048259 25.539062 15.734375 C 27.709484 16.420491 27.795345 18.646396 26.898438 19.496094 C 26.00153 20.345792 24.142761 20.345398 23.041016 20.101562 C 21.93927 19.857727 21.329931 18.993576 20.806641 18.388672 C 20.28335 17.783768 19.682513 17.308043 19.335938 17.740234 C 18.989362 18.172426 18.886758 20.530257 20.777344 21.404297 C 22.667929 22.278337 26.526348 22.279265 28.455078 20.654297 C 30.383808 19.029328 30.383279 15.779265 27.462891 14.154297 C 24.542503 12.529328 18.701638 12.529782 15.78125 14.972656 C 12.860862 17.415531 12.860363 22.301266 17.34375 24.744141 C 21.827137 27.187015 30.793957 27.185292 35.277344 23.507812 C 39.760731 19.830334 39.759935 12.476307 34.28125 8.7988281 C 31.541907 6.9600887 27.433233 6.0404456 23.324219 6.3125 z "
       transform="matrix(1,0,0,-1,-0.21675386,295.82625)"
       d="M 23.382812,7.1972656 C 19.443909,7.4580571 15.551628,8.8682994 13.013672,11.580078 8.9307536,15.942631 8.0660785,24.144597 8.0527344,30.287109 8.179816,28.286064 8.3653357,26.099714 8.7148438,23.861328 9.3776129,19.616697 10.59332,15.291021 13.210938,12.285156 15.828552,9.2792945 19.692114,7.8213869 23.501953,7.4824219 c 3.809839,-0.338965 7.594173,0.4109313 10.244141,2.0390625 0.121684,0.074762 0.205879,0.1735262 0.322265,0.2519531 C 33.965979,9.6987612 33.89409,9.6069652 33.787109,9.5351562 31.274668,7.8487209 27.321629,6.9364799 23.382812,7.1972656 Z m -1.71875,6.7265624 c -2.053625,0.09596 -4.077229,0.693591 -5.314453,1.728516 -1.237226,1.034927 -1.845625,2.572554 -1.68164,4.111328 0.0047,0.04382 0.04294,0.08507 0.04883,0.128906 -0.114249,-1.471422 0.477654,-2.91106 1.671875,-3.851562 1.297552,-1.02188 3.052445,-1.446497 4.771484,-1.580078 1.719039,-0.133582 3.401446,0.03415 4.646485,0.427734 2.689184,0.850108 3.179455,3.849526 1.701171,5.25 -0.116335,0.110212 -0.263538,0.149241 -0.390624,0.236328 0.261545,-0.131382 0.571994,-0.233657 0.767578,-0.398438 0.741722,-0.624906 1.106354,-1.552945 1.011718,-2.482421 -0.09464,-0.929477 -0.624348,-1.87595 -1.865234,-2.566407 -1.240841,-0.690431 -3.313562,-1.09987 -5.367188,-1.003906 z m -1.603515,4.97461 c 0.0092,0.110802 -0.0045,0.199701 0.02148,0.316406 0.123959,0.557564 0.402133,1.077664 1.066407,1.384765 0.298772,0.138126 0.921167,0.107828 1.376953,0.195313 -1.213848,-0.419437 -1.960235,-1.330915 -2.388672,-1.826172 -0.03113,-0.03599 -0.04467,-0.0366 -0.07617,-0.07031 z m 4.210937,2.144531 c 0.105913,-0.0029 0.167561,0.04594 0.273438,0.03906 0.03547,-0.0023 0.06615,-0.01678 0.101562,-0.01953 -0.133121,0.004 -0.245069,-0.01653 -0.375,-0.01953 z m -8.851562,0.724609 c 0.06297,0.102774 0.08225,0.209815 0.154297,0.310547 -0.07073,-0.09906 -0.09236,-0.208944 -0.154297,-0.310547 z m 1.99414,1.894531 c 0.145563,0.09212 0.194393,0.217986 0.353516,0.304688 0.04155,0.02264 0.113672,0.02855 0.15625,0.05078 -0.201188,-0.102739 -0.327117,-0.242309 -0.509766,-0.355469 z m 3.265626,1.265625 c 0.408822,0.101266 0.734671,0.237768 1.171874,0.3125 -0.431594,-0.06744 -0.766393,-0.218716 -1.171874,-0.3125 z m 8.177734,0.169922 c -0.78489,0.130155 -1.546067,0.338722 -2.34375,0.382813 -0.912178,0.05042 -1.776166,-0.05442 -2.660156,-0.107422 0.810947,0.058 1.586735,0.200276 2.416015,0.162109 0.893076,-0.0411 1.723692,-0.28027 2.587891,-0.4375 z" />
  </g>
</svg>
