<?xml version="1.0" encoding="UTF-8" standalone="no"?>
<svg
   width="277.56552mm"
   height="275.83383mm"
   viewBox="0 0 277.56552 275.83384"
   version="1.1"
   id="svg8"
   inkscape:version="1.3.2 (091e20ef0f, 2023-11-25)"
   sodipodi:docname="leaner-portrait-detailed.svg"
   inkscape:export-filename="leaner-portrait-detailed.png"
   inkscape:export-xdpi="41.179466"
   inkscape:export-ydpi="41.179466"
   xmlns:inkscape="http://www.inkscape.org/namespaces/inkscape"
   xmlns:sodipodi="http://sodipodi.sourceforge.net/DTD/sodipodi-0.dtd"
   xmlns="http://www.w3.org/2000/svg"
   xmlns:svg="http://www.w3.org/2000/svg"
   xmlns:rdf="http://www.w3.org/1999/02/22-rdf-syntax-ns#"
   xmlns:cc="http://creativecommons.org/ns#"
   xmlns:dc="http://purl.org/dc/elements/1.1/">
  <defs
     id="defs2">
    <inkscape:path-effect
       effect="bspline"
       id="path-effect6"
       is_visible="true"
       lpeversion="1.3"
       weight="33.333333"
       steps="2"
       helper_size="0"
       apply_no_weight="true"
       apply_with_weight="true"
       only_selected="false"
       uniform="false" />
    <inkscape:path-effect
       effect="bspline"
       id="path-effect5"
       is_visible="true"
       lpeversion="1.3"
       weight="33.333333"
       steps="2"
       helper_size="0"
       apply_no_weight="true"
       apply_with_weight="true"
       only_selected="false"
       uniform="false" />
    <inkscape:path-effect
       effect="bspline"
       id="path-effect4"
       is_visible="true"
       lpeversion="1.3"
       weight="33.333333"
       steps="2"
       helper_size="0"
       apply_no_weight="true"
       apply_with_weight="true"
       only_selected="false"
       uniform="false" />
    <inkscape:path-effect
       effect="bspline"
       id="path-effect3"
       is_visible="true"
       lpeversion="1.3"
       weight="33.333333"
       steps="2"
       helper_size="0"
       apply_no_weight="true"
       apply_with_weight="true"
       only_selected="false"
       uniform="false" />
    <inkscape:path-effect
       effect="bspline"
       id="path-effect2"
       is_visible="true"
       lpeversion="1.3"
       weight="33.333333"
       steps="2"
       helper_size="0"
       apply_no_weight="true"
       apply_with_weight="true"
       only_selected="false"
       uniform="false" />
    <inkscape:path-effect
       effect="bspline"
       id="path-effect1"
       is_visible="true"
       lpeversion="1.3"
       weight="33.333333"
       steps="2"
       helper_size="0"
       apply_no_weight="true"
       apply_with_weight="true"
       only_selected="false"
       uniform="false" />
  </defs>
  <sodipodi:namedview
     id="base"
     pagecolor="#ffffff"
     bordercolor="#666666"
     borderopacity="1.0"
     inkscape:pageopacity="0.0"
     inkscape:pageshadow="2"
     inkscape:zoom="1.1595417"
     inkscape:cx="592.47546"
     inkscape:cy="537.28124"
     inkscape:document-units="mm"
     inkscape:current-layer="g1602"
     inkscape:document-rotation="0"
     showgrid="false"
     inkscape:snap-nodes="false"
     inkscape:window-width="1078"
     inkscape:window-height="1415"
     inkscape:window-x="0"
     inkscape:window-y="0"
     inkscape:window-maximized="0"
     fit-margin-top="0"
     fit-margin-left="0"
     fit-margin-right="0"
     fit-margin-bottom="0"
     showguides="true"
     inkscape:guide-bbox="true"
     inkscape:showpageshadow="0"
     inkscape:pagecheckerboard="0"
     inkscape:deskcolor="#d1d1d1"
     inkscape:export-bgcolor="#e0e0e0ff">
    <sodipodi:guide
       position="-45.661781,-127.32641"
       orientation="0,-1"
       id="guide945"
       inkscape:locked="false" />
  </sodipodi:namedview>
  <metadata
     id="metadata5">
    <rdf:RDF>
      <cc:Work
         rdf:about="">
        <dc:format>image/svg+xml</dc:format>
        <dc:type
           rdf:resource="http://purl.org/dc/dcmitype/StillImage" />
      </cc:Work>
    </rdf:RDF>
  </metadata>
  <g
     inkscape:label="Layer 1"
     inkscape:groupmode="layer"
     id="layer1"
     transform="translate(68.737131,-9.1325951)"
     style="display:inline">
    <path
       style="fill:#e0e0e0;fill-opacity:1;stroke:none;stroke-width:0.264583px;stroke-linecap:butt;stroke-linejoin:miter;stroke-opacity:1"
       d="M 205.28794,248.40378 V 9.5555683 H -68.737131 V 248.10347 l 59.9566455,36.86295 214.1397055,-0.0859 z"
       id="path941"
       sodipodi:nodetypes="ccccccc" />
    <path
       style="fill:#282a2e;fill-opacity:1;stroke:none;stroke-width:0.264583px;stroke-linecap:butt;stroke-linejoin:miter;stroke-opacity:1"
       d="M 205.28794,9.5555683 V 248.40378 L 99.871305,129.36781 100.03491,9.1325951 Z"
       id="path942"
       sodipodi:nodetypes="ccccc" />
    <path
       style="fill:#282a2e;fill-opacity:1;stroke:none;stroke-width:0.27663px;stroke-linecap:butt;stroke-linejoin:miter;stroke-opacity:1"
       d="m 102.50019,238.74426 c -141.705878,-92.73477 -10.824697,5.05516 -7.115311,10.15859 2.83315,3.89788 -148.807327,-107.75897 -86.0957647,-43.18858 27.7247997,28.54659 -17.4684837,-4.3276 -57.4506103,-41.39966 -5.100536,-4.7293 -36.353709,-34.69107 5.922354,-27.47763 13.717012,3.98604 7.421955,14.48902 16.931591,13.1801 28.8409121,-1.47613 101.894477,40.63452 138.487991,62.43238 24.56563,14.63315 -84.01805,-40.01006 -22.878001,-0.0484 12.420291,8.11801 -20.298342,-11.94258 -23.019708,-4.27717 -0.786884,2.21643 47.644629,37.69013 35.217459,30.62034 z"
       id="path944"
       sodipodi:nodetypes="csssccssscc" />
    <g
       id="g903"
       style="display:none;opacity:0.0586505">
      <path
         style="fill:#1d1f21;fill-rule:evenodd;stroke-width:0.132"
         id="path845"
         d="m 64.060855,142.70748 c 9.501756,2.4384 18.398186,7.02491 26.339461,12.74086 2.741504,1.97327 5.294839,4.19562 7.94226,6.29343 6.165124,5.9826 8.200914,7.4716 13.291724,14.25825 1.6499,2.19953 3.02783,4.5905 4.54175,6.88574 0.0575,0.0692 1.03634,-0.74453 0.9788,-0.81375 v 0 c -1.4072,-2.48484 -2.60939,-5.09753 -4.22161,-7.45453 -4.68568,-6.85028 -7.45777,-8.91703 -13.458091,-14.71086 -2.725241,-2.09188 -5.34265,-4.33229 -8.175723,-6.27563 -7.399224,-5.0755 -16.158872,-9.42486 -25.022,-11.21671 -0.720074,-0.14557 -1.457346,-0.1869 -2.186022,-0.28036 -0.04056,-0.002 -0.07111,0.5714 -0.03055,0.57356 z" />
      <path
         style="fill:#1d1f21;fill-rule:evenodd;stroke-width:0.132"
         id="path847"
         d="m 115.8548,180.417 c 0.12077,-0.29859 0.25264,-0.59293 0.36229,-0.89578 0.79778,-2.20361 1.46826,-4.42705 2.40879,-6.58196 1.30362,-2.98686 2.50411,-5.17657 4.02571,-8.12528 2.70964,-5.15118 4.96995,-10.54548 6.29603,-16.22811 0.58471,-2.50567 1.03868,-5.46149 0.90265,-8.08237 -0.0405,-0.78037 -0.2724,-1.53891 -0.40861,-2.30836 -0.22285,-0.28971 -0.35293,-0.6848 -0.66855,-0.86913 -0.23518,-0.13736 -0.5673,-0.10712 -0.81708,0.002 -1.03099,0.44822 -0.98549,2.11737 -0.89607,3.0068 0.0693,0.2197 0.0837,0.46505 0.20788,0.6591 0.32435,0.50697 1.27267,0.85333 1.69407,1.04482 0.90566,0.41154 1.81371,0.81842 2.73154,1.20204 6.68794,2.79529 5.29104,2.13521 13.61295,4.95611 3.42072,1.05826 6.84144,2.11652 10.26217,3.17478 0.11109,0.0293 0.52512,-1.54189 0.41402,-1.57116 v 0 c -3.42201,-1.01799 -6.84402,-2.03597 -10.26602,-3.05395 -10.51334,-3.32221 -5.5781,-1.70729 -13.73324,-4.44101 -0.93148,-0.31225 -1.86606,-0.61538 -2.79497,-0.9352 -0.57244,-0.19709 -1.34366,-0.28782 -1.52571,-0.94797 -0.0732,-0.70848 -0.0794,-1.34752 0.15294,-2.03457 0.12813,-0.37887 0.34718,-0.73613 0.48677,-0.61081 0.20549,0.18447 0.25898,0.4878 0.38847,0.73171 0.0599,0.57323 0.18779,1.14339 0.17979,1.71969 -0.0365,2.62647 -0.49329,5.20695 -1.12761,7.75102 -1.39465,5.59355 -3.55396,10.95706 -6.1219,16.10791 -1.33,2.78962 -2.6883,5.49626 -3.82756,8.36752 -0.99635,2.51109 -1.70316,5.11889 -2.32539,7.7429 -0.0155,0.0274 0.3711,0.24714 0.38664,0.2198 z" />
      <path
         style="fill:#1d1f21;fill-rule:evenodd;stroke-width:0.132"
         id="path849"
         d="m 115.82324,183.21782 c 0.37069,-0.18762 0.72315,-0.41671 1.11206,-0.56286 1.58498,-0.59565 4.95826,-1.46587 6.32417,-1.85041 1.62895,-0.4586 3.26383,-0.89766 4.88187,-1.39337 5.73081,-1.7557 5.51378,-1.7945 11.23423,-4.01318 6.46921,-2.82879 12.89187,-6.12631 18.11971,-10.95846 0.43298,-0.4002 0.82115,-0.84632 1.23172,-1.26947 0.16866,-0.25831 0.42202,-0.47806 0.50598,-0.77491 0.23815,-0.84202 -0.4178,-0.74144 -0.96194,-0.58803 -0.76534,0.21578 -1.64564,0.99254 -2.25496,1.4883 -0.23296,0.33261 -0.72504,0.74909 0.13887,1.07625 0.34711,0.13145 0.74378,-0.0108 1.11203,-0.0572 0.63517,-0.08 1.26495,-0.19977 1.89348,-0.32137 3.23886,-0.62662 4.84862,-1.05484 8.3454,-1.87913 12.44243,-2.81293 5.79493,-1.32329 19.94496,-4.45791 0.12268,-0.0156 -0.0986,-1.75061 -0.22129,-1.73496 v 0 c -14.18928,3.28407 -7.54636,1.61653 -19.94935,4.91993 -2.88472,0.82189 -5.40147,1.56045 -8.2461,2.31068 -0.60553,0.1597 -1.21389,0.30869 -1.82307,0.45388 -0.16272,0.0388 -1.13753,0.0153 -1.05447,0.57418 0.018,0.12086 0.14563,-0.19623 0.21844,-0.29435 0.63101,-0.50437 0.6662,-0.5541 1.36916,-1.02014 0.2253,-0.14937 0.48012,-0.25637 0.68836,-0.42873 0.0977,-0.0809 0.14721,-0.20701 0.21169,-0.31626 0.0428,-0.0726 0.17106,-0.28529 0.10943,-0.22784 -0.19221,0.17918 -0.33996,0.4008 -0.50994,0.60119 -5.63281,5.05465 -12.37207,8.56625 -19.31207,11.4951 -6.18371,2.47673 -4.95433,2.09117 -11.10797,4.14917 -1.6109,0.53874 -3.23649,1.03265 -4.84994,1.56368 -2.00854,0.66107 -4.3848,1.39068 -6.33192,2.34213 -0.40731,0.19902 -0.76348,0.489 -1.14522,0.7335 -0.0312,0.0231 0.29552,0.46371 0.32668,0.44061 z" />
      <path
         style="fill:#1d1f21;fill-rule:evenodd;stroke-width:0.132"
         id="path851"
         d="m 61.054953,147.87781 c -0.117443,0.46547 -0.260506,0.92522 -0.352327,1.39641 -0.726197,3.72651 -1.12304,7.51877 -1.797667,11.25557 -0.941284,5.21386 -1.085082,5.51158 -2.308203,10.68737 -1.07894,4.43962 -2.584506,8.76801 -3.594884,13.22536 -0.269994,1.19111 -0.682781,3.13608 -0.583332,4.4788 0.02133,0.28782 0.177126,0.54936 0.26569,0.82404 0.259225,0.0497 0.531693,0.24468 0.777676,0.14899 0.621797,-0.24189 1.560457,-2.19364 1.486305,-2.88202 -0.0164,-0.15225 -0.111551,-0.28522 -0.167328,-0.42783 -0.372377,-0.0149 -0.567097,-0.12586 -0.793742,0.27584 -0.9066,1.60684 0.172029,6.23488 0.377997,7.22336 0.522938,2.5097 1.209244,4.98256 1.813864,7.47384 4.253032,13.62289 1.830634,6.6809 7.355531,20.79491 0.01582,0.12358 1.763482,-0.1003 1.747652,-0.22388 v 0 c -5.239938,-14.0791 -2.776649,-7.19382 -7.416874,-20.64615 -0.763768,-2.46187 -1.574803,-4.90957 -2.2913,-7.38561 -0.286027,-0.98845 -1.663673,-5.12496 -1.237152,-6.86019 0.019,-0.0772 0.114875,-0.12087 0.132535,-0.19842 0.01008,-0.0442 -0.03965,-0.0816 -0.05947,-0.12241 0.06988,-0.19403 0.02695,-0.0862 -0.04906,0.34463 -0.07388,0.23853 -0.169026,0.47044 -0.270806,0.69847 -0.126463,0.28333 -0.275487,0.55603 -0.413232,0.83405 -0.11631,0.19504 -0.256278,0.3778 -0.348935,0.58513 -0.04646,0.10396 -0.04176,0.22386 -0.06264,0.33579 -0.04926,-0.20446 -0.153069,-0.40315 -0.147788,-0.61339 0.03161,-1.25871 0.550757,-3.1665 0.846418,-4.24193 1.211429,-4.40645 2.770098,-8.71252 3.868327,-13.15198 0.420439,-1.80416 0.887601,-3.59807 1.261319,-5.41248 1.241111,-6.02562 1.866588,-12.14168 2.289085,-18.27188 0.01021,-0.0232 -0.31746,-0.16756 -0.32767,-0.14439 z" />
      <path
         style="fill:#1d1f21;fill-rule:evenodd;stroke-width:0.132"
         id="path857"
         d="m 83.761095,171.94159 c 0.563856,4.81312 0.339394,9.68445 1.001969,14.48987 0.141134,1.02361 0.369178,2.03335 0.553768,3.05002 0.229113,0.80338 0.416816,1.61973 0.687337,2.41013 0.02087,0.061 1.440899,4.30858 2.408756,2.61165 0.118888,-0.20845 0.06715,-0.47521 0.100729,-0.71282 -0.01315,-0.0506 -0.167097,-2.16577 -0.616458,-1.83972 -0.870511,0.63163 -0.606946,2.65437 -0.578186,3.26302 0.05965,1.26244 0.20637,2.51925 0.309555,3.77887 0.831699,6.97259 0.396242,3.37884 1.308949,10.78093 -0.0058,0.0613 0.86069,0.14276 0.866452,0.0815 v 0 c -0.727853,-7.39374 -0.339987,-3.80804 -1.151903,-10.75834 -0.161626,-1.24844 -0.341802,-2.49463 -0.484883,-3.74533 -0.08259,-0.72189 -0.06336,-1.45619 -0.191979,-2.17131 -0.04749,-0.26403 -0.23472,-0.48322 -0.330547,-0.73379 -0.01326,-0.0346 -0.004,-0.14631 0.0075,-0.11103 0.160473,0.49458 0.189672,0.80243 0.273326,1.31699 0.01654,0.16407 0.0057,0.33327 0.04965,0.49222 0.02151,0.0778 0.221067,0.1885 0.140798,0.19702 -0.232863,0.0247 -0.618011,-0.87394 -0.701702,-1.07109 -0.588595,-1.38657 -0.706628,-2.17466 -1.106913,-3.74679 -0.168286,-0.9936 -0.374375,-1.98153 -0.504854,-2.98079 -0.633111,-4.84865 -0.43883,-9.78998 -1.432238,-14.59219 5.3e-4,-0.0431 -0.608441,-0.0521 -0.609076,-0.009 z" />
      <path
         style="fill:#1d1f21;fill-rule:evenodd;stroke-width:0.132"
         id="path867"
         d="m 69.400499,132.90544 c -2.556931,-2.24301 -5.353296,-4.25087 -7.657664,-6.77189 -0.9755,-1.06722 -1.98792,-2.13177 -2.721126,-3.37795 -0.761179,-1.29372 -1.143942,-2.77558 -1.71591,-4.16337 -0.146415,-1.67446 -0.29283,-3.34892 -0.439243,-5.02337 0.0071,-0.0547 -0.766648,-0.1557 -0.773787,-0.10099 v 0 c 0.09127,1.75165 0.182547,3.5033 0.27382,5.25494 0.659794,1.62398 1.098526,3.35643 1.97938,4.87192 0.744183,1.28035 1.81683,2.3457 2.838725,3.41754 2.352312,2.46727 5.221438,4.37437 7.940852,6.39698 0.03562,0.0194 0.310576,-0.48437 0.274953,-0.50381 z" />
      <path
         style="fill:#1d1f21;fill-rule:evenodd;stroke-width:0.132"
         id="path869"
         d="m 57.229231,116.53342 c -0.478591,-0.016 -0.957865,-0.0781 -1.435777,-0.0479 -5.824895,0.36709 -12.537477,2.571 -17.548865,5.42873 -2.151727,1.22701 -4.116877,2.7556 -6.175314,4.13339 -0.06634,0.0424 0.533241,0.98053 0.599578,0.93813 v 0 c 2.044141,-1.30145 4.018494,-2.71962 6.13243,-3.90435 5.098084,-2.85715 11.252991,-5.024 17.041775,-6.01555 0.427675,-0.0733 0.864693,-0.0735 1.297041,-0.11018 0.02985,0.006 0.118988,-0.41593 0.08913,-0.42223 z" />
      <path
         style="fill:#1d1f21;fill-rule:evenodd;stroke-width:0.132"
         id="path879"
         d="m 29.475358,129.66309 c -0.22034,0.81059 -0.531437,1.60182 -0.661016,2.43178 -0.457306,2.92905 -0.538319,6.1151 0.274897,8.99948 0.508195,1.80252 1.499195,3.43246 2.248794,5.14868 0.0094,0.058 0.829191,-0.0745 0.819824,-0.13246 v 0 c -0.673787,-1.65008 -1.5515,-3.23094 -2.021361,-4.95024 -0.996415,-3.64606 -0.792535,-7.53 -0.155852,-11.20191 0.02087,-0.0357 -0.484402,-0.33106 -0.505286,-0.29533 z" />
      <path
         style="fill:#1d1f21;fill-rule:evenodd;stroke-width:0.132"
         id="path889"
         d="m 61.330104,142.42454 c -3.350223,0.31544 -7.571179,1.90829 -9.732116,4.58239 -0.480134,0.59415 -0.754015,1.32877 -1.131022,1.99316 -0.135967,0.68891 -0.339736,1.36784 -0.407898,2.06673 -0.166468,1.70687 0.457822,3.76728 -1.242311,5.01168 -1.5958,1.16804 -3.215373,0.91609 -5.084424,1.01392 -4.604493,-0.5235 -8.811117,-2.41387 -12.86242,-4.56509 -1.404672,-0.74587 -2.750711,-1.59728 -4.126065,-2.39592 -0.04804,-0.0195 -0.323932,0.65983 -0.275895,0.67934 v 0 c 1.36579,0.90409 2.670786,1.90751 4.097369,2.71226 2.667019,1.50449 6.281957,3.04635 9.28538,3.79004 1.304658,0.32306 2.658796,0.39597 3.988195,0.59395 2.198084,-0.22859 3.657864,-0.003 5.434385,-1.44261 1.103048,-0.8937 1.291032,-2.06895 1.400456,-3.36632 0.0507,-0.60109 -0.06483,-1.20924 -0.0067,-1.80965 0.06163,-0.63663 0.242842,-1.25595 0.364262,-1.88392 0.342826,-0.6099 0.587661,-1.28639 1.028475,-1.82971 2.030579,-2.50274 6.196478,-4.16569 9.315876,-4.71831 0.03054,-0.003 -0.015,-0.43516 -0.04554,-0.43194 z" />
      <circle
         id="path891"
         style="fill:#1d1f21;stroke:#000000;stroke-width:0.264583"
         cx="47.97517"
         cy="171.25751"
         r="0.0049842959" />
    </g>
    <g
       id="g1364"
       style="display:none;opacity:0.160584">
      <g
         id="g1006">
        <path
           id="path913"
           style="fill:#1d1f21;fill-rule:evenodd;stroke-width:0.0851986"
           d="m 203.6057,113.24681 c -2.82926,1.47683 -4.91526,3.36941 -5.79764,6.49185 -0.48149,1.70382 -2.50992,4.44051 -2.85811,7.9519 -0.21069,2.12484 -2.79258,8.90576 -4.14391,10.7415 -0.9489,1.56738 -2.85557,2.48695 -4.28085,3.62694 -2.27796,1.75879 -4.18108,2.25215 -6.76671,3.50719 0.38063,0.87092 1.69745,-0.46032 2.46854,-0.58232 3.26563,-1.62768 7.06199,-3.55275 9.21364,-6.54971 0.9238,-1.29575 3.87808,-8.38247 3.87923,-10.00028 0.002,-3.07589 2.68971,-6.62981 3.1445,-8.10637 1.25872,-4.08665 4.71657,-6.08707 4.71657,-6.08707 3.20705,-1.8023 0.86385,-1.22284 0.42474,-0.99363 z"
           sodipodi:nodetypes="ssscccccssss" />
        <path
           style="fill:#1d1f21;fill-rule:evenodd;stroke-width:0.0546747"
           id="path923"
           d="m 179.86341,145.57636 c 0.055,-0.63486 0.18327,-1.29741 -0.0626,-1.9138 -0.0808,-0.20264 -0.21131,-0.38176 -0.31697,-0.57263 -0.18743,-0.20506 -0.34596,-0.4409 -0.56231,-0.61517 -1.24331,-1.00148 -3.25414,-1.40996 -4.7165,-0.64243 -0.36051,0.1892 -0.62228,0.52519 -0.93341,0.78779 -0.10818,0.36736 -0.37563,0.72254 -0.32455,1.10208 0.0639,0.47468 0.31962,0.93281 0.6457,1.28364 0.41021,0.44135 0.95183,0.7545 1.49366,1.01811 1.43206,0.69678 2.36014,0.71964 3.89441,0.94962 0.0206,0.002 0.0552,-0.28945 0.0346,-0.29189 v 0 c -1.49809,-0.2826 -2.35167,-0.34851 -3.75854,-1.00411 -0.62491,-0.29122 -1.86669,-0.95731 -2.04108,-1.83162 -0.0656,-0.32904 0.15845,-0.65206 0.23768,-0.97808 0.28015,-0.24176 0.51393,-0.55119 0.84047,-0.72528 1.34687,-0.71805 3.29236,-0.36448 4.47165,0.52881 0.20827,0.15778 0.36313,0.3758 0.5447,0.56369 0.10246,0.17354 0.22386,0.33722 0.30737,0.52063 0.25841,0.56744 0.0871,1.20076 0.1191,1.79546 -0.002,0.009 0.12489,0.0341 0.12667,0.0251 z" />
        <path
           style="fill:#1d1f21;fill-rule:evenodd;stroke-width:0.0851986"
           id="path943"
           d="m 182.76167,157.73602 c 0.59571,-0.46495 1.19307,-0.91706 1.88968,-1.2251 0.99046,-0.43799 1.74395,-0.63285 2.80955,-0.9663 5.34119,-1.51056 10.69583,-2.97399 16.02464,-4.52795 0.16817,-0.059 1.90952,-0.55977 2.25515,-0.96516 0.10008,-0.11738 0.13078,-0.34284 0.0323,-0.4616 -0.14764,-0.17818 -0.41399,-0.21763 -0.63921,-0.27077 -0.57204,-0.13494 -1.01759,-0.0714 -1.58628,-0.038 -0.007,-6.4e-4 -0.0202,0.10741 -0.0125,0.1083 v 0 c 0.48505,0.0432 1.03195,0.0853 1.51121,0.15684 0.16888,0.0251 0.34025,0.047 0.5022,0.1011 0.0452,0.0151 0.14116,0.0744 0.10143,0.10076 -0.46338,0.30702 -1.97082,0.63898 -2.23516,0.71028 -5.39972,1.37065 -10.77341,2.85833 -16.05426,4.63813 -1.12405,0.41037 -1.80145,0.61114 -2.82549,1.13187 -0.69216,0.35197 -1.3041,0.83358 -1.86418,1.36629 -0.01,0.007 0.0809,0.1478 0.0909,0.14137 z" />
        <path
           id="path966"
           style="fill:#1d1f21;fill-rule:evenodd;stroke-width:0.0851986"
           d="m 205.14652,115.64475 c 3.08239,8.09946 0.86668,16.90748 -0.64982,25.09356 -0.95126,2.50699 -3.20683,11.10244 -0.37128,4.54897 2.41453,-9.09271 5.13993,-19.1191 1.73557,-28.33533 -0.27794,-0.39843 -0.24365,-1.04703 -0.71447,-1.3072 z" />
        <path
           id="path972"
           style="fill:#1d1f21;fill-rule:evenodd;stroke-width:0.0851986"
           d="m 206.49629,114.86071 c 3.17668,5.76261 1.87064,12.72481 1.28743,18.9486 -0.004,4.72573 -0.0212,12.63257 -2.39418,14.9289 4.55211,-4.37642 1.39052,-11.21541 3.00328,-16.63315 0.0213,-5.54457 1.71216,-12.57729 -1.89653,-17.24435 z" />
        <path
           style="fill:#1d1f21;fill-rule:evenodd;stroke-width:0.0851986"
           id="path991"
           d="m 182.58157,158.17778 c -0.51711,1.53981 -1.16888,3.02628 -1.98929,4.43 -0.23899,0.40891 -0.47746,0.82072 -0.76253,1.19894 -0.18924,0.25108 -0.43578,0.45334 -0.65368,0.68002 -0.13744,-0.0171 -0.33101,0.0609 -0.41231,-0.0512 -0.14188,-0.19564 -0.12995,-0.46981 -0.14059,-0.71125 -0.036,-0.81855 0.0977,-1.97489 0.39435,-2.72417 0.19655,-0.49639 0.53033,-0.92676 0.7955,-1.39015 0.013,-0.0135 -0.17755,-0.19771 -0.19057,-0.18423 v 0 c -0.3511,0.52713 -0.79595,1.00268 -1.05331,1.58139 -0.35229,0.79212 -0.71016,3.10345 0.14773,3.79573 0.1837,0.14824 0.47081,0.0347 0.70622,0.0521 0.25804,-0.22808 0.55542,-0.41819 0.77411,-0.68423 0.30788,-0.37451 0.54722,-0.80144 0.79148,-1.22023 0.83901,-1.43856 1.48956,-2.98504 1.84156,-4.61555 0.0111,-0.0176 -0.23756,-0.17469 -0.24867,-0.15711 z" />
        <path
           style="fill:#1d1f21;fill-rule:evenodd;stroke-width:0.0851986"
           id="path997"
           d="m 183.62125,150.88834 c 2.23993,-0.61899 4.45546,-1.38897 6.77559,-1.66199 0.64524,-0.0759 1.2967,-0.0834 1.94504,-0.12508 0.41033,0.0217 2.22614,-0.0443 2.73907,0.45047 0.12649,0.122 0.0188,0.39905 -0.1133,0.51487 -0.32398,0.28391 -0.7535,0.42087 -1.1491,0.59138 -1.26044,0.54328 -3.71613,1.39732 -4.93215,1.83323 -3.29198,1.45403 -1.74001,0.73463 -4.6632,2.14236 -0.0234,0.007 0.0795,0.3376 0.10285,0.33033 v 0 c 2.9582,-1.22306 1.38575,-0.60983 4.72591,-1.81757 0.90414,-0.3482 1.81796,-0.67224 2.71242,-1.04461 0.84174,-0.35041 2.92662,-1.11 3.54985,-2.09753 0.8986,-1.42383 -2.68415,-1.52361 -2.97711,-1.50048 -0.66777,0.0436 -1.33934,0.0473 -2.00331,0.13074 -2.34396,0.29459 -4.59693,1.1035 -6.78894,1.94629 -0.0217,0.005 0.0546,0.31299 0.0764,0.30759 z" />
      </g>
      <g
         id="g1143"
         style="display:inline"
         transform="translate(1.0348828,-0.77126086)">
        <path
           id="path1008"
           style="fill:#1d1f21;fill-rule:evenodd;stroke-width:0.130342"
           d="m 102.56254,170.43711 c 3.04099,-6.12419 10.28343,-11.70717 19.96892,-12.38009 6.46605,-3.18849 13.07238,-5.88446 21.03556,-5.63155 8.77746,-0.32982 14.76287,-8.96094 23.30816,-5.63356 2.97913,0.35301 9.57503,-3.27517 11.17724,0.82279 6.84288,-4.97991 9.11945,6.02327 4.79304,8.73654 2.78997,3.98366 -5.05451,5.67065 -8.26004,2.5894 -2.68338,6.15533 -13.16462,5.74032 -19.6897,7.96001 -2.97236,4.24014 -2.15463,11.14904 -12.00397,10.00574 -8.46494,-1.32122 -14.83527,6.43633 -22.29977,6.26724 -5.55305,-1.43737 -14.13697,1.88727 -19.61699,4.96293 -8.491652,-0.91072 -5.237424,-10.7808 -7.075834,-11.84874 -1.445674,3.99113 -0.551449,12.40747 6.541104,13.42474 7.86599,-4.43254 18.71993,-5.08431 26.59844,-7.54937 5.48629,-4.04372 12.45229,-5.03151 20.24622,-5.08299 9.09206,-0.12353 2.50479,-10.3581 12.22323,-11.18267 6.86241,1.22412 13.89351,-5.34818 16.40654,-5.94252 2.76845,3.67425 12.79253,-2.4915 6.12347,-4.08846 7.32549,-2.15774 3.13568,-12.17607 -4.45385,-9.06493 -3.76724,-4.54022 -10.14481,2.44672 -15.54385,-1.19719 -6.9742,1.68972 -13.69472,6.03326 -21.88997,6.81795 -7.68088,-0.88135 -12.87067,4.48165 -19.70086,5.47033 -8.55036,0.9134 -15.31708,6.25888 -17.86159,11.68099 z"
           sodipodi:nodetypes="cccccccccccccccccccccccc" />
        <path
           style="fill:#1d1f21;fill-rule:evenodd;stroke-width:0.132"
           id="path1263"
           d="m 54.288652,157.6776 c 3.327771,2.41825 6.455312,5.10165 9.918041,7.33733 1.641833,1.06003 3.34367,2.02411 5.015505,3.03616 8.112639,4.19753 3.965925,2.21173 12.445461,5.94627 0.07149,0.0221 0.383622,-0.9889 0.312136,-1.01097 v 0 c -8.384857,-3.83848 -4.263225,-1.85721 -12.368442,-5.93642 -1.68184,-0.94519 -3.39053,-1.84412 -5.045517,-2.83557 -2.203839,-1.32026 -4.255608,-2.79662 -6.360451,-4.25773 -1.051364,-0.72981 -2.092947,-1.48882 -3.201249,-2.13426 -0.213143,-0.12413 -0.442473,-0.21809 -0.66371,-0.32714 -0.01289,-0.004 -0.06467,0.17867 -0.05177,0.18233 z" />
        <path
           style="fill:#1d1f21;fill-rule:evenodd;stroke-width:0.132"
           id="path1269"
           d="m 132.73204,189.6461 c 2.58276,7.96322 3.92468,16.26376 5.70977,24.42586 0.5642,2.57977 1.17059,5.15014 1.75589,7.72521 0.0339,0.0781 1.13846,-0.40068 1.10461,-0.47878 v 0 c -1.07479,-5.53101 -1.93772,-10.23119 -3.209,-15.72578 -1.14158,-4.93406 -2.39825,-9.92472 -4.27007,-14.64521 -0.21317,-0.53759 -0.48255,-1.05115 -0.72382,-1.57673 -0.0195,-0.026 -0.38684,0.24945 -0.36738,0.27543 z" />
        <path
           style="fill:#1d1f21;fill-rule:evenodd;stroke-width:0.085454"
           id="path1275"
           d="m 135.30385,182.15389 c 1.10546,4.43162 1.98996,8.99862 2.98255,13.49702 0.42912,1.94485 0.87136,3.88225 1.30705,5.82339 1.43175,6.23579 2.97282,12.40327 4.40738,18.63736 0.3966,1.72323 0.77592,3.45653 1.16387,5.1848 0.0185,0.0512 0.39347,-0.34429 0.37523,-0.39553 v 0 c -0.36184,-1.76261 -0.71209,-3.53127 -1.0856,-5.2878 -1.3421,-6.31171 -2.83375,-12.5311 -4.33486,-18.74835 -0.073,-0.30807 -2.34803,-9.90608 -2.53498,-10.68264 -0.49156,-2.04177 -0.9942,-4.11593 -1.53952,-6.12661 -0.28938,-1.06683 -0.35075,-1.23792 -0.62071,-2.0847 -0.008,-0.0168 -0.12847,0.16622 -0.12041,0.18306 z" />
      </g>
      <g
         id="g1140">
        <path
           id="path1030"
           style="fill:#1d1f21;fill-rule:evenodd;stroke-width:0.132"
           d="m 154.36654,143.39308 c 0.45128,-5.05905 -1.30807,-10.67572 1.76954,-15.20902 2.40409,-3.71793 7.81482,-5.94326 11.85113,-3.59632 2.52504,2.22242 1.17501,5.88461 0.49239,8.63818 -0.25996,1.72753 -1.8762,4.53717 -1.43763,5.54372 1.97982,-1.62076 1.751,-4.78461 2.76729,-7.02867 0.81667,-3.14924 0.54714,-7.83998 -3.38707,-8.62561 -5.32958,-1.29688 -10.88406,2.53717 -12.28695,7.70157 -1.3874,4.05737 0.0134,8.31019 -0.18441,12.45632 0.13857,0.0399 0.27714,0.0799 0.41571,0.11983 z" />
        <path
           id="path1034"
           style="fill:#1d1f21;fill-rule:evenodd;stroke-width:0.132"
           d="m 155.9654,124.26917 c -3.87481,2.32306 -5.16144,6.99846 -6.49526,11.01938 -1.14335,3.80146 -2.03816,7.70238 -3.70489,11.32313 1.36464,-0.23891 1.76766,-3.20587 2.5408,-4.62482 1.91649,-5.41973 2.7253,-11.42154 6.27397,-16.11214 0.45422,-0.51345 1.32467,-0.83747 1.38538,-1.60555 z" />
      </g>
      <g
         id="g1136"
         transform="translate(-0.5725519,0.65695262)">
        <path
           id="path1036"
           style="fill:#1d1f21;fill-rule:evenodd;stroke-width:0.132"
           d="m 145.72522,143.91448 c -1.14112,-2.38271 -2.30056,-5.31114 -0.94429,-7.85067 -1.32161,-1.71242 -2.49795,-3.84219 -1.5658,-5.95603 -0.46348,-2.43047 -2.73504,-3.88438 -4.1431,-5.75858 -2.58377,-2.69958 -6.41022,-4.7701 -10.22461,-3.77041 -2.23758,0.86507 -3.38534,3.19894 -5.41147,4.40132 -2.67711,1.94892 -6.00782,4.01604 -6.48224,7.60266 -0.66335,3.97178 0.6417,8.08367 -0.4985,11.99175 -0.83244,2.35482 -3.31667,3.38849 -4.91883,5.1372 -1.87855,1.71604 -3.01125,4.06063 -3.92518,6.39202 0.70512,-0.67518 1.68328,-2.87503 2.54225,-4.10466 1.67495,-3.06344 5.64131,-4.16399 6.84162,-7.55717 1.18344,-4.37892 -0.7447,-9.0504 0.82848,-13.35735 1.92228,-3.97649 6.63422,-5.34261 9.04967,-8.89899 2.30471,-2.37799 6.04202,-1.6494 8.64617,-0.21267 2.31476,1.14563 3.80011,3.30094 5.59839,5.06378 1.13582,1.18226 2.06451,2.73737 1.53496,4.42225 -0.46641,2.64489 2.59279,4.12357 1.26994,6.73137 -0.36217,1.97407 0.43656,4.32705 1.80254,5.72418 z" />
        <path
           id="path1042"
           style="fill:#1d1f21;fill-rule:evenodd;stroke-width:0.132"
           d="m 127.56774,153.08241 c -1.23023,-2.21553 -3.02649,-4.03166 -4.51605,-6.06404 -0.25739,-0.92019 0.80283,-1.44254 1.3386,-1.99551 0.42233,-0.5277 1.809,-1.03655 1.69086,-1.44914 -0.87208,-0.23045 -1.51089,0.55211 -1.59967,1.34387 -0.2776,0.39932 -0.18772,1.53909 0.0722,0.55955 0.3165,-0.70196 0.17141,-1.81104 1.22158,-1.65444 0.81013,-0.41489 -0.26984,-0.33856 -0.53217,0.0709 -0.9656,0.6727 -2.01179,1.40484 -2.53425,2.4881 -0.17655,1.06921 0.81094,1.8325 1.33852,2.63697 1.10635,1.4172 2.26497,2.79534 3.29826,4.26814 0.088,-0.0544 0.15997,-0.12171 0.22207,-0.20438 z" />
      </g>
      <g
         id="g1132">
        <path
           style="fill:#1d1f21;fill-rule:evenodd;stroke-width:0.132"
           id="path1081"
           d="m 104.57982,156.8278 c -0.35595,-1.82476 -1.24429,-3.46705 -2.2328,-5.02228 -1.25663,-1.97708 -2.26172,-3.25963 -3.677763,-5.17712 -3.789921,-5.09221 -8.068146,-9.781 -12.375428,-14.43229 -0.211883,-0.51532 -1.067149,-0.88686 -1.177239,-1.49702 -0.0035,-0.0194 0.03943,0.0472 0.05044,0.0309 0.04569,-0.0679 0.05882,-0.15283 0.08402,-0.23069 0.0336,-0.10383 0.06152,-0.20941 0.09228,-0.31412 0.256791,-1.1117 -0.335788,-1.62885 -1.006774,-2.42184 -1.452285,-1.74819 -3.312935,-3.09723 -5.384922,-4.02989 -0.66017,-0.29716 -1.353788,-0.51359 -2.030682,-0.77038 -2.629048,-0.39142 -2.794757,-0.58258 -5.627111,-0.23073 -1.27286,0.15813 -2.521288,0.4731 -3.781933,0.70965 -0.03993,0.009 0.08109,0.57327 0.121021,0.56471 v 0 c 3.179966,-0.56379 5.917128,-1.23643 9.123169,-0.42138 0.657114,0.2507 1.327624,0.46876 1.971342,0.75209 2.024816,0.89122 3.872912,2.09831 5.305004,3.79649 0.583033,0.65376 1.090316,0.95963 0.922956,1.8677 -0.07155,0.28986 -0.224276,0.62291 -0.196963,0.9271 0.06062,0.67523 0.860726,1.24005 1.12082,1.77603 4.007043,4.89751 8.291779,9.56529 12.169404,14.57001 2.340189,3.01689 5.007459,6.01487 6.187579,9.71757 0.0116,0.0243 0.3552,-0.14021 0.34357,-0.1645 z" />
        <path
           style="fill:#1d1f21;fill-rule:evenodd;stroke-width:0.132"
           id="path1083"
           d="m 100.28333,164.87679 c -0.721451,-3.12449 -2.916831,-5.12374 -5.144964,-7.2711 -4.129278,-3.5408 -8.431525,-6.89174 -12.859049,-10.0525 -1.726488,-1.17217 -3.580514,-2.16559 -5.066646,-3.64882 -0.916586,-0.9514 -1.515372,-2.17883 -2.641161,-2.92465 -0.433663,-0.28729 -0.910447,-0.50348 -1.365671,-0.75522 -0.659683,-0.28917 -1.32258,-0.5711 -1.979049,-0.86749 -3.37353,-1.5231 -2.557206,-1.1747 -6.200746,-3.02967 -3.151576,-1.60451 -5.144677,-2.77485 -8.584252,-3.81605 -1.533766,-0.46429 -3.130608,-0.68651 -4.695913,-1.02977 -0.0506,-0.006 -0.138559,0.70944 -0.08796,0.71566 v 0 c 1.522635,0.38794 3.075294,0.67287 4.567904,1.16381 3.406492,1.12046 5.332905,2.26672 8.513636,3.81739 3.29217,1.605 3.185564,1.56868 6.302242,2.82594 0.65023,0.2623 1.30637,0.50971 1.959555,0.76456 0.985731,0.5095 1.344059,0.58777 2.092335,1.30332 0.693079,0.66277 1.1229,1.57774 1.832078,2.22993 1.500267,1.51773 3.310724,2.57889 5.029174,3.82716 1.787305,1.38044 3.524792,2.81953 5.294535,4.22239 0.430241,0.34105 4.696806,3.67985 5.072398,3.98129 0.789816,0.63388 1.56501,1.28578 2.347516,1.92867 0.642961,0.58542 1.309864,1.14558 1.928886,1.75625 1.469742,1.44994 2.685889,3.09311 3.344963,5.06154 0.01431,0.024 0.354509,-0.17858 0.340179,-0.20264 z" />
        <path
           style="fill:#1d1f21;fill-rule:evenodd;stroke-width:0.132"
           id="path1089"
           d="m 47.981689,135.48355 c -2.874568,4.02206 -6.301398,7.60287 -9.23087,11.58497 -0.858446,1.16691 -1.636956,2.39056 -2.455434,3.58584 -0.03027,0.035 0.464556,0.46303 0.494824,0.42804 v 0 c 4.28553,-5.65775 0.893432,-1.23959 5.637958,-7.23838 1.794285,-2.26863 3.235558,-4.02245 4.789051,-6.40394 0.375759,-0.57603 0.682509,-1.19424 1.02376,-1.79136 0.0117,-0.0183 -0.247607,-0.18351 -0.259289,-0.16517 z" />
      </g>
      <g
         id="g1127"
         transform="translate(-1.2365676,2.6507493)">
        <path
           style="fill:#1d1f21;fill-rule:evenodd;stroke-width:0.132"
           id="path1091"
           d="m 37.28023,156.03339 c 0.07819,5.70011 1.15634,11.35599 2.850711,16.79076 1.58941,5.09811 3.332337,8.92407 5.400431,13.875 0.04761,0.0643 0.956847,-0.60904 0.909236,-0.67333 v 0 c -1.656234,-4.19528 -3.607041,-8.9583 -5.022437,-13.24855 -1.792984,-5.43475 -3.088847,-11.0102 -3.754562,-16.69484 0.0035,-0.0271 -0.37991,-0.0762 -0.383379,-0.049 z" />
        <path
           style="fill:#1d1f21;fill-rule:evenodd;stroke-width:0.132"
           id="path1095"
           d="m 45.064819,189.67409 c 0.217494,0.78846 0.340788,1.6092 0.652493,2.36538 2.514954,6.10114 6.602308,11.56808 11.269847,16.18759 2.023409,2.0026 4.298945,3.73329 6.448418,5.59993 0.07744,0.0401 0.6446,-1.05513 0.567157,-1.09523 v 0 c -1.929104,-1.71517 -3.96292,-3.31935 -5.787315,-5.1455 -4.441044,-4.44531 -8.83761,-10.04994 -11.771786,-15.65329 -0.374858,-0.71585 -0.601345,-1.5001 -0.902015,-2.25015 6.74e-4,-0.0337 -0.47618,-0.0425 -0.476797,-0.009 z" />
        <path
           style="fill:#1d1f21;fill-rule:evenodd;stroke-width:0.132"
           id="path1097"
           d="m 54.048845,164.22722 c 0.11594,0.63815 0.232113,1.27625 0.347823,1.91444 0.626171,3.45357 0.776529,4.07626 1.264701,7.93713 0.231317,1.82943 0.406654,3.6655 0.609981,5.49826 -0.0044,0.0592 0.833009,0.12133 0.837401,0.0621 v 0 c -0.181261,-1.84273 -0.312598,-3.69106 -0.543783,-5.5282 -0.422457,-3.35711 -1.042654,-6.68325 -2.089258,-9.90481 -0.0016,-0.0302 -0.428355,-0.009 -0.426865,0.0211 z" />
        <path
           style="fill:#1d1f21;fill-rule:evenodd;stroke-width:0.132"
           id="path1099"
           d="m 57.523411,188.66452 c 0.21554,0.36326 0.444161,0.71907 0.646621,1.08978 1.367919,2.50472 1.711499,3.35108 3.096005,6.15385 1.795802,3.63538 3.610637,7.26133 5.411777,10.89407 0.01421,0.0653 0.938102,-0.13548 0.923902,-0.20081 v 0 c -0.906299,-1.87125 -1.801527,-3.7479 -2.718896,-5.61374 -1.950032,-3.96619 -3.881398,-7.95499 -6.351066,-11.63219 -0.231757,-0.34508 -0.499417,-0.66463 -0.749128,-0.99694 -0.02164,-0.0183 -0.28085,0.28765 -0.259215,0.30598 z" />
      </g>
      <g
         id="g1121"
         transform="translate(-1.239981,8.74606)">
        <path
           style="fill:#1d1f21;fill-rule:evenodd;stroke-width:0.132"
           id="path1105"
           d="m 80.305806,175.73469 c 0.02371,-0.11854 0.162226,-0.27614 0.07114,-0.35562 -0.0791,-0.069 -0.188323,0.14051 -0.197845,0.24506 -0.03958,0.4346 0.02912,0.87244 0.05642,1.30799 0.0616,0.98278 0.136001,1.96472 0.210251,2.94663 0.430575,5.69416 0.215617,3.31926 0.989227,9.54095 0.428487,1.85555 0.856977,3.71108 1.285467,5.56662 5.3e-4,0.0606 0.857846,0.0544 0.857404,-0.006 v 0 c -0.385781,-1.82912 -0.771565,-3.65824 -1.157346,-5.48736 -0.220131,-1.73939 -0.44927,-3.47767 -0.660392,-5.21819 -0.174702,-1.44025 -0.313605,-2.88479 -0.497062,-4.32396 -0.01958,-0.15362 -0.475753,-3.88485 -0.823812,-4.61461 -0.07981,-0.16734 -0.815599,-0.15323 -0.468127,0.30037 -0.007,0.0237 0.327729,0.12201 0.334682,0.0984 z" />
        <path
           style="fill:#1d1f21;fill-rule:evenodd;stroke-width:0.132"
           id="path1113"
           d="m 93.241446,181.43297 c -0.76844,6.52408 -2.240804,12.93284 -3.693623,19.33042 -0.01868,0.0445 0.610997,0.30861 0.629672,0.26409 v 0 c 0.885192,-3.33607 1.473218,-5.35076 2.157825,-8.73573 0.715293,-3.53671 1.168082,-7.13604 1.311642,-10.74144 0.0083,-0.0287 -0.397218,-0.14601 -0.405516,-0.11734 z" />
      </g>
      <g
         id="g1205">
        <path
           style="fill:#1d1f21;fill-rule:evenodd;stroke-width:0.132"
           id="path1147"
           d="m 59.665322,122.56293 c -0.666155,-0.82886 -1.266987,-1.71333 -2.023759,-2.4663 -0.782743,-0.77881 -1.353894,-1.18321 -2.241468,-1.88452 -4.22443,-3.40855 -7.648895,-7.67006 -11.058953,-11.85937 -0.02977,-0.0255 -0.390493,0.39555 -0.36072,0.42106 v 0 c 0.728861,0.99277 1.426022,2.00962 2.186588,2.97832 2.609406,3.3235 5.545566,6.43255 8.978905,8.91481 0.982443,0.7138 1.393032,0.95771 2.239473,1.75747 0.768303,0.72594 1.362001,1.60994 2.145112,2.31954 0.01281,0.01 0.147619,-0.17148 0.134822,-0.18101 z" />
        <path
           style="fill:#1d1f21;fill-rule:evenodd;stroke-width:0.115307"
           id="path1149"
           d="m 45.929792,107.43924 c -0.150344,-1.85352 -0.854177,-3.14281 -1.673242,-4.60549 -0.764304,-1.14993 -1.545529,-2.915776 -2.765713,-3.305338 -0.14906,-0.04759 -0.305789,-0.03327 -0.458685,-0.0499 -0.122899,0.03867 -0.25205,0.05223 -0.368696,0.116015 -0.322492,0.176342 -0.527433,0.645743 -0.700913,1.010903 -0.408657,0.86018 -0.330582,0.73671 -0.70784,1.80117 -0.140253,0.53572 -0.301353,1.06283 -0.420757,1.60716 -0.34998,1.59546 -0.595502,3.30505 -0.827812,4.92982 -0.460277,3.21913 -0.835886,6.44997 -1.184632,9.69247 -0.0089,0.0342 0.360174,0.19903 0.369068,0.16483 v 0 c 0.41178,-3.21522 0.839914,-6.42639 1.26207,-9.63928 0.192208,-1.46283 0.429172,-3.46503 0.698075,-4.94068 0.09922,-0.54448 0.237634,-1.0754 0.35645,-1.6131 0.272036,-0.90196 0.293514,-1.06684 0.611116,-1.83579 0.130681,-0.3164 0.310799,-0.782541 0.590311,-0.926078 0.09978,-0.05124 0.209749,-0.05774 0.314624,-0.08661 0.134231,0.01939 0.272641,0.01048 0.402694,0.05816 1.10578,0.405408 1.907609,2.253618 2.622162,3.311848 0.343007,0.58948 0.738996,1.2323 1.031543,1.87332 0.342273,0.74998 0.535699,1.5812 0.6921,2.42396 -6.06e-4,0.0147 0.157399,0.0273 0.158077,0.0126 z" />
        <path
           id="path1161"
           style="fill:#1d1f21;fill-rule:evenodd;stroke-width:0.117954"
           d="m 47.323048,134.38599 c 0.701215,-2.71383 -0.693778,-5.29959 -2.916141,-7.31792 -2.68256,-2.71542 -5.16114,-4.62698 -8.828733,-5.25636 -1.733783,0.43612 1.464676,0.79442 2.145827,0.97652 3.407,1.0607 5.840948,3.19864 7.710511,6.45819 0.873806,1.78662 1.968262,3.14048 1.662052,5.03749 0.07529,0.0346 0.150997,0.0681 0.226472,0.10205 z"
           sodipodi:nodetypes="scccccss" />
        <path
           style="fill:#1d1f21;fill-rule:evenodd;stroke-width:0.132"
           id="path1189"
           d="m 29.406299,102.06927 c 0.27028,-0.84567 0.737151,-1.61294 1.238713,-2.339494 0.288954,-0.418569 0.858528,-1.206151 1.295236,-1.532279 0.176427,-0.131755 0.401241,-0.18152 0.601861,-0.27228 0.814097,0.307022 0.423863,0.05082 1.072597,0.900464 0.0076,0.007 0.105746,-0.09996 0.09819,-0.106902 v 0 c -0.708731,-1.086107 -0.237667,-0.768985 -1.300887,-1.09995 -0.240134,0.09749 -0.505413,0.147736 -0.7204,0.292473 -0.267012,0.179766 -0.485407,0.425162 -0.700818,0.664348 -0.868365,0.964221 -1.567577,2.12994 -1.885966,3.39132 -0.0072,0.0213 0.294244,0.12362 0.301477,0.1023 z" />
        <path
           style="fill:#1d1f21;fill-rule:evenodd;stroke-width:0.132"
           id="path1191"
           d="m 28.339925,98.004351 c -1.448847,0.806162 -2.784942,1.814846 -4.353663,2.393649 -0.402587,0.14854 -0.822232,0.24595 -1.233348,0.36893 -1.09683,0.2501 -2.206115,0.13511 -3.313896,0.0777 -0.01078,-5.3e-4 -0.01883,0.1519 -0.0081,0.15247 v 0 c 1.244709,0.29322 2.157993,0.44683 3.448031,0.15664 0.423951,-0.13021 0.857292,-0.23306 1.271853,-0.39063 1.574119,-0.5983 2.916115,-1.62638 4.313792,-2.536986 0.01569,-0.0088 -0.109032,-0.230632 -0.124717,-0.221813 z" />
        <path
           style="fill:#1d1f21;fill-rule:evenodd;stroke-width:0.132"
           id="path1197"
           d="m 17.898502,105.17246 c -0.527069,0.59011 -1.000875,1.22073 -1.448209,1.8719 -1.237422,1.70414 -1.739821,3.76732 -2.335778,5.75084 -0.0093,0.022 0.302307,0.15317 0.31158,0.13114 v 0 c 0.60119,-1.96188 1.173532,-3.95727 2.204089,-5.74838 0.410663,-0.66674 1.003591,-1.20421 1.433885,-1.86025 0.01027,-0.0117 -0.155297,-0.15696 -0.165567,-0.14525 z" />
      </g>
      <g
         id="g1313">
        <path
           id="path1209"
           style="fill:#1d1f21;fill-rule:evenodd;stroke-width:0.18599"
           d="m 57.162891,158.39842 c -6.375342,3.13268 -10.636189,8.64789 1.550288,11.64612 10.699021,8.45618 17.593735,12.53177 29.72052,18.46668 6.362033,4.54351 5.71785,-0.24798 0.419551,-2.47923 -12.322583,-4.54806 -24.08093,-10.48036 -35.807609,-16.42747 -3.093259,-4.44588 -5.6411,-6.3868 1.243011,-11.92692 2.827222,-3.59187 -0.653041,3.63957 2.874239,0.72082 z"
           sodipodi:nodetypes="ccccccc" />
        <path
           style="fill:#1d1f21;fill-rule:evenodd;stroke-width:0.132"
           id="path1219"
           d="m 96.813197,191.94593 c 1.141444,-0.31842 1.034492,-0.28362 2.475113,-0.71996 3.6137,-1.09452 3.14753,-1.00092 7.52181,-2.22546 5.80847,-1.62604 8.10011,-2.19009 14.14136,-3.76232 10.62412,-2.83357 5.45537,-1.40384 15.51005,-4.27551 0.0804,-0.0147 -0.12806,-1.15186 -0.20847,-1.13712 v 0 c -10.16066,2.44103 -4.95424,1.14583 -15.61577,3.8995 -2.55701,0.72672 -5.12411,1.41883 -7.67103,2.18015 -5.50363,1.64514 -10.96297,3.48677 -16.249795,5.74036 -0.02125,0.007 0.07549,0.3072 0.09673,0.30036 z" />
        <path
           style="fill:#1d1f21;fill-rule:evenodd;stroke-width:0.132"
           id="path1233"
           d="m 95.893124,191.86704 c 0.857602,3.12212 1.616557,6.33342 1.911538,9.56427 0.442677,4.84851 0.294566,9.32571 -0.101153,14.19577 -0.231415,2.84801 -0.634878,5.67942 -0.952317,8.51914 -1.022543,7.73911 -2.589541,15.44206 -2.775747,23.27222 -0.04018,1.68979 0.126037,3.37819 0.189053,5.06728 -0.0095,0.0526 0.734057,0.18708 0.743569,0.1345 v 0 c 0.06368,-1.63648 0.0589,-3.27706 0.191021,-4.90944 0.628047,-7.7599 2.229319,-15.39055 3.26068,-23.09724 0.292026,-2.87802 0.689423,-5.74728 0.876081,-8.63404 0.53309,-8.24457 0.223792,-16.65157 -2.950663,-24.38328 -0.01915,-0.0277 -0.411212,0.24309 -0.392062,0.27082 z" />
        <path
           style="fill:#1d1f21;fill-rule:evenodd;stroke-width:0.132"
           id="path1241"
           d="m 103.93033,205.48001 c -1.01662,7.05431 -3.16559,13.88163 -4.742389,20.81685 -0.6277,2.7608 -1.161042,5.54221 -1.741562,8.31332 -1.454915,10.94832 -1.058092,5.60892 -1.29517,16.01008 -0.01487,0.0787 1.098442,0.28908 1.113317,0.21035 v 0 c 0.653121,-10.18662 0.118009,-4.94379 1.687338,-15.7199 0.533209,-2.77264 1.039577,-5.55059 1.599626,-8.31794 1.12843,-5.57581 1.69878,-7.56596 2.68679,-12.87892 0.42181,-2.26827 0.79832,-4.58568 0.98724,-6.89168 0.0404,-0.49248 0.0288,-0.98785 0.0432,-1.48178 0.004,-0.0239 -0.33412,-0.0843 -0.33839,-0.0604 z" />
        <path
           style="fill:#1d1f21;fill-rule:evenodd;stroke-width:0.156702"
           id="path1245"
           d="m 103.97361,204.65439 c 0.74627,-0.75542 1.48586,-1.54474 2.35445,-2.18215 2.44718,-1.79584 5.11688,-3.24705 7.89715,-4.55404 5.94161,-2.79313 9.16763,-3.81724 15.52628,-6.16977 2.91245,-0.95908 5.8249,-1.91816 8.73735,-2.87724 0.0947,-0.0289 -0.34389,-1.27942 -0.43858,-1.25046 v 0 c -2.95621,0.91323 -5.91243,1.82645 -8.86866,2.73968 -7.06984,2.67817 -9.15112,3.2116 -15.56461,6.53834 -3.71044,1.92465 -7.4935,4.19404 -10.01761,7.45523 -0.0227,0.0247 0.35147,0.32512 0.37423,0.30041 z" />
        <path
           style="fill:#1d1f21;fill-rule:evenodd;stroke-width:0.132"
           id="path1247"
           d="m 136.8458,188.72992 c 0.83705,1.25686 1.05747,1.50706 1.78683,3.13701 1.12896,2.52296 2.77425,7.05064 3.65645,9.40424 3.7029,9.87887 1.35744,3.70104 5.37081,14.16966 0.89121,2.31749 1.78243,4.63497 2.67364,6.95245 0.0439,0.0669 0.99024,-0.55361 0.94636,-0.62053 v 0 c -0.84513,-2.35052 -1.69027,-4.70103 -2.5354,-7.05154 -2.26604,-6.03757 -3.06465,-8.31658 -5.45819,-14.13913 -0.74505,-1.81241 -1.49876,-3.62204 -2.30815,-5.40665 -1.06839,-2.35566 -2.18108,-4.78335 -3.92095,-6.73422 -0.0204,-0.0149 -0.23182,0.27377 -0.2114,0.28871 z" />
        <path
           style="fill:#1d1f21;fill-rule:evenodd;stroke-width:0.132"
           id="path1249"
           d="m 137.42417,177.33825 c 0.0459,0.45826 0.0609,0.92067 0.13773,1.37477 0.40857,2.4155 0.9703,4.3497 1.79495,6.74215 1.4471,4.19832 3.0645,7.79 4.78115,11.92929 1.07704,2.59702 2.14077,5.19951 3.21117,7.79928 3.17247,7.94607 5.54654,16.18385 7.25898,24.56192 0.39622,1.93846 0.66492,3.90081 0.99739,5.85122 -0.007,0.0664 0.93338,0.16137 0.94009,0.0949 v 0 c -0.27702,-2.16306 -0.47038,-4.3385 -0.83107,-6.48918 -1.43358,-8.54792 -3.79007,-16.89888 -7.11324,-24.90911 -1.11313,-2.57827 -2.2061,-5.16531 -3.33937,-7.73478 -2.76035,-6.25855 -5.97681,-12.44561 -7.47751,-19.16756 0.004,-0.0255 -0.35652,-0.0784 -0.36027,-0.0529 z" />
        <path
           style="fill:#1d1f21;fill-rule:evenodd;stroke-width:0.124468"
           id="path1299"
           d="m 110.05222,200.67745 c -0.29973,6.98145 -0.86465,13.93372 -1.28607,20.90102 -0.42492,7.02515 -0.47045,8.82024 -0.75675,15.64958 -0.0113,0.0772 0.77531,0.29822 0.78658,0.22108 v 0 c 0.59418,-10.06368 0.27779,-4.87297 0.95304,-15.57169 0.41674,-7.02657 0.79382,-14.07478 0.58099,-21.13047 0.003,-0.0272 -0.27425,-0.0967 -0.27779,-0.0695 z" />
        <path
           style="fill:#1d1f21;fill-rule:evenodd;stroke-width:0.132"
           id="path1303"
           d="m 107.7613,206.14095 c -0.21446,0.9372 -0.4799,1.86417 -0.64337,2.81159 -0.62052,3.59612 -1.09094,8.48299 -1.40077,11.95866 -0.62419,7.00212 -0.71981,9.35087 -1.1475,16.33692 -0.0163,0.0852 1.18873,0.31548 1.20501,0.23028 v 0 c 0.21472,-2.68744 0.44296,-5.37384 0.64415,-8.06233 0.57736,-7.71491 0.94124,-15.44574 1.65418,-23.14997 0.009,-0.022 -0.30285,-0.14719 -0.3117,-0.12515 z" />
      </g>
    </g>
    <g
       id="g1542">
      <path
         id="path1447"
         style="fill:#373b41;fill-opacity:1;stroke:none;stroke-width:0.264583px;stroke-linecap:butt;stroke-linejoin:miter;stroke-opacity:1"
         d="m 160.16718,122.6148 c -4.6724,0.48799 -7.81226,3.96928 -9.41394,8.38048 -1.74899,4.81692 -2.04023,11.66153 -5.89327,15.0949 -4.00332,0.79339 -8.30179,4.5455 -4.84414,8.60756 3.60173,2.0225 7.95039,-2.29313 11.98526,-2.51036 4.38151,-2.97778 4.99886,-9.15531 7.82166,-13.47459 2.31479,-4.81715 5.23935,-10.40462 7.55413,-15.22177 -2.25328,-0.99222 -4.96912,-1.11022 -7.2097,-0.87622 z"
         sodipodi:nodetypes="sscccccs" />
      <path
         id="path1426"
         style="fill:#e0e0e0;fill-opacity:1;stroke:none;stroke-width:0.264583px;stroke-linecap:butt;stroke-linejoin:miter;stroke-opacity:1"
         d="m 151.5279,151.37502 c 2.31041,-5.75568 3.5237,-12.04271 5.32225,-18.4624 1.44759,-5.16698 4.24324,-9.73224 7.2405,-9.73175 3.2912,5.3e-4 5.38044,1.42082 5.59861,6.31648 0.27301,6.12622 -4.1115,9.45576 -4.95502,15.06893 -0.56872,5.51428 -5.63,4.69845 -9.51682,5.97215 -1.22952,0.28023 -2.45748,0.56748 -3.68952,0.83659 z"
         sodipodi:nodetypes="csssccc" />
      <path
         id="path1428"
         style="fill:#373b41;fill-opacity:1;stroke:none;stroke-width:0.264583px;stroke-linecap:butt;stroke-linejoin:miter;stroke-opacity:1"
         d="m 151.83735,151.48641 c -0.30474,-3.92512 3.69359,-6.53977 7.10183,-7.08781 2.5401,-1.33412 6.88825,-0.51218 5.07531,3.23794 -2.44484,2.35129 -4.98451,1.73776 -8.00429,2.82055 -1.32248,0.25717 -2.84547,0.79842 -4.17285,1.02932 z"
         sodipodi:nodetypes="ccccc" />
      <path
         id="path1391-9"
         style="fill:#373b41;fill-opacity:1;stroke:none;stroke-width:0.264583px;stroke-linecap:butt;stroke-linejoin:miter;stroke-opacity:1"
         d="m 140.45634,148.34802 c -1.16792,-2.14574 -3.13239,-3.54368 -2.36541,-5.51858 0.68749,-1.77027 1.14594,-0.98432 3.57465,1.01169 0.85688,0.70418 -0.87282,3.72408 -0.93473,4.46991 0.44236,-1.81455 1.78671,-1.92114 1.73186,-3.31002 -0.11701,-2.96317 -3.09132,-4.25542 -4.75046,-2.92915 -1.77193,1.41644 0.90772,4.2099 2.74409,6.27615 z"
         sodipodi:nodetypes="csscssc" />
    </g>
    <g
       id="g1565"
       style="fill:#c5c8c6">
      <path
         style="fill:#c5c8c6;fill-opacity:1;stroke:none;stroke-width:0.264583px;stroke-linecap:butt;stroke-linejoin:miter;stroke-opacity:1"
         d="m 37.268957,163.69574 c 0,0 -2.148118,4.73366 7.4686,24.95984 -0.915274,2.86336 -1.300375,2.50547 -0.03962,4.0706 0.373772,2.25689 9.663396,19.08293 17.210566,22.93765 1.218647,5.03723 -0.364246,5.52311 1.121095,10.1336 1.485342,4.61049 3.788241,8.32524 5.278046,7.43291 1.489808,-0.89234 1.503699,0.71481 2.528867,-0.2194 1.025167,-0.93421 1.830268,0.10152 2.380088,-1.23271 0.54982,-1.33422 0.752017,-1.43791 1.163315,-2.2955 0.411295,-0.85759 -1.428642,-3.1385 -1.308158,-5.99646 0.120483,-2.85796 -3.233285,-3.76601 -4.282062,-7.28834 -1.048779,-3.52233 -2.136939,-2.98055 -2.641145,-4.77355 -0.504206,-1.793 -6.772066,-16.71409 -9.107564,-19.47376 -2.335498,-2.75966 -2.483911,-1.76951 -1.846757,-5.21477 0.637153,-3.44527 -0.552482,-16.49531 -2.514341,-19.45687 -3.222344,-1.17676 -15.410928,-3.58324 -15.410928,-3.58324 z"
         id="path1559" />
    </g>
    <g
       id="g1524">
      <path
         style="fill:#282a2e;fill-opacity:1;stroke:none;stroke-width:0.264583px;stroke-linecap:butt;stroke-linejoin:miter;stroke-opacity:1"
         d="m 53.87251,162.5004 24.761526,-32.16104 25.426284,34.78481 33.54767,-6.87649 1.36593,20.7629 c 0,0 0.048,16.92931 6.35131,42.14291 -4.30853,1.02582 -3.6411,1.09919 -4.03588,-0.94727 -0.39478,-2.04647 -5.36615,-29.87773 -7.14433,-30.49036 -1.77819,-0.61264 -24.02128,8.5544 -24.11947,10.63924 -0.0982,2.08483 -0.77662,32.88311 -1.49846,37.88577 -1.9503,-0.002 -4.46234,2.52461 -4.01557,0.1987 0.44677,-2.32591 4.02624,-36.91638 2.89564,-38.6154 -1.1306,-1.69902 -43.829466,-24.25707 -53.53465,-37.32377 z"
         id="path1520" />
      <path
         style="fill:#c5c8c6;fill-opacity:1;stroke:none;stroke-width:0.264583px;stroke-linecap:butt;stroke-linejoin:miter;stroke-opacity:1"
         d="m 53.239878,161.72119 c -2.687367,2.84841 -0.757158,14.01902 39.835312,33.09739 4.758769,2.27646 1.876372,26.4132 1.640398,53.9201 2.231099,-0.002 2.523765,-0.07 2.523765,-0.07 0,0 -0.749345,-21.92044 6.551557,-44.20358 6.70395,-5.24165 32.4653,-18.37349 33.94305,-15.33088 1.47775,3.04261 14.39219,33.897 14.73382,43.13886 3.35222,2.07233 3.89571,2.26651 3.56203,0.8501 -0.33368,-1.41641 -3.55839,-17.41111 -9.38274,-30.77547 -5.82436,-13.36435 -6.79511,-25.21654 -8.35655,-23.34445 -1.56145,1.8721 -40.943664,11.00489 -42.147494,13.5917 -4.519203,-4.81814 -34.493353,-26.66631 -42.903148,-30.87379 z"
         id="path1518"
         sodipodi:nodetypes="sccccscssscss" />
    </g>
    <g
       id="g1536">
      <path
         id="path1422"
         style="fill:#e0e0e0;fill-opacity:1;stroke:none;stroke-width:0.264583px;stroke-linecap:butt;stroke-linejoin:miter;stroke-opacity:1"
         d="m 204.71739,113.14739 c 2.62423,0.83345 3.33213,4.24788 3.74641,6.70422 0.70209,5.27003 0.23367,10.59383 -0.10642,15.87575 -0.12308,5.19739 -0.42586,10.54782 -2.69763,15.32082 -0.17945,1.50987 -4.08195,3.49721 -3.69493,0.9801 0.91754,-12.96028 1.83495,-25.92069 2.75257,-38.88089 z" />
      <path
         style="fill:#373b41;fill-opacity:1;stroke:none;stroke-width:0.264583px;stroke-linecap:butt;stroke-linejoin:miter;stroke-opacity:1"
         d="m 181.55455,144.85119 c 4.76669,-0.98395 9.16264,-4.70168 10.6632,-7.86459 3.1013,-6.53699 2.84652,-8.61757 3.67842,-12.95551 2.18765,-6.95058 5.30073,-9.91846 8.86639,-10.93861 1.21689,2.34403 2.5729,4.26284 2.32881,11.07237 0.89322,12.27686 -1.42316,26.85817 -4.14169,28.74368 -4.24904,3.65511 -6.79573,-0.79787 -20.85914,4.25549 z"
         id="path1420"
         sodipodi:nodetypes="cscccccc" />
      <path
         id="path1391-6"
         style="fill:#282a2e;fill-opacity:1;stroke:none;stroke-width:0.228486px;stroke-linecap:butt;stroke-linejoin:miter;stroke-opacity:1"
         d="m 181.91498,156.31347 c 0.0445,2.63551 1.06369,4.1725 -0.029,5.69426 -0.97943,1.36408 -1.3274,-0.17064 -1.68979,-1.81606 -0.24502,-1.11255 0.63127,-1.20485 0.90374,-1.8913 -0.86011,1.00144 -1.64486,-0.11489 -1.22315,1.85862 0.6473,3.02928 0.65585,2.98789 2.09375,2.5274 1.53566,-0.49182 0.42528,-3.48578 -0.0556,-6.37292 z"
         sodipodi:nodetypes="csscsscc" />
      <path
         style="fill:#c5c8c6;fill-opacity:1;stroke:none;stroke-width:0.264583px;stroke-linecap:butt;stroke-linejoin:miter;stroke-opacity:1"
         d="m 186.55804,149.33831 c 3.8257,-0.66171 7.27917,-0.96783 8.98187,0.39857 -1.65906,2.11707 -4.2223,3.91522 -10.27226,4.48349 1.0564,-1.3682 2.49277,-2.57917 1.29039,-4.88206 z"
         id="path1389"
         sodipodi:nodetypes="cccc" />
      <path
         id="path1391"
         style="fill:#282a2e;fill-opacity:1;stroke:none;stroke-width:0.264583px;stroke-linecap:butt;stroke-linejoin:miter;stroke-opacity:1"
         d="m 181.43755,145.36377 c -2.25301,-0.94455 -4.1574,-0.18497 -4.79346,-2.20584 -0.57016,-1.81147 1.34421,-1.69165 4.48764,-1.65218 1.10901,0.0139 0.079,3.03673 0.49695,3.65754 -0.78916,-1.69278 0.72793,-4.58111 -0.75259,-4.71497 -2.95342,-0.26704 -4.38985,0.49043 -4.85562,2.56282 -0.49743,2.21328 2.69206,1.88802 5.41708,2.35263 z"
         sodipodi:nodetypes="csscssc" />
    </g>
    <g
       id="g1602">
      <path
         style="fill:#282a2e;fill-opacity:1;stroke:none;stroke-width:0.264583px;stroke-linecap:butt;stroke-linejoin:miter;stroke-opacity:1"
         d="m 18.608082,105.86758 c -4.5353,0.137 -8.465138,3.7668 -9.5739223,5.92213 -1.1282149,2.1931 -3.3463009,7.16159 -1.8317257,14.04974 1.5145752,6.88815 6.798795,11.27348 14.204782,10.29613 7.291518,-0.96225 14.643578,-6.12555 19.223013,-7.03297 2.296253,-0.455 4.51718,-0.0475 4.51718,-0.0475 z"
         id="path1577"
         sodipodi:nodetypes="csssscc" />
      <path
         style="fill:#c5c8c6;fill-opacity:1;stroke:none;stroke-width:0.264583px;stroke-linecap:butt;stroke-linejoin:miter;stroke-opacity:1"
         d="m 50.415566,136.67836 c -0.635022,-3.66326 -7.374465,-7.8512 -10.358521,-8.64709 -1.061516,-0.28312 -10.048645,5.1402 -12.67079,4.98606 -4.990867,-0.29337 -4.696234,-6.74605 -8.413712,-9.53893 -5.107886,-3.83748 -6.52907,-16.15702 -1.497039,-17.29896 7.596559,-1.72391 9.57365,2.07661 14.453164,-1.43187 4.879512,-3.50847 6.170772,-3.66677 7.133979,-1.81248 0.963208,1.85429 3.579709,-1.04149 3.902065,0.11939 0.322355,1.16089 1.3528,-1.55645 2.29557,0.17495 0.650748,1.19509 5.364246,0.96642 5.316501,3.58517 -0.01804,0.98935 -0.168452,6.44228 6.668387,12.12606 6.970828,5.79517 8.737835,7.86447 8.737835,7.86447 l 2.052338,7.30051 z"
         id="path1575"
         sodipodi:nodetypes="cssssssssssccc" />
      <path
         style="fill:#373b41;fill-opacity:1;stroke:none;stroke-width:0.264583px;stroke-linecap:butt;stroke-linejoin:miter;stroke-opacity:1"
         d="m 24.784909,107.16103 c 2.865052,0.69934 9.152976,-4.4967 10.311414,-4.20617 1.201796,0.30139 0.769793,0.24242 0.424924,3.53774 -2.309257,1.6506 -3.102255,-0.75902 -4.29307,1.20573 -1.190815,1.96474 -2.799164,5.23991 -3.519865,7.20231 -0.720701,1.96239 0.567586,7.35102 -1.443003,7.37438 -2.010588,0.0234 -6.285054,-1.9125 -6.006415,-4.37729 -0.461467,-3.17627 0.227455,-9.53621 4.526015,-10.7367 z"
         id="path1569"
         sodipodi:nodetypes="cscssccc" />
      <path
         style="fill:#373b41;fill-opacity:1;stroke:none;stroke-width:0.264583px;stroke-linecap:butt;stroke-linejoin:miter;stroke-opacity:1"
         d="m 21.657389,117.82637 c -0.914781,-5.89949 1.419806,-7.72185 3.08539,-7.37351 1.593518,0.33327 4.147202,-0.65187 2.717623,1.18514 -1.429579,1.83701 -1.260547,3.76998 -1.556562,6.42761 -0.296016,2.65762 -4.246451,-0.23924 -4.246451,-0.23924 z"
         id="path1567"
         sodipodi:nodetypes="csssc" />
      <path
         style="fill:#e0e0e0;fill-opacity:1;stroke:none;stroke-width:0.264583px;stroke-linecap:butt;stroke-linejoin:miter;stroke-opacity:1"
         d="m 39.376262,103.6449 c -2.962885,2.24988 -1.44955,3.73391 -2.379835,1.97705 -0.924397,-1.74574 0.527359,-4.22439 1.236021,-3.76392 1.81398,1.17867 1.153754,1.79323 1.143814,1.78687 z"
         id="path1571"
         sodipodi:nodetypes="cssc" />
      <path
         style="fill:#e0e0e0;fill-opacity:1;stroke:none;stroke-width:0.264583px;stroke-linecap:butt;stroke-linejoin:miter;stroke-opacity:1"
         d="m 38.771913,126.50833 c 3.543993,-2.21099 5.784721,-15.47966 6.463102,-17.40343 1.789,-5.0733 6.020223,-3.84819 5.253587,-2.15264 -0.791197,1.74986 0.193691,2.85927 1.331722,6.61542 1.075587,3.55005 7.004454,6.30183 9.276877,10.27463 2.258986,3.94931 4.180912,8.85996 0.839278,4.21882 -3.498433,-4.85892 -10.963722,-11.08329 -11.977645,-13.14033 -1.143263,-2.31945 -0.940398,-7.66098 -2.695443,-2.62001 -1.755044,5.04098 -2.760463,12.41016 -4.396313,13.64219 -1.635848,1.23203 -6.760815,3.95161 -4.095165,0.56535 z"
         id="path1573"
         sodipodi:nodetypes="cssssssssc" />
      <path
         style="fill:#e0e0e0;fill-opacity:1;stroke:none;stroke-width:0.264583px;stroke-linecap:butt;stroke-linejoin:miter;stroke-opacity:1"
         d="m 43.326738,103.33187 c -1.757034,1.67029 -1.634191,5.34639 -1.853261,4.26564 -0.219067,-1.08076 1.121558,-6.10868 1.853261,-4.26564 z"
         id="path1579"
         sodipodi:nodetypes="csc" />
      <path
         style="fill:#373b41;fill-opacity:1;stroke:none;stroke-width:0.264583px;stroke-linecap:butt;stroke-linejoin:miter;stroke-opacity:1"
         d="m 18.735652,105.93081 c 0,0 -1.46563,-0.0225 -2.907528,0.62355 -2.47505,1.10903 -5.636286,3.99247 -5.9231058,7.52348 -0.4277194,5.26563 -0.3199921,12.20183 6.0956388,19.41108 1.12906,1.26873 -0.0809,-1.33845 0.338075,-2.39368 0.896935,-2.25903 5.503295,-2.43139 4.718266,-1.48129 -0.418673,0.50671 3.316259,0.3631 9.886353,-1.37499 2.300434,-0.60857 9.414331,-11.75201 7.406416,-12.91523 -2.007915,-1.16323 -3.434067,-5.99542 -5.13389,-2.88896 -1.699823,3.10645 -1.916722,12.07273 -3.877343,12.0564 -1.96062,-0.0163 -5.044986,-2.57054 -6.81951,-1.62841 -1.774523,0.94213 -6.771198,-1.93065 -6.4618,-5.61351 0.309399,-3.68286 -0.371424,-9.61566 2.678428,-11.31844 z"
         id="path1583"
         sodipodi:nodetypes="csssssssscssc" />
      <path
         style="fill:#373b41;fill-opacity:1;stroke:none;stroke-width:0.264583px;stroke-linecap:butt;stroke-linejoin:miter;stroke-opacity:1"
         d="m 20.972846,129.50985 c -0.569211,1.30015 -0.818106,5.22007 4.728058,3.29134 5.652605,-1.96574 7.665741,-1.62026 6.048032,-4.46051 -1.301747,-2.28552 -3.609458,2.53429 -10.229421,-0.0795 z"
         id="path1585"
         sodipodi:nodetypes="ssscs" />
      <path
         style="fill:#282a2e;fill-opacity:1;stroke:none;stroke-width:0.264583px;stroke-linecap:butt;stroke-linejoin:miter;stroke-opacity:1"
         d="m 19.187768,116.77742 c 0.883699,-3.50515 1.281602,-7.43993 2.702656,-8.22078 1.421054,-0.78085 3.320752,-1.03473 2.358513,0.0708 -0.962238,1.10548 -2.968936,2.59161 -3.273621,6.7052 -1.211573,3.37362 -0.755075,2.19884 -1.787548,1.44483 z"
         id="path1587" />
      <path
         style="fill:#282a2e;stroke:none;stroke-width:0.264583px;stroke-linecap:butt;stroke-linejoin:miter;stroke-opacity:1"
         d="m 25.489919,106.07111 c -1.061131,0.53294 -2.836054,-0.0708 -1.886934,-0.34411 0.949121,-0.27332 2.53413,-0.2615 1.886934,0.34411 z"
         id="path1589" />
      <path
         style="fill:#282a2e;fill-opacity:1;stroke:none;stroke-width:0.264583px;stroke-linecap:butt;stroke-linejoin:miter;stroke-opacity:1"
         d="m 23.881751,115.82668 c 0.382612,-0.65392 1.382305,-1.80237 1.220421,-3.06725 -0.161884,-1.26489 0.463152,-1.47671 0.115132,-1.68111 -0.34802,-0.2044 -0.110905,2.10905 -0.287831,2.48646 -0.176925,0.37741 -1.813979,2.77147 -1.047722,2.2619 z"
         id="path1609" />
      <path
         style="fill:#e0e0e0;fill-opacity:1;stroke:none;stroke-width:0.264583px;stroke-linecap:butt;stroke-linejoin:miter;stroke-opacity:1"
         d="m 19.78863,105.88734 c -0.759107,1.06447 -1.769999,3.01429 -2.007213,5.98364 -0.237214,2.96934 0.550236,-3.93772 1.928723,-5.44728 1.378487,-1.50957 0.288383,-0.31888 0.07849,-0.53636 z"
         id="path1611" />
      <path
         style="fill:#373b41;fill-opacity:1;stroke:none;stroke-width:0.255136px;stroke-linecap:butt;stroke-linejoin:miter;stroke-opacity:1"
         d="m 40.20591,103.62499 c 0.320635,-0.22843 0.579871,-0.0617 1.340864,-0.49171 1.014485,-0.57323 -1.100924,1.86228 -0.656404,3.58628 0.106789,0.41416 -0.659108,-0.54176 -0.85174,-1.19199 -0.239733,-0.80922 0.16728,-1.90258 0.16728,-1.90258 z"
         id="path1613"
         sodipodi:nodetypes="csssc" />
    </g>
    <g
       id="g1529">
      <path
         style="fill:#373b41;stroke:none;stroke-width:0.264583px;stroke-linecap:butt;stroke-linejoin:miter;stroke-opacity:1"
         d="m 46.207787,137.96389 c 0,0 -7.619354,7.92644 -9.366623,12.96291 -1.039127,2.99526 0.845931,11.25603 -0.400762,9.50273 -1.246693,-1.7533 -1.037113,3.52267 0.235035,3.85881 1.272146,0.33614 18.106951,5.24348 16.543892,2.79256 -1.208173,-1.89445 -0.05485,-5.20803 -0.436577,-3.94212 -0.398508,1.32157 0.07565,-2.43994 1.444495,-0.6841 1.920389,2.46332 18.058286,11.98012 20.345384,11.68092 2.287098,-0.29921 1.716188,0.53342 2.675316,2.20535 0.959127,1.67193 2.758815,-0.46525 5.839258,2.18324 3.080441,2.6485 5.171073,6.53813 7.890825,6.5464 2.719753,0.008 4.02114,3.74086 4.08286,1.03701 0.06172,-2.70386 11.69509,-26.11404 11.69509,-26.11404 0,0 -0.25465,-3.50822 -2.52259,-4.66542 -2.26794,-1.1572 0.30064,-1.42079 -1.76561,-3.33865 -2.06625,-1.91786 -5.395248,-4.22359 -7.148901,-9.03189 -1.753655,-4.80829 -7.185567,-8.18101 -8.181493,-11.46086 -0.995929,-3.27985 -2.319396,-5.02276 -6.195004,-6.98287 -3.875609,-1.96011 -10.365023,-3.89886 -12.823243,-2.16795 -2.45822,1.73091 -3.214587,5.08755 -5.486522,1.36086 -2.271934,-3.7267 -3.314337,-1.61572 -1.352433,0.89701 1.961901,2.51274 1.359238,4.72329 4.464627,5.29763 3.105388,0.57433 -2.942733,1.37612 -4.788464,-0.28704 -1.845731,-1.66316 -2.796278,-2.69083 -3.916034,-1.44762 -1.119759,1.24321 -6.200233,-1.23287 -7.89505,1.6364 -1.694818,2.86927 -4.999162,3.19881 -2.937476,8.16073 z"
         id="path1516"
         sodipodi:nodetypes="cssssssssscscssssssssssssc" />
      <path
         style="display:inline;fill:#282a2e;fill-opacity:1;fill-rule:evenodd;stroke-width:0.264999;paint-order:stroke markers fill"
         d="m 54.644941,162.13975 c 1.519663,-1.29876 3.039327,-2.59752 5.237478,-2.16343 2.198151,0.43409 5.074674,2.60094 5.010146,3.62693 -0.06453,1.02599 -3.070042,0.91108 -4.59707,0.46475 -1.527028,-0.44633 -1.575507,-1.22404 -2.270855,-1.60065 -0.695348,-0.37662 -2.03751,-0.35212 -3.379699,-0.32762 z"
         id="path1"
         transform="translate(-1.4237292,0.03299192)"
         inkscape:original-d="m 54.644941,162.13975 c 0,0 3.039327,-2.59752 4.55899,-3.89628 2.876637,2.16694 5.753161,4.33379 8.62974,6.50068 -3.005635,-0.11491 -6.011148,-0.22982 -9.016722,-0.34473 -0.04848,-0.77775 -0.09696,-1.55546 -0.145442,-2.33319 -1.342215,0.0245 -4.026566,0.0735 -4.026566,0.0735 z"
         inkscape:path-effect="#path-effect1" />
      <path
         style="display:inline;fill:#282a2e;fill-opacity:1;fill-rule:evenodd;stroke-width:0.264999;paint-order:stroke markers fill"
         d="m 71.859216,171.00308 c 0.288142,-0.59477 1.676231,-1.17202 2.582745,-1.87629 0.906513,-0.70426 1.331436,-1.53551 1.043283,-0.94072 -0.288152,0.5948 -1.289342,2.61556 -2.19586,3.31981 -0.906517,0.70426 -1.71831,0.092 -1.430168,-0.5028 z"
         id="path2"
         transform="translate(-1.1458334e-6)"
         inkscape:original-d="m 70.759269,170.98556 c 1.388089,-0.57725 2.776178,-1.1545 4.164267,-1.73175 0.424939,-0.83128 0.84986,-1.66253 1.274789,-2.49379 -1.001231,2.02085 -2.002425,4.04161 -3.003637,6.06242 -0.811824,-0.6123 -1.623613,-1.22459 -2.435419,-1.83688 z"
         inkscape:path-effect="#path-effect2" />
      <path
         style="display:inline;fill:#282a2e;fill-opacity:1;fill-rule:evenodd;stroke-width:0.264999;paint-order:stroke markers fill"
         d="m 78.128783,172.54284 c -0.25783,-0.49018 -1.124135,0.16383 -1.299454,0.98102 -0.175319,0.81719 0.340327,1.79753 0.773484,1.47051 0.433156,-0.32702 0.783799,-1.96135 0.52597,-2.45153 z"
         id="path3"
         transform="translate(-1.1458334e-6)"
         inkscape:original-d="m 78.737261,171.39866 c -0.866304,0.65401 -1.732611,1.30801 -2.598917,1.96201 0.515665,0.98038 1.031311,1.96072 1.546968,2.94108 0.350655,-1.6344 0.7013,-3.26873 1.051949,-4.90309 z"
         inkscape:path-effect="#path-effect3" />
      <path
         style="display:inline;fill:#282a2e;fill-opacity:1;fill-rule:evenodd;stroke-width:0.264999;paint-order:stroke markers fill"
         d="m 93.168963,182.86693 c -0.150065,0.32066 -0.51028,0.52006 -1.056527,-0.43425 -0.546246,-0.95431 -1.278492,-3.06226 -1.04731,-4.76887 0.231182,-1.70661 1.425757,-3.0118 1.815316,-4.51154 0.389558,-1.49974 -0.0259,-3.19394 0.349,-3.45718 0.374902,-0.26325 1.540128,0.90445 2.928718,0.34836 1.388591,-0.5561 3.000455,-2.83593 3.68063,-4.32872 0.68018,-1.4928 0.42864,-2.1985 0.97516,-2.61521 0.54652,-0.41671 1.89105,-0.54441 1.67765,0.60243 -0.2134,1.14684 -1.98467,3.56813 -3.392927,5.50274 -1.408257,1.93462 -2.453412,3.38244 -3.377021,4.22935 -0.92361,0.8469 -1.725619,1.09285 -2.018274,1.55127 -0.292654,0.45842 -0.07595,1.12929 -0.07514,2.27757 8.04e-4,1.14828 -0.214291,2.77391 -0.291794,3.80769 -0.0775,1.03379 -0.01741,1.4757 -0.167478,1.79636 z"
         id="path4"
         transform="translate(-1.1458334e-6)"
         inkscape:original-d="m 93.379117,182.98818 c -0.360217,0.19941 -0.720436,0.39881 -1.080653,0.59822 -0.732274,-2.10803 -1.464519,-4.21598 -2.196777,-6.32396 1.19462,-1.30524 2.389195,-2.61043 3.583791,-3.91564 -0.415477,-1.69427 -0.830939,-3.38847 -1.246409,-5.08271 1.165275,1.16775 2.330503,2.33545 3.495754,3.50318 1.611926,-2.27992 3.223789,-4.55975 4.835687,-6.83962 -0.25155,-0.70572 -0.50308,-1.41142 -0.75462,-2.11713 1.34458,-0.1277 2.68911,-0.2554 4.03366,-0.38311 -1.77135,2.42138 -3.54262,4.84267 -5.313932,7.26401 -1.0452,1.44789 -2.090357,2.89571 -3.135538,4.34357 -0.802039,0.24595 -1.604047,0.4919 -2.40607,0.73785 0.216715,0.67089 0.433422,1.34176 0.650131,2.01264 -0.215101,1.62568 -0.430196,3.25131 -0.645295,4.87696 0.06009,0.44192 0.120179,0.88383 0.180271,1.32574 z"
         inkscape:path-effect="#path-effect4" />
      <path
         id="path1604"
         style="opacity:0.99;fill:#282a2e;fill-opacity:1;stroke:none;stroke-width:0.264583px;stroke-linecap:butt;stroke-linejoin:miter;stroke-opacity:1"
         d="m 67.713306,129.89347 c 3.58214,0.0626 6.508695,2.56825 10.005465,3.02306 2.737372,-0.84557 3.332562,2.69365 4.523481,4.30749 1.379883,2.41426 4.213068,3.45143 5.491009,5.91183 1.81535,3.02186 3.166271,6.44235 5.943768,8.75633 1.814862,2.40594 4.226644,4.54345 6.370371,6.3942 -2.32018,2.09778 2.99571,1.34498 2.98443,3.87047 0.65982,1.02598 1.45001,5.35976 0.0221,2.2154 0.16766,-3.17917 -2.54386,-3.89339 -4.14319,-5.29326 1.57645,-1.16089 -2.749253,-3.15523 -3.734427,-4.80653 -2.006645,-2.42953 -4.790099,-4.93255 -6.634889,-8.9363 -1.200945,-3.346 -4.316557,-4.64951 -6.303683,-7.41147 -1.02745,-1.78963 -2.28686,-5.44494 -4.244881,-4.34677 -3.505048,-1.12133 -7.847618,-3.01532 -10.625897,-3.18733 -0.142313,-0.22701 0.08023,-0.54795 0.346313,-0.49712 z"
         sodipodi:nodetypes="scccccccccccccss" />
      <path
         style="fill:#e0e0e0;fill-opacity:1;stroke:none;stroke-width:0.264583px;stroke-linecap:butt;stroke-linejoin:miter;stroke-opacity:1"
         d="m 104.4678,161.00602 c 0,0 -18.721923,-28.5768 -19.17399,-30.77781 -0.452067,-2.20102 -9.199139,-9.17992 -15.81749,-7.56499 -6.618351,1.61493 -6.62271,4.94618 -3.104097,2.52195 2.245533,-1.54711 16.664313,1.97589 18.188921,5.46685 1.33659,3.06045 19.778326,35.90464 19.906656,30.354 z"
         id="path1512"
         sodipodi:nodetypes="cssssc" />
      <path
         style="fill:#e0e0e0;fill-opacity:1;stroke:none;stroke-width:0.264583px;stroke-linecap:butt;stroke-linejoin:miter;stroke-opacity:1"
         d="m 100.33985,168.67728 c 0,0 -2.073514,-4.83873 -6.974825,-8.75925 -4.901311,-3.92052 -17.33668,-14.76553 -18.483548,-17.20492 -1.146871,-2.43938 -19.213023,-11.72683 -23.314173,-9.76579 -4.101147,1.96105 -8.008434,6.9729 -4.431712,4.25893 3.576719,-2.71397 20.642762,0.73062 23.894322,4.18503 3.25156,3.45442 17.677852,17.97751 22.075367,21.65967 4.397513,3.68215 5.742109,10.40189 7.234569,5.62633 z"
         id="path1514" />
      <path
         style="fill:#373b41;fill-opacity:1;fill-rule:evenodd;stroke-width:0.264999;paint-order:stroke markers fill"
         d="m 63.563907,227.22841 c 0.04737,0.98137 0.09474,1.96273 0.297112,2.97578 0.20237,1.01304 0.559726,2.05772 0.909758,2.39632 0.350033,0.33861 0.692724,-0.0289 0.73662,-0.53747 0.0439,-0.5086 -0.261707,-1.28754 -0.407087,-2.01053 -0.14538,-0.72298 -0.271752,-2.07397 -0.525321,-2.59336 -0.253569,-0.5194 -0.626625,-0.37724 -1.011082,-0.23074 z"
         id="path5"
         inkscape:path-effect="#path-effect5"
         inkscape:original-d="m 63.563907,227.22841 c 0,0 0.09474,1.96273 0.142113,2.9441 0.35737,1.04472 0.714725,2.0894 1.072087,3.1341 0.342704,-0.36749 0.685392,-0.73497 1.028088,-1.10245 -0.254899,-0.64972 -0.560505,-1.42866 -0.76469,-1.94911 -0.08657,-0.92552 -0.212947,-2.27651 -0.324228,-3.46615 -0.395857,0.15085 -1.15337,0.43951 -1.15337,0.43951 z"
         transform="matrix(1.9784243,0,0,1.6477009,-63.138723,-150.2692)"
         sodipodi:nodetypes="ccccccc" />
      <path
         style="fill:#373b41;fill-opacity:1;fill-rule:evenodd;stroke-width:0.264999;paint-order:stroke markers fill"
         d="m 62.521908,223.85781 c -0.08278,-0.58771 -0.248354,-1.76313 -0.249005,-2.52536 -6.52e-4,-0.76224 0.163603,-1.11126 0.128095,-2.02838 -0.03551,-0.91711 -0.270773,-2.40223 -0.506045,-3.88738 -0.322767,0.0865 -0.645532,0.17289 -2.110463,-1.09091 -1.46493,-1.2638 -4.07192,-3.87775 -6.23651,-6.58343 -2.164589,-2.70569 -3.886654,-5.50294 -5.321061,-7.96112 -1.434407,-2.45819 -2.581075,-4.57717 -3.119201,-5.69563 -0.538126,-1.11846 -0.467691,-1.23636 -0.589099,-1.53458 -0.121409,-0.29823 -0.434644,-0.77677 -0.593413,-1.09413 -0.15877,-0.31735 -0.163067,-0.4735 0.01198,-0.90909 0.175044,-0.4356 0.529409,-1.15061 0.883783,-1.86564 -1.743453,-3.57874 -3.486906,-7.15748 -4.79695,-10.73867 -1.310045,-3.58118 -2.186645,-7.16466 -2.595859,-9.42809 -0.409215,-2.26343 -0.351025,-3.2067 -0.292834,-4.14999 1.747583,0.30142 3.495131,0.60284 3.985072,1.30227 0.489941,0.69942 -0.277748,1.79677 -0.04472,4.5776 0.233026,2.78083 1.466744,7.24481 2.628971,10.58693 1.162227,3.34212 2.252828,5.56199 2.832543,7.29269 0.579716,1.73069 0.648474,2.97199 0.943199,4.31159 0.294724,1.33961 0.815376,2.77734 2.4025,5.47484 1.587125,2.69749 4.240526,6.65441 6.770879,9.69666 2.530353,3.04225 4.937336,5.16944 6.335371,6.34233 1.398036,1.17288 1.786926,1.39129 1.852287,1.87286 0.06536,0.48157 -0.192819,1.22623 -0.173064,2.36538 0.01976,1.13916 0.317445,2.67266 0.450704,4.1019 0.13326,1.42924 0.102074,2.75407 -0.344406,3.09586 -0.446479,0.34178 -1.30822,-0.29951 -1.739097,-0.62016 -0.430877,-0.32065 -0.430868,-0.32065 -0.513652,-0.90835 z"
         id="path6"
         inkscape:path-effect="#path-effect6"
         inkscape:original-d="m 62.604692,224.44551 c -0.165568,-1.17541 -0.331139,-2.35083 -0.496707,-3.52625 0.164263,-0.34905 0.328522,-0.69807 0.492783,-1.04711 -0.235278,-1.48519 -0.705815,-4.45546 -0.705815,-4.45546 0,0 -0.645533,0.17289 -0.968301,0.25934 -2.607093,-2.61405 -5.214083,-5.228 -7.821123,-7.842 -1.722136,-2.79737 -3.444203,-5.59462 -5.166305,-8.39193 -1.146712,-2.11906 -2.293379,-4.23804 -3.44007,-6.35706 0.07044,-0.1179 0.14087,-0.2358 0.211305,-0.35369 -0.313249,-0.47856 -0.626484,-0.9571 -0.939726,-1.43565 -0.0043,-0.15616 -0.0086,-0.31231 -0.01289,-0.46845 0.354381,-0.71505 1.063123,-2.14509 1.063123,-2.14509 0,0 -3.486907,-7.15748 -5.230358,-10.73622 -0.876636,-3.58363 -1.753237,-7.16711 -2.629857,-10.75067 0.05819,-0.9433 0.174572,-2.82986 0.174572,-2.82986 0,0 3.495131,0.60284 5.24275,0.90427 -0.767737,1.09742 -1.535427,2.19477 -2.303163,3.29219 1.233789,4.46424 2.467508,8.92822 3.701296,13.39246 1.090665,2.22 2.181267,4.43987 3.271935,6.65988 0.06876,1.24138 0.13752,2.48268 0.206282,3.72406 0.520687,1.43783 1.04134,2.87556 1.562026,4.31339 2.653563,3.95716 5.306966,7.91408 7.96053,11.87125 2.407139,2.12733 4.814123,4.25452 7.221272,6.38186 0.38892,0.21843 0.777812,0.43684 1.166731,0.65527 -0.258198,0.74471 -0.516378,1.48937 -0.774576,2.23408 0.297708,1.5336 0.595398,3.0671 0.893104,4.60069 -0.03119,1.32489 -0.06237,2.64972 -0.09356,3.97461 -0.861769,-0.64132 -1.723512,-1.28261 -2.585267,-1.92391 z"
         sodipodi:nodetypes="sccccccccccccccccccccccccccss" />
    </g>
    <g
       id="g1557">
      <path
         id="path1376"
         style="fill:#c5c8c6;fill-opacity:1;stroke:none;stroke-width:0.264583px;stroke-linecap:butt;stroke-linejoin:miter;stroke-opacity:1"
         d="m 98.451478,173.32509 c 2.935392,-5.11701 7.527772,-18.44852 11.830482,-22.32391 1.90402,-1.31033 3.86355,-2.85737 6.02782,-5.27749 1.45246,-4.90036 -0.28692,-12.99987 0.62265,-13.54108 0.0414,-4.33578 8.38592,-8.03169 11.76383,-11.33948 2.2829,0.36601 5.66639,0.2045 7.94625,2.686 2.98278,2.63952 6.45986,7.08197 5.50147,9.0719 1.98947,5.28308 2.86365,7.51122 1.31727,8.99818 1.00331,2.03196 3.75598,4.87859 -0.32896,3.72199 -6.1796,-0.32665 -12.179,-0.60346 -18.3586,-0.93012 0.38174,3.77095 12.87222,5.54789 11.25855,8.53294 -10.70761,2.64078 -28.29023,14.23639 -37.580762,20.40107 z"
         sodipodi:nodetypes="cccccccccccc" />
      <path
         id="path1383"
         style="fill:#e0e0e0;fill-opacity:1;stroke:none;stroke-width:0.264583px;stroke-linecap:butt;stroke-linejoin:miter;stroke-opacity:1"
         d="m 125.21027,141.61091 c -0.95211,2.97808 -1.17414,6.29105 0.87365,8.88132 1.62088,2.39804 0.35965,5.216 4.8095,2.49169 3.81711,-1.23317 6.48975,1.42613 10.31068,0.20491 -3.52568,-2.71484 -1.07241,-5.10215 3.05504,-6.54027 2.6109,-2.37274 -2.46518,-5.07156 -0.37892,-8.24268 0.43929,-3.28064 -2.78176,-3.95136 -2.24529,-7.49287 0.17246,-1.86338 -2.04461,-3.07146 -3.16904,-4.12797 0.27917,-2.50736 -2.85007,-4.47949 -9.44823,-5.61208 -1.73454,3.89731 -4.7115,7.62203 -5.7107,11.62148 0.63442,2.93881 1.269,5.87774 1.90331,8.81647 z"
         sodipodi:nodetypes="ccccccccccc" />
      <path
         style="fill:#c5c8c6;fill-opacity:1;stroke:none;stroke-width:0.264583px;stroke-linecap:butt;stroke-linejoin:miter;stroke-opacity:1"
         d="m 139.54037,151.16962 c 4.00588,-0.75109 5.14751,-0.39678 7.02381,-0.326 -0.97476,1.34756 -2.18848,2.52206 -6.1076,1.73713 z"
         id="path1484"
         sodipodi:nodetypes="cccc" />
      <path
         style="fill:#c5c8c6;fill-opacity:1;stroke:none;stroke-width:0.264583px;stroke-linecap:butt;stroke-linejoin:miter;stroke-opacity:1"
         d="m 136.95732,151.6271 c -0.0908,-3.38355 3.05489,-5.08626 3.05489,-5.08626 0,0 -2.14428,0.29804 -3.16872,2.12308 -1.02442,1.82505 0.11383,2.96318 0.11383,2.96318 z"
         id="path1486"
         sodipodi:nodetypes="ccsc" />
      <path
         id="path1366"
         style="fill:#e0e0e0;fill-opacity:1;stroke:none;stroke-width:0.264583px;stroke-linecap:butt;stroke-linejoin:miter;stroke-opacity:1"
         d="m 95.82519,175.56759 c 6.64641,-10.33187 17.12067,-18.9387 29.74064,-19.60683 8.11091,-3.54985 17.48067,-4.62646 26.24492,-5.23079 6.82172,-4.7424 16.07864,-4.27505 23.92577,-5.10516 1.71154,0.0491 5.9201,-2.54291 5.84067,-0.47843 -0.0489,1.27118 2.33191,-0.77817 4.42894,3.64225 1.5586,3.28543 -1.59962,6.5525 -2.6683,6.80464 -1.29608,0.30579 -1.60971,3.90117 -4.32198,3.27847 -6.03316,1.81622 -10.40337,7.65174 -17.6026,7.32889 -5.28303,1.64838 -8.31333,11.37565 -15.34222,10.06601 -6.16283,-0.24144 -9.00973,2.15071 -15.12551,4.05246 -7.16887,3.31625 -17.73227,2.05038 -24.40826,6.54651 -5.34128,4.55305 -13.639532,-0.24027 -11.990982,-7.1332 0.161527,-1.45072 0.57562,-2.88211 1.278912,-4.16482 z"
         sodipodi:nodetypes="ccccsssccccccc" />
      <path
         style="fill:#c5c8c6;fill-opacity:1;stroke:none;stroke-width:0.264583px;stroke-linecap:butt;stroke-linejoin:miter;stroke-opacity:1"
         d="m 155.67971,170.39223 c 1.33571,-4.98889 3.23422,-6.64765 6.40354,-9.75967 -0.74053,2.46269 -1.22695,2.68395 -0.83632,5.69886 -1.69502,-0.11236 -3.8742,2.91618 -5.56722,4.06081 z"
         id="path1474"
         sodipodi:nodetypes="cccc" />
      <path
         style="fill:#c5c8c6;fill-opacity:1;stroke:none;stroke-width:0.264583px;stroke-linecap:butt;stroke-linejoin:miter;stroke-opacity:1"
         d="m 142.22906,171.5215 c 2.27035,0.17372 5.18086,-0.31274 4.68261,2.71619 -3.68306,1.93995 -5.96903,2.00421 -8.726,2.70083 1.01257,-1.91413 0.90217,-4.19156 4.04339,-5.41702 z"
         id="path1476"
         sodipodi:nodetypes="cccc" />
      <path
         style="fill:#c5c8c6;fill-opacity:1;stroke:none;stroke-width:0.264583px;stroke-linecap:butt;stroke-linejoin:miter;stroke-opacity:1"
         d="m 179.87193,153.6597 c -0.19336,1.62861 0.22689,2.45442 -0.75128,5.10983 -0.945,0.60259 -1.25218,0.55126 -1.84157,0.78926 1.48528,-1.95041 2.12484,-3.92254 2.59285,-5.89909 z"
         id="path1478"
         sodipodi:nodetypes="cccc" />
      <path
         style="fill:#c5c8c6;fill-opacity:1;stroke:none;stroke-width:0.264583px;stroke-linecap:butt;stroke-linejoin:miter;stroke-opacity:1"
         d="m 181.87539,146.7843 c 0.79787,1.93006 1.77915,4.87217 0.83325,8.26991 0.82474,-1.30297 1.21714,-2.61158 1.20378,-4.82443 -0.64956,-1.91167 -1.26586,-2.68302 -2.03703,-3.44548 z"
         id="path1480"
         sodipodi:nodetypes="cccc" />
      <path
         style="fill:#c5c8c6;fill-opacity:1;stroke:none;stroke-width:0.264583px;stroke-linecap:butt;stroke-linejoin:miter;stroke-opacity:1"
         d="m 175.1796,145.90397 c 1.22355,-0.24524 2.52353,-0.36415 3.52144,-0.98235 0.16403,0.7657 0.22868,1.49545 -0.31296,2.00578 -0.32324,-0.89839 -1.86828,-0.88443 -3.20848,-1.02343 z"
         id="path1482"
         sodipodi:nodetypes="cccc" />
      <path
         style="fill:#c5c8c6;fill-opacity:1;stroke:none;stroke-width:0.264583px;stroke-linecap:butt;stroke-linejoin:miter;stroke-opacity:1"
         d="m 128.23248,157.37612 c -8.22248,9.80152 -9.53738,17.93459 -10.51788,15.00342 -0.9805,-2.93117 6.77755,-15.90381 10.51788,-15.00342 z"
         id="path1488" />
      <path
         style="fill:#c5c8c6;fill-opacity:1;stroke:none;stroke-width:0.264583px;stroke-linecap:butt;stroke-linejoin:miter;stroke-opacity:1"
         d="m 151.77405,153.36621 c -1.77571,6.12116 0.79729,8.93188 -0.74392,7.23265 -1.54121,-1.69922 -1.41822,-9.10027 0.74392,-7.23265 z"
         id="path1490" />
      <path
         style="fill:#c5c8c6;fill-opacity:1;stroke:none;stroke-width:0.264583px;stroke-linecap:butt;stroke-linejoin:miter;stroke-opacity:1"
         d="m 149.58736,151.74429 c -4.03296,2.29088 -3.43406,8.17113 -3.73674,4.69275 -0.30268,-3.47837 2.15523,-4.89392 3.73674,-4.69275 z"
         id="path1492" />
    </g>
    <path
       style="fill:#282a2e;fill-opacity:1;stroke:none;stroke-width:0.264583px;stroke-linecap:butt;stroke-linejoin:miter;stroke-opacity:1"
       d="m 27.542442,129.10045 c -1.521785,0.97101 -1.355772,-0.1963 -2.30266,0.20676 -0.946886,0.40306 3.160392,1.29556 2.30266,-0.20676 z"
       id="path945" />
    <path
       style="fill:#282a2e;fill-opacity:1;stroke:none;stroke-width:0.264583px;stroke-linecap:butt;stroke-linejoin:miter;stroke-opacity:1"
       d="m 29.35068,129.26923 c 1.036042,0.68311 0.461145,1.60963 -2.287289,1.908 -2.748433,0.29838 -4.485415,0.94222 -4.629909,0.36904 -0.144492,-0.57319 -1.1006,1.61225 5.078759,-0.22247 6.17936,-1.83472 2.394889,-1.96558 1.838439,-2.05457 z"
       id="path947" />
  </g>
</svg>
