<?xml version="1.0" encoding="UTF-8" standalone="no"?>
<!-- Created with Inkscape (http://www.inkscape.org/) -->

<svg
   sodipodi:docname="mathematician-portrait.svg"
   inkscape:version="1.3 (0e150ed6c4, 2023-07-21)"
   id="svg4914"
   version="1.1"
   viewBox="0 0 210 297"
   height="297mm"
   width="210mm"
   inkscape:export-filename="../../../../img/mathematician-portrait-4color.png"
   inkscape:export-xdpi="32"
   inkscape:export-ydpi="32"
   xmlns:inkscape="http://www.inkscape.org/namespaces/inkscape"
   xmlns:sodipodi="http://sodipodi.sourceforge.net/DTD/sodipodi-0.dtd"
   xmlns="http://www.w3.org/2000/svg"
   xmlns:svg="http://www.w3.org/2000/svg">
  <sodipodi:namedview
     id="namedview4916"
     pagecolor="#ffffff"
     bordercolor="#666666"
     borderopacity="1.0"
     inkscape:pageshadow="2"
     inkscape:pageopacity="0.0"
     inkscape:pagecheckerboard="0"
     inkscape:document-units="mm"
     showgrid="false"
     fit-margin-top="0"
     fit-margin-left="0"
     fit-margin-right="0"
     fit-margin-bottom="0"
     inkscape:zoom="0.76099206"
     inkscape:cx="396.8504"
     inkscape:cy="561.10967"
     inkscape:window-width="2158"
     inkscape:window-height="1415"
     inkscape:window-x="0"
     inkscape:window-y="0"
     inkscape:window-maximized="1"
     inkscape:current-layer="layer1"
     inkscape:snap-global="false"
     inkscape:showpageshadow="0"
     inkscape:deskcolor="#d1d1d1" />
  <defs
     id="defs4911">
    <inkscape:path-effect
       effect="bspline"
       id="path-effect1"
       is_visible="true"
       lpeversion="1.3"
       weight="33.333333"
       steps="2"
       helper_size="0"
       apply_no_weight="true"
       apply_with_weight="true"
       only_selected="false"
       uniform="false" />
    <inkscape:path-effect
       effect="bspline"
       id="path-effect84135"
       is_visible="true"
       lpeversion="1"
       weight="33.333333"
       steps="2"
       helper_size="0"
       apply_no_weight="true"
       apply_with_weight="true"
       only_selected="false" />
    <inkscape:path-effect
       effect="bspline"
       id="path-effect84106"
       is_visible="true"
       lpeversion="1"
       weight="33.333333"
       steps="2"
       helper_size="0"
       apply_no_weight="true"
       apply_with_weight="true"
       only_selected="false" />
    <inkscape:path-effect
       effect="bspline"
       id="path-effect84077"
       is_visible="true"
       lpeversion="1"
       weight="33.333333"
       steps="2"
       helper_size="0"
       apply_no_weight="true"
       apply_with_weight="true"
       only_selected="false" />
    <inkscape:path-effect
       effect="bspline"
       id="path-effect83931"
       is_visible="true"
       lpeversion="1"
       weight="33.333333"
       steps="2"
       helper_size="0"
       apply_no_weight="true"
       apply_with_weight="true"
       only_selected="false" />
    <inkscape:path-effect
       effect="bspline"
       id="path-effect83677"
       is_visible="true"
       lpeversion="1"
       weight="33.333333"
       steps="2"
       helper_size="0"
       apply_no_weight="true"
       apply_with_weight="true"
       only_selected="false" />
    <inkscape:path-effect
       effect="bspline"
       id="path-effect83639"
       is_visible="true"
       lpeversion="1"
       weight="33.333333"
       steps="2"
       helper_size="0"
       apply_no_weight="true"
       apply_with_weight="true"
       only_selected="false" />
    <inkscape:path-effect
       effect="bspline"
       id="path-effect83620"
       is_visible="true"
       lpeversion="1"
       weight="33.333333"
       steps="2"
       helper_size="0"
       apply_no_weight="true"
       apply_with_weight="true"
       only_selected="false" />
    <inkscape:path-effect
       effect="bspline"
       id="path-effect83601"
       is_visible="true"
       lpeversion="1"
       weight="33.333333"
       steps="2"
       helper_size="0"
       apply_no_weight="true"
       apply_with_weight="true"
       only_selected="false" />
    <inkscape:path-effect
       effect="bspline"
       id="path-effect83582"
       is_visible="true"
       lpeversion="1"
       weight="33.333333"
       steps="2"
       helper_size="0"
       apply_no_weight="true"
       apply_with_weight="true"
       only_selected="false" />
    <inkscape:path-effect
       effect="bspline"
       id="path-effect83563"
       is_visible="true"
       lpeversion="1"
       weight="33.333333"
       steps="2"
       helper_size="0"
       apply_no_weight="true"
       apply_with_weight="true"
       only_selected="false" />
    <inkscape:path-effect
       effect="bspline"
       id="path-effect83544"
       is_visible="true"
       lpeversion="1"
       weight="33.333333"
       steps="2"
       helper_size="0"
       apply_no_weight="true"
       apply_with_weight="true"
       only_selected="false" />
    <inkscape:path-effect
       effect="bspline"
       id="path-effect83525"
       is_visible="true"
       lpeversion="1"
       weight="33.333333"
       steps="2"
       helper_size="0"
       apply_no_weight="true"
       apply_with_weight="true"
       only_selected="false" />
    <inkscape:path-effect
       effect="bspline"
       id="path-effect83506"
       is_visible="true"
       lpeversion="1"
       weight="33.333333"
       steps="2"
       helper_size="0"
       apply_no_weight="true"
       apply_with_weight="true"
       only_selected="false" />
    <inkscape:path-effect
       effect="bspline"
       id="path-effect83487"
       is_visible="true"
       lpeversion="1"
       weight="33.333333"
       steps="2"
       helper_size="0"
       apply_no_weight="true"
       apply_with_weight="true"
       only_selected="false" />
    <inkscape:path-effect
       effect="bspline"
       id="path-effect83468"
       is_visible="true"
       lpeversion="1"
       weight="33.333333"
       steps="2"
       helper_size="0"
       apply_no_weight="true"
       apply_with_weight="true"
       only_selected="false" />
    <inkscape:path-effect
       effect="bspline"
       id="path-effect83439"
       is_visible="true"
       lpeversion="1"
       weight="33.333333"
       steps="2"
       helper_size="0"
       apply_no_weight="true"
       apply_with_weight="true"
       only_selected="false" />
    <inkscape:path-effect
       effect="bspline"
       id="path-effect83420"
       is_visible="true"
       lpeversion="1"
       weight="33.333333"
       steps="2"
       helper_size="0"
       apply_no_weight="true"
       apply_with_weight="true"
       only_selected="false" />
    <inkscape:path-effect
       effect="bspline"
       id="path-effect83401"
       is_visible="true"
       lpeversion="1"
       weight="33.333333"
       steps="2"
       helper_size="0"
       apply_no_weight="true"
       apply_with_weight="true"
       only_selected="false" />
    <inkscape:path-effect
       effect="bspline"
       id="path-effect83382"
       is_visible="true"
       lpeversion="1"
       weight="33.333333"
       steps="2"
       helper_size="0"
       apply_no_weight="true"
       apply_with_weight="true"
       only_selected="false" />
    <inkscape:path-effect
       effect="bspline"
       id="path-effect83363"
       is_visible="true"
       lpeversion="1"
       weight="33.333333"
       steps="2"
       helper_size="0"
       apply_no_weight="true"
       apply_with_weight="true"
       only_selected="false" />
    <inkscape:path-effect
       effect="bspline"
       id="path-effect83344"
       is_visible="true"
       lpeversion="1"
       weight="33.333333"
       steps="2"
       helper_size="0"
       apply_no_weight="true"
       apply_with_weight="true"
       only_selected="false" />
    <inkscape:path-effect
       effect="bspline"
       id="path-effect83325"
       is_visible="true"
       lpeversion="1"
       weight="33.333333"
       steps="2"
       helper_size="0"
       apply_no_weight="true"
       apply_with_weight="true"
       only_selected="false" />
    <inkscape:path-effect
       effect="bspline"
       id="path-effect83306"
       is_visible="true"
       lpeversion="1"
       weight="33.333333"
       steps="2"
       helper_size="0"
       apply_no_weight="true"
       apply_with_weight="true"
       only_selected="false" />
    <inkscape:path-effect
       effect="bspline"
       id="path-effect83287"
       is_visible="true"
       lpeversion="1"
       weight="33.333333"
       steps="2"
       helper_size="0"
       apply_no_weight="true"
       apply_with_weight="true"
       only_selected="false" />
    <inkscape:path-effect
       effect="bspline"
       id="path-effect83268"
       is_visible="true"
       lpeversion="1"
       weight="33.333333"
       steps="2"
       helper_size="0"
       apply_no_weight="true"
       apply_with_weight="true"
       only_selected="false" />
    <inkscape:path-effect
       effect="bspline"
       id="path-effect83239"
       is_visible="true"
       lpeversion="1"
       weight="33.333333"
       steps="2"
       helper_size="0"
       apply_no_weight="true"
       apply_with_weight="true"
       only_selected="false" />
    <inkscape:path-effect
       effect="bspline"
       id="path-effect83220"
       is_visible="true"
       lpeversion="1"
       weight="33.333333"
       steps="2"
       helper_size="0"
       apply_no_weight="true"
       apply_with_weight="true"
       only_selected="false" />
    <inkscape:path-effect
       effect="bspline"
       id="path-effect83201"
       is_visible="true"
       lpeversion="1"
       weight="33.333333"
       steps="2"
       helper_size="0"
       apply_no_weight="true"
       apply_with_weight="true"
       only_selected="false" />
    <inkscape:path-effect
       effect="bspline"
       id="path-effect83182"
       is_visible="true"
       lpeversion="1"
       weight="33.333333"
       steps="2"
       helper_size="0"
       apply_no_weight="true"
       apply_with_weight="true"
       only_selected="false" />
    <inkscape:path-effect
       effect="bspline"
       id="path-effect83163"
       is_visible="true"
       lpeversion="1"
       weight="33.333333"
       steps="2"
       helper_size="0"
       apply_no_weight="true"
       apply_with_weight="true"
       only_selected="false" />
    <inkscape:path-effect
       effect="bspline"
       id="path-effect83022"
       is_visible="true"
       lpeversion="1"
       weight="33.333333"
       steps="2"
       helper_size="0"
       apply_no_weight="true"
       apply_with_weight="true"
       only_selected="false" />
    <inkscape:path-effect
       effect="bspline"
       id="path-effect74166"
       is_visible="true"
       lpeversion="1"
       weight="33.333333"
       steps="2"
       helper_size="0"
       apply_no_weight="true"
       apply_with_weight="true"
       only_selected="false" />
    <inkscape:path-effect
       effect="bspline"
       id="path-effect63818"
       is_visible="true"
       lpeversion="1"
       weight="33.333333"
       steps="2"
       helper_size="0"
       apply_no_weight="true"
       apply_with_weight="true"
       only_selected="false" />
    <inkscape:path-effect
       effect="bspline"
       id="path-effect62348"
       is_visible="true"
       lpeversion="1"
       weight="33.333333"
       steps="2"
       helper_size="0"
       apply_no_weight="true"
       apply_with_weight="true"
       only_selected="false" />
    <inkscape:path-effect
       effect="bspline"
       id="path-effect61387"
       is_visible="true"
       lpeversion="1"
       weight="33.333333"
       steps="2"
       helper_size="0"
       apply_no_weight="true"
       apply_with_weight="true"
       only_selected="false" />
    <inkscape:path-effect
       effect="bspline"
       id="path-effect61038"
       is_visible="true"
       lpeversion="1"
       weight="33.333333"
       steps="2"
       helper_size="0"
       apply_no_weight="true"
       apply_with_weight="true"
       only_selected="false" />
    <inkscape:path-effect
       effect="bspline"
       id="path-effect61001"
       is_visible="true"
       lpeversion="1"
       weight="33.333333"
       steps="2"
       helper_size="0"
       apply_no_weight="true"
       apply_with_weight="true"
       only_selected="false" />
    <inkscape:path-effect
       effect="bspline"
       id="path-effect60804"
       is_visible="true"
       lpeversion="1"
       weight="33.333333"
       steps="2"
       helper_size="0"
       apply_no_weight="true"
       apply_with_weight="true"
       only_selected="false" />
  </defs>
  <g
     inkscape:label="Layer 1"
     inkscape:groupmode="layer"
     id="layer1"
     transform="translate(-0.89812475,-0.168753)">
    <rect
       style="fill:#969896;fill-opacity:1;fill-rule:evenodd;stroke:none;stroke-width:0.264583"
       id="rect5123"
       width="210"
       height="297"
       x="0.89812475"
       y="0.168753"
       ry="32.218616" />
    <g
       inkscape:label="GridCartesian:X6:Y5"
       transform="matrix(4.9583133,0,0,5.2500214,-136.85307,84.431189)"
       id="g6027"
       style="fill:#c5c8c6">
      <g
         inkscape:label="GridPolar:R5:A24"
         transform="matrix(0.30905187,0,0,0.30905187,49.11246,10.391587)"
         id="g7927"
         style="fill:#c5c8c6">
        <path
           style="color:#000000;fill:#c5c8c6;-inkscape-stroke:none"
           d="M 0,-13.494141 C -10.495304,-14.12014 -17.610165,-0.19798969 -10.959266,7.9790618 -5.5410928,15.981329 8.3680306,14.929508 12.192644,5.8936043 16.600819,-2.5130199 9.5966164,-13.97159 0,-13.494141 Z m 0,0.529297 C 10.087827,-13.571488 16.918858,-0.18824814 10.530687,7.6686184 5.1183019,15.683523 -8.8947469,14.137749 -12.092073,4.8439002 -15.534665,-3.1646649 -8.8591532,-13.42268 0,-12.964844 Z"
           id="circle7849" />
        <path
           style="color:#000000;fill:#c5c8c6;-inkscape-stroke:none"
           d="M 0,-8.4785156 C -9.1030518,-9.0886897 -11.736754,5.5774816 -2.8230362,8.0735674 4.4597151,10.798888 11.83161,1.5973588 7.0408688,-4.7109427 5.4906071,-7.0043648 2.7972541,-8.5494981 0,-8.4785156 Z m 0,0.2636718 C 8.820796,-8.8086228 11.372483,5.4055428 2.7356931,7.8228569 -4.3223406,10.46407 -11.463606,1.5482979 -6.822707,-4.5652433 -5.32077,-6.7877663 -2.7104296,-8.2843653 0,-8.2148438 Z"
           id="circle7851" />
        <path
           style="color:#000000;fill:#c5c8c6;-inkscape-stroke:none"
           d="M 0,-26.722656 C -16.287501,-27.352723 -30.113159,-10.279222 -26.206274,5.5447119 -23.308712,20.984095 -5.1418041,31.110763 9.4733994,25.071467 24.116282,19.837548 31.51976,0.6599087 23.463085,-12.844522 18.874631,-21.206852 9.5921488,-26.881545 0,-26.722656 Z m 0,0.529297 C 15.968311,-26.815607 29.518566,-10.074916 25.687924,5.4366142 22.850355,20.574354 5.0374795,30.493729 -9.2885979,24.575884 -23.644598,19.446203 -30.893028,0.64430579 -22.9997,-12.593202 -18.502905,-20.79088 -9.4018276,-26.350366 0,-26.193359 Z"
           id="circle7853" />
        <path
           style="color:#000000;fill:#c5c8c6;-inkscape-stroke:none"
           d="M 0,-21.708984 C -14.140433,-22.311418 -25.598305,-6.5140635 -20.699597,6.7734317 -16.849752,19.359039 -0.52816953,25.884303 10.797829,18.919644 22.124349,12.689367 25.466904,-4.170962 16.691219,-13.894093 12.621598,-18.756249 6.3670174,-21.790017 0,-21.708984 Z m 0,0.265625 C 13.969925,-22.041269 25.285583,-6.4334998 20.446904,6.6920377 16.644718,19.125725 0.51997153,25.566386 -10.667739,18.688795 -21.588451,12.654566 -25.091168,-3.4522155 -16.960654,-13.141548 -12.960124,-18.284996 -6.5399779,-21.526482 0,-21.443359 Z"
           id="circle7855" />
        <path
           style="color:#000000;fill:#c5c8c6;-inkscape-stroke:none"
           d="M 0,-39.951172 C -20.671451,-40.506716 -39.548217,-22.375785 -39.97671,-1.7148934 -41.066743,17.635529 -26.190309,36.393825 -6.9700997,39.406845 11.564077,42.873627 31.588636,31.470172 37.665515,13.528023 44.16163,-4.1012584 36.440451,-25.79552 19.750109,-34.737396 13.764143,-38.139386 6.8892195,-39.979423 0,-39.951172 Z m 0,0.527344 C 20.399334,-39.974842 39.028735,-22.082703 39.449232,-1.6934289 40.530773,17.441729 25.788747,35.978959 6.7751008,38.909228 -11.511871,42.26867 -31.250494,30.98354 -37.198176,13.26707 -43.668289,-4.3401497 -35.68955,-26.007377 -18.871294,-34.625845 -13.111841,-37.76264 -6.5614848,-39.448685 0,-39.423828 Z"
           id="circle7857" />
        <path
           style="color:#000000;fill:#c5c8c6;-inkscape-stroke:none"
           d="M 0,-34.9375 C -18.760982,-35.485119 -35.668558,-18.346539 -34.994874,0.40101508 -35.053948,17.999553 -20.045135,34.089452 -2.3919546,34.925417 14.851787,36.296117 31.877837,23.187863 34.488803,5.9859038 37.596536,-10.951453 26.478347,-29.268842 9.6380304,-33.589797 6.5091442,-34.485156 3.2547396,-34.943208 0,-34.9375 Z m 0,0.265625 C 18.619159,-35.2175 35.39901,-18.208301 34.72904,0.39742045 34.789248,17.862704 19.894984,33.83207 2.3748539,34.660008 -14.737931,36.02134 -31.637551,23.014738 -34.226604,5.9417304 -37.311097,-10.867015 -26.280365,-29.048614 -9.5656114,-33.334824 -6.4601853,-34.223179 -3.2302497,-34.677541 0,-34.671875 Z"
           id="circle7859" />
        <path
           style="color:#000000;fill:#c5c8c6;-inkscape-stroke:none"
           d="m 0,-53.181641 c -25.951143,-0.612255 -50.078909,20.727224 -52.8307,46.5194835 -3.280125,23.8504725 11.735526,48.7487355 34.53681,56.6803715 21.9062138,8.202362 48.693418,0.01465 61.879378,-19.423775 C 57.56565,11.09429 56.084739,-17.91342 39.606807,-35.51766 29.664906,-46.606548 14.927811,-53.320324 0,-53.181641 Z m 0,0.529297 c 25.693128,-0.60903 49.583937,20.517419 52.304983,46.0545825 C 55.552847,17.01504 40.692185,41.671251 18.114105,49.520812 -3.5747362,57.639656 -30.098735,49.539406 -43.153612,30.291861 -56.992722,10.98357 -55.526738,-17.735823 -39.214362,-35.167274 -29.371135,-46.146087 -14.779059,-52.79003 0,-52.652344 Z"
           id="circle7861" />
        <path
           style="color:#000000;fill:#c5c8c6;-inkscape-stroke:none"
           d="m 0,-48.166016 c -23.960592,-0.591182 -46.118975,19.536272 -47.995801,43.4139326 -2.442022,22.0297534 12.30366,44.5449954 33.637636,50.8024284 20.5465471,6.595691 44.870253,-2.471582 55.718693,-21.227187 11.63698,-18.9899 7.950632,-45.902786 -9.035634,-60.54787 C 23.562928,-43.640244 11.830859,-48.260191 0,-48.166016 Z m 0,0.263672 c 23.829611,-0.58921 45.8679,19.427961 47.733109,43.1755365 C 50.16973,17.229308 35.43573,39.657504 14.158594,45.840863 -6.3282189,52.346897 -30.55374,43.222924 -41.262541,24.476396 -53.066307,5.0682058 -48.645138,-22.527848 -30.738101,-36.75581 -22.203429,-43.886182 -11.138387,-47.980419 0,-47.902344 Z"
           id="circle7863" />
        <path
           style="color:#000000;fill:#c5c8c6;-inkscape-stroke:none"
           d="m 0,-61.396484 c -28.294596,-0.534191 -55.034902,21.24126 -60.206648,49.083745 -5.230506,24.613742 6.351108,51.742788 28.010706,64.68354 C -9.9824918,66.291656 21.035292,63.833229 40.539314,46.201224 60.057592,29.33585 67.020925,-0.31752427 56.593373,-23.99446 47.20152,-46.141941 24.208825,-61.810446 0,-61.396484 Z m 0,0.265625 c 27.937862,-0.518892 54.381381,20.777932 59.80824,48.204876 C 65.244569,11.390209 54.182124,38.390696 32.958612,51.580059 10.702736,66.111388 -20.949153,63.787359 -40.61049,45.784205 -60.288,28.636378 -66.881805,-1.6165635 -55.738482,-25.29342 -46.060478,-46.600943 -23.548419,-61.536716 0,-61.130859 Z"
           id="circle7867" />
        <path
           style="color:#000000;fill:#c5c8c6;-inkscape-stroke:none"
           d="m -0.26367188,0 c 0,4.4095053 0,8.8190107 0,13.228516 C 0.96778706,9.9904334 -0.04952971,6.1921203 0.26367188,2.7002744 -0.0365021,2.0707737 0.89790167,-0.32736905 -0.26367188,0 Z"
           id="path7869" />
        <path
           style="color:#000000;fill:#c5c8c6;-inkscape-stroke:none"
           d="m 0,-0.26367188 c 3.2380826,1.23145893 7.0363957,0.21414218 10.528242,0.52734376 6.105615,-0.0601294 -2.6467013,-0.88174565 -4.8195381,-0.52734376 -1.9029013,0 -3.8058026,0 -5.7087039,0 z"
           id="path7871" />
        <path
           style="color:#000000;fill:#c5c8c6;-inkscape-stroke:none"
           d="m -0.26367188,-13.228516 c 0,4.4095053 0,8.8190107 0,13.228516 1.23145893,-3.2380826 0.21414218,-7.0363957 0.52734376,-10.528242 -0.30017398,-0.6295 0.63422979,-3.027643 -0.52734376,-2.700274 z"
           id="path7873" />
        <path
           style="color:#000000;fill:#c5c8c6;-inkscape-stroke:none"
           d="m -13.228516,-0.26367188 c 3.2380826,1.23145894 7.0363957,0.21414217 10.5282416,0.52734376 6.1056158,-0.0601294 -2.6467009,-0.88174566 -4.8195377,-0.52734376 -1.9029013,0 -3.8058029,0 -5.7087039,0 z"
           id="path7875" />
        <path
           style="color:#000000;fill:#c5c8c6;-inkscape-stroke:none"
           d="m 13.228516,-0.26367188 c 3.238083,1.23145894 7.036396,0.21414217 10.528241,0.52734376 14.129909,0 28.259818,0 42.389727,0 -3.238083,-1.23145894 -7.036396,-0.21414217 -10.528241,-0.52734376 -14.129909,0 -28.259818,0 -42.389727,0 z"
           id="path7877" />
        <path
           style="color:#000000;fill:#c5c8c6;-inkscape-stroke:none"
           d="m 63.824219,-17.375 c -17.038412,4.565104 -34.076823,9.1302083 -51.115235,13.6953125 3.446155,0.3580391 6.853566,-1.6131856 10.308194,-2.2131071 13.64792,-3.6568288 27.295839,-7.3136574 40.943759,-10.9704864 l -0.09705,-0.363239 z"
           id="path7879" />
        <path
           style="color:#000000;fill:#c5c8c6;-inkscape-stroke:none"
           d="m 57.152344,-33.302734 c -15.276042,8.819661 -30.552083,17.639323 -45.828125,26.458984 3.420925,-0.5454401 6.2019,-3.331942 9.383244,-4.80532 12.236184,-7.064893 24.472369,-14.129787 36.708553,-21.19468 l -0.187285,-0.326014 z"
           id="path7881" />
        <path
           style="color:#000000;fill:#c5c8c6;-inkscape-stroke:none"
           d="M 46.585937,-46.958984 C 34.113281,-34.486328 21.640625,-22.013672 9.1679688,-9.5410156 12.328607,-10.959384 14.294958,-14.365018 16.985606,-16.61256 c 9.991126,-9.991126 19.982252,-19.982251 29.973378,-29.973377 l -0.265858,-0.265858 z"
           id="path7883" />
        <path
           style="color:#000000;fill:#c5c8c6;-inkscape-stroke:none"
           d="m 32.84375,-57.416016 c -8.819661,15.275391 -17.639323,30.550781 -26.4589844,45.826172 2.6896989,-2.182095 3.7047564,-5.985877 5.7231204,-8.852091 7.06495,-12.236803 14.129899,-24.473606 21.194848,-36.710409 l -0.326014,-0.187285 z"
           id="path7885" />
        <path
           style="color:#000000;fill:#c5c8c6;-inkscape-stroke:none"
           d="m 16.863281,-63.960937 c -4.565104,17.03776 -9.1302081,34.075521 -13.6953122,51.113281 2.0329241,-2.8035 2.0288425,-6.740259 3.2364474,-10.030877 C 10.061277,-36.527095 13.718139,-50.175657 17.375,-63.824219 l -0.363239,-0.09705 z"
           id="path7887" />
        <path
           style="color:#000000;fill:#c5c8c6;-inkscape-stroke:none"
           d="m -0.26367188,-66.146484 c 0,17.639323 0,35.278645 0,52.917968 1.23145894,-3.238083 0.21414217,-7.036396 0.52734376,-10.528241 0,-14.129909 0,-28.259818 0,-42.389727 h -0.37597947 z"
           id="path7889" />
        <path
           style="color:#000000;fill:#c5c8c6;-inkscape-stroke:none"
           d="m -16.863281,-63.960937 c -0.357355,3.44525 1.61317,6.852318 2.213009,10.306267 3.656862,13.648562 7.3137231,27.297124 10.9705845,40.945686 0.3580391,-3.446155 -1.6131856,-6.853566 -2.2131071,-10.308194 -3.6568288,-13.64792 -7.3136574,-27.295839 -10.9704864,-40.943759 z"
           id="path7891" />
        <path
           style="color:#000000;fill:#c5c8c6;-inkscape-stroke:none"
           d="m -32.84375,-57.416016 c 0.547105,3.419871 3.331767,6.200701 4.805152,9.381388 7.06495,12.236803 14.129899,24.473606 21.194848,36.710409 -0.5454401,-3.420925 -3.331942,-6.2019 -4.80532,-9.383244 -7.064893,-12.236184 -14.129787,-24.472369 -21.19468,-36.708553 z"
           id="path7893" />
        <path
           style="color:#000000;fill:#c5c8c6;-inkscape-stroke:none"
           d="m -46.585937,-46.958984 c 1.418367,3.160639 4.824002,5.12699 7.071544,7.817638 9.991126,9.991126 19.982252,19.982252 29.9733774,29.9733772 -1.4183684,-3.1606382 -4.8240024,-5.1269892 -7.0715444,-7.8176372 -9.991126,-9.991126 -19.982251,-19.982252 -29.973377,-29.973378 z"
           id="path7895" />
        <path
           style="color:#000000;fill:#c5c8c6;-inkscape-stroke:none"
           d="m -57.152344,-33.302734 c 2.185116,2.688694 5.986813,3.705076 8.853947,5.723288 12.236184,7.064894 24.472369,14.129787 36.708553,21.1946804 -2.182095,-2.6896989 -5.985877,-3.7047564 -8.852091,-5.7231204 -12.236803,-7.06495 -24.473606,-14.129899 -36.710409,-21.194848 z"
           id="path7897" />
        <path
           style="color:#000000;fill:#c5c8c6;-inkscape-stroke:none"
           d="m -63.824219,-17.375 c 2.805544,2.032068 6.741355,2.029113 10.032804,3.236545 13.64792,3.656828 27.295839,7.3136573 40.943759,10.9704862 -2.8035,-2.0329241 -6.740259,-2.0288425 -10.030877,-3.2364474 C -36.527095,-10.061277 -50.175657,-13.718139 -63.824219,-17.375 Z"
           id="path7899" />
        <path
           style="color:#000000;fill:#c5c8c6;-inkscape-stroke:none"
           d="m -66.146484,-0.26367188 c 3.238083,1.23145894 7.036396,0.21414217 10.528241,0.52734376 14.129909,0 28.259818,0 42.389727,0 -3.238083,-1.23145894 -7.036396,-0.21414217 -10.528241,-0.52734376 -14.129909,0 -28.259818,0 -42.389727,0 z"
           id="path7901" />
        <path
           style="color:#000000;fill:#c5c8c6;-inkscape-stroke:none"
           d="m -12.847656,3.1679688 c -17.03776,4.5651041 -34.075521,9.1302082 -51.113281,13.6953122 3.44525,0.357355 6.852318,-1.61317 10.306267,-2.213009 13.648562,-3.656862 27.297124,-7.3137231 40.945686,-10.9705845 l -0.09834,-0.3628907 z"
           id="path7903" />
        <path
           style="color:#000000;fill:#c5c8c6;-inkscape-stroke:none"
           d="M -11.589844,6.3847656 C -26.865235,15.204427 -42.140625,24.024089 -57.416016,32.84375 c 3.419871,-0.547105 6.200701,-3.331767 9.381388,-4.805152 12.236803,-7.06495 24.473606,-14.129899 36.710409,-21.194848 l -0.188325,-0.3254141 z"
           id="path7905" />
        <path
           style="color:#000000;fill:#c5c8c6;-inkscape-stroke:none"
           d="M -9.5410156,9.1679688 C -22.013672,21.640625 -34.486328,34.113281 -46.958984,46.585937 c 3.160639,-1.418367 5.12699,-4.824002 7.817638,-7.071544 9.991126,-9.991126 19.982252,-19.982252 29.9733772,-29.9733774 L -9.4338264,9.275158 Z"
           id="path7907" />
        <path
           style="color:#000000;fill:#c5c8c6;-inkscape-stroke:none"
           d="m -6.84375,11.324219 c -8.819661,15.276042 -17.639323,30.552083 -26.458984,45.828125 2.688694,-2.185116 3.705076,-5.986813 5.723288,-8.853947 7.064894,-12.236184 14.129787,-24.472369 21.1946804,-36.708553 l -0.3254141,-0.188325 z"
           id="path7909" />
        <path
           style="color:#000000;fill:#c5c8c6;-inkscape-stroke:none"
           d="M -3.6796875,12.708984 C -8.2447917,29.747396 -12.809896,46.785807 -17.375,63.824219 c 2.032068,-2.805544 2.029113,-6.741355 3.236545,-10.032804 3.656828,-13.64792 7.3136573,-27.295839 10.9704862,-40.943759 l -0.3628907,-0.09834 z"
           id="path7911" />
        <path
           style="color:#000000;fill:#c5c8c6;-inkscape-stroke:none"
           d="m -0.26367188,13.228516 c 0,17.639323 0,35.278645 0,52.917968 1.23145894,-3.238083 0.21414217,-7.036396 0.52734376,-10.528241 0,-14.129909 0,-28.259818 0,-42.389727 h -0.37597947 z"
           id="path7913" />
        <path
           style="color:#000000;fill:#c5c8c6;-inkscape-stroke:none"
           d="M 3.6796875,12.708984 C 3.3216484,16.155139 5.2928731,19.56255 5.8927946,23.017178 9.5496234,36.665098 13.206452,50.313017 16.863281,63.960937 17.220636,60.515687 15.250111,57.108619 14.650272,53.65467 10.99341,40.006108 7.3365489,26.357546 3.6796875,12.708984 Z"
           id="path7915" />
        <path
           style="color:#000000;fill:#c5c8c6;-inkscape-stroke:none"
           d="m 6.84375,11.324219 c 0.5454401,3.420925 3.331942,6.2019 4.80532,9.383244 7.064893,12.236184 14.129787,24.472369 21.19468,36.708553 C 32.296645,53.996145 29.511983,51.215315 28.038598,48.034628 20.973648,35.797825 13.908699,23.561022 6.84375,11.324219 Z"
           id="path7917" />
        <path
           style="color:#000000;fill:#c5c8c6;-inkscape-stroke:none"
           d="M 9.5410156,9.1679688 C 10.959384,12.328607 14.365018,14.294958 16.61256,16.985606 26.603686,26.976732 36.594811,36.967858 46.585937,46.958984 45.16757,43.798345 41.761935,41.831994 39.514393,39.141346 29.523267,29.15022 19.532141,19.159094 9.5410156,9.1679688 Z"
           id="path7919" />
        <path
           style="color:#000000;fill:#c5c8c6;-inkscape-stroke:none"
           d="m 11.589844,6.3847656 c 2.182095,2.6896989 5.985877,3.7047564 8.852091,5.7231204 12.236803,7.06495 24.473606,14.129899 36.710409,21.194848 C 54.967228,30.61404 51.165531,29.597658 48.298397,27.579446 36.062213,20.514552 23.826028,13.449659 11.589844,6.3847656 Z"
           id="path7921" />
        <path
           style="color:#000000;fill:#c5c8c6;-inkscape-stroke:none"
           d="m 12.847656,3.1679688 c 2.8035,2.0329241 6.740259,2.0288425 10.030877,3.2364474 C 36.527095,10.061277 50.175657,13.718139 63.824219,17.375 61.018675,15.342932 57.082864,15.345887 53.791415,14.138455 40.143495,10.481627 26.495576,6.8247977 12.847656,3.1679688 Z"
           id="path7923" />
        <g
           id="circle7925"
           inkscape:label="CentreDot"
           style="fill:#c5c8c6">
          <path
             style="color:#000000;fill:#c5c8c6;stroke-width:0;-inkscape-stroke:none"
             d="m 0.66145831,0 c -1.97293331,2.7814716 -1.33383392,-2.6667563 0,0 z"
             id="path8309" />
          <path
             style="color:#000000;fill:#c5c8c6;-inkscape-stroke:none"
             d="m 0.66145831,0 c -1.69617001,2.8094465 -1.63292376,-2.705497 0,0 z"
             id="path8311" />
        </g>
      </g>
    </g>
    <g
       inkscape:label="GridPolar:R5:A24"
       transform="matrix(0.66487727,0,0,0.66487727,106.91835,138.85531)"
       id="g2617"
       style="fill:#b4b7b4">
      <path
         style="color:#000000;fill:#b4b7b4;-inkscape-stroke:none"
         d="M 0,-13.494141 C -12.089205,-14.242887 -18.49226,3.3518739 -8.5901391,10.501166 0.60402529,18.580181 16.707776,9.0727866 13.131961,-2.9544053 11.763271,-8.8750806 6.2386696,-13.785993 0,-13.494141 Z m 0,0.529297 C 11.618264,-13.689807 17.767124,3.2230187 8.2543513,10.091332 -0.58134019,17.851614 -16.054473,8.7198007 -12.617751,-2.8387719 -11.304783,-8.5290111 -5.9955785,-13.248903 0,-12.964844 Z"
         id="circle2529" />
      <path
         style="color:#000000;fill:#b4b7b4;-inkscape-stroke:none"
         d="M 0,-8.9511719 C -9.050752,-9.5525149 -12.44409,4.6127606 -3.9534462,8.1054033 6.18518,13.344904 14.753009,-3.2933446 3.8706836,-8.086216 L 2.0102351,-8.7504759 Z M 0,-8.6875 C 8.7850073,-9.2736719 12.07809,4.4781182 3.8375656,7.8670454 -6.0035697,12.953249 -14.318908,-3.1957696 -3.7576601,-7.8486484 l 1.8059792,-0.6444773 z"
         id="circle2531" />
      <path
         style="color:#000000;fill:#b4b7b4;-inkscape-stroke:none"
         d="M 0,-4.5429687 C -10.964468,-3.2968857 2.5624782,11.969108 4.5171494,0.08386326 4.5373888,-2.3194926 2.5322925,-4.7223092 0,-4.5429687 Z m 0,0.265625 C 10.579324,-2.789829 -2.6439749,10.929157 -4.2535838,0.07867964 -4.2731398,-2.1844036 -2.385398,-4.4488293 0,-4.2773437 Z"
         id="circle2533" />
      <path
         style="color:#000000;fill:#b4b7b4;-inkscape-stroke:none"
         d="M 0,-26.722656 C -17.935297,-27.4948 -32.123611,-6.958385 -25.036072,9.5726032 -19.491634,24.826897 0.92356567,31.933691 14.432012,22.55766 28.272548,14.010096 31.202376,-7.4487683 19.0282,-18.746138 14.062764,-23.756945 7.0919592,-26.837837 0,-26.722656 Z m 0,0.529297 C 17.584598,-26.954982 31.487449,-6.8193478 24.541518,9.3854256 18.972856,24.84329 -2.1360896,31.580315 -15.266311,21.335183 -27.96327,12.537108 -30.175084,-7.6419844 -18.652835,-18.377889 -13.785209,-23.289197 -6.9514307,-26.307108 0,-26.193359 Z"
         id="circle2535" />
      <path
         style="color:#000000;fill:#b4b7b4;-inkscape-stroke:none"
         d="M 0,-22.181641 C -15.402904,-22.88485 -27.233014,-4.6621104 -20.290038,9.1460079 -14.656223,22.354284 4.4449758,26.738732 14.848517,16.526203 25.05685,7.6601161 24.538238,-10.256832 13.08649,-17.898726 9.3202276,-20.650557 4.678145,-22.240145 0,-22.181641 Z m 0,0.265625 C 15.221289,-22.613666 26.906826,-4.6052661 20.04783,9.0382149 14.481043,22.089158 -4.3934916,26.4176 -14.672795,16.328935 -24.756866,7.5677922 -24.244778,-10.135555 -12.930513,-17.686007 -9.208946,-20.404468 -4.622125,-21.974087 0,-21.916016 Z"
         id="circle2537" />
      <path
         style="color:#000000;fill:#b4b7b4;-inkscape-stroke:none"
         d="M 0,-17.771484 C -14.475328,-18.577591 -23.669386,1.0519116 -13.534331,11.570618 -5.10472,22.164265 14.014308,18.35754 17.014233,4.9237494 20.672794,-6.0489451 11.455383,-18.096518 0,-17.771484 Z m 0,0.265625 C 14.261746,-18.30295 23.315278,1.0377894 13.332717,11.399695 5.0279626,21.83242 -13.807224,18.084599 -16.760809,4.8502012 -20.363136,-5.9590874 -11.286687,-17.828515 0,-17.505859 Z"
         id="circle2539" />
      <path
         style="color:#000000;fill:#b4b7b4;-inkscape-stroke:none"
         d="M 0,-39.951172 C -23.557852,-40.733434 -43.911587,-17.093503 -39.532722,6.1081175 -36.582171,27.723636 -13.926192,44.139007 7.5288885,39.213022 28.462666,35.738279 43.772068,13.668654 39.254158,-7.1524552 36.286074,-25.864278 18.875423,-40.204178 0,-39.951172 Z m 0,0.527344 C 23.248863,-40.199134 43.332924,-16.869449 39.011574,6.0266753 36.093561,27.487791 13.47828,43.725346 -7.7785146,38.625464 -28.62747,34.988383 -43.567433,12.655214 -38.555429,-7.9887411 -35.237054,-26.045108 -18.287383,-39.659294 0,-39.423828 Z"
         id="circle2541" />
      <path
         style="color:#000000;fill:#b4b7b4;-inkscape-stroke:none"
         d="M 0,-35.410156 C -21.697209,-36.187596 -40.037059,-13.534957 -34.648495,7.5423748 -30.759521,27.217009 -8.4046306,40.58683 10.658437,33.744709 29.251449,28.413729 40.442361,6.3902857 33.3689,-11.701239 28.740356,-25.795246 14.765523,-35.55084 0,-35.410156 Z m 0,0.265625 C 21.536157,-35.918649 39.737105,-13.434221 34.389244,7.4855363 30.531565,27.015067 8.3424816,40.281708 -10.578112,33.492441 -29.034599,28.203806 -40.137654,6.3429846 -33.119574,-11.613236 -28.527371,-25.603816 -14.655607,-35.284868 0,-35.144531 Z"
         id="circle2543" />
      <path
         style="color:#000000;fill:#b4b7b4;-inkscape-stroke:none"
         d="M 0,-31 C -19.568541,-31.717338 -35.813397,-10.627873 -29.97276,8.1232815 -25.48508,25.957162 -3.6278433,36.644919 12.956376,28.148751 29.384449,21.057711 36.487012,-1.2096795 26.368071,-16.188688 20.839883,-25.191016 10.668869,-31.257819 0,-31 Z m 0,0.263672 C 19.405341,-31.451383 35.512248,-10.539429 29.717296,8.0541846 25.364937,25.195267 4.8402794,35.842889 -11.494848,28.511185 -28.079182,22.240576 -36.192927,0.5509509 -26.899374,-14.776651 -21.592268,-24.390695 -11.105847,-31.016241 0,-30.736328 Z"
         id="circle2545" />
      <path
         style="color:#000000;fill:#b4b7b4;-inkscape-stroke:none"
         d="M 0,-53.181641 C -28.680152,-53.9814 -54.478988,-27.786479 -53.238824,0.89593156 -53.186464,28.141678 -29.553924,52.895951 -2.100708,53.129694 24.03056,54.668802 49.200472,34.306858 52.497283,8.2189348 57.251945,-17.568651 39.690132,-44.563616 14.456638,-51.196588 9.7640266,-52.536319 4.8814696,-53.223227 0,-53.181641 Z m 0,0.529297 C 28.395972,-53.447643 53.939207,-27.512761 52.709159,0.88539469 52.661045,27.862242 29.26332,52.371886 2.0809541,52.601096 -23.79174,54.127464 -48.714437,33.968466 -51.975475,8.1372477 -56.681744,-17.393708 -39.29949,-44.125005 -14.313134,-50.688041 -9.6670141,-52.013959 -4.8329527,-52.693644 0,-52.652344 Z"
         id="circle2547" />
      <path
         style="color:#000000;fill:#b4b7b4;-inkscape-stroke:none"
         d="m 0,-48.638672 c -27.488814,-0.839869 -51.74487,25.543748 -48.504588,52.891315 1.804716,25.199234 25.573767,46.408745 50.9487512,44.301794 C 27.335451,47.888038 49.047635,25.561541 48.583294,0.5834355 49.584063,-25.989516 26.397091,-49.070701 0,-48.638672 Z M 0,-48.375 C 27.340557,-49.211896 51.465093,-22.970724 48.241831,4.2290178 46.448678,29.292968 22.80763,50.38729 -2.4304693,48.291362 -27.187964,47.630196 -48.782722,25.423732 -48.320118,0.58025937 -49.315719,-25.850088 -26.255654,-48.805604 0,-48.375 Z"
         id="circle2549" />
      <path
         style="color:#000000;fill:#b4b7b4;-inkscape-stroke:none"
         d="M 0,-44.230469 C -25.491922,-45.040766 -47.776121,-20.062044 -43.974725,5.1962316 -41.613635,28.484174 -18.614361,47.284679 4.7529215,43.95166 27.743612,42.031636 46.468433,19.84882 44.064553,-3.1801393 42.990033,-25.848434 22.641208,-44.60433 0,-44.230469 Z m 0,0.265625 C 25.340046,-44.772579 47.490074,-19.942836 43.71099,5.1643148 41.366614,28.314476 18.503994,47.001096 -4.7237253,43.688009 -27.578452,41.782174 -46.189968,19.730443 -43.80025,-3.1609293 -42.733187,-25.694766 -22.507137,-44.337896 0,-43.964844 Z"
         id="circle2551" />
      <path
         style="color:#000000;fill:#b4b7b4;-inkscape-stroke:none"
         d="M 0,-66.410156 C -31.945593,-67.096215 -61.777443,-41.359221 -65.749692,-9.6376297 -70.183938,18.668079 -54.203554,48.764696 -27.846844,60.295114 -2.2714396,72.500622 30.695933,65.994463 49.281669,44.464092 68.766646,23.63787 72.073767,-10.039423 56.885886,-34.200985 45.283466,-54.018223 22.970659,-66.609007 0,-66.410156 Z m 0,0.529297 C 31.69143,-66.564033 61.288622,-41.033336 65.225641,-9.5624815 69.625026,18.518187 53.776069,48.380056 27.625551,59.816478 2.2528572,71.920379 -30.453479,65.47133 -48.891698,44.111335 -68.219925,23.449529 -71.497854,-9.9587914 -56.435001,-33.929216 -44.926483,-53.591499 -22.788258,-66.078735 0,-65.880859 Z"
         id="circle2553" />
      <path
         style="color:#000000;fill:#b4b7b4;-inkscape-stroke:none"
         d="M 0,-61.869141 C -30.247287,-62.517568 -58.402858,-37.714703 -61.451659,-7.5782186 -65.061802,19.40534 -48.798695,47.593572 -23.273519,57.373178 1.9849858,67.917739 33.659326,59.398879 49.599958,36.981802 66.1206,15.449056 66.008514,-17.006981 48.709021,-38.067355 37.200284,-52.926358 18.85821,-62.102948 0,-61.869141 Z m 0,0.265625 C 30.019905,-62.24007 57.99506,-37.711015 61.15969,-7.8135129 64.917619,19.357967 48.386155,47.808234 22.557462,57.382051 -2.7308766,67.60213 -34.187601,58.761289 -49.827304,36.252166 -66.036274,14.527053 -65.531059,-17.937394 -47.88633,-38.698709 -36.363158,-52.970984 -18.434477,-61.869464 0,-61.603516 Z"
         id="circle2555" />
      <path
         style="color:#000000;fill:#b4b7b4;-inkscape-stroke:none"
         d="m 0,-57.458984 c -28.663782,-0.693221 -55.136391,23.404459 -57.26995,51.9878908 -3.160076,28.2823672 17.711038,56.7456032 45.760326,61.7895312 25.077502,5.400636 52.79396,-8.02914 63.372295,-31.547672 C 63.17731,1.6840426 56.861278,-28.529913 36.401058,-44.441829 26.224116,-52.746766 13.178293,-57.616897 0,-57.458984 Z m 0,0.265625 c 29.005613,-0.72316 55.653567,24.087273 57.1194,53.0595712 C 59.314897,22.434956 40.705584,49.027302 14.661685,55.33924 -9.959249,62.073021 -38.241483,50.327599 -50.15293,27.593282 -62.696099,5.1885306 -58.078484,-25.361615 -38.486166,-42.31013 -28.060408,-51.750973 -14.110515,-57.350743 0,-57.193359 Z"
         id="circle2557" />
      <path
         style="color:#000000;fill:#b4b7b4;-inkscape-stroke:none"
         d="m -0.26367188,0 c 0,4.4095053 0,8.8190107 0,13.228516 C 0.3215119,9.5978497 0.80826483,3.0735392 -0.26367188,0 Z"
         id="path2559" />
      <path
         style="color:#000000;fill:#b4b7b4;-inkscape-stroke:none"
         d="M 0,-0.26367188 C 1.5447733,0.55424879 17.38876,0.57455986 10.36549,-0.33019118 6.9206484,-0.15987774 3.453673,-0.31541205 0,-0.26367188 Z"
         id="path2561" />
      <path
         style="color:#000000;fill:#b4b7b4;-inkscape-stroke:none"
         d="m -0.26367188,-13.228516 c 0,4.4095053 0,8.8190107 0,13.228516 0.58518377,-3.6306663 1.07193672,-10.154977 0,-13.228516 z"
         id="path2563" />
      <path
         style="color:#000000;fill:#b4b7b4;-inkscape-stroke:none"
         d="m -13.228516,-0.26367188 c 1.544773,0.81792068 17.3887604,0.83823173 10.3654902,-0.0665193 -3.4448418,0.17031344 -6.9118172,0.0147791 -10.3654902,0.0665193 z"
         id="path2565" />
      <path
         style="color:#000000;fill:#b4b7b4;-inkscape-stroke:none"
         d="m 13.228516,-0.26367188 c 8.490851,1.05406405 17.421018,0.29531181 26.113199,0.52734376 8.934923,0 17.869846,0 26.804769,0 -8.490851,-1.05406405 -17.421018,-0.29531181 -26.113199,-0.52734376 -8.934923,0 -17.869846,0 -26.804769,0 z"
         id="path2567" />
      <path
         style="color:#000000;fill:#b4b7b4;-inkscape-stroke:none"
         d="m 63.824219,-17.375 c -17.038412,4.565104 -34.076823,9.1302083 -51.115235,13.6953125 8.292981,-1.1262876 16.54235,-4.1242707 24.817723,-6.1007957 8.81141,-2.3609328 17.62282,-4.7218648 26.43423,-7.0827978 l -0.09697,-0.362942 z"
         id="path2569" />
      <path
         style="color:#000000;fill:#b4b7b4;-inkscape-stroke:none"
         d="m 57.152344,-33.302734 c -15.276042,8.819661 -30.552083,17.639323 -45.828125,26.458984 7.718428,-3.233977 14.910497,-8.265264 22.391951,-12.31625 7.899949,-4.56125 15.799897,-9.1225 23.699846,-13.68375 l -0.187132,-0.325748 z"
         id="path2571" />
      <path
         style="color:#000000;fill:#b4b7b4;-inkscape-stroke:none"
         d="M 46.585937,-46.958984 C 34.113281,-34.486328 21.640625,-22.013672 9.1679688,-9.5410156 15.91743,-14.799179 21.695404,-21.650635 28.005836,-27.632789 c 6.317716,-6.317716 12.635432,-12.635432 18.953148,-18.953148 l -0.265641,-0.265641 z"
         id="path2573" />
      <path
         style="color:#000000;fill:#b4b7b4;-inkscape-stroke:none"
         d="m 32.84375,-57.416016 c -8.819661,15.275391 -17.639323,30.550781 -26.4589844,45.826172 5.0672494,-6.659331 8.7801964,-14.612379 13.2338104,-21.860937 4.561386,-7.900521 9.122772,-15.801042 13.684158,-23.701563 l -0.325748,-0.187132 z"
         id="path2575" />
      <path
         style="color:#000000;fill:#b4b7b4;-inkscape-stroke:none"
         d="m 16.863281,-63.960937 c -4.565104,17.03776 -9.1302081,34.075521 -13.6953122,51.113281 3.1705361,-7.743675 4.6984916,-16.386452 7.1239972,-24.540442 2.361012,-8.81204 4.722023,-17.624081 7.083034,-26.436121 l -0.362942,-0.09697 z"
         id="path2577" />
      <path
         style="color:#000000;fill:#b4b7b4;-inkscape-stroke:none"
         d="m -0.26367188,-66.146484 c 0,17.639323 0,35.278645 0,52.917968 1.05406405,-8.490851 0.29531181,-17.421018 0.52734376,-26.113199 0,-8.934923 0,-17.869846 0,-26.804769 h -0.37567259 z"
         id="path2579" />
      <path
         style="color:#000000;fill:#b4b7b4;-inkscape-stroke:none"
         d="m -16.863281,-63.960937 c 1.12701,8.292212 4.124084,16.541101 6.10056,24.815832 2.3610109,8.81204 4.7220222,17.624081 7.0830335,26.436121 -1.1262876,-8.292981 -4.1242707,-16.54235 -6.1007957,-24.817723 -2.3609328,-8.81141 -4.7218648,-17.62282 -7.0827978,-26.43423 z"
         id="path2581" />
      <path
         style="color:#000000;fill:#b4b7b4;-inkscape-stroke:none"
         d="m -32.84375,-57.416016 c 3.235455,7.717474 8.264916,14.909374 12.315842,22.390234 4.561386,7.900521 9.122772,15.801042 13.684158,23.701563 -3.233977,-7.718428 -8.265264,-14.910497 -12.31625,-22.391951 -4.56125,-7.899949 -9.1225,-15.799897 -13.68375,-23.699846 z"
         id="path2583" />
      <path
         style="color:#000000;fill:#b4b7b4;-inkscape-stroke:none"
         d="m -46.585937,-46.958984 c 5.258162,6.749462 12.109619,12.527435 18.091774,18.837867 6.317715,6.317716 12.635431,12.635432 18.9531474,18.9531482 C -14.799179,-15.91743 -21.650635,-21.695404 -27.632789,-28.005836 c -6.317716,-6.317716 -12.635432,-12.635432 -18.953148,-18.953148 z"
         id="path2585" />
      <path
         style="color:#000000;fill:#b4b7b4;-inkscape-stroke:none"
         d="m -57.152344,-33.302734 c 6.661633,5.066503 14.613415,8.780526 21.862654,13.234219 7.899949,4.56125 15.799897,9.1225 23.699846,13.6837494 -6.659331,-5.0672494 -14.612379,-8.7801964 -21.860937,-13.2338104 -7.900521,-4.561386 -15.801042,-9.122772 -23.701563,-13.684158 z"
         id="path2587" />
      <path
         style="color:#000000;fill:#b4b7b4;-inkscape-stroke:none"
         d="m -63.824219,-17.375 c 7.745223,3.169975 16.387651,4.698696 24.542333,7.124233 8.81141,2.360933 17.62282,4.7218656 26.43423,7.0827982 -7.743675,-3.1705361 -16.386452,-4.6984916 -24.540442,-7.1239972 -8.81204,-2.361012 -17.624081,-4.722023 -26.436121,-7.083034 z"
         id="path2589" />
      <path
         style="color:#000000;fill:#b4b7b4;-inkscape-stroke:none"
         d="m -66.146484,-0.26367188 c 8.490851,1.05406405 17.421018,0.29531181 26.113199,0.52734376 8.934923,0 17.869846,0 26.804769,0 -8.490851,-1.05406405 -17.421018,-0.29531181 -26.113199,-0.52734376 -8.934923,0 -17.869846,0 -26.804769,0 z"
         id="path2591" />
      <path
         style="color:#000000;fill:#b4b7b4;-inkscape-stroke:none"
         d="m -12.847656,3.1679688 c -17.03776,4.5651041 -34.075521,9.1302082 -51.113281,13.6953122 8.292212,-1.12701 16.541101,-4.124084 24.815832,-6.10056 8.81204,-2.3610109 17.624081,-4.7220222 26.436121,-7.0830335 l -0.09826,-0.3625945 z"
         id="path2593" />
      <path
         style="color:#000000;fill:#b4b7b4;-inkscape-stroke:none"
         d="M -11.589844,6.3847656 C -26.865235,15.204427 -42.140625,24.024089 -57.416016,32.84375 c 7.717474,-3.235455 14.909374,-8.264916 22.390234,-12.315842 7.900521,-4.561386 15.801042,-9.122772 23.701563,-13.684158 L -11.51239,6.5186015 Z"
         id="path2595" />
      <path
         style="color:#000000;fill:#b4b7b4;-inkscape-stroke:none"
         d="M -9.5410156,9.1679688 C -22.013672,21.640625 -34.486328,34.113281 -46.958984,46.585937 -40.209522,41.327775 -34.431549,34.476318 -28.121117,28.494163 -21.803401,22.176448 -15.485685,15.858732 -9.1679688,9.5410156 L -9.4336094,9.275375 Z"
         id="path2597" />
      <path
         style="color:#000000;fill:#b4b7b4;-inkscape-stroke:none"
         d="m -6.84375,11.324219 c -8.819661,15.276042 -17.639323,30.552083 -26.458984,45.828125 5.066503,-6.661633 8.780526,-14.613415 13.234219,-21.862654 4.56125,-7.899949 9.1225,-15.799897 13.6837494,-23.699846 l -0.3251485,-0.188171 z"
         id="path2599" />
      <path
         style="color:#000000;fill:#b4b7b4;-inkscape-stroke:none"
         d="M -3.6796875,12.708984 C -8.2447917,29.747396 -12.809896,46.785807 -17.375,63.824219 c 3.169975,-7.745223 4.698696,-16.387651 7.124233,-24.542333 2.360933,-8.81141 4.7218656,-17.62282 7.0827982,-26.43423 l -0.3625945,-0.09826 z"
         id="path2601" />
      <path
         style="color:#000000;fill:#b4b7b4;-inkscape-stroke:none"
         d="m -0.26367188,13.228516 c 0,17.639323 0,35.278645 0,52.917968 1.05406405,-8.490851 0.29531181,-17.421018 0.52734376,-26.113199 0,-8.934923 0,-17.869846 0,-26.804769 h -0.37567259 z"
         id="path2603" />
      <path
         style="color:#000000;fill:#b4b7b4;-inkscape-stroke:none"
         d="m 3.6796875,12.708984 c 1.1262876,8.292981 4.1242707,16.54235 6.1007957,24.817723 2.3609328,8.81141 4.7218648,17.62282 7.0827978,26.43423 C 15.736271,55.668725 12.739197,47.419836 10.762721,39.145105 8.4017101,30.333065 6.0406988,21.521024 3.6796875,12.708984 Z"
         id="path2605" />
      <path
         style="color:#000000;fill:#b4b7b4;-inkscape-stroke:none"
         d="M 6.84375,11.324219 C 10.077727,19.042647 15.109014,26.234716 19.16,33.71617 23.72125,41.616119 28.2825,49.516067 32.84375,57.416016 29.608295,49.698542 24.578834,42.506642 20.527908,35.025782 15.966522,27.125261 11.405136,19.22474 6.84375,11.324219 Z"
         id="path2607" />
      <path
         style="color:#000000;fill:#b4b7b4;-inkscape-stroke:none"
         d="M 9.5410156,9.1679688 C 14.799179,15.91743 21.650635,21.695404 27.632789,28.005836 33.950505,34.323552 40.268221,40.641268 46.585937,46.958984 41.327775,40.209522 34.476318,34.431549 28.494163,28.121117 22.176448,21.803401 15.858732,15.485685 9.5410156,9.1679688 Z"
         id="path2609" />
      <path
         style="color:#000000;fill:#b4b7b4;-inkscape-stroke:none"
         d="m 11.589844,6.3847656 c 6.659331,5.0672494 14.612379,8.7801964 21.860937,13.2338104 7.900521,4.561386 15.801042,9.122772 23.701563,13.684158 C 50.490711,28.236231 42.538929,24.522208 35.28969,20.068515 27.389741,15.507265 19.489793,10.946015 11.589844,6.3847656 Z"
         id="path2611" />
      <path
         style="color:#000000;fill:#b4b7b4;-inkscape-stroke:none"
         d="m 12.847656,3.1679688 c 7.743675,3.1705361 16.386452,4.6984916 24.540442,7.1239972 8.81204,2.361012 17.624081,4.722023 26.436121,7.083034 C 56.078996,14.205025 47.436568,12.676304 39.281886,10.250767 30.470476,7.889834 21.659066,5.5289014 12.847656,3.1679688 Z"
         id="path2613" />
      <g
         id="circle2615"
         inkscape:label="CentreDot"
         style="fill:#b4b7b4">
        <path
           style="color:#000000;fill:#b4b7b4;stroke-width:0;-inkscape-stroke:none"
           d="m 0.66145831,0 c -2.04762901,2.9070128 -1.25036552,-2.8086613 0,0 z"
           id="path2983" />
        <path
           style="color:#000000;fill:#b4b7b4;-inkscape-stroke:none"
           d="m 0.66145831,0 c -1.70888411,2.8888335 -1.59837871,-2.8089533 0,0 z"
           id="path2985" />
      </g>
    </g>
    <path
       style="fill:#c5c8c6;fill-rule:evenodd;stroke-width:0.315958"
       d="m 60.723574,235.62454 c 3.477181,0.96769 9.054515,0.91351 12.942343,0.11307 3.887829,-0.80044 6.086311,-2.34702 16.089938,-2.76566 10.003627,-0.41863 27.811375,0.29062 38.671025,1.01717 10.85965,0.72655 14.77064,1.47028 18.40962,-0.43102 3.63897,-1.9013 7.00613,-6.44748 7.28978,-10.02331 0.28364,-3.57583 -2.51653,-6.18138 -11.64346,-9.51118 -9.12693,-3.32981 -24.57997,-7.38344 -38.05482,-8.77988 -13.474844,-1.39644 -24.970623,-0.13552 -28.893252,3.2067 -3.922628,3.34222 -0.271978,8.76513 10.128382,11.3058 10.400361,2.54067 27.54931,2.19939 44.6989,1.85809 -15.84205,0.98654 -31.683811,1.97306 -40.330965,1.43952 -8.647154,-0.53354 -10.099311,-2.58745 -11.4936,-3.74756 -1.394289,-1.16011 -2.73074,-1.42607 -3.890975,-0.069 -1.160235,1.35708 -2.143758,4.33696 -4.345103,6.54348 -2.201346,2.20653 -5.62058,3.63983 -8.458361,4.32697 -2.837781,0.68715 -5.094124,0.62804 -5.533853,1.59364 -0.439729,0.9656 0.937221,2.95549 4.414401,3.92317 z"
       id="path60999"
       inkscape:path-effect="#path-effect61001"
       inkscape:original-d="m 58.623108,236.64641 c 5.57765,-0.0539 11.154984,-0.10802 16.732,-0.16254 2.198888,-1.54634 4.397367,-3.09293 6.595579,-4.63985 17.808783,0.7096 35.616533,1.41886 53.424333,2.12781 3.91146,0.74409 7.82245,1.48783 11.73321,2.23126 3.3676,-4.54603 6.73475,-9.09221 10.10166,-13.63878 -2.79997,-2.60535 -5.60015,-5.21089 -8.40071,-7.81681 -15.45334,-4.05349 -30.90639,-8.10711 -46.36006,-12.16114 -11.495927,1.26127 -22.991706,2.52219 -34.488032,3.78282 3.65111,5.42342 7.301756,10.84633 10.95216,16.26903 17.150249,-0.34099 51.448782,-1.02389 51.448782,-1.02389 0,0 -31.68379,1.9734 -47.526156,2.95962 -1.451902,-2.05368 -2.904058,-4.10759 -4.356562,-6.16186 -1.336187,-0.26565 -2.672636,-0.53163 -4.009429,-0.79792 -0.983251,2.98032 -1.966776,5.9602 -2.950636,8.93984 -3.41905,1.43366 -6.83828,2.86697 -10.257892,4.29998 -2.256118,-0.0588 -4.512461,-0.11792 -6.769162,-0.17733 1.377313,1.99028 2.754261,3.98017 4.130915,5.96976 z"
       sodipodi:nodetypes="cccccccccccccccccc" />
    <path
       style="fill:#c5c8c6;fill-rule:evenodd;stroke-width:0.315958"
       d="m 73.966574,212.45712 c 0.665322,-5.72677 1.3306,-11.45316 3.356701,-14.98298 2.026101,-3.52982 5.41258,-4.86217 11.380456,-12.61338 5.967875,-7.7512 14.516829,-21.92078 18.973649,-30.45869 4.45682,-8.5379 4.8213,-11.4439 8.98425,-13.75169 4.16296,-2.30779 12.1238,-4.01691 18.08306,-2.7656 5.95925,1.25132 9.91652,5.46255 10.23162,12.47161 0.3151,7.00906 -3.01156,16.8156 -4.05862,23.01203 -1.04706,6.19644 0.18524,8.7823 2.3375,13.92464 2.15226,5.14233 5.22436,12.84078 6.4103,17.33027 1.18593,4.48949 0.4859,5.7701 1.35713,7.04246 0.87123,1.27237 3.31225,2.53581 4.93552,4.75655 1.62328,2.22074 2.42747,5.39765 2.33491,7.00811 -0.0925,1.61045 -1.08172,1.65477 -1.99901,0.38853 -0.9173,-1.26624 -1.76161,-3.84114 -3.59014,-5.73036 -1.82853,-1.88922 -4.63954,-3.09071 -6.26571,-4.66119 -1.62617,-1.57047 -2.06613,-3.50866 -4.45858,-6.66742 -2.39245,-3.15876 -6.73736,-7.53747 -9.12117,-11.46806 -2.38381,-3.9306 -2.80615,-7.41288 -3.2198,-9.8584 -0.41364,-2.44553 -0.81863,-3.8542 -1.51873,-8.51384 -0.7001,-4.65965 -1.6952,-12.5699 -1.90059,-12.01322 -0.2054,0.55667 0.37894,9.58006 -0.99518,15.7393 -1.37413,6.15925 -4.7065,9.45428 -7.4605,12.05255 -2.754,2.59826 -4.92929,4.49943 -6.2369,6.90083 -1.30761,2.40139 -1.74726,5.30219 -2.18697,8.20333 z"
       id="path61036"
       inkscape:path-effect="#path-effect61038"
       inkscape:original-d="m 73.966574,212.45712 c 0,0 1.330946,-11.45312 1.995966,-17.18031 3.386989,-1.3321 6.773464,-2.66446 10.159826,-3.9972 8.549613,-14.16983 17.098564,-28.33941 25.647374,-42.50959 0.36481,-2.90581 0.72929,-5.81181 1.09346,-8.71819 7.96147,-1.70887 15.92231,-3.41799 23.883,-5.12747 3.95775,4.21173 7.91503,8.42296 11.87207,12.63398 -3.32648,9.80724 -6.65315,19.61377 -9.98018,29.42019 1.23267,2.58627 2.46498,5.17213 3.69699,7.75771 3.07254,7.69908 6.14464,15.39753 9.21647,23.09581 -0.69974,1.28098 -1.39978,2.56159 -2.10016,3.84191 2.44246,1.2642 4.88348,2.52764 7.32571,3.79172 0.80432,3.1774 1.60851,6.35431 2.41262,9.5309 -0.98922,0.0443 -1.97839,0.0886 -2.96803,0.13298 -0.84495,-2.57682 -1.68926,-5.15172 -2.53409,-7.72815 -2.81223,-1.20201 -5.62324,-2.4035 -8.43544,-3.60549 -0.44014,-1.93896 -0.8801,-3.87715 -1.32024,-5.81611 -4.34475,-4.37857 -8.68966,-8.75728 -13.03497,-13.13638 -0.42205,-3.48211 -0.84439,-6.96439 -1.26706,-10.44706 -0.40469,-1.40841 -0.80967,-2.81708 -1.21498,-4.2261 -0.99483,-7.91024 -1.98993,-15.82049 -2.98537,-23.7312 0.58468,9.02407 1.16901,18.04746 1.75305,27.07072 -3.33227,3.29556 -6.66463,6.5906 -9.99753,9.88553 -2.17512,1.90162 -4.35042,3.80279 -6.52617,5.70377 -0.4394,2.90152 -1.31912,8.70341 -1.31912,8.70341 z"
       sodipodi:nodetypes="cccccccccccccccccccccccccc" />
    <path
       style="fill:#c5c8c6;fill-rule:evenodd;stroke-width:0.315958"
       d="m 117.81311,138.78802 c 9.29226,-3.229 18.58473,-6.45808 23.83449,-9.87004 5.24977,-3.41197 6.45732,-7.00714 9.82972,-8.35904 3.3724,-1.3519 8.90922,-0.46037 12.96198,2.36216 4.05276,2.82253 6.62153,7.57559 6.83544,12.09221 0.21392,4.51662 -1.92671,8.79683 -6.45222,11.63251 -4.52551,2.83569 -11.43611,4.22693 -18.34662,5.61816 -0.2476,-3.98676 -0.49518,-7.97321 -3.01485,-10.78101 -2.51967,-2.8078 -7.31032,-4.43598 -11.96377,-4.68867 -4.65345,-0.25269 -9.16887,0.87053 -13.68417,1.99372 z"
       id="path61385"
       inkscape:path-effect="#path-effect61387"
       inkscape:original-d="m 117.81311,138.78802 c 0,0 18.58484,-6.45776 27.87677,-9.68701 1.20781,-3.59489 2.41536,-7.19006 3.62266,-10.78555 5.53715,0.8918 11.07396,1.78336 16.61047,2.67458 2.56917,4.75353 5.13794,9.50658 7.70642,14.2594 -2.14039,4.28068 -4.28101,8.56089 -6.422,12.84086 -6.91042,1.39121 -20.73153,4.17368 -20.73153,4.17368 0,0 -0.49518,-7.97321 -0.74279,-11.96027 -4.79173,-1.62854 -9.58238,-3.25672 -14.37411,-4.88526 -4.51509,1.12347 -13.54589,3.36957 -13.54589,3.36957 z"
       sodipodi:nodetypes="cccccccccc" />
    <path
       style="fill:#373b41;fill-rule:evenodd;stroke-width:0.264999"
       inkscape:path-effect="#path-effect62348"
       inkscape:original-d="m 159.59053,150.31697 -6.33209,1.53076 c 0,0 -4.74178,11.59992 -6.85048,16.75716 -1.38587,1.37745 -4.50365,4.4746 -4.50365,4.4746 0,0 -0.77243,3.69297 -1.15904,5.53905 0.49871,1.07328 1.49532,3.21903 1.49532,3.21903 0,0 7.42287,-8.2115 11.13404,-12.31778 2.07228,-6.40082 6.2159,-19.20282 6.2159,-19.20282 z"
       d="m 159.59053,150.31697 c 0,0 -6.33209,1.53076 -6.33209,1.53076 -2.28349,5.58572 -4.7421,11.59979 -6.48935,14.86707 -1.74726,3.26728 -3.36356,4.87316 -4.86478,6.36469 -0.38635,1.84635 -0.77274,3.69291 -0.71659,5.15265 0.0561,1.45974 0.55443,2.53242 1.05287,3.60543 3.71135,-4.10593 7.4226,-8.21175 10.3143,-13.46522 2.8917,-5.25348 4.96367,-11.65444 7.03564,-18.05538 z"
       id="path64799"
       sodipodi:nodetypes="ccccsccc" />
    <path
       style="fill:#373b41;fill-rule:evenodd;stroke-width:0.264999"
       inkscape:path-effect="#path-effect62348"
       inkscape:original-d="m 85.94589,186.09889 c 0,0 -14.412324,-9.53549 -21.619253,-14.30388 C 58.787615,160.70943 53.248754,149.62443 47.709346,138.5386 55.733722,121.31564 63.757759,104.09255 71.781477,86.869312 88.67663,85.055216 105.57157,83.24085 122.46653,81.426188 c 9.56755,7.225556 19.13514,14.451061 28.70275,21.676552 2.47337,5.48605 7.41972,16.4582 7.41972,16.4582 0,0 -2.94687,-0.53497 -4.4207,-0.80286 -1.2612,0.40895 -3.78438,1.22605 -3.78438,1.22605 0,0 -7.07391,-10.77686 -10.61152,-16.16611 -6.20351,-4.354189 -12.40698,-8.708406 -18.6104,-13.062672 -14.95654,0.85804 -29.913049,1.715798 -44.869737,2.573287 -6.70278,15.722025 -13.405888,31.443885 -20.109343,47.165675 4.545285,9.2219 9.090423,18.44378 13.634905,27.6646 6.554473,4.48661 19.663588,13.4597 19.663588,13.4597 z"
       d="m 85.94589,186.09889 c -7.206418,-4.76796 -14.412282,-9.53555 -20.78533,-17.46248 -6.373049,-7.92693 -11.911911,-19.01193 -10.669537,-33.16642 1.242374,-14.1545 9.266414,-31.37759 21.725995,-40.896327 12.459581,-9.518737 29.354522,-11.333103 42.585802,-8.627531 13.23129,2.705571 22.79887,9.931087 28.81929,16.286898 6.02043,6.35581 8.49365,11.84184 10.96689,17.32791 -1.47357,-0.26762 -2.94683,-0.53519 -4.31442,-0.46471 -1.36758,0.0705 -2.6292,0.47922 -3.89066,0.8879 -3.53717,-5.3887 -7.07396,-10.77682 -11.94448,-15.64858 -4.87052,-4.871763 -11.07398,-9.225986 -21.65399,-10.974214 -10.58001,-1.748227 -25.536515,-0.890469 -36.366406,7.399354 -10.829892,8.28983 -17.532994,24.01169 -18.611971,36.48363 -1.078977,12.47194 3.466162,21.69382 9.015712,28.54748 5.549551,6.85366 12.104099,11.34024 18.658628,15.82681 z"
       id="path62346"
       sodipodi:nodetypes="cccccccscccccccc" />
    <path
       style="fill:#1d1f21;fill-rule:evenodd;stroke-width:0.264999"
       d="m 126.73896,180.06983 c -0.23878,1.60602 -0.47759,3.21226 -0.9408,4.57051 -0.4632,1.35826 -1.15075,2.46877 -1.83835,3.57938 0.88329,0.0532 1.76686,0.10645 2.51421,0.0463 0.74735,-0.0602 1.35867,-0.23367 1.97017,-0.4072 -0.56802,-1.49933 -1.13591,-2.99834 -1.42015,-4.29652 -0.28423,-1.29819 -0.28457,-2.39544 -0.2849,-3.49243 0,0 -1.8e-4,0 -1.8e-4,0 z"
       id="path63816"
       inkscape:path-effect="#path-effect63818"
       inkscape:original-d="m 126.73896,180.06983 c 0,0 -0.4773,3.2123 -0.71634,4.81806 -0.68735,1.1109 -2.06281,3.33183 -2.06281,3.33183 0,0 1.76684,0.1067 2.64987,0.15965 0.61178,-0.17327 1.83451,-0.52059 1.83451,-0.52059 0,0 -1.13577,-2.99839 -1.70405,-4.49799 -1.3e-4,-1.09672 -10e-4,-3.29096 -10e-4,-3.29096 z"
       sodipodi:nodetypes="ccccccc" />
    <path
       style="fill:#373b41;stroke:none;stroke-width:0.264583px;stroke-linecap:butt;stroke-linejoin:miter;stroke-opacity:1"
       d="m 132.67086,130.75266 c 0.85357,0.15826 1.70715,0.31652 3.198,3.89535 1.49086,3.57882 3.84577,11.32408 3.46515,17.31065 -0.38062,5.98657 -3.67836,13.07056 -5.09505,22.8132 -1.4167,9.74264 -1.26993,22.82561 -0.35261,31.70455 0.91732,8.87894 2.60511,13.55341 2.77524,17.85492 0.17012,4.30151 -1.17742,8.22979 2.41559,12.41968 3.59301,4.18989 12.12625,8.64113 14.94938,11.64893 2.82314,3.0078 -0.0639,4.572 -7.23112,4.6137 -7.16723,0.0417 -18.61414,-1.43909 -31.72397,-0.18205 -13.10983,1.25703 -27.88176,5.25175 -40.799209,5.86062 -12.91745,0.60886 -23.979687,-2.16809 -28.596218,-6.61374 -4.616531,-4.44565 -2.787132,-10.55994 0.425248,-14.25331 3.212381,-3.69337 7.807739,-4.96582 7.535322,-6.28368 -0.272416,-1.31786 -5.412609,-2.68113 -3.276059,-6.24467 2.13655,-3.56355 11.549844,-9.32737 16.612206,-14.9071 5.062362,-5.57974 5.773803,-10.97541 8.665766,-16.37731 2.891964,-5.40189 7.964245,-10.8098 14.381571,-20.42152 6.417326,-9.61172 14.179273,-23.42658 21.511963,-31.26691 7.33268,-7.84034 14.23567,-9.70581 21.1388,-11.57131 z"
       id="path1"
       inkscape:path-effect="#path-effect1"
       inkscape:original-d="m 132.67086,130.75266 c 0,0 1.70715,0.31652 2.56072,0.47478 2.12814,6.99939 4.48305,14.74465 6.38441,20.99818 -2.6626,5.71961 -5.96033,12.8036 -8.9405,19.20539 0.14677,13.08349 0.29354,26.16646 0.44031,39.24968 1.68786,4.67466 3.37566,9.34913 5.0635,14.0237 -1.34759,3.92845 -2.69513,7.85673 -4.04269,11.7851 8.53358,4.45141 17.06682,8.90265 25.60023,13.35398 -2.88714,1.56427 -5.77417,3.12847 -8.66125,4.69271 -11.44738,-1.48084 -22.89429,-2.96162 -34.34144,-4.44244 -14.77251,3.99488 -29.54444,7.9896 -44.316656,11.9844 -11.062682,-2.77707 -22.12492,-5.55402 -33.18738,-8.33103 1.829398,-6.11429 3.658797,-12.22858 5.488197,-18.34287 4.595361,-1.27245 9.190719,-2.5449 13.786079,-3.81735 -5.140193,-1.36327 -10.280386,-2.72654 -15.420581,-4.08981 9.413294,-5.76382 18.826587,-11.52764 28.239874,-17.29145 0.711439,-5.39566 1.422878,-10.79133 2.134319,-16.18699 5.072489,-5.40813 10.144773,-10.81604 15.217159,-16.22407 7.762261,-13.81541 15.524209,-27.63027 23.286319,-41.4454 6.90326,-1.86554 20.70938,-5.59651 20.70938,-5.59651 z"
       sodipodi:nodetypes="cccccccccccssccccccc" />
  </g>
  <path
     style="fill:#373b41;fill-rule:evenodd;stroke-width:0.264999"
     d="m 154.81875,35.423461 c 0.83865,-0.345839 2.0354,-0.02517 2.27422,0.757606 0.23883,0.782777 -0.47988,2.027619 -1.31817,2.373488 -0.83829,0.345869 -1.79648,-0.207341 -2.03567,-0.99015 -0.23919,-0.782809 0.24098,-1.795106 1.07962,-2.140944 z"
     id="path83020"
     inkscape:path-effect="#path-effect83022"
     inkscape:original-d="m 154.46034,34.756872 c 1.19701,0.320932 2.39376,0.641596 3.59024,0.961999 -0.71847,1.245155 -1.43718,2.489996 -2.15617,3.734599 -0.95795,-0.552964 -1.91614,-1.10617 -2.8746,-1.659652 0.48045,-1.012071 0.96062,-2.024367 1.44053,-3.036946 z" />
  <path
     style="fill:#373b41;fill-rule:evenodd;stroke-width:0.155919"
     d="m 63.26328,53.103067 c 0.493439,-0.203483 1.197578,-0.01481 1.338096,0.445758 0.140519,0.460568 -0.282353,1.193003 -0.775583,1.396505 -0.49323,0.203501 -1.057005,-0.121994 -1.197738,-0.582581 -0.140733,-0.460587 0.141787,-1.056198 0.635225,-1.259682 z"
     id="path83020-2"
     inkscape:path-effect="#path-effect83163"
     inkscape:original-d="m 63.052398,52.710862 c 0.704292,0.188829 1.408432,0.3775 2.112413,0.566018 -0.422731,0.73262 -0.845603,1.465055 -1.26864,2.197351 -0.563636,-0.325352 -1.127412,-0.650845 -1.691348,-0.976501 0.282686,-0.595479 0.565207,-1.19109 0.847575,-1.786868 z" />
  <path
     style="fill:#373b41;fill-rule:evenodd;stroke-width:0.264999"
     d="m 45.281538,26.248223 c 0.838645,-0.345839 2.035394,-0.02517 2.274217,0.757606 0.238824,0.782777 -0.479885,2.027619 -1.318174,2.373488 -0.83829,0.345869 -1.796477,-0.207341 -2.035666,-0.99015 -0.239189,-0.782809 0.240979,-1.795106 1.079623,-2.140944 z"
     id="path83020-4"
     inkscape:path-effect="#path-effect83182"
     inkscape:original-d="m 44.923124,25.581634 c 1.19701,0.320932 2.39376,0.641596 3.59024,0.961999 -0.71847,1.245155 -1.43718,2.489996 -2.15617,3.734599 -0.95795,-0.552964 -1.91614,-1.10617 -2.8746,-1.659652 0.48045,-1.012071 0.96062,-2.024367 1.44053,-3.036946 z" />
  <path
     style="fill:#373b41;fill-rule:evenodd;stroke-width:0.492912"
     d="m 194.05902,95.365258 c 1.55992,-0.643279 3.78594,-0.04682 4.23017,1.409186 0.44422,1.456008 -0.89261,3.771476 -2.45188,4.414816 -1.55926,0.64334 -3.34154,-0.38566 -3.78644,-1.841729 -0.44491,-1.456069 0.44823,-3.338994 2.00815,-3.982273 z"
     id="path83020-7"
     inkscape:path-effect="#path-effect83201"
     inkscape:original-d="m 193.39235,94.125368 c 2.2265,0.59695 4.45252,1.193402 6.67804,1.789368 -1.33639,2.316054 -2.67323,4.631524 -4.01059,6.946564 -1.78184,-1.02855 -3.56412,-2.05754 -5.34691,-3.087053 0.89366,-1.882505 1.7868,-3.765429 2.67946,-5.648879 z" />
  <path
     style="fill:#373b41;fill-rule:evenodd;stroke-width:0.128785"
     d="m 186.1987,82.100016 c 0.40756,-0.168074 0.98917,-0.01223 1.10524,0.368186 0.11606,0.380418 -0.23322,0.985391 -0.64062,1.153478 -0.4074,0.168087 -0.87306,-0.100763 -0.9893,-0.481196 -0.11624,-0.380433 0.11711,-0.872395 0.52468,-1.040468 z"
     id="path83020-75"
     inkscape:path-effect="#path-effect83220"
     inkscape:original-d="m 186.02452,81.776065 c 0.58172,0.155968 1.16333,0.311806 1.7448,0.467516 -0.34917,0.605126 -0.69845,1.2101 -1.04787,1.814958 -0.46555,-0.268732 -0.93121,-0.537582 -1.39701,-0.806565 0.23349,-0.491851 0.46685,-0.983811 0.70008,-1.475909 z" />
  <path
     style="fill:#373b41;fill-rule:evenodd;stroke-width:0.128785"
     d="m 188.25366,236.21334 c 0.40756,-0.16808 0.98917,-0.0122 1.10524,0.36818 0.11606,0.38042 -0.23322,0.98539 -0.64062,1.15348 -0.4074,0.16809 -0.87306,-0.10076 -0.9893,-0.48119 -0.11624,-0.38044 0.11712,-0.8724 0.52468,-1.04047 z"
     id="path83020-75-1"
     inkscape:path-effect="#path-effect83268"
     inkscape:original-d="m 188.07948,235.88939 c 0.58172,0.15596 1.16333,0.3118 1.7448,0.46751 -0.34917,0.60513 -0.69845,1.2101 -1.04787,1.81496 -0.46555,-0.26873 -0.93121,-0.53758 -1.39701,-0.80656 0.23349,-0.49186 0.46685,-0.98382 0.70008,-1.47591 z" />
  <path
     style="fill:#373b41;fill-rule:evenodd;stroke-width:0.222264"
     d="m 163.95249,190.55852 c 0.70339,-0.29007 1.70716,-0.0211 1.90747,0.63543 0.20031,0.65655 -0.4025,1.70064 -1.10561,1.99074 -0.70311,0.29009 -1.50677,-0.1739 -1.70738,-0.83048 -0.20062,-0.65657 0.20212,-1.50563 0.90552,-1.79569 z"
     id="path83020-75-2"
     inkscape:path-effect="#path-effect83287"
     inkscape:original-d="m 163.65188,189.99943 c 1.00396,0.26918 2.00773,0.53812 3.01127,0.80686 -0.60262,1.04436 -1.20543,2.08845 -1.80847,3.13235 -0.80348,-0.46379 -1.60714,-0.92778 -2.41104,-1.392 0.40297,-0.84888 0.80572,-1.69793 1.20824,-2.54721 z" />
  <path
     style="fill:#373b41;fill-rule:evenodd;stroke-width:0.128785"
     d="m 192.91473,181.21271 c 0.40756,-0.16807 0.98917,-0.0122 1.10524,0.36819 0.11606,0.38041 -0.23323,0.98539 -0.64062,1.15347 -0.4074,0.16809 -0.87306,-0.10076 -0.9893,-0.48119 -0.11624,-0.38043 0.11711,-0.87239 0.52468,-1.04047 z"
     id="path83020-75-8"
     inkscape:path-effect="#path-effect83306"
     inkscape:original-d="m 192.74055,180.88876 c 0.58172,0.15597 1.16333,0.31181 1.7448,0.46752 -0.34917,0.60512 -0.69845,1.2101 -1.04787,1.81495 -0.46555,-0.26873 -0.93121,-0.53758 -1.39701,-0.80656 0.23349,-0.49185 0.46685,-0.98381 0.70008,-1.47591 z" />
  <path
     style="fill:#373b41;fill-rule:evenodd;stroke-width:0.128785"
     d="m 185.92312,190.06875 c 0.40757,-0.16807 0.98917,-0.0122 1.10524,0.36818 0.11606,0.38042 -0.23322,0.98539 -0.64062,1.15348 -0.4074,0.16809 -0.87306,-0.10076 -0.9893,-0.48119 -0.11624,-0.38044 0.11712,-0.8724 0.52468,-1.04047 z"
     id="path83020-75-9"
     inkscape:path-effect="#path-effect83325"
     inkscape:original-d="m 185.74894,189.7448 c 0.58172,0.15597 1.16333,0.3118 1.7448,0.46751 -0.34917,0.60513 -0.69845,1.2101 -1.04787,1.81496 -0.46555,-0.26873 -0.93121,-0.53758 -1.39701,-0.80656 0.23349,-0.49186 0.46685,-0.98382 0.70008,-1.47591 z" />
  <path
     style="fill:#373b41;fill-rule:evenodd;stroke-width:0.128785"
     d="m 155.62616,259.33496 c 0.40756,-0.16807 0.98917,-0.0122 1.10524,0.36819 0.11606,0.38042 -0.23322,0.98539 -0.64062,1.15348 -0.40739,0.16809 -0.87305,-0.10076 -0.98929,-0.48119 -0.11625,-0.38043 0.11711,-0.8724 0.52467,-1.04048 z"
     id="path83020-75-3"
     inkscape:path-effect="#path-effect83344"
     inkscape:original-d="m 155.45198,259.01102 c 0.58172,0.15596 1.16333,0.3118 1.7448,0.46751 -0.34916,0.60513 -0.69845,1.2101 -1.04786,1.81496 -0.46556,-0.26873 -0.93121,-0.53758 -1.39701,-0.80656 0.23348,-0.49185 0.46685,-0.98382 0.70007,-1.47591 z" />
  <path
     style="fill:#373b41;fill-rule:evenodd;stroke-width:0.212473"
     d="m 135.08374,275.22631 c 0.6724,-0.27729 1.63195,-0.0202 1.82344,0.60744 0.19149,0.62762 -0.38477,1.62573 -1.0569,1.90304 -0.67214,0.27731 -1.44038,-0.16623 -1.63216,-0.79389 -0.19178,-0.62765 0.19321,-1.4393 0.86562,-1.71659 z"
     id="path83020-75-6"
     inkscape:path-effect="#path-effect83363"
     inkscape:original-d="m 134.79636,274.69186 c 0.95974,0.25732 1.91929,0.51441 2.87862,0.7713 -0.57606,0.99836 -1.15232,1.99646 -1.72879,2.99437 -0.76809,-0.44336 -1.53633,-0.88691 -2.30482,-1.33068 0.3852,-0.81149 0.77022,-1.62313 1.15499,-2.43499 z" />
  <path
     style="fill:#373b41;fill-rule:evenodd;stroke-width:0.212473"
     d="m 39.379242,238.05472 c 0.672407,-0.27729 1.631953,-0.0202 1.823442,0.60744 0.191488,0.62762 -0.384764,1.62573 -1.0569,1.90304 -0.672136,0.27731 -1.44038,-0.16623 -1.63216,-0.79389 -0.19178,-0.62765 0.193212,-1.4393 0.865618,-1.71659 z"
     id="path83020-75-6-1"
     inkscape:path-effect="#path-effect83468"
     inkscape:original-d="m 39.091867,237.52027 c 0.95974,0.25732 1.91929,0.51441 2.87862,0.7713 -0.57606,0.99836 -1.15232,1.99646 -1.72879,2.99437 -0.76809,-0.44336 -1.53633,-0.88691 -2.30482,-1.33068 0.3852,-0.81149 0.77022,-1.62313 1.15499,-2.43499 z" />
  <path
     style="fill:#373b41;fill-rule:evenodd;stroke-width:0.132957"
     d="m 47.426787,209.38781 c 0.420764,-0.17352 1.021209,-0.0126 1.141035,0.38011 0.119825,0.39274 -0.24077,1.01731 -0.661366,1.19084 -0.420596,0.17353 -0.901329,-0.10402 -1.021336,-0.49678 -0.120007,-0.39276 0.120904,-0.90066 0.541667,-1.07417 z"
     id="path83020-75-6-10"
     inkscape:path-effect="#path-effect83487"
     inkscape:original-d="m 47.24696,209.05337 c 0.600565,0.16102 1.201012,0.3219 1.80132,0.48265 -0.360474,0.62473 -0.721073,1.2493 -1.081804,1.87375 -0.480639,-0.27744 -0.961371,-0.55499 -1.44226,-0.83268 0.241042,-0.5078 0.481971,-1.01569 0.722744,-1.52372 z" />
  <path
     style="fill:#373b41;fill-rule:evenodd;stroke-width:0.103858"
     d="m 43.106532,196.49931 c 0.328678,-0.13555 0.797712,-0.01 0.891312,0.29692 0.0936,0.30679 -0.188078,0.79467 -0.516622,0.93022 -0.328545,0.13555 -0.704069,-0.0813 -0.79781,-0.38806 -0.09374,-0.3068 0.09444,-0.70354 0.42312,-0.83908 z"
     id="path83020-75-6-8"
     inkscape:path-effect="#path-effect83506"
     inkscape:original-d="m 42.966062,196.23806 c 0.469128,0.12578 0.938163,0.25145 1.40709,0.37702 -0.281582,0.48801 -0.563262,0.97589 -0.845045,1.46367 -0.375448,-0.21672 -0.750969,-0.43353 -1.126613,-0.65044 0.188289,-0.39667 0.376489,-0.7934 0.564568,-1.19025 z" />
  <path
     style="fill:#373b41;fill-rule:evenodd;stroke-width:0.212473"
     d="m 27.493515,214.74936 c 0.672407,-0.27729 1.631953,-0.0202 1.823442,0.60744 0.191488,0.62762 -0.384764,1.62573 -1.0569,1.90304 -0.672136,0.27731 -1.44038,-0.16623 -1.63216,-0.79389 -0.19178,-0.62765 0.193212,-1.4393 0.865618,-1.71659 z"
     id="path83020-75-6-5"
     inkscape:path-effect="#path-effect83525"
     inkscape:original-d="m 27.20614,214.21491 c 0.95974,0.25732 1.91929,0.51441 2.87862,0.7713 -0.57606,0.99836 -1.15232,1.99646 -1.72879,2.99437 -0.76809,-0.44336 -1.53633,-0.88691 -2.30482,-1.33068 0.3852,-0.81149 0.77022,-1.62313 1.15499,-2.43499 z" />
  <path
     style="fill:#373b41;fill-rule:evenodd;stroke-width:0.212473"
     d="m 15.141675,202.63058 c 0.672407,-0.27729 1.631953,-0.0202 1.823442,0.60744 0.191488,0.62762 -0.384764,1.62573 -1.0569,1.90304 -0.672136,0.27731 -1.44038,-0.16623 -1.63216,-0.79389 -0.19178,-0.62765 0.193212,-1.4393 0.865618,-1.71659 z"
     id="path83020-75-6-0"
     inkscape:path-effect="#path-effect83544"
     inkscape:original-d="m 14.8543,202.09613 c 0.95974,0.25732 1.91929,0.51441 2.87862,0.7713 -0.57606,0.99836 -1.15232,1.99646 -1.72879,2.99437 -0.76809,-0.44336 -1.53633,-0.88691 -2.30482,-1.33068 0.3852,-0.81149 0.77022,-1.62313 1.15499,-2.43499 z" />
  <path
     style="fill:#373b41;fill-rule:evenodd;stroke-width:0.369163"
     d="m 24.8455,208.55525 c 1.168281,-0.48178 2.835454,-0.0351 3.168157,1.0554 0.332702,1.09046 -0.668513,2.82463 -1.836322,3.30645 -1.16781,0.48182 -2.502603,-0.28882 -2.835813,-1.37934 -0.33321,-1.09052 0.335697,-2.50074 1.503978,-2.98251 z"
     id="path83020-75-6-6"
     inkscape:path-effect="#path-effect83563"
     inkscape:original-d="m 24.346197,207.62666 c 1.66751,0.44709 3.334689,0.89377 5.001486,1.3401 -1.000881,1.73461 -2.002109,3.46877 -3.003703,5.2026 -1.334525,-0.77032 -2.669311,-1.54097 -4.004531,-2.312 0.669269,-1.40993 1.338226,-2.82012 2.006748,-4.2307 z" />
  <path
     style="fill:#373b41;fill-rule:evenodd;stroke-width:0.0931986"
     d="m 24.809175,137.20084 c 0.294942,-0.12163 0.715835,-0.009 0.799828,0.26645 0.08399,0.27529 -0.168771,0.7131 -0.463595,0.83474 -0.294823,0.12164 -0.631805,-0.0729 -0.715927,-0.34823 -0.08412,-0.27531 0.08475,-0.63133 0.379694,-0.75296 z"
     id="path83020-75-6-4"
     inkscape:path-effect="#path-effect83582"
     inkscape:original-d="m 24.683121,136.96641 c 0.420978,0.11287 0.841872,0.22564 1.26267,0.33832 -0.252681,0.43792 -0.505451,0.87572 -0.758312,1.31344 -0.336913,-0.19447 -0.673891,-0.38903 -1.01098,-0.58368 0.168963,-0.35595 0.337847,-0.71197 0.506622,-1.06808 z" />
  <path
     style="fill:#373b41;fill-rule:evenodd;stroke-width:0.212473"
     d="m 17.472215,107.54474 c 0.672407,-0.27729 1.631953,-0.0202 1.823442,0.60744 0.191488,0.62762 -0.384764,1.62573 -1.0569,1.90304 -0.672136,0.27731 -1.44038,-0.16623 -1.63216,-0.79389 -0.19178,-0.62765 0.193212,-1.4393 0.865618,-1.71659 z"
     id="path83020-75-6-62"
     inkscape:path-effect="#path-effect83601"
     inkscape:original-d="m 17.18484,107.01029 c 0.95974,0.25732 1.91929,0.51441 2.87862,0.7713 -0.57606,0.99836 -1.15232,1.99646 -1.72879,2.99437 -0.76809,-0.44336 -1.53633,-0.88691 -2.30482,-1.33068 0.3852,-0.81149 0.77022,-1.62313 1.15499,-2.43499 z" />
  <path
     style="fill:#373b41;fill-rule:evenodd;stroke-width:0.142132"
     d="m 13.673531,120.75561 c 0.449801,-0.18549 1.091679,-0.0135 1.219774,0.40634 0.128095,0.41984 -0.257385,1.08751 -0.707004,1.27302 -0.449619,0.1855 -0.96353,-0.1112 -1.091819,-0.53106 -0.128288,-0.41986 0.129248,-0.96281 0.579049,-1.1483 z"
     id="path83020-75-6-58"
     inkscape:path-effect="#path-effect83620"
     inkscape:original-d="m 13.481294,120.39809 c 0.642009,0.17214 1.283891,0.34411 1.925626,0.51596 -0.38535,0.66784 -0.770834,1.33551 -1.156458,2.00305 -0.513807,-0.29658 -1.027714,-0.59329 -1.541788,-0.89014 0.257676,-0.54284 0.515231,-1.08578 0.77262,-1.62887 z" />
  <path
     style="fill:#373b41;fill-rule:evenodd;stroke-width:0.212473"
     d="m 27.260455,78.413008 c 0.672407,-0.277285 1.631953,-0.02018 1.823442,0.60744 0.191488,0.627623 -0.384764,1.625727 -1.0569,1.903038 -0.672136,0.277311 -1.44038,-0.166232 -1.63216,-0.793885 -0.19178,-0.627654 0.193212,-1.439307 0.865618,-1.716593 z"
     id="path83020-75-6-628"
     inkscape:path-effect="#path-effect83639"
     inkscape:original-d="m 26.97308,77.878558 c 0.95974,0.25732 1.91929,0.51441 2.87862,0.7713 -0.57606,0.99836 -1.15232,1.99646 -1.72879,2.99437 -0.76809,-0.44336 -1.53633,-0.88691 -2.30482,-1.33068 0.3852,-0.81149 0.77022,-1.62313 1.15499,-2.43499 z" />
  <path
     style="fill:#373b41;fill-rule:evenodd;stroke-width:0.274791"
     d="m 121.02089,255.91541 c 0.86963,-0.35861 2.11062,-0.0261 2.35826,0.78561 0.24765,0.8117 -0.49762,2.10254 -1.36689,2.46119 -0.86927,0.35866 -1.86286,-0.21498 -2.11088,-1.02673 -0.24803,-0.81174 0.24989,-1.86146 1.11951,-2.22007 z"
     id="path83020-75-80"
     inkscape:path-effect="#path-effect83382"
     inkscape:original-d="m 120.64924,255.2242 c 1.24123,0.33278 2.48222,0.6653 3.72291,0.99754 -0.74503,1.29117 -1.49029,2.58201 -2.23586,3.87261 -0.99335,-0.5734 -1.98693,-1.14705 -2.98082,-1.72097 0.4982,-1.04949 0.99613,-2.0992 1.49377,-3.14918 z" />
  <path
     style="fill:#373b41;fill-rule:evenodd;stroke-width:0.250754"
     d="m 137.77819,267.86674 c 0.79356,-0.32724 1.926,-0.0238 2.15198,0.71689 0.22598,0.74071 -0.4541,1.91863 -1.24733,2.24591 -0.79324,0.32728 -1.69991,-0.19618 -1.92624,-0.93691 -0.22633,-0.74073 0.22804,-1.69864 1.02159,-2.02589 z"
     id="path83020-75-21"
     inkscape:path-effect="#path-effect83401"
     inkscape:original-d="m 137.43905,267.236 c 1.13265,0.30368 2.26509,0.6071 3.39726,0.91027 -0.67986,1.17824 -1.35994,2.35616 -2.04029,3.53387 -0.90646,-0.52324 -1.81313,-1.04671 -2.72008,-1.57043 0.45462,-0.95767 0.90899,-1.91558 1.36311,-2.87371 z" />
  <path
     style="fill:#373b41;fill-rule:evenodd;stroke-width:0.128785"
     d="m 142.34211,276.58094 c 0.40756,-0.16808 0.98917,-0.0122 1.10524,0.36818 0.11606,0.38042 -0.23322,0.98539 -0.64062,1.15348 -0.4074,0.16809 -0.87306,-0.10076 -0.9893,-0.48119 -0.11624,-0.38044 0.11711,-0.87239 0.52468,-1.04047 z"
     id="path83020-75-0"
     inkscape:path-effect="#path-effect83420"
     inkscape:original-d="m 142.16793,276.25699 c 0.58172,0.15596 1.16333,0.3118 1.7448,0.46751 -0.34917,0.60513 -0.69845,1.2101 -1.04787,1.81496 -0.46555,-0.26873 -0.93121,-0.53758 -1.39701,-0.80656 0.23349,-0.49186 0.46685,-0.98381 0.70008,-1.47591 z" />
  <path
     style="fill:#373b41;fill-rule:evenodd;stroke-width:0.241941"
     d="m 41.451065,265.19906 c 0.765668,-0.31575 1.858304,-0.023 2.076343,0.69169 0.21804,0.71467 -0.438132,1.8512 -1.203488,2.16698 -0.765356,0.31578 -1.640166,-0.18929 -1.858542,-0.904 -0.218375,-0.7147 0.220019,-1.63893 0.985687,-1.95467 z"
     id="path83020-75-5"
     inkscape:path-effect="#path-effect83439"
     inkscape:original-d="m 41.12384,264.59048 c 1.092846,0.29301 2.185485,0.58576 3.277862,0.87828 -0.655967,1.13683 -1.312141,2.27335 -1.968577,3.40967 -0.874604,-0.50485 -1.749414,-1.00992 -2.624488,-1.51524 0.438646,-0.92403 0.877046,-1.84825 1.315203,-2.77271 z" />
  <path
     style="fill:#373b41;fill-rule:evenodd;stroke-width:0.156385"
     d="m 187.0167,92.01732 c 0.49492,-0.20409 1.20115,-0.01486 1.34209,0.447089 0.14094,0.461945 -0.28319,1.196565 -0.7779,1.400674 -0.4947,0.204109 -1.06016,-0.122359 -1.20131,-0.58432 -0.14116,-0.461961 0.14221,-1.059353 0.63712,-1.263443 z"
     id="path83020-48"
     inkscape:path-effect="#path-effect83239"
     inkscape:original-d="m 186.80519,91.623944 c 0.7064,0.189392 1.41263,0.378627 2.11872,0.567707 -0.424,0.734808 -0.84813,1.46943 -1.27243,2.203912 -0.56532,-0.326323 -1.13078,-0.652788 -1.6964,-0.979416 0.28353,-0.597257 0.5669,-1.194647 0.85011,-1.792203 z" />
  <path
     id="path83929"
     style="fill:#373b41;fill-rule:evenodd;stroke-width:0.193732"
     inkscape:path-effect="#path-effect83931"
     inkscape:original-d="m 197.31997,13.328904 c 0,0 -13.3246,0 -13.3246,0 0,0 13.60855,13.608539 13.60855,13.608539 0,0 -0.28395,-13.608539 -0.28395,-13.608539 z m 1.16079,-1.524423 h -20.17829 l 20.46673,22.28251 z"
     d="m 197.31997,13.328904 c 0,0 -13.3246,0 -13.3246,0 0,0 13.60855,13.608539 13.60855,13.608539 0,0 -0.28395,-13.608539 -0.28395,-13.608539 z m 1.16079,-1.524423 c 0,0 -20.17829,0 -20.17829,0 0,0 20.46673,22.28251 20.46673,22.28251 0,0 -0.28844,-22.28251 -0.28844,-22.28251 z" />
  <path
     id="path83929-4"
     style="fill:#373b41;fill-rule:evenodd;stroke-width:0.193732"
     inkscape:path-effect="#path-effect84077"
     inkscape:original-d="m 12.618414,12.916844 c 0,0 13.3246,0 13.3246,0 0,0 -13.60855,13.608539 -13.60855,13.608539 0,0 0.28395,-13.608539 0.28395,-13.608539 z m -1.16079,-1.524424 h 20.17829 l -20.46673,22.28251 z"
     d="m 12.618414,12.916844 c 0,0 13.3246,0 13.3246,0 0,0 -13.60855,13.608539 -13.60855,13.608539 0,0 0.28395,-13.608539 0.28395,-13.608539 z m -1.16079,-1.524424 c 0,0 20.17829,0 20.17829,0 0,0 -20.46673,22.28251 -20.46673,22.28251 0,0 0.28844,-22.28251 0.28844,-22.28251 z" />
  <path
     id="path83929-4-7"
     style="fill:#373b41;fill-rule:evenodd;stroke-width:0.193732"
     inkscape:path-effect="#path-effect84106"
     inkscape:original-d="m 13.048803,282.2445 c 0,0 13.3246,0 13.3246,0 0,0 -13.60855,-13.60854 -13.60855,-13.60854 0,0 0.28395,13.60854 0.28395,13.60854 z m -1.16079,1.52442 h 20.17829 l -20.46673,-22.28251 z"
     d="m 13.048803,282.2445 c 0,0 13.3246,0 13.3246,0 0,0 -13.60855,-13.60854 -13.60855,-13.60854 0,0 0.28395,13.60854 0.28395,13.60854 z m -1.16079,1.52442 c 0,0 20.17829,0 20.17829,0 0,0 -20.46673,-22.28251 -20.46673,-22.28251 0,0 0.28844,22.28251 0.28844,22.28251 z" />
  <path
     id="path83929-4-7-2"
     style="fill:#373b41;fill-rule:evenodd;stroke-width:0.193732"
     inkscape:path-effect="#path-effect84135"
     inkscape:original-d="m 198.4836,283.02741 c 0,0 -13.3246,0 -13.3246,0 0,0 13.60855,-13.60854 13.60855,-13.60854 0,0 -0.28395,13.60854 -0.28395,13.60854 z m 1.16079,1.52442 H 179.4661 l 20.46673,-22.28251 z"
     d="m 198.4836,283.02741 c 0,0 -13.3246,0 -13.3246,0 0,0 13.60855,-13.60854 13.60855,-13.60854 0,0 -0.28395,13.60854 -0.28395,13.60854 z m 1.16079,1.52442 c 0,0 -20.17829,0 -20.17829,0 0,0 20.46673,-22.28251 20.46673,-22.28251 0,0 -0.28844,22.28251 -0.28844,22.28251 z" />
</svg>
