<?xml version="1.0" encoding="UTF-8" standalone="no"?>
<svg
   width="210mm"
   height="297mm"
   viewBox="0 0 210 297"
   version="1.1"
   id="svg16392"
   sodipodi:docname="ox-portrait.svg"
   inkscape:version="1.1 (c68e22c387, 2021-05-23)"
   xmlns:inkscape="http://www.inkscape.org/namespaces/inkscape"
   xmlns:sodipodi="http://sodipodi.sourceforge.net/DTD/sodipodi-0.dtd"
   xmlns="http://www.w3.org/2000/svg"
   xmlns:svg="http://www.w3.org/2000/svg"
   xmlns:rdf="http://www.w3.org/1999/02/22-rdf-syntax-ns#"
   xmlns:cc="http://creativecommons.org/ns#"
   xmlns:dc="http://purl.org/dc/elements/1.1/">
  <defs
     id="defs16386" />
  <sodipodi:namedview
     id="base"
     pagecolor="#ffffff"
     bordercolor="#666666"
     borderopacity="1.0"
     inkscape:pageopacity="0.0"
     inkscape:pageshadow="2"
     inkscape:zoom="0.98994949"
     inkscape:cx="432.34529"
     inkscape:cy="517.70318"
     inkscape:document-units="mm"
     inkscape:current-layer="g17871"
     inkscape:document-rotation="0"
     showgrid="false"
     inkscape:window-width="1920"
     inkscape:window-height="1080"
     inkscape:window-x="0"
     inkscape:window-y="0"
     inkscape:window-maximized="0"
     inkscape:snap-nodes="true"
     fit-margin-top="0"
     fit-margin-left="0"
     fit-margin-right="0"
     fit-margin-bottom="0"
     inkscape:object-paths="true"
     inkscape:pagecheckerboard="0" />
  <metadata
     id="metadata16389">
    <rdf:RDF>
      <cc:Work
         rdf:about="">
        <dc:format>image/svg+xml</dc:format>
        <dc:type
           rdf:resource="http://purl.org/dc/dcmitype/StillImage" />
        <dc:title />
      </cc:Work>
    </rdf:RDF>
  </metadata>
  <g
     inkscape:label="Layer 1"
     inkscape:groupmode="layer"
     id="layer1"
     transform="translate(-0.57387888,-0.7292611)">
    <rect
       style="fill:#282a2e;fill-opacity:1;fill-rule:evenodd;stroke:none;stroke-width:0.264583"
       id="rect5123"
       width="210"
       height="297"
       x="0.57387888"
       y="0.7292611"
       ry="32.218616" />
    <g
       id="g17644"
       transform="matrix(0.99005718,0,0,0.99005718,-0.5004514,-130.06185)"
       style="fill:#373b41">
      <path
         d="m 101.36997,161.51835 -1.00115,-7.59217 8.0666,-0.5161 0.14301,7.65653 z m -13.598023,3.40899 -2.645048,-7.18663 7.705087,-2.41424 1.838389,7.434 z m -12.262388,6.53194 -4.369207,-6.28918 6.886478,-4.2053 3.6605,6.72643 z m -10.351169,9.26454 -5.813817,-4.98433 5.782202,-5.82993 5.026729,5.77717 z m -7.884899,11.58786 -6.769426,-3.58035 4.147149,-6.93413 6.328412,4.31234 z m -4.822076,12.99887 -7.465998,-1.70365 2.400876,-7.86655 7.128768,2.7971 z m -1.577378,13.93244 -7.657945,-0.0267 0.439226,-8.06123 7.608735,0.86669 z m 1.809409,13.77616 -7.41848,1.90002 -1.523835,-7.92376 7.580883,-1.08349 z m 5.038775,12.9438 -6.697916,3.71244 -3.429501,-7.46214 7.167816,-2.69585 z m 8.084282,11.44642 -5.711351,5.10144 -5.042067,-6.31515 6.245797,-4.43103 z m 10.476031,9.08355 -4.19636,6.40585 -6.520737,-5.0098 5.101439,-5.71135 z m 12.496303,6.36511 -2.695764,7.16743 -7.394864,-3.23595 3.463846,-6.82983 z m 13.534893,3.14402 -0.80827,7.61494 -7.955073,-1.35118 1.629877,-7.48198 z m 13.88624,-0.1721 1.14699,7.57158 -8.19268,0.59184 -0.0273,-7.65814 z m 13.55315,-3.55436 2.79739,7.12886 -7.68364,2.50946 -1.97971,-7.39759 z m 12.18693,-6.61718 4.54376,6.16459 -6.97889,4.34531 -3.58023,-6.76943 z m 10.34647,-9.4715 5.77636,5.02673 -5.62205,5.79067 -5.19394,-5.62742 z m 7.69679,-11.56826 6.85468,3.41369 -4.13443,7.09038 -6.28919,-4.36921 z m 4.71502,-13.06105 7.49638,1.56232 -2.32221,7.88066 -7.18684,-2.64514 z m 1.4208,-13.91297 7.65446,-0.18978 -0.33498,8.09877 -7.62436,-0.71727 z m -1.93457,-13.78885 7.37878,-2.04765 1.62499,8.05181 -7.59895,0.94395 z m -5.19015,-12.92856 6.66555,-3.76968 3.50778,7.42424 -7.14449,2.75712 z m -8.13623,-11.30075 5.54773,-5.27891 5.19017,6.37052 -6.26473,4.40342 z m -10.60522,-9.02081 4.09117,-6.47312 6.56393,4.94073 -4.99823,5.80158 z m -12.47108,-6.21474 2.40595,-7.27001 7.55378,3.21921 -3.43908,6.8416 z m -13.59267,-3.04165 0.56737,-7.6365 8.11082,1.31411 -1.68426,7.47013 z"
         style="fill:#373b41;fill-opacity:1;fill-rule:evenodd;stroke:none;stroke-width:0.124203"
         id="rect9037" />
      <path
         d="m 105.51852,167.48545 -0.44521,-6.79052 7.18294,0.0126 -0.31949,6.79756 z m -12.256407,2.23021 -1.926524,-6.52674 6.973013,-1.69164 1.19682,6.69907 z m -11.2541,5.07726 -3.507689,-5.83145 6.351532,-3.32753 2.853774,6.17786 z m -9.718657,7.61173 -4.864719,-4.75862 5.467042,-4.83249 4.120575,5.41576 z m -7.667179,9.81563 -5.793919,-3.56937 4.081564,-5.90692 5.360193,4.19273 z m -5.033549,11.24534 -6.520977,-1.94585 2.587453,-6.83552 6.158211,2.89578 z m -2.21081,12.26229 -6.788931,-0.47003 0.859355,-7.12249 6.696332,1.21202 z m 0.801443,12.32112 -6.688897,1.25238 -0.889351,-7.11502 6.785308,-0.51886 z m 3.713519,11.77129 -6.155601,2.90149 -2.606059,-6.81676 6.513017,-1.97267 z m 6.501324,10.62105 -5.361753,4.19066 -4.102818,-5.89369 5.796583,-3.56505 z m 8.759878,8.66524 -4.094407,5.43562 -5.490078,-4.8224 4.85648,-4.76703 z m 10.709757,6.3725 -2.808184,6.1984 -6.368584,-3.30044 3.469582,-5.85426 z m 11.818463,3.57682 -1.160593,6.70524 -6.975194,-1.66182 1.881372,-6.53945 z m 12.323288,0.65682 0.57572,6.78075 -7.29915,0.0473 0.42214,-6.79224 z m 12.22508,-2.36174 2.06499,6.4844 -6.95955,1.77732 -1.32426,-6.67502 z m 11.19217,-5.15724 3.66973,5.73114 -6.44164,3.4463 -2.7801,-6.21131 z m 9.72655,-7.79552 4.82903,4.79403 -5.32274,4.80701 -4.27758,-5.29272 z m 7.49923,-9.80921 5.87923,3.42655 -4.07939,6.04622 -5.32209,-4.24088 z m 4.94225,-11.30673 6.55616,1.82231 -2.51852,6.85261 -6.21856,-2.76442 z m 2.07083,-12.25415 6.79846,0.2779 -0.7691,7.16185 -6.7189,-1.08044 z m -0.91169,-12.33967 6.66231,-1.3856 0.97158,7.23445 -6.79319,0.3941 z m -3.84863,-11.7666 6.13024,-2.95413 2.67768,6.78771 -6.49591,2.02836 z m -6.55587,-10.4949 5.22701,-4.35757 4.23092,5.95143 -5.81178,3.53945 z m -8.87809,-8.61714 4.00505,-5.50141 5.5324,4.76368 -4.77021,4.85306 z m -10.69616,-6.23769 2.55718,-6.30627 6.51048,3.29487 -3.44831,5.86615 z m -11.87566,-3.48942 0.94823,-6.73839 7.11546,1.63802 -1.9289,6.52578 z"
         style="fill:#373b41;fill-opacity:1;fill-rule:evenodd;stroke:none;stroke-width:0.110371"
         id="rect9037-5" />
      <path
         d="m 108.67998,172.58001 -0.0218,-6.10905 6.43523,0.4102 -0.66379,6.07287 z m -11.105623,1.31758 -1.363689,-5.95496 6.341772,-1.12845 0.70031,6.06884 z m -10.365664,3.9242 -2.819029,-5.41979 5.875782,-2.62872 2.213882,5.69385 z m -9.130662,6.28037 -4.094513,-4.53391 5.166861,-4.02629 3.391261,5.08138 z m -7.414934,8.369 -4.993124,-3.51994 3.98514,-5.06592 4.569885,4.05438 z m -5.134602,9.79629 -5.734736,-2.10565 2.697988,-5.98092 5.356939,2.93664 z m -2.661906,10.86424 -6.056784,-0.79817 1.165548,-6.33405 5.932608,1.45786 z m 0.03381,11.08424 -6.062813,0.75065 -0.401709,-6.42446 6.108459,-0.0881 z m 2.67357,10.75333 -5.676566,2.25787 -1.956446,-6.25255 5.945227,-1.40579 z m 5.235328,9.87754 -5.036876,3.45706 -3.348809,-5.50861 5.391739,-2.87237 z m 7.367613,8.25057 -3.970472,4.64292 -4.651292,-4.62577 4.616159,-4.00155 z m 9.242042,6.30456 -2.860379,5.39781 -5.52296,-3.31089 3.43388,-5.05273 z m 10.3907,3.86119 -1.412275,5.94345 -6.15749,-1.87637 2.048896,-5.75487 z m 11.005228,1.27292 0.13925,6.10754 -6.54266,-0.36306 0.75545,-6.0624 z m 11.08483,-1.43716 1.49011,5.9247 -6.33447,1.20597 -0.81582,-6.05437 z m 10.31463,-3.99932 2.96978,5.33892 -5.96311,2.73013 -2.14601,-5.71974 z m 9.14793,-6.44461 4.06058,4.56365 -5.03616,4.01147 -3.53878,-4.97984 z m 7.2641,-8.37256 5.0775,3.39669 -3.99094,5.19088 -4.53307,-4.09542 z m 5.05621,-9.85637 5.77312,1.99691 -2.63717,6.00006 -5.41831,-2.82228 z m 2.53602,-10.86472 6.076,0.62657 -1.08686,6.37431 -5.96014,-1.34123 z m -0.13156,-11.107 6.04639,-0.87149 0.46876,6.53604 -6.1086,-0.0242 z m -2.79489,-10.75663 5.65677,-2.30644 2.02224,6.2305 -5.933,1.45666 z m -5.2912,-9.76753 4.92542,-3.6141 3.46037,5.56746 -5.40392,2.84859 z m -7.47621,-8.21403 3.89408,-4.70684 4.69247,4.57552 -4.54365,4.08343 z m -9.23734,-6.18302 2.64147,-5.5084 5.6504,3.31378 -3.41548,5.06456 z m -10.44681,-3.78607 1.22385,-5.98494 6.28449,1.86284 -2.09073,5.73999 z"
         style="fill:#373b41;fill-opacity:1;fill-rule:evenodd;stroke:none;stroke-width:0.0990824"
         id="rect9037-5-2" />
      <path
         d="m 111.52869,177.97357 0.34213,-5.38963 5.65179,0.74241 -0.94466,5.3172 z m -9.8734,0.50528 -0.85059,-5.33311 5.66037,-0.62021 0.25874,5.39431 z m -9.374932,2.84817 -2.165899,-4.94716 5.338096,-1.97107 1.615932,5.15309 z m -8.424985,4.99941 -3.343312,-4.24121 4.795471,-3.24571 2.690639,4.68252 z m -7.035201,6.94313 -4.195886,-3.40003 3.814651,-4.23259 3.790964,3.84639 z m -5.108299,8.33691 -4.933662,-2.19644 2.733463,-5.11578 4.551281,2.90706 z m -2.990477,9.42514 -5.295036,-1.06235 1.402691,-5.51786 5.146506,1.63678 z m -0.625786,9.77864 -5.391981,0.30349 0.02567,-5.69033 5.393054,0.28362 z m 1.722132,9.64288 -5.140447,1.65576 -1.35582,-5.63066 5.327017,-0.88831 z m 4.033482,9.02194 -4.647153,2.75131 -2.627925,-5.05683 4.925565,-2.2146 z m 6.010449,7.71303 -3.776695,3.86036 -3.828971,-4.3552 4.308274,-3.25645 z m 7.778856,6.10745 -2.842208,4.59184 -4.675583,-3.24697 3.327642,-4.25356 z m 8.93651,4.02027 -1.597204,5.15877 -5.320097,-2.01922 2.147572,-4.95477 z m 9.631641,1.77369 -0.23841,5.39527 -5.74936,-0.70719 1.02491,-5.30257 z m 9.86218,-0.61198 0.96387,5.3139 -5.65852,0.68903 -0.36148,-5.38839 z m 9.33433,-2.91743 2.30366,4.88474 -5.42112,2.05535 -1.55452,-5.1719 z m 8.44995,-5.14326 3.31161,4.26544 -4.6793,3.24039 -2.82675,-4.60169 z m 6.90237,-6.95521 4.27759,3.29633 -3.82715,4.34245 -3.75607,-3.8804 z m 5.0427,-8.39452 4.97395,2.10279 -2.68096,5.13626 -4.61216,-2.80982 z m 2.87948,-9.43301 5.32215,0.91202 -1.33568,5.55806 -5.17768,-1.53553 z m 0.54092,-9.80448 5.38464,-0.41104 0.0269,5.7927 -5.38653,-0.38263 z m -1.82895,-9.65297 5.12585,-1.69977 1.41515,5.61511 -5.31922,0.93388 z m -4.08928,-8.92823 4.55812,-2.8964 2.72286,5.11533 -4.9349,2.19291 z m -6.10839,-7.68722 3.71307,-3.92124 3.86829,4.31329 -4.24916,3.33295 z m -7.7819,-5.99997 2.65567,-4.70233 4.78782,3.25705 -3.31211,4.26508 z m -8.99045,-3.95733 1.43346,-5.20651 5.43292,2.0148 -2.18358,4.93917 z"
         style="fill:#373b41;fill-opacity:1;fill-rule:evenodd;stroke:none;stroke-width:0.0875902"
         id="rect9037-9" />
      <path
         d="m 113.58581,182.6678 0.61754,-4.75918 4.96828,0.98789 -1.14759,4.65982 z m -8.78443,-0.12748 -0.44338,-4.77857 5.05534,-0.22004 -0.085,4.79837 z m -8.478999,1.97908 -1.632189,-4.51301 4.848314,-1.43665 1.132514,4.66357 z m -7.762051,3.94201 -2.717377,-3.95567 4.441447,-2.59851 2.112919,4.30893 z m -6.642993,5.74656 -3.522411,-3.25945 3.629258,-3.53079 3.137337,3.63167 z m -5.01561,7.0948 -4.246766,-2.23523 2.722023,-4.37695 3.866285,2.84305 z m -3.201111,8.18318 -4.633331,-1.25059 1.565433,-4.81106 4.468125,1.75136 z m -1.124888,8.63447 -4.798891,-0.0452 0.354449,-5.04425 4.765618,0.56585 z m 0.964977,8.65097 -4.654672,1.16856 -0.874029,-5.07188 4.775373,-0.47717 z m 3.050703,8.23508 -4.281115,2.16878 -2.035485,-4.6372 4.496707,-1.67663 z m 4.880027,7.18967 -3.573905,3.20293 -3.141383,-4.08503 4.010067,-2.63645 z m 6.541698,5.86906 -2.78791,3.90602 -3.956688,-3.1517 3.198637,-3.57777 z m 7.689895,4.08578 -1.716992,4.4813 -4.599763,-2.1006 2.193118,-4.26834 z m 8.437202,2.13418 -0.5259,4.77022 -5.056849,-0.96223 1.217892,-4.64216 z m 8.7807,0.0322 0.54495,4.76815 -5.0577,0.28115 -0.006,-4.79909 z m 8.44705,-2.04286 1.75798,4.46569 -4.92685,1.50654 -1.07698,-4.67667 z m 7.79256,-4.06811 2.68786,3.97531 -4.33813,2.60055 -2.23832,-4.2452 z m 6.52592,-5.76501 3.60091,3.17226 -3.64674,3.62746 -3.10442,-3.65977 z m 4.9608,-7.14971 4.28795,2.15453 -2.67666,4.39818 -3.92595,-2.76038 z m 3.10315,-8.19663 4.6661,1.11894 -1.50834,4.85059 -4.50167,-1.66338 z m 1.05114,-8.66234 4.79864,-0.0506 -0.31383,5.13809 -4.75406,-0.65325 z m -1.05911,-8.66614 4.6443,-1.20844 0.92754,5.06154 -4.77113,0.51803 z m -3.10564,-8.15523 4.21064,-2.30262 2.11624,4.6946 -4.50372,1.65685 z m -4.96837,-7.17249 3.52104,-3.26064 3.17867,4.05017 -3.96211,2.70774 z m -6.55067,-5.77393 2.62894,-4.01489 4.05563,3.16721 -3.18554,3.58888 z m -7.74139,-4.03311 1.57457,-4.53317 4.70007,2.10324 -2.22414,4.25241 z"
         style="fill:#373b41;fill-opacity:1;fill-rule:evenodd;stroke:none;stroke-width:0.0778357"
         id="rect9037-5-8" />
      <path
         d="m 115.07889,186.62376 0.81768,-4.22994 4.39675,1.16098 -1.28704,4.11146 z m -7.86379,-0.60209 -0.13189,-4.30624 4.54181,0.0836 -0.34265,4.29461 z m -7.707109,1.30234 -1.211803,-4.13431 4.423882,-1.01797 0.75573,4.24145 z m -7.173738,3.10097 -2.215084,-3.69521 4.123859,-2.0816 1.653867,3.97815 z m -6.271277,4.77999 -2.975062,-3.1161 3.447909,-2.96203 2.609367,3.42821 z m -4.888017,6.07839 -3.68097,-2.23862 2.682019,-3.77057 3.306299,2.7621 z m -3.322671,7.15435 -4.08202,-1.37783 1.669828,-4.22379 3.90618,1.81736 z m -1.487443,7.67402 -4.297301,-0.307 0.597734,-4.49997 4.23857,0.77168 z m 0.384168,7.80487 -4.235489,0.78853 -0.501455,-4.59294 4.30524,-0.16233 z m 2.276078,7.54807 -3.956331,1.70546 -1.566261,-4.26797 4.122172,-1.25254 z m 3.973212,6.71298 -3.380103,2.67134 -2.587811,-3.83466 3.739445,-2.13955 z m 5.535415,5.62199 -2.714899,3.34497 -3.37016,-3.04367 3.064683,-3.02804 z m 6.663249,4.08794 -1.787298,3.91989 -4.004745,-2.1376 2.202086,-3.70263 z m 7.441233,2.38081 -0.73614,4.24492 -4.477512,-1.143 1.349038,-4.09173 z m 7.8657,0.51652 0.22348,4.30253 -4.54733,-0.029 0.26077,-4.30034 z m 7.68204,-1.36128 1.32714,4.0989 -4.49814,1.07624 -0.70524,-4.25011 z m 7.20806,-3.21225 2.18756,3.71116 -4.03141,2.08916 -1.76977,-3.928 z m 6.1674,-4.80302 3.05025,3.04233 -3.46896,3.0477 -2.5783,-3.4516 z m 4.84197,-6.13063 3.72235,2.16859 -2.64254,3.79212 -3.36436,-2.69133 z m 3.23564,-7.17186 4.1187,1.26172 -1.62087,4.26237 -3.94113,-1.74041 z m 1.42288,-7.70309 4.30241,0.22115 -0.56655,4.58631 -4.22335,-0.84941 z m -0.46767,-7.82369 4.22842,-0.82483 0.54998,4.58664 -4.30371,0.19921 z m -2.32973,-7.47958 3.90062,-1.82931 1.63543,4.32391 -4.12736,1.23442 z m -4.05332,-6.7025 3.33595,-2.72597 2.62315,3.8055 -3.70044,2.20609 z m -5.54874,-5.53725 2.57851,-3.45131 3.45794,3.06303 -3.05355,3.03874 z m -6.7123,-4.0436 1.66258,-3.97429 4.09445,2.14555 -2.229,3.68664 z"
         style="fill:#373b41;fill-opacity:1;fill-rule:evenodd;stroke:none;stroke-width:0.0698747"
         id="rect9037-5-2-2" />
      <path
         d="m 108.65349,189.66894 -0.009,-3.85006 4.05528,0.26391 -0.42344,3.82672 z m -7.00011,0.82103 -0.85442,-3.7541 3.99768,-0.70583 0.43624,3.8253 z m -6.535981,2.46439 -1.772052,-3.41805 3.705263,-1.65173 1.390443,3.59026 z m -5.759636,3.95033 -2.576636,-2.8608 3.259663,-2.53312 2.132968,3.20525 z m -4.680108,5.26809 -3.143813,-2.22254 2.515792,-3.18931 2.876628,2.55901 z m -3.244191,6.16952 -3.612383,-1.33186 1.705368,-3.76704 3.373588,1.85525 z m -1.686742,6.84463 -3.81645,-0.50812 0.73989,-3.99087 3.737633,0.92378 z m 0.01197,6.98558 -3.821551,0.46796 -0.247756,-4.04917 3.849762,-0.0504 z m 1.675886,6.77923 -3.5794,1.41819 -1.227729,-3.94215 3.747998,-0.88096 z m 3.291102,6.22946 -3.177263,2.17447 -2.105853,-3.47448 3.400411,-1.80568 z m 4.636284,5.20589 -2.506191,2.92274 -2.927452,-2.91919 2.912578,-2.51798 z m 5.81923,3.98106 -1.807219,3.39941 -3.477905,-2.09124 2.168363,-3.18146 z m 6.545206,2.44216 -0.89506,3.74451 -3.879004,-1.18772 1.296101,-3.62512 z m 6.93465,0.81151 0.0826,3.84923 -4.12303,-0.2343 0.48126,-3.82004 z m 6.98713,-0.8964 0.93411,3.73514 -3.99315,0.7547 -0.50904,-3.81629 z m 6.50387,-2.51177 1.86712,3.36721 -3.76038,1.71557 -1.34764,-3.60651 z m 5.77066,-4.05382 2.55522,2.87952 -3.17728,2.52389 -2.22601,-3.14139 z m 4.58506,-5.27048 3.19708,2.14497 -2.51954,3.26803 -2.8534,-2.58483 z m 3.19483,-6.20742 3.63666,1.26335 -1.66706,3.77916 -3.41236,-1.78323 z m 1.60741,-6.84506 3.8287,0.4 -0.69035,4.01632 -3.75507,-0.85029 z m -0.0736,-6.99998 3.8113,-0.54414 0.28991,4.11954 -3.84975,-0.0204 z m -1.75234,-6.78142 3.56696,-1.44882 1.26921,3.92831 -3.74033,0.91302 z m -3.32641,-6.16018 3.10714,-2.27353 2.17612,3.51165 -3.40806,1.79069 z m -4.70475,-5.18297 2.45809,-2.96307 2.95345,2.88754 -2.86695,2.56964 z m -5.81638,-3.90446 1.66936,-3.46928 3.55821,2.09318 -2.15677,3.18892 z m -6.58062,-2.39485 0.77634,-3.77082 3.95905,1.17931 -1.32245,3.61569 z"
         style="fill:#373b41;fill-opacity:1;fill-rule:evenodd;stroke:none;stroke-width:0.0624442"
         id="rect9037-0" />
      <path
         d="m 110.33634,192.91215 0.2168,-3.41446 3.58058,0.4701 -0.59854,3.36854 z m -6.25504,0.31998 -0.5388,-3.37865 3.58598,-0.39286 0.16385,3.41742 z m -5.93925,1.80426 -1.372084,-3.13416 3.381824,-1.24865 1.02366,3.26462 z m -5.337473,3.16714 -2.118009,-2.68695 3.038074,-2.05616 1.704524,2.9665 z m -4.457037,4.39853 -2.658144,-2.15404 2.416716,-2.68139 2.401612,2.43682 z m -3.23632,5.28156 -3.125556,-1.39156 1.731772,-3.24092 2.883302,1.84173 z m -1.894644,5.97099 -3.35452,-0.67303 0.888703,-3.49568 3.260405,1.037 z m -0.396568,6.19497 -3.415942,0.19221 0.01633,-3.60495 3.41661,0.17975 z m 1.09089,6.109 -3.256605,1.0489 -0.858873,-3.56717 3.374793,-0.5627 z m 2.555189,5.71565 -2.944105,1.74296 -1.664787,-3.20365 3.120482,-1.40294 z m 3.807659,4.88643 -2.392665,2.44558 -2.425685,-2.75916 2.729424,-2.06297 z m 4.927999,3.86931 -1.800656,2.909 -2.962044,-2.05709 2.108185,-2.69468 z m 5.661445,2.54704 -1.011937,3.26817 -3.370381,-1.27929 1.360596,-3.13893 z m 6.10181,1.12378 -0.1511,3.41802 -3.64234,-0.44805 0.64937,-3.35927 z m 6.24792,-0.38758 0.61057,3.36649 -3.58481,0.43644 -0.22893,-3.41366 z m 5.91354,-1.84814 1.45936,3.09462 -3.43443,1.30205 -0.98477,-3.27655 z m 5.35328,-3.25826 2.09793,2.70229 -2.96448,2.05278 -1.79076,-2.91529 z m 4.37289,-4.40619 2.70991,2.08835 -2.42463,2.75097 -2.37951,-2.45835 z m 3.19476,-5.31807 3.15108,1.33224 -1.6985,3.25389 -2.92188,-1.78014 z m 1.82433,-5.97598 3.37168,0.57786 -0.84624,3.52113 -3.28016,-0.97285 z m 0.3428,-6.21133 3.41129,-0.26035 0.017,3.6698 -3.41248,-0.24246 z m -1.15856,-6.1154 3.24736,-1.07678 0.89646,3.55731 -3.36986,0.59156 z m -2.59054,-5.65627 2.88771,-1.83488 1.72492,3.24071 -3.12639,1.38919 z m -3.8697,-4.8701 2.35236,-2.48415 2.45058,2.73261 -2.69197,2.11145 z m -4.92994,-3.80121 1.68249,-2.979 3.03314,2.06348 -2.09834,2.70198 z m -5.6956,-2.50716 0.9082,-3.29842 3.44185,1.27648 -1.38341,3.12905 z"
         style="fill:#373b41;fill-opacity:1;fill-rule:evenodd;stroke:none;stroke-width:0.0554901"
         id="rect9037-5-88" />
      <path
         d="m 111.58341,195.65653 0.38384,-3.04733 3.18203,0.62036 -0.72337,2.98497 z m -5.62228,-0.0607 -0.29513,-3.0572 3.23485,-0.15284 -0.043,3.07111 z m -5.42179,1.28676 -1.055329,-2.8844 3.099469,-0.93098 0.73589,2.98195 z m -4.958278,2.54134 -1.748512,-2.52514 2.836311,-1.6736 1.362503,2.75266 z m -4.237793,3.69356 -2.26207,-2.07765 2.314296,-2.26831 2.016513,2.31677 z m -3.193071,4.55254 -2.723217,-1.42042 1.73166,-2.80768 2.481156,1.81032 z m -2.029218,5.2448 -2.968273,-0.78934 0.990419,-3.08277 2.863735,1.11022 z m -0.699375,5.52866 -3.071361,-0.0175 0.214845,-3.22913 3.051307,0.35078 z m 0.638162,5.53426 -2.976175,0.75895 -0.57144,-3.24388 3.055068,-0.31675 z m 1.972018,5.26314 -2.734721,1.39818 -1.313728,-2.96293 2.873871,-1.08373 z m 3.140285,4.58972 -2.279649,2.05835 -2.020181,-2.60692 2.560139,-1.69684 z m 4.200602,3.74059 -1.774947,2.50646 -2.539751,-2.00765 2.038593,-2.29736 z m 4.931188,2.59657 -1.088188,2.87208 -2.948815,-1.33342 1.393419,-2.73693 z m 5.40484,1.34579 -0.32523,3.05415 -3.23864,-0.60379 0.7684,-2.97383 z m 5.61966,-2.8e-4 0.3601,3.05028 -3.23622,0.19197 -0.0155,-3.07137 z m 5.40118,-1.32751 1.13572,2.85383 -3.14956,0.97589 -0.70039,-2.99047 z m 4.9775,-2.6221 1.72968,2.53777 -2.77019,1.67465 -1.44261,-2.71156 z m 4.16282,-3.70508 2.31211,2.02164 -2.32526,2.33024 -1.99552,-2.33485 z m 3.15787,-4.58758 2.74939,1.36869 -1.70259,2.82115 -2.51913,-1.75726 z m 1.96648,-5.25316 2.98895,0.70502 -0.95379,3.10793 -2.885,-1.05386 z m 0.65215,-5.54633 3.07099,-0.0438 -0.18863,3.2891 -3.04411,-0.40682 z m -0.69844,-5.54374 2.96945,-0.78445 0.60567,3.23714 -3.05225,0.3429 z m -2.00698,-5.21189 2.6893,-1.4837 1.36555,2.99949 -2.8784,1.07108 z m -3.19679,-4.57853 2.24569,-2.09516 2.04397,2.58452 -2.52929,1.74236 z m -4.20611,-3.67968 1.67295,-2.57575 2.6031,2.01733 -2.03018,2.30443 z m -4.96403,-2.56275 0.99694,-2.90494 3.013,1.33488 -1.41331,2.7268 z"
         style="fill:#373b41;fill-opacity:1;fill-rule:evenodd;stroke:none;stroke-width:0.0498146"
         id="rect9037-5-2-5" />
      <path
         d="m 112.65523,198.52978 0.51885,-2.66511 2.76995,0.73537 -0.81459,2.59005 z m -4.95543,-0.38607 -0.0795,-2.714 2.86227,0.0565 -0.21955,2.70626 z m -4.85828,0.81429 -0.76022,-2.60656 2.78888,-0.63783 0.47271,2.6737 z m -4.523662,1.94825 -1.392884,-2.33066 2.600701,-1.30841 1.038955,2.50852 z m -3.956324,3.00717 -1.872326,-1.96634 2.175445,-1.86384 1.641592,2.16274 z m -3.085656,3.82661 -2.317944,-1.41392 1.693444,-2.37404 2.081375,1.74352 z m -2.10005,4.50604 -2.571404,-0.87182 1.055918,-2.66051 2.46023,1.14864 z m -0.943881,4.8351 -2.707997,-0.1971 0.380498,-2.83548 2.670595,0.48989 z m 0.235541,4.91911 -2.669965,0.49339 -0.312161,-2.89499 2.713397,-0.0987 z m 1.428077,4.75889 -2.494806,1.07149 -0.983496,-2.6911 2.598937,-0.78589 z m 2.498351,4.23402 -2.132467,1.68069 -1.627663,-2.41888 2.358484,-1.34524 z m 3.483809,3.54776 -1.713809,2.10579 -2.121385,-1.92104 1.933981,-1.90575 z m 4.195875,2.58192 -1.129695,2.4689 -2.522071,-1.35054 1.390922,-2.33162 z m 4.68762,1.50672 -0.4675,2.67461 -2.82087,-0.72411 0.85365,-2.57758 z m 4.95673,0.33214 0.1372,2.71173 -2.8658,-0.0221 0.16795,-2.70996 z m 4.84252,-0.85145 0.83294,2.58434 -2.83573,0.67448 -0.44087,-2.6791 z m 4.54539,-2.01836 1.37551,2.34069 -2.54243,1.31327 -1.11203,-2.47702 z m 3.89088,-3.02178 1.91976,1.91992 -2.18877,1.9178 -1.62199,-2.17744 z m 3.05668,-3.85957 2.34408,1.36982 -1.66859,2.38766 -2.11802,-1.69898 z m 2.04521,-4.51715 2.59463,0.79864 -1.0251,2.68488 -2.48231,-1.10017 z m 0.90324,-4.85345 2.71129,0.143 -0.36092,2.88992 -2.66095,-0.53884 z m -0.28815,-4.93105 2.66553,-0.51627 0.34274,2.89108 -2.71244,0.12191 z m -1.46195,-4.71577 2.45979,-1.14958 1.02705,2.72639 -2.6022,0.77449 z m -2.54885,-4.22747 2.10468,-1.71517 1.64997,2.40053 -2.33396,1.3872 z m -3.49227,-3.49437 1.62794,-2.17293 2.17669,1.9333 -1.92698,1.91251 z m -4.22684,-2.55403 1.05114,-2.50328 2.57861,1.35562 -1.40787,2.32152 z"
         style="fill:#373b41;fill-opacity:1;fill-rule:evenodd;stroke:none;stroke-width:0.0440368"
         id="rect9037-9-3" />
      <path
         d="m 113.37755,201.0032 0.61543,-2.33297 2.4133,0.81359 -0.87328,2.24918 z m -4.37158,-0.6312 0.0877,-2.41119 2.53476,0.21695 -0.35241,2.38692 z m -4.35543,0.43886 -0.52217,-2.35561 2.51015,-0.40301 0.26331,2.39838 z m -4.12479,1.46388 -1.099255,-2.14785 2.382365,-1.00859 0.77505,2.28492 z m -3.683461,2.43592 -1.54562,-1.85273 2.037662,-1.52591 1.329574,2.01345 z m -2.959179,3.2133 -1.972958,-1.38888 1.64,-2.00641 1.743979,1.66735 z m -2.124817,3.8732 -2.22932,-0.92292 1.091387,-2.29759 2.114593,1.16193 z m -1.118794,4.23237 -2.389759,-0.3326 0.50267,-2.4921 2.339524,0.59007 z m -0.07788,4.37564 -2.396281,0.28186 -0.108049,-2.58527 2.411785,0.0707 z m 0.988919,4.30305 -2.27466,0.8047 -0.715228,-2.44358 2.350351,-0.54539 z m 1.968554,3.90003 -1.988878,1.36602 -1.302296,-2.23975 2.169739,-1.05538 z m 2.882379,3.34897 -1.642421,1.76735 -1.769108,-1.82708 1.825994,-1.57715 z m 3.570092,2.53402 -1.145651,2.12339 -2.157654,-1.34457 1.369275,-1.98644 z m 4.068797,1.60927 -0.57045,2.34441 -2.45911,-0.80652 0.90719,-2.23584 z m 4.37588,0.58345 -0.0364,2.41256 -2.53989,-0.18662 0.30713,-2.39317 z m 4.34362,-0.47272 0.58795,2.34014 -2.55383,0.43279 -0.23477,-2.40133 z m 4.14816,-1.52478 1.08326,2.15573 -2.33098,1.01629 -0.84169,-2.26124 z m 3.62627,-2.45269 1.5904,1.81434 -2.05263,1.57297 -1.31134,-2.02532 z m 2.9354,-3.24421 1.99871,1.3513 -1.61874,2.01992 -1.77908,-1.62997 z m 2.07685,-3.88624 2.25417,0.8594 -1.06547,2.32099 -2.13701,-1.12023 z m 1.08382,-4.25103 2.39582,0.28488 -0.48848,2.54152 -2.32812,-0.63289 z m 0.0319,-4.38928 2.39369,-0.30242 0.1354,2.58357 -2.41231,-0.05 z m -1.02147,-4.2668 2.24818,-0.87598 0.75178,2.47743 -2.35256,0.53507 z m -2.0137,-3.89717 1.96625,-1.3982 1.32314,2.22476 -2.15044,1.09404 z m -2.893,-3.30211 1.57019,-1.83191 1.81744,1.8412 -1.82018,1.58355 z m -3.59917,-2.51109 1.07799,-2.15846 2.2075,1.35237 -1.38371,1.97649 z"
         style="fill:#373b41;fill-opacity:1;fill-rule:evenodd;stroke:none;stroke-width:0.0391326"
         id="rect9037-5-8-6" />
      <path
         d="m 113.86636,203.07208 0.68102,-2.05617 2.11716,0.86296 -0.90738,1.96676 z m -3.88189,-0.80833 0.21251,-2.15557 2.2591,0.33513 -0.44835,2.1191 z m -3.92684,0.15131 -0.33705,-2.13962 2.27148,-0.22169 0.10273,2.16357 z m -3.77713,1.08256 -0.86564,-1.98552 2.19062,-0.77139 0.56755,2.09033 z m -3.435662,1.97803 -1.281981,-1.7459 1.910491,-1.25404 1.079482,1.87788 z m -2.829885,2.71477 -1.69064,-1.35401 1.580872,-1.70666 1.470007,1.59079 z m -2.118944,3.35238 -1.946222,-0.95074 1.105489,-1.99804 1.830148,1.15852 z m -1.2375,3.73007 -2.122752,-0.43075 0.5888,-2.20501 2.063443,0.65864 z m -0.312788,3.91625 -2.162723,0.11947 0.04676,-2.32239 2.157036,0.19727 z m 0.647091,3.91047 -2.082787,0.59467 -0.505137,-2.22917 2.136209,-0.35814 z m 1.547227,3.60376 -1.857898,1.11349 -1.042471,-2.07914 2.002701,-0.82513 z m 2.396622,3.16075 -1.569763,1.49233 -1.483653,-1.73531 1.723684,-1.31172 z m 3.058075,2.46877 -1.144421,1.83892 -1.858598,-1.32456 1.337195,-1.7038 z m 3.556284,1.66787 -0.64133,2.06891 -2.15858,-0.85921 0.93701,-1.95292 z m 3.88837,0.7658 -0.16659,2.15964 -2.26537,-0.30832 0.40789,-2.12725 z m 3.91815,-0.18233 0.39685,2.12943 -2.31228,0.24594 -0.077,-2.16463 z m 3.80143,-1.13583 0.8509,1.9917 -2.14502,0.78114 -0.62857,-2.07282 z m 3.38536,-1.99621 1.32424,1.71397 -1.92652,1.2954 -1.06248,-1.88753 z m 2.81031,-2.74379 1.71579,1.32176 -1.56258,1.71996 -1.50352,-1.55927 z m 2.07668,-3.36674 1.97201,0.89522 -1.08357,2.02044 -1.85255,-1.12242 z m 1.20719,-3.74873 2.13085,0.38826 -0.57884,2.25008 -2.05083,-0.69641 z m 0.27237,-3.93104 2.16155,-0.13802 -0.0222,2.32239 -2.15866,-0.17877 z m -0.67827,-3.87978 2.06302,-0.66003 0.53601,2.26154 -2.13762,0.34876 z m -1.58784,-3.60371 1.83941,-1.14358 1.06197,2.06688 -1.98755,0.86082 z m -2.40874,-3.11937 1.50863,-1.55417 1.52617,1.75064 -1.71883,1.31778 z m -3.0854,-2.44982 1.08575,-1.87411 1.90282,1.33432 -1.34958,1.69409 z"
         style="fill:#373b41;fill-opacity:1;fill-rule:evenodd;stroke:none;stroke-width:0.0351302"
         id="rect9037-5-2-2-7" />
    </g>
    <g
       id="g17871"
       transform="translate(7.6904142,-21.968854)">
      <path
         style="fill:#1d1f21;fill-opacity:1;stroke:none;stroke-width:0.264583px;stroke-linecap:butt;stroke-linejoin:miter;stroke-opacity:1"
         d="m 134.58648,95.308728 c -8.20429,0.86074 -33.30439,23.802492 -31.42535,34.237352 1.87904,10.43486 0.18867,15.42968 4.49243,19.51826 4.03402,3.83233 12.54853,0.90097 13.35847,3.45682 0.80993,2.55584 -2.66197,19.05854 -2.66197,19.05854 1.31912,1.42513 29.41355,3.0179 29.77844,-9.7913 0.0626,-2.19635 0.33476,-20.99844 4.6652,-26.21126 4.33044,-5.21283 24.94368,-44.795506 -18.20722,-40.268412 z"
         id="path17648"
         sodipodi:nodetypes="sssscsss" />
      <path
         style="fill:#c5c8c6;fill-opacity:1;stroke:none;stroke-width:0.264583px;stroke-linecap:butt;stroke-linejoin:miter;stroke-opacity:1"
         d="m 118.94725,96.899608 c 5.57435,-3.17245 26.02384,-4.706658 26.13074,-1.23517 0.1069,3.47149 7.88046,2.41833 7.97209,13.378912 0.0916,10.96057 -30.57496,14.56209 -30.80404,20.2309 -0.22908,5.66881 -50.321917,6.81298 -50.337186,4.13459 -0.01527,-2.67839 -0.870511,-12.75484 0.824704,-12.81984 17.910667,-0.75612 34.678532,-22.595432 46.213692,-23.689392 z"
         id="path17325"
         sodipodi:nodetypes="csssscc" />
      <path
         style="fill:#e0e0e0;fill-opacity:1;stroke:none;stroke-width:0.290829px;stroke-linecap:butt;stroke-linejoin:miter;stroke-opacity:1"
         d="m 118.67362,96.899608 c 0,0 -56.611837,2.37936 -56.611837,5.902852 0,3.52349 56.777897,2.71738 56.777897,2.71738 2.30641,-3.41844 1.47892,-6.113662 -0.16606,-8.620232 z"
         id="path17303"
         sodipodi:nodetypes="cscc" />
      <path
         style="fill:#e0e0e0;fill-opacity:1;stroke:none;stroke-width:0.264583px;stroke-linecap:butt;stroke-linejoin:miter;stroke-opacity:1"
         d="m 71.967973,129.02531 c 0,0 -1.209495,-2.36279 -1.209495,5.43347 0,7.79627 1.209495,11.58407 1.209495,-5.43347 z"
         id="path17646" />
      <path
         style="fill:#1d1f21;fill-opacity:1;stroke:none;stroke-width:0.264583px;stroke-linecap:butt;stroke-linejoin:miter;stroke-opacity:1"
         d="m 104.34662,113.05365 c 5.64308,-6.982 7.49101,-5.67531 13.72971,-5.48679 6.2387,0.18853 0.58799,5.39579 -13.72971,5.48679 z"
         id="path17650" />
      <path
         style="fill:#373b41;fill-opacity:1;stroke:none;stroke-width:0.264583px;stroke-linecap:butt;stroke-linejoin:miter;stroke-opacity:1"
         d="m 92.993486,176.84309 c 0,0 -28.002005,49.07596 -17.084135,56.82627 10.917867,7.75031 58.368989,-25.48493 62.980209,-30.58744 -7.01939,-2.53746 -11.99777,-6.07705 -11.99777,-9.82808 -9.30879,5.1117 -34.330263,24.28976 -33.347547,20.4468 0.982718,-3.84296 12.008567,-38.33774 -0.550757,-36.85755 z"
         id="path17652" />
      <path
         style="fill:#373b41;fill-opacity:1;stroke:none;stroke-width:0.264583px;stroke-linecap:butt;stroke-linejoin:miter;stroke-opacity:1"
         d="m 167.24795,175.03191 c 18.15327,9.02822 -11.41971,87.10454 -26.90559,89.68798 -15.48588,2.58342 -66.258043,0.0518 -69.962135,-2.02599 3.520492,-3.38329 6.025888,-10.75666 4.438417,-14.43413 5.21595,-0.17469 58.606608,2.83164 61.111988,-0.10114 2.50539,-2.93278 29.2439,-58.96842 31.31732,-73.12672 z"
         id="path17654"
         sodipodi:nodetypes="csccsc" />
      <path
         style="fill:#373b41;fill-opacity:1;stroke:none;stroke-width:0.264583px;stroke-linecap:butt;stroke-linejoin:miter;stroke-opacity:1"
         d="m 149.68278,165.1509 c -2.18141,5.02896 -5.90709,10.98189 -34.30327,8.17321 -9.433,1.11244 -16.727774,3.00634 -18.19645,3.18102 3.05074,1.81116 7.52695,10.58655 -0.151188,33.67654 6.711628,-4.8267 29.268618,-18.17386 30.332328,-20.02639 1.0637,-1.85253 3.51509,-9.38677 8.39088,-10.70607 4.87578,-1.3193 4.75701,-0.069 8.02372,-1.30551 3.26671,-1.23655 13.35305,5.8518 12.46213,9.27186 -0.89092,3.42005 -9.83536,14.50464 -14.33318,16.71113 -1.31749,0.22525 -23.33681,16.84747 -32.8454,21.81207 -9.508594,4.9646 -18.968587,9.5017 -25.04307,10.34293 -1.085311,3.00174 -3.887659,10.37508 -3.887659,10.37508 0,0 52.067739,2.2111 54.054779,-0.91017 1.98704,-3.12127 27.60784,-53.47059 31.79789,-71.64195 -3.76888,-2.64779 -16.30151,-8.95375 -16.30151,-8.95375 z"
         id="path17656"
         sodipodi:nodetypes="ccccsssscsccscc" />
      <g
         id="g17685"
         style="fill:#969896"
         transform="translate(6.5975966,-17.227466)">
        <path
           style="fill:#969896;fill-opacity:1;stroke:none;stroke-width:0.264583px;stroke-linecap:butt;stroke-linejoin:miter;stroke-opacity:1"
           d="m 107.89688,189.198 c -2.59178,-3.51199 -6.42543,-1.3239 -4.83797,1.39744 1.58746,2.72134 12.6781,11.21633 18.69319,12.1265 0.90712,-0.96533 0.92869,-2.51907 1.1447,-3.43844 -11.25264,-4.14637 -10.87468,-5.75527 -14.99992,-10.0855 z"
           id="path17660" />
        <path
           style="fill:#969896;fill-opacity:1;stroke:none;stroke-width:0.264583px;stroke-linecap:butt;stroke-linejoin:miter;stroke-opacity:1"
           d="m 144.34378,182.69805 c 2.55937,-4.18314 7.76453,-0.91018 5.75591,1.71922 -2.00862,2.62941 -15.37787,6.19657 -16.66298,10.81181 -3.40171,0.45048 -4.85956,0.4321 -5.84229,1.04807 0.37795,-2.94198 12.84011,-10.98648 16.74936,-13.5791 z"
           id="path17662" />
        <path
           style="fill:#969896;fill-opacity:1;stroke:none;stroke-width:0.264583px;stroke-linecap:butt;stroke-linejoin:miter;stroke-opacity:1"
           d="m 138.30107,221.93172 c -4.24568,1.70976 0.0611,3.36099 -1.72577,4.1606 -1.78684,0.79962 -3.1421,1.34737 -2.49699,2.32733 2.6496,4.02493 -1.21747,3.20819 -3.70042,8.58848 -3.39345,7.35322 -12.04108,23.51203 -10.50293,26.34014 2.90069,5.33334 6.87836,-14.97415 9.54039,-20.21727 2.98236,-5.87404 7.98465,-11.03995 7.95411,-10.38823 -0.12217,2.60688 3.99369,-0.6956 2.55047,-2.58087 -1.44324,-1.88526 4.0853,-0.93613 1.62648,-3.49749 -2.45882,-2.56137 6.79614,-0.22104 1.87086,-4.63517 1.55776,-2.82141 3.47777,-8.58577 2.03119,-7.52808 -6.71917,4.91285 -2.47297,5.50344 -7.14739,7.43056 z"
           id="path2195"
           sodipodi:nodetypes="csssssssscsc" />
        <path
           style="fill:#969896;fill-opacity:1;stroke:none;stroke-width:0.264583px;stroke-linecap:butt;stroke-linejoin:miter;stroke-opacity:1"
           d="m 87.625747,194.04417 c -2.504641,5.78583 -19.832576,37.94657 -17.931185,42.58824 1.901393,4.64166 -2.569686,5.16905 -1.611218,9.76439 0.955632,4.58174 0.297059,4.25649 2.519918,5.03172 2.152015,0.75052 54.695548,-34.4256 54.695548,-34.4256 l -1.56419,-1.0947 c 0,0 -52.383015,35.36428 -54.139322,34.35664 -1.756304,-1.00765 -0.862891,-4.9846 1.534853,-8.17656 2.397741,-3.19195 0.405745,-6.39588 0.379901,-8.98753 -0.01874,-1.87877 17.404333,-37.96908 18.112541,-38.37589 -0.529392,-0.42656 -1.263252,-0.55344 -1.996846,-0.68071 z"
           id="path2197"
           sodipodi:nodetypes="csssccssscc" />
        <path
           style="fill:#969896;fill-opacity:1;stroke:none;stroke-width:0.264583px;stroke-linecap:butt;stroke-linejoin:miter;stroke-opacity:1"
           d="m 160.21764,194.4478 c 0,0 13.02921,1.23145 -2.89827,51.99348 6.44921,-18.72252 14.91658,-46.84814 3.33098,-54.18191 -0.35438,1.6319 -0.43271,2.18843 -0.43271,2.18843 z"
           id="path2199"
           sodipodi:nodetypes="cccc" />
        <path
           style="fill:#969896;fill-opacity:1;stroke:none;stroke-width:0.264583px;stroke-linecap:butt;stroke-linejoin:miter;stroke-opacity:1"
           d="m 68.696487,267.74684 56.491563,-1.41841 c 1.05754,-0.0776 1.7598,-0.21585 2.56303,-0.33688 -19.71465,3.85223 -39.410364,1.73767 -59.164395,3.92313 0.121643,-0.81755 0.128102,-1.50652 0.109802,-2.16784 z"
           id="path2201"
           sodipodi:nodetypes="ccccc" />
      </g>
      <path
         style="fill:#1d1f21;fill-opacity:1;stroke:none;stroke-width:0.264583px;stroke-linecap:butt;stroke-linejoin:miter;stroke-opacity:1"
         d="m 128.64128,192.00361 c 2.22462,-4.42217 5.24838,-11.59326 8.86606,-11.60245 3.61767,-0.009 4.78396,1.01131 6.52262,0.17468 1.73866,-0.83662 9.56799,2.41794 10.17274,6.36204 0.60475,3.9441 -9.96756,12.9999 -12.66732,13.82734 -6.09067,-1.67326 -7.12741,-0.68954 -12.8941,-8.76161 z"
         id="path17666" />
      <path
         style="fill:#1d1f21;fill-opacity:1;stroke:none;stroke-width:0.264583px;stroke-linecap:butt;stroke-linejoin:miter;stroke-opacity:1"
         d="m 71.924578,249.91143 c -11.911385,0.74469 -13.58524,8.0169 -21.79254,7.42851 -8.207301,-0.5884 -10.334721,-2.82248 -13.196478,-1.06647 -2.861754,1.75601 -11.727792,4.67039 4.298037,5.18524 16.025831,0.51486 31.47931,1.39745 30.690981,-11.54728 z"
         id="path17668" />
      <path
         style="fill:#e0e0e0;fill-opacity:1;stroke:none;stroke-width:0.264583px;stroke-linecap:butt;stroke-linejoin:miter;stroke-opacity:1"
         d="m 56.298306,250.77564 c -6.144676,-0.0368 -7.289366,4.29347 -1.609053,3.17183 5.680313,-1.12163 6.943791,-4.04525 1.609053,-3.17183 z"
         id="path17670" />
      <path
         style="fill:#e0e0e0;fill-opacity:1;stroke:none;stroke-width:0.264583px;stroke-linecap:butt;stroke-linejoin:miter;stroke-opacity:1"
         d="m 53.97651,249.48852 c -3.59609,1.25034 -4.665205,1.95825 -4.157646,3.2178 0.50756,1.25954 -8.660853,-3.59473 4.157646,-3.2178 z"
         id="path17672" />
      <path
         style="fill:#e0e0e0;fill-opacity:1;stroke:none;stroke-width:0.264583px;stroke-linecap:butt;stroke-linejoin:miter;stroke-opacity:1"
         d="m 46.087162,251.23348 c -3.088545,0.42291 -1.507274,5.50103 6.354454,4.19551 -0.897982,-0.32603 -2.099015,-0.82571 -2.368801,-1.49573 -1.726313,0.0166 -3.370105,-0.95298 -3.985653,-2.69978 z"
         id="path17674"
         sodipodi:nodetypes="cccc" />
      <path
         style="fill:#e0e0e0;fill-opacity:1;stroke:none;stroke-width:0.264583px;stroke-linecap:butt;stroke-linejoin:miter;stroke-opacity:1"
         d="m 38.208997,249.4741 c -1.775391,0.78336 -1.07669,4.51815 5.360543,3.52351 0.133633,-1.12141 1.366867,-2.50936 2.348103,-2.4411 -0.695406,-2.00923 -5.269383,-2.09261 -7.708646,-1.08241 z"
         id="path17676"
         sodipodi:nodetypes="cccc" />
      <path
         style="fill:#1d1f21;fill-opacity:1;stroke:none;stroke-width:0.264583px;stroke-linecap:butt;stroke-linejoin:miter;stroke-opacity:1"
         d="m 71.545526,247.79572 c -7.101573,-2.43784 -11.690871,-0.12351 -18.204466,-0.91662 -6.513591,-0.79312 -18.884082,1.09865 -22.618135,-1.68375 -3.734053,-2.7824 -10.911987,-1.35868 -11.62978,1.43671 -0.717794,2.7954 2.596273,9.32884 11.454152,9.54337 5.772893,-1.84627 8.468433,-2.1128 8.468433,-2.1128 0,0 -4.558752,-1.41072 -3.092619,-3.68604 1.466133,-2.27532 6.353238,-3.00342 10.331646,-1.53421 3.069717,-0.28605 8.323355,-1.61224 9.514586,0.51357 3.146067,0.14302 5.887431,0.52007 5.08564,2.43135 3.016258,-1.46921 8.812065,-3.56902 10.690543,-3.99158 z"
         id="path17680" />
      <path
         style="fill:#373b41;fill-opacity:1;stroke:none;stroke-width:0.262534px;stroke-linecap:butt;stroke-linejoin:miter;stroke-opacity:1"
         d="m 73.700787,265.61542 -9.957767,22.964 c 0,0 59.96556,-1.57168 70.4299,1.76275 -0.12192,-8.39087 2.64869,-22.47971 2.64869,-22.47971 0.21741,-0.0931 -17.8727,1.69138 -63.120823,-2.24704 z"
         id="path20398"
         sodipodi:nodetypes="ccccc" />
    </g>
    <g
       id="g17842"
       style="fill:#373b41">
      <circle
         style="fill:#373b41;fill-opacity:1;fill-rule:evenodd;stroke:none;stroke-width:0.132"
         id="path17687"
         cx="75.972664"
         cy="172.85918"
         r="7.4859738"
         transform="rotate(-61.044258)" />
      <path
         style="fill:#373b41;fill-opacity:1;stroke:none;stroke-width:0.264583px;stroke-linecap:butt;stroke-linejoin:miter;stroke-opacity:1"
         d="m 179.90269,19.497982 c 0,0 0.94543,7.662868 10.26694,6.131171 -1.12081,9.944513 -8.33438,11.075147 -12.92814,8.743223 -4.59376,-2.33192 -5.84513,-11.169932 2.6612,-14.874394 z"
         id="path17691" />
      <path
         style="fill:#373b41;fill-opacity:1;stroke:none;stroke-width:0.264583px;stroke-linecap:butt;stroke-linejoin:miter;stroke-opacity:1"
         d="m 180.66651,12.638885 c -2.00846,3.060267 -1.4373,3.62314 -1.22562,5.690275 -3.20027,1.446827 -5.18048,3.58073 -5.82688,5.859618 -0.64146,2.261413 -8.63344,-3.956155 -3.96337,-10.801399 4.67007,-6.8452397 11.01587,-0.748494 11.01587,-0.748494 z"
         id="path17693"
         sodipodi:nodetypes="ccssc" />
      <path
         style="fill:#373b41;stroke:#000000;stroke-width:0.264583px;stroke-linecap:butt;stroke-linejoin:miter;stroke-opacity:1"
         d="M 175.79721,17.090654 Z"
         id="path17695" />
      <path
         style="fill:#373b41;fill-opacity:1;stroke:none;stroke-width:0.264583px;stroke-linecap:butt;stroke-linejoin:miter;stroke-opacity:1"
         d="m 197.05868,17.758464 c 0,0 -0.66622,5.477211 -5.1495,7.084355 -0.93203,3.046134 -0.81198,5.969185 -2.90113,8.082555 6.44998,1.610389 11.32524,-0.528497 12.64837,-3.68196 1.32314,-3.153461 0.66803,-9.069191 -4.59774,-11.48495 z"
         id="path17697" />
      <path
         style="fill:#373b41;fill-opacity:1;stroke:none;stroke-width:0.264583px;stroke-linecap:butt;stroke-linejoin:miter;stroke-opacity:1"
         d="m 201.03724,32.194555 c 0,0 -4.69345,5.199317 -12.72273,1.807299 -2.53115,2.269945 -5.7321,3.004576 -8.31427,2.534977 2.01396,3.869631 6.13305,8.517461 13.1018,6.552649 6.96875,-1.964811 7.9352,-10.894925 7.9352,-10.894925 z"
         id="path17699"
         sodipodi:nodetypes="cccsc" />
    </g>
    <g
       id="g17850"
       style="fill:#373b41">
      <circle
         style="fill:#373b41;fill-opacity:1;fill-rule:evenodd;stroke:none;stroke-width:0.132"
         id="path17687-3"
         cx="-23.098408"
         cy="-20.377569"
         r="7.4859738"
         transform="rotate(-166.04426)" />
      <path
         style="fill:#373b41;fill-opacity:1;stroke:none;stroke-width:0.264583px;stroke-linecap:butt;stroke-linejoin:miter;stroke-opacity:1"
         d="m 21.814728,32.606939 c 0,0 7.157067,-2.896512 3.264977,-11.503967 9.895749,-1.49121 12.854867,5.183934 11.791354,10.224712 -1.063509,5.040777 -9.276495,8.536953 -15.056331,1.279255 z"
         id="path17691-8" />
      <path
         style="fill:#373b41;fill-opacity:1;stroke:none;stroke-width:0.264583px;stroke-linecap:butt;stroke-linejoin:miter;stroke-opacity:1"
         d="m 14.991658,33.64441 c 3.475819,1.147968 3.871685,0.450588 5.813598,-0.288893 2.225818,2.716757 4.799526,4.077198 7.168064,4.111753 2.350379,0.03431 -1.586854,9.363191 -9.407555,6.623929 C 10.745068,41.351936 14.991658,33.64441 14.991658,33.64441 Z"
         id="path17693-7"
         sodipodi:nodetypes="ccssc" />
      <path
         style="fill:#373b41;stroke:#000000;stroke-width:0.264583px;stroke-linecap:butt;stroke-linejoin:miter;stroke-opacity:1"
         d="M 20.552004,37.19559 Z"
         id="path17695-4" />
      <path
         style="fill:#373b41;fill-opacity:1;stroke:none;stroke-width:0.264583px;stroke-linecap:butt;stroke-linejoin:miter;stroke-opacity:1"
         d="m 15.694186,16.485745 c 0,0 5.46301,-0.774087 8.17575,3.140469 3.183567,0.111875 5.975946,-0.760626 8.558016,0.710358 C 32.314091,13.68957 28.986276,9.5340142 25.597813,9.0721451 22.20935,8.6102657 16.664749,10.774157 15.694186,16.485745 Z"
         id="path17697-7" />
      <path
         style="fill:#373b41;fill-opacity:1;stroke:none;stroke-width:0.264583px;stroke-linecap:butt;stroke-linejoin:miter;stroke-opacity:1"
         d="m 28.608652,8.9064155 c 0,0 6.236909,3.1878425 5.038602,11.8214505 2.847708,1.857398 4.385774,4.759142 4.600491,7.374868 3.216525,-2.94687 6.639885,-8.128553 2.938377,-14.351317 C 37.484615,7.528651 28.608652,8.9064155 28.608652,8.9064155 Z"
         id="path17699-9"
         sodipodi:nodetypes="cccsc" />
    </g>
    <path
       style="fill:#373b41;stroke:#000000;stroke-width:0.264583px;stroke-linecap:butt;stroke-linejoin:miter;stroke-opacity:1"
       d="M 35.707453,291.54996 Z"
       id="path17695-4-6" />
    <g
       id="g17826"
       style="fill:#373b41">
      <circle
         style="fill:#373b41;fill-opacity:1;fill-rule:evenodd;stroke:none;stroke-width:0.132"
         id="path17687-3-8"
         cx="234.37439"
         cy="-156.50574"
         r="7.4859738"
         transform="rotate(118.95574)" />
      <path
         style="fill:#373b41;fill-opacity:1;stroke:none;stroke-width:0.264583px;stroke-linecap:butt;stroke-linejoin:miter;stroke-opacity:1"
         d="m 31.601974,278.55929 c 0,0 -0.945428,-7.66287 -10.266943,-6.13117 1.12081,-9.94452 8.334386,-11.07515 12.928138,-8.74323 4.593764,2.33192 5.845137,11.16994 -2.661195,14.8744 z"
         id="path17691-8-0" />
      <path
         style="fill:#373b41;fill-opacity:1;stroke:none;stroke-width:0.264583px;stroke-linecap:butt;stroke-linejoin:miter;stroke-opacity:1"
         d="m 30.838153,285.41839 c 2.008462,-3.06027 1.437302,-3.62314 1.225624,-5.69028 3.200263,-1.44683 5.180472,-3.58073 5.826877,-5.85962 0.641454,-2.26141 8.633439,3.95616 3.96337,10.8014 -4.670067,6.84524 -11.015871,0.7485 -11.015871,0.7485 z"
         id="path17693-7-2"
         sodipodi:nodetypes="ccssc" />
      <path
         style="fill:#373b41;fill-opacity:1;stroke:none;stroke-width:0.264583px;stroke-linecap:butt;stroke-linejoin:miter;stroke-opacity:1"
         d="m 14.445978,280.29881 c 0,0 0.666227,-5.47721 5.149501,-7.08436 0.932036,-3.04613 0.811986,-5.96918 2.901133,-8.08255 -6.449979,-1.61039 -11.325244,0.52849 -12.648365,3.68196 -1.3231406,3.15346 -0.6680317,9.06919 4.597731,11.48495 z"
         id="path17697-7-2" />
      <path
         style="fill:#373b41;fill-opacity:1;stroke:none;stroke-width:0.264583px;stroke-linecap:butt;stroke-linejoin:miter;stroke-opacity:1"
         d="m 10.467427,265.86272 c 0,0 4.693447,-5.19932 12.72273,-1.8073 2.531142,-2.26995 5.732098,-3.00458 8.314262,-2.53498 -2.013959,-3.86963 -6.133047,-8.51746 -13.101793,-6.55265 -6.968755,1.96481 -7.935199,10.89493 -7.935199,10.89493 z"
         id="path17699-9-7"
         sodipodi:nodetypes="cccsc" />
    </g>
    <g
       id="g17834"
       style="fill:#373b41">
      <circle
         style="fill:#373b41;fill-opacity:1;fill-rule:evenodd;stroke:none;stroke-width:0.132"
         id="path17687-3-8-6"
         cx="300.23767"
         cy="144.69612"
         r="7.4859738"
         transform="rotate(28.95574)" />
      <path
         style="fill:#373b41;fill-opacity:1;stroke:none;stroke-width:0.264583px;stroke-linecap:butt;stroke-linejoin:miter;stroke-opacity:1"
         d="m 190.36724,263.83447 c 0,0 -7.66287,0.94542 -6.13117,10.26694 -9.94452,-1.12081 -11.07515,-8.33439 -8.74323,-12.92814 2.33192,-4.59376 11.16994,-5.84514 14.8744,2.6612 z"
         id="path17691-8-0-1" />
      <path
         style="fill:#373b41;fill-opacity:1;stroke:none;stroke-width:0.264583px;stroke-linecap:butt;stroke-linejoin:miter;stroke-opacity:1"
         d="m 197.22634,264.59829 c -3.06027,-2.00846 -3.62314,-1.4373 -5.69028,-1.22563 -1.44683,-3.20026 -3.58073,-5.18047 -5.85962,-5.82687 -2.26141,-0.64146 3.95616,-8.63344 10.8014,-3.96337 6.84524,4.67006 0.7485,11.01587 0.7485,11.01587 z"
         id="path17693-7-2-9"
         sodipodi:nodetypes="ccssc" />
      <path
         style="fill:#373b41;stroke:#000000;stroke-width:0.264583px;stroke-linecap:butt;stroke-linejoin:miter;stroke-opacity:1"
         d="M 192.77457,259.72899 Z"
         id="path17695-4-6-8" />
      <path
         style="fill:#373b41;fill-opacity:1;stroke:none;stroke-width:0.264583px;stroke-linecap:butt;stroke-linejoin:miter;stroke-opacity:1"
         d="m 192.10676,280.99046 c 0,0 -5.47721,-0.66622 -7.08436,-5.1495 -3.04613,-0.93203 -5.96918,-0.81198 -8.08255,-2.90113 -1.61039,6.44998 0.52849,11.32524 3.68196,12.64836 3.15346,1.32314 9.06919,0.66803 11.48495,-4.59773 z"
         id="path17697-7-2-1" />
      <path
         style="fill:#373b41;fill-opacity:1;stroke:none;stroke-width:0.264583px;stroke-linecap:butt;stroke-linejoin:miter;stroke-opacity:1"
         d="m 177.67067,284.96901 c 0,0 -5.19932,-4.69344 -1.8073,-12.72273 -2.26995,-2.53114 -3.00458,-5.73209 -2.53498,-8.31426 -3.86963,2.01396 -8.51746,6.13305 -6.55265,13.10179 1.96481,6.96876 10.89493,7.9352 10.89493,7.9352 z"
         id="path17699-9-7-3"
         sodipodi:nodetypes="cccsc" />
    </g>
    <path
       id="path20372-6"
       style="fill:#e0e0e0;fill-opacity:1;fill-rule:evenodd;stroke:none;stroke-width:0.120179"
       inkscape:transform-center-x="4.9939957"
       inkscape:transform-center-y="4.4510628"
       d="m 1.3495181,112.62232 c 2.58006,0 5.16012,-0.11522 7.74018,0.38461 2.5800099,0.50067 5.1601099,2.19579 7.7402099,3.87018 2.58,1.6744 5.160104,1.25663 7.740104,-1.69429 2.5801,-2.95174 5.1602,-1.17705 7.7402,1.93551 2.5801,3.11173 5.1601,-7.09298 7.7402,-3.7616 2.5801,3.33222 5.1601,-2.42539 7.7402,-0.59515 2.58,1.8294 5.1601,-4.58968 7.7402,1.03613 2.58,5.62664 5.1601,0.37053 7.7401,4.06747 2.5801,3.69693 5.1602,2.45771 7.7402,-4.28298 2.5801,-6.7407 5.1601,2.88295 7.7402,4.56315 2.5801,1.6802 5.1601,-13.54356 7.7402,-2.68816 2.58,10.85458 5.1601,-12.16591 7.7402,-0.8803 2.58,11.28644 5.160095,-9.61535 7.740398,2.01674 2.58,11.63209 5.16,9.58302 7.74,0.97065 2.58,-8.61237 5.16,-10.53461 7.74,-4.70904 2.58,5.82641 5.16,18.2526 7.74,3.53116 2.58,-14.72144 5.16,0.45507 7.74,1.79045 2.581,1.33454 5.161,-5.27519 7.741,-0.10611 2.58,5.16992 5.16,9.54573 7.74,-0.31747 2.58,-9.86402 5.16,7.77186 7.74,-4.54159 2.58,-12.31346 5.16,-11.30468 7.74,4.0774 2.58,15.38291 5.16,-6.0842 7.74,-4.65847 2.58,1.42572 5.16,21.82354 7.741,1.50281 2.58,-20.320725 5.16,22.51071 7.74,0.27769 2.58,-22.233025 5.16,4.73224 7.74,-1.70175 2.58,-6.434 5.16,-21.976895 7.74,3.24352 2.58,25.22041 5.16,25.48235 7.74,-0.94496 M 1.1136089,112.23342 c 2.58006,0 5.16012,-0.139 7.74018,0.464 2.5800101,0.604 5.1601101,2.649 7.7402101,4.669 2.58,2.02 5.1601,1.516 7.7401,-2.044 2.5801,-3.561 5.1602,-1.42 7.7402,2.335 2.5801,3.754 5.1601,-8.557 7.7402,-4.538 2.5801,4.02 5.1601,-2.926 7.7402,-0.718 2.58,2.207 5.1601,-5.537 7.7402,1.25 2.58,6.788 5.1601,0.447 7.7401,4.907 2.5801,4.46 5.1602,2.965 7.7402,-5.167 2.5801,-8.132 5.1601,3.478 7.7402,5.505 2.5801,2.027 5.1601,-16.339 7.7402,-3.243 2.58,13.095 5.1601,-14.677 7.7402,-1.062 2.58,13.616 5.1601,-11.6 7.740401,2.433 2.58,14.033 5.16,11.561 7.74,1.171 2.58,-10.39 5.16,-12.709 7.74,-5.681 2.58,7.029 5.16,22.02 7.74,4.26 2.58,-17.760005 5.16,0.549 7.74,2.16 2.581,1.61 5.161,-6.364 7.741,-0.128 2.58,6.237 5.16,11.516 7.74,-0.383 2.58,-11.9 5.16,9.376 7.74,-5.479 2.58,-14.855005 5.16,-13.638005 7.74,4.919 2.58,18.558 5.16,-7.34 7.74,-5.62 2.58,1.72 5.16,26.328 7.741,1.813 2.58,-24.515005 5.16,27.157 7.74,0.335 2.58,-26.822005 5.16,5.709 7.74,-2.053 2.58,-7.762 5.16,-26.513005 7.74,3.913 2.58,30.426 5.16,30.742 7.74,-1.14" />
  </g>
</svg>
