<?xml version="1.0" encoding="UTF-8" standalone="no"?>
<!-- Created with Inkscape (http://www.inkscape.org/) -->

<svg
   width="245.31398mm"
   height="415.42279mm"
   viewBox="0 0 245.31398 415.42279"
   version="1.1"
   id="svg4770"
   inkscape:version="1.1.1 (3bf5ae0d25, 2021-09-20)"
   sodipodi:docname="faustroll.svg"
   xmlns:inkscape="http://www.inkscape.org/namespaces/inkscape"
   xmlns:sodipodi="http://sodipodi.sourceforge.net/DTD/sodipodi-0.dtd"
   xmlns="http://www.w3.org/2000/svg"
   xmlns:svg="http://www.w3.org/2000/svg">
  <sodipodi:namedview
     id="namedview4772"
     pagecolor="#505050"
     bordercolor="#eeeeee"
     borderopacity="1"
     inkscape:pageshadow="0"
     inkscape:pageopacity="0"
     inkscape:pagecheckerboard="0"
     inkscape:document-units="mm"
     showgrid="false"
     fit-margin-top="0"
     fit-margin-left="0"
     fit-margin-right="0"
     fit-margin-bottom="0"
     inkscape:zoom="0.68684764"
     inkscape:cx="217.66108"
     inkscape:cy="473.90423"
     inkscape:window-width="2158"
     inkscape:window-height="1415"
     inkscape:window-x="0"
     inkscape:window-y="0"
     inkscape:window-maximized="1"
     inkscape:current-layer="layer1" />
  <defs
     id="defs4767" />
  <g
     inkscape:label="Layer 1"
     inkscape:groupmode="layer"
     id="layer1"
     transform="translate(-85.922593,195.67299)">
    <g
       transform="matrix(0.16231218,-0.0018622,0.0018622,0.16231218,42.781961,-303.72351)"
       id="g4677">
      <g
         transform="matrix(0.9949809,0.10006504,0.00924533,1.0059742,-25.515969,-118.67483)"
         id="g4663">
        <path
           d="m -1456.174,1078.6545 h 227.3297 v 111.9302 h -227.3297 z"
           fill="#e1c07e"
           fill-rule="evenodd"
           transform="scale(-1,1)"
           id="path4523" />
        <g
           transform="translate(3.8e-5,-9.6e-5)"
           id="g4529">
          <path
             d="m 1411.3099,2522.5528 c 0,0 101.2272,117.6887 106.5249,167.4824 5.2977,49.7938 13.6734,85.8744 41.5218,90.6893 27.8484,4.8148 -66.5782,16.9431 15.7497,22.855 82.3279,5.9118 164.0112,-19.9296 160.7182,24.8664 -3.293,44.796 41.4504,125.8556 -12.9576,120.797 -54.4079,-5.0586 -406.4847,27.9137 -509.7166,-70.6986 -103.2318,-98.6122 -151.7694,-225.0163 -151.7694,-225.0163 z"
             fill="#6c6244"
             id="path4525" />
          <path
             d="m 1545.1832,2794.0075 c -46.4614,-21.3315 -61.7103,-73.3194 -72.019,-107.9982 -10.3087,-34.6788 5.6557,103.2443 72.019,107.9982 z M 1311.945,2682.1087 c 26.9176,74.5992 23.7676,101.4769 63.1418,126.7698 39.3741,25.293 -12.5995,13.7131 -63.1418,-126.7698 z m 413.6743,244.0964 c 7.4258,12.6471 -52.1443,5.5904 -41.898,9.9491 11.987,5.0992 62.3695,1.0517 41.898,-9.9491 z m -70.3617,-103.7301 c 53.8352,3.9006 64.7168,22.6723 61.0658,34.5569 -3.651,11.8847 2.1475,-30.0468 -61.0658,-34.5569 z m 25.5875,-20.2397 c 36.219,-7.326 71.7413,10.3193 55.2444,27.8339 -8.3032,8.8153 14.3219,-28.56 -55.2444,-27.8339 z"
             id="path4527" />
        </g>
        <g
           transform="matrix(-1,0,0,1,1995.7876,-9.6e-5)"
           id="g4551">
          <g
             transform="matrix(-1,0,0,1,1995.7876,0)"
             id="g4535">
            <path
               d="m 916.52559,2705.3634 c 49.0601,-37.2224 103.85071,-70.0628 149.35771,-110.0022 21.2637,-46.2031 26.1195,-102.5624 67.6234,-136.237 139.9002,-149.5572 280.754,-299.3911 420.0616,-448.7309 36.72,-184.2623 -24.7981,-192.6218 -44.5316,-332.9149 -55.567,-118.0344 -8.6438,-141.825 -27.2037,-219.8906 -13.7382,-86.8906 -85.5108,-156.7098 -174.479,-162.0305 -102.3857,-10.65 -204.9549,5.6762 -306.8355,-4.156 -138.33822,51.3647 -276.81961,116.2596 -415.15781,167.6243 -60.57688,218.8418 -121.15377,437.6835 -181.73065,656.5253 170.96518,196.6042 341.93037,393.2083 512.89555,589.8125 z"
               fill="#a79d7e"
               id="path4531" />
            <path
               d="m 675.48483,3226.8723 c 45.88961,14.7011 100.1392,-112.4361 47.09243,-59.9958 -47.16552,58.3789 -157.72615,25.8839 -189.24393,12.9379 -5.35741,70.4896 100.814,47.2395 142.1515,47.0579 z m 944.36207,-55.2055 c -1.3295,-49.565 -112.3799,-15.1887 -147.1802,-55.5936 -65.4847,-56.587 -134.7641,-114.3136 -171.6667,-194.7243 7.6027,85.09 96.123,134.8602 144.5597,199.0716 37.9266,42.8843 120.2069,43.103 174.2872,51.2463 z M 933.12488,2685.8445 c 40.21209,0 108.41032,-43.679 132.75842,-90.4833 -36.8245,25.386 -83.44725,8.4734 -43.4585,-33.9312 -8.6869,-66.8102 60.1299,-22.7979 41.7417,-21.4538 16.5622,-28.9598 -122.95125,-135.211 -61.3504,-67.12 14.8222,20.5854 40.347,57.2961 5.6241,35.5946 -73.20244,51.0099 -71.91168,-101.8086 -134.52183,-126.1172 -62.43942,-52.2411 -67.83905,-141.5843 -131.93752,-191.2412 -45.38663,-45.5396 -98.59316,-80.9863 -100.53859,-144.6911 28.49676,-75.3131 65.2515,-143.9746 97.39476,-217.2211 8.98974,-37.9773 -9.77393,-90.209 25.24579,-106.8657 17.77967,2.989 -6.46829,113.7483 -16.61328,156.3495 -27.6423,59.4575 16.25367,135.7655 5.99711,178.0495 -5.069,71.6335 42.54826,148.9858 95.57694,198.3058 34.39309,29.7224 15.6634,41.5335 -14.55289,20.6017 44.95787,66.0008 103.94328,120.8903 165.58681,169.8456 50.5716,53.531 42.6781,-87.0834 91.4415,-104.6635 50.5719,-63.2911 115.2817,-113.5643 183.9668,-154.876 67.7346,-64.913 148.0082,-115.7266 229.0278,-161.0366 49.8013,-90.405 4.6816,-190.5782 -31.1428,-276.7056 -50.3044,-70.283 21.7526,-159.7536 -37.1749,-221.4825 -39.4836,-29.3072 -80.2567,-102.5044 -71.7127,-114.6266 -47.4633,72.7518 -152.4644,-41.3757 -162.4279,43.1352 -46.3413,43.3455 55.3092,9.7152 43.4301,66.6839 1.3166,48.7869 55.4774,-103.6179 31.1927,-22.9432 -20.5023,71.3832 -38.2147,39.0557 -55.5383,-6.3675 -50.5204,7.6544 -37.2139,110.7475 -60.8903,157.5963 3.7315,84.5837 -62.9477,148.4517 -67.2807,230.8623 24.7743,90.4586 -15.3809,171.5106 -36.5624,256.3479 -7.3267,40.8018 -52.8416,145.1073 -44.8773,128.7981 92.0172,-122.7005 212.5115,-220.7284 309.2575,-338.853 53.4321,-85.2775 37.4136,-190.9983 69.1518,-282.6626 41.6597,-78.6801 -2.8933,103.5633 -0.9779,134.8299 7.453,64.6534 -83.6651,200.5378 -73.4477,177.1055 41.4091,-16.2911 127.7286,-55.4543 151.4918,-35.3163 -73.5223,35.875 -171.3199,26.9147 -221.8558,101.8923 -106.0766,114.7501 -224.4276,222.5412 -299.63367,361.0791 2.53342,-30.8153 67.98877,-131.6465 23.81816,-72.7975 24.14995,-85.5792 88.82221,-161.6917 78.66011,-255.3001 20.989,-44.704 50.2319,-77.3051 23.1827,-129.2999 17.4164,-86.8566 13.4138,-181.1522 63.6303,-258.5814 25.054,-51.5918 27.5292,-143.4089 44.8359,-179.2366 -56.286,-12.2292 -97.6147,-15.9053 -112.3492,53.0285 -47.3773,70.0316 -105.42231,-62.4299 -123.56209,-34.4406 -6.26631,39.2994 0.53758,153.1607 5.59679,135.9244 -37.69076,-75.297 -51.02471,-159.3617 -47.44251,-242.8938 -9.38124,-89.0873 -108.03892,-18.313 -164.33309,-5.9002 -69.09287,33.2097 -171.48,47.3386 -169.15639,143.0209 -29.51819,59.9252 -34.81202,161.1297 -39.06165,204.8583 1.33485,-75.8342 -31.88709,33.4576 -43.79155,54.8836 -32.3903,95.553 -59.56135,194.2687 -71.1006,293.9187 -2.51806,43.9281 88.68832,56.3698 105.48158,110.4288 15.95503,12.8046 56.0377,78.9819 27.34893,23.7396 18.26341,40.725 55.86049,66.1973 89.2376,94.9318 49.32687,41.9258 150.86537,119.7223 142.15651,168.471 -7.57631,17.9431 73.88152,79.7878 109.40841,101.503 39.4611,8.5136 145.03626,-72.0933 62.21671,-6.3936 -66.66516,9.1093 -88.21075,82.2484 -35.70879,112.408 l 18.54188,-10.6921 z m -20.71332,-9.7735 c -42.87314,-69.8023 63.25225,-3.9779 0,0 z m 38.25511,-392.0709 c -1.46494,-55.3184 54.83663,5.811 0,0 z M 846,2189.458 c 30.36833,-5.0552 107.31578,-27.3675 131.135,-18.0338 -43.361,7.2605 -86.72404,22.1099 -131.135,18.0338 z m 162.7619,-51.5531 c -4.3002,-55.4026 53.288,-0.405 0,0 z m -94.09523,-95.2523 c 30.80166,-12.8444 179.15103,-71.8294 128.65483,-22.2725 -41.9196,11.676 -85.66375,16.3919 -128.65483,22.2725 z m 216.78283,-59.522 c 6.2375,-65.5768 68.1821,-138.8614 106.1773,-167.0413 -38.9623,49.4911 -63.8692,131.3345 -106.1773,167.0413 z m -84.3445,-26.4399 c -34.2285,-59.0521 62.3083,-7.3737 0,0 z M 868,1923.8085 c 47.5364,-12.9356 121.3896,-108.3778 152.5727,-72.7254 -43.40991,26.027 -132.51649,72.0958 -152.5727,72.7254 z m 183.6482,-121.4751 c -12.8518,-59.4126 65.6079,-2.173 0,0 z m 225.1348,-19.1968 c 26.2792,-36.6051 73.9272,-36.3977 13.7816,-6.2014 2.6727,-3.349 -28.7824,18.3638 -13.7816,6.2014 z M 568,1701.4807 c -21.01651,-30.0754 29.70257,-194.21 27.95759,-146.024 -13.08294,36.1426 -7.36152,155.0424 -27.95759,146.024 z m 675.3333,-6.4928 c 51.2993,-25.1942 96.6828,-88.7906 134.9959,-111.0055 -2.5126,57.0344 -78.7987,71.4883 -116.054,104.1215 l -7.7477,3.7426 z m -150.1389,-25.7934 c -0.5032,-54.8967 65.8188,5.7528 0,0 z m 34.566,-144.6576 c -21.7651,-51.0444 65.1578,-4.8291 0,0 z m -280.01513,785.8696 c -22.2377,-30.3933 -52.03488,-60.5918 -13.72928,-12.1922 0.20986,1.2684 27.68082,31.455 13.72928,12.1922 z m 215.51513,-274.2654 c 1.525,-17.5042 -14.8299,38.668 0,0 z m 22.5531,-85.7137 c -6.3268,-31.8633 -0.1163,-74.744 -6.6861,-13.5363 -3.9264,8.054 18.3001,52.3852 6.6861,13.5363 z m 30.1314,-216.1783 c 24.7587,-74.192 -21.5617,45.346 0,0 z m -86.0595,-187.833 c -5.6532,-59.451 106.1148,-92.1531 102.7317,-69.6842 -51.9708,-23.1383 -122.5641,-17.2819 -154.73473,-76.7318 27.61693,61.9163 -50.88279,108.453 30.55163,144.0869 4.7674,4.1065 20.1603,15.5662 21.4514,2.3291 z"
               fill="#e1c07e"
               stroke-width="1.33333"
               id="path4533" />
          </g>
          <g
             stroke-width="1.33333"
             id="g4543">
            <path
               d="m 1405.6629,2946.6528 c -30.9635,-166.7578 74.3038,-172.363 183.0583,-331.0462 49.2794,-78.5903 122.0171,-145.2517 155.0574,-232.2646 14.7712,-88.6436 10.0496,-249.3615 -106.5319,-264.0831 -116.2422,-25.7141 -170.7613,106.1812 -231.7164,179.4079 -72.9619,124.4591 -203.6148,211.9429 -305.0513,308.569 9.4882,6.1626 35.6584,12.4553 -17.6264,94.1273 -166.41554,-93.7139 -205.56224,-130.2293 -145.27014,-198.651 -22.5377,-72.2052 -15.3068,-30.0073 -106.2213,-190.7889 -362.6351,-232.954 -348.5862,-375.5764 -490.6479,-229.3783 -117.421,109.3672 -15.3742,136.8958 4.9472,234.7885 57.6008,130.3719 149.4248,249.366 164.4331,394.8823 70.2007,432.4048 210.3727,171.4841 173.5727,119.9688 -44.4647,-72.0045 -57.4081,-216.2294 -24.0266,-263.6965 41.6297,90.7515 101.034,183.6757 217.051,174.9393 29.3552,35.2314 -38.1945,130.3818 -25.951,190.2548 15.7792,10.8116 9.94,11.1642 33.413,19.9313 63.1981,60.6224 65.8303,50.4704 85.4671,56.0673 67.44014,69.2473 252.72734,-59.7506 109.39324,-51.032 -64.9911,-13.5058 -34.1277,-177.3892 42.8728,-180.576 45.5969,-62.1987 184.5458,-37.3588 216.9176,-49.075 -204.3566,170.6758 -53.1463,329.4648 66.8595,217.6551 z M 535.9187,1141.9206 c -47.705,111.6223 76.8441,178.2185 116.0385,265.7867 33.3461,33.8282 75.96396,22.9744 118.41386,-5.1038 21.6953,16.9142 23.0777,4.1149 34.0847,66.0628 10.3809,35.5141 98.3312,10.0284 86.6651,-6.1453 201.28964,-56.6152 107.21908,-136.2337 96.4303,-148.9815 C 1096.9391,804.29242 414.0185,813.62321 535.9187,1141.9206 Z m 8.7571,9.2724 c -31.8776,-101.2993 148.4985,9.1652 0,0 z m 145.18412,-7.6184 c 31.52741,-51.8498 126.4494,7.6638 0,0 z"
               fill="#967d53"
               id="path4537" />
            <path
               d="m 1303.4328,2848.5361 c 5.8082,-82.6492 95.9875,-110.1596 77.0614,-209.2398 -7.5503,-109.4321 115.692,-179.8458 103.4363,-282.9557 -77.3854,20.4049 0.9645,-110.7351 41.4673,-156.4884 23.8952,-63.8503 41.1412,-120.5687 -124.0775,105.3562 -72.1408,120.0538 -194.0318,201.5643 -292.1648,294.7917 58.0843,-21.3396 83.6749,106.9569 29.9687,139.4872 -31.3124,79.0797 -16.3647,-75.5356 -44.7014,20.5128 -29.2559,79.0397 -20.8494,11.3121 -28.9949,-26.2657 -29.3278,106.4743 14.3879,-104.6722 -13.7127,-0.4722 -25.9664,71.9998 11.5833,21.772 -1.5147,105.6086 -21.1317,66.1036 -17.1399,169.3754 63.9092,123.8821 44.1581,55.239 -88.7811,56.3358 -107.0438,6.4327 -98.31594,-60.2296 38.9735,65.4162 28.055,59.1296 -65.55444,20.9911 -159.81974,-194.3005 -110.22404,-49.1751 78.49364,74.6271 -65.903,-39.3512 -44.5876,-82.5444 -20.0735,105.8585 -35.0259,-9.5187 -6.3868,-72.2385 8.3685,43.3705 41.1593,-127.7644 38.3947,-101.0238 37.4158,-163.1411 213.02094,36.8655 115.36504,-54.8875 -89.85994,-40.0666 -151.77894,-115.8949 -100.96064,-151.6439 46.1313,-51.8629 -34.4171,-114.3052 -94.9181,-203.8025 -100.7255,-128.7571 -240.5654,-225.3017 -391.5887,-287.2475 -24.7286,-5.2817 -73.2956,25.7178 -103.5258,65.0286 -135.6051,86.5056 -5.6468,113.032 19.3614,247.7066 57.3418,121.9178 159.9825,228.564 162.3933,464.1796 1.4637,132.1187 59.4649,154.3812 179.3642,65.5222 -48.5262,-77.038 -84.1785,-268.027 -34.1113,-295.7873 40.8069,90.6399 89.3605,180.5615 212.9941,171.0256 7.8944,80.9822 -77.143,184.9256 7.462,210.1861 58.3125,50.7395 50.2435,63.9192 86.8075,58.3087 34.62514,25.2112 60.26074,24.3122 78.70994,14.665 157.5621,-41.0389 59.2542,-91.0798 11.3367,-61.9872 -35.6622,-75.6921 -7.339,-176.1702 75.8182,-203.2667 47.567,-12.6689 224.0393,-43.9082 201.0217,-28.9505 -273.3149,233.5409 169.8692,195.6944 -34.4139,116.1534 z m -721.99514,3.7973 c -42.8183,-42.3083 -49.0687,-66.4587 -39.7225,-125.7005 13.3251,-121.5412 -38.162,-234.9957 -102.4441,-334.6788 -31.6693,-77.8985 -102.8317,-147.8731 -131.5174,-217.6013 32.8472,-45.684 160.2155,-86.8321 110.3728,-133.0738 69.2631,-3.0604 125.7757,46.6319 167.9167,97.237 39.9971,41.9812 74.7838,257.0663 57.9565,218.1508 -81.6064,-137.608 36.8021,108.6958 -6.9955,246.3899 -25.1381,51.0283 46.7503,153.5246 -12.2662,225.0321 -8.2972,5.7421 -33.5038,43.2893 -43.3003,24.2446 z m 372.3338,43.2317 c 20.999,-4.1609 -11.1092,-89.1328 6.7954,-106.0873 -24.5703,12.1848 -39.2597,110.9014 -6.7954,106.0873 z m -36.5531,-40.2333 c 22.6957,-33.6286 14.8692,-127.7262 -7.2363,-45.7647 -20.7651,48.097 -3.6823,53.4661 7.2363,45.7647 z m 492.05904,-20.7337 c 60.4474,-105.75 165.9669,-179.6394 227.8116,-285.949 25.791,-37.8744 143.599,-195.3891 51.0925,-83.1292 -71.1321,105.0081 -149.6862,204.1087 -236.2863,296.8672 -9.2419,6.0837 -65.2276,87.293 -42.6178,72.211 z M 503.86065,1101.9052 c 78.7531,44.0493 -31.6521,76.5899 65.9297,189.0938 87.1601,148.235 4.4742,-58.2391 40.7546,-5.3263 13.4318,25.0319 85.6466,-35.9769 101.9808,-18.5436 21.0968,22.5164 1.5486,-36.8707 -19.2743,-30.0307 -32.7302,43.1109 -94.3026,60.7555 -71.385,-48.2415 -3.09709,-122.2711 -134.96158,-80.9798 -78.08636,-188.5626 86.501,64.9759 154.58497,-51.44153 247.92977,8.7553 49.9577,41.5658 -50.6956,78.1132 121.7067,160.2593 2.6523,-37.6531 9.7355,-69.7034 19.0838,-36.8399 7.4575,-157.97776 116.45544,105.5356 4.0499,102.6944 11.0464,39.374 31.094,107.1672 70.23644,121.8659 6.4626,76.4858 -143.87894,112.7985 -121.36184,104.9731 79.5415,4.6635 207.89414,-101.8252 102.8971,-149.0039 C 1113.3618,681.70093 417.70815,865.77889 503.86065,1101.9052 Z m 29.3827,90.3889 c -25.3898,-72.0549 133.3275,18.6935 0,0 z m 13.17277,-46.9802 c 13.53379,-46.6446 106.19925,21.1617 0,0 z m 306.10404,198.726 c 61.9055,-6.8086 34.4865,-139.1404 3.9514,-26.2016 -78.4701,35.1527 -104.87511,142.3288 -172.39341,100.0243 -1.0653,27.5057 -52.6779,-54.3447 14.843,-62.2392 -48.0046,8.2198 -83.64424,-23.7677 15.92566,-18.7662 14.31246,-8.8288 43.64755,-14.7124 -45.36302,-7.2416 -16.74219,-25.3961 -7.22414,-29.4346 -12.99249,-41.1869 -14.1173,-16.4077 -99.53105,-16.9189 -22.23035,101.7773 40.943,56.2583 89.6173,55.6268 154.9104,14.1068 24.0259,16.7608 6.96391,39.657 14.50561,62.6193 56.86,45.3561 -9.6119,-96.8765 48.8432,-122.8922 z m 112.9078,-142.4172 c 47.33844,-46.0016 -56.173,-159.8689 -20.8506,-59.2643 -10.303,15.7845 -10.2468,76.3028 20.8506,59.2643 z m -197.17341,-10.001 c 3.6205,-20.3761 -133.3056,-3.6861 -28.1836,2.8506 l 11.5678,0.5294 z m -75.0752,-17.1552 c 10.0055,-29.4323 33.6375,-16.1382 -11.5926,-25.3437 -7.3535,-34.0982 148.8245,-24.2552 88.1368,-62.4504 -56.1039,-13.7706 -173.3262,42.5855 -76.5442,87.7941 z m -56.9172,-52.2093 c 5.6017,-19.9298 -18.0511,-36.9036 0,0 z m -8.8631,-10.4437 c -3.8479,-20.7887 -10.47,5.0177 0,0 z"
               fill="#6c6244"
               id="path4539" />
            <path
               d="m 1380.4542,3237.3237 c 2.9334,-0.57 5.7941,-0.7589 6.3572,-0.4198 2.0753,1.2496 31.3953,-2.4231 44.6811,-5.5968 22.4943,-5.3736 34.8992,-16.1588 34.9487,-30.3856 0.018,-5.2384 -1.9765,-3.4352 -3.934,3.5561 -5.7792,20.6415 -43.0748,30.4968 -107.7549,28.4743 -42.1662,-1.3187 -63.5161,-9.8454 -90.0189,-35.9518 -11.1163,-10.95 -14.6444,-12.9941 -10.6879,-6.1925 5.3804,9.2495 27.0402,26.1905 44.1423,34.5256 20.1794,9.8348 61.9955,15.9296 82.2664,11.9905 z m 14,-38.681 c 23.8344,-2.7692 51.6409,-14.0876 61.1637,-24.8963 3.1075,-3.5271 6.5223,-7.3684 7.5884,-8.5361 6.7662,-7.4111 -8.9813,-45.88 -26.6478,-65.0968 -11.4287,-12.4315 -12.9895,-16.4908 -14.3984,-37.4467 -0.6656,-9.9 -2.6586,-25.8 -4.429,-35.3334 -1.7704,-9.5333 -3.9264,-21.2333 -4.7911,-26 -0.964,-5.3138 -2.7806,-10.1246 -4.6957,-12.4356 -2.3352,-2.8178 -3.1234,-5.4129 -3.1234,-10.2833 0,-10.9771 -1.396,-51.0763 -1.9013,-54.6144 -6.5806,-46.0768 -26.3883,-78.6667 -47.8124,-78.6667 -9.9654,0 -14.978,3.5991 -26.1891,18.8042 -21.5011,29.1608 -28.4041,31.2408 -37.1561,11.1958 -20.1804,-46.2198 -23.9456,-64.2966 -16.4516,-78.9861 4.7408,-9.2928 4.2059,-10.1791 -5.4819,-9.0831 -9.558,1.0815 -19.5188,4.9779 -23.4595,9.177 -4.6654,4.9713 -18.7258,35.7692 -21.7006,47.533 -3.3952,13.426 -7.1338,22.5434 -10.1477,24.7472 -2.3581,1.7243 -1.1382,10.722 2.9779,21.964 0.9436,2.577 1.704,8.277 1.6898,12.6667 -0.016,4.9793 1.0414,10.7765 2.8112,15.4128 6.5246,17.0916 12.0976,50.1296 12.1288,71.9019 0.012,8.4333 0.6111,21.6333 1.3312,29.3333 0.7201,7.7 1.9526,23.9 2.7389,36 4.294,66.0776 8.1168,79.3802 29.2554,101.8024 28.3694,30.0922 78.9314,46.3902 126.7003,40.8402 z m -142.6666,-14.8015 c 0,-0.8207 -2.0493,-4.8707 -4.5539,-9 -14.1911,-23.3964 -16.6717,-36.0928 -17.6925,-90.5563 -0.4575,-24.41 -1.3089,-44.6766 -1.892,-45.037 -2.0983,-1.2967 -2.6823,8.5605 -2.1379,36.0856 1.14,57.638 2.2424,66.2453 11.0189,86.0296 7.3787,16.6332 15.2574,28.2405 15.2574,22.4781 z m -848.99164,-5.9979 c 9.3547,-1.6554 18.9547,-3.6096 21.3333,-4.3424 2.3787,-0.7328 8.525,-2.1856 13.6583,-3.2285 14.024,-2.8492 69.3645,-17.0555 71.4427,-18.3397 0.9973,-0.6166 1.3446,-1.5898 0.7716,-2.1627 -0.9487,-0.9487 -75.3106,16.8788 -81.5476,19.5501 -1.4667,0.6283 -5.0667,1.4407 -8,1.8055 -12.8991,1.6041 -46.7792,7.9711 -47.8968,9.0011 -2.1248,1.9582 12.5197,0.8524 30.2385,-2.2834 z m -54.5728,-6.2948 c -8.5588,-7.0813 -37.6888,-27.5484 -39.2085,-27.5484 -2.5176,0 2.2454,4.7026 10.4853,10.3522 3.9957,2.7397 8.914,6.1812 10.9293,7.6478 13.9432,10.1468 26.9592,17.1314 17.7939,9.5484 z m 57.3764,-24.3104 c 11.8524,-1.8433 45.2592,-9.5229 83.1687,-19.119 16.7621,-4.243 21.1414,-5.8687 25.0464,-9.2972 2.6028,-2.2854 5.2914,-4.1551 5.9748,-4.1551 0.6833,0 4.253,-2.6739 7.9326,-5.9419 3.6798,-3.268 8.0498,-6.6662 9.7112,-7.5514 6.6336,-3.5344 94.7435,-89.1477 106.7242,-103.7001 12.7257,-15.4576 28.7437,-40.3744 39.5186,-61.4733 9.5046,-18.6115 11.604,-21.8044 13.5472,-20.6033 0.869,0.5369 1.874,-5.5519 3.4216,-20.73 1.5618,-15.3179 -9.8424,-51.5731 -24.9731,-79.3918 -14.4174,-26.5072 -22.5509,-38.0942 -22.5509,-32.126 0,9.6387 -18.468,37.7343 -35.8293,54.5075 -28.2267,27.2704 -33.2735,28.3905 -39.9879,8.8748 -8.7742,-25.5027 -31.7653,-43.8645 -54.9236,-43.8645 h -3.9364 l 0.6979,-17.6667 c 0.3837,-9.7167 0.9893,-22.6121 1.3456,-28.6565 0.3563,-6.0444 0,-16.8444 -0.7973,-24 -1.4002,-12.6062 -2.6122,-19.102 -9.8914,-53.0102 -1.889,-8.8 -4.9301,-24.7 -6.7577,-35.3333 -3.8259,-22.2593 -8.1808,-37.6272 -18.0473,-63.6875 -1.5922,-4.2052 -9.0296,-19.0458 -16.5278,-32.9792 -7.4982,-13.9333 -15.564,-28.9333 -17.9241,-33.3333 -2.3601,-4.4 -9.9691,-20.3 -16.9088,-35.3333 -11.6111,-25.1526 -24.5716,-50.4408 -56.2253,-109.7052 -6.572,-12.3046 -19.918,-39.9046 -29.6579,-61.3334 -9.7397,-21.4288 -19.1157,-40.4942 -20.8353,-42.3677 -1.7198,-1.8735 -3.1267,-4.0637 -3.1267,-4.8671 0,-1.4794 -16.1357,-31.6209 -28.0479,-52.3933 -13.5946,-23.7064 -18.6693,-43.6998 -14.7614,-58.1578 2.4498,-9.0637 23.4824,-32.2565 49.2774,-54.3389 25.4082,-21.7511 61.5159,-53.7701 63.5319,-56.3376 6.3131,-8.0404 20.2151,-13.8324 33.2001,-13.8324 7.7836,0 61.6886,25.3996 80.7318,38.0401 20.2593,13.4479 24.938,15.6335 29.745,13.8952 5.7882,-2.093 8.004,-0.935 23.0862,12.0647 44.7722,38.5903 82.375,103.555 94.5674,163.3798 1.9378,9.5077 5.258,24.493 7.3784,33.3006 l 3.8552,16.0139 0.9278,60.7296 c 0.6509,42.5995 0.4983,61.4971 -0.511,63.3007 -1.3576,2.4257 -1.479,2.3837 -2.1478,-0.7434 -13.9607,-65.269 -61.5994,-151.4416 -95.2024,-172.2094 -7.9474,-4.9118 -5.9423,-1.7499 9.1133,14.371 22.0473,23.6075 44.0459,57.4588 59.6113,91.7299 27.0349,59.5237 32.1492,113.3151 16.2466,170.8791 -2.6718,9.6714 -3.5467,25.9149 -1.3959,25.9149 1.8816,0 7.5716,10.8344 28.7097,54.6667 10.7863,22.3666 20.4679,41.1465 21.5146,41.7329 1.0467,0.5864 1.903,2.6085 1.903,4.4937 0,1.8851 1.5392,5.9052 3.4204,8.9338 1.8812,3.0284 7.4312,12.3849 12.3334,20.7921 11.9565,20.5057 23.2289,32.4097 37.8767,39.9989 6.0699,3.145 11.6917,6.2375 12.493,6.8724 4.8195,3.8188 21.6327,9.1155 32.8291,10.3422 25.6995,2.8156 60.2763,4.4576 65.9454,3.1316 3.0822,-0.721 6.0734,-0.793 6.7051,-0.1612 2.2915,2.2914 -0.828,28.192 -5.4344,45.1206 -2.5057,9.2087 -6.0617,23.0726 -7.9022,30.8087 -2.9904,12.5695 -6.3161,22.2479 -16.0131,46.6009 -3.4585,8.6858 -4.2205,49.0428 -1.127,59.6842 3.1291,10.7634 16.0378,20.9225 33.5403,26.3958 6.5073,2.035 9.7498,4.6376 28.7871,23.1067 35.1883,34.138 36.2443,34.8133 54.4363,34.8133 11.7555,0 11.0534,-0.3541 27.9181,14.0815 6.54318,5.6007 16.23774,7.5628 36.74964,7.4379 7.3082,-0.044 17.3063,-2.9176 21.1868,-6.0884 1.9738,-1.6128 8.5923,-4.247 14.7078,-5.8536 44.9864,-11.8188 77.7014,-34.4102 72.2938,-49.9224 -5.9946,-17.196 -32.5504,-22.8852 -59.0795,-12.657 -14.1088,5.4396 -10.1118,6.4716 6.4623,1.6687 24.3112,-7.0451 44.1312,-1.8275 49.79,13.1073 5.6565,14.9288 -67.4431,51.1243 -90.6367,44.879 -8.7829,-2.365 -35.7489,-21.4266 -51.58764,-36.4659 -6.8668,-6.5201 -9.3341,-5.398 -2.9369,1.3357 13.50634,14.2166 44.98994,37.3458 54.34264,39.9224 13.0551,3.5966 -7.822,7.9866 -27.1004,5.6986 -15.0219,-1.7828 -18.17095,-3.0956 -27.94824,-11.6515 -9.5648,-8.3699 -17.6623,-13.8157 -33.1904,-22.3216 -24.1062,-13.2047 -35.3101,-31.5116 -40.9047,-66.8373 -0.842,-5.3167 -2.0653,-9.6667 -2.7184,-9.6667 -1.4508,0 -3.1039,6.06 -2.0974,7.6887 0.3989,0.6454 1.6378,5.6294 2.753,11.0757 6.7151,32.7928 17.3059,47.1264 47.2595,63.9613 7.4592,4.1923 6.3703,5.8634 -4.126,6.3322 l -8.7601,0.3912 -30.5489,-30.3912 c -31.1534,-30.9927 -39.3486,-40.0703 -40.9789,-45.3912 -0.5055,-1.65 -1.4787,-3 -2.1627,-3 -1.7908,0 -1.698,0.284 3.2378,9.919 5.4444,10.628 4.2781,11.0868 -8.6531,3.4046 -15.178,-9.0171 -15.5791,-10.2444 -16.1194,-49.3236 -0.1807,-13.0707 0.2371,-16.5139 2.8315,-23.3334 6.9444,-18.2532 16.2721,-47.7717 20.2238,-64 7.8994,-32.4396 9.0287,-38.6609 10.5005,-57.8498 3.2402,-42.2427 17.0938,-83.5308 38.9791,-116.1703 4.6787,-6.9776 9.3414,-14.7776 10.3616,-17.3333 1.0203,-2.5556 1.9838,-4.8288 2.1412,-5.0518 0.4983,-0.7054 7.6819,4.1392 18.394,12.4052 47.08664,36.3343 116.81204,79.3334 128.64354,79.3334 3.7125,0 4.4076,-1.1784 20.4474,-34.6667 19.7539,-41.2427 19.5117,-50.9613 -1.5179,-60.8979 -36.5511,-17.2705 -60.4101,-30.4365 -68.7994,-37.9652 -3.0123,-2.7033 -4.5807,-3.1346 -4.5807,-1.2597 0,0.6659 1.7072,2.3159 3.7938,3.6667 2.0865,1.3509 8.8365,5.8365 15,9.9681 6.1634,4.1316 22.7715,13.2923 36.9068,20.3569 38.7979,19.3911 38.8476,19.6608 13.1853,71.4644 -7.5653,15.2719 -13.0542,24.8206 -14.4115,25.0706 -4.1022,0.7558 -64.5598,-33.9888 -91.80774,-52.7614 -14.2813,-9.8392 -54.1014,-40.6808 -57.6667,-44.6642 -5.6489,-6.3115 1.8277,-32.2171 15.7364,-54.5247 4.7279,-7.5828 8.5963,-14.3492 8.5965,-15.0364 8e-4,-2.3596 -8.2376,6.5887 -13.7327,14.9161 -6.4582,9.7868 -6.5539,9.8208 -9.3529,3.3334 -1.1865,-2.75 -4.2775,-7.9155 -6.869,-11.479 -2.5914,-3.5633 -4.7116,-7.554 -4.7116,-8.8678 0,-7.6696 44.9392,-52.7514 89.34394,-89.6271 3.2941,-2.7357 5.182,-4.9857 4.1952,-5 -3.673,-0.053 -16.17512,10.1239 -43.77404,35.6343 -8.9292,8.2534 -16.8453,15.0062 -17.5913,15.0062 -0.746,0 -4.8085,-6.15 -9.0279,-13.6666 -36.5777,-65.1626 -122.6199,-174.5476 -200.8126,-255.2924 -12.2833,-12.6843 -22.3333,-23.5947 -22.3333,-24.2455 0,-0.6507 -7.35,-7.3511 -16.3334,-14.8897 -8.9833,-7.5386 -21.7333,-18.9013 -28.3333,-25.2503 -6.6,-6.349 -15.9,-14.1406 -20.6667,-17.3146 -4.7666,-3.174 -18.8666,-13.4116 -31.3333,-22.7502 -42.0807,-31.5223 -122.8657,-79.924 -133.3972,-79.924 -0.8067,0 -6.3125,-2.1 -12.2353,-4.6667 -5.9228,-2.5667 -11.8784,-4.6931 -13.2347,-4.7252 -1.3564,-0.032 -4.7107,-0.8596 -7.454,-1.8387 -4.4815,-1.5994 -5.5461,-1.504 -10.4852,0.9396 -5.0387,2.493 -6.1921,2.5818 -13.8291,1.0638 -6.1842,-1.2294 -9.7537,-1.2846 -13.8482,-0.2146 -3.0339,0.793 -7.8763,2.0539 -10.7607,2.8019 -6.4357,1.6692 -22.0259,13.2971 -39.7664,29.6596 -15.5532,14.3451 -15.142,13.9877 -40.3225,35.0365 -32.424,27.1036 -50.4678,47.8216 -54.268,62.3108 -4.5107,17.1982 3.4569,37.8007 36.1158,93.3882 6.3836,10.8653 13.149,24.0653 15.034,29.3333 1.8851,5.268 4.0479,10.3482 4.8063,11.2892 0.7584,0.9412 7.5367,15.2115 15.0628,31.7118 12.4681,27.335 20.8485,43.7806 53.9704,105.9105 6.0596,11.3667 16.3523,32.0667 22.8724,46 6.5203,13.9333 21.3965,43.6333 33.0584,66 25.9321,49.7363 33.7899,70.8203 40.0013,107.3333 2.1208,12.4667 5.6494,30.7667 7.8412,40.6667 7.9923,36.0993 8.5192,40.0309 9.6494,72 1.7677,50.0059 1.9709,47.8309 -4.7702,51.0455 -8.856,4.223 -15.6036,21.1341 -17.4634,43.7668 -2.866,34.8761 -37.7735,103.1156 -87.2291,170.521 -5.6496,7.7 -11.6179,16.8507 -13.2631,20.335 -5.452,11.5472 -7.341,12.5724 -53.4182,28.9888 -23.9492,8.5325 -39.5199,15.5513 -42.5203,19.1665 -2.5455,3.0671 -1.11,5.7066 10.2259,18.8035 29.1426,33.67 58.3326,45.004 99.4397,38.6109 z m 144.188,-19.8777 c 3.9223,-2.8323 33.6729,-32.534 41.1085,-41.0411 2.0764,-2.3756 7.4883,-8.2192 12.0266,-12.9858 4.5381,-4.7667 17.6328,-19.1667 29.099,-32 11.4664,-12.8334 23.7768,-26.0703 27.3566,-29.4154 26.9821,-25.2139 47.5208,-69.4399 41.5316,-89.43 -2.4381,-8.1376 -3.1164,-6.1937 -3.2034,9.1796 -0.066,11.6088 -0.6549,15.7916 -3.1004,22.0113 -4.9651,12.6278 -26.0295,42.9227 -39.6242,56.9878 -11.8436,12.2534 -45.2144,49.3721 -71.1546,79.1461 -6.9382,7.9638 -18.6292,20.0702 -25.9797,26.9032 -12.8471,11.9427 -16.4529,16.7047 -8.06,10.6443 z m -255.3757,-11.0269 c 0.04,-7.9331 -1.3999,-10.7806 -3.1483,-6.2243 -1.4137,3.6843 -0.8756,9.2936 1.1483,11.9695 1.7894,2.3658 1.9612,1.8725 2,-5.7452 z m 933.33334,-83.6354 c 0.023,-2.9161 -2.3561,-20.3161 -5.2876,-38.6667 -2.9316,-18.3505 -6.8761,-43.2646 -8.7657,-55.3646 -4.04,-25.8707 -4.385,-27.177 -6.0405,-22.8768 -0.6613,1.7176 -0.9069,3.601 -0.5459,4.1852 1.622,2.6245 5.2028,22.8622 6.728,38.0249 0.2212,2.2 0.7761,6.1 1.233,8.6667 0.4568,2.5666 1.0811,6.4666 1.3872,8.6666 0.5377,3.8642 1.2329,8.2644 2.634,16.671 0.3667,2.2 0.9667,5.8 1.3333,8 1.7117,10.2698 2.1512,13.0245 2.8714,17.9957 0.425,2.9333 0.7047,7.4611 0.6217,10.0617 -0.083,2.6007 0.7354,5.9007 1.8188,7.3334 1.8452,2.4401 1.9725,2.2695 2.0123,-2.6971 z m -164.6127,-60.698 c -0.5314,-2.5667 -1.9961,-5.8667 -3.255,-7.3333 -5.6186,-6.5462 -10.8562,-22.4106 -12.758,-38.6432 -0.514,-4.3872 -2.1081,-11.113 -3.5423,-14.9463 -2.0266,-5.4165 -2.2814,-7.5793 -1.1435,-9.7056 2.4579,-4.5925 11.5998,-42.3047 14.8253,-61.1568 2.8909,-16.8969 2.952,-18.5951 1.2239,-34 -2.4573,-21.9056 -2.3373,-24.308 1.6756,-33.5596 5.6161,-12.9476 7.956,-36.6552 3.6178,-36.6552 -1.2609,0 -1.6697,1.8693 -4.6654,21.3333 -2.3145,15.0379 -4.1816,21.3334 -6.3271,21.3334 -0.8635,0 -1.0451,3.7089 -0.5061,10.3333 3.2054,39.3937 1.2907,57.3551 -10.6073,99.5053 l -4.8472,17.172 2.7377,4.8712 c 1.7964,3.1962 3.1828,9.2118 4.0319,17.4947 1.7128,16.7072 10.0093,38.8957 16.9478,45.3261 l 3.558,3.2974 z m -82.55004,1 c -1.2083,-1.65 -3.9248,-6.6796 -6.0366,-11.1768 -3.7708,-8.0301 -6.7637,-11.6801 -6.7528,-8.2352 0,0.9599 2.0907,5.0453 4.6392,9.0787 2.5484,4.0333 5.2311,8.6833 5.9614,10.3333 0.7304,1.65 2.0159,3 2.8569,3 0.9518,0 0.6996,-1.1324 -0.6681,-3 z m -106.2716,-50.6667 c 3.275,-10.1604 4.0488,-28.3497 0.826,-19.4178 -1.2186,3.3774 -4.6434,19.1082 -4.6629,21.4178 -0.033,3.8668 2.3454,2.6274 3.8369,-2 z m 334.76764,-25.3333 c -0.038,-12.3079 -0.237,-13.4093 -2,-11.0785 -1.9922,2.634 -2.7898,18.3582 -1.1483,22.6361 2.025,5.2771 3.1873,1.0101 3.1483,-11.5576 z m -240.71924,-57.2804 c 0.5064,-9.0124 1.7849,-22.342 2.8412,-29.6211 2.2837,-15.7385 2.356,-18.0985 0.5541,-18.0985 -3.9282,0 -8.2232,27.1715 -7.6743,48.5503 0.5349,20.8342 3.0896,20.3384 4.279,-0.8307 z m -47.0833,-0.4263 c 3.8125,-8.6188 6.2015,-21.6034 7.2665,-39.4948 1.643,-27.6022 -1.9918,-34.6974 -4.5074,-8.7985 -1.7985,18.5157 -3.9169,37.0253 -5.4172,47.3333 -1.247,8.5676 -0.7815,8.7358 2.6581,0.96 z m 162.06754,-40.3292 c 8.9414,-7.6884 31.4719,-69.6308 25.3269,-69.6308 -2.2644,0 -3.1683,2.2771 -13.4962,34 -7.0292,21.5906 -13.915,36.6667 -16.7469,36.6667 -0.7185,0 -1.3064,0.6 -1.3064,1.3333 0,2.1547 1.7252,1.4979 6.2226,-2.3692 z m -186.34004,-8.1326 c 5.2687,-7.3991 9.5058,-23.5835 4.9178,-18.7839 -2.0411,2.1352 -9.2204,21.3101 -8.317,22.2136 0.3075,0.3075 1.8371,-1.2359 3.3992,-3.4297 z m 393.93594,-11.5395 c 5.0471,-6.0379 5.6851,-8.0977 2.039,-6.5832 -2.2716,0.9435 -8.1188,9.8405 -7.5631,11.5077 0.2207,0.6623 2.7066,-1.5538 5.5241,-4.9245 z m -180.4852,2.594 c 23.5,-2.9273 20.9095,-21.4354 68.8141,-28.5001 36.0149,9.2617 106.2714,0.512 145.7274,-18.1491 6.8979,-3.2624 12.8024,-5.6708 13.1211,-5.352 0.3188,0.3188 -5.2781,6.1751 -12.4375,13.014 -22.4677,21.4623 -27.5227,26.5813 -26.8815,27.2225 1.3708,1.3708 18.5667,-12.9576 34.1074,-28.42 9.048,-9.0024 16.7121,-16.368 17.0312,-16.368 0.3191,0 0.1799,4.8 -0.3093,10.6667 -0.7532,9.0313 -0.5799,10.6667 1.1306,10.6667 1.6315,0 2.1934,-2.8854 2.9208,-15 2.6414,-43.992 11.2677,-101.811 20.8775,-139.9347 1.4236,-5.6473 3.7583,-20.9473 5.1884,-34 7.1533,-65.292 28.9129,-121.4313 67.2405,-173.4799 14.5536,-19.7634 21.2112,-29.6213 20.4914,-30.3412 -1.6844,-1.6844 -24.5368,24.9042 -34.1057,39.6816 -2.704,4.1759 -5.2696,7.6259 -5.7014,7.6667 -2.2172,0.2095 -5.5097,-67.5987 -4.0507,-83.4225 2.3873,-25.8918 10.9984,-50.5459 25.7658,-73.7692 5.6314,-8.856 7.737,-14.5451 3.3895,-9.158 -11.0024,13.6333 -36.4626,48.7112 -47.2438,65.0905 -4.103,6.2333 -13.5702,20.6333 -21.0382,32 -7.4681,11.3667 -18.5832,26.9667 -24.7002,34.6667 -20.2315,25.467 -106.5551,110.4476 -118.5105,116.6666 -2.8195,1.4667 -10.9638,8.8102 -18.0985,16.319 -7.1347,7.5086 -19.7525,18.7449 -28.0396,24.9693 -8.2871,6.2244 -19.4823,16.0615 -24.8781,21.8601 -8.2954,8.9146 -32.1814,29.324 -42.7763,36.5503 -2.7344,1.8651 -2.8246,2.2459 -0.9126,3.8521 1.167,0.9804 3.8062,4.7826 5.8651,8.4492 2.0588,3.6667 8.6672,13.8667 14.6853,22.6667 29.3829,42.9651 30.5358,61.5312 6.3832,102.7901 -5.1117,8.7322 -12.5403,21.8766 -16.508,29.2099 -9.1202,16.8564 -17.7687,25.9159 -27.8807,29.2055 -14.2547,4.6372 -13.3035,6.5496 1.3333,2.6805 z m 338.6667,-9.8347 c 4.0333,-4.3329 12.5833,-13.416 19,-20.1845 6.4167,-6.7687 11.6667,-13.0159 11.6667,-13.8829 0,-0.867 1.1333,-2.118 2.5184,-2.7802 3.0063,-1.4369 76.5244,-83.464 95.384,-106.4237 18.738,-22.8117 31.5128,-40.332 59.399,-81.464 25.589,-37.7436 42.0513,-60.4657 64.7101,-89.316 16.6057,-21.1433 24.8967,-32.8695 23.9264,-33.8399 -2.8249,-2.8249 -57.6044,68.1523 -89.9259,116.516 -33.214,49.6994 -53.4748,76.2646 -85.4132,111.9906 -9.8338,11 -30.1269,33.8 -45.0958,50.6666 -14.969,16.8667 -31.0209,34.8667 -35.671,40 -4.6501,5.1334 -9.4885,10.8334 -10.7521,12.6667 -1.2636,1.8333 -6.1273,7.9833 -10.8083,13.6667 -10.0384,12.1878 -9.3995,13.6228 1.0617,2.3846 z m -398.6616,-11.718 c 0,-2.75 2.4069,-12.8 5.3425,-22.3333 5.3313,-17.3133 8.2884,-33.3059 5.6703,-30.6667 -0.7275,0.7334 -2.921,7.3334 -4.8745,14.6667 -1.9535,7.3333 -5.1171,19.1364 -7.0302,26.2291 -1.9132,7.0928 -3.1151,13.8428 -2.671,15 1.4801,3.857 3.5578,2.1682 3.5629,-2.8958 z m -404.00934,-42.4 c 0,-0.6966 -0.8879,-6.3666 -1.9679,-12.6 -2.5989,-14.9996 -3.5736,-23.7897 -4.0658,-36.6666 -0.5342,-13.9759 -0.5412,-12.8627 0.1694,-26.6667 0.8956,-17.3944 0.8931,-18.0865 -0.068,-19.048 -6.5258,-6.5257 -1.8012,88.0111 4.7468,94.9813 0.7516,0.8 1.1884,0.8 1.1858,0 z m 436.07644,-44.3068 c 10.1766,-5.0793 12.1989,-19.0612 3.5222,-24.3518 -6.9716,-4.2508 -11.0905,-3.4895 -14.2107,2.6266 -8.2289,16.13 -2.2893,28.2027 10.6885,21.7252 z m -440.44804,-59.8681 c -0.5204,-7.9776 -3.0257,-8.9349 -4.0183,-1.5355 -0.8432,6.2864 -0.3661,7.7771 2.4886,7.7771 1.4758,0 1.84,-1.4859 1.5297,-6.2416 z m 409.16614,-196.7592 c 38.8975,-39.4629 53.2351,-55.8752 95.221,-108.9992 50.2105,-63.5307 75.8568,-91.5339 134.5471,-146.9126 38.859,-36.6664 53.6468,-51.7541 50.7252,-51.7541 -0.9002,0 -8.6027,6.45 -17.1167,14.3333 -95.2016,88.1497 -118.049,111.8979 -162.5886,169.0001 -52.5715,67.3994 -103.8719,127.099 -111.222,129.4318 -1.351,0.4288 -3.8657,2.982 -5.5884,5.6739 -1.7226,2.6919 -6.574,8.6704 -10.7809,13.2855 -18.0054,19.7529 -3.9092,7.1001 26.8033,-24.0587 z m -3.087,-41.3307 c -9.9242,-41.6846 -92.24714,-148.8552 -194.43754,-253.1247 -25.4481,-25.9657 -57.7435,-59.5082 -71.7675,-74.5388 -37.2181,-39.8894 -52.5466,-55.4012 -53.6531,-54.2946 -0.5389,0.5389 4.3758,6.5245 10.9216,13.3014 6.5458,6.7768 20.3011,21.6066 30.5674,32.955 10.2662,11.3484 34.5659,37.012 53.9992,57.0301 59.4858,61.276 83.4604,86.7347 103.2766,109.6698 46.4575,53.7692 91.70944,116.4336 110.45304,152.9542 8.8287,17.2022 12.0841,22.1119 10.6403,16.0476 z m 701.5286,-71.0724 c 0.4674,-1.862 0.4371,-4.053 -0.067,-4.8692 -0.5043,-0.8161 -1.1226,-4.5385 -1.3739,-8.272 -0.2513,-3.7336 -0.6888,-8.2882 -0.9723,-10.1216 -0.2834,-1.8333 -0.9272,-6.3333 -1.4306,-10 -4.9275,-35.8908 -24.3054,-98.5548 -35.5187,-114.8597 -11.8403,-17.2167 -36.3691,-31.7827 -58.1986,-34.56 -3.4854,-0.4435 -8.1371,-1.023 -10.3371,-1.2876 -2.2,-0.2648 -6.7,-0.8072 -10,-1.2055 -3.3,-0.3981 -8.1,-1.08 -10.6667,-1.5152 -30.467,-5.1659 -56.9774,1.1071 -80.6666,19.0875 -17.96,13.6317 -41.8669,37.1019 -35.4324,34.7849 0.6789,-0.2444 9.8289,-7.7733 20.3333,-16.7308 41.6898,-35.5504 51.7525,-38.7661 103.0991,-32.9469 54.1782,6.14 76.023,20.2236 89.8077,57.9 11.4027,31.1659 28.1923,103.6661 28.1923,121.7389 0,5.7552 2.0497,7.5674 3.2319,2.8572 z m -705.8995,-22.5949 c 3.769,-4.5415 -3.8566,-13.962 -12.8836,-15.916 -3.4845,-0.7543 -4.3633,-0.4551 -5.0539,1.7208 -3.0071,9.4745 11.9994,21.3501 17.9375,14.1952 z m -31.4812,-6.6679 c -0.9307,-4.5688 -9.3735,-22.2637 -23.53854,-49.3333 -6.2815,-12.0041 -14.4723,-31.2779 -22.9486,-54 -21.0136,-56.3308 -19.8429,-51.1182 -20.0631,-89.3334 -0.2527,-43.8557 -0.784,-45.6378 -19.2793,-64.6666 -20.295,-20.8803 -22.757,-30.4058 -13.0043,-50.3123 10.9654,-22.3816 11.3967,-37.2037 2.2075,-75.8593 -4.6726,-19.6563 -5.4121,-25.1016 -6.5183,-48 -2.4407,-50.5214 -17.2077,-110.1971 -36.5807,-147.8284 -24.3475,-47.2939 -26.2105,-52.0056 -32.1334,-81.2678 -4.327,-21.3778 -5.467,-28.6956 -8.0071,-51.3989 -2.3547,-21.0453 -7.1712,-42.3197 -12.1088,-53.4847 -3.1415,-7.1033 -6.11,-9.7829 -3.3467,-3.0209 6.0345,14.7669 10.0998,34.7935 14.1771,69.8389 5.5861,48.0136 14.1263,75.9598 33.4309,109.3959 11.9042,20.6183 19.6508,40.3516 26.4719,67.4328 1.9169,7.6109 4.6368,18.338 6.044,23.838 5.2044,20.3404 8.1454,41.1203 9.341,66 1.3183,27.4341 1.8083,30.8051 7.8965,54.3137 7.8122,30.1659 6.9954,47.5966 -3.2243,68.8051 -10.5113,21.8139 -7.8813,32.0429 13.9405,54.2184 17.7401,18.0276 17.9849,18.858 17.5781,59.6275 -0.3325,33.3173 0.7286,40.8513 8.8774,63.0353 22.1722,60.3607 24.6626,66.3215 40.1083,96 8.77794,16.8667 17.20524,32.7667 18.72734,35.3334 l 2.7674,4.6666 z m -26.74004,-138.8889 c 2.7454,-2.7455 0.7857,-12.2942 -3.2139,-15.6596 -10.7902,-9.0794 -18.7398,-3.4088 -12.971,9.2524 2.4449,5.3661 13.0341,9.558 16.1849,6.4072 z m -536.4445,-125.1106 c 0,-0.4529 -1.7697,-3.0384 -3.9328,-5.7453 -4.8978,-6.1297 -6.6594,-13.6309 -6.7013,-28.5363 -0.064,-22.618 -3.2536,-45.7693 -5.502,-39.929 -0.6613,1.7176 -0.7647,3.8176 -0.2296,4.6666 1.2277,1.9484 1.9761,14.2463 1.7484,28.7348 -0.2157,13.722 2.8517,26.731 8.1025,34.3628 3.732,5.4242 6.5148,8.1778 6.5148,6.4464 z m 497.3334,-56.3129 c 9.9622,-3.4979 8.8947,-24.3543 -1.2466,-24.3543 -7.8929,0 -13.4201,6.2752 -13.4201,15.2364 0,6.2106 8.2824,11.3595 14.6667,9.1179 z m 347.99994,-7.9795 c 0,-1.3056 -8.9924,-27.2373 -14.0009,-40.3748 -22.6527,-59.4196 -41.0679,-122.4993 -48.072,-164.6666 -3.9181,-23.589 -6.7947,-30.796 -5.3219,-13.3334 3.5722,42.3547 20.6622,103.2016 49.9944,178 1.2941,3.3 5.2061,13.5 8.6934,22.6667 5.9553,15.6545 8.707,21.2508 8.707,17.7081 z m -618.58844,-12.0414 c -0.7419,-1.2834 -3.73,-5.6334 -6.6402,-9.6667 -41.6247,-57.6893 -50.1656,-83.2993 -61.4973,-184.4007 -5.0932,-45.44 -14.3086,-109.146 -16.9151,-116.9326 -3.0913,-9.2352 -0.9999,10.6941 5.5968,53.3333 1.872,12.1 5.4696,40 7.9947,62 12.0038,104.5848 20.8028,132.2344 57.7329,181.4196 10.6752,14.2176 18.2646,22.0939 13.7282,14.2471 z m 873.89144,-23 c -4.4724,-23.3875 -21.5718,-83.2519 -32.3719,-113.3334 -8.9881,-25.0344 -25.8052,-61.5661 -38.9756,-84.6666 -2.9267,-5.1334 -6.222,-11.2834 -7.3229,-13.6667 -1.1009,-2.3833 -2.5936,-4.3333 -3.3171,-4.3333 -2.0719,0 -1.5338,5.0786 0.6687,6.3112 3.0718,1.719 28.966,55.6549 39.2181,81.6888 11.0403,28.0352 21.2087,59.1226 31.4007,96 6.7658,24.4805 12.597,41.9197 10.7,32 z M 435.04186,1871.6667 c 0.277,-0.9166 1.0924,-4.0666 1.8116,-7 4.2449,-17.3118 12.0185,-40.9096 18.4477,-56 12.5245,-29.3974 17.6616,-45.2702 22.5895,-69.7966 5.5325,-27.5366 8.7185,-39.3246 17.7246,-65.579 15.1166,-44.0674 27.6831,-105.291 21.6116,-105.291 -1.3828,0 -2.0177,2.7482 -4.159,18 -3.8855,27.6746 -10.1256,52.2346 -21.9211,86.2788 -8.1655,23.5666 -12.1296,38.4136 -17.2892,64.7529 -4.3483,22.1979 -8.4296,35.158 -17.7271,56.2909 -11.8521,26.94 -20.1708,53.8108 -22.3962,72.344 -0.8196,6.8256 -0.033,10.4344 1.3076,6 z m 508.8047,-72.4044 c 5.4559,-6.574 -4.2453,-21.9289 -13.8547,-21.9289 -2.3889,0 -10.2043,8.7156 -10.2043,11.3797 0,7.1035 19.7365,15.7575 24.059,10.5492 z m 523.17294,-131.9994 c 0.4673,-1.862 0.4474,-4.0363 -0.044,-4.8318 -0.4917,-0.7956 -1.0706,-3.618 -1.2865,-6.2721 -1.6363,-20.1139 -11.2965,-58.3931 -23.2574,-92.1589 -5.2409,-14.7952 -21.3104,-70.6655 -21.3104,-74.0919 0,-0.3161 -0.6272,-0.5748 -1.3938,-0.5748 -2.4845,0 8.9874,48.6785 16.0545,68.124 15.0832,41.5017 25.4319,80.0608 27.5215,102.5439 0.9335,10.0441 2.3321,12.7769 3.7163,7.2616 z m -565.94394,0.1253 c 2.3549,-2.8375 0.5381,-9.0837 -3.8707,-13.3075 -7.3076,-7.0012 -21.4173,-5.4414 -21.4173,2.3675 0,8.2721 20.2365,17.0267 25.288,10.94 z m 157.72834,-63.0548 c 1.1483,-2.75 3.0912,-9.5 4.3175,-15 4.1193,-18.4752 6.2845,-24.9612 7.344,-22 1.3689,3.8259 8.2275,-18.1875 12.4626,-40 6.1701,-31.7781 7.9262,-51.7981 8.0702,-92.0004 0.1311,-36.6109 0.1926,-37.4165 3.1713,-41.5997 6.4942,-9.1202 9.9034,-18.9102 10.6276,-30.5182 0.8876,-14.2266 1.2921,-14.5614 14.5474,-12.0382 65.5624,12.48 114.3286,28.626 193.7764,64.1576 30.8859,13.8132 32,14.2589 32,12.8037 0,-0.6209 -6.45,-3.9804 -14.3333,-7.4652 -7.8834,-3.4849 -17.0334,-7.7257 -20.3334,-9.424 -28.7848,-14.814 -95.7409,-41.1203 -120.364,-47.2895 -6.0331,-1.5116 -12.9552,-3.3792 -15.3824,-4.1502 l -4.413,-1.402 0.8623,-6.9022 c 0.5079,-4.0648 -0.034,-13.38 -1.3168,-22.6602 -2.0366,-14.7273 -2.0314,-16.1449 0.08,-21.6742 2.3893,-6.2563 2.3076,-12.5026 -0.687,-52.504 -2.3042,-30.7788 -7.2877,-39.567 -50.2796,-88.6667 -46.5714,-53.1877 -62.5428,-81.9332 -65.7944,-118.4177 -2.3681,-26.5709 -4.0387,-58.54052 -4.0387,-77.28924 0,-14.3288 19.1727,-28.42284 14.9481,-57.87011 -9.1194,-63.56605 -13.0733,-75.95468 -34.826,-109.11967 -7.8937,-12.03493 -10.6234,-16.95801 -12.8452,-23.16615 -9.9769,-27.8782 -39.07904,-52.90467 -75.27294,-64.73124 -7.1431,-2.33407 -12.9875,-4.96963 -12.9875,-5.8568 0,-3.40103 7.8127,-8.75525 19.6667,-13.47804 17.6146,-7.01792 16.6968,-8.63392 -4.9036,-8.63392 -9.4802,0 -21.6302,0.57035 -27,1.26745 -5.3697,0.6971 -14.9804,1.6017 -21.3571,2.01022 -74.6581,4.78301 -125.2445,37.20469 -128.4514,82.32684 -1.0427,14.67088 -0.8369,14.38391 -10.3778,14.46908 -81.518,0.72768 -136.6567,12.46481 -172.2435,36.66476 -18.7657,12.76119 -13.1812,6.43707 -36.5569,22.14159 -43.2931,29.08564 -43.5107,45.42503 -62.2741,74.72824 -15.2084,47.19605 -6.09763,72.53731 13.14927,108.00299 4.7052,9.9079 8.64276,3.4536 15.20901,-11.488 3.37695,-7.6843 24.09995,-21.01408 69.80762,1.9334 13.00289,6.5281 32.52161,-0.2805 43.51611,-8.1692 26.4434,-18.97322 74.18359,-25.88169 111.56599,-19.50725 8.0116,1.36613 16.2968,2.56604 18.4114,2.66648 2.1147,0.1004 9.9147,2.35752 17.3334,5.01576 43.3846,15.54551 43.4397,76.08691 38.3858,96.15751 64.0444,7.8923 38.3133,102.9334 101.3983,73.6519 -2.4269,-16.3726 7.4799,-40.7251 10.3519,-51.9374 7.4193,-36.558 12.4426,-66.1407 48.3619,-28.9039 10.2163,10.3008 28.86534,75.5933 27.11333,94.927 -3.3591,37.069 -26.72143,60.5169 -48.90363,62.9759 12.8357,7.7251 21.4924,54.0455 37.3887,60.6296 1.29,6.2545 2.073,7.6666 4.2512,7.6666 52.53244,21.0424 16.26764,88.921 -0.3985,104.9372 -23.5819,21.8968 -49.5238,33.2034 -86.4112,37.6615 -12.9099,1.5603 -14.5361,2.0257 -12.8761,3.6857 1.6636,1.6636 38.1117,-3.6462 49.3491,-7.1892 36.6395,-11.5518 64.04924,-36.0886 81.76634,-73.1961 l 5.0447,-10.5657 0.8417,26 c 1.2561,38.796 5.1913,55.165 21.7964,90.6666 17.2678,36.9183 17.8621,44.951 6.7908,91.7866 -3.3526,14.1826 -6.0956,26.9326 -6.0956,28.3333 0,4.6344 4.7502,2.9735 7.0163,-2.4532 z m -32.9974,-264.7464 c -1.1802,-9.8979 -22.1786,-24.6602 -31.12644,-27.4936 -2.829,-0.7566 -3.5592,-1.7523 -3.5592,-4.8536 v -3.9017 l 9.33334,-0.1511 c 15.737,-0.3207 36.1716,12.1063 28.9926,30.6305 -0.8243,1.8344 -0.8126,3.8827 0.033,5.751 1.8119,4.0038 0.028,11.4573 -1.9126,7.9901 -0.7399,-1.3221 -1.5321,-4.9093 -1.7605,-7.9716 z m -50.01894,217.8813 c 9.6804,-3.096 16.461,-8.1997 32.33334,-24.3374 9.35,-9.5064 17,-18.2604 17,-19.4535 0,-1.2149 -7.4778,5.4169 -17,15.0768 -17.55454,17.8084 -25.94254,23.7389 -35.80684,25.3163 -6.5417,1.0461 -7.3204,0.1725 -10.4503,-11.7223 -9.2538,-35.168 -39.4408,-66.7904 -67.8213,-71.0463 -8.8242,-1.3233 -7.7709,0.9183 1.7456,3.7148 24.0624,7.071 40.5198,21.8228 55.1688,49.4515 3.6934,6.9657 10.164,24.7441 10.164,27.9259 0,4.2844 8.2317,7.1322 14.6667,5.0742 z m -232.2988,-17.4682 c -9.0209,-22.6075 -31.9057,-67.9958 -25.8823,-51.3334 7.3573,20.3522 20.6266,48.4043 24.3183,51.4102 2.0693,1.6848 2.2631,1.6753 1.564,-0.077 z m 123.7718,-17.8747 c 11.676,-5.172 2.0297,-20.792 -12.8403,-20.792 -9.3676,0 -10.9038,3.5156 -7.138,16.3348 1.4168,4.8225 13.2124,7.4541 19.9783,4.4572 z m -112.331,-2.2679 c 8.3796,-28.9274 22.3283,-40.2233 45.0969,-36.52 4.8232,0.7844 5.4787,0.6434 4.0264,-0.8669 -2.4986,-2.5981 -8.73183,-2.7384 -15.08813,0.076 -11.345,5.0236 -31.90807,17.0642 -34.55867,31.0405 -1.1743,6.1921 -0.7894,10.8025 0.5235,6.2702 z m -243.6225,-3.9269 c -6.3675,-31.8369 17.69597,-86.2856 41.95557,-135.1861 5.2068,-10.4953 6.5257,-15.4141 2.6816,-10 -18.0252,25.3867 -52.36797,95.8846 -50.26027,120.5889 1.5084,17.6805 3.4677,28.6667 5.1125,28.6667 0.7655,0 0.981,-1.7174 0.5106,-4.0695 z m 321.0608,-30.4575 c 1.5588,-2.5222 -8.795,-3.8973 -12.3545,-1.6408 -1.2485,0.7915 -0.5078,1.378 2.5,1.9796 5.8852,1.1771 8.9835,1.0706 9.8545,-0.3388 z m -25.2994,-15.7996 c 0.062,-2.3681 -0.1382,-8.6816 -5.0297,-23.4981 -2.2654,-6.8617 -6.5046,-13.0315 -7.9672,-16.3315 -3.1004,-6.9952 -3.7485,-4.2218 -0.9,3.8515 2.8364,8.0395 13.796,39.8537 13.8969,35.9781 z m -96.42473,-37.1476 c 18.713,-3.4568 34.303,-4.4511 46.8232,-15.2805 7.7075,-6.7845 7.6128,-8.9231 -0.1334,-3.0103 -19.0947,10.8683 -28.0985,12.3595 -50.3937,14.8418 -32.8549,-0.4148 -48.2138,-5.191 -70.7571,-36.6657 -6.4122,-8.9527 -9.6009,-12.1583 -9.6009,-9.6522 0,8.2868 28.8027,35.9363 42.7922,42.7202 14.1897,6.881 24.1027,9.9479 41.2697,7.0467 z m 119.72633,-88.945 c 28.2711,-15.6091 33.7384,-36.9973 41.4244,-55.195 5.6662,-13.4156 2.8571,-14.1261 -3.541,-0.8956 -7.7175,15.9588 -13.1351,37.9259 -30.6552,47.5382 -5.1138,8.2516 -30.23133,19.0722 -68.28443,77.8454 13.366,-14.1981 22.21933,-37.253 61.05623,-69.293 z m -148.46182,15.6705 c 5.1333,-0.6968 16.83599,-5.0347 17.56931,-5.804 0.84291,-0.8842 -15.06269,1.1308 -32.18211,-0.3898 -12.03547,-1.0689 -26.71821,-6.118 -27.74078,-5.486 -5.29383,3.2719 23.74688,14.2057 42.35358,11.6798 z m -73.21215,-6.8793 c 0,-7.5234 -22.4931,-39.2816 -43.607,-67.7833 -36.0286,-48.6351 -38.9047,-84.1783 -32.7054,-124.8997 3.0534,-20.0569 -2.2749,-20.167 -4.8401,0.2299 -6.0466,48.0784 -3.7254,80.5467 34.452,128.8034 11.7032,14.793 32.1879,44.4433 40.4468,57.6295 3.5457,5.6612 6.2537,8.2681 6.2537,6.0202 z m 55.04321,-15.5257 c 0,0 23.2572,-6.1655 39.94453,-10.5781 l 19.91505,-0.061 c 0,0 -22.3998,-4.1293 -33.8538,-2.7187 -11.454,1.4107 -23.12068,7.8218 -33.87308,8.3444 -19.6223,0.954 -36.44837,-1.0838 -29.94197,1.39 3.3019,1.2553 37.80927,3.6238 37.80927,3.6238 z m -18.24067,-66.7393 c 4.5385,-2.4686 9.6692,-7.8878 8.5384,-9.0186 -0.266,-0.2659 -4.0178,1.3691 -8.3374,3.6334 -17.0297,8.9267 -40.4512,3.246 -40.4512,-9.8111 0,-3.2339 -2.1061,-5.8379 -3.5522,-4.3918 -2.3343,2.3343 3.3672,16.3509 7.6758,18.8704 6.8388,3.999 29.2744,4.4447 36.1266,0.7177 z m 42.7499,-23.0794 c 5.8904,-5.0459 6.2004,-7.8976 1.5951,-14.6749 -4.2634,-6.2742 -7.1222,-5.1878 -3.1711,1.2051 3.4698,5.6144 2.6302,10.5483 -2.5196,14.8053 -1.9641,1.6236 -2.9711,2.9511 -2.2378,2.9499 0.7333,0 3.5834,-1.9296 6.3334,-4.2854 z m -77.9631,-15.07 c -6.34955,0 4.577,-28.0424 3.6318,-51.339 -0.5178,-12.7642 -0.9728,-28.7576 -1.011,-35.5409 -0.081,-14.4488 -0.1522,-14.5624 -3.1472,-5.0609 -2.1763,6.9039 -2.1703,8.2278 0.1186,26.1329 2.631,20.5833 2.263,33.8521 -1.4636,52.7747 -2.2562,11.4569 8.40108,13.0332 1.8716,13.0332 z m -34.89654,-76.3361 c 0,-0.6463 -4.05,-1.8616 -9,-2.7007 -4.95,-0.839 -10.35,-1.8969 -12,-2.3509 -1.8409,-0.5064 -3,-0.2373 -3,0.6965 0,0.8371 1.35,2.0212 3,2.6314 4.6123,1.7058 21,3.0509 21,1.7237 z m 131.37434,-0.8363 c 0.3442,-0.3442 6.6822,-1.5355 14.0844,-2.6473 13.6968,-2.0572 21.3798,-4.1923 20.0111,-5.561 -0.4178,-0.4178 -3.651,-0.1541 -7.1849,0.586 -3.534,0.7401 -13.1754,2.1022 -21.4254,3.027 -8.25,0.9247 -15,2.1136 -15,2.6419 0,1.9157 7.9253,3.5428 9.5148,1.9534 z m -123.611,-25.4651 c 0.8454,-3.3688 1.2474,-3.18 -15.6474,-7.3492 -9.114,-2.249 -31.0814,-0.9735 -34.0285,1.976 -2.0823,2.0839 -1.3783,2.17 10.7721,1.3168 14.0008,-0.9832 38.4712,5.7798 38.9038,4.0564 z m 146.6435,-10.7465 c 2.3777,-6.1961 -37.5961,1.4012 -43.2561,8.2211 -2.2923,2.762 -0.052,2.563 10.9167,-0.9696 10.2391,-3.2978 31.9321,-6.19 32.3394,-7.2515 z m 11.8295,-1.3171 c 0.4517,-0.4517 2.8017,-1.3068 5.2222,-1.9004 3.483,-0.854 2.6152,-1.0303 -4.1598,-0.8454 -5.4883,0.1498 -8.7583,0.8319 -9.1111,1.9003 -0.5677,1.7196 6.4387,2.4555 8.0487,0.8455 z m -147.0434,-0.9664 c 0,-7.1498 -49.8774,-22.3025 -72.9231,-22.1539 -7.948,0.051 -9.14547,-0.052 -18.36867,3.5704 -12.04153,-54.8721 -4.94743,-31.5151 -2.08543,-53.6374 -0.6542,-1.2351 16.51597,-22.8796 -1.16308,-9.7479 -1.70219,10.1013 -9.7085,37.2553 0.44982,65.6673 0.51682,1.4455 0.96146,3.0675 2.28286,4.2632 1.7168,1.5537 6.5028,2.473 16.7716,3.2215 7.9032,0.5761 23.6693,2.9034 35.036,5.1718 27.4281,5.4738 40,6.6194 40,3.645 z m 81.3333,-4.2819 c 1.1,-0.2347 8.3,-1.4052 16,-2.6011 7.7,-1.1959 23.9,-4.578 36,-7.5158 12.1,-2.9378 27.3391,-6.1667 33.8646,-7.1754 12.6336,-1.953 15.8136,-3.4953 12.9992,-6.3049 -1.2284,-1.2263 -8.7851,-1.655 -28.6,-1.6226 -39.1725,0.064 -61.1721,5.4193 -76.6066,18.6483 -7.3841,6.329 -4.8455,8.9592 6.3428,6.5715 z"
               fill="#1a1817"
               id="path4541" />
          </g>
          <path
             d="m 704.08568,1145.72 c 8.84801,0.2014 15.98399,-13.8432 12.87676,-19.8519 -1.26151,-2.4395 -20.09627,-3.8573 -24.48973,1.7282 -1.47731,11.0318 0.82087,18.3502 11.61297,18.1237 z"
             fill="#70744a"
             stroke-width="1.45868"
             id="path4545" />
          <path
             d="m 566.49969,1133.1805 c 0.3431,-3.3199 -17.21554,-11.3887 -21.67121,-1.378 -2.08881,4.6931 -1.54181,11.1304 2.75662,13.8257 4.51955,3.3466 16.44038,3.1891 18.91459,-12.4477 z"
             fill="#70744a"
             stroke-width="1.36597"
             id="path4547" />
          <path
             d="m 558.78762,1134.4273 c -4.6622,-5.1516 -7.41524,-2.8672 -8.72387,1.6836 1.54387,8.172 10.53353,4.4407 8.72387,-1.6836 z m 148.78962,1.8582 c 6.3339,-6.3339 0.30452,-11.8815 -6.98858,-6.5486 -2.1596,1.5791 1.25018,11.9959 6.98858,6.5486 z m -138.45638,-5.6175 c 0,-3.0637 -4.6966,-5.4655 -11.7138,-5.9903 -2.4092,-0.1801 -4.7592,-0.7063 -5.2222,-1.1693 -0.463,-0.4629 -5.6917,-0.7488 -11.6196,-0.6353 l -10.7777,0.2065 10.9083,0.8372 c 7.1129,0.9324 18.2341,4.272 24.4913,7.4508 3.7385,1.9333 3.9337,1.8986 3.9337,-0.6996 z m 141.6667,-7.6393 c 4.7537,-0.4972 7.8957,-5.6953 3.4425,-5.6953 -7.6028,0 -18.2147,3.0849 -16.5023,4.7973 1.8421,1.8421 3.1653,1.933 13.0598,0.898 z"
             fill="#29292d"
             stroke-width="1.33333"
             id="path4549" />
        </g>
        <g
           transform="translate(0,-9.6e-5)"
           id="g4615">
          <path
             d="m 702.24594,1406.7968 c 44.48691,254.219 280.22889,370.9301 368.54226,790.2391 l 84.0458,-87.6418 C 925.18624,1698.0217 778.78605,1398.4935 825.4928,1358.4073 c -40.93795,-2.3824 -101.74129,10.409 -123.24686,48.3895 z"
             fill="#6c6244"
             id="path4553" />
          <path
             d="m 727.02235,1393.8237 c 0,0 1.97422,58.0504 26.5762,108.8606 24.60198,50.8102 -46.31853,-64.1269 -26.5762,-108.8606 z m 309.39905,667.1554 34.3668,136.0568 c 0,0 -9.8154,-109.1218 -34.3668,-136.0568 z m -219.14202,-660.691 c 0,0 4.96087,80.2448 34.32122,131.917 29.36036,51.6722 73.09723,141.6136 49.65955,88.1745 -23.43767,-53.4391 -64.13718,-130.4517 -83.98077,-220.0915 z"
             id="path4555" />
          <g
             transform="matrix(6.2793042,9.2026596,-9.2026596,6.2793042,1556.2927,675.05293)"
             id="g4579">
            <path
               d="m 64.423005,93.570724 c 1.192622,-0.425209 3.2377,-0.172957 2.838133,-0.09194 -0.399566,0.08102 -1.692756,0.250528 -2.838133,0.09194 z"
               fill="#60625d"
               id="path4557" />
            <path
               d="m 65.618825,103.87639 c -0.07777,-0.35905 0.06242,-1.02037 0.957273,2.65639 0.240937,0.98995 0.242717,3.16255 -0.038,3.38215 -0.804868,0.62964 -2.052769,0.71221 -2.262559,-0.6633 -0.20979,-1.37552 1.60409,-4.17114 1.343286,-5.37524 z"
               fill="#23303a"
               id="path4559" />
            <path
               d="m 65.293026,92.867642 c -0.17241,1.30289 -0.0033,2.78152 0,4.17477 0.332882,0.17995 0.666577,0.29448 1.005358,0 0.0063,-1.34448 0.08737,-2.63897 0,-4.04585 -0.530021,-0.39838 -0.713646,-0.16509 -1.005358,-0.12884 z"
               fill="#6c6244"
               id="path4561" />
            <path
               d="m 66.377912,100.37303 c 0.01041,1.71584 -0.334448,3.29975 -0.539087,2.92635 -0.141077,-0.25742 0.243255,-1.74262 0.210623,-3.15349 -0.03263,-1.410868 -0.481109,-3.007611 -0.163072,-2.810271 0.645564,0.656405 0.484703,2.425585 0.491536,3.037411 z"
               fill="#23303a"
               id="path4563" />
            <path
               d="m 66.034163,103.56146 c 0.345699,-1.15734 0.431264,-2.53656 0.748041,1.23424 0.14442,1.71913 1.688195,4.37475 0.511405,4.76696 -0.534711,0.1782 -0.153556,-0.49818 -0.409168,-2.6049 -0.167595,-1.3813 -0.987831,-2.9358 -0.850278,-3.3963 z"
               fill="#23303a"
               id="path4565" />
            <path
               d="m 65.336423,97.246292 c 1.125931,3.448478 0.152216,4.340538 0.07236,7.147668 -0.0159,0.55895 -1.671172,5.56494 -1.825859,5.25694 -0.500172,-0.99591 1.179796,-5.1412 1.496713,-6.9465 0.316918,-1.80529 0.400409,-3.423619 0.256787,-5.458108 z"
               fill="#23303a"
               id="path4567" />
            <g
               fill="#60625d"
               id="g4577">
              <path
                 d="m 63.119287,109.11832 c 0.01005,0.57834 1.843413,1.64515 2.179392,1.65207 0.340518,0.006 2.655144,-1.0353 2.677194,-1.53345 0.03101,-0.70056 -1.495816,-6.4719 -1.518908,-8.6031 -0.02548,-2.351804 -0.251353,-5.08201 0.08428,-5.498873 0.263325,-0.327058 1.059961,-1.489443 0.474782,-1.162165 -0.572107,0.319968 -1.974092,0.353703 -2.581655,0.04393 -0.607561,-0.309767 0.222152,0.474892 0.62393,0.942834 0.401781,0.467942 0.120817,3.390219 0.122786,5.592964 0.0021,2.29174 -2.07072,8.05398 -2.061797,8.56579 z m -0.881989,0.2393 c 0.01371,0.59878 2.512906,1.70326 2.970906,1.71042 0.464187,0.007 3.619441,-1.07186 3.6495,-1.5876 0.04228,-0.72531 -2.039069,-6.70049 -2.070548,-8.90696 -0.03473,-2.434871 -0.342639,-5.261508 0.114884,-5.693094 0.35896,-0.338609 1.444918,-1.54205 0.647214,-1.203212 -0.779885,0.331269 -2.691044,0.366195 -3.519263,0.04548 -0.828216,-0.320708 0.24579,0.689173 0.793487,1.173643 0.547698,0.484469 0.221737,3.312449 0.224422,5.593003 0.0028,2.37268 -2.822766,8.33844 -2.810602,8.86832 z"
                 fill-rule="evenodd"
                 id="path4569" />
              <path
                 d="m 64.521127,109.92516 c 0.500808,0.41257 0.638495,-0.34821 0.689791,-2.10076 0.05129,-1.75255 -0.139039,2.43173 -0.689791,2.10076 z"
                 id="path4571" />
              <path
                 d="m 66.140989,105.24556 c -0.09989,-1.24804 -0.220031,-3.33846 0.211931,-2.29957 0.431963,1.03889 0.610146,1.50891 0.202482,0.90673 -0.482354,-1.22717 -0.196051,-0.75964 -0.414413,1.39284 z"
                 id="path4573" />
              <path
                 d="m 65.727961,98.277931 c -0.170666,2.677119 -0.01739,7.104999 0,0 z"
                 id="path4575" />
            </g>
          </g>
          <path
             d="m 1013.9164,1929.5581 c 5.0151,1.8654 10.4923,43.9806 12.8991,74.4026 2.4068,30.422 1.7433,49.1477 1.0798,67.8748 0,0 -3.3839,8.8212 -3.3839,8.8212 -8.2383,-25.398 -16.4762,-50.7949 -18.3193,-82.6872 -1.8431,-31.8922 2.7093,-70.2768 7.7243,-68.4114 z"
             fill="#4b4531"
             id="path4581" />
          <g
             transform="matrix(3.7795276,0,0,3.7795276,650.70942,1537.941)"
             id="g4609">
            <path
               d="m 85.225236,131.79141 c -6.900771,-1.09855 -6.648595,7.81201 -4.663131,12.05256 0.44023,9.0773 -5.637011,16.60959 -9.621396,24.28396 -2.143853,4.53112 -6.141003,8.68936 -6.54232,13.73383 1.616109,6.50363 6.550395,7.10085 11.770917,6.84128 6.097376,-0.97237 15.155173,0.74811 21.153287,-0.81711 6.894877,-2.59999 13.642987,-11.05142 10.620337,-16.52473 -4.07389,-8.7602 -10.324562,-17.60717 -9.041148,-27.76767 3.953078,-5.68201 -0.272502,-13.36303 -7.302804,-12.29941 -2.135195,-0.10096 -4.27408,0.11765 -6.373742,0.49729 z m 0.0021,0.23667 c 6.478333,-3.29961 17.925954,2.55532 13.726209,10.50701 -2.365436,8.9051 3.302165,17.10373 6.723985,24.91291 1.79887,4.10867 4.10284,8.56874 1.0224,12.81401 -4.01517,6.45113 -12.038106,8.81056 -19.101903,7.28514 -6.640405,-1.03191 -14.377677,2.00299 -20.21959,-2.10594 -5.59763,-4.92802 0.66279,-11.21001 3.367483,-15.91971 4.239651,-6.42943 7.72574,-11.9117 10.046391,-19.23109 3.255379,-5.3101 -4.655612,-12.49568 0.961816,-16.59797 1.138594,-0.52003 2.315228,-2.1232 3.473209,-1.66433 z"
               fill="#60625d"
               fill-rule="evenodd"
               stroke-width="0.264583"
               id="path4583" />
            <path
               d="m 75.024974,177.37507 c 8.768844,-0.97454 11.528009,-7.90658 18.266637,-4.8267 6.738629,3.07989 11.382229,2.24325 12.591729,4.37161 0.8988,1.39766 1.47083,2.46322 1.10798,3.00379 -0.64863,0.96634 -1.96284,2.13969 -1.96284,2.13969 -6.215598,3.44012 -36.988878,2.86696 -36.742136,-0.57421 1.484879,-3.24079 2.041035,-4.01306 2.580983,-4.85428 2.759165,0.38613 4.157647,0.74006 4.157647,0.74006 z"
               fill="#4a4731"
               id="path4585" />
            <path
               d="m 82.009378,153.6287 c -6.868212,15.74882 -14.432973,25.49873 -14.238586,28.65678 0.194384,3.15804 25.421042,3.20399 21.544169,2.11914 -3.876874,-1.08484 -20.955624,-0.23443 -20.248279,-2.98794 0.707345,-2.75351 13.277463,-26.13311 12.942696,-27.78798 z"
               fill="#60625d"
               id="path4587" />
            <path
               d="m 82.711255,125.9899 c -0.81015,2.05859 1.468673,16.84286 2.516182,17.93691 1.047509,1.09406 8.007503,1.50777 9.227806,0.34017 1.220301,-1.1676 3.650097,-18.02885 2.834765,-18.89306 -0.815335,-0.86421 -13.667116,-1.70048 -14.578753,0.61598 z"
               fill="#6c6244"
               id="path4589" />
            <path
               d="m 84.147595,135.95125 c 5.955697,2.17891 14.686754,-0.96534 12.148966,0.34936 -2.537786,1.3147 -10.502114,2.02262 -12.148966,-0.34936 z"
               fill="#60625d"
               id="path4591" />
            <path
               d="m 83.737382,175.79245 c 1.833933,-4.19601 2.076651,-7.30141 0.465223,-9.08658 -2.339617,0.63715 -6.317641,-0.0287 -6.445744,-1.46373 4.44326,-4.8102 8.138107,-5.02832 11.408172,-3.30056 3.270067,1.72778 2.21023,2.24016 3.910599,3.34074 -1.361983,1.9172 -5.009613,2.24439 -5.009613,2.24439 -0.445,3.77698 0.283177,6.63555 1.314766,7.96152 -2.487304,2.25869 -5.560882,0.66849 -5.643403,0.30422 z"
               fill="#60625d"
               id="path4593" />
            <g
               fill="#967d53"
               id="g4603">
              <path
                 d="m 99.08265,162.28664 c -0.458952,8.77999 -5.113362,8.23756 -5.113362,8.23756 0,0 -1.873652,-7.2952 5.113362,-8.23756 z"
                 id="path4595" />
              <path
                 d="m 98.965365,160.37374 c -9.981634,4.65236 -9.761669,0.0842 -9.695277,0.0741 3.410653,1.52756 4.589573,-3.40574 9.695277,-0.0741 z"
                 id="path4597" />
              <path
                 d="m 102.49964,172.50954 c -9.194006,6.06198 -9.644417,1.51077 -9.580216,1.49107 3.597368,1.01239 4.042208,-4.04028 9.580216,-1.49107 z"
                 id="path4599" />
              <path
                 d="m 96.595212,151.7236 c -2.191861,8.92752 -3.443472,8.46406 -3.428699,8.4628 0.65493,0.14829 -1.643103,-7.0868 3.428699,-8.4628 z"
                 id="path4601" />
            </g>
            <path
               d="m 102.60315,174.63379 c -0.10351,-2.12425 -3.403216,-10.43425 -3.5205,-12.34715 -0.117287,-1.9129 -0.660644,-7.55618 -2.487438,-10.56304 -1.826795,-3.00686 -3.835429,-10.32046 -1.832195,-13.44632 2.003235,-3.12586 3.21274,-7.16649 6.101483,-7.30899 2.88875,-0.1425 0.10799,0.37694 -0.988111,1.34228 -1.096105,0.96534 -4.643623,5.35073 -4.897392,8.10425 -0.253767,2.75352 0.873632,7.71088 2.502547,11.47978 1.628915,3.7689 1.070809,6.52828 1.373186,11.01941 0.302373,4.49113 3.74842,11.71978 3.74842,11.71978 z"
               fill="#645b36"
               id="path4605" />
            <path
               d="m 99.963341,131.99294 c 1.889489,3.27798 0.225389,5.4623 2.089619,6.39421 0.84073,-2.61902 2.98218,-5.01821 -2.089619,-6.39421 z"
               fill="#9f935f"
               id="path4607" />
          </g>
          <path
             d="m 1019.1631,1914.0577 c 0,0 -6.7689,17.1345 -6.7689,17.1345 0,0 22.7435,4.9099 22.7435,4.9099 0,0 -9.9563,11.797 -9.9563,11.797 0,0 -19.7638,-9.8361 -19.7638,-9.8361 -10.97167,11.1434 -21.94336,22.2868 -30.54974,29.8826 -8.60638,7.5958 -14.84773,11.6442 -21.08895,15.6925 0,0 -11.66512,-9.8361 -11.66512,-9.8361 0,0 -3.6407,-13.7263 -3.6407,-13.7263 5.31246,-2.2983 10.6254,-4.5967 21.44864,-9.0826 10.82325,-4.4859 27.1561,-11.159 43.48977,-17.8324 0,0 5.6096,-18.6602 5.6096,-18.6602 0,0 10.142,-0.4428 10.142,-0.4428 z"
             fill="#4d4732"
             id="path4611" />
          <path
             d="m 1024.8762,2069.6794 c -5.4613,0.9912 -18.0243,11.2728 -31.54378,12.6935 -13.51949,1.4207 -27.99768,-6.021 -42.47466,-13.4621 1.74883,6.1565 3.49794,12.314 10.50927,17.6069 7.01133,5.2929 19.28356,9.7225 31.62854,9.1384 12.34493,-0.5842 22.68143,-5.2431 29.19093,-11.9565 6.5096,-6.7133 8.151,-15.0114 2.6897,-14.0202 z"
             fill="#4b4531"
             id="path4613" />
        </g>
        <g
           transform="matrix(5.8469895,7.9586538,-7.9586538,5.8469895,1362.9962,292.11483)"
           id="g4635">
          <path
             d="m 87.620645,130.26637 c -0.36985,-0.7384 -0.789857,-14.60913 -0.104642,-14.6121 0.916826,-0.004 3.13365,-2.02009 2.298678,-2.37651 -1.456379,-1.11953 4.987732,-0.72729 3.299348,-0.0182 -0.890228,0.47079 1.263483,2.51648 2.202104,2.56262 0.881546,0.0433 0.578884,13.76858 0.03003,14.50042 -0.548855,0.73185 -7.318994,0.75547 -7.725519,-0.0562 z m -0.593502,1.22227 c -0.426921,-0.85234 -0.826041,-16.09936 -0.03509,-16.10278 1.0583,-0.005 3.277518,-1.71232 2.313702,-2.12374 -1.681111,-1.29228 6.310538,-0.91248 4.361621,-0.094 -1.027597,0.54344 0.77129,2.31183 1.854748,2.36508 1.017576,0.05 1.104503,15.32676 0.470956,16.17154 -0.633548,0.84478 -8.496682,0.72081 -8.965937,-0.21605 z"
             fill="#60625d"
             fill-rule="evenodd"
             id="path4617" />
          <path
             d="m 90.206871,110.88456 c -0.440655,1.36339 -0.0083,2.91067 0,4.36862 0.850795,0.1883 1.70367,0.30814 2.569543,0 0.01585,-1.40691 0.223299,-2.76151 0,-4.23373 -1.354653,-0.41686 -1.823971,-0.17275 -2.569543,-0.13489 z"
             fill="#6c6244"
             id="path4619" />
          <path
             d="m 88.116494,129.94274 c -0.794036,-1.76763 -0.679479,-12.28561 -0.103099,-12.70282 0.921963,-0.66737 1.913817,0.35526 3.524058,0.13328 1.519099,-0.20942 2.760917,-0.82406 3.451522,-0.0471 0.673158,0.7573 0.62906,11.87905 0.05536,12.56955 -0.507004,0.61022 -6.613288,0.74736 -6.92784,0.0471 z"
             fill="#ab3025"
             id="path4621" />
          <path
             d="m 88.484013,116.88428 c 0.656706,-0.27791 2.098024,0.22916 1.330595,0.12839 -0.767429,-0.10076 -0.975516,-0.078 -1.330595,-0.12839 z"
             fill="#d06739"
             id="path4623" />
          <path
             d="m 93.4513,116.73313 c 0.64525,-0.35592 0.374169,-0.85487 0.631886,-0.55258 0.25772,0.3023 0.488715,0.54121 -0.631886,0.55258 z"
             fill="#d06739"
             id="path4625" />
          <g
             fill="#60625d"
             id="g4633">
            <path
               d="m 90.380605,113.39186 c 1.594488,0.32668 2.780965,-0.33967 2.197741,0.039 -0.58323,0.37868 -1.514386,0.32667 -2.197741,-0.039 z"
               id="path4627" />
            <path
               d="m 88.585366,125.69681 c 0.141269,1.8674 0.248175,3.45363 2.239287,3.81605 1.991112,0.36243 3.115528,0.0861 1.124416,-0.60783 -1.991113,-0.69398 -2.600095,-1.10516 -3.363703,-3.20822 z"
               id="path4629" />
            <path
               d="m 89.280252,115.38471 c 0.971694,0.70535 3.41906,0.33805 2.451187,0.61434 -0.967873,0.27629 -1.477584,0.26979 -2.451187,-0.61434 z"
               id="path4631" />
          </g>
        </g>
        <g
           transform="matrix(4.5366801,8.7718863,-8.7718863,4.5366801,1639.9676,477.79337)"
           id="g4655">
          <path
             d="m 87.620645,130.26637 c -0.36985,-0.7384 -0.789857,-14.60913 -0.104642,-14.6121 0.916826,-0.004 3.13365,-2.02009 2.298678,-2.37651 -1.456379,-1.11953 4.987732,-0.72729 3.299348,-0.0182 -0.890228,0.47079 1.263483,2.51648 2.202104,2.56262 0.881546,0.0433 0.578884,13.76858 0.03003,14.50042 -0.548855,0.73185 -7.318994,0.75547 -7.725519,-0.0562 z m -0.593502,1.22227 c -0.426921,-0.85234 -0.826041,-16.09936 -0.03509,-16.10278 1.0583,-0.005 3.277518,-1.71232 2.313702,-2.12374 -1.681111,-1.29228 6.310538,-0.91248 4.361621,-0.094 -1.027597,0.54344 0.77129,2.31183 1.854748,2.36508 1.017576,0.05 1.104503,15.32676 0.470956,16.17154 -0.633548,0.84478 -8.496682,0.72081 -8.965937,-0.21605 z"
             fill="#60625d"
             fill-rule="evenodd"
             id="path4637" />
          <path
             d="m 90.206871,110.88456 c -0.440655,1.36339 -0.0083,2.91067 0,4.36862 0.850795,0.1883 1.70367,0.30814 2.569543,0 0.01585,-1.40691 0.223299,-2.76151 0,-4.23373 -1.354653,-0.41686 -1.823971,-0.17275 -2.569543,-0.13489 z"
             fill="#6c6244"
             id="path4639" />
          <path
             d="m 88.116494,129.94274 c -0.794036,-1.76763 -0.679479,-12.28561 -0.103099,-12.70282 0.921963,-0.66737 1.913817,0.35526 3.524058,0.13328 1.519099,-0.20942 2.760917,-0.82406 3.451522,-0.0471 0.673158,0.7573 0.62906,11.87905 0.05536,12.56955 -0.507004,0.61022 -6.613288,0.74736 -6.92784,0.0471 z"
             fill="#ab3025"
             id="path4641" />
          <path
             d="m 88.484013,116.88428 c 0.656706,-0.27791 2.098024,0.22916 1.330595,0.12839 -0.767429,-0.10076 -0.975516,-0.078 -1.330595,-0.12839 z"
             fill="#d06739"
             id="path4643" />
          <path
             d="m 93.4513,116.73313 c 0.64525,-0.35592 0.374169,-0.85487 0.631886,-0.55258 0.25772,0.3023 0.488715,0.54121 -0.631886,0.55258 z"
             fill="#d06739"
             id="path4645" />
          <g
             fill="#60625d"
             id="g4653">
            <path
               d="m 90.380605,113.39186 c 1.594488,0.32668 2.780965,-0.33967 2.197741,0.039 -0.58323,0.37868 -1.514386,0.32667 -2.197741,-0.039 z"
               id="path4647" />
            <path
               d="m 88.585366,125.69681 c 0.141269,1.8674 0.248175,3.45363 2.239287,3.81605 1.991112,0.36243 3.115528,0.0861 1.124416,-0.60783 -1.991113,-0.69398 -2.600095,-1.10516 -3.363703,-3.20822 z"
               id="path4649" />
            <path
               d="m 89.280252,115.38471 c 0.971694,0.70535 3.41906,0.33805 2.451187,0.61434 -0.967873,0.27629 -1.477584,0.26979 -2.451187,-0.61434 z"
               id="path4651" />
          </g>
        </g>
        <g
           fill="#4d4732"
           id="g4661">
          <path
             d="m 903.43394,1684.6015 c 4.11892,15.5742 8.23816,31.1495 13.83945,42.6391 5.60129,11.4896 12.68393,18.8943 21.78282,25.6462 9.09889,6.7518 20.21184,12.85 31.32636,18.949 0,0 -48.25007,31.3395 -48.25007,31.3395 -2.55381,-15.2079 -5.1074,-30.4144 -9.28039,-41.084 -4.173,-10.6695 -9.96584,-16.8003 -19.6836,-23.7676 -9.71776,-6.9673 -23.36141,-14.7709 -37.00393,-22.5739 0,0 47.26936,-31.1483 47.26936,-31.1483 z"
             id="path4657" />
          <path
             d="m 965.13594,1784.0093 c 2.75461,15.8724 5.50945,31.7461 10.09461,43.6776 4.58516,11.9315 10.99989,19.9218 19.4798,27.4363 8.47995,7.5145 19.02305,14.5522 29.56755,21.5909 0,0 -50.78297,27.0429 -50.78297,27.0429 -1.22711,-15.3719 -2.45412,-30.7425 -5.68738,-41.7334 -3.23326,-10.9908 -8.47333,-17.6002 -17.55116,-25.3829 -9.07784,-7.7828 -21.99438,-16.7387 -34.90985,-25.6939 0,0 49.7894,-26.9375 49.7894,-26.9375 z"
             id="path4659" />
        </g>
      </g>
      <g
         fill="#221f1e"
         id="g4675">
        <path
           d="m 887.38272,1127.2506 c -2.06422,-0.7205 -26.16218,25.7718 -40.02515,63.5457 -13.86297,37.7739 -17.49207,86.8395 -21.12082,135.9002 7.7573,-47.6199 15.51436,-95.2382 29.3778,-133.0155 13.86345,-37.7772 33.83239,-65.7098 31.76817,-66.4304 z"
           id="path4665" />
        <path
           d="m 1047.4713,735.09384 c -0.9138,-1.05255 -25.1247,-7.18501 -48.58395,15.96683 -23.45922,23.15183 -46.16311,75.58614 -50.77385,117.97193 -4.61074,42.3858 8.87088,74.71974 6.13227,112.06294 -2.73861,37.34316 -21.69605,79.69396 -40.65404,122.04596 22.99308,-50.0526 45.98601,-100.105 56.48598,-141.85696 10.49996,-41.75199 8.5067,-75.20274 11.98242,-112.53871 3.47573,-37.33598 12.54748,-79.1403 28.24467,-97.88352 15.6972,-18.74321 38.0803,-14.71593 37.1665,-15.76847 z"
           id="path4667" />
        <path
           d="m 1105.9004,1124.5723 c -18.2658,-37.0337 -36.5308,-74.066 -39.4954,-107.558 -2.9645,-33.49207 9.1904,-62.99799 7.6104,-61.81325 -1.5799,1.18474 -16.9855,33.28069 -23.3264,64.29415 -6.341,31.0134 -3.6158,60.9602 7.0978,78.2922 10.7135,17.332 29.4126,22.0582 48.1136,26.7849 z"
           id="path4669" />
        <path
           d="m 1263.5925,884.29363 c -1.2012,5.91537 29.4527,25.94108 48.1087,45.23794 18.6559,19.29686 25.3146,37.8635 33.4245,48.84039 8.11,10.97689 17.67,14.36442 15.5412,-0.83408 -2.1287,-15.19851 -15.9449,-48.98265 -39.3813,-69.97346 -23.4363,-20.99082 -56.4919,-29.18617 -57.6931,-23.27079 z m -48.5999,-53.0404 c 47.6938,1.25141 95.3888,2.50285 136.6729,17.888 41.284,15.38516 76.157,44.90186 94.4103,70.29301 18.2532,25.39114 19.8872,46.65507 8.9411,41.98067 -10.946,-4.67441 -34.7047,-35.589 -40.2836,-30.81007 -5.5789,4.77893 6.9062,45.09895 9.6487,68.18072 2.7426,23.08174 -4.2572,28.92584 -16.0412,7.84514 -11.7839,-21.08076 -28.3516,-69.08607 -61.3736,-102.80377 -33.0221,-33.7177 -82.4986,-53.1458 -131.9746,-72.5737 z"
           id="path4671" />
        <path
           d="m 1183.5818,839.46649 c 25.4618,17.26942 50.9249,34.53977 68.0823,57.66028 17.1575,23.12052 26.0112,52.09043 24.2611,60.98712 -1.7501,8.89669 -14.1044,-2.2797 -21.3537,2.18522 -7.2493,4.46491 -9.3951,24.60115 -22.2264,29.87795 -12.8314,5.2768 -36.4183,-4.31761 -53.5174,-9.24142 -17.0991,-4.92381 -27.743,-5.19003 -33.7496,9.80299 -6.0066,14.99297 -7.3744,45.24297 -5.3116,62.63197 2.0627,17.389 7.5545,21.9164 3.8576,22.0157 -3.697,0.099 -16.5821,-4.2288 -25.3512,-26.4564 -8.769,-22.2276 -13.4627,-62.72218 -1.8914,-100.61686 11.5713,-37.89468 39.3856,-73.37034 67.2003,-108.84655 z"
           id="path4673" />
      </g>
    </g>
  </g>
</svg>
