<?xml version="1.0" encoding="UTF-8" standalone="no"?>
<!-- Created with Inkscape (http://www.inkscape.org/) -->

<svg
   width="377.89163mm"
   height="447.45673mm"
   viewBox="0 0 377.89164 447.45673"
   version="1.1"
   id="svg4770"
   inkscape:version="1.3.2 (091e20ef0f, 2023-11-25)"
   sodipodi:docname="faustroll_nightspore.svg"
   inkscape:export-filename="faustroll_nightspore.png"
   inkscape:export-xdpi="32"
   inkscape:export-ydpi="32"
   xmlns:inkscape="http://www.inkscape.org/namespaces/inkscape"
   xmlns:sodipodi="http://sodipodi.sourceforge.net/DTD/sodipodi-0.dtd"
   xmlns="http://www.w3.org/2000/svg"
   xmlns:svg="http://www.w3.org/2000/svg">
  <sodipodi:namedview
     id="namedview4772"
     pagecolor="#505050"
     bordercolor="#eeeeee"
     borderopacity="1"
     inkscape:pageshadow="0"
     inkscape:pageopacity="0"
     inkscape:pagecheckerboard="0"
     inkscape:document-units="mm"
     showgrid="false"
     fit-margin-top="0"
     fit-margin-left="0"
     fit-margin-right="0"
     fit-margin-bottom="0"
     inkscape:zoom="0.46560416"
     inkscape:cx="721.64304"
     inkscape:cy="730.23403"
     inkscape:window-width="2158"
     inkscape:window-height="1415"
     inkscape:window-x="0"
     inkscape:window-y="0"
     inkscape:window-maximized="0"
     inkscape:current-layer="g4615"
     inkscape:showpageshadow="0"
     inkscape:deskcolor="#d1d1d1"
     inkscape:export-bgcolor="#60625dff" />
  <defs
     id="defs4767" />
  <g
     inkscape:label="Layer 1"
     inkscape:groupmode="layer"
     id="layer1"
     transform="translate(9.966569,195.67299)">
    <g
       transform="matrix(0.56963116,0,0,0.56963116,-55.169732,-1009.757)"
       id="g4521">
      <path
         d="m 151.4949,1955.258 c -1.30965,5.3167 -2.61948,10.6342 -9.29481,20.0507 -6.67534,9.4165 -18.71594,22.9329 -28.04022,33.9164 -9.32429,10.9835 -15.931674,19.4335 -21.292938,27.4643 -5.361263,8.0308 -9.467902,15.6266 -11.644435,23.9868 -2.176534,8.3603 -2.418917,17.4763 -0.891526,24.6372 1.527392,7.161 4.823669,12.3664 10.321116,15.1839 5.497447,2.8174 13.195383,3.248 24.000543,4.4215 10.80516,1.1736 24.71678,3.09 37.17198,3.4367 12.4552,0.3467 23.45262,-0.8758 34.45114,-2.0984 -1.62169,2.4497 -3.24354,4.8996 -1.02381,7.323 2.21973,2.4234 8.27932,4.8201 15.65829,6.5237 7.37898,1.7037 16.07701,2.7145 26.49269,2.1831 10.41569,-0.5314 22.54868,-2.6048 29.10778,-3.8776 6.5591,-1.2728 7.54437,-1.7449 7.59444,-3.6082 0.0501,-1.8632 -0.83499,-5.1188 -3.8396,-7.3509 -3.0046,-2.2321 -8.0971,-3.432 -13.49251,-3.7798 -5.39541,-0.3479 -11.1477,0.1669 -14.90159,0.1211 -3.75389,-0.046 -5.54599,-0.6499 -7.33695,-1.2535 3.29823,-2.1537 6.59673,-4.3076 6.61879,-7.5062 0.0221,-3.1986 -3.2516,-7.468 -7.93771,-11.1755 -4.6861,-3.7075 -10.79422,-6.8648 -23.69907,-7.6524 -12.90485,-0.7877 -32.60529,0.7948 -47.37541,1.995 -14.77013,1.2001 -24.60916,2.0177 -29.81505,0.085 -5.2059,-1.9326 -5.77765,-6.6163 -2.26954,-13.911 3.50811,-7.2948 11.09604,-17.1991 19.1181,-26.8802 8.02207,-9.6811 16.47771,-19.1384 23.43939,-22.7028 6.96167,-3.5643 12.42652,-1.2365 17.89269,1.0919 0,0 -29.01178,-60.6239 -29.01178,-60.6239 z"
         fill="#a79d7e"
         id="path4449"
         style="fill:#8c836a" />
      <g
         fill="#45494b"
         id="g4457">
        <path
           d="m 142.9582,2029.5285 c 7.78706,-9.2061 8.23191,-12.8674 8.67665,-16.5278 -3.44638,-1.3336 -6.89154,-2.6667 -11.77934,-2.4125 -4.88779,0.2542 -11.21624,2.0968 -16.73864,6.554 -5.5224,4.4571 -10.23766,11.5281 -16.08726,18.4915 -5.84961,6.9633 -12.833313,13.8187 -17.647933,19.7631 -4.81462,5.9444 -7.459724,10.9771 -8.536827,16.4009 -1.077102,5.4238 -0.588717,11.2115 0.508887,15.9523 1.097603,4.7408 2.802793,8.4213 5.597577,10.7756 2.794784,2.3543 6.649187,3.3754 15.965766,4.7285 9.31657,1.353 24.08016,3.0343 35.12255,4.1326 11.04239,1.0983 18.36302,1.6136 25.56619,1.2758 7.20318,-0.3379 14.28787,-1.5286 21.37352,-2.7194 -7.35263,-1.6412 -14.70407,-3.2822 -27.67044,-5.2206 -12.96637,-1.9384 -31.54567,-4.1737 -41.96461,-7.0885 -10.41893,-2.9148 -12.67661,-6.5098 -13.05546,-10.8556 -0.37885,-4.3459 1.1221,-9.4416 9.43758,-19.3663 8.31549,-9.9248 23.44473,-24.6774 31.23179,-33.8836 z"
           id="path4451" />
        <path
           d="m 195.38819,2090.9211 c 2.96054,-2.3209 5.61734,-2.5769 7.61363,-2.2166 1.9963,0.3603 3.33062,1.335 4.66611,2.3105 -4.86603,1.4285 -9.73141,2.8568 -13.35951,4.6899 -3.6281,1.8332 -6.01756,4.0707 -5.58076,2.9967 0.4368,-1.074 3.69999,-5.4596 6.66053,-7.7805 z"
           id="path4453" />
        <path
           d="m 260.59378,2116.842 c -0.80659,-1.1927 -1.6124,-2.3842 -6.04169,-2.9768 -4.42929,-0.5926 -12.48118,-0.584 -19.59972,0.3993 -7.11854,0.9832 -13.3029,2.9412 -20.9429,1.978 -7.64,-0.9632 -16.67405,-4.8217 -25.73852,-8.6933 2.06266,3.3928 4.12603,6.7868 7.90334,9.2011 3.7773,2.4143 9.26856,3.8509 16.81772,4.4682 7.54915,0.6173 17.15588,0.4156 25.43262,-0.4503 8.27673,-0.866 15.2225,-2.3957 22.16915,-3.9257 z"
           id="path4455" />
      </g>
      <path
         d="m 253.29465,1898.8547 c -5.67643,11.9198 -17.0291,35.759 -23.42745,53.6308 -6.39835,17.8717 -7.8424,29.775 -7.73768,41.635 0.10473,11.8601 1.75792,23.676 1.88927,32.0387 0.13134,8.3627 -1.28148,13.3524 -0.65906,19.6622 0.62241,6.3099 3.26803,13.9791 6.18688,23.9472 2.91885,9.9682 6.11055,22.2334 9.30261,34.5001 4.98891,-0.3617 9.97876,-0.7234 14.31044,0 4.33168,0.7246 8.05592,2.5593 9.54091,4.9283 1.48499,2.369 0.76709,5.2446 0.0441,8.1405 5.40315,-0.7844 10.80714,-1.5689 13.54141,-3.6168 2.73427,-2.0478 2.80054,-5.3602 0.36995,-8.0013 -2.43059,-2.6411 -7.35906,-4.6104 -11.0327,-6.9012 -3.67364,-2.2909 -6.09199,-4.9035 -8.87996,-11.7437 -2.78796,-6.8402 -5.94482,-17.9077 -7.19493,-26.5076 -1.25012,-8.5998 -0.59307,-14.7313 2.71635,-23.5174 3.30943,-8.786 9.27093,-20.2252 12.94399,-33.8912 3.67306,-13.6659 5.05438,-29.5262 5.41405,-42.8507 0.35968,-13.3245 -0.30532,-24.0073 -1.09674,-33.1324 -0.79142,-9.125 -1.70795,-16.6704 -2.99965,-23.9037 -1.2917,-7.2332 -2.95859,-14.1536 -4.14637,-20.0471 -1.18779,-5.8935 -1.8963,-10.7598 -2.38467,-9.9702 -0.48838,0.7896 -0.75638,7.235 -0.89036,10.4573 -0.13399,3.2223 -0.13398,3.2223 -5.81042,15.1421 z"
         fill="#a79d7e"
         id="path4459"
         style="fill:#8c836a" />
      <path
         d="m 173.75492,1712.1692 c -5.43906,12.7968 -10.87822,25.5938 -16.91913,40.3274 -6.0409,14.7337 -12.68328,31.4033 -13.07033,47.4467 -0.38705,16.0434 5.48066,31.4595 9.79164,50.5066 4.31099,19.047 7.06545,41.7242 14.24937,58.282 7.18392,16.5577 18.79588,26.9955 25.87144,41.2294 7.07555,14.2338 9.6153,32.2627 11.88583,39.4684 2.27053,7.2057 4.27207,3.5887 6.50204,3.7458 2.22996,0.1571 4.66038,4.0443 7.8226,-3.7331 3.16222,-7.7773 7.04348,-27.2395 14.42609,-44.6571 7.38262,-17.4176 18.26606,-32.789 22.4944,-46.951 4.22834,-14.1621 1.80112,-27.1148 -1.43468,-46.2448 -3.2358,-19.1301 -7.27993,-44.4362 -7.81425,-62.6438 -0.53432,-18.2076 2.4415,-29.3154 4.99135,-36.3225 2.54985,-7.007 4.6735,-9.9124 4.07234,-17.7403 -0.60116,-7.8278 -3.92783,-20.5796 -7.25427,-33.3304 0,0 -80.02551,4.943 -80.02551,4.943 0,0 4.41107,5.6737 4.41107,5.6737 z"
         fill="#a79d7e"
         id="path4461"
         style="fill:#8c836a" />
      <path
         d="m 176.91321,1782.228 c 0.74114,-8.3891 1.0669,-15.9982 -2.47917,-14.3734 -3.54607,1.6248 -10.96358,12.4838 -11.63495,26.6896 -0.67137,14.2058 5.40279,31.7564 9.52153,46.0325 4.11874,14.2761 6.28203,25.2769 9.30508,33.3912 3.02304,8.1144 6.90505,13.342 9.60375,19.6679 2.6987,6.326 4.21456,13.7498 7.32103,21.1062 3.10648,7.3565 7.80285,14.6452 9.96686,20.2473 2.16402,5.6022 1.79499,9.5328 2.33263,9.8555 0.53765,0.3228 1.98131,-2.9543 1.8041,-7.1902 -0.1772,-4.2358 -1.97588,-9.4308 -3.69178,-13.822 -1.71591,-4.3911 -3.45723,-8.2157 -5.00594,-13.9223 -1.54872,-5.7065 -2.98558,-13.5617 -5.37362,-20.4669 -2.38804,-6.9052 -5.74105,-12.9342 -7.62369,-17.8127 -1.88263,-4.8785 -2.29426,-8.6061 -3.06561,-12.4325 -0.77136,-3.8263 -1.90262,-7.7513 -2.52531,-12.2203 -0.6227,-4.4689 -0.73914,-9.5976 -2.57223,-16.0252 -1.83309,-6.4276 -5.38454,-14.212 -6.58238,-22.6892 -1.19785,-8.4771 -0.0414,-17.6463 0.6997,-26.0355 z"
         fill="#60625d"
         id="path4463" />
      <path
         d="m 255.44201,1734.2382 c -1.27259,-7.0172 -2.50092,-15.9234 -6.00937,-27.1553 -3.50844,-11.2319 -9.28923,-24.7648 -11.48337,-24.6556 -2.19414,0.1092 -0.79478,13.8715 1.00115,28.2718 1.79593,14.4002 3.99055,29.4549 5.28798,46.9578 1.29743,17.5028 1.6983,37.4547 1.47505,57.6808 -0.22326,20.2261 -1.07059,40.7241 -2.28056,58.264 -1.20998,17.54 -2.78247,32.1211 -3.53574,43.5253 -0.75326,11.4043 -0.68737,19.6311 -0.83294,24.594 -0.14558,4.9629 -0.50242,6.662 0.67187,6.7501 1.1743,0.088 3.87916,-1.4336 6.81189,-9.1615 2.93272,-7.728 6.09362,-21.6624 9.55319,-40.4788 3.45958,-18.8165 7.21756,-42.5138 9.27379,-62.0211 2.05622,-19.5072 2.41047,-34.8234 1.122,-48.3439 -1.28847,-13.5205 -4.21987,-25.2446 -6.34341,-33.6674 -2.12355,-8.4227 -3.43895,-13.5429 -4.71153,-20.5602 z"
         fill="#60625d"
         id="path4465" />
      <g
         transform="translate(58.294298,1537.0604)"
         id="g4483">
        <path
           d="M 114.74543,173.67845 C 101.68659,167.87403 88.628957,162.07015 84.145816,147.48069 79.662674,132.89124 83.756412,109.51744 91.616357,88.139653 99.476301,66.761866 111.10194,47.38185 122.58496,36.561058 c 11.48301,-10.820792 22.82177,-13.081436 33.15476,-13.22402 10.333,-0.142583 19.60866,1.821749 28.04584,5.937243 8.43719,4.115494 16.01017,10.375853 21.73511,18.564119 5.72493,8.188267 9.60212,18.303603 11.60271,32.098805 2.0006,13.795203 2.12498,31.269575 0.96877,42.909305 -1.1562,11.63974 -3.59268,17.44479 -8.30581,24.33908 -4.71312,6.89428 -11.70273,14.8778 -17.44496,19.70314 -5.74223,4.82534 -10.34739,6.53335 -23.07212,7.13871 -12.72473,0.60535 -33.62458,0.12817 -54.52383,-0.34899 z"
           fill="#a79d7e"
           id="path4467"
           style="fill:#8c836a" />
        <path
           d="m 186.73063,164.7375 c 8.00958,-6.82723 16.01925,-13.65453 19.69307,-26.65804 3.67382,-13.00351 3.01196,-32.18363 -0.0117,-42.690408 -3.02366,-10.506781 -8.41004,-12.339135 -13.09615,-9.147726 -4.68611,3.191408 -8.67028,11.40628 -10.34873,23.700804 -1.67845,12.29452 -1.05138,28.66725 -0.0396,38.47991 1.01177,9.81267 2.40717,13.06343 3.80312,16.31546 z"
           fill="#45494b"
           id="path4469" />
        <path
           d="m 122.33153,168.731 c -9.34927,-2.23922 -18.69736,-4.47816 -24.01276,-11.62901 -5.315402,-7.15086 -6.595829,-19.21367 -5.688446,-31.53894 0.907383,-12.32528 4.002764,-24.91188 8.987036,-34.504602 4.98427,-9.592723 11.85689,-16.190307 18.20148,-18.817871 6.3446,-2.627563 12.15964,-1.285317 15.71877,6.390355 3.55912,7.675673 4.86324,21.683368 2.28621,37.755588 -2.57704,16.07221 -9.0345,34.20788 -15.49229,52.34448 z"
           fill="#45494b"
           id="path4471" />
        <path
           d="m 136.23929,112.98964 c 0.64467,-7.05655 1.40539,-15.847583 0.79533,-22.471676 -0.61006,-6.624093 -2.59767,-11.095384 -5.02191,-13.778616 -2.42424,-2.683233 -5.23079,-3.566235 -9.18242,-2.396153 -3.95162,1.170081 -8.96711,4.370231 -11.94208,9.206645 -2.97496,4.836414 -3.88337,11.291483 -1.49421,17.94936 2.38915,6.65788 8.07463,13.51791 11.22057,21.80337 3.14593,8.28545 3.75301,17.99582 3.75604,24.35984 0.003,6.36402 -0.5976,9.38089 -1.1984,12.3986 3.78842,-9.79052 7.57663,-19.58051 9.73522,-27.13668 2.15858,-7.55617 2.68718,-12.87814 3.33186,-19.93469 z"
           fill="#60625d"
           id="path4473" />
        <path
           d="m 189.13661,126.41222 c -1.05633,-3.7647 -0.82608,-12.46948 0.17907,-18.84223 1.00515,-6.37276 2.78531,-10.412826 5.11651,-11.787069 2.33121,-1.374244 5.2119,-0.08271 7.14605,2.119848 1.93416,2.202561 2.92252,5.315341 1.6563,10.437481 -1.26622,5.12214 -4.82012,12.32255 -7.75963,16.49252 -2.93951,4.16996 -5.28196,5.34415 -6.3383,1.57945 z"
           fill="#60625d"
           id="path4475" />
        <path
           d="m 131.95169,101.28179 c 1.60647,-3.511034 3.76018,-11.271115 2.44491,-15.131322 -1.31526,-3.860206 -6.10048,-3.819857 -10.24254,-2.337663 -4.14205,1.482193 -7.63991,4.406267 -11.13774,7.330319 4.31667,0.280596 8.6344,0.561262 11.17158,2.606459 2.53718,2.045196 3.28306,5.790378 4.18992,8.047747 0.90685,2.25737 1.96739,2.99549 3.57387,-0.51554 z"
           fill="#181913"
           id="path4477" />
        <path
           d="m 189.58249,117.94934 c 0.63893,-7.60091 1.27779,-15.2009 3.61181,-18.482079 2.33403,-3.281178 6.29539,-2.259175 8.30803,-0.05426 2.01264,2.204909 2.04447,5.582899 1.12584,7.319119 -0.91862,1.73622 -2.78446,1.83126 -5.11768,3.42737 -2.33321,1.59611 -5.13056,4.69292 -7.92801,7.78985 z"
           fill="#181913"
           id="path4479" />
        <path
           d="m 189.96929,168.51067 c 10.38603,-10.89721 20.77202,-21.79438 25.32818,-36.36106 4.55617,-14.56667 3.2824,-32.803164 1.09994,-48.36549 -2.18246,-15.562327 -5.2733,-28.448136 -12.68953,-37.622564 -7.41622,-9.174427 -19.15759,-14.635592 -30.89884,-20.096706 1.52621,4.295409 3.05281,8.591926 2.98641,14.112025 -0.0664,5.520098 -1.72478,12.265015 -2.66367,20.144702 -0.93888,7.879687 -1.1584,16.893389 -2.2085,26.176758 -1.0501,9.283368 -2.93057,18.836035 -2.69253,26.072585 0.23804,7.23655 2.59382,12.15613 3.04728,17.92782 0.45345,5.77169 -0.99466,12.39555 -1.07088,16.34828 -0.0762,3.95273 1.21829,5.2339 3.32962,2.25331 2.11133,-2.9806 5.04932,-10.24383 6.24718,-17.07935 1.19786,-6.83552 0.65963,-13.25432 0.80871,-19.1722 0.14909,-5.91787 0.98567,-11.33423 4.26299,-17.021772 3.27731,-5.687538 8.995,-11.645098 13.28992,-12.056735 4.29492,-0.411636 7.14728,4.687642 8.91672,14.263672 1.76943,9.576035 2.44371,23.542725 -0.70748,34.881445 -3.1512,11.33872 -11.80718,22.10204 -15.1755,27.5914 -3.36832,5.48937 -2.28957,6.74616 -1.21002,8.00388 z"
           fill="#60625d"
           id="path4481" />
      </g>
      <path
         d="m 160.29517,1884.6072 c -0.96506,9.7698 -1.93021,19.5405 -3.56275,31.157 -1.63253,11.6165 -3.93242,25.0793 -4.62933,35.9088 -0.69691,10.8295 0.20889,19.0247 2.91364,29.0923 2.70474,10.0676 7.2079,22.0068 8.70998,32.7852 1.50207,10.7784 0.004,20.3959 -0.0769,29.6086 -0.0805,9.2127 1.25654,18.0199 3.36054,27.8813 2.10401,9.8613 4.97472,20.7763 6.24999,28.7658 1.27527,7.9894 0.95544,13.0534 1.89451,16.8901 0.93908,3.8366 3.13606,6.4456 5.41408,8.6946 2.27803,2.2489 4.63679,4.1379 9.00155,4.8246 4.36477,0.6868 10.73545,0.1723 14.22645,-1.6073 3.491,-1.7796 4.10329,-4.8251 2.82845,-7.6416 -1.27483,-2.8164 -4.30032,-5.2914 -6.93388,-8.8676 -2.63355,-3.5762 -4.80571,-8.1974 -6.51728,-15.1195 -1.71157,-6.9222 -2.96202,-16.1447 -3.88039,-23.0434 -0.91837,-6.8987 -1.50928,-11.5096 -0.31683,-17.3027 1.19245,-5.7931 4.15925,-12.7694 7.88918,-21.3581 3.72994,-8.5887 8.21925,-18.781 9.65039,-29.4245 1.43113,-10.6435 -0.19642,-21.7378 -3.6526,-33.7499 -3.45618,-12.0121 -8.74123,-24.9417 -16.14077,-39.6769 -7.39954,-14.7352 -16.91399,-31.2764 -26.42799,-47.8168 z"
         fill="#a79d7e"
         id="path4485"
         style="fill:#8c836a" />
      <g
         transform="translate(58.294298,1537.0604)"
         id="g4503">
        <path
           d="m 151.52904,115.42057 c -1.30834,-0.24913 -3.70895,3.8147 -3.99037,8.84855 -0.28141,5.03384 1.55575,11.03656 2.86373,11.28509 1.30799,0.24853 2.0872,-5.25668 2.36899,-10.28996 0.28179,-5.03328 0.066,-9.59454 -1.24235,-9.84368 z"
           fill="#a79d7e"
           id="path4487"
           style="fill:#8c836a" />
        <path
           d="m 160.17429,104.80721 c -0.57341,4.89822 -1.14692,9.79731 -2.5137,14.47546 -1.36678,4.67816 -3.52673,9.13652 -3.318,13.98059 0.20873,4.84408 2.80644,10.11568 2.46818,12.0978 -0.33825,1.98213 -3.60243,0.69689 -5.25417,-3.08763 -1.65174,-3.78451 -1.68997,-10.10114 0.0152,-16.76235 1.70517,-6.6612 5.15389,-13.68267 8.60249,-20.70387 z"
           fill="#60625d"
           id="path4489" />
        <path
           d="m 164.44108,155.08055 c 1.1104,2.06611 2.54929,7.24641 2.71049,11.96576 0.16119,4.71935 -0.91503,8.82652 -0.42955,13.44371 0.48548,4.6172 2.55179,9.66783 2.10035,15.07322 -0.45144,5.40538 -3.41985,11.166 -5.64724,13.05715 -2.22738,1.89114 -3.73777,-0.11873 -3.43148,-3.36054 0.30628,-3.24182 2.43237,-7.75915 2.75131,-12.69916 0.31894,-4.94001 -1.16057,-10.30916 -1.34625,-14.7662 -0.18568,-4.45703 0.94699,-8.06967 1.26625,-11.69686 0.31926,-3.62719 -0.16396,-7.3067 -0.64705,-10.98518 0.78145,-1.04909 1.56278,-2.09802 2.67317,-0.0319 z"
           fill="#60625d"
           id="path4491" />
        <path
           d="m 161.32703,119.14317 c 1.13164,4.73238 2.26356,9.46593 3.09547,13.99065 0.83191,4.52473 1.36422,8.84168 0.44283,14.26035 -0.92139,5.41867 -3.29604,11.93926 -5.22517,15.15107 -1.92913,3.2118 -3.41389,3.11519 -3.76099,1.54127 -0.34711,-1.57391 0.44469,-4.62561 0.98227,-7.53097 0.53757,-2.90536 0.82375,-5.69313 1.10842,-8.46615 0.83143,-1.07537 1.66274,-2.1506 1.64691,-4.22362 -0.0158,-2.07302 -0.89436,-5.19812 -0.75078,-9.48508 0.14358,-4.28695 1.30238,-9.76256 2.46104,-15.23752 z"
           fill="#45494b"
           id="path4493" />
        <path
           d="m 152.15952,148.39146 c -0.1789,4.52804 -0.35784,9.05705 -0.80377,13.32021 -0.44594,4.26316 -1.15876,8.26139 -0.7931,12.08643 0.36565,3.82505 1.80916,7.47643 1.38521,12.75155 -0.42396,5.27511 -2.71466,12.17403 -4.59595,15.26601 -1.8813,3.09198 -3.35424,2.37718 -3.30598,-1.44889 0.0483,-3.82607 1.61885,-10.76349 1.5912,-16.40846 -0.0277,-5.64497 -1.69888,-10.11736 -1.1081,-13.99194 0.59077,-3.87457 3.42169,-7.2102 5.06683,-10.71589 1.64514,-3.50568 2.10445,-7.18276 2.56366,-10.85902 z"
           fill="#60625d"
           id="path4495" />
        <path
           d="m 178.85658,170.37755 c 0.50628,-4.01231 -0.0775,-6.3959 -1.06715,-8.68549 -0.98965,-2.28959 -2.38631,-4.48624 -3.78226,-6.68178 0.14289,5.03963 0.28581,10.08029 -0.55624,13.69928 -0.84204,3.61899 -2.66885,5.81819 -2.96819,11.09292 -0.29933,5.27473 0.92853,13.6236 0.30154,19.72421 -0.62698,6.1006 -3.04944,9.86192 -5.50151,13.66922 3.47155,-2.56757 6.94327,-5.13527 8.58966,-9.70483 1.6464,-4.56957 1.46593,-11.21079 2.174,-17.33529 0.70806,-6.1245 2.30387,-11.76593 2.81015,-15.77824 z"
           fill="#45494b"
           id="path4497" />
        <path
           d="m 167.02219,138.45158 c -0.31468,4.52135 -0.80109,10.05961 -0.48969,13.66387 0.3114,3.60425 1.41226,5.26291 1.74702,7.85406 0.33475,2.59115 -0.0995,6.10927 0.48877,6.7682 0.58822,0.65892 2.19884,-1.54064 2.76847,-5.35699 0.56962,-3.81634 0.098,-9.2501 0.1539,-14.19436 0.0559,-4.94425 0.6443,-9.43562 0.0547,-12.73142 -0.58958,-3.2958 -2.35567,-5.41467 -3.31065,-4.7219 -0.95498,0.69276 -1.09787,4.19719 -1.41254,8.71854 z"
           fill="#a79d7e"
           id="path4499"
           style="fill:#8c836a" />
        <path
           d="m 157.70111,172.0715 c -1.16384,2.5361 -2.32789,5.07266 -2.54713,9.13833 -0.21924,4.06567 0.51055,9.69717 0.1141,13.68281 -0.39646,3.98564 -1.93562,6.37447 -2.0076,7.61884 -0.072,1.24436 1.30814,1.35894 2.67681,0.0383 1.36867,-1.32067 2.72518,-4.07738 4.08152,-6.83374 -0.55934,-5.09294 -1.11857,-10.18478 -1.50487,-14.12557 -0.38631,-3.94079 -0.59961,-6.73037 -0.81283,-9.51894 z"
           fill="#45494b"
           id="path4501" />
      </g>
      <path
         d="m 245.23249,1798.0779 c -1.02228,2.1097 -0.59991,12.5735 -0.94276,25.5979 -0.34286,13.0243 -1.45078,28.6086 -1.27293,39.8717 0.17786,11.2631 1.64115,18.2042 3.4486,15.6475 1.80744,-2.5568 3.96661,-14.6515 4.81108,-28.0239 0.84447,-13.3725 0.37766,-28.0439 -1.08881,-38.5014 -1.46646,-10.4576 -3.9329,-16.7016 -4.95518,-14.5918 z"
         fill="#45494b"
         id="path4505" />
      <path
         d="m 254.35849,1737.1206 c 0.5648,10.4571 2.12067,24.6687 4.24559,39.0213 2.12492,14.3526 4.83864,28.9529 4.98761,42.4446 0.14897,13.4917 -2.25642,25.9281 -4.6132,37.0133 -2.35678,11.0853 -4.66481,20.819 -6.11086,31.8452 -1.44605,11.0263 -2.03018,23.3442 -0.0257,20.7104 2.00453,-2.6338 6.60943,-20.2636 9.87484,-36.4241 3.26542,-16.1604 5.19698,-30.8733 6.22428,-44.693 1.0273,-13.8196 1.1502,-26.7452 0.11564,-39.0863 -1.03457,-12.3412 -3.22672,-24.0971 -5.61138,-34.1373 -2.38465,-10.0402 -4.98846,-18.4503 -6.48708,-24.9237 -1.49862,-6.4734 -1.90507,-11.0528 -2.3216,-9.9913 -0.41654,1.0614 -0.84298,7.7637 -0.27818,18.2209 z"
         fill="#45494b"
         id="path4507" />
      <path
         d="m 168.67975,1868.2023 c -2.31325,7.786 -4.6267,15.5726 -5.95298,25.2256 -1.32627,9.6529 -1.66572,21.1719 -0.0162,33.5441 1.64955,12.3722 5.28761,25.5966 9.20311,38.0392 3.91551,12.4425 8.1199,24.1353 10.40742,34.8167 2.28752,10.6813 2.66435,20.3672 3.51751,22.8817 0.85316,2.5144 2.19764,-2.1942 2.29478,-9.4378 0.0971,-7.2435 -1.04596,-17.0479 -2.72209,-26.746 -1.67614,-9.698 -3.88533,-19.2892 -6.33194,-29.4572 -2.4466,-10.1679 -5.13835,-20.9434 -7.11631,-31.5226 -1.97796,-10.5791 -3.24579,-20.9768 -3.67474,-30.5039 -0.42894,-9.5271 -0.0187,-18.1839 0.39142,-26.8398 z"
         fill="#60625d"
         id="path4509" />
      <path
         d="m 168.98404,1866.8486 c -0.16177,11.8128 -0.32355,23.6266 0.87004,36.97 1.19359,13.3433 3.74222,28.2164 6.525,39.9866 2.78278,11.7702 5.79932,20.4367 8.03045,31.7012 2.23113,11.2645 3.67702,25.1263 3.98836,33.3221 0.31134,8.1957 -0.51156,10.7255 -1.64157,4.9822 -1.13002,-5.7432 -2.5674,-19.7594 -3.92366,-29.3362 -1.35626,-9.5767 -2.63151,-14.7136 -4.60285,-20.87 -1.97134,-6.1563 -4.63879,-13.3317 -6.74325,-22.7946 -2.10446,-9.4629 -3.64549,-21.2125 -4.6803,-29.851 -1.03482,-8.6385 -1.5739,-14.2761 -1.12664,-21.1093 0.44726,-6.8332 1.87589,-14.9174 3.30442,-23.001 z"
         fill="#45494b"
         id="path4511" />
      <path
         d="m 195.97571,1953.8127 c 1.56993,12.9663 3.13998,25.9335 2.57178,39.6278 -0.5682,13.6944 -3.27416,28.1163 -5.89954,39.1099 -2.62537,10.9936 -5.16992,18.5584 -4.36122,18.1775 0.8087,-0.3809 4.97056,-8.7072 8.65035,-16.652 3.6798,-7.9448 6.87734,-15.5078 8.47293,-20.977 1.59559,-5.4692 1.58892,-8.8448 4.0059,-9.9042 2.41698,-1.0595 7.25625,0.198 10.03541,4.4674 2.77915,4.2694 3.49914,11.5496 4.53146,11.5956 1.03231,0.046 2.37716,-7.1416 2.04659,-14.6858 -0.33057,-7.5441 -2.3369,-15.4447 -1.80721,-23.2551 0.5297,-7.8105 3.59583,-15.5297 2.8177,-17.8584 -0.77813,-2.3288 -5.40083,0.7336 -11.21854,0.025 -5.81771,-0.7087 -12.83219,-5.19 -19.84562,-9.6707 z"
         fill="#45494b"
         id="path4513" />
      <path
         d="m 261.73189,1878.386 c 2.17037,7.729 4.34106,15.4591 6.10541,28.4564 1.76436,12.9974 3.12289,31.2625 3.44061,45.4557 0.31772,14.1933 -0.40523,24.3142 -1.66189,32.9477 -1.25665,8.6335 -3.0468,15.7793 -5.0845,21.5503 -2.03769,5.771 -4.32273,10.1671 -4.78202,8.3766 -0.45929,-1.7905 0.91354,-9.8053 1.39485,-22.7665 0.48132,-12.9612 0.0741,-30.8868 -1.17513,-41.8326 -1.24926,-10.9458 -3.34108,-14.9114 -5.57969,-15.8921 -2.2386,-0.9807 -4.62326,1.0249 -4.42198,-3.7609 0.20129,-4.7858 2.98869,-16.3633 5.38044,-26.251 2.39175,-9.8878 4.38789,-18.086 6.3839,-26.2836 z"
         fill="#45494b"
         id="path4515" />
      <path
         d="m 167.24188,2035.8642 c -3.47222,-7.4358 -6.94389,-14.8705 -11.68342,-19.9336 -4.73953,-5.063 -10.74675,-7.7526 -18.05893,-6.7211 -7.31217,1.0315 -15.92827,5.7848 -24.54421,10.538 5.61052,-7.2474 11.22092,-14.4946 18.0957,-22.161 6.87477,-7.6664 15.01335,-15.7514 20.01866,-19.3278 5.00532,-3.5764 6.87601,-2.6446 9.68954,4.4569 2.81353,7.1015 6.57062,20.3717 7.80814,30.2581 1.23753,9.8864 -0.0439,16.388 -1.32548,22.8905 z"
         fill="#60625d"
         id="path4517" />
      <path
         d="m 116.87937,2018.5104 c 2.71135,-0.7832 8.77324,-3.3962 13.62151,-4.9805 4.84827,-1.5843 8.48243,-2.14 11.61035,-2.0709 3.12792,0.069 5.74905,0.7625 8.2556,2.2846 2.50655,1.5222 4.89855,3.8723 7.60736,7.8378 2.70882,3.9655 5.73401,9.5447 8.75991,15.1253 0.38864,-1.4354 0.7771,-2.8701 -1.43234,-7.2868 -2.20944,-4.4167 -7.0177,-11.8149 -11.70215,-16.1281 -4.68446,-4.3131 -9.24528,-5.5401 -14.08402,-5.1629 -4.83875,0.3772 -9.96424,2.3629 -14.02173,4.1421 -4.0575,1.7791 -7.05189,3.3537 -10.04596,4.9281 -0.63985,1.0471 -1.27987,2.0945 1.43147,1.3113 z"
         fill="#45494b"
         id="path4519" />
    </g>
    <g
       transform="matrix(0.16231218,-0.0018622,0.0018622,0.16231218,42.781961,-303.72351)"
       id="g4677">
      <g
         transform="matrix(0.9949809,0.10006504,0.00924533,1.0059742,-25.515969,-118.67483)"
         id="g4663">
        <path
           d="m -1456.174,1078.6545 h 227.3297 v 111.9302 h -227.3297 z"
           fill="#e1c07e"
           fill-rule="evenodd"
           transform="scale(-1,1)"
           id="path4523" />
        <g
           transform="translate(3.8e-5,-9.6e-5)"
           id="g4529">
          <path
             d="m 1411.3099,2522.5528 c 0,0 101.2272,117.6887 106.5249,167.4824 5.2977,49.7938 13.6734,85.8744 41.5218,90.6893 27.8484,4.8148 -66.5782,16.9431 15.7497,22.855 82.3279,5.9118 164.0112,-19.9296 160.7182,24.8664 -3.293,44.796 41.4504,125.8556 -12.9576,120.797 -54.4079,-5.0586 -406.4847,27.9137 -509.7166,-70.6986 -103.2318,-98.6122 -151.7694,-225.0163 -151.7694,-225.0163 z"
             fill="#6c6244"
             id="path4525"
             style="fill:#4a4731" />
          <path
             d="m 1545.1832,2794.0075 c -46.4614,-21.3315 -61.7103,-73.3194 -72.019,-107.9982 -10.3087,-34.6788 5.6557,103.2443 72.019,107.9982 z"
             id="path4527"
             sodipodi:nodetypes="csc" />
        </g>
        <g
           transform="matrix(-1,0,0,1,1995.7876,-9.6e-5)"
           id="g4551">
          <g
             transform="matrix(-1,0,0,1,1995.7876,0)"
             id="g4535">
            <path
               d="m 916.52559,2705.3634 c 49.0601,-37.2224 103.85071,-70.0628 149.35771,-110.0022 21.2637,-46.2031 26.1195,-102.5624 67.6234,-136.237 139.9002,-149.5572 280.754,-299.3911 420.0616,-448.7309 36.72,-184.2623 -24.7981,-192.6218 -44.5316,-332.9149 -55.567,-118.0344 -8.6438,-141.825 -27.2037,-219.8906 -13.7382,-86.8906 -85.5108,-156.7098 -174.479,-162.0305 -102.3857,-10.65 -204.9549,5.6762 -306.8355,-4.156 -138.33822,51.3647 -276.81961,116.2596 -415.15781,167.6243 -60.57688,218.8418 -121.15377,437.6835 -181.73065,656.5253 170.96518,196.6042 341.93037,393.2083 512.89555,589.8125 z"
               fill="#a79d7e"
               id="path4531"
               style="fill:#8c836a" />
            <path
               d="m 675.48483,3226.8723 c 45.88961,14.7011 100.1392,-112.4361 47.09243,-59.9958 -47.16552,58.3789 -157.72615,25.8839 -189.24393,12.9379 -5.35741,70.4896 100.814,47.2395 142.1515,47.0579 z m 944.36207,-55.2055 c -1.3295,-49.565 -112.3799,-15.1887 -147.1802,-55.5936 -65.4847,-56.587 -134.7641,-114.3136 -171.6667,-194.7243 7.6027,85.09 96.123,134.8602 144.5597,199.0716 37.9266,42.8843 120.2069,43.103 174.2872,51.2463 z M 933.12488,2685.8445 c 40.21209,0 108.41032,-43.679 132.75842,-90.4833 -36.8245,25.386 -83.44725,8.4734 -43.4585,-33.9312 -8.6869,-66.8102 60.1299,-22.7979 41.7417,-21.4538 16.5622,-28.9598 -122.95125,-135.211 -61.3504,-67.12 14.8222,20.5854 40.347,57.2961 5.6241,35.5946 -73.20244,51.0099 -71.91168,-101.8086 -134.52183,-126.1172 -62.43942,-52.2411 -67.83905,-141.5843 -131.93752,-191.2412 -45.38663,-45.5396 -98.59316,-80.9863 -100.53859,-144.6911 28.49676,-75.3131 65.2515,-143.9746 97.39476,-217.2211 8.98974,-37.9773 -9.77393,-90.209 25.24579,-106.8657 17.77967,2.989 -6.46829,113.7483 -16.61328,156.3495 -27.6423,59.4575 16.25367,135.7655 5.99711,178.0495 -5.069,71.6335 42.54826,148.9858 95.57694,198.3058 34.39309,29.7224 15.6634,41.5335 -14.55289,20.6017 44.95787,66.0008 103.94328,120.8903 165.58681,169.8456 50.5716,53.531 42.6781,-87.0834 91.4415,-104.6635 50.5719,-63.2911 115.2817,-113.5643 183.9668,-154.876 67.7346,-64.913 148.0082,-115.7266 229.0278,-161.0366 49.8013,-90.405 4.6816,-190.5782 -31.1428,-276.7056 -50.3044,-70.283 21.7526,-159.7536 -37.1749,-221.4825 -39.4836,-29.3072 -80.2567,-102.5044 -71.7127,-114.6266 -47.4633,72.7518 -152.4644,-41.3757 -162.4279,43.1352 -46.3413,43.3455 55.3092,9.7152 43.4301,66.6839 1.3166,48.7869 55.4774,-103.6179 31.1927,-22.9432 -20.5023,71.3832 -38.2147,39.0557 -55.5383,-6.3675 -50.5204,7.6544 -37.2139,110.7475 -60.8903,157.5963 3.7315,84.5837 -62.9477,148.4517 -67.2807,230.8623 24.7743,90.4586 -15.3809,171.5106 -36.5624,256.3479 -7.3267,40.8018 -52.8416,145.1073 -44.8773,128.7981 92.0172,-122.7005 212.5115,-220.7284 309.2575,-338.853 53.4321,-85.2775 37.4136,-190.9983 69.1518,-282.6626 41.6597,-78.6801 -2.8933,103.5633 -0.9779,134.8299 7.453,64.6534 -83.6651,200.5378 -73.4477,177.1055 41.4091,-16.2911 127.7286,-55.4543 151.4918,-35.3163 -73.5223,35.875 -171.3199,26.9147 -221.8558,101.8923 -106.0766,114.7501 -224.4276,222.5412 -299.63367,361.0791 2.53342,-30.8153 67.98877,-131.6465 23.81816,-72.7975 24.14995,-85.5792 88.82221,-161.6917 78.66011,-255.3001 20.989,-44.704 50.2319,-77.3051 23.1827,-129.2999 17.4164,-86.8566 13.4138,-181.1522 63.6303,-258.5814 25.054,-51.5918 27.5292,-143.4089 44.8359,-179.2366 -56.286,-12.2292 -97.6147,-15.9053 -112.3492,53.0285 -47.3773,70.0316 -105.42231,-62.4299 -123.56209,-34.4406 -6.26631,39.2994 0.53758,153.1607 5.59679,135.9244 -37.69076,-75.297 -51.02471,-159.3617 -47.44251,-242.8938 -9.38124,-89.0873 -108.03892,-18.313 -164.33309,-5.9002 -69.09287,33.2097 -171.48,47.3386 -169.15639,143.0209 -29.51819,59.9252 -34.81202,161.1297 -39.06165,204.8583 1.33485,-75.8342 -31.88709,33.4576 -43.79155,54.8836 -32.3903,95.553 -59.56135,194.2687 -71.1006,293.9187 -2.51806,43.9281 88.68832,56.3698 105.48158,110.4288 15.95503,12.8046 56.0377,78.9819 27.34893,23.7396 18.26341,40.725 55.86049,66.1973 89.2376,94.9318 49.32687,41.9258 150.86537,119.7223 142.15651,168.471 -7.57631,17.9431 73.88152,79.7878 109.40841,101.503 39.4611,8.5136 145.03626,-72.0933 62.21671,-6.3936 -66.66516,9.1093 -88.21075,82.2484 -35.70879,112.408 l 18.54188,-10.6921 z m -20.71332,-9.7735 c -42.87314,-69.8023 63.25225,-3.9779 0,0 z m 38.25511,-392.0709 c -1.46494,-55.3184 54.83663,5.811 0,0 z M 846,2189.458 c 30.36833,-5.0552 107.31578,-27.3675 131.135,-18.0338 -43.361,7.2605 -86.72404,22.1099 -131.135,18.0338 z m 162.7619,-51.5531 c -4.3002,-55.4026 53.288,-0.405 0,0 z m -94.09523,-95.2523 c 30.80166,-12.8444 179.15103,-71.8294 128.65483,-22.2725 -41.9196,11.676 -85.66375,16.3919 -128.65483,22.2725 z m 216.78283,-59.522 c 6.2375,-65.5768 68.1821,-138.8614 106.1773,-167.0413 -38.9623,49.4911 -63.8692,131.3345 -106.1773,167.0413 z m -84.3445,-26.4399 c -34.2285,-59.0521 62.3083,-7.3737 0,0 z M 868,1923.8085 c 47.5364,-12.9356 121.3896,-108.3778 152.5727,-72.7254 -43.40991,26.027 -132.51649,72.0958 -152.5727,72.7254 z m 183.6482,-121.4751 c -12.8518,-59.4126 65.6079,-2.173 0,0 z m 225.1348,-19.1968 c 26.2792,-36.6051 73.9272,-36.3977 13.7816,-6.2014 2.6727,-3.349 -28.7824,18.3638 -13.7816,6.2014 z M 568,1701.4807 c -21.01651,-30.0754 29.70257,-194.21 27.95759,-146.024 -13.08294,36.1426 -7.36152,155.0424 -27.95759,146.024 z m 675.3333,-6.4928 c 51.2993,-25.1942 96.6828,-88.7906 134.9959,-111.0055 -2.5126,57.0344 -78.7987,71.4883 -116.054,104.1215 l -7.7477,3.7426 z m -150.1389,-25.7934 c -0.5032,-54.8967 65.8188,5.7528 0,0 z m 34.566,-144.6576 c -21.7651,-51.0444 65.1578,-4.8291 0,0 z m -280.01513,785.8696 c -22.2377,-30.3933 -52.03488,-60.5918 -13.72928,-12.1922 0.20986,1.2684 27.68082,31.455 13.72928,12.1922 z m 215.51513,-274.2654 c 1.525,-17.5042 -14.8299,38.668 0,0 z m 22.5531,-85.7137 c -6.3268,-31.8633 -0.1163,-74.744 -6.6861,-13.5363 -3.9264,8.054 18.3001,52.3852 6.6861,13.5363 z m 30.1314,-216.1783 c 24.7587,-74.192 -21.5617,45.346 0,0 z m -86.0595,-187.833 c -5.6532,-59.451 106.1148,-92.1531 102.7317,-69.6842 -51.9708,-23.1383 -122.5641,-17.2819 -154.73473,-76.7318 27.61693,61.9163 -50.88279,108.453 30.55163,144.0869 4.7674,4.1065 20.1603,15.5662 21.4514,2.3291 z"
               fill="#e1c07e"
               stroke-width="1.33333"
               id="path4533" />
          </g>
          <g
             stroke-width="1.33333"
             id="g4543">
            <path
               d="m 1405.6629,2946.6528 c -30.9635,-166.7578 74.3038,-172.363 183.0583,-331.0462 49.2794,-78.5903 122.0171,-145.2517 155.0574,-232.2646 14.7712,-88.6436 10.0496,-249.3615 -106.5319,-264.0831 -116.2422,-25.7141 -170.7613,106.1812 -231.7164,179.4079 -72.9619,124.4591 -203.6148,211.9429 -305.0513,308.569 9.4882,6.1626 35.6584,12.4553 -17.6264,94.1273 -166.41554,-93.7139 -205.56224,-130.2293 -145.27014,-198.651 -22.5377,-72.2052 -15.3068,-30.0073 -106.2213,-190.7889 -362.6351,-232.954 -348.5862,-375.5764 -490.6479,-229.3783 -117.421,109.3672 -15.3742,136.8958 4.9472,234.7885 57.6008,130.3719 149.4248,249.366 164.4331,394.8823 70.2007,432.4048 210.3727,171.4841 173.5727,119.9688 -44.4647,-72.0045 -57.4081,-216.2294 -24.0266,-263.6965 41.6297,90.7515 101.034,183.6757 217.051,174.9393 29.3552,35.2314 -38.1945,130.3818 -25.951,190.2548 15.7792,10.8116 9.94,11.1642 33.413,19.9313 63.1981,60.6224 65.8303,50.4704 85.4671,56.0673 67.44014,69.2473 252.72734,-59.7506 109.39324,-51.032 -64.9911,-13.5058 -34.1277,-177.3892 42.8728,-180.576 45.5969,-62.1987 184.5458,-37.3588 216.9176,-49.075 -204.3566,170.6758 -53.1463,329.4648 66.8595,217.6551 z M 535.9187,1141.9206 c -47.705,111.6223 76.8441,178.2185 116.0385,265.7867 33.3461,33.8282 75.96396,22.9744 118.41386,-5.1038 21.6953,16.9142 23.0777,4.1149 34.0847,66.0628 10.3809,35.5141 98.3312,10.0284 86.6651,-6.1453 201.28964,-56.6152 107.21908,-136.2337 96.4303,-148.9815 C 1096.9391,804.29242 414.0185,813.62321 535.9187,1141.9206 Z m 8.7571,9.2724 c -31.8776,-101.2993 148.4985,9.1652 0,0 z m 145.18412,-7.6184 c 31.52741,-51.8498 126.4494,7.6638 0,0 z"
               fill="#967d53"
               id="path4537"
               style="fill:#8c836a;fill-opacity:1" />
            <path
               d="m 1303.4328,2848.5361 c 5.8082,-82.6492 95.9875,-110.1596 77.0614,-209.2398 -7.5503,-109.4321 115.692,-179.8458 103.4363,-282.9557 -77.3854,20.4049 0.9645,-110.7351 41.4673,-156.4884 23.8952,-63.8503 41.1412,-120.5687 -124.0775,105.3562 -72.1408,120.0538 -194.0318,201.5643 -292.1648,294.7917 58.0843,-21.3396 83.6749,106.9569 29.9687,139.4872 -31.3124,79.0797 -16.3647,-75.5356 -44.7014,20.5128 -29.2559,79.0397 -20.8494,11.3121 -28.9949,-26.2657 -29.3278,106.4743 14.3879,-104.6722 -13.7127,-0.4722 -25.9664,71.9998 11.5833,21.772 -1.5147,105.6086 -21.1317,66.1036 -17.1399,169.3754 63.9092,123.8821 44.1581,55.239 -88.7811,56.3358 -107.0438,6.4327 -98.31594,-60.2296 38.9735,65.4162 28.055,59.1296 -65.55444,20.9911 -159.81974,-194.3005 -110.22404,-49.1751 78.49364,74.6271 -65.903,-39.3512 -44.5876,-82.5444 -20.0735,105.8585 -35.0259,-9.5187 -6.3868,-72.2385 8.3685,43.3705 41.1593,-127.7644 38.3947,-101.0238 37.4158,-163.1411 213.02094,36.8655 115.36504,-54.8875 -89.85994,-40.0666 -151.77894,-115.8949 -100.96064,-151.6439 46.1313,-51.8629 -34.4171,-114.3052 -94.9181,-203.8025 -100.7255,-128.7571 -240.5654,-225.3017 -391.5887,-287.2475 -24.7286,-5.2817 -73.2956,25.7178 -103.5258,65.0286 -135.6051,86.5056 -5.6468,113.032 19.3614,247.7066 57.3418,121.9178 159.9825,228.564 162.3933,464.1796 1.4637,132.1187 59.4649,154.3812 179.3642,65.5222 -48.5262,-77.038 -84.1785,-268.027 -34.1113,-295.7873 40.8069,90.6399 89.3605,180.5615 212.9941,171.0256 7.8944,80.9822 -77.143,184.9256 7.462,210.1861 58.3125,50.7395 50.2435,63.9192 86.8075,58.3087 34.62514,25.2112 60.26074,24.3122 78.70994,14.665 157.5621,-41.0389 59.2542,-91.0798 11.3367,-61.9872 -35.6622,-75.6921 -7.339,-176.1702 75.8182,-203.2667 47.567,-12.6689 224.0393,-43.9082 201.0217,-28.9505 -273.3149,233.5409 169.8692,195.6944 -34.4139,116.1534 z m -721.99514,3.7973 c -42.8183,-42.3083 -49.0687,-66.4587 -39.7225,-125.7005 13.3251,-121.5412 -38.162,-234.9957 -102.4441,-334.6788 -31.6693,-77.8985 -102.8317,-147.8731 -131.5174,-217.6013 32.8472,-45.684 160.2155,-86.8321 110.3728,-133.0738 69.2631,-3.0604 125.7757,46.6319 167.9167,97.237 39.9971,41.9812 74.7838,257.0663 57.9565,218.1508 -81.6064,-137.608 36.8021,108.6958 -6.9955,246.3899 -25.1381,51.0283 46.7503,153.5246 -12.2662,225.0321 -8.2972,5.7421 -33.5038,43.2893 -43.3003,24.2446 z m 372.3338,43.2317 c 20.999,-4.1609 -11.1092,-89.1328 6.7954,-106.0873 -24.5703,12.1848 -39.2597,110.9014 -6.7954,106.0873 z m -36.5531,-40.2333 c 22.6957,-33.6286 14.8692,-127.7262 -7.2363,-45.7647 -20.7651,48.097 -3.6823,53.4661 7.2363,45.7647 z m 492.05904,-20.7337 c 60.4474,-105.75 165.9669,-179.6394 227.8116,-285.949 25.791,-37.8744 143.599,-195.3891 51.0925,-83.1292 -71.1321,105.0081 -149.6862,204.1087 -236.2863,296.8672 -9.2419,6.0837 -65.2276,87.293 -42.6178,72.211 z M 503.86065,1101.9052 c 78.7531,44.0493 -31.6521,76.5899 65.9297,189.0938 87.1601,148.235 4.4742,-58.2391 40.7546,-5.3263 13.4318,25.0319 85.6466,-35.9769 101.9808,-18.5436 21.0968,22.5164 1.5486,-36.8707 -19.2743,-30.0307 -32.7302,43.1109 -94.3026,60.7555 -71.385,-48.2415 -3.09709,-122.2711 -134.96158,-80.9798 -78.08636,-188.5626 86.501,64.9759 154.58497,-51.44153 247.92977,8.7553 49.9577,41.5658 -50.6956,78.1132 121.7067,160.2593 2.6523,-37.6531 9.7355,-69.7034 19.0838,-36.8399 7.4575,-157.97776 116.45544,105.5356 4.0499,102.6944 11.0464,39.374 31.094,107.1672 70.23644,121.8659 6.4626,76.4858 -143.87894,112.7985 -121.36184,104.9731 79.5415,4.6635 207.89414,-101.8252 102.8971,-149.0039 C 1113.3618,681.70093 417.70815,865.77889 503.86065,1101.9052 Z m 29.3827,90.3889 c -25.3898,-72.0549 133.3275,18.6935 0,0 z m 13.17277,-46.9802 c 13.53379,-46.6446 106.19925,21.1617 0,0 z m 306.10404,198.726 c 61.9055,-6.8086 34.4865,-139.1404 3.9514,-26.2016 -78.4701,35.1527 -104.87511,142.3288 -172.39341,100.0243 -1.0653,27.5057 -52.6779,-54.3447 14.843,-62.2392 -48.0046,8.2198 -83.64424,-23.7677 15.92566,-18.7662 14.31246,-8.8288 43.64755,-14.7124 -45.36302,-7.2416 -16.74219,-25.3961 -7.22414,-29.4346 -12.99249,-41.1869 -14.1173,-16.4077 -99.53105,-16.9189 -22.23035,101.7773 40.943,56.2583 78.63335,61.1034 143.92645,19.5834 24.0259,16.7608 17.94786,34.1804 25.48956,57.1427 56.86,45.3561 -9.6119,-96.8765 48.8432,-122.8922 z m 112.9078,-142.4172 c 47.33844,-46.0016 -56.173,-159.8689 -20.8506,-59.2643 -10.303,15.7845 -10.2468,76.3028 20.8506,59.2643 z m -197.17341,-10.001 c 3.6205,-20.3761 -133.3056,-3.6861 -28.1836,2.8506 l 11.5678,0.5294 z m -75.0752,-17.1552 c 10.0055,-29.4323 33.6375,-16.1382 -11.5926,-25.3437 -7.3535,-34.0982 148.8245,-24.2552 88.1368,-62.4504 -56.1039,-13.7706 -173.3262,42.5855 -76.5442,87.7941 z m -56.9172,-52.2093 c 5.6017,-19.9298 -18.0511,-36.9036 0,0 z m -8.8631,-10.4437 c -3.8479,-20.7887 -10.47,5.0177 0,0 z"
               fill="#6c6244"
               id="path4539"
               sodipodi:nodetypes="cccccccccccccccccccccccccccccccccccccccccccccccccccccccccccsccccccccccccccccccccccccccccccccccccccccc"
               style="fill:#4a4731" />
            <path
               style="display:inline"
               d="m 866.39607,3410.1071 c -0.0332,-1.2957 0.18997,-1.7399 0.48803,-0.9709 0.24101,0.6219 0.17293,1.53 -0.14527,1.9377 -0.28134,0.3605 -0.31078,0.2775 -0.34276,-0.9668 z"
               id="path34" />
            <path
               style="display:inline"
               d="m 825.14315,3408.2329 c -0.64373,-0.5189 -5.55413,-5.7962 -6.78505,-7.2921 -0.34374,-0.4177 -1.23847,-1.4496 -1.98832,-2.2932 -0.74982,-0.8435 -2.91561,-3.3829 -4.81281,-5.6431 -1.89723,-2.2603 -3.93228,-4.5985 -4.52237,-5.1962 -4.44764,-4.5047 -7.91763,-12.0208 -7.01672,-15.1983 0.36675,-1.2935 0.48298,-0.9664 0.54891,1.5448 0.0498,1.8962 0.15917,2.5876 0.57555,3.6383 0.84538,2.1331 4.35337,7.3823 6.59887,9.8742 1.95626,2.171 7.47702,8.7113 11.77158,13.9456 1.14867,1.4 3.07976,3.5448 4.29127,4.7662 2.11747,2.1346 2.71653,2.964 1.33909,1.8538 z"
               id="path33" />
            <path
               style="display:inline;stroke-width:8.64846"
               d="m 395.91019,3145.6828 c 12.3885,-0.8672 47.25092,-5.9428 86.7926,-12.6361 17.48372,-2.9591 22.04006,-4.2797 26.05868,-7.5533 2.67854,-2.1821 5.45645,-3.9165 6.17307,-3.8536 0.71654,0.065 4.40047,-2.4428 8.18636,-5.5666 3.78609,-3.1239 8.29314,-6.3229 10.01565,-7.1084 6.87775,-3.1362 97.36847,-85.7393 109.6079,-100.054 13.00061,-15.206 29.2427,-40.1272 40.07155,-61.4855 9.55227,-18.8403 11.68265,-22.0296 13.74725,-20.5793 0.92327,0.6487 1.84142,-5.708 3.12572,-21.6404 1.29603,-16.0797 -11.47249,-55.5187 -27.96081,-86.3646 -15.71106,-29.3909 -24.49918,-42.4065 -24.36607,-36.0855 0.21534,10.2069 -18.52542,38.2715 -36.35791,54.4458 -28.99293,26.2964 -34.26056,27.0209 -41.73738,5.7385 -22.86246,-42.9551 -47.11093,-49.2225 -71.6428,-47.9886 -9.19298,3.6622 -15.89189,20.9541 -17.33725,44.7526 -2.22742,36.6719 -37.31232,105.7451 -87.67241,172.6039 -5.75293,7.6371 -11.80769,16.7815 -13.45529,20.3211 -5.45983,11.73 -7.418,12.6426 -55.37293,25.8112 -24.9252,6.8444 -41.09757,12.8527 -44.16341,16.4065 -2.60102,3.0155 -1.03678,5.9422 11.1435,20.8491 31.31322,38.3248 62.1777,52.9994 105.14412,49.9911 z"
               id="path32"
               sodipodi:nodetypes="csscsscssssssccsssssccc" />
            <path
               style="display:inline"
               d="m 857.88195,3418.3475 c 1.35993,-1.033 6.00072,-3.9554 6.24643,-3.9335 0.40706,0.036 -0.34718,0.7355 -1.66037,1.5393 -0.6368,0.3898 -1.4204,0.8809 -1.74129,1.0913 -2.22016,1.456 -4.30107,2.4091 -2.84477,1.3029 z"
               id="path31" />
            <path
               style="display:inline"
               d="m 849.07965,3418.59 c -1.51809,-0.4049 -3.07685,-0.8621 -3.46391,-1.0159 -0.38707,-0.1539 -1.38572,-0.4795 -2.21922,-0.7237 -2.27706,-0.6669 -11.27266,-3.7826 -11.613,-4.0222 -0.16333,-0.115 -0.22277,-0.2789 -0.13206,-0.3642 0.15019,-0.1412 12.23346,3.8394 13.2509,4.3653 0.23926,0.1236 0.82406,0.3081 1.29956,0.4098 2.09099,0.4475 7.59033,1.9745 7.77451,2.1588 0.35015,0.3503 -2.02136,-0.041 -4.89678,-0.8079 z"
               id="path30" />
            <path
               style="display:inline"
               d="m 675.91513,1112.0083 c 1.1,-0.2347 8.3,-1.4052 16,-2.6011 7.7,-1.1959 23.9,-4.578 36,-7.5158 12.1,-2.9378 27.3391,-6.1667 33.8646,-7.1754 12.6336,-1.953 15.8136,-3.4953 12.9992,-6.3049 -1.2284,-1.2263 -8.7851,-1.655 -28.6,-1.6226 -39.1725,0.064 -61.1721,5.4193 -76.6066,18.6483 -7.3841,6.329 -4.8455,8.9592 6.3428,6.5715 z"
               id="path29" />
            <path
               style="display:inline"
               d="m 594.58183,1116.2902 c 0,-7.1498 -49.8774,-22.3025 -72.9231,-22.1539 -7.948,0.051 -9.14547,-0.052 -18.36867,3.5704 -12.04153,-54.8721 -4.94743,-31.5151 -2.08543,-53.6374 -0.6542,-1.2351 16.51597,-22.8796 -1.16308,-9.7479 -1.70219,10.1013 -9.7085,37.2553 0.44982,65.6673 0.51682,1.4455 0.96146,3.0675 2.28286,4.2632 1.7168,1.5537 6.5028,2.473 16.7716,3.2215 7.9032,0.5761 23.6693,2.9034 35.036,5.1718 27.4281,5.4738 40,6.6194 40,3.645 z"
               id="path28" />
            <path
               style="display:inline"
               d="m 741.62523,1117.2566 c 0.4517,-0.4517 2.8017,-1.3068 5.2222,-1.9004 3.483,-0.854 2.6152,-1.0303 -4.1598,-0.8454 -5.4883,0.1498 -8.7583,0.8319 -9.1111,1.9003 -0.5677,1.7196 6.4387,2.4555 8.0487,0.8455 z"
               id="path27" />
            <path
               style="display:inline"
               d="m 729.79573,1118.5737 c 2.3777,-6.1961 -37.5961,1.4012 -43.2561,8.2211 -2.2923,2.762 -0.052,2.563 10.9167,-0.9696 10.2391,-3.2978 31.9321,-6.19 32.3394,-7.2515 z"
               id="path26" />
            <path
               style="display:inline"
               d="m 583.15223,1129.3202 c 0.8454,-3.3688 1.2474,-3.18 -15.6474,-7.3492 -9.114,-2.249 -31.0814,-0.9735 -34.0285,1.976 -2.0823,2.0839 -1.3783,2.17 10.7721,1.3168 14.0008,-0.9832 38.4712,5.7798 38.9038,4.0564 z"
               id="path25" />
            <path
               style="display:inline"
               d="m 706.76323,1154.7853 c 0.3442,-0.3442 6.6822,-1.5355 14.0844,-2.6473 13.6968,-2.0572 21.3798,-4.1923 20.0111,-5.561 -0.4178,-0.4178 -3.651,-0.1541 -7.1849,0.586 -3.534,0.7401 -13.1754,2.1022 -21.4254,3.027 -8.25,0.9247 -15,2.1136 -15,2.6419 0,1.9157 7.9253,3.5428 9.5148,1.9534 z"
               id="path24" />
            <path
               style="display:inline"
               d="m 575.38889,1155.6216 c 0,-0.6463 -4.05,-1.8616 -9,-2.7007 -4.95,-0.839 -10.35,-1.8969 -12,-2.3509 -1.8409,-0.5064 -3,-0.2373 -3,0.6965 0,0.8371 1.35,2.0212 3,2.6314 4.6123,1.7058 21,3.0509 21,1.7237 z"
               id="path23" />
            <path
               style="display:inline"
               d="m 610.28543,1231.9577 c -6.34955,0 4.577,-28.0424 3.6318,-51.339 -0.5178,-12.7642 -0.9728,-28.7576 -1.011,-35.5409 -0.081,-14.4488 -0.1522,-14.5624 -3.1472,-5.0609 -2.1763,6.9039 -2.1703,8.2278 0.1186,26.1329 2.631,20.5833 2.263,33.8521 -1.4636,52.7747 -2.2562,11.4569 8.40108,13.0332 1.8716,13.0332 z"
               id="path22" />
            <path
               style="display:inline"
               d="m 688.24853,1247.0277 c 5.8904,-5.0459 6.2004,-7.8976 1.5951,-14.6749 -4.2634,-6.2742 -7.1222,-5.1878 -3.1711,1.2051 3.4698,5.6144 2.6302,10.5483 -2.5196,14.8053 -1.9641,1.6236 -2.9711,2.9511 -2.2378,2.9499 0.7333,0 3.5834,-1.9296 6.3334,-4.2854 z"
               id="path21" />
            <path
               style="display:inline"
               d="m 645.49863,1270.1071 c 4.5385,-2.4686 9.6692,-7.8878 8.5384,-9.0186 -0.266,-0.2659 -4.0178,1.3691 -8.3374,3.6334 -17.0297,8.9267 -40.4512,3.246 -40.4512,-9.8111 0,-3.2339 -2.1061,-5.8379 -3.5522,-4.3918 -2.3343,2.3343 3.3672,16.3509 7.6758,18.8704 6.8388,3.999 29.2744,4.4447 36.1266,0.7177 z"
               id="path20" />
            <path
               style="display:inline"
               d="m 663.7393,1336.8464 c 0,0 23.2572,-6.1655 39.94453,-10.5781 l 19.91505,-0.061 c 0,0 -22.3998,-4.1293 -33.8538,-2.7187 -11.454,1.4107 -23.12068,7.8218 -33.87308,8.3444 -19.6223,0.954 -36.44837,-1.0838 -29.94197,1.39 3.3019,1.2553 37.80927,3.6238 37.80927,3.6238 z"
               id="path19" />
            <path
               style="display:inline"
               d="m 681.90824,1359.2514 c 5.1333,-0.6968 16.83599,-5.0347 17.56931,-5.804 0.84291,-0.8842 -15.06269,1.1308 -32.18211,-0.3898 -12.03547,-1.0689 -26.71821,-6.118 -27.74078,-5.486 -5.29383,3.2719 23.74688,14.2057 42.35358,11.6798 z"
               id="path18" />
            <path
               style="display:inline"
               d="m 867.26056,1522.1254 c 11.676,-5.172 2.0297,-20.792 -12.8403,-20.792 -9.3676,0 -10.9038,3.5156 -7.138,16.3348 1.4168,4.8225 13.2124,7.4541 19.9783,4.4572 z"
               id="path17" />
            <path
               style="display:inline"
               d="m 1025.8065,1339.587 c -1.1802,-9.8979 -22.1786,-24.6602 -31.12644,-27.4936 -2.829,-0.7566 -3.5592,-1.7523 -3.5592,-4.8536 v -3.9017 l 9.33334,-0.1511 c 15.737,-0.3207 36.1716,12.1063 28.9926,30.6305 -0.8243,1.8344 -0.8126,3.8827 0.033,5.751 1.8119,4.0038 0.028,11.4573 -1.9126,7.9901 -0.7399,-1.3221 -1.5321,-4.9093 -1.7605,-7.9716 z"
               id="path16" />
            <path
               style="display:inline"
               d="m 1058.8039,1604.3334 c 1.1483,-2.75 3.0912,-9.5 4.3175,-15 4.1193,-18.4752 6.2845,-24.9612 7.344,-22 1.3689,3.8259 8.2275,-18.1875 12.4626,-40 6.1701,-31.7781 7.9262,-51.7981 8.0702,-92.0004 0.1311,-36.6109 0.1926,-37.4165 3.1713,-41.5997 6.4942,-9.1202 9.9034,-18.9102 10.6276,-30.5182 0.8876,-14.2266 1.2921,-14.5614 14.5474,-12.0382 155.9515,84.7337 339.1005,88.6056 70.7457,12.7826 -6.0331,-1.5116 -12.9552,-3.3792 -15.3824,-4.1502 l -4.413,-1.402 0.8623,-6.9022 c 0.5079,-4.0648 -0.034,-13.38 -1.3168,-22.6602 -2.0366,-14.7273 -2.0314,-16.1449 0.08,-21.6742 2.3893,-6.2563 2.3076,-12.5026 -0.687,-52.504 -2.3042,-30.7788 -7.2877,-39.567 -50.2796,-88.6667 -46.5714,-53.1877 -62.5428,-81.9332 -65.7944,-118.4177 -2.3681,-26.5709 -4.0387,-58.54052 -4.0387,-77.28924 0,-14.3288 19.1727,-28.42284 14.9481,-57.87011 -9.1194,-63.56605 -13.0733,-75.95468 -34.826,-109.11967 -7.8937,-12.03493 -10.6234,-16.95801 -12.8452,-23.16615 -9.9769,-27.8782 -39.07904,-52.90467 -75.27294,-64.73124 -7.1431,-2.33407 -12.9875,-4.96963 -12.9875,-5.8568 0,-3.40103 7.8127,-8.75525 19.6667,-13.47804 17.6146,-7.01792 16.6968,-8.63392 -4.9036,-8.63392 -9.4802,0 -21.6302,0.57035 -27,1.26745 -5.3697,0.6971 -14.9804,1.6017 -21.3571,2.01022 -74.6581,4.78301 -125.2445,37.20469 -128.4514,82.32684 -1.0427,14.67088 -0.8369,14.38391 -10.3778,14.46908 -81.518,0.72768 -136.6567,12.46481 -172.2435,36.66476 -18.7657,12.76119 -13.1812,6.43707 -36.5569,22.14159 -43.2931,29.08564 -43.5107,45.42503 -62.2741,74.72824 -15.2084,47.19605 -6.09763,72.53731 13.14927,108.00299 4.7052,9.9079 8.64276,3.4536 15.20901,-11.488 3.37695,-7.6843 24.09995,-21.01408 69.80762,1.9334 13.00289,6.5281 32.52161,-0.2805 43.51611,-8.1692 26.4434,-18.97322 74.18359,-25.88169 111.56599,-19.50725 8.0116,1.36613 16.2968,2.56604 18.4114,2.66648 2.1147,0.1004 9.9147,2.35752 17.3334,5.01576 43.3846,15.54551 43.4397,76.08691 38.3858,96.15751 64.0444,7.8923 38.3133,102.9334 101.3983,73.6519 -2.4269,-16.3726 7.4799,-40.7251 10.3519,-51.9374 7.4193,-36.558 12.4426,-66.1407 48.3619,-28.9039 10.2163,10.3008 28.86534,75.5933 27.11333,94.927 -3.3591,37.069 -26.72143,60.5169 -48.90363,62.9759 12.8357,7.7251 21.4924,54.0455 37.3887,60.6296 1.29,6.2545 2.073,7.6666 4.2512,7.6666 -17.85753,-15.9143 39.65464,22.9628 36.47434,55.3334 l 0.8417,26 c 1.2561,38.796 5.1913,55.165 21.7964,90.6666 17.2678,36.9183 17.8621,44.951 6.7908,91.7866 -3.3526,14.1826 -6.0956,26.9326 -6.0956,28.3333 0,4.6344 4.7502,2.9735 7.0163,-2.4532 z"
               id="path15" />
            <path
               style="display:inline"
               d="m 901.07556,1667.3882 c 2.3549,-2.8375 0.5381,-9.0837 -3.8707,-13.3075 -7.3076,-7.0012 -21.4173,-5.4414 -21.4173,2.3675 0,8.2721 20.2365,17.0267 25.288,10.94 z"
               id="path14" />
            <path
               style="display:inline"
               d="m 943.84656,1799.2623 c 5.4559,-6.574 -4.2453,-21.9289 -13.8547,-21.9289 -2.3889,0 -10.2043,8.7156 -10.2043,11.3797 0,7.1035 19.7365,15.7575 24.059,10.5492 z"
               id="path13" />
            <path
               style="display:inline"
               d="m 946.45426,1955.021 c 9.9622,-3.4979 8.8947,-24.3543 -1.2466,-24.3543 -7.8929,0 -13.4201,6.2752 -13.4201,15.2364 0,6.2106 8.2824,11.3595 14.6667,9.1179 z"
               id="path12" />
            <path
               style="display:inline"
               d="m 449.12086,2011.3339 c 1778.06484,-1223.89211 -1597.94106,1099.9079 0,0 z"
               id="path11" />
            <path
               style="display:inline"
               d="m 985.56536,2136.4445 c 2.7454,-2.7455 0.7857,-12.2942 -3.2139,-15.6596 -10.7902,-9.0794 -18.7398,-3.4088 -12.971,9.2524 2.4449,5.3661 13.0341,9.558 16.1849,6.4072 z"
               id="path10" />
            <path
               style="display:inline"
               d="m 1012.3054,2275.3334 c -0.9307,-4.5688 -9.3735,-22.2637 -23.53854,-49.3333 -6.2815,-12.0041 -14.4723,-31.2779 -22.9486,-54 -21.0136,-56.3308 -19.8429,-51.1182 -20.0631,-89.3334 -0.2527,-43.8557 -0.784,-45.6378 -19.2793,-64.6666 -20.295,-20.8803 -22.757,-30.4058 -13.0043,-50.3123 10.9654,-22.3816 11.3967,-37.2037 2.2075,-75.8593 -4.6726,-19.6563 -5.4121,-25.1016 -6.5183,-48 -2.4407,-50.5214 -17.2077,-110.1971 -36.5807,-147.8284 -24.3475,-47.2939 -26.2105,-52.0056 -32.1334,-81.2678 -28.92891,-204.6091 -30.01902,-26.5061 24.1454,71.3303 11.9042,20.6183 19.6508,40.3516 26.4719,67.4328 1.9169,7.6109 4.6368,18.338 6.044,23.838 5.2044,20.3404 8.1454,41.1203 9.341,66 1.3183,27.4341 1.8083,30.8051 7.8965,54.3137 7.8122,30.1659 6.9954,47.5966 -3.2243,68.8051 -10.5113,21.8139 -7.8813,32.0429 13.9405,54.2184 17.7401,18.0276 17.9849,18.858 17.5781,59.6275 -0.3325,33.3173 0.7286,40.8513 8.8774,63.0353 22.1722,60.3607 24.6626,66.3215 40.1083,96 8.77794,16.8667 17.20524,32.7667 18.72734,35.3334 l 2.7674,4.6666 z"
               id="path9" />
            <path
               style="display:inline"
               d="m 1043.7866,2282.0013 c 3.769,-4.5415 -3.8566,-13.962 -12.8836,-15.916 -3.4845,-0.7543 -4.3633,-0.4551 -5.0539,1.7208 -3.0071,9.4745 11.9994,21.3501 17.9375,14.1952 z"
               id="path8" />
            <path
               style="display:inline"
               d="m 1179.2683,2753.386 c 36.0149,9.2617 106.2714,0.512 145.7274,-18.1491 6.8979,-3.2624 12.7436,-5.1909 13.1211,-5.352 14.6943,-6.2708 -2.6147,-4.5643 11.8196,-4.5515 23.2801,0.021 -8.762,-1.171 24.6196,-133.6013 1.4236,-5.6473 3.7583,-20.9473 5.1884,-34 41.6483,-255.2198 73.3489,-31.8476 43.8741,-239.8953 -3.7404,-26.4017 10.9984,-50.5459 25.7658,-73.7692 5.6314,-8.856 7.737,-14.5451 3.3895,-9.158 -11.0024,13.6333 -36.4626,48.7112 -47.2438,65.0905 -4.103,6.2333 -13.5702,20.6333 -21.0382,32 -7.4681,11.3667 -18.5832,26.9667 -24.7002,34.6667 -20.2315,25.467 -106.5551,110.4476 -118.5105,116.6666 -2.8195,1.4667 -10.9638,8.8102 -18.0985,16.319 -7.1347,7.5086 -19.7525,18.7449 -28.0396,24.9693 -8.2871,6.2244 -19.4823,16.0615 -24.8781,21.8601 -8.2954,8.9146 -32.1814,29.324 -42.7763,36.5503 -2.7344,1.8651 -2.8246,2.2459 -0.9126,3.8521 1.167,0.9804 3.8062,4.7826 5.8651,8.4492 2.0588,3.6667 8.6672,13.8667 14.6853,22.6667 29.3829,42.9651 30.5358,61.5312 6.3832,102.7901 -5.1117,8.7322 -12.5403,21.8766 -16.508,29.2099 -52.6619,65.1362 -19.8555,15.0854 42.2667,3.3859 z"
               id="path7"
               sodipodi:nodetypes="csssscssssssssssssssscc" />
            <path
               style="display:inline"
               d="m 1209.0785,2897.0001 c -0.038,-12.3079 -0.237,-13.4093 -2,-11.0785 -1.9922,2.634 -2.7898,18.3582 -1.1483,22.6361 2.025,5.2771 3.1873,1.0101 3.1483,-11.5576 z"
               id="path5" />
            <path
               style="display:inline"
               d="m 1227.7452,3032.6981 c 0.023,-2.9161 -2.3561,-20.3161 -5.2876,-38.6667 -2.9316,-18.3505 -6.8761,-43.2646 -8.7657,-55.3646 -4.04,-25.8707 -4.385,-27.177 -6.0405,-22.8768 -0.6613,1.7176 -0.9069,3.601 -0.5459,4.1852 1.622,2.6245 5.2028,22.8622 6.728,38.0249 0.2212,2.2 0.7761,6.1 1.233,8.6667 0.4568,2.5666 1.0811,6.4666 1.3872,8.6666 0.5377,3.8642 1.2329,8.2644 2.634,16.671 0.3667,2.2 0.9667,5.8 1.3333,8 1.7117,10.2698 2.1512,13.0245 2.8714,17.9957 0.425,2.9333 0.7047,7.4611 0.6217,10.0617 -0.083,2.6007 0.7354,5.9007 1.8188,7.3334 1.8452,2.4401 1.9725,2.2695 2.0123,-2.6971 z"
               id="path4" />
            <path
               style="display:inline"
               d="m 507.71946,2063.3735 c 23.02425,5.6129 24.938,15.6335 29.745,13.8952 5.7882,-2.093 8.004,-0.935 23.0862,12.0647 44.7722,38.5903 82.375,103.555 94.5674,163.3798 1.9378,9.5077 5.258,24.493 7.3784,33.3006 l 3.8552,16.0139 0.9278,60.7296 c 0.6509,42.5995 0.4983,61.4971 -0.511,63.3007 -1.3576,2.4257 -1.479,2.3837 -2.1478,-0.7434 -13.01582,5.7564 5.77783,61.2747 -10.2312,104.7706 -3.4428,9.3539 -3.5467,25.9149 -1.3959,25.9149 1.8816,0 7.5716,10.8344 28.7097,54.6667 10.7863,22.3666 20.4679,41.1465 21.5146,41.7329 1.0467,0.5864 1.903,2.6085 1.903,4.4937 0,1.8851 1.5392,5.9052 3.4204,8.9338 1.8812,3.0284 7.4312,12.3849 12.3334,20.7921 11.9565,20.5057 23.2289,32.4097 37.8767,39.9989 6.0699,3.145 11.6917,6.2375 12.493,6.8724 4.8195,3.8188 21.6327,9.1155 32.8291,10.3422 25.6995,2.8156 60.2763,4.4576 65.9454,3.1316 3.0822,-0.721 6.0734,-0.793 6.7051,-0.1612 l 6.9948,2.6804 c 3.2402,-42.2427 17.0938,-83.5308 38.9791,-116.1703 l 10.0897,-32.3349 c -5.6489,-6.3115 1.8277,-32.2171 15.7364,-54.5247 4.7279,-7.5828 8.5963,-14.3492 8.5965,-15.0364 8e-4,-2.3596 -8.2376,6.5887 -13.7327,14.9161 -6.4582,9.7868 -6.5539,9.8208 -9.3529,3.3334 -1.1865,-2.75 -4.2775,-7.9155 -6.869,-11.479 -2.5914,-3.5633 -4.7116,-7.554 -4.7116,-8.8678 84.82934,-128.2973 82.87944,-37.2556 -177.6667,-312.9456 -12.2833,-12.6843 -22.3333,-23.5947 -22.3333,-24.2455 0,-0.6507 -7.35,-7.3511 -16.3334,-14.8897 -8.9833,-7.5386 -21.7333,-18.9013 -28.3333,-25.2503 -6.6,-6.349 -15.9,-14.1406 -20.6667,-17.3146 -4.7666,-3.174 -18.8666,-13.4116 -31.3333,-22.7502 -42.0807,-31.5223 -122.8657,-79.924 -133.3972,-79.924 -0.8067,0 -6.3125,-2.1 -12.2353,-4.6667 -5.9228,-2.5667 -11.8784,-4.6931 -13.2347,-4.7252 -1.3564,-0.032 -4.7107,-0.8596 -7.454,-1.8387 -4.4815,-1.5994 -5.71125,-1.7741 -10.4852,0.9396 -20.21565,11.4913 55.72892,23.7356 58.7383,41.6644 z"
               id="path3" />
            <path
               style="display:inline"
               d="m 1251.7876,3183.8412 c 0,-0.8207 -2.0493,-4.8707 -4.5539,-9 -14.1911,-23.3964 -16.6717,-36.0928 -17.6925,-90.5563 -0.4575,-24.41 -1.3089,-44.6766 -1.892,-45.037 -2.0983,-1.2967 -2.6823,8.5605 -2.1379,36.0856 1.14,57.638 2.2424,66.2453 11.0189,86.0296 7.3787,16.6332 15.2574,28.2405 15.2574,22.4781 z"
               id="path2" />
            <path
               style="display:inline"
               d="m 1394.4542,3198.6427 c 23.8344,-2.7692 51.6409,-14.0876 61.1637,-24.8963 3.1075,-3.5271 6.5223,-7.3684 7.5884,-8.5361 6.7662,-7.4111 -8.9813,-45.88 -26.6478,-65.0968 -11.4287,-12.4315 -12.9895,-16.4908 -14.3984,-37.4467 -0.6656,-9.9 -2.6586,-25.8 -4.429,-35.3334 -1.7704,-9.5333 -3.9264,-21.2333 -4.7911,-26 -0.964,-5.3138 -2.7806,-10.1246 -4.6957,-12.4356 -2.3352,-2.8178 -3.1234,-5.4129 -3.1234,-10.2833 0,-10.9771 -1.396,-51.0763 -1.9013,-54.6144 -6.5806,-46.0768 -26.3883,-78.6667 -47.8124,-78.6667 -9.9654,0 -14.978,3.5991 -26.1891,18.8042 -21.5011,29.1608 -28.4041,31.2408 -37.1561,11.1958 -20.1804,-46.2198 -23.9456,-64.2966 -16.4516,-78.9861 4.7408,-9.2928 4.2059,-10.1791 -5.4819,-9.0831 -9.558,1.0815 -19.5188,4.9779 -23.4595,9.177 -4.6654,4.9713 -18.7258,35.7692 -21.7006,47.533 -3.3952,13.426 -7.1338,22.5434 -10.1477,24.7472 -2.3581,1.7243 -1.1382,10.722 2.9779,21.964 0.9436,2.577 1.704,8.277 1.6898,12.6667 -0.016,4.9793 1.0414,10.7765 2.8112,15.4128 6.5246,17.0916 12.0976,50.1296 12.1288,71.9019 0.012,8.4333 0.6111,21.6333 1.3312,29.3333 0.7201,7.7 1.9526,23.9 2.7389,36 4.294,66.0776 8.1168,79.3802 29.2554,101.8024 28.3694,30.0922 78.9314,46.3902 126.7003,40.8402 z"
               id="path1" />
            <path
               style="display:inline"
               d="m 1380.4542,3237.3237 c 2.9334,-0.57 5.7941,-0.7589 6.3572,-0.4198 2.0753,1.2496 31.3953,-2.4231 44.6811,-5.5968 22.4943,-5.3736 34.8992,-16.1588 34.9487,-30.3856 0.018,-5.2384 -1.9765,-3.4352 -3.934,3.5561 -5.7792,20.6415 -43.0748,30.4968 -107.7549,28.4743 -42.1662,-1.3187 -63.5161,-9.8454 -90.0189,-35.9518 -11.1163,-10.95 -14.6444,-12.9941 -10.6879,-6.1925 5.3804,9.2495 27.0402,26.1905 44.1423,34.5256 20.1794,9.8348 61.9955,15.9296 82.2664,11.9905 z"
               id="path4541" />
          </g>
          <path
             d="m 704.08568,1145.72 c 8.84801,0.2014 15.98399,-13.8432 12.87676,-19.8519 -1.26151,-2.4395 -20.09627,-3.8573 -24.48973,1.7282 -1.47731,11.0318 0.82087,18.3502 11.61297,18.1237 z"
             fill="#70744a"
             stroke-width="1.45868"
             id="path4545" />
          <path
             d="m 566.49969,1133.1805 c 0.3431,-3.3199 -17.21554,-11.3887 -21.67121,-1.378 -2.08881,4.6931 -1.54181,11.1304 2.75662,13.8257 4.51955,3.3466 16.44038,3.1891 18.91459,-12.4477 z"
             fill="#70744a"
             stroke-width="1.36597"
             id="path4547" />
          <path
             d="m 558.78762,1134.4273 c -4.6622,-5.1516 -7.41524,-2.8672 -8.72387,1.6836 1.54387,8.172 10.53353,4.4407 8.72387,-1.6836 z m 148.78962,1.8582 c 6.3339,-6.3339 0.30452,-11.8815 -6.98858,-6.5486 -2.1596,1.5791 1.25018,11.9959 6.98858,6.5486 z m -138.45638,-5.6175 c 0,-3.0637 -4.6966,-5.4655 -11.7138,-5.9903 -2.4092,-0.1801 -4.7592,-0.7063 -5.2222,-1.1693 -0.463,-0.4629 -5.6917,-0.7488 -11.6196,-0.6353 l -10.7777,0.2065 10.9083,0.8372 c 7.1129,0.9324 18.2341,4.272 24.4913,7.4508 3.7385,1.9333 3.9337,1.8986 3.9337,-0.6996 z m 141.6667,-7.6393 c 4.7537,-0.4972 7.8957,-5.6953 3.4425,-5.6953 -7.6028,0 -18.2147,3.0849 -16.5023,4.7973 1.8421,1.8421 3.1653,1.933 13.0598,0.898 z"
             fill="#29292d"
             stroke-width="1.33333"
             id="path4549" />
        </g>
        <g
           transform="translate(0,-9.6e-5)"
           id="g4615">
          <path
             d="m 702.24594,1406.7968 c 44.48691,254.219 280.22889,370.9301 368.54226,790.2391 l 84.0458,-87.6418 C 925.18624,1698.0217 778.78605,1398.4935 825.4928,1358.4073 c -40.93795,-2.3824 -101.74129,10.409 -123.24686,48.3895 z"
             fill="#6c6244"
             id="path4553"
             style="fill:#4a4731" />
          <path
             d="m 727.02235,1393.8237 c 0,0 1.97422,58.0504 26.5762,108.8606 24.60198,50.8102 -46.31853,-64.1269 -26.5762,-108.8606 z m 309.39905,667.1554 34.3668,136.0568 c 0,0 -9.8154,-109.1218 -34.3668,-136.0568 z m -219.14202,-660.691 c 0,0 4.96087,80.2448 34.32122,131.917 29.36036,51.6722 73.09723,141.6136 49.65955,88.1745 -23.43767,-53.4391 -64.13718,-130.4517 -83.98077,-220.0915 z"
             id="path4555" />
          <g
             transform="matrix(6.2793042,9.2026596,-9.2026596,6.2793042,1556.2927,675.05293)"
             id="g4579">
            <path
               d="m 64.423005,93.570724 c 1.192622,-0.425209 3.2377,-0.172957 2.838133,-0.09194 -0.399566,0.08102 -1.692756,0.250528 -2.838133,0.09194 z"
               fill="#60625d"
               id="path4557" />
            <path
               d="m 65.618825,103.87639 c -0.07777,-0.35905 0.06242,-1.02037 0.957273,2.65639 0.240937,0.98995 0.242717,3.16255 -0.038,3.38215 -0.804868,0.62964 -2.052769,0.71221 -2.262559,-0.6633 -0.20979,-1.37552 1.60409,-4.17114 1.343286,-5.37524 z"
               fill="#23303a"
               id="path4559"
               style="fill:#1a1817;fill-opacity:1" />
            <path
               d="m 65.293026,92.867642 c -0.17241,1.30289 -0.0033,2.78152 0,4.17477 0.332882,0.17995 0.666577,0.29448 1.005358,0 0.0063,-1.34448 0.08737,-2.63897 0,-4.04585 -0.530021,-0.39838 -0.713646,-0.16509 -1.005358,-0.12884 z"
               fill="#6c6244"
               id="path4561"
               style="fill:#4a4731" />
            <path
               d="m 66.377912,100.37303 c 0.01041,1.71584 -0.334448,3.29975 -0.539087,2.92635 -0.141077,-0.25742 0.243255,-1.74262 0.210623,-3.15349 -0.03263,-1.410868 -0.481109,-3.007611 -0.163072,-2.810271 0.645564,0.656405 0.484703,2.425585 0.491536,3.037411 z"
               fill="#23303a"
               id="path4563"
               style="fill:#1a1817;fill-opacity:1" />
            <path
               d="m 66.034163,103.56146 c 0.345699,-1.15734 0.431264,-2.53656 0.748041,1.23424 0.14442,1.71913 1.688195,4.37475 0.511405,4.76696 -0.534711,0.1782 -0.153556,-0.49818 -0.409168,-2.6049 -0.167595,-1.3813 -0.987831,-2.9358 -0.850278,-3.3963 z"
               fill="#23303a"
               id="path4565"
               style="fill:#1a1817;fill-opacity:1" />
            <path
               d="m 65.336423,97.246292 c 1.125931,3.448478 0.152216,4.340538 0.07236,7.147668 -0.0159,0.55895 -1.671172,5.56494 -1.825859,5.25694 -0.500172,-0.99591 1.179796,-5.1412 1.496713,-6.9465 0.316918,-1.80529 0.400409,-3.423619 0.256787,-5.458108 z"
               fill="#23303a"
               id="path4567"
               style="fill:#1a1817;fill-opacity:1" />
            <g
               fill="#60625d"
               id="g4577">
              <path
                 d="m 63.119287,109.11832 c 0.01005,0.57834 1.843413,1.64515 2.179392,1.65207 0.340518,0.006 2.655144,-1.0353 2.677194,-1.53345 0.03101,-0.70056 -1.495816,-6.4719 -1.518908,-8.6031 -0.02548,-2.351804 -0.251353,-5.08201 0.08428,-5.498873 0.263325,-0.327058 1.059961,-1.489443 0.474782,-1.162165 -0.572107,0.319968 -1.974092,0.353703 -2.581655,0.04393 -0.607561,-0.309767 0.222152,0.474892 0.62393,0.942834 0.401781,0.467942 0.120817,3.390219 0.122786,5.592964 0.0021,2.29174 -2.07072,8.05398 -2.061797,8.56579 z m -0.881989,0.2393 c 0.01371,0.59878 2.512906,1.70326 2.970906,1.71042 0.464187,0.007 3.619441,-1.07186 3.6495,-1.5876 0.04228,-0.72531 -2.039069,-6.70049 -2.070548,-8.90696 -0.03473,-2.434871 -0.342639,-5.261508 0.114884,-5.693094 0.35896,-0.338609 1.444918,-1.54205 0.647214,-1.203212 -0.779885,0.331269 -2.691044,0.366195 -3.519263,0.04548 -0.828216,-0.320708 0.24579,0.689173 0.793487,1.173643 0.547698,0.484469 0.221737,3.312449 0.224422,5.593003 0.0028,2.37268 -2.822766,8.33844 -2.810602,8.86832 z"
                 fill-rule="evenodd"
                 id="path4569" />
              <path
                 d="m 64.521127,109.92516 c 0.500808,0.41257 0.638495,-0.34821 0.689791,-2.10076 0.05129,-1.75255 -0.139039,2.43173 -0.689791,2.10076 z"
                 id="path4571" />
              <path
                 d="m 66.140989,105.24556 c -0.09989,-1.24804 -0.220031,-3.33846 0.211931,-2.29957 0.431963,1.03889 0.610146,1.50891 0.202482,0.90673 -0.482354,-1.22717 -0.196051,-0.75964 -0.414413,1.39284 z"
                 id="path4573" />
              <path
                 d="m 65.727961,98.277931 c -0.170666,2.677119 -0.01739,7.104999 0,0 z"
                 id="path4575" />
            </g>
          </g>
          <path
             d="m 1013.9164,1929.5581 c 5.0151,1.8654 10.4923,43.9806 12.8991,74.4026 2.4068,30.422 1.7433,49.1477 1.0798,67.8748 0,0 -3.3839,8.8212 -3.3839,8.8212 -8.2383,-25.398 -16.4762,-50.7949 -18.3193,-82.6872 -1.8431,-31.8922 2.7093,-70.2768 7.7243,-68.4114 z"
             fill="#4b4531"
             id="path4581" />
          <g
             transform="matrix(3.7795276,0,0,3.7795276,650.70942,1537.941)"
             id="g4609">
            <path
               d="m 85.225236,131.79141 c -6.900771,-1.09855 -6.648595,7.81201 -4.663131,12.05256 0.44023,9.0773 -5.637011,16.60959 -9.621396,24.28396 -2.143853,4.53112 -6.141003,8.68936 -6.54232,13.73383 1.616109,6.50363 6.550395,7.10085 11.770917,6.84128 6.097376,-0.97237 15.155173,0.74811 21.153287,-0.81711 6.894877,-2.59999 13.642987,-11.05142 10.620337,-16.52473 -4.07389,-8.7602 -10.324562,-17.60717 -9.041148,-27.76767 3.953078,-5.68201 -0.272502,-13.36303 -7.302804,-12.29941 -2.135195,-0.10096 -4.27408,0.11765 -6.373742,0.49729 z m 0.0021,0.23667 c 6.478333,-3.29961 17.925954,2.55532 13.726209,10.50701 -2.365436,8.9051 3.302165,17.10373 6.723985,24.91291 1.79887,4.10867 4.10284,8.56874 1.0224,12.81401 -4.01517,6.45113 -12.038106,8.81056 -19.101903,7.28514 -6.640405,-1.03191 -14.377677,2.00299 -20.21959,-2.10594 -5.59763,-4.92802 0.66279,-11.21001 3.367483,-15.91971 4.239651,-6.42943 7.72574,-11.9117 10.046391,-19.23109 3.255379,-5.3101 -4.655612,-12.49568 0.961816,-16.59797 1.138594,-0.52003 2.315228,-2.1232 3.473209,-1.66433 z"
               fill="#60625d"
               fill-rule="evenodd"
               stroke-width="0.264583"
               id="path4583" />
            <path
               d="m 75.024974,177.37507 c 8.768844,-0.97454 11.528009,-7.90658 18.266637,-4.8267 6.738629,3.07989 11.382229,2.24325 12.591729,4.37161 0.8988,1.39766 1.47083,2.46322 1.10798,3.00379 -0.64863,0.96634 -1.96284,2.13969 -1.96284,2.13969 -6.215598,3.44012 -36.988878,2.86696 -36.742136,-0.57421 1.484879,-3.24079 2.041035,-4.01306 2.580983,-4.85428 2.759165,0.38613 4.157647,0.74006 4.157647,0.74006 z"
               fill="#4a4731"
               id="path4585"
               style="fill:#1a1817;fill-opacity:1" />
            <path
               d="m 82.009378,153.6287 c -6.868212,15.74882 -14.432973,25.49873 -14.238586,28.65678 0.194384,3.15804 25.421042,3.20399 21.544169,2.11914 -3.876874,-1.08484 -20.955624,-0.23443 -20.248279,-2.98794 0.707345,-2.75351 13.277463,-26.13311 12.942696,-27.78798 z"
               fill="#60625d"
               id="path4587" />
            <path
               d="m 82.711255,125.9899 c -0.81015,2.05859 1.468673,16.84286 2.516182,17.93691 1.047509,1.09406 8.007503,1.50777 9.227806,0.34017 1.220301,-1.1676 3.650097,-18.02885 2.834765,-18.89306 -0.815335,-0.86421 -13.667116,-1.70048 -14.578753,0.61598 z"
               fill="#6c6244"
               id="path4589"
               style="fill:#4a4731" />
            <path
               d="m 84.147595,135.95125 c 5.955697,2.17891 14.686754,-0.96534 12.148966,0.34936 -2.537786,1.3147 -10.502114,2.02262 -12.148966,-0.34936 z"
               fill="#60625d"
               id="path4591" />
            <path
               d="m 83.737382,175.79245 c 1.833933,-4.19601 2.076651,-7.30141 0.465223,-9.08658 -2.339617,0.63715 -6.317641,-0.0287 -6.445744,-1.46373 4.44326,-4.8102 8.138107,-5.02832 11.408172,-3.30056 3.270067,1.72778 2.21023,2.24016 3.910599,3.34074 -1.361983,1.9172 -5.009613,2.24439 -5.009613,2.24439 -0.445,3.77698 0.283177,6.63555 1.314766,7.96152 -2.487304,2.25869 -5.560882,0.66849 -5.643403,0.30422 z"
               fill="#60625d"
               id="path4593" />
            <g
               fill="#967d53"
               id="g4603">
              <path
                 d="m 99.08265,162.28664 c -0.458952,8.77999 -5.113362,8.23756 -5.113362,8.23756 0,0 -1.873652,-7.2952 5.113362,-8.23756 z"
                 id="path4595"
                 style="fill:#8c836a;fill-opacity:1" />
              <path
                 d="m 98.965365,160.37374 c -9.981634,4.65236 -9.761669,0.0842 -9.695277,0.0741 3.410653,1.52756 4.589573,-3.40574 9.695277,-0.0741 z"
                 id="path4597"
                 style="fill:#8c836a;fill-opacity:1" />
              <path
                 d="m 102.49964,172.50954 c -9.194006,6.06198 -9.644417,1.51077 -9.580216,1.49107 3.597368,1.01239 4.042208,-4.04028 9.580216,-1.49107 z"
                 id="path4599"
                 style="fill:#8c836a;fill-opacity:1" />
              <path
                 d="m 96.595212,151.7236 c -2.191861,8.92752 -3.443472,8.46406 -3.428699,8.4628 0.65493,0.14829 -1.643103,-7.0868 3.428699,-8.4628 z"
                 id="path4601"
                 style="fill:#8c836a;fill-opacity:1" />
            </g>
            <path
               d="m 102.60315,174.63379 c -0.10351,-2.12425 -3.403216,-10.43425 -3.5205,-12.34715 -0.117287,-1.9129 -0.660644,-7.55618 -2.487438,-10.56304 -1.826795,-3.00686 -3.835429,-10.32046 -1.832195,-13.44632 2.003235,-3.12586 3.21274,-7.16649 6.101483,-7.30899 2.88875,-0.1425 0.10799,0.37694 -0.988111,1.34228 -1.096105,0.96534 -4.643623,5.35073 -4.897392,8.10425 -0.253767,2.75352 0.873632,7.71088 2.502547,11.47978 1.628915,3.7689 1.070809,6.52828 1.373186,11.01941 0.302373,4.49113 3.74842,11.71978 3.74842,11.71978 z"
               fill="#645b36"
               id="path4605"
               style="fill:#4a4731;fill-opacity:1" />
            <path
               d="m 99.963341,131.99294 c 1.889489,3.27798 0.225389,5.4623 2.089619,6.39421 0.84073,-2.61902 2.98218,-5.01821 -2.089619,-6.39421 z"
               fill="#9f935f"
               id="path4607" />
          </g>
          <path
             d="m 1019.1631,1914.0577 c 0,0 -6.7689,17.1345 -6.7689,17.1345 0,0 22.7435,4.9099 22.7435,4.9099 0,0 -9.9563,11.797 -9.9563,11.797 0,0 -19.7638,-9.8361 -19.7638,-9.8361 -10.97167,11.1434 -21.94336,22.2868 -30.54974,29.8826 -8.60638,7.5958 -14.84773,11.6442 -21.08895,15.6925 0,0 -11.66512,-9.8361 -11.66512,-9.8361 0,0 -3.6407,-13.7263 -3.6407,-13.7263 5.31246,-2.2983 10.6254,-4.5967 21.44864,-9.0826 10.82325,-4.4859 27.1561,-11.159 43.48977,-17.8324 0,0 5.6096,-18.6602 5.6096,-18.6602 z"
             fill="#4d4732"
             id="path4611" />
          <path
             d="m 1024.8762,2069.6794 c -5.4613,0.9912 -18.0243,11.2728 -31.54378,12.6935 -13.51949,1.4207 -27.99768,-6.021 -42.47466,-13.4621 1.74883,6.1565 3.49794,12.314 10.50927,17.6069 7.01133,5.2929 19.28356,9.7225 31.62854,9.1384 12.34493,-0.5842 22.68143,-5.2431 29.19093,-11.9565 6.5096,-6.7133 8.151,-15.0114 2.6897,-14.0202 z"
             fill="#4b4531"
             id="path4613" />
        </g>
        <g
           transform="matrix(5.8469895,7.9586538,-7.9586538,5.8469895,1362.9962,292.11483)"
           id="g4635">
          <path
             d="m 87.620645,130.26637 c -0.36985,-0.7384 -0.789857,-14.60913 -0.104642,-14.6121 0.916826,-0.004 3.13365,-2.02009 2.298678,-2.37651 -1.456379,-1.11953 4.987732,-0.72729 3.299348,-0.0182 -0.890228,0.47079 1.263483,2.51648 2.202104,2.56262 0.881546,0.0433 0.578884,13.76858 0.03003,14.50042 -0.548855,0.73185 -7.318994,0.75547 -7.725519,-0.0562 z m -0.593502,1.22227 c -0.426921,-0.85234 -0.826041,-16.09936 -0.03509,-16.10278 1.0583,-0.005 3.277518,-1.71232 2.313702,-2.12374 -1.681111,-1.29228 6.310538,-0.91248 4.361621,-0.094 -1.027597,0.54344 0.77129,2.31183 1.854748,2.36508 1.017576,0.05 1.104503,15.32676 0.470956,16.17154 -0.633548,0.84478 -8.496682,0.72081 -8.965937,-0.21605 z"
             fill="#60625d"
             fill-rule="evenodd"
             id="path4617" />
          <path
             d="m 90.206871,110.88456 c -0.440655,1.36339 -0.0083,2.91067 0,4.36862 0.850795,0.1883 1.70367,0.30814 2.569543,0 0.01585,-1.40691 0.223299,-2.76151 0,-4.23373 -1.354653,-0.41686 -1.823971,-0.17275 -2.569543,-0.13489 z"
             fill="#6c6244"
             id="path4619"
             style="fill:#4a4731" />
          <path
             d="m 88.116494,129.94274 c -0.794036,-1.76763 -0.679479,-12.28561 -0.103099,-12.70282 0.921963,-0.66737 1.913817,0.35526 3.524058,0.13328 1.519099,-0.20942 2.760917,-0.82406 3.451522,-0.0471 0.673158,0.7573 0.62906,11.87905 0.05536,12.56955 -0.507004,0.61022 -6.613288,0.74736 -6.92784,0.0471 z"
             fill="#ab3025"
             id="path4621"
             style="fill:#8c836a;fill-opacity:1" />
          <g
             fill="#60625d"
             id="g4633">
            <path
               d="m 90.380605,113.39186 c 1.594488,0.32668 2.780965,-0.33967 2.197741,0.039 -0.58323,0.37868 -1.514386,0.32667 -2.197741,-0.039 z"
               id="path4627" />
            <path
               d="m 88.585366,125.69681 c 0.141269,1.8674 0.248175,3.45363 2.239287,3.81605 1.991112,0.36243 3.115528,0.0861 1.124416,-0.60783 -1.991113,-0.69398 -2.600095,-1.10516 -3.363703,-3.20822 z"
               id="path4629" />
            <path
               d="m 89.280252,115.38471 c 0.971694,0.70535 3.41906,0.33805 2.451187,0.61434 -0.967873,0.27629 -1.477584,0.26979 -2.451187,-0.61434 z"
               id="path4631" />
          </g>
        </g>
        <g
           transform="matrix(4.5366801,8.7718863,-8.7718863,4.5366801,1639.9676,477.79337)"
           id="g4655">
          <path
             d="m 87.620645,130.26637 c -0.36985,-0.7384 -0.789857,-14.60913 -0.104642,-14.6121 0.916826,-0.004 3.13365,-2.02009 2.298678,-2.37651 -1.456379,-1.11953 4.987732,-0.72729 3.299348,-0.0182 -0.890228,0.47079 1.263483,2.51648 2.202104,2.56262 0.881546,0.0433 0.578884,13.76858 0.03003,14.50042 -0.548855,0.73185 -7.318994,0.75547 -7.725519,-0.0562 z m -0.593502,1.22227 c -0.426921,-0.85234 -0.826041,-16.09936 -0.03509,-16.10278 1.0583,-0.005 3.277518,-1.71232 2.313702,-2.12374 -1.681111,-1.29228 6.310538,-0.91248 4.361621,-0.094 -1.027597,0.54344 0.77129,2.31183 1.854748,2.36508 1.017576,0.05 1.104503,15.32676 0.470956,16.17154 -0.633548,0.84478 -8.496682,0.72081 -8.965937,-0.21605 z"
             fill="#60625d"
             fill-rule="evenodd"
             id="path4637" />
          <path
             d="m 90.206871,110.88456 c -0.440655,1.36339 -0.0083,2.91067 0,4.36862 0.850795,0.1883 1.70367,0.30814 2.569543,0 0.01585,-1.40691 0.223299,-2.76151 0,-4.23373 -1.354653,-0.41686 -1.823971,-0.17275 -2.569543,-0.13489 z"
             fill="#6c6244"
             id="path4639"
             style="fill:#4a4731" />
          <path
             d="m 88.116494,129.94274 c -0.794036,-1.76763 -0.679479,-12.28561 -0.103099,-12.70282 0.921963,-0.66737 1.913817,0.35526 3.524058,0.13328 1.519099,-0.20942 2.760917,-0.82406 3.451522,-0.0471 0.673158,0.7573 0.62906,11.87905 0.05536,12.56955 -0.507004,0.61022 -6.613288,0.74736 -6.92784,0.0471 z"
             fill="#ab3025"
             id="path4641"
             style="fill:#8c836a;fill-opacity:1" />
          <g
             fill="#60625d"
             id="g4653">
            <path
               d="m 90.380605,113.39186 c 1.594488,0.32668 2.780965,-0.33967 2.197741,0.039 -0.58323,0.37868 -1.514386,0.32667 -2.197741,-0.039 z"
               id="path4647" />
            <path
               d="m 88.585366,125.69681 c 0.141269,1.8674 0.248175,3.45363 2.239287,3.81605 1.991112,0.36243 3.115528,0.0861 1.124416,-0.60783 -1.991113,-0.69398 -2.600095,-1.10516 -3.363703,-3.20822 z"
               id="path4649" />
            <path
               d="m 89.280252,115.38471 c 0.971694,0.70535 3.41906,0.33805 2.451187,0.61434 -0.967873,0.27629 -1.477584,0.26979 -2.451187,-0.61434 z"
               id="path4651" />
          </g>
        </g>
        <g
           fill="#4d4732"
           id="g4661">
          <path
             d="m 903.43394,1684.6015 c 4.11892,15.5742 8.23816,31.1495 13.83945,42.6391 5.60129,11.4896 12.68393,18.8943 21.78282,25.6462 9.09889,6.7518 20.21184,12.85 31.32636,18.949 0,0 -48.25007,31.3395 -48.25007,31.3395 -2.55381,-15.2079 -5.1074,-30.4144 -9.28039,-41.084 -4.173,-10.6695 -9.96584,-16.8003 -19.6836,-23.7676 -9.71776,-6.9673 -23.36141,-14.7709 -37.00393,-22.5739 0,0 47.26936,-31.1483 47.26936,-31.1483 z"
             id="path4657" />
          <path
             d="m 965.13594,1784.0093 c 2.75461,15.8724 5.50945,31.7461 10.09461,43.6776 4.58516,11.9315 10.99989,19.9218 19.4798,27.4363 8.47995,7.5145 19.02305,14.5522 29.56755,21.5909 0,0 -50.78297,27.0429 -50.78297,27.0429 -1.22711,-15.3719 -2.45412,-30.7425 -5.68738,-41.7334 -3.23326,-10.9908 -8.47333,-17.6002 -17.55116,-25.3829 -9.07784,-7.7828 -21.99438,-16.7387 -34.90985,-25.6939 0,0 49.7894,-26.9375 49.7894,-26.9375 z"
             id="path4659" />
        </g>
      </g>
      <g
         fill="#221f1e"
         id="g4675" />
    </g>
  </g>
</svg>
