<?xml version="1.0" encoding="UTF-8" standalone="no"?>
<!-- Created with Inkscape (http://www.inkscape.org/) -->

<svg
   width="238.61609mm"
   height="606.06018mm"
   viewBox="0 0 238.61609 606.06018"
   version="1.1"
   id="svg4770"
   inkscape:version="1.1.1 (3bf5ae0d25, 2021-09-20)"
   sodipodi:docname="hamid.svg"
   xmlns:inkscape="http://www.inkscape.org/namespaces/inkscape"
   xmlns:sodipodi="http://sodipodi.sourceforge.net/DTD/sodipodi-0.dtd"
   xmlns="http://www.w3.org/2000/svg"
   xmlns:svg="http://www.w3.org/2000/svg">
  <sodipodi:namedview
     id="namedview4772"
     pagecolor="#505050"
     bordercolor="#eeeeee"
     borderopacity="1"
     inkscape:pageshadow="0"
     inkscape:pageopacity="0"
     inkscape:pagecheckerboard="0"
     inkscape:document-units="mm"
     showgrid="false"
     fit-margin-top="0"
     fit-margin-left="0"
     fit-margin-right="0"
     fit-margin-bottom="0"
     inkscape:zoom="0.68684764"
     inkscape:cx="85.171727"
     inkscape:cy="890.29934"
     inkscape:window-width="2158"
     inkscape:window-height="1415"
     inkscape:window-x="0"
     inkscape:window-y="0"
     inkscape:window-maximized="1"
     inkscape:current-layer="layer1" />
  <defs
     id="defs4767" />
  <g
     inkscape:label="Layer 1"
     inkscape:groupmode="layer"
     id="layer1"
     transform="translate(9.1368322,240.24019)">
    <g
       transform="matrix(0.16396786,0,0.0105346,0.16396786,-56.169893,-246.54334)"
       id="g4169">
      <path
         d="M 836.67993,245.76236 H 1103.8129 V 370.84431 H 836.67993 Z"
         fill="#e1c07e"
         fill-rule="evenodd"
         transform="rotate(-2.3163963)"
         id="path4137" />
      <g
         transform="rotate(-2.3163963,870.38257,1896.8502)"
         id="g4147">
        <path
           d="m 1416.105,1220.5555 158.9723,-7.7557 c 31.9401,-42.3443 77.5089,-62.2807 5.8116,-275.02203 l -337.8441,-236.20576 -337.55839,41.96346 -249.73538,155.04318 -65.75104,231.75165 97.37496,18.6123 c 5.54657,125.8858 113.89236,-285.10412 16.63972,377.6574 l -35.31399,455.455 c 192.08749,40.0671 357.04482,124.1285 669.12702,-30.3884 4.8673,-385.9013 8.6575,-779.0179 78.2773,-731.1111 z"
           fill="#60625d"
           id="path4139" />
        <g
           stroke-width="1.33333"
           id="g4145">
          <path
             d="m 1129.3333,3737.5524 c 119.9388,-71.384 -69.6816,-203.9899 -120.2879,-225.7885 -123.59716,168.3216 -68.05011,242.4905 31.7542,228.6213 29.461,-0.3903 59.4237,2.757 88.5337,-2.8328 z m -646.65383,-35.6127 c 119.95952,-24.9329 213.19664,-118.8135 335.32052,-138.5911 -79.09024,0.495 -100.20992,-147.4865 -170.97559,-113.3484 -57.2157,43.649 -278.47206,199.5657 -255.61619,208.1762 8.0846,32.2203 59.96083,52.8932 91.27126,43.7633 z M 447.81319,2180.0066 c 40.36497,-49.3057 -49.253,32.34 0,0 z m 540.85346,-159.972 c 105.86345,-43.0987 275.09945,-15.0166 346.13085,-88.5179 -0.5367,-4.1602 -169.4489,67.4843 -70.8005,-34.5647 36.066,-70.6933 58.988,-170.193 68.1086,-230.7437 15.7712,83.2134 24.5903,-173.265 10.2992,-138.8945 -0.081,-114.11 13.0353,-226.4623 39.6403,-337.3138 -7.0574,-6.0173 -133.5096,185.8862 -77.3847,55.4075 40.6807,-35.0589 144.7936,-392.54358 118.4859,-265.74288 -24.1618,68.67438 -20.864,205.71978 59.5264,133.15558 0.6241,-48.7775 -23.3551,-160.30149 39.9097,-190.71321 74.1258,-33.35369 -121.1376,18.84528 -77.8706,5.31502 125.8212,-29.68792 -47.952,-49.9571 -72.3313,-108.23363 -76.6574,-76.27466 -79.8904,53.71337 -128.4859,35.61134 54.8119,-27.33596 105.995,-111.5837 21.5044,-28.42333 -122.4423,140.91731 31.0681,-258.40659 -1.8512,-67.2739 -73.3937,59.56054 -49.4769,38.51779 -1.3924,-15.1173 -9.2974,-54.9681 -106.5427,-77.23151 -33.6354,-6.65186 34.7797,24.66908 -127.5892,51.44335 -30.1741,90.25118 37.346,77.66714 0.2238,37.2231 -24.8111,-22.70089 -102.4375,19.0427 -128.4463,155.18184 -155.9274,244.58168 -53.3581,108.4545 71.57,-167.81265 16.208,-113.54329 -8.4744,-100.23029 -75.67675,-84.74295 -109.52996,-23.92202 -87.52473,14.22964 20.6064,-157.38607 -83.61819,-107.08225 -125.68395,20.45995 -161.18578,143.09378 -150.51584,255.74896 -11.68562,135.7944 75.73886,264.2167 31.84358,400 -31.48767,122.4294 -25.01169,250.249 -21.33671,374 -13.78071,56.188 -85.50278,167.8224 18.45475,137.7022 75.00764,7.9246 218.42399,72.7613 226.84317,-45.1281 31.98638,-123.0498 -11.16369,-248.2272 15.67386,-369.1463 35.99038,-102.3773 9.38689,-211.434 41.76604,-314.5092 0.392,-55.5972 -3.2352,-223.9291 8.1418,-73.9401 -27.25723,61.1312 84.7632,31.4823 6.751,58.4291 -6.7155,39.0894 -73.15975,208.585 13.6988,198.0981 -76.59386,17.1126 -55.64268,158.8036 -74.70425,233.5949 81.64415,-32.7716 -30.76888,22.5979 10.35556,70.7095 8.59573,92.5422 -32.71134,235.5439 -22.18752,295.5414 l 19.08177,-1.9156 24.13399,-4.0682 z m -21.5164,-26.0384 c -59.61397,-13.2716 52.82265,-50.8393 3.87643,-3.8584 44.37082,-44.5779 197.08272,-74.1151 181.20402,-46.3149 -53.3009,41.5359 -119.2522,54.4329 -185.08045,50.1733 z M 958.64624,1981 c -5.15714,-4.3204 -1.218,8.9719 0,0 z m 13.11314,-6.0136 c -7.72615,-11.8971 -8.35129,10.7456 0,0 z m -181.75939,-18.312 c -102.02648,-17.1808 31.80097,14.1952 33.5345,0.6589 l -17,0.6624 z m 96.03691,-4.2512 c 45.86151,-101.7294 48.92368,-24.5623 0,0 z m -203.37024,-14.3676 c 8.17634,-34.0137 29.82957,5.8951 0,0 z m 243.99999,-63.304 c 9.66398,-72.0469 26.36576,-30.9849 0,0 z m 46.59603,-10.4584 c -31.51876,-52.1758 90.67342,-3.0243 0,0 z m 16.63836,-11.8495 c -4.97372,-17.8716 -9.68864,7.8717 0,0 z M 1216,1856.662 c 70.6733,-62.4049 71.3952,-222.5246 107.4265,-255.5136 -17.0888,82.5392 -0.735,201.6224 -95.7107,246.8516 l -8.6981,9.6552 z M 1310.0729,1648 c -0.1364,-48.5331 -21.8352,89.5375 0,0 z m -183.4063,200.2499 c 19.131,-70.9378 102.9005,-116.7168 114.5313,-137.0608 -21.8428,54.2611 -57.1672,115.8801 -114.5313,137.0608 z m -347.99995,-24.1712 c 29.73692,-57.6587 101.48604,-117.9628 127.108,-139.8847 -46.39876,44.9027 -62.37851,116.0616 -127.108,139.8847 z m -54.48237,-16.6216 c -2.91441,-59.017 -15.05942,-129.7096 6.4853,-166.8021 -8.42701,57.5646 17.25659,113.3961 2.19593,170.8902 l -5.86319,10.7873 -2.81801,-14.8754 z M 974.7146,1797.242 c -12.34505,-57.2521 123.7037,-183.7819 42.4116,-62.8572 -18.20284,8.8524 -31.68951,64.078 -42.4116,62.8572 z M 825.33332,1695.6579 c 29.11819,-34.1391 82.89328,-174.2956 78.9302,-156.784 -16.09693,53.2822 -33.87291,129.5164 -78.9302,156.784 z m 399.99998,-32.2618 c 65.6766,-109.5082 68.8117,-236.4788 95.0249,-357.5278 25.6154,-79.5455 54.1929,-113.661 32.0887,-19.3097 -13.6129,128.4624 -21.4436,274.5196 -119.1048,370.0815 l -5.4508,8.6932 z m 81.6306,-192.8809 c 10.8244,-52.9514 -1.0807,-68.0055 -3.6516,-5.1357 l -3.259,20.6205 z m 7.0857,-89.8485 c 11.2649,-67.3432 -4.5707,-44.7253 -3.7638,16 z m -338.74707,235 c -7.82685,-64.7569 86.73947,-216.8603 42.33827,-88.8603 -8.6822,10.1396 -37.69125,112.6318 -42.33827,88.8603 z m 38.24047,-28.3334 c 0.3099,-14.9245 8.2928,-9.2448 0,0 z m 11.1517,-28.6666 c 31.1467,-83.1045 40.1503,-20.381 0,0 z m -93.50866,-78.5052 c 8.10205,-49.6937 35.13416,-105.0392 10.86689,-22.7624 8.85494,-12.7925 -12.87079,48.6567 -10.86689,22.7624 z M 1072,1478.2763 c 17.1632,-62.6429 200.3289,-183.6501 77.159,-70.3979 -26.2592,20.1997 -49.8442,58.532 -77.159,70.3979 z m -324.32577,-78.6096 c 0.67343,-48.8598 -1.46775,-151.3568 11.39134,-180.9126 -2.05679,57.7717 2.10801,133.0602 -11.39134,180.9126 z m 23.59336,-66 c -3.46291,-45.7113 1.54617,-141.2045 8.65378,-39.6667 -4.43442,-5.8056 -3.9767,62.2974 -8.65378,39.6667 z m 250.93901,-28.105 c -7.452,-57.5491 140.5279,-132.9185 67.2421,-45.7108 -26.6871,5.2087 -40.4892,51.0983 -67.2421,45.7108 z M 726.11663,1145.5221 c -44.82905,-72.5615 15.61695,-308.03282 32.32273,-266.85544 -49.42553,78.43616 -17.07523,183.06434 -32.32273,266.85544 z M 1028.2666,1130.4 c 11.2331,-80.7799 103.8075,-145.64701 137.5625,-215.48821 2.0529,75.73621 -62.1356,179.38241 -137.5625,215.48821 z m 18.0156,-121.0829 c -9.263,-54.68579 63.4961,-0.7902 0,0 z M 1052,998.58796 c -4.1221,-7.2077 -2.3693,9.04934 0,0 z m 14.6666,-4.67254 c -14.1312,-13.56949 -8.6987,12.74138 0,0 z M 1084,907.94687 c 13.1192,-55.99744 140.4168,-151.76935 46.3648,-52.61354 -20.1009,11.05739 -24.3961,48.41974 -46.3648,52.61354 z M 1331.5775,1891.75 c -2.5668,0.5782 1.91,5.8446 0,0 z m -1.3611,-6.75 c -2.3339,1.3325 2.1643,7.3424 0,0 z M 967.57746,1663.75 c -2.56667,0.5783 1.91002,5.8445 0,0 z m 13.51108,-6.8528 c -8.92107,-13.904 -6.4679,12.7043 0,0 z m 22.48896,-226.4805 c -2.5668,0.5782 1.91,5.8446 0,0 z m 14.6467,-4.3134 c -17.0308,-9.0586 0.4444,15.4665 0,0 z m 5.3533,-209.02 c -2.5668,0.5782 1.91,5.8446 0,0 z m 15.0592,0.306 c -10.4957,-21.3057 -7.6712,9.2895 0,0 z m 485.9742,-6.0729 c 147.3079,-42.5352 -126.0539,47.5327 -45.5148,-67.5873 33.7908,-47.2046 200.747,-18.6039 63.3923,-34.3952 -59.5819,3.3133 -104.5489,54.4597 -142.8815,10.6661 -39.6168,110.51 50.5786,91.052 125.004,91.3164 z m -886.84179,-83.2743 c 59.27587,-1.5843 56.47409,-49.7999 1.3758,-11.5414 -57.17392,-17.9724 110.56664,-61.6681 3.06053,-65.1279 -52.91021,-53.62595 -33.89354,-65.36075 -58.46856,16.3744 -47.20126,42.2474 15.34299,73.3567 54.03223,60.2949 z m 971.26749,-26.1177 c 16.1567,-21.8392 -42.8194,14.5043 0,0 z m -24.021,-0.1738 c -11.9484,-2.2304 -2.1552,2.2133 0,0 z m -17.8844,-2.0195 c -33.4376,-2.0271 -18.6873,4.1177 0,0 z m -885.95121,-65.3978 c 21.35001,-7.948 -72.79846,34.065 -30.35361,-33.4639 22.00265,-46.68948 119.97483,-196.31372 4.80402,-108.61675 -49.12834,37.24775 -40.75523,213.66205 25.54959,142.08065 z M 934.66858,903.12009 c 61.57997,-59.60227 -55.39973,-133.93128 -21.33526,-164.3404 -44.26223,44.74203 -8.49197,123.03791 1.24055,165.44175 z m -11.28766,-124.7909 c 9.81315,-45.05523 23.33423,-77.42745 -8.19043,-11.38084 -9.31445,5.81555 17.72235,52.18581 8.19043,11.38084 z M 1254.805,703.60506 c -6.7679,-2.89367 1.3632,7.14135 0,0 z"
             fill="#e1c07e"
             id="path4141" />
          <path
             d="m 664.90812,1991.7113 c -41.98528,-52.0662 79.54216,-244.0819 13.42103,-95.0443 -76.45943,123.8569 130.40091,72.7093 202.3375,98.5366 89.07341,10.8766 53.3426,-58.0159 78.06901,-157.87 -2.76249,-133.6671 -14.68388,-263.2871 26.81319,-393.4957 -5.66376,-113.547 28.18775,-235.9215 21.31485,-341.3437 13.1686,137.0405 -18.68155,271.6226 -26.80612,407.5007 -44.93532,125.6646 -0.44193,255.2905 -24.1637,384.6721 -4.7091,78.4168 -65.52238,174.5064 64.46062,120.3541 87.2117,-55.9917 329.9489,16.2849 312.402,-123.6875 -21.4622,-125.8955 18.5533,-251.8834 11.8799,-381.1541 -7.5572,-133.5924 33.9419,-261.2177 47.4641,-392.1171 23.1055,-25.6241 26.6582,-233.75782 25.6039,-81.0742 -49.319,136.4986 56.6629,75.7487 134.1819,66.1953 143.0551,18.8652 16.1302,-291.88689 -106.0402,-171.84987 -33.3258,9.48439 124.9684,-42.47513 11.4871,-64.60594 -48.03,-31.1406 -202.334,-147.77555 -68.6919,-56.6141 71.6609,82.39551 240.8631,93.19716 221.8602,227.68081 47.0483,77.31 -5.9131,143.8582 -36.1717,180.7872 -0.9956,69.2625 -185.0822,-12.3509 -200.3386,55.2178 -26.5062,124.676 -25.395,255.1247 -26.4683,381.8876 -28.9531,100.0212 -0.3364,219.2886 -20.8129,305.3405 -214.6619,98.7824 -452.04546,85.0352 -661.80188,30.6838 z m 857.89768,-778.9908 c 86.6392,13.0983 143.1942,-153.8792 21.1674,-104.6909 -94.2573,33.6721 -159.6286,34.5722 -147.1427,21.1076 -35.8832,98.7188 58.9869,84.2735 125.9753,83.5833 z M 595.59336,1138 c -76.09142,-32.0169 17.24684,-123.7699 34.7372,-211.33334 47.02687,-109.85177 220.77636,-82.37282 275.15585,-183.13119 38.73361,-62.00436 247.28339,-110.56889 337.55839,-41.96346 95.7971,35.3408 -102.5366,144.90126 5.6212,64.4455 59.9334,-64.62458 -124.1649,-108.88923 -14.512,-30.01752 -51.2032,70.81651 -195.9739,118.36051 -189.419,230.66667 -4.6201,45.07154 -67.68917,171.35814 -22.3957,57.33334 54.5375,-57.97096 -50.48456,-128.19435 -63.5408,-173.7431 21.15843,90.63652 -128.95446,59.10291 -57.90749,-1.9738 C 883.03153,719.59349 674.98488,869.29268 694.58772,963.19367 751.87985,1085.8621 641.68543,1249.8113 595.59336,1138 Z m 40.84242,-8.6412 c 90.61828,5.1987 6.29262,-162.35156 67.38122,-229.43714 21.84942,-129.06449 -182.61588,149.98514 -26.33447,157.79604 -65.41411,10.6125 -83.59418,-125.26409 -85.33532,-3.7231 -54.51518,46.1526 -13.58516,88.6025 44.28857,75.3642 z M 927.29336,795.58923 c 40.60683,-85.2498 -24.48226,-78.74347 -5.68523,-0.14662 l 5.13006,4.34155 z m 25.31269,1194.47137 c -2.36321,-60.9556 62.25075,5.3424 0,0 z m 8.72727,-5.4852 c 38.37008,-26.1673 -24.77804,-4.3202 0,0 z m -0.25,-6.8196 c 5.84474,-1.9099 0.57772,2.5672 0,0 z m 11.36905,-115.0021 c -19.58334,-43.4008 62.58123,1.071 0,0 z m 5.42212,-5.6234 c 50.87001,-9.8678 -25.93241,-16.769 0,0 z m 0.37549,-4.658 c -1.0804,-8.0291 10.31812,1.8904 0,0 z m 239.08332,2.7658 c 71.466,-54.7617 75.8486,-231.2809 97.6222,-237.9332 -25.2077,83.345 -22.3839,177.0368 -97.6222,237.9332 z m -523.99998,-109.127 c 5.02387,-120.9628 4.42606,120.3313 0,0 z m 269.99361,-74.663 c -10.57455,-56.9008 61.13117,1.3716 0,0 z m 8.10388,-4.3416 c 29.45849,-21.3144 -19.02685,-8.9531 0,0 z M 969.33332,1660 c 5.12569,-4.7802 3.41752,4.9384 0,0 z m 258.06718,2.7755 c 77.4445,-122.6173 59.0931,-271.2031 109.9392,-402.1088 84.4501,-153.3585 -102.3328,240.7731 -30.5604,155.3333 -1.8762,88.9221 -32.1676,172.4435 -79.3788,246.7755 z M 998.70057,1441.3672 c -3.94822,-51.6753 56.92143,3.9246 0,0 z M 1008,1437.3333 c 31.1071,-17.4188 -20.23346,-12.8234 0,0 z m -0.6667,-8 c 3.2885,-4.7496 1.6123,4.8749 0,0 z m -257.17614,-73.1121 c -4.80061,-55.5427 10.15655,-236.8551 7.02103,-75.3093 -2.42471,18.8243 -8.08972,194.0819 -7.02103,75.3093 z m 268.40694,-129.452 c -2.756,-49.2191 55.413,11.3172 0,0 z m 10.7692,-2.6715 c 28.4444,-12.9633 -22.5865,-13.2226 0,0 z m -1.6667,-7.6474 c 7.3426,-2.1641 1.3326,2.3336 0,0 z m 18.2728,-209.0564 c -8.0838,-68.70739 66.704,16.5511 0,0 z m 8.9096,-3.7272 c 88.0247,-28.40751 -34.9329,-7.31174 0,0 z m 0.901,-7.24419 c 5.8444,-1.9099 0.5781,2.5665 0,0 z m 145.603,-125.03737 c -15.5158,-60.23257 -47.8476,-106.94141 -0.04,-25.38016 -13.1826,34.55656 -35.8346,45.87893 4.1181,28.55062 z m 42.535,-14.57909 c 116.5757,-32.57262 50.3401,-124.82442 31.2576,-140.9099 97.3501,46.41299 16.6549,126.35924 -31.2576,140.9099 z"
             fill="#a79d7e"
             id="path4143" />
        </g>
      </g>
      <g
         stroke-width="1.33333"
         id="g4161">
        <path
           d="m 674.20237,1988.2944 c 80.67631,-20.4768 245.70249,41.1394 269.33563,-11.8458 18.1785,-60.106 -52.00644,117.9854 55.39848,39.939 152.18842,-39.9409 371.53992,-77.8981 328.59302,-74.828 -120.5535,139.9953 -513.36321,217.7822 -653.32713,46.7348 z m 781.45013,195.0072 c -34.0383,-53.3772 -58.9429,-61.2896 -44.2462,-96.5895 18.6341,-44.7569 22.5511,-29.8526 -6.2423,-268.9935 3.4745,-62.4176 0.5759,-137.904 6.2767,-196.5879 -25.5447,-51.9253 -21.5326,-126.6253 -23.5733,-192.4288 -4.4858,-172.3068 -1.8378,-163.6069 0.2656,-240.3189 38.1409,12.3411 242.3855,15.7549 193.0874,-113.09 -74.2935,-14.9641 -195.9792,74.6522 -210.8038,17.0485 1.5852,-56.9721 13.6191,-197.52338 8.1731,-57.5861 -32.6342,148.8418 129.1421,18.7181 202.7013,34.1729 7.39,-82.20969 -34.585,-197.28553 -120.2247,-188.54811 121.3017,-9.78356 122.4128,139.68131 125.3816,200.37971 17.8849,77.3057 -10.9183,70.3707 -36.0202,98.7567 -7.6541,63.929 1.1816,233.0257 -9.2907,298.5495 -30.3159,72.2877 -24.2423,206.1365 -12.3396,312.73 -18.846,119.423 -31.0552,137.0218 55.4133,293.6016 61.3891,99.2453 -74.1688,82.4429 -128.5582,98.9039 z M 521.19662,1903.5056 C 516.03565,1774.452 494.11,1690.6938 558.11809,1515.09 c 9.33677,-115.5359 26.68918,-228.8624 2.86099,-369.7909 -98.21043,-56.5793 155.37776,59.5817 89.75582,-65.4223 -25.81814,-134.35997 31.99847,-255.97959 167.03757,-291.2201 -71.29569,28.99214 -204.1738,115.50367 -165.15537,245.4277 -13.69444,155.8733 93.63952,299.2013 45.48243,455.2125 -5.38639,35.0547 23.56554,-207.2864 -3.08266,-59.9732 -41.2704,179.2141 -75.68434,404.7633 -88.09461,546.0555 -19.07882,88.0339 -15.11582,195.0692 -122.31757,230.7991 -35.53062,23.7327 -76.63642,-8.8951 -72.93315,-17.1939 13.42526,-30.0855 -22.28742,-16.4597 20.55463,-67.6762 56.23881,-62.9 93.08535,-145.5439 88.97045,-217.8026 z m 436.02214,81.9711 c -9.59675,-15.9241 47.46864,-25.7413 0,0 z m -299.71569,-14.1451 c 2.17021,-21.0512 3.86341,20.807 0,0 z m 0.88357,-11.6333 c 9.93147,-57.0751 12.77111,-32.0139 0,0 z m 681.27466,-26.9696 c 3.6419,-19.9802 9.4778,-4.3516 0,0 z m -391.17825,7.4833 c 2.68223,-11.666 3.61572,11.4114 0,0 z m 0.79334,-13.3762 c 3.01913,-7.1532 3.58702,6.8859 0,0 z m 392.85021,-19.8943 c 3.0192,-7.1534 3.5871,6.886 0,0 z m -392.00297,7.8502 c 2.68207,-11.6663 3.61583,11.4114 0,0 z m 390.38867,-15.6925 c -4.1717,-19.5033 6.6827,12.2708 0,0 z m -672.90242,24.1084 c 19.07032,-63.8625 39.73137,-105.1704 9.11832,-18.5952 z m 283.3071,-21.7918 c 3.01912,-7.1533 3.58702,6.8859 0,0 z m 385.66432,-17.5099 c -1.7049,-5.0825 5.1991,0.6281 0,0 z m -384.68238,8.796 c 3.2105,-4.9169 3.59713,4.6415 0,0 z m 383.18798,-16.5011 c -6.1843,-15.0445 3.1458,-12.4229 0,0 z m -4.6896,-16.7814 c -0.1501,-8.9673 4.2907,6.7233 0,0 z m -1.7134,-7.1337 c -3.4007,-6.493 4.9484,1.7178 0,0 z m -2.402,-7.16 c -2.4134,-137.5454 6.5087,-278.6032 3.5255,-419.7936 -8.8686,-58.4705 22.1148,-257.2368 25.788,-229.6107 -30.0299,138.0458 -22.3696,280.5199 -21.7561,420.4239 20.1131,79.3066 -29.2531,157.8444 -7.5574,228.9804 z m -354.76101,12.6653 c -64.167,-2.7996 61.77081,-26.6141 0,0 z m 264.15151,-45.9579 c 42.631,-60.4289 68.8644,-201.5743 33.8175,-54.6986 -9.0313,19.492 -20.2618,37.9918 -33.8175,54.6986 z m -546.9592,-58.6078 c -0.74701,-98.4559 7.37972,98.0619 0,0 z m 267.14747,-26.494 c -36.97456,-142.2774 28.76157,-285.3892 14.71584,-429.7791 23.47147,-60.6323 -13.4415,-292.9289 11.49947,-113.2218 -15.43433,140.703 -2.71654,282.5155 -37.08895,421.6828 -12.18915,38.5886 20.60199,105.5811 10.87364,121.3181 z m 328.47023,-60.9843 c 2.286,-18.6807 3.7876,18.4347 0,0 z m -329.08101,2.0367 c 9.98757,-44.1315 20.32966,-6.5115 14.13977,-2.4626 l -7.49993,3.5142 z m 330.42381,-17.7705 c 24.1535,-85.0948 16.3896,-53.8163 0.7931,6.3064 z m -59.1526,-27.8759 c 81.5902,-126.2748 27.0888,-287.5183 104.1191,-414.5889 -72.1494,130.1199 -15.5442,291.8057 -104.1191,414.5889 z m -539.31105,-71.0164 c 2.32178,-6.316 2.82433,6.1078 0,0 z m 0.90111,-10.7119 c 2.32179,-6.3159 2.82434,6.1079 0,0 z m 1.07477,-6.7822 c -1.45421,-33.7138 8.25279,6.2235 0,0 z m 2.00583,-16.0275 c 3.09356,-4.879 1.8084,4.8057 0,0 z m 1.01209,-7.9689 c 2.00175,-9.1376 4.40984,7.0356 0,0 z m 288.67959,-73.8999 c -16.43922,-31.7646 36.17296,2.3881 22.30416,-9.3425 -4.10923,6.989 -13.82649,14.9837 -22.30416,9.3425 z M 728.04427,1328.2884 c -2.20492,-53.1032 -0.34384,-161.7246 2.85055,-46.535 1.08529,1.6908 -0.83924,98.5113 -2.85055,46.535 z m 263.99499,-107.6975 c -23.06369,-40.0993 49.13554,12.2039 0,0 z m 19.54504,-15.5586 c -6.0223,-10.1474 11.5614,7.4903 0,0 z m 348.9562,-63.4606 c 2.4084,-16.321 3.7188,16.0733 0,0 z m 1.168,-15.7266 c 1.8599,-42.7229 3.9105,26.2781 0,0 z m -828.79019,-24.4816 c 10.37394,-30.6209 6.27069,-4.5384 0,0 z m 9.89093,-17.9026 c 7.07318,-8.8243 -3.75349,8.3433 0,0 z m 6.33788,-8.2629 c 7.07318,-8.8244 -3.75349,8.3433 0,0 z m 3.88614,-5.1256 c 1.98112,-9.02 6.19567,-3.0542 0,0 z m 73.02962,-6.0453 c -104.84079,-19.2672 -16.76516,-161.62341 -39.85001,-29.6094 -6.38297,20.2791 86.89622,33.6657 39.85001,29.6094 z m -69.66487,-8.6909 c 2.28622,-18.6804 3.78741,18.435 0,0 z m -2.11367,-19.2636 c 1.74098,-30.5733 4.20468,30.3328 0,0 z m 0.80345,-13.6316 c 0.0272,-11.1073 5.97534,4.1506 0,0 z m 32.06138,-64.60222 c 12.14221,-57.22671 61.42603,-105.12101 7.34482,-18.07112 l -6.69155,18.88695 z M 1000.7263,925.5169 C 908.74759,771.41934 846.33718,852.08442 900.96742,723.73593 c 13.79661,-7.88772 4.69674,-154.42074 -11.30085,-185.81702 -54.15659,-6.86939 -25.89009,-50.10393 -63.7321,-197.08819 -6.21403,-24.13626 13.42021,-29.87766 15.27042,-53.45331 1.87735,-23.92161 -4.76267,-40.91138 -13.63569,-62.16408 81.06144,-264.897302 456.0641,-195.416773 412.7327,72.79169 -46.6732,136.37994 -150.5825,279.65983 -96.1541,371.77088 52.8048,153.87952 6.254,15.92336 -126.1419,227.55361 -11.0346,-4.37126 -15.4956,53.62572 -17.2796,28.18739 z m 65.5108,-655.53965 c 43.9141,-21.64693 -48.9576,-22.13122 -46.2058,-0.3242 15.6075,9.08413 35.0714,4.40152 46.2058,0.3242 z m -189.65496,13.3246 c 0.10724,-41.81338 -41.60622,2.73644 0,0 z m 30.50684,-6.22327 c 8.41981,-23.00736 -61.07624,21.87385 0,0 z m 545.86092,592.34924 c -58.18,-47.29934 -251.7276,-159.48459 -89.8924,-68.37702 13.3052,11.84379 117.0049,76.83695 89.8924,68.37702 z M 1161.137,858.39981 c -17.0917,-16.6129 38.4486,3.27082 0,0 z m -504.76586,12.812 c 27.05806,-13.41072 -14.72169,10.06986 0,0 z M 860.40809,851.5069 c -34.77894,-89.47714 -25.2914,-105.8278 0,0 z m 364.63721,-24.59511 c 29.0871,-30.52023 8.3864,4.13531 0,0 z m 15.5281,-11.99067 c 4.8427,-6.40937 5.6199,2.02211 0,0 z m 5.3606,-4.23656 c 5.5524,-10.14988 8.1231,-0.0881 0,0 z m 11.4496,-12.60539 c 10.0518,-14.03641 -1.4833,10.22494 0,0 z m 5.731,-7.18956 c 38.8101,-65.06496 -116.231,-137.47236 6.958,-50.29861 10.2094,14.34883 3.8398,44.01884 -6.958,50.29861 z m -56.3902,-42.08856 c 4.3497,-7.41283 1.1337,7.30561 0,0 z m 8.1116,-12.34868 c 3.2926,-53.25732 -112.1932,-88.31642 -14.2523,-42.18024 26.9406,-3.0239 17.9104,67.98625 14.2523,42.18024 z"
           fill="#4a4731"
           id="path4149" />
        <path
           d="m 876.58214,283.30185 c -5.67349,0.2295 -10.18981,-3.64298 -10.69169,-12.42206 0.66012,-7.121 -2.1876,-7.13149 4.84179,-8.57038 7.09871,-1.18063 32.68174,2.70971 27.6265,11.46326 -7.3882,5.71098 -11.72643,9.43413 -21.7766,9.52918 z M 1042.8784,272.9343 c -4.1279,-1.4935 -9.3851,-13.09957 -10.1829,-15.2691 4.2411,-2.4653 24.1444,-9.21306 38.0091,-2.90888 -1.1821,12.01646 -17.1306,22.04765 -27.8262,18.17798 z"
           fill="#244832"
           id="path4151" />
        <path
           d="m 1498.3642,1278.8802 c -36.6414,5.2191 -104.5419,3.9571 -113.1834,-33.9595 1.7298,-29.7479 -7.4833,-73.3336 36.8718,-53.4086 34.0851,12.836 109.6821,-29.5841 100.3865,32.692 -3.5624,19.1883 -8.5831,41.4557 -24.0749,54.6761 z M 1482.6934,1268.3 c 42.8854,-25.4901 -56.025,-24.1633 -16.8326,-3.8847 5.7137,8.5614 9.3551,14.8165 16.8326,3.8847 z m -29.5051,-0.9882 c -8.4318,-12.7071 -5.4865,16.9711 0,0 z m 45.2031,1.5794 c 0.5564,-13.9979 -9.3283,6.605 0,0 z m -57.8179,-10.1073 c 22.7517,-16.2869 -46.765,-26.8574 -14.5147,3.936 2.2036,10.0446 11.4693,-3.5269 14.5147,-3.936 z m 12.6505,-2.1975 c -4.5951,2.0002 -0.7843,7.4856 0,0 z m -41.3951,-1.7035 c -6.7921,-7.485 -8.9167,4.2982 0,0 z m -13.7195,-10.2882 c 22.5058,-22.109 -31.7934,-13.1302 -6.7253,4.1901 z m 76.6261,-18.9738 c 22.8603,-39.7291 -35.5692,-37.7823 -22.3458,-1.1766 5.4302,2.7361 18.1558,6.5473 22.3458,1.1766 z m 25.004,-5.2776 c 18.1623,-16.4275 4.6554,-45.8937 -3.8356,-15.5163 -0.6855,2.8342 -1.2974,33.3529 3.8356,15.5163 z m -63.1765,-6.7578 c 13.7545,-40.4516 -53.3327,-6.4791 -9.2268,3.8426 3.3087,0.8396 8.115,0.015 9.2268,-3.8426 z m -40.6233,-15.1795 c -6.5625,-23.0991 -6.2697,25.1933 0,0 z m -835.06024,-54.3852 c 23.45401,13.212 91.25359,-32.7443 85.10099,19.116 -4.70075,31.8378 24.50277,22.2384 9.90795,-4.0303 -2.98831,-48.636 8.69259,32.9471 15.2698,45.0127 6.11374,16.9838 19.2122,61.2352 0.69744,20.6881 -29.13727,21.3402 -20.22394,-7.2519 -12.29771,-24.1002 -33.6619,4.139 -33.38539,12.6975 -13.7139,32.489 -40.05235,10.095 -93.88118,-7.7903 -83.32313,-58.4644 -0.41917,-10.2425 -0.76122,-20.4967 -1.64144,-30.7109 z m 67.89103,84.0125 c -4.53789,-18.2257 -21.14221,9.1947 0,0 z m -16.07668,-9.8193 c 24.61171,-8.3881 -45.69362,-23.2725 -18.44519,-2.4529 4.7845,10.6091 11.89379,11.3325 18.44519,2.4529 z m 56.14969,-3.8389 c 8.4687,-23.3833 -10.42772,9.3507 0,0 z m -87.40149,-1.7593 c -5.65226,-9.6764 -10.72475,4.7408 0,0 z m -7.66597,-18.7226 c -11.38439,-7.3223 1.00013,13.5235 0,0 z m 55.52423,-3.4734 c 14.97231,-33.4282 -12.59224,-68.5973 -34.3659,-32.8413 -4.32853,29.512 5.63778,39.7529 34.3659,32.8413 z m -50.19958,-29.4051 c -6.65064,-37.2116 -25.62337,13.6866 -1.37279,13.2782 l 0.91518,-4.9071 z M 998.548,916.35198 c -2.58324,-18.66428 -59.03855,-85.80716 -18.92207,-42.17451 27.95687,5.41097 -16.89399,-45.60239 -9.16905,-21.74234 0.86977,-22.49367 -35.72607,-17.78058 -27.73616,-13.00369 -23.38825,-2.08733 -6.40429,-14.40174 -22.08155,-23.67944 -48.69641,-7.05421 -26.2235,-68.31016 -19.02625,-100.21308 13.99859,-47.28115 0.85459,-99.77809 -5.62382,-148.04128 -8.33423,-21.35943 -12.2611,-36.37675 13.12727,-17.58545 39.45032,21.02778 -9.53436,-19.57583 -23.92012,-15.12287 86.18303,-22.18211 175.88475,27.04157 229.89725,92.39798 31.1919,37.91565 51.1503,93.02905 28.4719,140.01618 -7.6969,2.00354 3.2407,-18.58374 -9.4496,1.43734 -19.2417,13.58427 -61.8408,-48.52944 -70.2697,-11.39139 -10.3606,30.00512 74.3928,18.16613 26.4607,46.91337 -25.1856,5.56592 -25.8584,37.72621 -47.3268,62.88009 2.8445,-17.66249 -47.89649,4.54931 -22.0412,20.40458 -9.0354,35.83016 -23.05775,-38.59696 -28.60537,4.5715 2.37861,6.71647 10.31597,23.89334 6.21457,24.33301 z m 27.8677,-63.48974 c -3.3082,-13.77377 -13.2294,12.11156 0,0 z m -13.603,-7.06169 c -3.8388,-30.56055 -17.06414,25.97933 0,0 z m -35.53653,-8.89773 c -11.53462,-17.13085 4.5798,19.04156 0,0 z m 13.29131,3.57877 c -2.36233,-18.08154 -11.83519,2.11675 0,0 z m 71.17632,-7.64507 c 11.7582,-25.00491 -21.2916,-25.52381 -6.9764,0.1325 0.3048,5.82224 3.7952,10.26471 6.9764,-0.1325 z m -19.3017,-0.66077 c -7.1833,-4.62637 -6.786,5.19149 0,0 z m -23.1135,-4.06912 c 12.3249,-14.26589 -5.1088,9.3935 -6.8379,2.42606 l 1.9906,0.026 z m 3.2831,-18.87787 c 25.0213,-7.106 18.7892,-29.08467 -5.6369,-13.69218 -17.70719,5.3232 -78.82202,-15.97751 -35.02499,7.27665 26.55809,20.15092 2.5346,39.88862 40.66189,6.41553 z m -61.79319,13.81836 c 0.55692,-13.23131 -7.85485,15.01238 0,0 z m -23.51493,-4.20223 c -15.44279,-18.45063 -2.96346,14.23798 0,0 z m 21.56469,-7.30613 c 6.71168,-31.69613 -27.03935,16.71577 -7.60757,6.5772 l 3.70915,-3.87583 z m 78.27753,3.38746 c -1.1499,-10.00523 -13.8541,5.9051 0,0 z m -61.05559,-6.61218 c -7.316,-8.83391 -7.12113,5.79301 0,0 z m 111.81059,-9.44361 c 3.0815,-24.26136 -60.2018,-6.62551 -23.0892,1.83925 7.4855,-2.71705 17.4097,5.88802 23.0892,-1.83925 z m -167.85563,0.57375 c -17.00708,3.51968 3.92638,14.46379 0,0 z m 21.0381,-1.93361 c 2.30965,-10.58689 -21.20018,4.14633 0,0 z m -43.42583,-20.19443 c -1.25278,19.66041 12.93388,23.59343 0,0 z m 17.01253,13.3042 c 18.40886,-13.81065 48.49604,2.20014 15.08723,-21.58824 -11.14513,-24.99578 -51.19225,-25.22052 -23.78676,4.14647 4.25978,0.9456 3.00304,23.23434 8.69953,17.44177 z m 114.61613,-13.39161 c 29.7827,-11.95472 8.4267,-32.90673 -14.7866,-18.23473 -40.05848,7.22545 -79.33765,-42.84697 -110.50518,-33.72593 10.5433,20.93408 47.80776,42.96954 65.91329,48.27611 18.20958,8.17283 40.38669,10.49386 59.37849,3.68455 z m -39.31106,-38.53085 c 20.26756,-11.60827 -32.49965,-18.54556 -7.70271,5.17099 z m 41.69866,-0.22573 c 11.3964,-1.05498 55.8275,-47.15526 17.2188,-25.12038 -15.8852,5.15188 -65.913,40.48337 -17.2188,25.12038 z m 54.6553,-8.94918 c -20.607,-37.7156 -31.2422,8.32365 0,0 z m -126.21864,-8.0445 c -13.8707,-12.94433 -64.98675,-24.28381 -24.193,-6.62599 4.10947,0.41229 27.61265,21.24047 24.193,6.62599 z m 146.34054,-3.09388 c 3.2127,-25.10271 -45.404,-13.02345 -6.2552,0.0304 0.1542,0.75684 7.5745,4.58198 6.2552,-0.0304 z m -94.3087,-11.32603 c -12.0897,-17.19481 -26.51637,-73.29442 -41.80023,-25.01235 -20.946,17.54667 37.78263,43.79547 41.80023,25.01235 z m 48.4731,-20.20364 c 12.292,-37.59795 -33.401,19.14495 -5.846,6.68167 l 4.2404,-2.80697 z m -110.39274,9.93752 c -12.62294,-18.79854 -23.83247,-37.86971 -31.3243,-8.57587 -12.43469,9.72868 29.42812,9.78434 31.3243,8.57587 z m 149.55774,-12.26782 c 8.4683,-23.38169 -10.4282,9.35082 0,0 z m -45.5053,-36.97799 c -1.1663,0.40062 -44.8612,34.1509 -29.0127,-2.77097 5.0193,-18.79873 23.6846,-96.27171 -3.3184,-45.51374 -24.65199,22.8839 -28.76209,46.91773 -3.7866,71.24064 6.9363,40.49261 24.8772,-12.91873 36.1177,-22.95593 z m -138.31128,17.70604 c -9.63785,-20.48714 -2.16082,38.38215 0,0 z m 43.71966,4.53746 c 38.72334,-30.79626 -11.06114,-62.66911 -14.7182,-97.88726 -5.60127,28.44914 52.02402,96.10057 -8.66008,75.01208 -39.65967,-12.42953 9.98391,30.47563 23.37828,22.87518 z m 88.67362,-31.31574 c 15.7331,-16.50501 -18.6602,-16.17775 -6.9074,4.05002 l 6.9074,-4.04997 z m -95.214,-1.58182 c -7.33597,-21.66662 -39.51633,8.63773 -3.66484,1.16641 z m -32.77825,-9.92214 c 12.79985,-28.53444 4.41994,-19.64918 -12.07754,-15.99364 16.33736,-15.81433 19.70274,-51.6905 -3.32769,-21.3075 -2.30217,6.42862 6.29405,52.42664 15.40523,37.30114 z m 78.90866,-18.87352 c 7.56209,-12.74456 33.25929,-63.83958 2.83109,-31.78153 -18.92728,14.32189 -34.92936,-14.51392 -27.01258,-21.96615 -6.84985,11.70086 -50.88983,-17.86529 -25.06626,5.47866 20.3622,4.93032 33.3758,74.10427 49.24775,48.26902 z m -57.79608,4.66396 c 4.07644,-18.50416 -9.57597,9.47569 0,0 z m 107.72577,-9.31194 c -2.4118,-7.05766 -1.4903,9.16843 0,0 z M 907.99915,573.25706 c 6.197,-20.60233 -12.2921,-13.33008 -5.16167,4.35313 l 5.16159,-4.35318 z m 88.44222,-3.39125 c -15.01395,-20.08815 -22.88461,4.85751 0,0 z m 9.64543,-9.65893 c -27.1118,-20.27321 -9.70517,11.19435 0,0 z m -92.8776,-24.42771 c -18.15831,-8.89757 8.28895,9.93109 0,0 z m 39.01446,309.3082 c 3.73448,-2.69387 3.29413,4.45023 0,0 z m -61.57441,-37.70849 c -7.07706,-16.48341 50.48451,44.41204 14.08861,11.87831 l -6.62495,-6.03617 z"
           fill="#60625d"
           id="path4153" />
        <path
           d="m 1498.3642,1278.8802 c -43.1492,4.9084 -132.0847,4.3045 -113.5958,-59.258 -5.1488,-65.3431 87.3132,-3.8928 124.7027,-33.3631 29.2769,2.7005 90.7188,-58.0354 41.9875,-12.73 -9.8293,32.3144 4.4784,108.2271 -53.0944,105.3511 z m -22.838,0.2154 c 31.5866,13.9268 27.2687,-49.4743 7.6205,-9.7753 -12.7824,20.9118 -35.1522,-38.9609 -27.4611,3.845 -21.3029,0.6067 7.9132,-37.1419 -20.8928,-8.3318 -18.9787,7.5643 -26.8417,-44.1107 3.9981,-19.6777 28.572,9.6955 78.8448,12.4666 55.4243,-31.2926 -13.4063,-60.1572 -14.6689,39.9218 -26.3639,15.337 -29.4187,9.7272 -9.0017,-64.4114 -29.4314,-17.3924 -28.707,35.0324 -25.6348,-52.4841 -41.9364,-5.8834 -33.4329,9.115 39.1104,36.1969 -4.0558,43.8412 -18.7581,20.321 72.5218,33.9209 83.0985,29.33 z m -68.6218,-22.2445 c -10.2164,-12.3176 18.0885,2.3417 0,0 z m 4.9245,-1.9682 c -6.7921,-7.485 -8.9167,4.2982 0,0 z m 70.8645,13.4171 c 39.9294,-28.0161 -65.8486,-23.4043 -10.8156,3.6469 l 2.8135,3.1201 8.0021,-6.7671 z m -29.5051,-0.9882 c -8.5726,-12.3589 -4.7031,16.4857 0,0 z m 45.2031,1.5794 c 0.5564,-13.9979 -9.3283,6.605 0,0 z m -57.8179,-10.1073 c 21.3723,-18.312 -48.4641,-24.995 -12.8571,7.0566 5.0538,3.5364 8.7155,-8.3609 12.8571,-7.0566 z m 12.6505,-2.1975 c -4.5951,2.0002 -0.7843,7.4856 0,0 z m -55.1146,-11.9917 c 23.7302,-14.388 -28.2946,-26.003 -10.1704,5.9588 z m 76.6261,-18.9738 c 24.5675,-49.0103 -48.1505,-26.5013 -15.0738,1.3393 3.7451,-2.6589 12.6039,5.2743 15.0738,-1.3393 z m 25.004,-5.2776 c 28.1987,-42.2365 -17.9757,-30.0348 -2.0977,5.3787 z m -63.1765,-6.7578 c 12.0745,-44.3321 -56.027,0.5383 -4.7853,3.9471 l 2.9284,-1.2578 z m -40.6233,-15.1795 c -8.5283,-24.4659 -5.55,24.965 0,0 z m 118.713,-7.6897 c -3.5974,-4.6413 -3.21,4.9171 0,0 z m -949.66463,-3.6115 c -6.05461,-35.0019 -9.2463,-53.2425 33.1024,-43.5564 36.01234,-5.8 44.46346,-15.553 33.59511,22.908 9.67353,50.7378 -61.13987,22.0849 -38.07889,-18.5943 -22.89212,-5.0413 -8.60704,34.9176 -26.86804,31.1532 18.10387,17.67 -12.10319,53.5475 33.94841,47.5206 -49.97998,-49.0368 67.96425,7.2074 60.75463,-40.0863 -31.83018,8.1212 -11.3934,-69.4958 -14.2333,-6.1252 25.64381,26.6396 -2.78527,-77.6894 12.5796,-21.7499 2.50928,26.831 20.94125,65.0953 21.28592,84.166 0.18366,-35.6524 -48.33101,10.7679 -25.05042,-31.8094 9.10785,-22.3683 -57.52679,4.7971 -9.73516,19.1157 -23.43745,14.6502 -94.2794,0.6231 -81.30026,-42.942 z m 79.47964,45.2099 c -12.32175,-45.9611 -64.79241,11.9346 -12.52277,2.8701 l 8.08997,-1.2403 z m -25.97587,-2.7207 c -4.50676,-26.9631 26.12561,8.6843 0,0 z m 10.27865,-1.5607 c -4.47718,-18.9808 -20.99273,9.906 0,0 z m 35.90676,-1.5704 c 14.23172,-5.4751 -5.57169,-45.3112 -10.26609,-6.7873 -14.6885,14.322 7.45459,12.1563 10.26609,6.7873 z m -51.98344,-8.2489 c 19.45654,-11.2258 -51.97763,-23.115 -12.67781,4.6392 l 3.84904,2.4064 z m 56.14969,-3.8389 c 8.4687,-23.3833 -10.42772,9.3507 0,0 z m -95.06746,-20.4819 c -11.60878,-7.4712 0.86676,13.1349 0,0 z m 55.52423,-3.4734 c 13.29288,-32.1128 -10.32235,-70.7073 -34.3659,-32.8413 -4.32853,29.512 5.63778,39.7529 34.3659,32.8413 z m -50.19958,-29.4051 c -23.66877,-49.8835 -5.01033,46.7622 0,0 z m -1.23446,53.9219 c -15.70769,-15.5804 20.66456,3.0923 0,0 z m 3.57578,-2.3208 c -5.65226,-9.6764 -10.72475,4.7408 0,0 z m 62.84308,-68.0922 c 0.92299,-6.0521 1.40868,5.9578 0,0 z m 10.11955,-19.0913 c 0.32931,-15.4532 1.57637,15.3762 0,0 z m -3.67885,-50.0033 c 1.77949,-3.6258 0.82606,5.72 0,0 z M 998.548,916.35198 c -3.2516,-20.63522 -62.73071,-89.16969 -15.71558,-39.94673 12.86467,-24.42439 -18.62305,-20.83797 -24.82553,-39.48839 -28.47421,-8.66586 2.83846,12.23272 -31.38627,-0.79837 -12.5087,11.93869 18.57748,-31.00256 -18.67398,-22.14328 -18.99693,-14.87714 -27.1234,-60.00883 -9.40691,-12.59685 11.84008,21.14956 59.33464,8.93928 28.6865,21.87869 18.08218,5.7366 72.74863,46.77735 51.66629,4.85062 15.76182,14.99525 58.79798,0.94217 27.41098,29.29139 -12.06771,-50.83024 -32.69012,73.15607 -6.98191,14.80163 15.53181,27.99491 15.31111,36.11332 -0.52473,2.71924 -12.9507,13.18044 1.70644,33.49054 -0.24886,41.43205 z m 14.2647,-70.55143 c -4.158,-30.10436 -16.95911,27.40832 0,0 z m -22.24522,-5.31896 c -2.36233,-18.08154 -11.83519,2.11675 0,0 z m -53.2639,-21.6367 c -13.31683,-18.59144 -6.17384,13.5189 0,0 z m 65.68632,93.65775 c 3.0937,-4.87878 1.808,4.80573 0,0 z m 2.5028,-4.10452 c 3.0937,-4.87871 1.8083,4.80576 0,0 z m 2.5029,-4.10452 c 3.0937,-4.87871 1.808,4.8058 0,0 z m 8.0296,-23.37864 c -11.249,-24.72006 24.4777,-19.59248 29.7333,-36.74495 25.3069,35.60379 -51.22815,1.77837 -24.5938,47.54604 z m 9.8673,3.97277 c 3.0937,-4.87878 1.808,4.80575 0,0 z m 5.4622,-4.47352 c 4.5526,-6.75455 4.9697,3.20721 0,0 z m 7.6703,-8.31773 c 3.965,-7.50233 2.9616,6.03499 0,0 z m -21.3501,-15.73563 c 0.2922,-20.8732 27.5266,3.00774 0,0 z m 8.7408,-3.49861 c -3.0616,-13.6076 -13.3067,12.09449 0,0 z m 28.3781,-12.23486 c -19.1616,-65.89791 33.2966,-4.7192 0,0 z m 6.95,-7.79086 c 9.1445,-61.22867 -29.6983,15.74696 0,0 z m -109.52014,12.25085 c 3.73448,-2.69387 3.29413,4.45023 0,0 z m 22.11591,-4.69139 c -8.45046,-31.49466 16.2892,15.92361 0,0 z m 2.9366,-3.49316 c -11.53462,-17.13085 4.5798,19.04156 0,0 z m 51.98633,-1.03585 c 12.7798,-14.4018 25.2358,3.05797 0,0 z m 13.1796,-3.69122 c -7.1833,-4.62637 -6.786,5.19149 0,0 z m -43.49865,-1.57649 c -6.45142,-26.85415 -46.44313,-52.34439 -40.62181,-17.03876 -23.22326,29.38089 -0.27562,-23.49664 -29.08342,-18.60788 42.06976,-2.42578 -5.25524,-19.70051 -17.47587,-1.84647 -32.64589,-35.70329 -4.54554,-74.704 -4.47443,-116.12869 -0.89497,-46.16214 -10.44705,-100.95076 -8.04288,-122.24828 21.77671,13.81299 -5.56534,42.71371 22.21448,20.88913 11.46833,16.51093 -32.58373,54.87745 7.10734,23.63637 1.41517,17.06005 -14.92677,52.49819 -21.79766,16.89482 4.99614,27.44973 5.60598,58.71379 10.67203,71.68121 5.03574,-50.14065 62.59725,36.19368 6.38461,8.74923 -47.34137,-7.29907 85.48756,40.30147 18.73363,23.69389 -18.12569,-23.00541 -56.65051,-8.29221 -16.37926,5.83505 26.95142,19.02862 117.50819,54.86452 114.55529,11.1984 -48.80959,20.34691 -28.8824,-12.64077 2.7851,-22.73465 19.2052,-32.56262 71.0226,34.83561 22.9236,15.98055 -1.9671,29.27473 68.0998,27.81731 34.693,-10.04795 -32.5361,-16.40847 -9.8585,-15.64447 2.6572,-20.44951 -3.629,-23.92356 -36.6712,8.35178 -38.5416,-28.93351 9.5991,31.78265 -45.5072,33.72157 -9.5366,4.21763 21.6934,-42.66246 -18.8111,-9.31838 -30.6844,13.42243 -31.18124,-37.07707 -29.96109,-67.97131 2.9025,-103.14365 1.5547,-65.4872 -35.41255,81.75502 -50.28753,12.34388 -7.43098,-28.06502 -71.12021,-76.42631 -73.55855,-56.48697 34.45802,4.98429 25.00003,37.37257 -3.18888,5.10496 -45.14464,-15.87539 64.94544,26.85701 7.29827,-2.00949 -56.61447,-30.58769 77.12912,-2.26821 105.17969,-5.77377 56.5546,4.31863 123.1813,-8.67769 149.9227,-65.128 30.4158,-56.71498 50.4482,-118.33477 74.6259,-177.76659 -1.3118,-44.79791 6.0505,-111.87974 -12.9924,-144.43644 -47.4578,28.93424 -95.1626,11.69308 -136.941,-14.34514 -51.0287,3.72141 -95.96581,3.98554 -143.4269,22.59871 -41.33467,23.66522 -88.1592,-25.22493 -100.6348,32.98266 -19.06982,46.14604 -45.77835,-37.49604 -9.39874,-46.8737 16.94629,-55.576814 80.52195,-70.469036 123.7533,-98.059272 73.92614,-19.124067 152.65844,-7.431619 222.13074,22.220167 49.4171,16.520362 76.9417,72.309945 69.5121,122.748525 -6.764,62.75884 -2.6532,130.30679 -42.084,183.4982 -66.1549,117.73284 -88.8337,258.37443 -67.9304,391.40359 25.3871,-25.98982 -26.1327,25.51464 -34.9435,-8.37811 -24.4042,-38.1394 -66.362,6.50725 -25.1637,17.58025 54.0963,23.1009 -5.8329,-9.84542 -20.2965,0.99008 6.9699,8.20032 59.6636,24.53473 14.4132,24.36559 -4.6404,4.78833 36.2142,-10.74935 -1.9066,-14.14334 -27.7544,-13.20527 -6.9113,6.84232 -9.3332,13.58611 -20.4174,7.635 -31.5374,22.6026 -53.3463,28.87192 15.5096,-13.77561 45.0942,-37.8453 6.9572,-15.87406 -6.216,-0.85369 -14.601,21.61228 -17.35095,15.96088 z m 20.38515,-2.49263 c 15.319,-20.2353 -21.25269,10.30175 0,0 z m 3.2831,-18.87787 c 49.8293,-31.31424 -38.98764,-4.50239 -60.26973,-18.60527 37.81743,10.28763 26.64253,61.39993 60.26973,18.60527 z m -63.74343,2.31 c 0.78233,-45.16477 -31.65057,40.21777 0,0 z m 78.27753,3.38746 c -2.2523,-11.19758 -13.3359,8.06296 0,0 z m -96.06253,-17.41565 c 2.30965,-10.58689 -21.20018,4.14633 0,0 z m 91.96833,-8.22172 c 32.2897,-32.17383 -44.32549,10.66247 -59.90338,-13.11629 -44.0376,15.22564 47.78728,25.45518 59.90338,13.11629 z m -118.38163,1.33149 c 17.94956,-13.89543 50.83657,3.49304 15.08723,-21.58824 -18.34954,-22.43171 -56.59006,-42.06807 -15.08723,21.58824 z m 114.61613,-13.39161 c 47.7087,-40.86932 -47.47908,-3.53662 -66.96071,-31.9676 -18.87524,-19.85249 -89.86591,-33.26907 -40.03951,-1.83884 27.73384,27.3972 65.12777,43.63714 107.00022,33.80644 z m -74.4994,1.95586 c 5.22416,-15.53781 -78.31498,-61.69175 -45.34907,-29.86336 15.8543,3.85166 30.25676,41.524 45.34907,29.86336 z m 176.5442,-11.23089 c -3.829,-14.04083 -29.1708,6.19182 0,0 z m -99.6572,-29.48155 c 19.9494,-5.01153 55.1375,-51.35099 9.7649,-21.10613 -16.3726,7.11136 -57.42146,34.79258 -9.7649,21.10613 z m 54.6553,-8.94918 c -19.8569,-38.50242 -32.47,8.13753 0,0 z m -126.21864,-8.0445 c -24.20495,-16.92575 -61.12179,-22.44074 -17.733,-2.63756 2.99164,-0.29518 21.22406,15.39322 17.733,2.63756 z m 146.34054,-3.09388 c -0.5527,-27.85602 -45.5345,-9.52121 -2.3009,2.09919 l 1.9354,-0.0612 z m -51.28,-25.13316 c 34.0047,-50.2718 -34.5424,9.10012 0,0 z m -104.94834,3.54101 c -14.36406,-25.61531 -26.32747,-35.53711 -33.94817,-3.73978 9.94213,2.01601 24.75157,6.62022 33.94817,3.73978 z m 149.55774,-12.26782 c 8.4683,-23.38169 -10.4282,9.35082 0,0 z m -52.4672,-24.68656 c 28.7392,-38.71974 -40.933,33.10883 -22.0508,-15.0624 7.0887,-23.33969 23.1174,-98.8425 -6.8378,-39.97005 -38.52064,22.21062 -4.2245,64.00533 8.8052,80.40279 7.0399,-8.17347 14.1029,-16.3668 20.0834,-25.37034 z m 55.648,5.08833 c -3.4364,-14.0377 -4.2529,30.86607 0,0 z m -186.99738,0.32633 c -9.81292,-21.17905 -2.48515,36.86436 0,0 z m 118.27378,-6.35392 c 22.4368,-10.17449 26.2045,-28.52376 5.1143,-17.75423 0.8007,-24.13656 27.0422,-12.5591 7.1623,-41.08515 -0.6796,-46.41222 -38.8251,85.132 -12.2766,58.83938 z m 14.1195,-20.42436 c 16.7768,-34.94124 -26.0107,9.99691 0,0 z M 920.36475,626.97043 c 12.31356,-27.98589 3.70263,-18.26408 -12.07754,-15.99364 16.0246,-16.0269 20.03318,-51.59064 -3.32769,-21.30751 -1.87527,5.59213 5.8612,53.44033 15.40523,37.30115 z m 78.90866,-18.87352 c 14.32459,-25.35484 31.51529,-61.00941 -7.74095,-27.41485 -32.62937,-15.40378 -3.02446,-29.42831 -36.50497,-26.60338 -33.15678,-13.51167 34.95313,42.94229 36.69422,63.97211 z m 49.92969,-4.64798 c -2.4118,-7.05766 -1.4903,9.16843 0,0 z M 999.94522,576.41479 C 1035.7264,571.11746 974.4522,550.1499 972.7,551.31184 c 13.87778,10.58031 40.0143,31.3439 1.11546,10.47876 -3.9346,4.85093 15.99177,25.95123 26.12976,14.62419 z m -91.94607,-3.15773 c 2.97988,-41.01059 -14.90846,16.81549 0,0 z m 88.44222,-3.39125 c -14.80416,-21.38208 -22.293,6.10637 0,0 z m 9.64543,-9.65893 c -27.1118,-20.27321 -9.70517,11.19435 0,0 z m -38.29703,-6.57478 c -23.14875,-20.17837 -9.50836,15.83134 0,0 z M 913.2092,535.77917 c -18.15831,-8.89757 8.28895,9.93109 0,0 z m -6.66547,285.16203 c -37.50005,-27.92698 1.0778,-11.53578 11.52329,10.04141 l -3.56323,-2.85199 z m 49.52001,6.25778 c 10.53271,-23.44509 26.37575,-8.36256 0,0 z m 4.75477,-4.15186 c 1.90306,-12.91617 -8.43861,14.83352 0,0 z m 67.97789,1.67408 c 3.2151,-5.07257 5.3146,4.56915 0,0 z m -43.72058,-0.44966 c -8.19273,-13.91085 11.53804,1.69764 0,0 z m 86.19908,-7.73873 c 2.8899,-12.50079 -4.2364,3.29071 1.4487,-0.54953 l 0.8703,2.3476 -2.319,-1.79786 z m -100.89168,-6.35146 c -5.11306,-16.32859 21.75067,7.7167 0,0 z m 5.70699,-1.86731 c -5.58868,-7.51118 -7.12385,4.53864 0,0 z m -61.42825,-1.10619 c -11.91817,-17.60768 36.90156,4.95429 0,0 z m 5.38321,-7.76367 c -17.00708,3.51968 3.92638,14.46379 0,0 z m -18.81623,-3.25698 c -20.23931,-40.93141 12.96217,-8.52729 0,0 z m 1.43439,-6.02099 c -8.84492,-33.42107 -2.89204,14.12387 0,0 z m 205.11707,-8.6727 c 4.5754,-5.26543 1.8668,5.18536 0,0 z M 978.11029,737.38524 c -6.07287,-26.01949 40.64481,1.37136 3.72624,7.83568 z m 18.94059,-4.6449 c -36.08189,-25.01887 -17.78789,31.49336 0,0 z m 5.35592,-17.11136 c -40.82164,-2.3282 -45.18708,-36.58171 -16.47124,-58.02444 1.84492,17.91507 47.46144,50.59565 16.47124,58.02444 z m 9.7354,-8.57042 c -10.5607,-37.43392 -39.60053,-63.75059 -45.39384,-10.00697 10.66556,4.72747 38.71274,29.6832 45.39384,10.00697 z m -62.27101,-34.03603 c -25.08833,-10.9368 -45.21298,-39.69476 -1.48447,-25.25136 46.02417,17.6 -31.0203,-99.10882 2.13068,-65.14287 12.6654,32.96378 51.6124,81.03315 -0.64621,90.39423 z m 9.8122,-3.23235 c 40.83631,-23.40754 -19.49807,-90.68144 -15.62362,-90.06855 7.87823,31.57825 47.95283,92.9725 -16.79752,66.36645 -23.46446,-3.85938 35.30949,40.29784 32.42114,23.7021 z m -23.55533,-31.10495 c -23.9811,-19.32868 50.05154,-0.27013 0,0 z m 17.01494,-1.79266 c -8.30308,-23.41257 -44.994,9.91194 0,0 z M 936.26232,615.4449 c 1.32161,-25.69695 16.04419,2.70808 0,0 z m 3.79113,-7.87064 c -8.72129,16.99386 7.73434,0.89733 0,0 z M 847.77969,217.1247 c 20.74735,-27.81817 118.72548,19.358 52.44747,13.42683 -10.83117,-14.62458 -112.67121,21.55619 -52.44747,-13.42683 z m 138.76769,18.65941 c 13.58072,-52.30742 126.71852,-36.98038 115.11832,-13.15167 -38.85,-9.97856 -81.1154,-2.42787 -115.11832,13.15167 z"
           fill="#342f16"
           id="path4155" />
        <path
           d="m 1050.5265,3696.6613 c -97.08286,-26.4309 20.6041,-134.7609 -23.4961,-182.5758 56.8085,-202.466 -39.79859,-409.119 -5.704,-614.1112 -60.70042,-173.3951 -13.5033,-362.7904 -65.29668,-536.6033 -22.64194,95.4831 -4.82909,232.7521 -28.61032,342.3334 -46.35714,123.3697 -6.02243,248.9075 -14.15183,376.1972 4.46712,140.4202 -18.14784,278.821 -27.57512,418.189 28.85566,99.5666 -119.45684,65.2536 -173.48852,115.8583 -67.67036,43.8516 -205.81606,137.8104 -250.77084,32.8037 67.50908,-58.03 183.57583,-106.7651 193.73355,-200.1026 87.84335,-66.2809 43.85489,-194.4163 35.48006,-290.7014 -25.71812,-149.279 -61.17679,-301.2781 -32.17737,-453.1226 -41.82019,-233.8805 -19.44956,-473.789 13.3344,-707.0356 69.53915,-37.453 177.97005,18.2965 255.041,1.2911 5.24914,59.2031 185.83787,-18.4889 267.76977,-28.0937 77.5334,-8.1139 156.918,-65.9489 138.5481,58.416 17.7908,134.1625 -48.8092,261.0662 -30.6199,395.5603 -10.4619,246.2852 -98.6212,493.2592 -36.0201,739.7028 7.557,128.4392 29.4741,268.2264 -25.2964,386.3974 -68.9589,-65.1853 74.6082,203.4867 -80.4696,141.4491 -37.0265,-5.7034 -73.3571,6.3954 -110.2301,4.1479 z m 105.6838,-68.4725 c -16.673,-79.6538 -53.6627,29.3993 0,0 z m 4.5065,-20.1919 c -13.3747,-113.4209 -39.0016,-6.3196 0,0 z m -580.33597,15.148 c 75.4826,-66.8606 -104.82608,25.6453 0,0 z m 33.30674,-29.91 c 57.21797,-29.7385 -37.44096,-0.8119 0,0 z m 544.12763,-40.8329 c -7.4285,-13.6887 -1.3717,12.6282 0,0 z m -518.18251,16.7255 c 37.52669,-25.4453 -37.64926,3.4478 0,0 z m 518.67701,-30.8042 c -31.386,-29.2948 -30.7908,12.9563 0,0 z m -490.90848,11.5429 c -14.11412,-1.8354 -13.652,19.5402 0,0 z m 496.45758,-24.524 c -6.3711,-10.6065 -67.3241,0.7657 0,0 z m -476.12761,11.2163 c 68.00876,-48.6106 -71.39318,34.9091 0,0 z m 35.06063,-22.8092 c 109.01564,-85.7846 -102.07301,-17.9867 0,0 z M 1449.8296,2177.6966 c -20.451,-25.9794 -68.2348,-111.5146 -25.1345,-39.9038 10.8197,-123.1374 6.8971,107.8231 100.8818,30.3783 97.1222,-15.2523 -16.0088,12.0865 -60.0996,13.8551 -5.9206,-1.0922 -12.6672,5.7449 -15.6477,-4.3296 z m -1000.70504,35.5665 c 3.95717,-4.0906 1.23507,4.7134 0,0 z m 37.71497,-7.6996 c 21.33177,-30.5111 -15.56999,-63.6394 -38.954,-12.2199 10.08379,-59.3914 147.63517,-169.5583 125.90321,-160.1499 41.5155,-88.6119 38.9415,-209.6439 56.30121,-312.2921 8.33764,-126.2635 25.45538,-251.1647 42.77395,-376.2347 -12.94688,-79.6696 23.05845,-101.3038 32.10071,-11.49 4.92794,35.25 -11.19039,81.2045 -20.84356,137.4948 -38.23544,163.3055 -36.12977,333.9355 -79.35979,496.7884 -19.59603,88.9309 13.74114,190.8514 -91.75223,227.0278 -8.18635,2.0298 -16.48679,12.6457 -26.1695,11.0756 z m 25.5495,-97.0751 c 0.0108,-5.6162 -8.79551,5.3512 0,0 z m 30.58708,-20.7345 c 27.43025,-35.7159 -29.7201,28.747 0,0 z m 1040.05429,67.6007 c 10.976,-66.852 -56.1778,-189.699 -63.3772,-170.6285 -48.7226,-18.4367 -12.6,-200.6877 -28.7171,-278.6581 43.6778,-126.162 -48.0035,-248.9653 9.3412,-377.3245 -15.7191,-77.6255 51.2789,-170.8039 -69.8416,-133.7707 -110.1842,-10.5506 144.8248,11.7767 139.0301,-37.5337 -61.2988,98.4718 9.3511,250.9217 -40.7732,365.0173 -0.8352,101.1804 -4.2651,203.1567 11.7775,307.3544 7.9991,68.3625 -26.3071,133.262 16.5956,191.2954 16.8662,38.6761 81.6635,92.4845 27.8076,138.0746 z m -1117.34326,39.9603 c 14.45644,-13.5027 -8.00836,13.8143 0,0 z m 1033.27176,-56.5228 c 9.6348,-5.4209 4.642,5.0659 0,0 z m 22.5305,-4.8477 c 17.7627,-13.7461 18.8346,1.8914 0,0 z m -1104.39597,41.6251 c 15.35367,-53.1897 45.27135,-7.8521 0,0 z m 1132.62467,-52.0117 c 11.6362,-13.0525 14.4542,1.4564 0,0 z m -84.7815,-0.7813 c 4.9354,-88.4455 7.8129,-18.8712 2.2608,1.5001 z m -1055.25736,42.5234 c -4.29077,-42.1016 6.05234,-0.909 0,0 z m 1103.64496,-52.8554 c -48.6751,-58.3142 25.3542,-11.5804 0,0 z m -1100.07948,32.0093 c 32.44501,-49.0588 89.42219,-108.3775 20.90045,-22.6739 l -11.01824,12.9582 z m 1137.21518,-49.6673 c -53.5517,-57.9077 -19.7443,-44.1964 11.4621,0.5819 z m -142.2456,5.4195 c -4.3477,-5.8674 5.9077,0.9021 0,0 z m -965.57861,35.4475 c 12.42291,-21.9605 15.20339,-2.8878 0,0 z m 966.74911,-39.4982 c -4.3474,-5.8674 5.9076,0.9022 0,0 z m 1.1705,-4.0506 c -4.3473,-5.8675 5.9077,0.9024 0,0 z m 1.1196,-4.2058 c 9.581,-41.9045 24.3597,-74.4248 0,0 z m -949.40753,25.1061 c 12.47012,-60.3231 49.71079,-107.2267 7.80279,-13.383 l -8.467,17.0796 z m 964.03403,-76.6934 c 0.923,-6.052 1.4087,5.9578 0,0 z m -953.7201,30.3486 c 10.82605,-20.6026 1.27713,7.5318 0,0 z m 954.6212,-41.0604 c 0.9231,-6.0522 1.409,5.9577 0,0 z m 11.7654,-8.1489 c -37.84,-118.434 -42.3974,-251.1376 -27.3278,-371.3695 -11.3962,119.8635 -0.702,272.799 27.3278,371.3695 z m -932.39073,-28.7008 c 35.4771,-135.3973 -20.61907,-278.3209 31.97657,-411.624 16.36818,-91.0784 -25.23473,194.7054 -22.35103,158.6768 3.94269,82.547 21.30981,180.2502 -9.62554,252.9472 z m 461.09796,-137.4974 c 1.77927,-3.6261 0.82667,5.7199 0,0 z M 690.3617,1758.3851 c 1.77928,-3.626 0.82668,5.72 0,0 z m -0.18682,-7.2206 c 0.92296,-6.0522 1.40878,5.958 0,0 z m 641.95102,-28.0802 c 1.7795,-3.6261 0.8264,5.7199 0,0 z m 1.1456,-7.2744 c 0.9229,-6.0522 1.4087,5.9576 0,0 z m 0.9773,-10.0478 c 1.1961,-6.3861 1.1072,7.9934 0,0 z m 0.9775,-10.0477 c 0.7342,-8.3812 1.4088,8.2942 0,0 z m 0,-39.3656 c -1.281,-51.1808 2.8788,53.0497 0,0 z m -383.22322,2.8247 c 0.92292,-6.0521 1.40881,5.9576 0,0 z m 459.43652,-38.0428 c -6.8334,-14.9739 9.974,2.7414 0,0 z m -79.2323,-0.6892 c 0.9185,-8.7492 1.2401,10.3192 0,0 z m -1.8396,-10.6009 c 1.1958,-6.3859 1.1071,7.9932 0,0 z m 71.9801,-15.5887 c -20.2398,-114.1668 -12.4554,-231.9925 -18.5087,-347.5359 7.5272,-129.01 1.4599,249.366 8.0143,155.8033 1.3989,55.606 7.3819,168.8712 10.4944,191.7326 z m -74.6077,-15.8339 c 7.7104,-95.4218 40.6372,-369.2099 17.6314,-320.9189 -23.538,113.4939 -8.1955,230.736 -16.3899,345.7254 -0.4136,-8.2688 -0.8276,-16.5377 -1.2415,-24.8065 z m -385.64548,36.3419 c 1.77928,-3.6261 0.82668,5.7199 0,0 z m 306.81438,-39.6553 c 52.1947,-128.7769 -18.993,56.2638 0,0 z m 19.1242,-50.9257 c 1.7794,-3.6261 0.8268,5.7199 0,0 z m 1.1167,-5.3828 c 1.7794,-3.6262 0.8267,5.7198 0,0 z m 1.1167,-5.383 c 1.7792,-3.6259 0.8266,5.7199 0,0 z m -709.27342,10.4536 c -0.43836,-122.2553 20.72893,-243.4081 3.52953,-365.4413 8.28811,43.4752 16.83526,185.8835 2.60975,260.4465 -1.81533,29.1701 -2.40264,99.5654 -6.13928,104.9948 z m 710.33612,-17.1686 c 1.7794,-3.6261 0.8268,5.7198 0,0 z m 1.1995,-5.9424 c 0.923,-6.0519 1.4086,5.9579 0,0 z m 1.0627,-6.715 c 0.923,-6.0523 1.409,5.9577 0,0 z m -303.51211,-47.7718 c 0.92292,-6.0521 1.40881,5.9577 0,0 z m 8.64756,-18.3645 c 1.19607,-6.3859 1.10584,7.993 0,0 z m -8.04258,-4.3452 c 0.45502,-13.0914 1.51091,13.0119 0,0 z m 313.29033,-42.03 c 0.09,-20.1821 1.7203,20.1084 0,0 z m -317.35809,14.7278 c 1.77926,-3.626 0.82667,5.7198 0,0 z M 729.08486,1294.5521 c 0.923,-6.052 1.40873,5.9578 0,0 z m 581.17184,-43.5253 c 4.6378,-4.0049 -4.3394,10.1325 0,0 z m 1.2044,-3.2154 c 10.2141,-27.3913 4.6611,-3.8413 0,0 z m -582.75427,-3.9521 c -0.88759,-41.4845 2.46599,41.4205 0,0 z m 251.75102,-0.2866 c 1.77941,-3.6258 0.82665,5.7199 0,0 z m 339.61385,-13.8157 c 2.5668,-7.6719 5.0537,-5.1944 0,0 z m -338.73776,-0.1195 c 0.92284,-6.0521 1.40874,5.9576 0,0 z m -302.89916,5.58 c 3.09373,-4.8787 1.80818,4.8056 0,0 z m -3.05229,-8.2605 c -23.36303,-65.916 -24.76166,-115.5216 -1.45904,-14.2422 l 4.57423,19.0386 z m 306.54229,-22.6979 c -0.13718,-24.9139 1.87555,24.8436 0,0 z m 8.16443,9.6779 c 1.19596,-6.3858 1.10701,7.9935 0,0 z m 398.23579,-14.8857 c 1.7796,-3.6259 0.826,5.7199 0,0 z m -409.0928,-21.3717 c 0.92284,-6.0521 1.40875,5.9576 0,0 z m -2.06166,-15.3737 c 1.7794,-3.6258 0.82666,5.7198 0,0 z m -407.51555,-14.4691 c -18.60992,-8.0272 143.32595,-13.2872 19.91214,-0.8345 z m 84.74965,-22.4045 c 0.32932,-15.4532 1.57637,15.3763 0,0 z m 717.41886,-54.3741 c 12.3558,-110.93749 -0.3326,30.3224 0,0 z m 167.3792,6.9964 c 5.7625,-2.1447 0.6816,2.5411 0,0 z m 43.5578,-8.9325 c 12.6627,-14.197 15.1469,1.1877 0,0 z m 9e-4,-20.9961 c -18.1756,-95.53402 11.1215,43.5256 0,0 z m -932.03561,27.303 c 1.77932,-3.6257 0.82659,5.7198 0,0 z m -20.96506,-12.6016 c 7.24897,-2.4589 1.4258,2.2779 0,0 z m -14.14824,-2.5082 c -74.88402,-45.9513 28.66986,11.3344 0,0 z m 764.11821,-48.9628 c 0.4212,-15.7895 1.5245,17.4361 0,0 z m -729.38264,12.8238 c 0.0905,-20.1821 1.72032,20.1088 0,0 z m 727.25774,-26.74929 c 0.9231,-6.05221 1.409,5.95769 0,0 z m 197.0893,-7.41642 c 1.7795,-3.62579 0.8264,5.71987 0,0 z m -198.7765,-2.52347 c 1.1963,-6.38577 1.1071,7.99353 0,0 z M 576.64092,1020.2 c -2.1435,-14.7507 7.2485,-12.147 0,0 z m 73.85905,-21.37999 c 0.73418,-8.38104 1.40872,8.29439 0,0 z m 0.69461,-13.37235 c 0.92298,-6.0521 1.40877,5.95781 0,0 z m 0.8723,-8.82023 c 1.77928,-3.6259 0.82664,5.71984 0,0 z m 1.06279,-6.71511 c 1.7793,-3.6259 0.82664,5.71983 0,0 z m 1.06278,-6.7151 c 1.77931,-3.62591 0.82665,5.71985 0,0 z m 1.11669,-5.38287 c 1.77929,-3.62592 0.82664,5.71983 0,0 z m 1.11668,-5.38287 c 1.77931,-3.6259 0.82665,5.71983 0,0 z m 1.11669,-5.38286 c 1.7793,-3.62591 0.82664,5.71985 0,0 z M 1541.5448,909.8444 c -4.3474,-5.86736 5.9076,0.90232 0,0 z m -547.75681,-7.1127 c -49.54385,-69.09621 -23.46955,-42.01874 0,0 z m 458.41591,-35.25167 c -54.8709,-37.85211 37.2734,33.34391 7.545,5.08568 z M 1031.914,852.30661 c 28.7503,-14.92495 21.647,20.0243 0,0 z m -53.59217,2.92989 c 9.4933,-37.59312 39.32237,-2.38277 0,0 z m 425.01777,-22.31345 c -21.3892,-15.26728 25.5567,14.78168 0,0 z m -348.3684,12.09014 c 3.0937,-4.87874 1.8084,4.8057 0,0 z m -119.82854,-9.83151 c 3.09372,-4.87872 1.8082,4.8057 0,0 z m -7.76332,-2.60578 c 18.54165,-0.30068 -6.18604,5.84503 0,0 z m 110.40336,-13.12446 c -7.718,-71.79526 51.0577,-160.44472 18.9111,-34.65945 -3.9558,9.54632 -8.6623,31.0077 -18.9111,34.65945 z m 39.8756,-7.38213 c 3.0936,-4.87875 1.8083,4.8057 0,0 z m -134.14033,-9.0073 c -0.0607,-45.26439 52.41047,-36.91164 0,0 z m 377.51333,-19.67279 c -13.636,-12.07704 16.8446,10.41811 0,0 z m -21.7311,-17.64936 c -5.3898,-9.52008 11.6296,9.6524 0,0 z m -190.2678,-5.1061 c -14.0691,-43.00944 13.5434,-125.93548 -33.5259,-70.84632 -7.6441,-100.67843 -74.1333,-156.01411 -175.02853,-157.68268 -20.83204,-28.95272 262.63413,1.97587 173.97963,-40.96923 -50.693,-3.07314 -12.9305,-72.36612 -38.5263,-92.95077 -48.93534,-39.35453 29.5728,-36.30601 67.0499,-37.08936 37.4771,-0.78335 66.1221,-93.92261 63.4296,54.95928 52.4295,-6.03703 88.5861,-195.97589 56.297,-56.2175 -30.996,113.55978 -142.5453,257.90193 -42.9496,367.08992 1.0005,26.36681 -48.4138,43.38713 -70.7258,33.70666 z M 894.78818,744.75478 c 28.51253,-59.33551 -6.94757,-254.07196 14.74543,-86.01628 5.74449,26.95974 -1.79285,66.0505 -14.74543,86.01628 z m 2.33273,-170.50419 c -4.43291,-21.43434 7.08742,10.96217 0,0 z M 933.93223,458.8755 c -65.10159,-15.08762 86.99117,-3.93775 0,0 z m 48.19343,-12.68219 c -54.19047,-18.82919 -120.97527,26.57366 -70.47581,-10.92737 37.54455,-31.39147 105.09555,33.21811 70.47581,10.92737 z m 195.47344,-50.48075 c 2.2772,-80.43384 -6.9696,-133.7106 22.9678,-130.2469 70.6319,-20.15821 -15.5709,135.49233 8.2358,27.95373 -3.7189,38.62168 -45.5616,131.13431 -9.426,73.65237 -3.5922,8.8229 -6.9131,35.86168 -21.7776,28.6408 z M 946.63946,377.14972 c -19.82623,-20.83326 48.99043,3.8045 0,0 z m 125.34984,-11.72549 c -24.7954,-23.09069 -19.5403,-26.47774 11.1941,-10.56504 48.0067,1.81843 26.4973,12.07811 -11.1941,10.56504 z m -150.06445,11.03928 c -23.70067,-10.89185 33.19074,-0.97395 0,0 z m 48.0296,-3.74925 c -22.43679,-80.0231 61.79885,6.94965 0,0 z m -21.72555,-3.83207 c -67.16406,-3.40469 27.8909,-6.15322 0,0 z m -100.63467,-0.0273 c 5.27434,-25.85026 68.21164,-4.38601 0,0 z m 104.1019,-6.18312 c -24.53168,-37.16869 34.13698,-13.9625 0,0 z m 13.46469,-18.8361 c -22.9148,-97.79559 41.77548,-49.82574 0,0 z m 201.51578,-21.01153 c -27.6448,17.05372 -72.0866,-180.73612 9.0803,-167.01718 64.135,-1.05192 57.2072,-42.42212 -58.9762,-91.989055 74.5454,-10.335931 -148.10373,-5.256288 -42.8485,-20.12607 -65.4134,-8.8392 -199.36525,20.396335 -58.7687,-4.34095 97.3937,-6.092378 253.0179,29.164344 234.7244,155.806055 -13.7838,121.69443 -2.3163,41.4718 -38.3416,44.55287 -29.3651,21.55187 -42.6253,51.37649 -44.8697,83.11433 z m 30.7457,-242.020043 c -26.9638,-17.456193 -8.6287,4.602516 0,0 z M 925.37254,330.50587 c 52.15363,-60.37689 -9.72616,-109.31077 -40.07473,-99.39661 76.68892,-17.27712 74.39312,58.59371 40.07473,99.39661 z m 229.68766,-8.22799 c -108.023,-75.62221 -2.2413,-108.75302 0,0 z m -124.5189,1.26399 c -93.03627,-69.1396 -31.6336,15.91875 0,0 z m -152.84877,-2.33994 c 58.62826,-57.89436 62.42629,-17.37194 0,0 z m 362.46897,-25.84646 c -0.7498,-30.30368 6.0859,2.10859 0,0 z m -173.0678,-3.81426 c -12.0821,-7.24998 76.9095,-24.08926 0,0 z m -201.64251,16.61455 c -5.55081,-17.07493 67.76041,-3.41432 0,0 z m 377.17011,-25.40863 c -5.8049,-39.45976 4.9096,0.079 0,0 z M 987.10208,242.74361 c -11.01454,113.77416 -37.66561,30.31108 0,0 z M 885.11514,412.48703 c 17.08101,-57.89205 -8.92256,7.73506 0,0 z M 998.84396,284.70344 c -70.81103,-62.50111 65.22604,11.55808 0,0 z m 49.16954,-16.43105 c -40.2932,-19.14522 50.1504,-23.26686 0,0 z m -173.3144,7.75641 c -21.43831,-24.46357 51.50283,-7.40788 0,0 z m 27.94435,-12.73972 c -17.78401,-7.57431 -39.08506,-7.00016 -43.55011,-6.16107 -2.45617,-8.41686 50.76448,-3.43974 43.55011,6.16107 z m -61.97111,1.35579 c -20.16452,-49.28289 3.37525,-8.51951 0,0 z m 131.95127,-5.85132 c 20.36744,-42.31389 73.34049,-42.58378 98.57199,-40.54655 25.2315,2.03722 11.682,8.41238 -27.3231,12.48912 44.247,18.40078 7.3405,8.89152 -24.0164,18.35334 -19.4498,5.86888 -12.8084,23.70127 -47.23249,9.70409 z m -61.72324,-6.68363 c -120.10673,-6.26457 -12.28165,-27.6903 0,0 z m 224.02813,10.12345 c -40.2382,-50.21353 47.9578,-111.79796 0,0 z M 830.29764,239.08956 c 1.94668,-6.30881 4.7166,2.10956 0,0 z m -1.50028,-4.1001 c 3.09374,-4.87873 1.80818,4.80572 0,0 z m -1.15591,-20.99767 c -2.30162,-64.85013 71.45591,-94.1858 0,0 z m 321.58635,-8.78187 c -59.8945,-32.69702 7.6104,-42.47415 -101.6523,-77.78006 81.4069,8.39925 112.8778,35.69085 101.6523,77.78006 z M 819.98004,197.70405 C 818.57383,72.313819 989.24999,33.827391 1089.7815,67.728281 995.85963,57.634746 884.67911,65.463165 844.47073,139.09823 833.67845,63.310198 1104.1989,90.779382 995.73117,106.49675 c -59.65001,6.95231 -60.97158,32.43403 -99.19271,22.11205 -43.32314,-0.27773 -94.69635,41.51072 -76.55842,69.09525 z m 68.79767,-30.39101 c -35.50326,-12.63671 217.60549,-61.60637 71.64149,-10.75297 -23.13117,6.67869 -47.49335,11.09382 -71.64149,10.75297 z m 225.44519,-40.04521 c -56.9062,-56.244984 -202.14989,-50.332819 -51.133,-54.721035 5.3318,-1.964212 79.3521,77.669635 51.133,54.721035 z"
           fill="#181913"
           id="path4157" />
        <path
           d="m 1171.4642,3691.8931 c -70.3368,10.1256 -220.64137,13.7116 -140.0391,-93.8361 9.3087,-67.4814 2.1426,-117.5237 60.6537,-112.0265 -82.1778,32.2098 99.1763,-30.8781 120.3187,28.0389 2.8991,-26.7188 -103.194,-56.7683 -14.6726,-40.4072 72.0517,14.2587 -20.0277,-82.583 -68.5375,-37.9295 47.6348,-34.8713 125.0282,20.0039 90.4777,-78.6568 -15.7426,-128.538 -46.2775,-258.5383 -24.6484,-389.223 6.9153,-126.0205 44.4391,-248.7823 42.7536,-375.467 16.9364,-180.7404 -22.4989,-361.7209 -8.7086,-543.7132 -37.7347,-104.103 136.891,-148.307 104.1557,-16.6024 16.8956,132.4874 -50.096,257.4378 -30.7655,390.4435 -9.2926,240.2626 -96.6945,480.536 -39.4557,721.1572 10.7869,126.8343 32.3916,262.1913 -14.6812,383.6375 -6.396,53.5573 -47.6116,-34.856 -23.6438,45.6197 2.9636,56.8485 52.1552,133.883 -53.207,118.9649 z m -14.1473,-72.7497 c -77.489,-72.037 -61.1348,69.8966 0,0 z m 4.5654,-25.9384 c 2.2744,-101.4637 -104.9399,40.8254 -35.4013,-6.9727 -4.5526,-24.7661 52.8025,74.5086 35.4013,6.9727 z m -1.8691,-43.6748 c -23.2107,-66.9099 -44.3085,3.1244 0,0 z m -29.2662,-0.1552 c 24.5448,-20.2975 -34.3945,-10.2172 0,0 z m 35.2559,-24.1241 c 91.0601,-56.6697 -199.63059,-28.6172 -47.4313,-4.2045 15.4324,-6.5078 34.2832,20.2739 47.4313,4.2045 z m -632.1493,172.2982 c -185.05504,-47.5933 85.08195,-132.9486 117.00754,-208.4774 67.31613,-90.3766 191.90435,119.9586 165.6845,-30.9533 -32.51896,-117.6211 -17.73806,-236.9529 -8.2515,-356.459 3.01931,-137.9319 -73.31194,-277.5542 -17.60109,-412.342 -36.65294,-133.8808 28.45894,-285.9517 75.78903,-400.5585 112.90213,-82.1415 135.55532,242.8238 86.94115,69.5952 -17.03719,138.804 -5.90137,287.8749 -41.70909,427.0932 -26.03266,114.9533 19.47352,237.6912 -0.31703,356.9125 7.34187,139.2539 -32.19383,275.2403 -25.80599,414.3044 -104.97982,15.9731 -201.70424,74.8444 -294.58517,126.7832 -17.84847,7.1592 -37.17602,18.1679 -57.15235,14.1017 z m 42.12346,-69.3919 c 106.43452,-100.7299 -112.94256,4.2294 0,0 z m 64.1142,-54.6191 c 35.93103,-45.139 12.68478,4.4069 -22.95169,6.0685 -45.91719,40.8014 8.22348,17.1435 22.95169,-6.0685 z m -39.17327,-1.3242 c -19.28777,13.5781 17.7114,-3.4769 0,0 z m 70.07998,-21.957 c 89.6858,-64.9503 -64.40776,-4.4768 6.9e-4,0 z m -22.15413,-3.3499 c 13.22461,-25.8028 -32.24292,15.527 0,0 z m 106.68025,-56.2455 c -92.77396,-82.7351 -90.88452,100.6656 0,0 z m 270.65141,37.6457 c 9.7316,-54.0219 36.0743,-187.2811 14.2271,-56.8858 -24.7976,23.3493 175.7888,-57.3714 73.2236,-5.2732 -32.5958,12.549 -88.2918,14.6757 -87.4507,62.159 z m -354.72678,-82.3524 c -42.28271,-12.5029 77.54056,3.6582 0,0 z m 18.08648,-22.1511 c 22.42516,-77.056 58.20555,-30.5674 0,0 z m 4.42023,-23.4975 c 10.78906,-38.8478 9.29911,-3.7391 0,0 z m -44.12704,-609.9953 c 1.10545,-28.2389 22.90298,-149.6649 0,0 z m 367.48661,91.0227 c -43.79627,-145.6473 -28.86144,-299.4849 -40.42315,-449.201 12.62938,107.0612 24.72435,214.5488 36.58085,321.4507 -6.8289,43.0924 -7.7601,85.223 3.8423,127.7503 z M 660.56267,2716.9454 c -34.86473,-137.9826 -5.11406,-279.6074 -18.98838,-419.1091 -13.18151,154.6746 3.86284,312.0225 32.56547,462.8012 -9.59259,-12.6417 -5.87898,-30.1823 -13.57709,-43.6921 z M 496.54965,2198.0462 c -2.17881,8.6161 -9.07495,2.6442 0,0 z m 2.39524,-8.5186 c 2.63144,-6.0633 1.58658,3.2948 0,0 z m 23.66582,-8.5727 -0.71561,2.6979 z m -27.70906,-6.7888 c 10.91247,-20.3223 12.00379,5.4989 0,0 z m 35.77806,-6.2146 0.10777,2.6645 z m 13.42199,1.9223 c 12.55793,-23.9541 8.41745,1.1487 0,0 z m -52.54671,-21.0233 c 15.64561,9.2287 -3.56812,6.0626 0,0 z m 70.47194,0.4854 4.96345,-6.687 z m 17.17075,-2.5386 c 1.9463,-6.3085 4.71682,2.1092 0,0 z m -61.33617,1.17 c 13.14933,-20.2281 11.6427,4.2747 0,0 z m -34.80094,-2.619 2.59786,-1.7544 z m 84.96084,-10.9334 0.16167,3.9967 z m -47.47489,-6.6969 c -13.32035,-22.8343 17.83631,22.1649 0,0 z m 47.00068,3.9081 0.36609,-3.5955 z m 1015.1922,-45.9304 c -23.8378,-39.1585 19.1659,20.8566 0,0 z m -1092.16735,47.4141 c 17.50543,-28.5765 19.3804,-6.024 0,0 z m 54.39842,-7.7365 c 14.2899,-38.8431 31.43736,-1.8122 0,0 z m -21.88253,-13.1457 c 18.10207,-29.6581 6.50697,-2.0156 0,0 z m 58.53474,-9.6647 c 22.17824,-11.1257 -32.80568,26.0425 0,0 z m 986.99402,-40.5508 c -6.071,-16.5574 7.5304,11.1942 0,0 z m -1020.51877,34.4387 c 15.12861,5.9413 -2.02697,6.4537 0,0 z m 11.52578,-4.6948 4.53722,-4.2941 z m 9.83752,-6.238 c 11.67792,-12.9566 15.47511,2.1549 0,0 z m -22.53347,-10.724 3.34776,-2.703 z m 10.18494,-13.3312 6.25172,-8.0003 z m 42.29152,-44.5234 c 1.77933,-3.6263 0.8263,5.7198 0,0 z m 900.94628,-741.0848 c -4.9173,-7.1822 12.9144,0.8309 0,0 z m 8.7205,-5.4176 c -33.5299,-29.6285 28.9318,1.9101 0,0 z m 15.8907,-0.8352 c 21.6895,-51.9247 -54.0104,-5.2331 -10.1381,-64.9363 18.8656,-41.1165 23.1247,-33.061 18.5001,11.9836 18.2591,-82.1677 -47.1119,50.5482 -8.3619,52.9522 z m 16.2428,-15.5024 c 10.2596,-30.3587 -17.0884,11.1944 0,0 z m 1.7861,-22.6062 c -2.8602,-6.2927 -3.1238,8.0846 0,0 z M 1039.379,855.41646 c -23.3916,-13.48158 37.2196,2.41768 0,0 z m -58.15138,-1.28829 c -4.0237,-12.35854 17.00419,-3.63276 0,0 z m 57.50018,-47.79801 c 15.4631,-13.53462 7.8951,8.40667 0,0 z m -96.57484,-5.73865 c 27.5963,-39.31322 9.43028,30.23512 0,0 z m 101.06424,-21.49045 c 19.0762,-22.77101 21.4353,19.08022 0,0 z m -88.42513,5.80452 c -1.07807,-32.47889 17.54135,8.45442 0,0 z M 1107.0576,748.1856 c 38.1491,10.30357 2.8445,27.19313 0,0 z m 32.3296,6.44596 c -106.1779,-39.72148 97.6084,-8.20645 0,10e-6 z m -93.7493,-8.84624 c 15.6715,-45.34336 33.8774,11.78193 0,0 z m 131.5285,-13.87657 c -56.3511,-21.11215 -35.2557,-89.66643 2.4251,-3.45495 l 1.2817,3.59315 z m -72.504,-29.23206 c -2.7826,-40.83448 -16.9686,-57.90592 24.5388,2.78515 l -11.5728,0.99388 z m -29.2253,-12.95091 c -36.2288,-52.02836 34.4106,-98.21776 -20.223,-69.23921 1.0358,-40.76497 -64.63139,-94.81075 10.2539,-37.44504 99.901,35.19145 -63.9592,-19.1561 23.3057,-39.64102 28.4273,79.27006 82.7043,-39.8711 54.6534,56.5831 -11.1566,44.59804 -59.6722,88.30082 -67.99,89.74217 z m 13.3184,-43.07016 c 91.6049,-33.13302 14.6898,-47.62546 -15.1634,9.44043 z m 36.5135,-41.99027 c 19.9251,-23.03886 -34.429,19.19965 0,0 z m 17.3709,-13.51203 c 5.8936,-26.86457 -19.1524,9.98727 0,0 z m -28.1735,-5.03305 c -32.6711,-69.07479 -43.5672,10.5033 0,0 z m 26.5182,87.59965 c -5.8914,-12.13894 2.8482,-9.51294 0,0 z m -4.0084,-14.28394 c 1.7789,-3.62617 0.8302,5.72179 0,0 z m -92.271,-68.21524 c -5.0192,-13.72016 7.5836,10.19362 0,0 z m -44.8819,-41.06368 c -36.82047,-12.45011 -34.5192,3.86507 -62.1416,-18.71573 -82.04006,14.30962 108.6341,-34.49371 158.1379,3.84615 -61.2501,-27.75115 -109.76352,7.9377 -52.121,-3.30459 -7.1678,17.89987 -35.7459,17.93436 -43.8753,18.17417 z m 3.8497,-18.45035 c -39.65549,-19.35551 -3.3986,29.33678 0,0 z m -134.33169,0.67601 c -57.03238,-88.26562 18.71301,18.32665 0,0 z m 259.15849,-13.91598 c 10.1213,-35.26352 34.7386,-35.98639 0,0 z M 850.15168,491.52959 c -6.48871,-49.69992 5.30994,-9.96319 0,0 z m 336.03382,-41.14224 c 32.9128,-70.4427 -45.8448,13.06391 16.9791,-63.07112 61.1907,-155.87135 -1.8092,42.37214 -16.9791,63.07112 z m -339.2308,1.71397 c -14.778,-74.08555 -21.23728,-128.48474 -0.9499,-22.74575 0.776,-12.55279 5.41849,50.02106 0.9499,22.74575 z m 87.02272,-0.80966 c 14.54211,-2.48289 3.1417,1.84377 0,0 z m -39.15336,-2.54921 c 59.52316,-27.63033 135.08954,4.00918 23.49716,-5.15001 l -17.36576,4.17783 z m 25.62415,-75.79463 c 13.39858,-3.07482 12.97695,6.11365 0,0 z m 25.02683,1.2088 c 1.90992,-6.78075 17.07815,3.17225 0,0 z m 34.909,-6.76789 c -20.02188,-31.98834 14.13225,-3.10165 0,0 z m 121.40456,-8.24229 c 5.7626,-2.14443 0.6812,2.54145 0,0 z m -195.27151,-2.53215 c 17.21386,-37.45918 -0.0563,14.0459 0,0 z m 138.68001,-96.17915 c 8.2422,-22.98408 16.1805,9.87631 0,0 z m -167.63565,9.71917 c -0.7784,-17.52226 21.63487,5.93862 0,0 z M 1042.0447,245.0454 c 25.9901,-4.43554 24.6845,0.58975 0,0 z"
           fill="#2e2e22"
           id="path4159" />
      </g>
      <g
         transform="rotate(-2.3163963,870.38257,1896.8502)"
         id="g4167">
        <path
           d="m 401.29779,2171.9142 c -6.22061,30.6357 -191.52876,137.6028 -282.91615,181.8332 10.535,-0.2515 22.08069,-6.3777 31.0832,2.2786 24.37127,-6.1638 94.27689,-34.7304 133.38831,-69.2552 13.99547,10.9919 83.0958,-55.664 131.48865,-80.5076 0.90691,23.7581 23.46893,-13.4017 38.66786,-34.826 -16.8271,9.6658 -33.8333,15.1806 -51.71187,0.477 z"
           fill="#e1c07e"
           id="path4163" />
        <path
           d="m 186.25677,2328.6604 c 0.32467,-0.974 3.84967,-3.4558 7.83334,-5.515 9.73062,-5.0297 11.90968,-5.6404 11.90968,-3.3373 0,1.5275 -7.03634,5.2579 -19.09416,10.1232 -0.68155,0.2751 -0.97354,-0.2969 -0.64886,-1.2709 z m -36.79193,27.3656 c -0.45728,-0.74 -0.48988,-2.4215 -0.0724,-3.7367 1.61106,-5.076 -2.13465,-7.3652 -10.36797,-6.3365 -8.52293,1.0649 -10.2237,3.4184 -2.47029,3.4184 3.38897,0 6.12812,0.9746 8.22245,2.9258 3.70636,3.453 1.51876,4.9887 -3.37529,2.3695 -2.18392,-1.1688 -5.29315,-1.3664 -10.20185,-0.6483 -18.45952,2.7003 -21.85092,0.079 -8.3939,-6.487 14.43308,-7.0427 27.84048,-6.6634 28.90573,0.818 0.33892,2.3801 1.20875,2.9686 4.09563,2.7709 4.7608,-0.326 4.93385,3.1681 0.24517,4.9508 -4.32097,1.6428 -5.54932,1.6344 -6.58724,-0.045 z m 15.34763,-2.9882 c 0.004,-0.9166 5.55381,-4.9998 12.33333,-9.0737 13.07639,-7.8577 15.0587,-8.8345 36.94731,-18.2072 28.81495,-12.3385 39.08409,-18.5695 56.0848,-34.0301 7.70175,-7.0042 12.34069,-8.1654 22.62764,-5.6638 2.79072,0.6786 6.9533,-1.9705 25.5714,-16.274 20.73934,-15.933 31.07321,-23.7378 54.92884,-41.4852 21.84893,-16.2545 38.2638,-25.6754 44.52674,-25.5549 1.92407,0.037 1.79223,0.4728 -0.79536,2.6293 -3.13698,2.6146 -2.9275,5.3263 0.41143,5.3263 11.99609,0 19.83888,-25.6728 8.27913,-27.1011 -3.07386,-0.3798 -8.7942,-1.31 -12.71184,-2.0672 -8.27769,-1.5997 -9.62157,-0.9474 -29.40776,14.2746 -39.85008,30.6574 -75.69885,56.4626 -98.13591,70.6416 -4.4,2.7805 -12.31363,7.8553 -17.58586,11.2773 -28.49377,18.4944 -81.42906,44.9748 -89.90622,44.9748 -3.48126,0 -3.14643,-2.2976 0.49208,-3.3767 3.05422,-0.9058 38.14048,-16.947 43,-19.6594 11.65988,-6.5078 49.06101,-28.6779 53.33333,-31.614 2.93333,-2.016 11.68348,-7.6459 19.44477,-12.511 7.76129,-4.8649 22.16129,-14.549 32,-21.5201 9.83871,-6.9711 18.99452,-13.4196 20.34625,-14.3301 1.35174,-0.9104 3.57302,-2.5554 4.93618,-3.6554 1.36316,-1.1 3.8572,-3.043 5.5423,-4.318 5.85786,-4.4318 9.04387,-7.0445 14.704,-12.0581 3.13124,-2.7735 9.89316,-7.8219 15.0265,-11.2185 14.50778,-9.5995 15.4318,-10.6534 14.49224,-16.529 47.83442,36.7765 100.16337,-73.8237 29.20074,34.881 -8.13934,7.1465 -14.81532,9.2632 -18.28192,5.7965 -1.92809,-1.928 -2.89776,-1.6813 -11.09524,2.8235 -13.30942,7.3141 -33.3454,20.8922 -40.85706,27.6885 -2.26899,2.0528 -7.42543,5.9317 -11.45876,8.6197 -4.03334,2.688 -13.33334,9.7354 -20.66667,15.6608 -31.83776,25.7252 -32.54102,26.1256 -39.20074,22.3203 -3.98515,-2.2771 -4.23554,-2.2531 -10.3939,1 -5.85316,3.0919 -8.07726,4.7759 -17.27573,13.0807 -13.96676,12.6098 -19.62661,15.9132 -48.55124,28.337 -21.29028,9.1447 -38.15575,17.2011 -42.75939,20.4256 -3.6956,2.5886 -5.1547,2.7275 -5.14541,0.49 z m 276.90967,-165.2752 c 4.54884,-6.597 4.43113,-4.0202 11.28752,-16.3254 -7.36322,3.2466 -20.43441,10.5258 -19.36994,16.5488 1.62997,9.0548 -3.28665,16.2648 8.08242,-0.2234 z m -289.99294,148.171 c 0.32467,-0.974 3.84967,-3.4558 7.83334,-5.515 9.73062,-5.0297 11.90968,-5.6404 11.90968,-3.3373 0,1.5275 -7.03634,5.2579 -19.09416,10.1232 -0.68155,0.2751 -0.97354,-0.2969 -0.64886,-1.2709 z"
           fill="#181913"
           stroke-width="1.33333"
           id="path4165" />
      </g>
    </g>
  </g>
</svg>
