<?xml version="1.0" encoding="UTF-8" standalone="no"?>
<!-- Created with Inkscape (http://www.inkscape.org/) -->

<svg
   width="371.44901mm"
   height="843.91302mm"
   viewBox="0 0 371.44901 843.91303"
   version="1.1"
   id="svg4770"
   inkscape:version="1.3.2 (091e20ef0f, 2023-11-25)"
   sodipodi:docname="nightjar_krag.svg"
   inkscape:export-filename="nightjar_krag.png"
   inkscape:export-xdpi="32"
   inkscape:export-ydpi="32"
   xmlns:inkscape="http://www.inkscape.org/namespaces/inkscape"
   xmlns:sodipodi="http://sodipodi.sourceforge.net/DTD/sodipodi-0.dtd"
   xmlns="http://www.w3.org/2000/svg"
   xmlns:svg="http://www.w3.org/2000/svg">
  <sodipodi:namedview
     id="namedview4772"
     pagecolor="#505050"
     bordercolor="#eeeeee"
     borderopacity="1"
     inkscape:pageshadow="0"
     inkscape:pageopacity="0"
     inkscape:pagecheckerboard="0"
     inkscape:document-units="mm"
     showgrid="false"
     fit-margin-top="0"
     fit-margin-left="0"
     fit-margin-right="0"
     fit-margin-bottom="0"
     inkscape:zoom="0.36932618"
     inkscape:cx="701.27712"
     inkscape:cy="1594.7962"
     inkscape:window-width="1078"
     inkscape:window-height="1415"
     inkscape:window-x="0"
     inkscape:window-y="0"
     inkscape:window-maximized="0"
     inkscape:current-layer="g4247"
     inkscape:showpageshadow="0"
     inkscape:deskcolor="#d1d1d1"
     inkscape:export-bgcolor="#8c836aff" />
  <defs
     id="defs4767" />
  <g
     inkscape:label="Layer 1"
     inkscape:groupmode="layer"
     id="layer1"
     transform="translate(12.006545,619.93372)">
    <g
       transform="matrix(0.28022039,0.12676921,-0.01167172,0.28493511,163.78534,-428.13985)"
       id="g4325">
      <path
         d="m 400.08871,449.29321 h 128.4147 v 29.29059 h -128.4147 z"
         fill="#e1c07e"
         fill-rule="evenodd"
         stroke-width="1.03104"
         transform="matrix(0.94069235,-0.33926081,0,1,0,0)"
         id="path4241" />
      <g
         transform="matrix(1,-0.19570524,0,1,0,66.947148)"
         id="g4247">
        <path
           d="m 632.76166,848.31292 c 0.011,-38.61004 -39.65493,-42.00694 -33.39422,-55.80948 6.30235,-13.89432 -12.2523,-14.86324 -7.40483,-36.19707 8.08398,-35.57783 -45.21911,-65.94298 -55.95619,-94.28238 -10.05084,-26.52818 -17.68257,-102.69395 -37.5911,-117.79972 -13.311,-10.09983 -15.14741,-21.82287 -17.33336,-23.62037 l -99.6655,-33.15973 c -5.71383,113.53592 -67.84264,23.15863 -130.56524,-11.31151 l -31.78381,48.60098 C 152.03561,576.12484 112.59895,636.99127 70.658632,696.99803 139.13505,890.93433 68.11821,934.9834 56.125416,1044.2092 l 120.630884,-3.3376 28.20852,27.1941 c 39.92632,-67.876 56.54583,-171.36664 60.94716,-313.47939 73.55245,-28.05069 137.39797,-4.64976 220.65735,-84.15206 14.05328,168.15109 50.24046,244.66297 65.93067,211.83 z"
           fill="#a79d7e"
           id="path4243"
           style="fill:#8c836a"
           sodipodi:nodetypes="csssscccccccccccc" />
        <path
           d="m 105.49489,1063.9628 c 31.0067,0.802 74.34959,-19.4939 71.26141,-23.0912 -5.49842,0.2486 -39.34093,-1.6475 -42.68922,-0.5251 -10.43149,2.7953 -23.55682,-0.2979 -33.68304,-4.0515 l -2.728312,-0.9095 3.172132,-1.3139 c 3.49059,-1.4458 4.01499,-3.4825 1.58739,-6.1649 -0.87161,-0.9632 -1.82301,-3.5276 -2.11422,-5.6987 l -0.529482,-3.9476 7.364222,1.4131 c 21.36608,4.1 26.92176,4.5746 38.86423,3.3205 10.73808,-1.1277 12.06316,-1.5153 20,-5.8507 4.675,-2.5537 8.8028,-4.7814 9.1729,-4.9506 0.37009,-0.1692 0.87131,0.7308 1.11381,2 0.36053,2.2868 2.98921,-8.2323 4.21329,-10.491 1.925,-3.5021 3.5,-6.8623 3.5,-7.46706 0,-1.91165 -3.81173,-2.4038 -6.24901,-0.80684 -1.28709,0.84334 -6.64221,2.62464 -11.90025,3.95845 -5.25804,1.33385 -11.31297,3.31275 -13.45541,4.39755 -2.14243,1.0848 -5.36236,2.2891 -7.1554,2.6761 -1.79303,0.3871 -4.63257,1.3884 -6.31008,2.2253 -6.25755,3.1217 -15.38326,2.6637 -34.42985,-1.7276 -4.95,-1.1413 -12.15,-2.4672 -16,-2.9464 -3.85,-0.4792 -10.825,-2.2432 -15.5,-3.9198 -4.675,-1.67669 -9.779727,-3.05809 -11.343838,-3.0698 L 58.812324,997 l 0.718073,5.25 c 0.39494,2.8875 1.337167,6.1376 2.093838,7.2225 2.081623,2.9845 1.661,5.4686 -1.104011,6.5198 -2.055315,0.7814 -2.33774,1.3335 -1.649974,3.2253 0.456391,1.2553 2.35979,3.3259 4.229776,4.6012 4.470063,3.0486 4.669323,6.5415 0.399974,7.0113 -4.611358,0.5073 -7.529763,3.7483 -6.795724,7.5469 1.001947,5.185 -2.138167,4.8137 8.448921,16.0854 10.359956,11.0299 23.974702,9.0771 40.341693,9.5004 z m 91.64142,2.4764 c 3.80086,-9.0938 8.93248,-30.5722 6.24935,-33.0719 -1.10835,-1.0326 -7.25301,-4.9674 -8.4919,-8.7414 l -2.25253,-6.8616 4.58886,-4.1322 c 2.52388,-2.2726 6.3003,-7.2821 8.39204,-11.1321 2.09175,-3.85 5.65504,-9.025 7.91842,-11.5 9.98744,-10.92123 10.00621,-16 0.0591,-16 -1.9425,0 -5.00958,-0.64751 -6.81574,-1.43891 -1.80616,-0.7914 -4.61093,-1.72244 -6.23282,-2.06897 l -2.94889,-0.63006 3.44889,-2.65316 c 7.50002,-5.76962 15.32575,-13.90949 17.03124,-17.71492 0.98747,-2.20331 2.29102,-6.92831 2.89678,-10.5 0.60577,-3.57169 1.56601,-9.19398 2.13388,-12.49398 1.38034,-8.02149 -1.13265,-21.92155 -5.78527,-32 -2.51885,-5.4563 -3.07472,-14.65708 -1.32913,-22 0.52299,-2.2 1.19752,-8.275 1.49896,-13.5 0.30145,-5.225 1.03178,-13.1 1.62296,-17.5 0.7978,-5.93775 0.75313,-11.73782 -0.17329,-22.5 -1.90119,-22.08589 -1.85403,-23.084 1.30609,-27.64406 C 222.388,789.27562 223,787.23469 223,783.19625 c 0,-5.18889 -0.33686,-5.80856 -5.42832,-9.98568 C 216.70725,772.50139 216,771.01796 216,769.91406 c 0,-1.18313 -1.22897,-2.7064 -2.99368,-3.71057 -1.64652,-0.93692 -2.99652,-2.25016 -3,-2.91831 -0.003,-0.66815 -0.95882,-1.72457 -2.12298,-2.34762 -3.17112,-1.69713 -5.33111,0.75452 -3.92444,4.45435 0.57261,1.50606 1.0411,4.07312 1.0411,5.70457 0,1.71421 0.63315,3.20925 1.5,3.54189 1.8615,0.71433 1.90677,3.10757 0.14165,7.48951 -0.74709,1.85466 -2.147,6.74712 -3.1109,10.87212 -2.99502,12.81706 -6.57061,24.17425 -10.23201,32.5 l -3.51813,8 0.66044,12.5 c 0.64198,12.15046 0.58912,12.62584 -1.89031,17 -4.80189,8.4714 -5.82306,11.50758 -6.22222,18.5 -0.21977,3.85 -1.35895,11.56919 -2.5315,17.15376 -2.33754,11.13318 -2.52967,9.13586 2.74985,28.58651 1.24856,4.5999 1.34818,6.88452 0.50145,11.5 C 181.89669,945.01785 180.15938,947 175.80887,947 174.26399,947 173,947.28228 173,947.62729 c 0,0.345 1.33069,3.3825 2.95709,6.75 4.06636,8.41947 5.82635,17.56723 4.2295,21.98326 -1.00114,2.76858 -0.94965,3.8649 0.29346,6.24857 0.8292,1.58998 1.5104,3.67838 1.51379,4.64088 0.004,1.05924 0.76696,1.75 1.93358,1.75 2.58723,0 6.07258,4.61071 6.07258,8.03331 0,1.51998 -1.35,5.32999 -3,8.46669 -3.23513,6.1501 -3.64413,8.9922 -1.85815,12.912 0.91973,2.0186 0.82515,2.9894 -0.48624,4.9908 -1.08442,1.6551 -1.42108,3.5198 -1.00818,5.5844 0.54871,2.7435 -5.75556,11.5013 -9.93742,15.5082 -10.99037,7.8734 13.87262,26.982 19.90709,28.6938 0.38388,0 1.96752,-3.0375 3.51921,-6.75 z m -69.2095,-63.0746 c 4.7241,-0.9448 3.86395,-4.34028 -1.61041,-6.35715 -5.68008,-2.09265 -5.99467,-2.59251 -3.98278,-6.32837 1.25417,-2.32884 3.42466,-3.98392 7.70615,-5.87622 8.61146,-3.80603 7.56165,-6.8115 -3.03977,-8.70245 -3.26442,-0.58227 -3.52029,-0.90116 -3.80142,-4.73787 -0.29772,-4.06321 -0.23036,-4.15361 5.5,-7.38132 3.19078,-1.79725 9.33201,-6.81774 13.64718,-11.15663 6.50365,-6.5394 7.63737,-8.13999 6.62756,-9.35674 C 148.3033,942.66053 147.11728,942 146.33772,942 c -2.60525,0 -9.01268,-3.85498 -10.70802,-6.44239 C 134.17747,933.34122 133.23954,933 128.59939,933 c -3.50391,0 -5.77839,-0.51076 -6.58099,-1.47783 -1.03726,-1.24982 -0.0875,-1.9969 6.15573,-4.84202 9.4429,-4.30327 12.46294,-7.79231 13.34708,-15.41983 0.36724,-3.16817 1.45604,-7.33532 2.41957,-9.26032 0.96353,-1.925 2.32248,-5.3 3.0199,-7.5 0.69742,-2.2 2.52193,-6.025 4.05446,-8.5 7.06557,-11.41071 8.01639,-16.55275 4.99657,-27.02144 -1.25339,-4.34509 -1.15964,-4.87164 2.40361,-13.5 2.03933,-4.93821 4.55754,-12.22463 5.59603,-16.19205 1.03848,-3.96742 4.27326,-11.79521 7.1884,-17.39508 l 5.30025,-10.18159 0,-13.60492 0,-13.60492 4.38564,-9.18648 4.38565,-9.18648 -4.0361,-5.06912 c -4.02184,-5.05121 -4.0315,-5.08434 -2.73815,-9.38183 0.71387,-2.37199 3.17828,-8.05253 5.47648,-12.62342 4.58318,-9.1155 4.69658,-11.97069 0.55046,-13.85979 C 182.86209,714.43567 182,713.23594 182,711.68037 c 0,-1.29938 -0.62389,-4.43554 -1.38642,-6.96924 -1.29658,-4.30821 -1.25578,-4.72351 0.62959,-6.40893 1.1088,-0.99121 2.86386,-3.76639 3.90012,-6.16707 3.10169,-7.18559 5.71809,-10.03709 12.19701,-13.29298 3.38784,-1.70251 7.393,-3.96612 8.90036,-5.03025 1.50737,-1.06414 3.64487,-2.0029 4.75,-2.08615 2.45222,-0.18472 2.54285,-2.08272 0.44418,-9.3019 -3.4508,-11.87033 -13.18609,-26.08449 -25.28917,-36.92385 -11.15295,-9.98843 -14.44823,-12.24138 -20.46191,-13.9896 -7.16758,-2.08368 -13.1482,-2.10691 -27.18376,-0.10563 -8.94416,1.27532 -11.28034,1.96041 -12.5,3.66562 -4.20683,5.88158 -13.14381,16.06121 -18.51245,21.08652 -5.91943,5.54088 -29.673544,39.00433 -35.690372,50.27858 -4.660596,8.73296 -14.797122,23.39609 -8.084579,38.11201 4.618,28.14154 5.123397,53.58024 16.929858,78.94193 -1.927427,6.68817 -7.395446,30.81184 -9.326864,36.31184 -4.473811,12.73984 -4.838111,20.92419 -1.088181,24.44707 1.344013,1.26264 3.17992,3.84725 4.079793,5.7436 1.608648,3.38997 1.566003,3.63572 -2.538525,14.62861 -2.296062,6.1494 -5.017861,12.75572 -6.048442,14.68072 -2.320438,4.33429 -4.936485,14.58957 -4.936485,19.35171 0,2.8676 0.67732,4.10347 3.47026,6.33201 1.908644,1.52294 3.744562,4.01787 4.079819,5.54429 0.947057,4.31192 -2.02636,11.58559 -7.960955,19.47434 -5.933836,7.88775 -5.868688,8.88501 0.667039,10.21078 2.559631,0.51922 3.309415,1.21849 3.554742,3.31526 0.339919,2.90524 -2.387336,4.90141 -8.491807,6.21545 -5.63047,1.21201 -7.03412,5.55616 -1.795265,5.55616 14.706121,6.14344 6.611687,10.85435 1.570781,18.46934 -0.0068,0.33555 9.562853,-1.79846 12.546565,-1.49051 2.983713,0.30794 7.596213,1.53182 10.25,2.71973 2.653788,1.18791 8.650068,2.57115 13.325068,3.07386 4.675,0.50271 12.775,1.99881 18,3.32471 10.35009,2.6264 13.11145,2.9293 17.92681,1.9662 z M 557.5986,869.97552 C 564.83155,863.5453 580.89259,854 584.47921,854 c 0.70174,0 1.8496,-0.69127 2.5508,-1.53616 1.06722,-1.28592 0.80288,-2.02883 -1.62273,-4.56062 l -2.89762,-3.02446 4.99517,0.17883 c 6.9785,0.24983 19.49195,-3.50489 29.23182,-8.77114 7.19887,-3.89236 8.11729,-4.69084 7.25298,-6.30583 C 623.44533,828.96359 623,826.74076 623,825.04099 c 0,-2.44573 -0.56948,-3.30701 -2.72965,-4.1283 -1.5013,-0.5708 -2.99178,-1.46195 -3.31216,-1.98035 -0.32504,-0.52592 -4.23452,0.64008 -8.84466,2.63791 -6.70211,2.90439 -8.99133,3.45724 -12.12402,2.92798 -3.10056,-0.52384 -4.46345,-0.2077 -6.9134,1.60362 -3.41071,2.52165 -4.79268,2.1056 -3.15713,-0.95046 1.86343,-3.48186 1.30977,-10.92297 -1.05024,-14.11506 -1.57503,-2.13034 -1.9507,-3.62046 -1.4394,-5.70951 1.7519,-7.15797 1.68315,-8.23826 -0.9191,-14.4429 -3.95599,-9.4324 -5.73413,-22.15273 -4.95018,-35.41223 0.51941,-8.78509 0.33898,-11.77755 -0.887,-14.71175 -0.84647,-2.02589 -1.85554,-5.79398 -2.24237,-8.37354 -0.84441,-5.63096 -5.26079,-12.53909 -9.12656,-14.27583 -2.96613,-1.33256 -4.33503,-2.51718 -13.63022,-11.79523 -3.20434,-3.19843 -6.52468,-6.49034 -7.37851,-7.31534 -9.4214,-9.10321 -17.92342,-18.24619 -19.99276,-21.5 -1.39914,-2.2 -3.63984,-5.17595 -4.97932,-6.61322 -1.73323,-1.85977 -2.69826,-4.46924 -3.34705,-9.05053 -0.5014,-3.54053 -1.60118,-8.08762 -2.44395,-10.10467 -0.84278,-2.01704 -1.54701,-5.1443 -1.56497,-6.94946 -0.0179,-1.80517 -0.94918,-5.75712 -2.0694,-8.78212 -3.20315,-8.64965 -3.85127,-13.88084 -2.27376,-18.35201 1.82727,-5.17901 1.75124,-19.11246 -0.13771,-25.23906 -1.0902,-3.53593 -1.33816,-7.02622 -0.88657,-12.47897 0.59331,-7.16389 0.44249,-7.96868 -2.81094,-15 -2.04505,-4.41974 -5.93285,-10.26598 -9.59605,-14.42996 -5.36629,-6.09988 -6.16039,-7.52192 -6.17554,-11.05887 -0.01,-2.23238 -0.67807,-4.93238 -1.48558,-6 -1.95225,-2.58111 -1.93977,-2.40666 1.12972,15.78708 2.85104,16.89891 2.85142,16.87698 -0.74021,42.96334 -1.46417,10.63441 -1.23949,13.19014 1.25902,14.32132 2.50899,1.13593 4.63321,6.34412 4.74359,11.63045 0.0618,2.95976 -3.44543,18.43508 -6.44856,28.45363 -0.49982,1.6674 -0.0132,2.35186 2.37574,3.34137 1.65237,0.68444 3.78159,2.10331 4.73159,3.15306 0.95001,1.04974 2.58284,1.90862 3.62853,1.90862 2.59157,0 5.30227,6.41538 7.76214,18.37053 2.58182,12.54785 5.45861,23.70404 8.0272,31.12947 5.25777,15.19944 11.23779,47.28594 12.58012,67.5 0.34697,5.225 1.32707,11.975 2.178,15 1.10514,3.9287 1.59531,10.78527 1.71574,24 0.11692,12.82936 0.56051,19.22684 1.44716,20.87125 0.86142,1.59759 1.06076,4.11455 0.61098,7.71442 l -0.66758,5.34317 4.76138,4.43472 4.76138,4.43471 5.05613,-2.84691 c 8.735,-4.91835 28.8885,-13.01899 29.89234,-12.01515 1.98588,1.98588 -0.56456,3.97776 -10.48479,8.1886 -8.1493,3.45913 -11.51595,5.53703 -16.07943,9.92425 C 544.08598,861.55409 543,863.20411 543,865.81894 543,868.97207 547.20826,877 548.86114,877 c 0.45983,0 4.39168,-3.16102 8.73746,-7.02448 z m 75.16306,-21.6626 c -0.95609,-0.25029 -2.75609,-0.25937 -4,-0.0202 -1.24391,0.23919 -0.46166,0.44398 1.73834,0.45508 2.2,0.0111 3.21775,-0.18461 2.26166,-0.4349 z M 291.11514,708.1414 c 1.31167,-1.02224 3.89882,-2.63541 5.74922,-3.58482 1.8504,-0.94942 5.2254,-3.43668 7.5,-5.52724 2.2746,-2.09056 8.63564,-6.15986 14.13564,-9.04289 12.5396,-6.5731 15.26801,-8.59278 24.23827,-17.94222 7.66316,-7.98708 15.12998,-20.43375 23.77867,-39.63738 l 4.33637,-9.6285 1.2293,4.10304 c 1.0233,3.41548 0.95181,5.36592 -0.42665,11.63925 -2.22047,10.10526 -2.12817,16.24101 0.30054,19.97936 3.11837,4.79992 13.28247,15.22575 12.67364,13 -0.3009,-1.1 -1.69077,-5.76348 -3.08861,-10.3633 C 380.07808,656.32098 379,650.32322 379,646.99717 c 0,-3.17693 -0.64393,-9.31344 -1.43095,-13.6367 -0.78702,-4.32326 -1.73177,-10.33547 -2.09946,-13.36047 -0.36768,-3.025 -1.91352,-8.65 -3.4352,-12.5 -1.52168,-3.85 -3.52818,-10.375 -4.45888,-14.5 C 365.25407,582.71111 357.0551,566.31562 350.81937,559.49274 348.05834,556.47173 345.39447,554 344.89966,554 c -0.49481,0 -0.91183,2.1375 -0.92671,4.75 -0.017,2.98751 -1.13017,7.33665 -3,11.72115 -1.84941,4.3366 -2.97295,8.70158 -2.97295,11.54992 0,3.84809 -0.72265,5.5719 -4.52848,10.80223 -3.64508,5.0094 -5.78467,6.84292 -10.96788,9.39887 -3.54167,1.74648 -6.7327,2.8821 -7.09118,2.52362 -0.81587,-0.81587 5.24356,-9.10622 10.00747,-13.69196 2.1981,-2.11588 3.58007,-4.39351 3.58007,-5.90033 0,-1.34978 1.08898,-4.74901 2.41995,-7.55383 3.59953,-7.58544 4.18109,-10.04429 2.19545,-9.28233 -1.32865,0.50986 -1.61802,-0.12895 -1.63018,-3.59872 -0.0346,-9.86321 -6.87443,-29.19713 -11.84982,-33.49531 -1.44947,-1.25218 -4.6604,-3.31515 -7.1354,-4.58437 -2.475,-1.26923 -11.475,-6.47489 -20,-11.56813 -8.525,-5.09324 -17.075,-9.50337 -19,-9.80028 l -3.5,-0.53984 4,3.54037 4,3.54036 -4.71944,-0.8698 c -6.40892,-1.18117 -12.62071,-4.50394 -14.49564,-7.75391 -0.85281,-1.47824 -3.269,-3.90542 -5.36932,-5.39373 -5.12568,-3.63213 -7.26862,-7.9696 -6.64981,-13.45969 0.26869,-2.38386 0.0887,-4.33429 -0.39994,-4.33429 -1.10319,0 -11.22079,6.90618 -15.66234,10.69096 -2.40331,2.04794 -4.27298,5.38303 -6.90051,12.30904 -1.98221,5.225 -3.61637,10.93028 -3.63147,12.67841 -0.0489,5.6593 4.96474,11.08669 12.42773,14.7373 5.70056,2.7885 12.83023,4.54031 20.22442,4.56693 10.24223,0.0369 32.54651,9.93295 43.67632,19.37854 7.68516,6.5222 13.24413,13.59692 15.03834,19.13882 1.93697,5.98283 1.68916,31.20107 -0.3264,33.21663 -2.99974,2.99974 -0.17066,-6.43951 0.0794,-19.0072 -0.38968,-5.66816 -4.57563,-13.77693 -6.56811,-19.11116 -3.17544,-8.36595 -3.12946,-6.63071 -15.24031,-14.80523 -9.22044,-6.22358 -12.96802,-8.96803 -23.83556,-11.93847 -6.65726,-1.81964 -18.37631,-1.84747 -22.30658,-3.88918 -6.36473,-3.30636 -12.87466,0.45015 -16.70275,-8.04274 l -4.25729,-9.44511 -10.97995,9.86913 c -1.9981,1.79596 -14.5644,12.2305 -18.411,15.57186 C 184.2021,553.98634 172,570.18936 172,571.20059 c 0,0.43968 3.80812,0.79941 8.46249,0.79941 14.52714,0 21.78642,3.94262 41.22404,22.38939 18.61155,17.66281 22.43361,24.3015 31.15286,54.11061 2.38506,8.15397 6.17211,27.71524 6.1653,31.84563 -0.003,1.5651 0.8376,4.0401 1.86706,5.5 1.02947,1.4599 3.00583,4.90437 4.39192,7.65437 3.18936,6.3277 5.19553,8.13472 14.06244,12.66649 8.48141,4.33476 8.71153,4.37331 11.78903,1.97491 z m 271.92263,-4.18204 c -1.90422,-1.62765 -3.92922,-2.94107 -4.5,-2.91872 -0.57077,0.0223 0.52023,1.37235 2.42446,3 1.90422,1.62765 3.92922,2.94107 4.5,2.91872 0.57077,-0.0223 -0.52023,-1.37235 -2.42446,-3 z M 407.26748,651.86354 c 2.3033,-1.17505 5.92013,-3.28286 8.03742,-4.68401 2.96858,-1.96452 4.03219,-2.25214 4.64736,-1.25678 2.45004,3.96426 4.4413,-11.58321 3.7586,-29.34671 -0.3419,-8.89626 -0.1836,-15.69272 0.39051,-16.76545 1.72958,-3.23174 8.92458,-6.0958 16.56777,-6.59499 6.68245,-0.43645 7.34434,-0.29303 9.75,2.11263 3.10304,3.10304 3.23321,5.94271 0.58086,12.67177 -1.1,2.79072 -1.96447,6.06988 -1.92105,7.28702 0.0516,1.44731 0.264,1.69399 0.61381,0.71298 0.29418,-0.825 2.24735,-5.1 4.34039,-9.5 2.09303,-4.4 4.06334,-10.25 4.37847,-13 0.31513,-2.75 1.01569,-6.8 1.55681,-9 1.49539,-6.07972 1.0554,-33.53364 0.11277,-44.92128 -1.84873,-22.33395 -5.09622,-22.87893 -11.30947,-27.60833 -2.48935,-1.89485 -8.24323,-4.50254 -14,-6.34492 -5.37552,-1.72035 -14.92114,-6.39597 -17.12114,-7.9078 -4.09876,-2.81666 -24.35038,-7.35122 -25.33469,-6.3669 -0.74483,0.74483 8.57683,6.5849 11.6841,7.32015 3.00904,0.71201 7,4.15266 7,6.03478 0,0.74639 0.63899,1.60227 1.41997,1.90196 0.78098,0.29969 2.66365,3.08689 4.18371,6.19377 1.60823,3.28711 5.40393,8.2376 9.07856,11.84058 5.47287,5.36616 6.20169,6.50278 5.46627,8.52485 -1.01879,2.8012 -6.12444,6.45637 -10.83539,7.75713 -1.88218,0.51969 -4.33028,2.0994 -5.44021,3.51045 -1.51811,1.92996 -2.92913,2.56218 -5.69549,2.55191 -5.53936,-0.0206 -8.03938,-0.97271 -8.78113,-3.34432 -1.63387,-5.22394 -10.212,-12.76449 -13.53294,-11.89604 -2.74226,0.71711 -9.5276,9.45724 -10.90812,14.05063 -0.61217,2.03686 -1.34865,9.32838 -1.63661,16.20338 -0.35177,8.39813 -0.94312,12.83576 -1.80207,13.5232 -1.02013,0.81644 -0.80767,2.23098 1.05138,7 l 2.32987,5.9768 -0.12172,-11.50326 c -0.16224,-15.33166 2.35797,-20.98935 7.08805,-15.91221 4.51863,4.85018 5.32123,9.88393 6.0454,37.91547 l 0.68461,26.5 4.20293,8.4471 c 3.48394,7.00207 4.20293,9.4398 4.20293,14.25 0,5.54737 0.11184,5.8029 2.53984,5.8029 1.39691,0 4.42435,-0.96141 6.72764,-2.13646 z m -29.83891,-59.29207 c -0.36782,-1.46551 -0.86162,-2.47171 -1.09733,-2.236 -0.23572,0.23572 -0.12763,1.62763 0.24019,3.09314 0.36782,1.46551 0.86162,2.47171 1.09733,2.236 0.23572,-0.23572 0.12763,-1.62763 -0.24019,-3.09314 z m 24.12133,-61.4142 c -0.33092,-1.04265 0.45942,-3.75635 1.82027,-6.25 5.15368,-9.44375 4.08222,-14.10894 -4.6439,-20.21967 -2.50351,-1.7532 -7.53765,-5.3251 -11.18696,-7.9376 -3.64932,-2.6125 -4.2221,-6.81258 -8.34792,-8.10368 -0.82503,-0.25818 -4.48598,16.05582 -4.48598,19.49579 -1.60911,6.66092 4.37472,7.57124 3.97313,13.39742 -0.33181,3.55326 -0.44666,6.46047 -0.25522,6.46047 0.19144,0 1.637,-0.67223 3.21237,-1.49384 1.57537,-0.82161 3.66626,-1.49661 4.64643,-1.5 2.72464,-0.009 8.55548,2.6794 11.88399,5.48016 3.56286,2.99795 4.15994,3.11633 3.38379,0.67091 z"
           fill="#e1c07e"
           id="path4245"
           sodipodi:nodetypes="sccccssscssssccsssssssssscsssssssssssscsssssscsssssssssssssscssssssscssssssssssssssssssccssssssssssssssssssssssscccccssssssssssssssssssccssssssssssssccssssssssscsssssssssssssssssssssssssssssscsssssssssssssssscccsssssssssssssssssscssssssssssssssssssssssssssscccssssssssssssssssssscsssssscsssssssssssssssssssssssssssssssssssssssssscssscssssssssssssssccsscsss" />
      </g>
      <g
         id="g4261">
        <path
           d="m 294.63905,1901.4386 c -63.66986,44.03 -74.63354,-40.4567 -91.68764,-84.6729 -22.57887,-54.6591 -18.13615,-115.5006 -8.04529,-172.2584 12.13572,-68.1142 -6.13255,-132.8869 -14.57557,-199.2851 1.36354,-57.106 -9.57479,-109.1272 -27.48306,-162.7017 -0.74199,-52.06 -36.76271,-119.3851 10.45726,-158.2992 54.24424,-37.7466 63.54937,-113.7366 70.39353,-175.72828 4.56196,-66.9782 8.6002,-130.39371 -10.3192,-194.30064 1.5457,-46.16133 -1.72347,-129.21896 -59.48558,-140.1043 -20.32596,15.83159 -42.48443,45.54235 -16.33324,7.16617 38.34491,-68.47479 109.00602,-14.80574 107.52448,46.74575 0.58588,29.85352 -0.4996,50.9365 10.18294,59.76358 15.8649,21.18636 83.08403,-25.80839 116.90161,-37.0235 51.16517,-18.91045 95.60277,-50.90584 81.44587,-111.75248 10.47279,-39.51125 -19.78666,-73.96715 -43.11516,-85.17623 69.60349,-4.88729 73.5708,69.7456 62.87077,120.21139 -8.08732,3.19384 -26.35709,5.59255 -18.87308,37.15133 -7.77134,59.1057 35.39583,-90.53184 23.47178,-17.67409 8.79126,39.60169 35.90315,91.07461 16.86541,142.25784 16.77159,57.43588 -18.42503,111.23338 -26.66017,164.88777 18.91582,55.04243 20.88723,115.63079 17.168,173.81439 5.89512,56.5733 24.70976,109.4041 25.66215,168.4345 -7.21068,55.5959 8.18653,110.2762 8.75653,163.8023 8.43056,59.548 11.65828,118.9806 -5.7033,177.4015 26.1483,53.6698 28.06861,122.2509 -29.34548,159.9289 -24.30026,21.366 -69.39306,57.2276 -74.54539,14.1209 -1.89325,-27.162 -30.57209,-17.2029 -18.88789,-43.64 -3.09474,-48.8921 -10.12827,-101.5825 -27.73766,-151.6111 -4.50384,-18.1588 -13.71627,-136.1876 -13.28201,-102.3172 8.15608,51.7277 -11.97786,105.1035 5.34931,154.8952 0.25897,42.949 -14.28998,110.6879 -7.60273,163.7718 7.87981,31.7402 11.03138,87.2662 -42.73576,80.1275 l -10.94436,1.0543 z M 251.00023,810.11147 c 4.59519,-29.15523 25.28463,-116.6945 -23.11783,-64.35712 2.86906,8.57918 10.88109,98.78436 23.11783,64.35712 z"
           fill="#60625d"
           id="path4249"
           style="fill:#825124;fill-opacity:1" />
        <path
           d="m 449.15188,604.2032 c -50.20542,-26.08152 -19.37316,84.0137 -25.29249,115.46321 -12.12774,63.49858 23.43534,8.6436 11.34955,-53.30144 2.35035,-29.73931 8.01338,-35.17686 13.94294,-62.16177 z"
           fill="#433828"
           id="path4251"
           style="fill:#181913;fill-opacity:1"
           sodipodi:nodetypes="cccc" />
        <path
           d="m 422.33156,671.10294 c 25.6323,-12.01322 46.34606,-98.53985 1.91837,-68.48207 -6.82749,22.1436 -3.15665,45.82224 -1.91837,68.48207 z m 3.64238,-11.49913 c 0.80898,-25.01711 24.17216,-80.62875 16.12768,-29.58369 -4.86929,7.671 -4.34737,31.63041 -16.12768,29.58369 z m -0.33569,-29.44316 c -13.93531,-37.43705 32.34362,-31.44468 8.35594,-23.13686 -13.6014,-25.48428 -2.4955,58.26003 -8.35594,23.13686 z m 8.33873,50.73147 c 2.30942,22.1389 -2.85712,77.51411 -11.20397,61.16234 13.11496,-22.9331 -6.96,-99.82559 1.6865,-34.86064 3.87725,37.43181 -14.34662,52.92994 -4.79896,8.85329 -1.51639,-20.59004 -6.6489,-64.28966 15.56107,-43.57113 l -1.24464,8.41617 z"
           fill="#654b2c"
           id="path4253"
           style="fill:#825124;fill-opacity:1"
           sodipodi:nodetypes="cccccccccscccccs" />
        <path
           d="m 263.01248,1892.2189 c -59.12316,-18.1994 58.58103,7.4624 64.72145,-28.1319 36.68941,-28.2772 1.04129,-71.8275 6.21085,-109.7143 -28.50936,-56.1585 1.79906,-115.5087 2.26193,-173.7708 6.24639,-50.5517 -8.73369,-128.4412 33.54941,-158.3275 15.45428,1.5082 -1.29835,77.9563 -8.94226,101.5888 10.64315,45.2268 -8.37059,94.1602 2.85059,135.5108 10.47888,52.1348 -15.02564,105.3613 -3.50196,158.0175 11.88307,45.015 -55.86663,81.3001 -97.15005,74.8274 z m -12.08125,-21.4357 c -13.95156,-6.3626 90.80559,-9.8288 30.47812,0.9518 -10.16249,0.4212 -20.36618,0.1826 -30.47812,-0.9518 z m 190.03855,-61.8156 c -22.27609,-28.3409 -50.80369,-27.5699 -34.92707,-67.0321 -4.80021,-33.0374 -13.74791,-89.1871 -21.2939,-119.5547 20.08124,28.1072 13.03002,90.5226 31.63986,100.686 -32.33055,29.7747 11.33735,89.4286 55.29779,78.3095 29.40056,-17.4112 49.88561,-68.4323 20.66661,-96.201 -3.42995,-59.829 -23.05744,-116.5704 -37.11647,-173.9944 -9.49646,-47.3684 45.02454,-67.1623 43.83007,-110.7633 12.59202,-45.7201 -6.30365,-91.0812 4.67733,-136.5977 -6.95846,-43.5576 -9.06582,-110.9412 -15.35856,-143.9966 -11.10811,31.5131 -57.26399,76.9976 -27.9237,17.9345 32.4063,-34.9548 8.72541,-79.4806 29.51734,-119.6632 7.80924,-26.9141 1.55834,-63.85308 -13.09894,-17.5018 -20.11063,-11.2042 32.95348,-113.19209 -29.89827,-71.41591 53.5726,-39.81279 54.63015,-88.62478 48.23004,-148.57952 32.2427,-61.59405 2.17416,-115.00614 -8.64258,-158.44014 52.34188,52.98285 11.82236,254.67982 3.43404,296.83455 7.17609,56.84354 17.1461,113.57322 10.87558,171.13792 -7.49961,59.3572 23.33949,114.1926 19.66533,175.8548 -13.07876,59.5018 19.09359,112.3599 11.181,168.0823 10.83108,58.5909 9.2304,116.8117 -5.37559,174.5 5.946,37.7221 39.81908,87.559 13.14968,122.2174 -29.36795,23.1645 -60.87743,51.2794 -98.52959,58.1834 z m 74.6933,-499.726 c -0.43212,-47.0159 -1.90157,59.2729 0,0 z m -291.89406,501.0752 c -3.16656,-17.7489 5.09922,14.0074 0,0 z m 216.39781,-16.0209 c -35.62267,-62.4209 24.46464,12.8583 0,0 z m -28.81713,-36.0135 c 2.2144,-22.6594 20.86457,1.4553 0,0 z m -135.51097,-46.7291 c -17.51651,-13.2735 -5.15037,-83.8462 -3.28296,-26.8159 -0.0959,4.7335 20.73357,40.3781 3.28296,26.8159 z m -3.10698,-73.6775 c 1.0027,-8.6388 3.80639,1.979 0,0 z m 107.76818,-31.559 c -12.9535,-29.0878 -6.85086,-50.7359 3.30636,-8.4532 10.30189,4.4349 0.38793,14.017 -3.30636,8.4532 z m 43.26981,-193.0945 c 2.9738,-25.4015 59.17164,-109.0836 28.11645,-34.9733 -7.1184,9.5893 -11.83591,40.2488 -28.11645,34.9733 z m -121.54688,-48.5237 c -61.11754,0.6301 -11.11831,-54.2322 15.39606,-20.0066 24.44468,19.6711 135.02917,-17.4591 75.70875,12.3852 -29.1753,8.5802 -60.92663,8.4474 -91.10481,7.6214 z m -144.84532,-71.707 c -2.33042,-16.9716 -20.93596,-127.6351 -12.56883,-99.853 4.16602,31.3021 11.37344,78.338 12.56883,99.853 z m 171.03513,-119.7551 c -25.83786,-26.0175 56.21726,3.0028 72.32135,-22.688 -18.23044,24.3194 -43.31106,34.362 -72.32135,22.688 z m 60.5692,-84.3791 c 40.08564,-19.704 43.66779,-106.23044 73.17604,-103.93721 -18.53126,34.10081 -24.28327,103.86061 -73.17604,103.93721 z m -75.72378,-23.6123 c -29.12983,-4.5563 -49.29343,-19.8857 -8.34542,-12.0508 26.82444,20.6003 86.93193,-22.134 80.94465,-15.3728 -16.35202,24.4516 -44.28509,32.9352 -72.59923,27.4236 z m 18.65458,-149.08811 c -37.12188,-15.79558 79.65482,4.66302 57.42278,-46.99489 -0.32575,-24.6256 -6.14938,-64.61044 -2.81723,-83.2673 12.44762,35.1531 11.01918,74.27719 3.27098,109.75278 2.05357,18.32213 -42.5278,19.75211 -57.87653,20.50941 z m -11.3,-22.61535 c -21.18875,-27.43106 -4.81482,-81.4078 -5.8648,-92.8 5.42832,28.66137 -2.57543,71.8918 5.8648,92.8 z m 76.3692,-1.34677 c 4.23744,-17.62763 10.95606,3.64891 0,0 z m 18.6845,-5.50504 c 6.34879,-42.29567 15.35119,-128.4311 5.17051,-145.76038 -26.95147,15.33716 -43.73381,-5.94861 -3.38458,0.68511 20.01515,-19.52926 74.79336,-71.95437 60.18186,-15.63299 -8.94572,19.32325 -43.527,-19.36329 -45.55509,18.36086 2.90429,39.38147 -11.28955,118.8715 -0.93687,134.89859 16.48656,-12.52774 73.19295,-57.99815 31.19803,-14.78115 -13.30978,9.07288 -30.93168,22.6259 -46.67386,22.22996 z m -15.6845,-14.59144 c 4.6222,-9.1538 5.23798,7.01827 0,0 z m -1,-14.53436 c 4.77982,-15.27069 11.87412,4.88506 0,0 z m 3.41121,-13.93202 c -0.61689,-14.49147 5.90995,7.32128 0,0 z m 67.85245,-6.25224 c 8.73631,-45.98477 13.09913,8.83083 0,0 z m -72.21108,-9 c -3.30792,-27.2097 11.70928,7.69714 0,0 z m 80.65263,-17.5 c -3.53407,-20.34326 -22.53424,-109.62537 -1.05292,-84.8982 -1.59692,20.67317 7.32878,87.19588 1.05292,84.8982 z m -84.68021,-2.68964 c -1.4433,-17.32406 10.12783,11.05427 0,0 z m -2.75253,-17.27706 c -7.46701,-15.56775 9.90369,-0.14311 0,0 z m -78.84167,-5.84209 c 25.19308,4.05115 98.59689,-67.59265 53.12094,-17.79469 -15.74589,9.72071 -34.11385,19.02448 -53.12094,17.79469 z m 73.1817,-13.12871 c 0.7157,-14.54793 6.39893,10.8837 0,0 z m 1.92637,-6.17106 c 7.76995,-35.93165 -14.13919,11.98603 0,0 z m 27.92175,-31.34835 c -1058.88955,-1121.2639 -1058.88955,-1121.2639 0,0 z"
           fill="#23303a"
           id="path4255"
           style="fill:#181913"
           sodipodi:nodetypes="scccccccsscccccccccccccccccccccccccccccccccccccccccccccccccccccccccccccccccccccccccccccccccccccccccccccccccccccccccc" />
        <path
           d="m 360.38873,1845.8057 c -23.84219,42.8712 -98.68103,52.5469 -114.83883,81.5583 29.48134,52.3705 4.90475,116.9227 25.60857,168.2781 53.57548,5.6045 112.90935,14.4867 164.63791,-6.2961 37.31799,-16.1224 84.97975,-95.5244 13.35112,-67.3043 -62.26563,18.3751 -116.70432,-36.9789 -100.76974,-99.6996 1.58695,-25.8204 6.27679,-51.3472 12.01097,-76.5364 z m 179.89222,-107.0664 c -26.10687,39.0585 -94.33812,61.3027 -111.36025,81.4458 21.10878,61.3855 14.41572,127.0488 2.01568,189.1937 53.20712,-23.1408 115.64611,43.218 159.40721,-6.0932 24.57437,-30.9334 63.77393,-80.0624 -0.80206,-62.1904 -80.09799,9.4415 -83.06765,-84.2115 -65.94597,-138.4701 4.53574,-21.5471 10.31612,-42.8143 16.68539,-63.8858 z"
           fill="#252525"
           id="path4257"
           style="fill:#8c836a;fill-opacity:1" />
        <path
           d="m 440.81199,2090.6454 c -53.1325,35.8938 -117.90271,14.8808 -174.90264,2.9831 26.88538,-21.4795 102.3246,22.1707 145.99571,1.9115 23.23861,-4.4951 79.15556,-43.1736 21.00028,-32.1997 -41.70697,-16.9136 -83.78405,-24.1603 -126.58248,-10.8624 10.54296,-48.8275 9.13528,-104.6706 -1.54129,-150.4205 36.35935,-22.0269 -86.29254,36.2117 -23.42526,0.2746 38.5338,-0.5518 66.06601,-84.0173 88.05546,-62.0941 2.9998,51.1778 -47.37999,123.9009 12.20797,155.994 39.50237,12.183 100.51864,10.5347 124.24336,27.8838 -16.16544,26.1206 -37.27714,52.2136 -65.05111,66.5297 z m 128.9986,-71.9601 c -40.47564,21.1406 -82.9134,-27.2805 -127.88677,-4.7874 -21.65243,-13.6689 9.0451,-128.6761 -1.52521,-47.0994 -20.666,64.0399 75.50552,26.2292 105.31377,36.7532 15.78526,41.3829 96.20317,-44.5719 29.55244,-10.0467 1.9624,-48.6146 -64.58851,-46.9825 -96.62774,-29.2668 6.17133,-52.4293 29.51333,-120.7806 -15.30622,-162.054 -26.73182,14.9259 -62.0185,-11.7534 -15.92507,-0.8256 42.4923,5.8194 111.4145,-108.4992 92.3728,-21.4409 -0.74881,46.2598 -43.18177,139.5213 30.54437,138.9409 16.65783,34.6257 94.75208,-17.572 61.73116,42.8092 -14.99881,24.3205 -33.99435,47.9658 -62.24353,57.0175 z m -305.26698,62.0093 c -2.15986,-20.7498 6.81486,-13.0847 0,0 z m -3.20134,-28.5361 c 0.50614,-24.2624 5.51416,-66.8091 3.36689,-17.929 -2.66025,-2.5036 0.081,31.8652 -3.36689,17.929 z m 6.71739,-69.1611 c -10.31205,-21.0807 -40.57454,-90.6683 -9.07522,-32.8593 0.98134,3.5281 17.05895,44.7143 9.07522,32.8593 z m 175.97326,-87.5922 c -11.0682,-27.1638 -27.41965,-137.2147 -8.66792,-53.2033 2.40666,14.8168 10.51213,46.6198 8.66792,53.2033 z m -196.30878,23.1023 c -23.66377,8.8677 25.27874,-15.688 0,0 z"
           fill="#181913"
           stroke-width="0.913313"
           id="path4259"
           style="fill:#181913;fill-opacity:1" />
      </g>
      <path
         d="m 261.01568,493.89296 c 4.74464,-9.33822 16.27939,-32.67196 25.22467,-60.25015 6.89811,-67.58367 10.35763,-254.76626 -30.59555,-244.81335 120.0884,27.94907 238.99935,22.68855 239.32035,70.41896 0.13557,20.15839 -48.55529,33.72072 -37.45001,43.7612 32.71448,29.57774 15.37248,69.43672 -2.49191,107.31025 -1.70983,3.95923 -4.40981,9.96596 -5.99997,13.3483 -1.59015,3.38233 -3.23614,9.27194 -5.62334,12.59512 -9.96387,13.87054 -11.78832,17.08163 -22.4731,20.82361 -8.8229,3.08992 -17.21644,4.38642 -28.90362,1.62664 -12.17953,-4.03156 -6.76208,9.05823 -10.0509,19.18829 -29.01039,75.80563 2.18984,66.45683 -13.25487,87.02906 -11.0329,14.69574 -43.49239,-27.95877 -111.73361,-37.43025 -19.30203,-1.38795 7.73956,-29.19511 4.03186,-33.60771 z M 395.14439,325.89361 c 0,0 1.26452,-5.63017 -0.0891,-4.66507 -13.47827,9.60979 -2.28001,7.16254 -0.5259,7.4405 1.9543,0.30969 0.61499,-2.77543 0.61499,-2.77543 z m 18.39959,-10.35554 c -3.67819,0.74155 -9.31347,8.06253 -1.69879,7.52325 12.43072,-6.00097 11.87755,-6.82077 1.69879,-7.52325 z m 282.89439,753.91263 c -3.27267,0.1463 -3.92357,-1.0795 -1.95975,-3.6908 1.79219,-2.383 1.77777,-2.4231 -0.67441,-1.8721 -1.37817,0.3097 -3.81041,1.2687 -5.40499,2.131 -1.59457,0.8624 -5.72179,2.459 -9.17159,3.5481 l -6.27238,1.9801 -1.65917,-3.1065 c -1.6189,-3.0311 -1.60015,-3.1829 0.77238,-6.2555 1.33735,-1.732 3.78154,-4.1461 5.43154,-5.3647 1.65,-1.2184 4.60427,-3.977 6.56505,-6.1302 1.96078,-2.1531 4.88578,-5.1918 6.5,-6.7526 l 2.93495,-2.8377 -5,2.6302 c -7.38766,3.8863 -21.30297,6.0984 -23.62218,3.7555 -0.93412,-0.9437 -2.16587,-1.6107 -2.73722,-1.4823 -3.14278,0.7062 -9.38067,-11.0519 -7.24854,-13.6632 1.90431,-2.3322 1.24158,-2.9419 -2.90563,-2.6731 -4.64631,0.3011 -4.52379,0.5976 -5.62723,-13.6174 -2.03771,-26.25047 -0.12931,-36.30888 8.44251,-44.49741 2.58406,-2.4685 6.04829,-5.78576 7.69829,-7.37165 1.65,-1.58589 5.1375,-4.57129 7.75,-6.63416 2.6125,-2.06287 4.75,-4.10441 4.75,-4.53681 0,-1.5381 -11.09644,-7.30263 -12.46005,-6.473 -2.83591,1.72557 -38.32917,-6.8166 -58.03905,-13.96822 -12.10364,-4.39173 -28.18958,-29.40483 -32.74477,-38.67895 -11.94578,-18.37109 -16.60957,-26.81596 -22.44214,-46.72748 -0.60038,-7.06114 12.1428,-14.03234 12.61369,-15.13902 21.33795,-19.26493 42.7531,-36.91204 66.83398,-39.83488 3.16487,-9.40043 0.80371,22.92921 14.50203,36.24514 1.92791,3.03843 4.63707,8.42009 6.02034,11.95924 6.4103,16.40094 10.33785,23.73495 24.54886,45.84058 5.78889,9.0048 29.34347,31.79644 34.93194,33.80048 3.47819,1.2473 4.24961,2.54007 9.20396,15.42428 1.8812,4.89226 2.96916,11.18057 5.0267,29.05381 0.72722,6.3172 1.60132,9.24733 3.44569,11.55081 3.27056,4.08446 6.28023,11.62153 7.45995,18.68183 0.52613,3.14876 1.94027,8.80691 3.14253,12.57371 1.58221,4.9572 2.0346,8.349 1.63802,12.2806 -0.30135,2.9876 -0.15472,9.1546 0.32586,13.7044 0.99104,9.3831 0.1699,13.3144 -3.8936,18.6413 -3.67062,4.8119 -6.97306,7.0563 -14.80638,10.0629 -8.99659,3.4529 -21.44582,7.3352 -23.86919,7.4437 z m -26.45828,-51.3097 c 2.35409,-2.2343 7.54733,-6.7801 11.54054,-10.1018 3.99321,-3.3217 7.98465,-7.3076 8.86988,-8.8574 2.44321,-4.27799 2.03937,-9.32087 -0.9794,-12.23006 -2.24375,-2.16228 -3.85765,-5.88625 -8.11402,-4.92985 -5.47166,1.22963 -10.31877,4.42689 -10.31877,8.21059 0,2.1363 -6.30592,24.48632 -8.09907,28.27672 -1.36876,2.8934 2.27256,4.2145 7.10084,-0.3682 z m -557.11486,165.8992 c 11.34401,8.803 23.39087,11.9598 35.16587,19.0864 14.67735,6.5749 32.39581,8.5316 47.93513,11.1619 6.325,1.0747 15.78394,2.0707 21.01987,2.2132 17.67673,9.6944 40.69602,4.9128 44.70691,25.7568 4.17315,21.687 17.10742,39.8084 30.96128,47.5765 14.67727,8.2296 15.57616,14.2565 24.09475,16.9777 17.57126,5.6131 22.5774,17.8045 40.39956,13.9036 7.92237,-1.7553 8.94329,-2.2098 11.79194,-5.247 1.71527,-1.8287 2.9797,-3.7107 2.80984,-4.182 -0.16985,-0.4715 -3.23118,-1.2216 -6.80294,-1.667 -9.56514,-1.1929 -19.46845,-4.4696 -28.22211,-9.338 -7.30333,-4.0619 -9.56009,-6.3681 -6.30013,-7.5337 19.34098,-6.9152 27.03613,4.4963 41.47389,6.886 11.76494,1.9473 18.8203,5.229 30.24847,6.9131 15.35102,2.2383 25.51428,-1.2934 19.29377,-9.2953 -8.46313,-10.8869 -20.6062,-14.2423 -30.05189,-12.1883 -1.14724,0.2477 -4.13187,-0.6808 -6.63252,-2.067 -2.50064,-1.3864 -8.01548,-3.0768 -12.25519,-3.7567 -10.57732,-1.6961 -23.56242,-10.0163 -20.83849,-13.3522 0.49759,-0.6095 3.94605,-5.484 6.7518,-4.2321 6.02913,2.6905 20.20689,-0.5108 46.34748,6.9 15.67475,4.4437 30.72204,3.1337 36.04174,0.6031 1.97659,-0.9403 3.27043,-3.6261 3.27043,-5.5758 -6.75287,-11.32 -30.39714,-13.1334 -42.36946,-15.7353 -10.8794,-1.9691 -28.44607,-6.4568 -29.15804,-7.4488 -0.34533,-0.4811 0.28691,-1.5699 1.40499,-2.4195 11.77554,-6.119 62.87345,16.3912 67.94019,4.4702 1.7881,-5.1206 -4.24609,-10.0849 -14.02873,-11.5412 -10.48639,-5.225 -24.87398,-5.417 -35.07923,-9.681 -12.92391,-3.6162 -26.92199,-7.3726 -35.12553,-11.2965 -6.30966,-3.0276 -6.61666,-3.3401 -4.12917,-4.2028 4.38071,-1.5192 6.69218,-1.0181 13.4917,2.9251 11.17137,6.4785 27.34041,8.7316 32.8137,4.5724 1.17712,-0.8944 2.14022,-2.3289 2.14022,-3.1875 0,-2.5867 -10.81189,-11.6445 -18.39299,-15.4088 -3.90886,-1.9411 -9.18059,-4.9789 -11.71497,-6.751 -6.04701,-4.228 -11.27488,-5.6247 -20.13109,-5.3781 -3.99352,0.1112 -9.82101,-0.1419 -12.94998,-0.5625 -3.12897,-0.4205 -8.97897,-0.3136 -13,0.2375 l -7.31097,1.0021 c -18.30398,2.5089 -13.62778,-0.3765 -38.99029,-1.7358 -1.91506,-0.1026 -18.56447,-25.0077 -25.35871,-32.8809 -9.35748,-10.8433 -30.16932,-26.9779 -44.57237,-34.555 -16.91312,-8.8977 -23.88962,-15.409 -21.61381,-20.1729 -19.87217,-12.7383 -14.23014,-16.3865 -51.80663,3.2789 -50.393969,25.5967 -71.457789,12.6127 -80.008104,3.0603 3.451901,14.2147 -6.436836,51.1971 8.118802,54.1417 22.468961,4.5454 36.854382,21.1026 48.621012,29.7262 z"
         fill="#cd9a78"
         id="path4263"
         sodipodi:nodetypes="sccsscsssccscsscsscccccssssscssssscsssssssssssscccccsssssssssssssssssssssccccssscsssssscscssssssccscccccssssssssssssscccsc" />
      <path
         d="m 338.697,1297.9888 c 31.63126,8.2768 38.11391,12.5557 30.56107,14.7031 -25.40388,7.2226 -30.74077,-3.505 -45.42893,-10.8783 -4.18418,-2.1004 -4.23117,-8.8223 14.86786,-3.8248 z m 31.42956,-26.5458 c 47.53333,9.7401 55.1595,20.645 51.03307,32.2458 -22.42002,-14.3463 -68.35336,-24.307 -71.86604,-32.9601 -5.87656,-14.4762 8.1026,-1.8943 20.83297,0.7143 z m 2.5722,-33.6419 c 46.89977,9.3438 71.07385,14.9789 69.15834,25.7249 -22.76939,0.2402 -43.28341,-17.3983 -70.06065,-18.5245 -5.47166,-2.379 -6.28146,-8.6316 0.90231,-7.2004 z m -13.47313,-28.5213 c -6.23907,-2.6448 -9.02347,0.4226 -5.83417,1.5481 36.81593,12.9938 65.24169,23.7381 85.6707,27.0737 4.43784,-11.508 -46.25165,-19.9745 -79.83653,-28.6218 z m -186.12567,-130.076 c -11.39589,6.7666 -25.75291,11.463 -36.96644,17.9082 10.36502,7.4535 33.13084,9.3549 40.22998,15.3911 34.20773,29.0862 36.68546,43.3704 67.03702,58.7627 30.66477,14.8761 57.19504,27.6651 82.33556,25.3633 11.72551,-1.0736 46.55012,-8.7921 74.41061,10.2663 7.17666,-6.7818 -5.15031,-13.5949 -38.3954,-23.6821 -38.48945,-1.8164 -48.57523,-0.8254 -62.30084,-0.1941 -11.53288,-6.5772 -118.63908,-97.4559 -126.35049,-103.8154 z M 286.08968,444.38578 c 3.77635,-12.08805 5.727,-1.7632 3.85752,-1.15671 -1.87649,0.60875 -17.40808,6.54012 -17.40808,8.36837 0,0.87247 -1.125,2.3712 -2.5,3.3305 -1.375,0.9593 -2.5,2.43033 -2.5,3.26894 0,0.83861 -0.48032,1.67724 -1.06739,1.86362 -0.61231,0.1944 -0.79675,-0.59974 -0.43261,-1.86265 0.57153,-1.98218 0.1797,-2.05705 -3.93261,-0.75149 -7.26968,2.30796 -9.86362,-0.54937 -7.13635,-7.86098 0.59692,-1.60028 -0.58025,-1.5375 -8.8714,0.47314 -9.6174,2.33226 -11.89808,2.05103 -6.81233,-0.84003 5.85707,-3.32951 19.58388,-21.39842 31.92414,-42.02247 4.90817,-8.20293 0.68677,-14.80914 -2.38028,-17.98382 l -2.1697,-2.24586 3.26932,-12.81275 c 3.12384,-12.24261 5.09489,-25.89234 3.67376,-25.44116 -1.95172,0.61963 -10.68683,8.68309 -12.46255,11.50429 -1.47371,2.34139 -2.62185,3.26686 -4.05307,3.26699 -1.16537,1e-4 -3.06988,1.04392 -4.57368,2.50663 -1.41723,1.37855 -2.86452,2.31007 -3.21619,2.07005 -0.98486,-0.67219 3.76354,-6.79626 7.99105,-10.30615 5.10831,-4.24118 7.30584,-8.93568 8.05155,-17.20017 0.43587,-4.83064 1.56525,-9.01318 3.74493,-13.86894 2.657,-5.9191 3.00862,-7.51704 2.36576,-10.75107 -0.4153,-2.08925 -0.79927,-6.25961 -0.85328,-9.26746 l 1.667,-0.4748 -2.66137,-1.7538 c -5.58488,-3.68034 -15.58102,4.64639 -8.2848,-7.07999 2.4161,-3.88311 9.44618,-9.24948 9.44618,-9.52862 0,-0.27914 -1.27578,8.56885 -2.92578,7.44269 -3.25251,-2.21991 -3.77269,-6.01168 -2.09072,-15.24009 0.45219,-2.48106 0.44274,-4.39056 -0.021,-4.24334 -1.78716,0.56739 -12.26092,10.12999 -13.96184,12.74724 -3.63542,5.59394 -4.46878,5.12771 -2.49417,20.38657 0.36212,2.79828 0.2225,3.14429 -0.92557,2.29384 -0.7436,-0.55083 -2.75254,-3.25688 -4.46431,-6.01343 -3.33557,-5.37145 -3.87898,-0.54884 -1.92676,-6.76877 0.61359,-1.95495 0.87229,-3.72054 0.57488,-3.92353 -0.29741,-0.20298 -3.33063,2.15177 -6.7405,5.2328 -3.40987,3.08102 -6.40452,5.4621 -6.65478,5.29129 -0.81538,-0.55651 2.83413,-6.4346 4.75032,-7.65112 3.33069,-2.11454 6.95446,-8.568 6.95446,-12.38499 0,-3.03142 1.04645,-4.96378 7.3071,-13.49312 18.3107,-24.946 17.28247,-32.0552 8.63435,-34.84175 -9.43529,-3.0402 -12.09004,-6.12365 -7.8199,-20.27749 6.45713,-21.40285 10.1979,-31.3488 12.36449,-32.87462 4.52088,-3.18383 8.70491,-5.86543 8.5581,-11.63314 -0.16847,-6.6187 2.69303,-14.52906 7.38815,-20.42389 3.52669,-4.42783 14.19006,-13.3882 16.99349,-14.27953 5.21145,-1.65652 0.9918,-4.87658 -5.15652,-3.93449 -4.81647,0.73803 -9.10783,0.39003 -8.54817,-0.69319 0.25348,-0.49062 5.31026,-2.74676 11.23729,-5.01367 8.93874,-3.41879 19.98533,-8.59775 34.02642,-15.95257 3.53265,-1.85042 2.65328,-2.89565 -2.28053,-2.71066 -5.19581,0.19481 -7.38564,-1.69877 -9.89438,-8.55582 -2.20061,-6.014846 -2.23316,-8.81567 -0.19155,-16.483581 1.9001,-7.136428 3.61645,-8.667816 3.61645,-3.226723 0,3.017978 0.75961,4.156165 4.26793,6.39503 5.19685,3.316407 15.4752,5.665746 19.37205,4.427899 1.57301,-0.499673 5.22735,-2.559842 8.12075,-4.578152 2.8934,-2.018311 6.83984,-4.170988 8.76987,-4.783728 6.65402,-2.112498 13.4927,1.794352 19.18625,10.960852 2.40057,3.864852 2.862,4.101249 5.20853,2.66836 1.41604,-0.864692 4.37462,-2.170449 6.57462,-2.90168 3.65979,-1.21643 4.02744,-1.098832 4.32266,1.382685 0.17746,1.49171 -0.38504,4.016959 -1.25,5.611664 -2.52489,4.655064 -1.89613,6.459524 2.89791,8.316674 6.08489,2.35722 6.55459,4.72214 3.09547,15.58602 l -2.77584,8.71793 2.58313,9.797 c 2.4178,9.16995 3.94854,13.44811 10.67975,7.87709 3.82391,-3.16481 4.12245,-3.27797 5.32275,-2.01753 1.1049,1.16026 3.01543,0.76801 14.57182,-2.9917 12.82259,-4.17168 13.50877,-4.28799 19.10889,-3.23896 3.19479,0.59845 6.66644,0.81578 7.71478,0.48296 1.04834,-0.33283 2.46627,-0.10799 3.15096,0.49964 0.70987,0.62997 2.89021,0.58243 5.07322,-0.11063 4.87798,-1.54865 12.70268,-2.43539 20.709,-2.34687 5.092,0.0563 6.75867,-0.29889 8.79705,-1.87478 3.22107,-2.49024 3.42073,-2.53296 3.42073,-0.73185 0,1.85472 45.26762,27.62543 45.45171,28.8634 0.21306,1.43275 2.40916,2.82622 6.56917,4.1683 13.96878,4.50652 16.29707,5.60478 17.62648,7.95645 0.77022,1.36248 -4.46119,9.18769 -4.84818,9.76276 -0.387,0.57508 3.55616,-5.05702 2.88863,-2.49847 -0.66753,2.55854 -2.54339,6.58849 -4.16858,8.95544 -1.83993,2.6797 1.48427,-2.6161 1.48427,-0.78553 0,5.90864 -3.146,13.37781 -9.12825,21.67208 -3.22946,4.47758 -19.9666,37.12725 -17.87254,32.03596 3.17138,-7.71057 3.66376,-10.47518 1.95699,-10.98816 -1.70389,-0.51211 -3.8669,2.70504 -5.03778,7.49294 -8.47848,24.7013 -46.72897,53.16018 -44.6691,50.86089 11.18239,-12.48208 -32.93677,4.98694 -39.40851,16.93497 -2.45517,-25.42781 29.53591,-33.43867 32.22082,-38.86751 3.17136,-6.41244 19.34585,-11.22693 9.44024,-22.4189 -0.50656,-0.57235 -21.97774,30.78503 -26.54214,30.06699 -0.9625,-0.15141 -15.59831,-5.16813 -19.97484,-5.08992 -4.32265,0.0772 -12.87798,-5.34955 -13.31368,-1.47208 -0.24561,2.18576 -13.53836,20.75183 -8.60983,20.67412 7.04748,-0.11112 7.51624,1.02925 11.48152,3.03754 -7.41016,10.36719 -9.01216,1.8284 -4.8917,13.42254 1.0398,2.65265 0.92871,3.20289 -1.11078,5.50187 -2.75964,3.11074 -4.04456,3.61723 -4.04456,1.5943 0,-0.83861 -1.0125,-1.63762 -2.25,-1.77559 -1.2375,-0.13796 -3.2625,-0.66382 -4.5,-1.16857 -2.21561,-0.90371 -2.4965,-1.17645 -4.19869,2.50742 -4.05155,8.76839 -17.56131,7.66472 -16.70371,5.3809 l 1.50861,-4.01752 c 0,0 2.51804,-21.70107 -2.72498,-19.72987 1.82175,-3.04241 1.90242,-3.55291 0.57536,-3.64085 -2.78637,-0.18463 -8.42486,2.05429 -11.37561,4.51697 -1.59301,1.32953 -3.86949,2.61476 -5.05884,2.85607 -2.10712,0.42753 -3.2386,1.96025 -4.3425,5.88235 -0.29774,1.05785 -2.24271,3.18801 -4.32215,4.73371 -2.07945,1.5457 -5.62107,4.30804 -7.87027,6.13855 -2.92808,2.38302 -5.06705,3.45517 -7.53181,3.77528 -3.12377,0.40571 -3.61653,0.80356 -5.32439,4.29896 -1.03513,2.11854 -3.38331,6.0173 -5.2182,8.66392 -2.05513,2.96431 -3.33805,5.86747 -3.3411,7.56072 -0.008,4.51712 2.0015,-9.89727 5.97346,-6.35166 2.05065,1.83055 4.20372,4.62861 4.78459,6.21792 1.36306,3.72946 0.11787,11.18084 -3.48087,20.83007 -1.6252,4.3576 -3.05832,10.53829 -3.50415,15.11249 -1.05955,10.8709 -3.27325,18.2294 -5.44085,18.08577 -5.04954,3.22793 -5.62059,16.30898 -8.19159,15.0763 -1.14633,-0.58743 -1.63579,-0.38961 -2.32193,0.93841 -0.47818,0.92552 -1.19342,1.46161 -1.58943,1.19133 -0.39601,-0.27029 0.46422,-4.36472 1.91163,-9.09875 4.59214,-15.01952 7.69964,-27.59245 7.69964,-31.15276 0,-1.89633 0.8384,-5.8682 1.8631,-8.82638 3.6821,-10.62969 3.61533,-12.60812 -0.70291,-20.82739 -2.16425,-4.11941 -4.61789,-9.57254 -5.45251,-12.11806 -0.83463,-2.54552 -1.99895,-5.32527 -2.58737,-6.17724 -0.58842,-0.85197 -1.78385,-3.12236 -2.6565,-5.04532 -1.43102,-3.15335 -1.69242,-3.27524 -2.66511,-1.24271 -0.68497,1.4313 -0.74007,2.72586 -0.15101,3.54795 0.5101,0.7119 0.7564,3.93618 0.54734,7.16505 -0.37848,5.84525 -1.5,7.52124 -3.92528,5.86593 -1.26898,-0.8661 -2.02098,2.48626 -2.63451,11.74433 -0.19649,2.9651 -0.663,5.7939 -1.03667,6.28621 -1.08453,1.42883 -5.93996,-0.41057 -7.82339,-2.96378 -1.41054,-1.91215 -1.53563,-3.08342 -0.68653,-6.42817 0.57105,-2.24948 0.85726,-4.56818 0.63601,-5.15264 -1.04942,-2.77231 -7.72466,17.60037 -7.72466,23.57548 0,2.60656 0.65522,4.2615 2,5.05157 2.70827,1.59114 2.51793,3.03278 -0.4499,3.40767 -2.63546,0.33289 -3.88329,2.31088 -2.55097,4.04364 0.44775,0.58232 0.44316,2.11797 -0.0102,3.41255 -0.45336,1.29458 -1.73986,6.91945 -2.85888,12.49972 -1.78807,8.91666 1.89675,20.08671 -0.30861,41.68182 -0.29025,2.84215 -1.07196,6.01532 -1.73715,7.05151 -0.66518,1.03617 -2.95252,-8.55654 -3.05643,-6.54487 4.46146,6.06825 -11.87733,31.3038 -4.59626,8.91513 z M 258.23598,273.4171 c 3.7545,-4.409 5.55326,-7.27095 5.57351,-8.86795 l 0.0299,-2.35798 -3.56434,3.98009 c -6.67779,7.4567 -9.43563,11.18828 -9.43563,12.76716 0,2.52487 1.49532,1.40866 7.39656,-5.52132 z m 60.91085,107.15128 c -0.66223,-1.94115 -2.61212,-16.61179 -2.26825,-17.06594 1.64446,-2.17191 8.59409,4.94229 9.96106,10.19695 0.65403,2.51411 0.54187,2.68412 -1.87681,2.84494 -1.711,0.11378 -3.09892,0.86473 -4.14473,2.24256 -0.86478,1.13933 -1.61685,1.94099 -1.67127,1.78149 z m 68.84903,-48.77594 c 0.37598,0.48899 -0.78398,-1.0196 0,0 z"
         fill="#825124"
         id="path4265"
         sodipodi:nodetypes="ssssscsssccsccccccscscccccsssssssssssscssssssssssccsssssssssssssssssssssscssssssssssssssssssscssssssssssssssssssssscscssssssccssssssccssssssssssssssccssssssssssssssssssssssssssccsscsssssssssss" />
      <path
         d="m 258.6309,494.64727 c 10.63102,-20.74602 45.37792,-93.23806 9.43622,-33.43078 -10.25372,5.8945 -40.53269,-8.68607 -9.5027,-29.27799 15.08503,-19.46414 18.6371,-64.41004 12.2916,-69.7409 -31.10176,35.51546 16.37146,-34.33171 2.63437,-50.38984 -22.0675,6.297 4.2654,-27.01117 -6.23555,-39.27644 -29.82419,-7.44458 -9.70295,74.39569 -25.26231,28.91186 9.21127,-24.69096 -8.63589,4.88161 10.86146,-25.7679 32.06786,-29.97034 -13.92537,-36.88407 12.77708,-72.95808 11.21785,-23.40577 -20.07406,66.48842 10.7852,38.03595 -15.45911,-17.54132 9.59946,-52.49501 3.9967,-74.82999 16.40007,-22.55039 30.22173,-20.76065 4.57488,-0.5557 -22.53622,25.23421 41.29605,32.11856 0.0476,31.13067 5.67968,26.9177 -0.34755,40.53461 23.84533,4.31756 54.58787,-43.18474 -45.27111,46.51807 -22.59199,60.65956 -10.63339,17.70627 -21.9118,38.75713 2.1583,3.59971 4.90537,21.24237 -35.94042,44.09395 -10.34341,50.09003 7.01804,12.50013 -17.61906,58.20552 3.88673,16.66346 3.44384,-18.0006 36.57604,-106.79048 23.36878,-49.3353 5.98409,20.61219 -31.00538,65.30103 -18.61878,59.89933 -8.5996,33.87087 -11.12674,79.48432 -33.77538,103.62863 53.82952,-36.40534 18.0123,-90.94049 65.77568,-127.39334 27.97321,-49.22827 -57.9424,52.01129 -11.71582,-4.86434 10.433,-11.69701 23.62861,-24.25126 2.36501,-14.70669 11.68709,-20.54095 37.18125,-68.43507 17.82017,-18.13147 -5.875,26.8054 18.66441,-41.36424 12.17405,1.37961 9.11047,11.18981 -15.40724,72.40158 9.62166,48.38575 -4.10869,30.73489 8.51256,40.71446 -15.93632,77.18429 -6.16163,6.98165 19.46798,-70.89398 9.59718,-61.50777 -1.02758,22.37445 -22.42458,-64.86079 -19.67629,-9.4032 -6.2303,14.33931 -14.14015,23.49486 -15.92498,5.03715 -8.02091,41.48027 -3.57937,92.4937 -22.74966,119.84215 -3.3214,31.91916 -63.85061,80.74232 -3.44981,67.03935 27.66451,-13.29477 36.50136,32.14312 65.48978,19.63954 19.05288,-8.66097 21.461,-10.03742 16.99014,-24.18011 -59.82806,34.97198 16.82642,-39.91644 -4.53633,-64.22196 0.50914,-17.25692 -53.34407,-39.1337 -10.52747,-21.45681 16.44252,9.84271 49.03588,21.54654 59.99746,21.82101 -45.51528,-9.91431 -32.59509,53.78323 -39.00561,81.90965 -0.36875,67.30902 -45.66954,-13.88815 -76.8924,-5.30722 -22.20346,-7.58307 -70.42997,3.12843 -33.75057,-42.43943 z m 6.35954,-36.41038 c -4.26542,-5.77867 37.83681,-44.13252 17.79157,-40.03015 8.04676,10.70895 -46.20005,44.97785 -17.79157,40.03015 z M 247.67595,276.93518 c 12.4866,2.09808 32.87939,-40.91312 6.01157,2.47396 -2.6187,2.6715 -15.05284,6.61282 -6.01157,-2.47396 z m 15.9731,-8.2622 c 8.97256,-10.40107 -5.53328,10.27314 0,0 z m 13.09697,-8.46215 c 10.31727,-28.82027 2.52793,15.30689 -2.0948,7.63514 z m 445.16013,799.19387 c 18.54463,-14.7285 19.18082,-42.4171 -3.2222,-11.987 -55.02954,35.0251 29.71216,-24.1515 14.63124,-48.02516 7.10452,12.71436 17.62013,55.67726 -11.40904,60.01216 z m -43.14449,10.051 c 8.76909,-4.1027 1.81319,0.9949 0,0 z m -2.49791,-21.2554 c 10.97338,-4.736 2.29781,0.7835 0,0 z M 687,1043.7802 c 7.48837,-10.2376 3.6448,3.1092 0,0 z m 6,-3.8997 c 22.01568,-19.4044 40.5612,-52.39421 30.61062,-65.1795 23.4194,16.2516 -6.82039,55.4908 -30.61062,65.1795 z m -34,3.5419 c 13.55661,-9.0691 58.59422,-66.14251 55.52193,-43.65189 C 698.75621,1018.4689 680.44741,1035.7725 659,1043.4224 Z m -11.24029,-23.4606 c -8.53585,-22.91018 -3.50489,-47.76335 24.5362,-62.70824 -27.31717,23.3967 -26.51777,44.91174 -24.5362,62.70824 z m 13.52189,3.512 c -2.05515,-21.8043 20.76772,-57.21816 6.75029,-17.6184 1.28012,0.6607 -7.28232,28.5868 -6.75029,17.6184 z m 60.33001,-56.37416 c 1.31858,-52.29586 -60.28079,-59.63001 -80.37743,-94.36716 -10.91898,-20.67262 -51.88453,-67.3174 -10.73418,-80.42969 20.07291,45.09915 43.12765,102.89745 82.43825,130.51907 6.90365,11.98093 12.02264,27.79895 8.67336,44.27778 z m -86.5948,-26.8374 c -34.32795,0.31968 -84.16136,-38.74651 -82.51681,-91.35663 6.04119,40.00061 85.71168,96.37792 88.79453,93.37837 z M 423.77229,422.20929 c -8.94495,1.77059 -23.94883,0.68813 -0.89583,-4.07984 13.7103,-2.83565 36.50057,-14.18371 11.30312,-8.73675 -52.64941,22.21627 -15.22477,-3.16707 5.28418,-9.58367 -1.39469,-22.39947 4.60177,-17.16376 4.60177,-17.16376 4.53962,-2.24022 19.59983,-18.17514 15.58244,-22.21478 -24.32045,-24.45517 -28.17478,-62.90916 20.58202,-79.03062 9.48602,-5.36625 16.7251,17.24926 17.75721,-11.83787 -17.03169,-4.00334 -43.41945,32.82581 -19.68062,-1.55712 -3.77276,-8.27237 5.54707,-26.57844 -2.89925,-35.07496 13.47945,-25.78824 53.13938,50.33971 30.79949,-7.7715 15.51525,-24.59537 2.75993,-2.74124 13.78355,-8.30833 13.56704,27.21799 16.81219,1.71716 8.26369,-4.83282 31.03685,-1.32197 30.0414,30.39205 14.73631,27.87456 55.44934,-75.59842 -99.46656,-119.29115 -150.81685,-68.46734 -18.56284,12.63166 -66.74845,71.18912 -30.6559,19.69319 -5.08609,-5.93535 -52.10263,44.97669 -21.99472,30.38833 -14.87639,19.02357 -41.40205,44.39374 -46.1403,56.76757 2.7011,-20.81161 21.58027,-24.988 10.29414,-32.66816 14.27768,-39.94692 48.65694,-57.51448 77.97228,-73.34878 -24.724,7.29369 -39.69818,21.49907 -57.33988,13.47265 -45.80486,23.7946 15.28885,-34.34466 19.58855,-1.4215 10.90021,-21.14415 45.37118,-64.80959 1.89306,-30.0429 -40.40388,19.386 41.21336,-46.47024 -2.693,-31.95289 -22.64934,7.66057 -35.00476,24.55709 -55.97495,19.81112 24.7545,-10.1405 85.80677,-44.136566 77.51615,-6.79269 40.82641,-44.032586 -62.78883,-15.32019 -40.98623,-44.624516 12.47091,26.248506 55.001,-13.514499 64.98998,17.148306 24.31181,-11.176786 6.09635,33.41791 19.96801,42.42764 32.86564,-17.13991 142.41866,-5.56527 131.25525,17.94468 44.1034,-3.87266 9.88943,34.73775 -33.16199,119.14603 -13.30391,43.95016 -22.9995,70.13614 -47.45782,115.04948 -10.76934,16.84276 -11.14601,39.08361 -30.96028,51.76528 0,0 3.94963,-4.89384 7.45285,-11.79343 6.25692,-12.32299 6.48545,-17.64372 -11.96643,-20.18461 z m 54.17893,-132.2554 c -31.91835,7.97958 38.75589,-9.68897 4e-5,-10e-6 z m 12.37261,1.2689 c -14.55054,-14.26878 -12.61664,16.55172 0,0 z m 9.01805,-33.13297 c 2.51835,-6.0253 6.90982,-15.14898 -8.06731,-15.31436 5.24443,-5.94565 14.05593,27.96878 8.06731,15.31436 z M 376.94259,151.77118 c 1.32582,-10.46448 42.56162,-33.04971 12.62375,-26.43127 -11.91558,-0.40977 -23.35387,37.74817 -12.62375,26.43127 z M 234.9904,456.94337 c 4.95808,-5.74363 7.56784,-2.41737 0,0 z m 83.03051,-83.81782 c -15.65894,-29.83609 21.79148,-9.18169 0,0 z m 114.65466,11.64358 c 6.63416,-12.63331 18.33023,-5.52653 0,0 z m -2.16641,-18.6945 c 4.10744,10.61979 -2.33055,-35.76047 3.18311,-38.02623 -0.57111,2.58137 4.06555,46.72901 -3.18311,38.02623 z M 251.9904,377.86458 c 1.5222,-5.19937 2.59931,2.79483 0,0 z m 155.69469,-37.72859 c 20.91912,-20.62595 26.92211,-7.97162 0,0 z m -12.11942,-11.54504 c -8.52367,0.46918 7.37527,-19.13476 -11.8278,-1.60941 -8.15089,16.06394 -4.0292,-12.08226 13.19734,-17.28265 -20.06411,11.70579 -14.13301,-20.1784 -32.09976,10.50017 -19.53574,10.02499 -22.21371,-22.54475 -4.52444,-12.33983 21.73434,-27.66829 13.38896,-40.72124 41.82738,-68.77013 -12.27036,14.18025 8.62123,37.92026 21.21716,29.37286 4.8526,-7.23881 -15.3623,-19.12195 8.23767,-23.3869 -2.04546,12.11612 -39.29079,56.53713 -18.72913,54.2717 55.69366,-1.24865 -36.98928,10.70134 9.14446,11.0675 6.4138,13.01499 -10.25586,2.81443 -20.13677,6.06471 4.47208,9.17409 -0.78982,10.93534 -6.30611,12.11198 z m -32.69015,-11.81686 c -0.059,-4.34739 -7.62208,5.39346 0,0 z m 17.15805,-20.86343 c -3.10612,-2.68784 -1.89758,5.6089 0,0 z m 37.03548,-14.07903 c -2.33998,-8.41296 -10.20191,4.96758 0,0 z m -20.53548,-11.7717 c 10.87221,-10.37543 -31.46573,8.47099 0,0 z m -11.65943,65.03116 c 9.52518,-6.44818 4.08748,2.61014 0,0 z m 70.04675,-43.95279 c -4.46928,-16.42859 -10.90173,-20.00816 -11.88732,-39.48895 30.48234,-36.77237 -2.78244,-4.62065 25.96096,1.58014 -0.76954,2.06355 -5.69854,42.03702 -14.07364,37.90881 z m -224.93049,8.37521 c 1.75251,-5.7892 1.55447,3.20498 0,0 z M 464.06096,173.59255 c 16.07769,-0.35128 -46.37883,23.73662 0,0 z m -165.40821,9.70999 c -9.01711,-19.84901 35.27945,-53.57945 6.51788,-10.49637 11.45322,2.61794 1.61501,11.999 -6.51788,10.49637 z M 337.1902,1323.0881 c -16.88902,-21.3687 5.93406,-6.1531 0,0 z m 15.76683,-28.7991 c -29.76429,-14.2854 12.46478,-5.4531 25.98795,8.289 -2.93098,0.492 -23.44885,-7.5897 -25.98795,-8.289 z m 29.36635,-29.4082 c -29.65814,-10.7016 32.72259,3.2059 0,0 z m 79.28169,-963.41498 c 7.63802,7.30363 13.93151,-17.90929 0,0 z"
         fill="#825124"
         id="path4267"
         style="fill:#825124;fill-opacity:1"
         sodipodi:nodetypes="ccccccccccccccccccccccccccccccccccccccccccccccccccccccccccccccccccccccccccccccccccccscccscccccccccccccccccccccccccccscsssccccccccccccccccccccccccccccccccccccccccccccccccccccccccccccccc" />
      <path
         d="m 461.44289,320.14829 c -2.70883,1.10336 -7.91002,-4.2735 -2.59618,-4.75345 1.88529,0.72458 8.81637,0.47496 6.63998,3.64357 -1.3633,0.75883 -2.75843,1.03539 -4.0438,1.10988 z m -46.98134,16.09761 c 1.93841,-2.00498 6.62825,-7.19912 7.63086,-6.282 -0.39702,0.49605 -0.9054,1.05183 -1.47336,1.62232 -2.11915,2.12855 -5.0679,4.46172 -6.1575,4.65968 z M 477.605,294.55849 c 2.88347,3.65399 -2.47379,3.53197 -5.77378,5.61457 -5.37188,3.29936 0.75165,2.24145 -4.68656,3.3527 0.62057,-2.75642 0.0728,-5.72698 2.76554,-9.63837 4.0172,-4.01003 5.71448,-1.83049 7.6948,0.6711 z m -85.88666,33.56737 c -2.73052,-0.77728 3.43208,-5.84766 1.94068,-9.19453 -2.10433,0.73027 -5.79261,4.53626 -5.22175,1.64505 5.8847,-4.50567 10.04627,-4.20384 16.58897,-7.80389 4.7171,-1.57413 8.89292,-1.46603 13.09907,-0.0611 0.0259,3.02471 -10.02288,-0.0884 -13.00367,4.77305 0.36909,3.6229 2.35357,7.41338 -3.59778,8.56395 -4.70034,1.99789 -7.59882,3.91716 -9.80552,2.07742 z m 71.19892,-29.48554 c 3.53949,-4.21167 8.18474,-7.19266 12.4276,-10.29797 3.45204,-2.66479 2.48007,-0.65854 -0.17149,1.35692 -3.954,3.10097 -7.84388,7.48126 -12.11704,9.23794 z m -1.75047,-4.72566 c 0.90464,-2.64865 15.01319,-12.31322 11.65322,-8.53522 -0.57628,1.04489 -12.35946,10.76571 -11.65322,8.53522 z m 26.99369,-9.54669 c -1.48364,-0.34058 -2.21823,-0.86173 -3.70187,-1.2023 3.4876,-1.66316 6.96437,-2.7521 8.50508,0.32409 -0.0541,2.33162 -3.33492,2.03249 -4.80321,0.87821 z"
         fill="#474b79"
         id="path4269"
         sodipodi:nodetypes="ccccccsccccccsccccccsscccccccccccc"
         style="fill:#825124;fill-opacity:1" />
      <path
         d="m 439.01651,444.83529 c 14.1155,-40.59815 59.01101,-105.32372 60.82421,-159.98387 23.51485,-31.4808 22.41499,-46.74307 -1.41793,-53.2204 -0.83946,-14.75342 13.836,-14.49136 16.83267,-2.61557 16.19399,17.67803 7.38155,-16.72709 16.44412,1.45292 -4.05975,17.75732 -12.10866,29.594 -19.55912,41.33766 -14.65724,47.19699 -9.41221,53.42603 -55.276,136.4404 0.40861,1.70025 -7.38422,19.75785 -17.84795,36.58886 z m -8.96369,-27.84392 c 10.56659,-6.37312 10.79641,-0.94346 0,0 z m 4.12676,-7.59867 c -12.92794,6.5765 -13.66001,2.96934 0,0 z m -188.06539,40.18236 c -8.04085,-17.91647 46.45315,-50.88555 10.66396,-18.05383 -16.56976,6.36142 0.1083,24.84656 -10.66396,18.05383 z m 16.92409,-10.32857 c 4.6471,-15.33364 7.23766,1.50217 0,0 z m 16.78576,-16.55543 c 11.79544,-35.46858 -9.05189,-71.89085 21.84214,-97.7464 9.64377,-12.72662 -18.89388,41.47253 -14.95617,58.44771 -4.3925,12.91649 0.98924,27.34556 -6.88597,39.29869 z m 150.68512,-56.61643 c 2.55494,-4.22868 2.55494,2.94622 0,0 z m 2.16641,18.6945 c 11.78784,-11.00556 4.7724,2.81728 0,0 z m -175.92801,26.98478 c 10.59593,-21.31775 15.35922,-17.75363 0,0 z m 9.49504,-20.97743 c -6.31971,-19.27441 13.75071,-69.07786 1.48854,-18.62086 -9.12649,-0.11845 6.57242,29.23252 -1.48854,18.62086 z m 187.46832,-36.31267 c -2.07688,-7.07995 -6.52107,-13.8076 -7.45346,-22.95727 -1.68934,-16.57778 -2.59924,-24.16188 2.005,0.56305 -0.95648,6.0098 9.99622,21.94759 5.44846,22.39422 z m -116.68645,16.34318 c -0.92904,-20.18174 15.8808,-40.1028 2.85723,-7.30044 z m 1.64393,-31.56625 c -24.19331,-7.79585 0.25604,-57.68961 -6.81078,-14.10466 0.39303,-0.87041 14.17701,21.52896 6.81078,14.10466 z m -84.95839,18.1806 c 26.87254,-23.77821 46.03882,-99.42392 51.06574,-89.48188 -5.83,34.58663 -24.48652,62.18291 -51.06574,89.48188 z m 49.45455,-14.11322 c -9.3949,-11.97971 11.72906,6.64322 0,0 z m 158.13082,-22.53305 c -15.71511,-7.77827 16.11384,0.98788 0,0 z m 0.16575,-18.29684 c 10.81157,-22.26234 24.42482,3.11584 0,0 z m 4.18066,-5.60168 c 23.59964,-9.77522 -6.43482,-4.28252 0,0 z m -75.38417,28.41915 c -1.59051,-14.87624 40.01826,-5.84087 9.7898,-4.9103 2.41207,2.65456 -11.11354,13.67478 -9.7898,4.9103 z m 2.2348,1.67744 c 7.02572,-14.47585 14.70367,2.94979 0,0 z m -79.78241,-3.60615 c 1.31714,-6.06406 1.31714,5.40292 0,0 z m -50.47145,9.66714 c 16.027,-31.60695 -7.74424,-24.926 4.4594,-46.9868 -4.33483,-18.86475 21.66106,-79.5383 -0.22761,-19.18062 0.75377,-6.50366 1.2581,-54.61147 11.13178,-63.08474 10.48609,20.22972 -2.97969,38.24108 20.82915,4.12129 62.36623,-58.34302 -43.93647,42.68167 -15.84326,47.08527 -15.55327,20.32328 -18.35702,35.33012 -7.50022,30.67389 -30.29462,27.55864 16.49435,11.81521 -12.84924,47.37171 z m 204.48049,-37.14452 c 21.62787,-14.13943 -13.59497,11.38605 0,0 z m -156.00904,17.5127 c 10.19667,-34.20134 26.21008,-55.45115 13.96125,-13.17413 -3.03544,21.24244 -4.08546,-1.29787 -13.96125,13.17413 z m 178.48674,-28.38472 c -5.86275,-8.2318 11.93697,5.60607 0,0 z m -201.48674,32.81187 c 16.63543,-16.34955 48.1031,-57.29341 15.10421,-12.85282 -5.1299,2.89481 -8.84097,13.35314 -15.10421,12.85282 z m 97.12515,7.00172 c 16.12997,-15.33914 4.27264,1.16654 0,0 z m 26.91753,-11.60249 c -19.21463,-0.84506 18.1229,-4.30037 0,0 z m -60.29259,12.41279 c -12.86894,-22.90563 0.84274,-11.27896 6.05283,-1.13762 z m 184.78186,-80.32396 c 14.0987,-24.30971 26.9677,-58.53107 18.70974,-70.24968 21.2465,11.48704 15.71673,24.69733 8.06546,10.98265 -3.1898,18.44735 -11.22575,45.6621 -26.7752,59.26703 z m -81.07961,58.01825 c 0.14392,-18.01729 -16.23406,-29.23266 -14.17942,-43.33269 4.23578,-13.81464 26.66246,-18.61888 5.94987,-2.47418 4.82512,8.31154 15.34472,34.36379 8.22955,45.80687 z m -90.64928,13.67314 c -10.16553,-7.04309 12.74563,-43.35927 9.58165,-9.29177 1.85919,4.51633 -16.70668,17.91596 -9.58165,9.29177 z m 5.73459,-14.57366 c 1.21048,-15.70364 -8.1935,15.32595 0,0 z M 477.96927,272.8587 c 21.39387,-20.06915 -17.7513,-56.96839 10.39501,-29.66016 14.21965,5.42371 -12.19231,43.52659 -10.39501,29.66016 z m -62.8746,24.3005 c -19.40583,0.31415 -30.49555,7.806 -8.64287,-5.64044 4.12886,-21.04849 -28.21731,-0.8684 -7.86688,-20.71601 -39.39247,-22.91378 -1.80907,57.85561 -22.63323,19.67942 -4.43574,-13.15968 17.33202,-55.5149 17.24578,-23.5007 21.58615,2.05493 20.99443,46.15092 29.8971,5.27926 -5.35669,-2.94412 -7.44819,-21.55967 0.7501,-16.28471 4.53892,6.63577 12.12142,33.2485 -8.75,41.18318 z M 306.45925,286.35169 c 12.54002,-25.94888 29.27765,-55.46278 9.09015,-10.54618 -1.34033,3.21125 -3.43512,12.67691 -9.09015,10.54618 z m -65.83984,11.68428 c -0.18368,-25.58728 35.90301,-53.22453 3.82327,-13.69649 -3.90863,0.80463 -1.40049,24.64622 -3.82327,13.69649 z m 275.44387,-76.08882 c -4.79439,-14.92061 19.13428,2.55971 0,0 z m -236.31579,50.7686 c 15.11261,-20.62208 -9.93271,19.75026 0,0 z m 14.30594,-9.48438 c -0.0422,-10.57384 31.62546,-30.51659 6.7116,-15.08964 10.21856,-23.28545 39.85722,-62.87072 56.36717,-59.71389 -26.59804,14.37119 -43.17069,42.42792 -26.55896,37.53354 -12.07995,13.95002 -29.26634,26.49442 -36.51981,37.26999 z m 240.89385,-81.65908 c -31.38945,1.48355 20.63865,-12.06609 0.88437,-24.25792 17.28007,0.9064 -6.26771,27.75883 -0.88437,24.25792 z m -278.31018,81.5117 c 5.53819,-12.63542 4.85063,-2.23675 0,0 z m 244.06013,-87.7459 c -23.20469,-4.76893 -66.09484,10.07078 -15.4035,-5.65097 15.32354,3.43173 57.67016,-14.05636 28.68969,7.08526 l -5.15339,0.28877 z m -246.3381,64.62302 c -9.81704,-13.32004 3.33878,-10.15056 0,0 z m 94.27797,-32.53278 c 5.8257,-19.2635 72.95431,-59.26352 21.95814,-32.36244 -24.03714,16.39511 -44.24581,7.93365 -60.30341,5.99021 25.17564,-13.33663 30.19912,24.76808 46.02204,-17.82325 41.76756,-51.70576 -54.90127,16.41997 -8.29023,-26.06962 26.53629,-33.75564 -68.28721,5.14871 -7.62051,-18.23248 33.56684,-9.09369 -3.74744,36.3168 29.33618,19.06206 -17.67204,34.06774 6.47897,39.25458 12.28845,8.25658 -14.42262,7.69131 25.99117,-10.12971 16.79498,-19.30395 -17.76584,40.65885 29.70753,24.1156 29.97719,28.10505 -29.70996,6.78877 -61.70162,32.89586 -80.16283,52.37784 z m -95.94847,20.65298 c 8.3223,-30.77006 17.6655,-46.43165 0,0 z m 274.52222,-70.77488 c -18.26235,-4.15076 18.8545,0.26318 0,0 z m -11.5241,-2.04749 c -33.26298,-8.91589 13.83287,-1.23628 0,0 z M 456.39221,146.637 c -45.93968,-8.68366 15.3885,-2.7579 0,0 z m 10.5,-1.54394 c 2.65253,-4.52251 4.98856,2.37813 0,0 z m -190.93779,41.95848 c -19.5062,-15.86475 41.37618,-59.64576 3.1185,-23.79228 -16.40497,8.70508 12.53116,36.28967 -3.1185,23.79228 z M 430.89221,145.1282 c 7.37835,-5.5694 5.9061,2.11964 0,0 z M 295.3871,178.23507 c -5.52032,-18.60185 10.26716,-0.59484 0,0 z m 74.44275,-45.74404 c 23.07863,-47.58185 -74.76305,-12.53279 -10.6364,-36.441561 14.2645,-3.761497 38.41611,31.493351 10.6364,36.441561 z m 19.99185,-8.48057 c -12.88641,-25.092232 13.96862,-7.99133 0,0 z M 313.8136,83.555216 c -11.3838,-14.26438 15.77098,9.12306 0,0 z M 471.83122,300.17306 c 7.6466,-5.13855 -6.43482,-4.28252 0,0 z m 1.10643,-11.84462 c -29.87898,15.04491 27.81148,-19.66891 0,0 z"
         fill="#181913"
         id="path4271"
         sodipodi:nodetypes="cccccccccccccccccccccccccccccccsccccccccccccccccccccccccccccccccccccccccccccccccccccccccccccccccccccccccccccccccccccccccccccccccccccccccccccccccccccccccccccccccccccccccccccc" />
      <path
         d="m 310.44728,190.07478 c -12.9575,-11.73755 -25.91501,-23.47511 -27.08809,-33.67404 -1.17309,-10.19894 9.44168,-18.86208 20.05473,-27.52381 4.39997,-0.76857 8.79796,-1.53679 12.79862,-3.7945 4.00066,-2.25771 7.60339,-6.0077 11.20444,-9.75595 -4.34212,2.8281 -8.6863,5.65753 -12.24956,7.09236 -3.56327,1.43483 -6.34615,1.47768 -9.13083,1.52055 4.79951,-5.70962 9.59741,-11.41731 9.59286,-15.38237 -0.005,-3.96506 -4.81387,-6.18322 -10.69927,-4.87283 -5.8854,1.3104 -12.84517,6.1475 -17.01565,12.25273 -4.17047,6.10523 -5.55267,13.47542 -6.9353,20.84785 5.07454,-6.37479 10.14752,-12.74762 14.82174,-16.94472 4.67422,-4.19711 8.94848,-6.21548 5.02432,-0.64545 -3.92416,5.57002 -16.04672,18.72708 -20.65,28.34333 -4.60329,9.61625 -1.6897,15.69134 1.22436,21.7674 -2.78636,0.94211 -5.57482,1.88493 -8.1722,1.82898 -2.59738,-0.0559 -5.00628,-1.10856 -7.41598,-2.16151 3.44832,2.72219 6.8965,5.44428 9.3998,6.34818 2.50329,0.90389 4.0655,-0.013 5.62568,-0.92868 5.06825,6.41595 10.13675,12.83222 15.07071,15.44605 4.93396,2.61383 9.73776,1.42489 14.53962,0.23643 z"
         fill="#59481f"
         id="path4273"
         style="fill:#e1c07e;fill-opacity:1" />
      <path
         d="m 395.44194,170.33885 c 19.15104,-6.00886 38.30298,-12.018 55.46893,-20.71139 17.16594,-8.69339 32.34618,-20.07047 47.52717,-31.44811 1.06118,-2.78822 2.12228,-5.57626 4.48209,-8.49662 2.35981,-2.92036 6.01726,-5.97193 9.67517,-9.02387 -2.67165,3.40608 -5.34316,6.81199 -6.57912,9.26398 -1.23596,2.45198 -1.03631,3.94803 -0.83655,5.44491 6.10483,0.0988 12.21087,0.19762 15.14407,4.46708 2.93321,4.26946 2.69601,12.70867 6.14835,14.95276 3.45233,2.2441 10.59263,-1.70557 17.7337,-5.65568 -8.0649,5.00537 -16.12924,10.01039 -20.71122,9.10355 -4.58198,-0.90684 -5.68058,-7.7268 -9.00094,-11.56197 -3.32035,-3.83518 -8.86333,-4.68477 -19.2696,0.50607 -10.40627,5.19084 -25.67432,16.42221 -43.11494,24.62229 -17.44062,8.20009 -37.05414,13.36862 -56.66711,18.537 z"
         fill="#59481f"
         id="path4275"
         style="fill:#e1c07e;fill-opacity:1" />
      <path
         d="m 528.90438,178.21591 c -5.26763,10.02386 -10.53503,20.0473 -9.98475,27.73478 0.55028,7.68747 6.91536,13.03535 13.28211,18.38462 0,0 -2.9837,-7.92835 -2.9837,-7.92835 -3.31445,-3.31078 -6.62755,-6.62021 -6.68044,-12.98622 -0.0529,-6.36601 3.15689,-15.78526 6.36678,-25.20483 z"
         fill="#59481f"
         id="path4277"
         style="fill:#e1c07e;fill-opacity:1" />
      <path
         d="m 545.86967,207.30768 c 3.66653,5.17312 7.3343,10.34798 7.97664,17.05009 0.64234,6.70211 -1.73761,14.93261 -4.11789,23.16429 3.26738,1.73697 6.5366,3.47492 7.28951,5.99207 0.75291,2.51716 -1.00613,5.81423 -2.76551,9.11193 -0.0296,-3.34804 -0.0591,-6.69453 -1.23365,-8.55799 -1.17453,-1.86346 -3.49738,-2.24134 -5.81854,-2.61894 -2.95691,3.54944 -5.91394,7.09903 -6.81542,10.599 -0.90148,3.49998 0.25108,6.94682 1.40427,10.39557 -2.52816,-4.29205 -5.05526,-8.5823 -4.27966,-13.45418 0.77561,-4.87188 4.85606,-10.32179 7.46554,-16.57065 2.60948,-6.24886 3.74786,-13.29725 3.57122,-17.72758 -0.17663,-4.43032 -1.67119,-6.24441 -3.16441,-8.05688 0,0 0.48787,-9.32673 0.48787,-9.32673 z"
         fill="#59481f"
         id="path4279"
         style="fill:#e1c07e;fill-opacity:1" />
      <path
         d="m 285.81603,131.92678 c -20.5624,10.09965 -41.12918,20.20146 -48.58668,28.08151 -7.4575,7.88006 -1.81422,13.54293 8.46571,8.49496 10.27992,-5.04796 25.20197,-20.81383 40.12097,-36.57647 z"
         fill="#84692c"
         id="path4281"
         style="fill:#181913;fill-opacity:1" />
      <path
         d="m 310.62349,249.09471 c -1.67926,12.07131 -3.3587,24.14395 -9.35099,31.55037 -5.99229,7.40641 -16.29846,10.14943 -22.58585,16.11439 -6.28739,5.96497 -8.55405,15.14893 -10.82103,24.3342 -2.62383,0.965 -5.24678,1.92968 -6.71139,3.91863 -1.46461,1.98896 -1.76883,4.99862 -2.0732,8.00975 1.26993,-1.89425 2.53963,-3.78814 4.03608,-4.78462 1.49646,-0.99649 3.21618,-1.09468 4.93741,-1.19296 0.4408,5.35211 0.88175,10.70593 -1.33814,15.87855 -2.21989,5.17262 -7.10011,10.16724 -10.49493,10.49874 -3.39482,0.33149 -5.30577,-4.00385 -7.21592,-8.33737 0.8921,5.99545 1.78447,11.99267 5.57333,12.46074 3.78886,0.46806 10.47424,-4.58909 13.77491,-8.91728 3.30067,-4.32819 3.21668,-7.93056 3.13273,-11.5314 1.71072,0.87563 3.42333,1.75223 4.29876,3.6915 0.87542,1.93926 0.91739,4.93979 0.95938,7.94198 0.41982,-4.43181 0.83951,-8.86219 0.0691,-11.55638 -0.7704,-2.69419 -2.733,-3.65024 -2.3982,-9.70376 0.33479,-6.05353 2.96906,-17.2043 8.87842,-25.28685 5.90936,-8.08256 15.09258,-13.09504 20.19297,-21.43074 5.10039,-8.33569 6.11854,-19.99719 7.13658,-31.65749 z"
         fill="#59481f"
         id="path4283"
         style="fill:#e1c07e;fill-opacity:1" />
      <path
         d="m 284.73133,129.93335 c -18.15989,13.30537 -36.32349,26.61345 -41.44852,35.14319 -5.12503,8.52974 2.78198,12.28699 11.86148,5.6364 9.07949,-6.6506 19.33434,-23.71689 29.58704,-40.77959 z"
         fill="#ab3025"
         id="path4285"
         style="fill:#825124;fill-opacity:1" />
      <path
         d="m 284.73133,129.93335 c -12.3435,16.35016 -24.68938,32.70347 -25.73832,41.11771 -1.04894,8.41423 9.19525,8.89572 15.36747,0.72244 6.17222,-8.17328 8.27176,-25.00848 10.37085,-41.84015 z"
         fill="#ab3025"
         id="path4287"
         style="fill:#825124;fill-opacity:1" />
      <path
         d="m 590.83814,1161.1831 c -4.07008,-5.5997 -8.14105,-11.2006 -8.5462,-14.6906 -0.40513,-3.49 2.85355,-4.8713 4.88848,-2.0721 2.03493,2.7992 2.84641,9.7817 3.65772,16.7627 z"
         fill="#84692c"
         id="path4289"
         style="fill:#181913;fill-opacity:1;stroke-width:1.16738" />
      <path
         d="m 589.98199,1161.7617 c -2.48095,-6.4629 -4.96241,-12.9271 -4.44987,-16.4029 0.51252,-3.4758 4.0177,-3.9659 5.25824,-0.7352 1.24055,3.2307 0.21599,10.185 -0.80837,17.1381 z"
         fill="#af8c3b"
         id="path4291"
         style="fill:#825124;stroke-width:1.16738;fill-opacity:1" />
      <path
         d="m 589.98199,1161.7617 c 0.16884,-6.9206 0.33771,-13.8425 2.13603,-16.8608 1.79832,-3.0185 5.22591,-2.136 5.14175,1.3237 -0.0842,3.4597 -3.6813,9.4989 -7.27778,15.5371 z"
         fill="#af8c3b"
         id="path4293"
         style="fill:#825124;stroke-width:1.16738;fill-opacity:1" />
      <path
         d="m 647.70831,1139.4514 c -0.33285,-11.5847 -0.66579,-23.172 2.07232,-28.3776 2.73814,-5.2055 8.54684,-4.0348 8.71369,1.7564 0.16673,5.7913 -5.31012,16.2073 -10.78601,26.6212 z"
         fill="#84692c"
         id="path4295"
         style="fill:#181913;fill-opacity:1;stroke-width:2.16262" />
      <path
         d="m 645.97836,1139.4421 c 2.67888,-11.2757 5.35828,-22.5535 9.35112,-26.8727 3.99284,-4.3192 9.30005,-1.684 7.96156,3.9529 -1.33848,5.6368 -9.32646,14.2793 -17.31268,22.9198 z"
         fill="#af8c3b"
         id="path4297"
         style="fill:#825124;stroke-width:2.16262;fill-opacity:1" />
      <path
         d="m 645.97836,1139.4421 c 6.7733,-9.4044 13.54785,-18.8104 18.8854,-21.2823 5.33758,-2.4717 9.24052,1.987 5.85477,6.6885 -3.38577,4.7016 -14.06402,9.6481 -24.74017,14.5938 z"
         fill="#af8c3b"
         id="path4299"
         style="fill:#825124;stroke-width:2.16262;fill-opacity:1" />
      <g
         fill="#59481f"
         id="g4323">
        <path
           d="m 330.11025,199.29654 c 0.14479,11.74444 0.28961,23.49052 6.19432,29.63652 5.90471,6.14601 17.56553,6.69503 29.22827,7.24414 0,0 -3.19866,-5.88344 -3.19866,-5.88344 -9.28019,-1.10944 -18.5586,-2.21867 -23.19301,-6.49893 -4.63441,-4.28025 -4.62124,-11.73404 -4.60807,-19.18636 0,0 -4.42283,-5.31193 -4.42283,-5.31193 z"
           id="path4301"
           style="fill:#e1c07e;fill-opacity:1" />
        <path
           d="m 335.00434,1317.0753 c 0.6755,-0.7931 3.07775,-1.3214 6.58757,-3.7895 3.50982,-2.4681 7.90565,-6.664 12.41261,-10.966 0,0 5.12722,1.3359 5.12722,1.3359 -4.76467,5.0497 -9.52935,10.0993 -13.31261,12.8201 -3.78326,2.7208 -6.58668,3.1129 -9.38932,3.5049 -1.05099,-1.0567 -2.10097,-2.1123 -1.42547,-2.9054 z"
           fill-opacity="0.968627"
           id="path4303"
           style="fill:#e1c07e;fill-opacity:1" />
        <path
           d="m 382.58269,1274.6154 c 3.02785,-0.5326 6.05651,-1.0653 8.27817,-2.222 2.22166,-1.1567 3.63807,-2.9377 5.05441,-4.7187 -0.89084,-1.1888 -1.78083,-2.3764 -1.59867,-4.309 0.18215,-1.9327 1.43851,-4.6088 2.69469,-7.2845 -0.14514,2.4883 -0.29033,4.9775 0.16067,6.2617 0.451,1.2842 1.49589,1.365 2.54188,1.446 1.57649,-3.7665 3.15277,-7.5325 5.29004,-10.2384 2.13728,-2.7059 4.83476,-4.3505 6.97658,-6.3699 2.14181,-2.0194 3.72829,-4.4139 2.61522,-7.8753 -1.11307,-3.4615 -4.92748,-7.9916 -8.74107,-12.5208 1.56148,0.038 3.12399,0.077 5.43865,1.8626 2.31465,1.7858 5.38155,5.3168 8.44943,8.8489 1.19613,-0.213 2.39306,-0.4262 3.11328,-1.3077 0.72023,-0.8816 0.96557,-2.4332 1.2108,-3.9841 0.14013,2.8078 0.28032,5.6166 -0.58012,7.167 -0.86044,1.5503 -2.72297,1.8444 -4.58472,2.1384 -1.40133,3.2509 -2.80284,6.5023 -4.89458,8.9391 -2.09174,2.4369 -4.8743,4.0602 -7.25182,7.2071 -2.37753,3.1469 -4.34937,7.8166 -7.77233,11.3441 -3.42297,3.5276 -8.29786,5.9137 -13.17245,8.2997 0,0 -3.22806,-2.6842 -3.22806,-2.6842 z"
           fill-opacity="0.968627"
           id="path4305"
           style="fill:#e1c07e;fill-opacity:1" />
        <path
           d="m 363.3079,1305.4828 c -0.69916,-0.3683 -0.12048,-0.489 2.99151,-0.9943 3.11198,-0.5053 8.7555,-1.3949 14.40048,-2.2847 0,0 7.55422,2.0351 7.55422,2.0351 -6.76496,0.9473 -13.52853,1.8944 -17.89936,2.0608 -4.37082,0.1665 -6.34769,-0.4486 -7.04685,-0.8169 z"
           fill-opacity="0.968627"
           id="path4307"
           style="fill:#e1c07e;fill-opacity:1" />
        <path
           d="m 419.35899,1296.9422 c 0.6749,0.041 1.35081,0.081 12.60953,2.6262 11.25873,2.5448 33.09957,7.5931 48.39583,4.4593 15.29626,-3.1339 24.04931,-14.4494 32.8024,-25.765 -1.50131,-1.8879 -3.00148,-3.7743 -2.40287,-6.0557 0.59861,-2.2815 3.29816,-4.955 5.99777,-7.6285 -1.1983,2.8611 -2.39689,5.7229 -2.41662,7.6346 -0.0197,1.9116 1.1357,2.8719 2.29269,3.8335 8.82632,-13.921 17.65246,-27.8418 21.93831,-38.6744 4.28586,-10.8327 4.03101,-18.5788 3.7762,-26.3239 0,0 3.61555,-3.7113 3.61555,-3.7113 -0.44076,10.2427 -0.88158,20.4867 -2.66538,28.2049 -1.78381,7.7182 -4.91029,12.9126 -5.56362,15.6712 -0.65332,2.7585 1.16474,3.081 2.90291,2.4388 1.73817,-0.6422 3.39781,-2.2486 5.05753,-3.8551 -2.11425,3.2246 -4.22874,6.4496 -6.1251,7.5434 -1.89636,1.0938 -3.57837,0.055 -5.25874,-0.9826 -4.09075,6.3555 -8.18173,12.7113 -15.33367,21.5468 -7.15195,8.8355 -17.3648,20.1508 -27.95124,25.9951 -10.58644,5.8443 -21.5489,6.2173 -32.51004,6.5903 1.06057,1.4247 2.12152,2.85 3.86784,3.3099 1.74631,0.4598 4.17592,-0.044 6.60694,-0.5482 -3.14037,1.1315 -6.27962,2.2626 -8.74542,1.7442 -2.4658,-0.5184 -4.25682,-2.6883 -6.04738,-4.8576 0,0 -30.09916,-8.8769 -30.09916,-8.8769 0,0 -4.74426,-4.32 -4.74426,-4.32 z"
           fill-opacity="0.968627"
           id="path4309"
           style="fill:#e1c07e;fill-opacity:1" />
        <path
           d="m 420.9941,1243.5102 c 1.34126,1.9557 2.68335,3.9125 4.90817,5.6165 2.22483,1.704 5.33266,3.1569 7.90989,3.6401 2.57722,0.4833 4.62337,0 6.6703,-0.488 0,0 -4.09886,-1.1504 -4.09886,-1.1504 -1.29121,0.072 -2.58149,0.1448 -4.18789,-0.2767 -1.6064,-0.4215 -3.52816,-1.3376 -5.03978,-2.5026 -1.51161,-1.1651 -2.61349,-2.5807 -3.71453,-3.9953 0,0 -2.4473,-0.8436 -2.4473,-0.8436 z"
           fill-opacity="0.968627"
           id="path4311"
           style="fill:#e1c07e;fill-opacity:1" />
        <path
           d="m 458.18324,1250.9443 c 15.42929,-8.7779 46.6485,-25.2326 65.00505,-36.0652 18.35655,-10.8327 23.83144,-16.033 31.24912,-19.287 7.41768,-3.2541 16.77662,-4.5615 23.15654,-8.274 6.37992,-3.7125 9.78217,-9.8309 13.18424,-15.949 0,0 -2.4689,6.2002 -2.4689,6.2002 -2.71683,4.5203 -5.4339,9.041 -11.41976,12.6699 -5.98586,3.6289 -15.24151,6.3669 -38.00982,18.1584 -22.76831,11.7915 -59.04778,32.636 -95.32748,53.4806 -0.39943,-1.0788 -0.79828,-2.156 14.63101,-10.9339 z"
           fill-opacity="0.968627"
           id="path4313"
           style="fill:#e1c07e;fill-opacity:1" />
        <path
           d="m 544.92833,1196.6977 c 1.61063,-3.3331 5.81845,-9.8059 11.95207,-12.3827 6.13362,-2.5768 14.18943,-1.2579 22.24697,0.061 -1.1432,1.1199 -2.28633,2.2397 -6.04929,2.2486 -3.76296,0.01 -10.14687,-1.0933 -15.21646,1.0204 -5.0696,2.1137 -8.8226,7.4427 -12.57588,12.7722 -0.98481,-0.1935 -1.96804,-0.3866 -0.35741,-3.7198 z"
           fill-opacity="0.968627"
           id="path4315"
           style="fill:#e1c07e;fill-opacity:1" />
        <path
           d="m 587.28466,1181.9667 c 1.72864,-1.8982 4.37321,-4.5336 5.25604,-7.4609 0.88283,-2.9272 0.003,-6.1493 -0.87602,-9.3699 0,0 1.36278,-3.0107 1.36278,-3.0107 0.90359,4.5261 1.8075,9.0537 0.29123,13.0632 -1.51627,4.0094 -5.45202,7.5037 -9.38781,10.9981 0.81264,-1.1609 1.62514,-2.3215 3.35378,-4.2198 z"
           fill-opacity="0.968627"
           id="path4317"
           style="fill:#e1c07e;fill-opacity:1" />
        <path
           d="m 556.96182,1226.2203 c 5.23763,-0.6851 15.71089,-2.0549 22.31262,-4.7861 6.60174,-2.7312 9.3346,-6.8251 12.06715,-10.9185 0.82833,-3.7124 1.65626,-7.4229 4.17124,-9.345 2.51497,-1.922 6.71141,-2.0518 10.91023,-2.1816 -3.40856,1.7266 -6.81622,3.4528 -8.78295,5.8371 -1.96672,2.3843 -2.49006,5.4221 -3.01373,8.4617 5.408,-0.4378 10.8182,-0.8757 19.25303,-6.0067 8.43484,-5.1311 19.898,-14.9549 24.57311,-24.417 4.67511,-9.462 2.56142,-18.5647 3.35123,-26.5945 0.7898,-8.0298 4.48427,-14.9851 8.17846,-21.9399 -1.10446,9.6134 -2.20914,19.2288 -3.95639,28.2584 -1.74724,9.0297 -4.13697,17.4757 -4.41649,21.6618 -0.27951,4.186 1.54861,4.1133 3.44222,3.1367 1.89361,-0.9767 3.8548,-2.857 5.81616,-4.7375 -2.18986,3.8988 -4.38015,7.7984 -6.43981,9.2821 -2.05966,1.4836 -3.99534,0.55 -5.92812,-0.3822 -6.19828,6.1442 -12.39662,12.2884 -21.03167,17.2246 -8.63505,4.9362 -19.70789,8.6648 -28.11048,11.7896 -8.40259,3.1248 -14.1353,5.6461 -19.86701,8.1669 1.2187,1.6778 2.43939,3.3584 4.00521,3.7986 1.56583,0.4401 3.47836,-0.3537 5.3921,-1.148 -3.22765,1.1996 -6.45399,2.3988 -8.79105,2.1368 -2.33706,-0.262 -3.7842,-1.9884 -7.08337,-2.5085 -3.29918,-0.5202 -8.45204,0.169 -13.60297,0.858 0.77122,-1.6536 1.5419,-3.3061 1.92778,-4.1334 0.38587,-0.8274 0.38587,-0.8284 5.6235,-1.5134 z"
           fill-opacity="0.968627"
           id="path4319"
           style="fill:#e1c07e;fill-opacity:1" />
        <path
           d="m 635.32714,1153.7024 c -3.81555,-5.1386 -11.15071,-13.5714 -13.15177,-23.644 -2.00107,-10.0727 1.33359,-21.7841 7.2993,-29.5335 5.96571,-7.7494 14.56008,-11.5343 23.15541,-15.3196 -8.98473,1.6576 -17.96809,3.3149 -23.89153,9.1445 -5.92344,5.8295 -8.78345,15.828 -11.64385,25.8279 -2.4639,-0.428 -4.9258,-0.8556 -5.82964,-2.9829 -0.90383,-2.1272 -0.24516,-5.9561 0.41329,-9.7837 -1.21071,4.9608 -2.42175,9.9229 -1.48594,12.7977 0.9358,2.8747 4.01358,3.6638 7.09346,4.4534 2.27273,8.1855 4.54606,16.3732 8.28863,22.684 3.74258,6.3107 8.95158,10.7454 14.16259,15.1818 -0.29736,-1.8445 -0.5944,-3.687 -4.40995,-8.8256 z"
           fill-opacity="0.968627"
           id="path4321"
           style="fill:#e1c07e;fill-opacity:1" />
      </g>
    </g>
    <g
       id="g4379"
       transform="matrix(0.26458333,0,0,0.26458333,-54.478502,-990.05447)">
      <g
         fill="#181913"
         transform="matrix(3.2748053,0,0,3.2748053,-1065.5428,1364.8044)"
         id="g4339">
        <path
           d="m 466.51521,96.278096 c -4.81429,0.01416 -9.62758,0.02831 -12.79865,-2.98422 -3.17107,-3.01253 -4.69816,-9.052686 -5.95676,-14.019729 -1.2586,-4.967042 -2.24863,-8.860691 1.03981,-13.819599 3.28845,-4.958909 10.85514,-10.981379 18.42211,-17.004068 -4.07733,0.110244 -8.15368,0.220462 -11.83245,2.796808 -3.67878,2.576346 -6.95773,7.618315 -10.71996,11.200197 -3.76222,3.581882 -8.00805,5.703939 -10.12112,9.340298 -2.11307,3.636359 -2.09291,8.784565 -2.07274,13.933879 2.82646,-3.185505 5.65286,-6.370947 7.01296,-8.924967 1.36009,-2.55402 1.25371,-4.477468 1.89786,-3.93429 0.64414,0.543178 2.03826,3.552748 2.10096,9.321174 0.0627,5.768426 -1.2053,14.295679 -3.13441,20.951691 -1.92912,6.65602 -4.58505,11.56265 -7.20818,16.40868 0,0 33.37059,-23.265852 33.37059,-23.265852 0,0 -2e-5,-2e-6 -2e-5,-2e-6 z"
           id="path4335" />
        <path
           d="m 565.56014,62.18813 c -8.81097,3.26658 -17.62139,6.532954 -23.72793,8.049702 -6.10655,1.516748 -9.51011,1.283322 -12.91267,1.049964 -0.0172,-2.889089 -0.0343,-5.777173 -1.19374,-9.330896 -1.15942,-3.553722 -3.46229,-7.773285 -5.76455,-11.991741 3.20996,-4.632409 6.41977,-9.264615 9.92969,-12.45313 3.50993,-3.188516 7.31908,-4.93266 10.18771,-9.209303 2.86862,-4.276643 4.79741,-11.087014 6.72604,-17.896857 -4.94598,2.284247 -9.89153,4.56829 -12.51705,8.186812 -2.62553,3.618522 -2.93003,8.569048 -3.2346,13.520608 0,0 -11.06347,14.015622 -11.06347,14.015622 -1.64123,-1.949653 -3.28155,-3.89823 -6.96689,-5.038036 -3.68534,-1.139805 -9.28303,-1.461175 -12.46513,-1.078642 -3.18211,0.382532 -3.90934,1.516013 -4.62271,2.627894 -3.56814,-0.04719 -7.13527,-0.09436 -9.77789,1.291581 -2.64261,1.38594 -4.35827,4.204337 -6.07414,7.023076 4.80657,0.907693 9.61429,1.815603 12.34573,0.761009 2.73144,-1.054593 3.38919,-4.07263 4.0468,-7.08998 0.89911,-1.150917 1.79812,-2.3017 4.74337,-2.855558 2.94525,-0.553859 7.93532,-0.510534 11.42064,2.101958 3.48531,2.612492 5.43792,7.718646 6.99668,13.103066 1.55877,5.384419 2.70942,11.008617 3.86034,16.634083 -8.14693,1.953514 -16.29315,3.906856 -24.83234,6.591131 -8.53918,2.684275 -17.47008,6.099208 -24.66407,9.69466 -7.19399,3.595453 -12.65033,7.371137 -18.3411,11.595027 -5.69077,4.22388 -11.61554,8.89567 -18.9675,11.55635 -7.35196,2.66069 -16.13144,3.31013 -23.2532,4.7838 -7.12176,1.47367 -12.58496,3.7716 -18.54079,4.16863 -5.95583,0.39704 -12.34352,-1.09304 -18.76129,-2.59013 1.53141,0.90126 3.064,1.80321 3.09189,2.38233 0.0279,0.57911 -1.44729,0.83692 0.91271,1.81243 2.36001,0.9755 8.55458,2.66817 12.13473,4.29289 3.58015,1.62472 4.54616,3.18055 2.6787,4.17256 -1.86747,0.992 -6.56842,1.42139 -9.08786,2.18939 -2.51944,0.76801 -2.85617,1.87387 -3.39436,2.66536 -0.53819,0.7915 -1.16676,1.19741 -1.85096,1.63925 2.98732,-0.59369 5.97541,-1.18753 6.66768,0.32131 0.69227,1.50884 -0.90258,5.10386 -3.54519,8.98692 -2.64261,3.88306 -6.32951,8.04653 -8.39522,11.98982 -2.06571,3.94328 -2.51001,7.66448 -2.95442,11.38662 1.0441,-2.85048 2.088,-5.7004 4.87135,-9.28916 2.78334,-3.58875 7.29159,-7.90169 11.30689,-12.55399 4.01529,-4.65229 7.5306,-9.63721 11.66024,-12.10215 4.12964,-2.46493 8.8722,-2.40959 15.30216,-0.90561 6.42995,1.50398 14.54669,4.45607 20.99782,3.81426 6.45113,-0.64181 11.23745,-4.87691 16.97838,-8.38017 5.74093,-3.50326 12.43567,-6.27432 18.52417,-7.00331 6.0885,-0.72899 11.56972,0.58362 16.4627,-0.34275 4.89298,-0.92637 9.19843,-4.09122 16.85775,-4.56093 7.65931,-0.4697 18.43269,1.70721 22.13142,5.28718 3.69872,3.57997 0.20486,8.53873 -0.58091,12.77761 -0.78577,4.23888 1.07354,7.64276 1.66725,11.24034 0.59371,3.59757 -0.10849,7.33208 0.68322,7.79951 0.79171,0.46742 3.0772,-2.33153 2.82774,-5.93549 -0.24945,-3.60397 -3.09136,-8.10362 -2.78483,-12.64971 0.30652,-4.54609 3.7339,-9.18227 6.25958,-11.0605 2.52569,-1.87823 4.12633,-1.01081 4.38461,2.641 0.25827,3.65182 -0.85287,10.18424 -0.63982,15.18214 0.21306,4.99791 1.74799,8.52824 0.008,12.3715 -1.73954,3.84326 -6.72097,7.98505 -8.59973,12.39572 -1.87876,4.41067 -0.64078,9.07688 0.32322,13.83166 0.964,4.75478 1.63281,9.44824 0.29942,12.17819 -1.33339,2.72996 -4.68012,3.42272 -5.87286,5.54794 -1.19274,2.12522 -0.23905,5.65167 0.71883,9.19365 3.15719,-5.31618 6.31421,-10.63206 8.89402,-15.32323 2.57981,-4.69116 4.58219,-8.75725 4.43053,-12.88421 -0.15166,-4.12695 -2.45817,-8.31529 -1.64001,-12.57662 0.81815,-4.26132 4.76156,-8.59422 6.71854,-11.45818 1.95697,-2.86395 1.92737,-4.25978 2.82959,-4.90843 0.90222,-0.64864 2.73516,-0.54912 4.16413,1.35545 1.42896,1.90457 2.4546,5.61291 4.03854,8.30882 1.58394,2.6959 3.7253,4.37957 5.22521,2.46351 1.49992,-1.91606 2.35955,-7.4316 -0.0612,-11.80887 -2.42077,-4.37726 -8.06272,-7.58161 -10.59062,-11.28441 -2.52791,-3.7028 -1.91021,-7.88685 -1.82659,-11.01838 0.0836,-3.13153 -0.36747,-5.21184 -0.81831,-7.29104 43.29332,-8.06952 86.58782,-16.13925 105.96515,-27.248746 19.37733,-11.109493 14.83943,-25.260521 10.30174,-39.41088 0,0 -100.2514,4.548706 -100.2514,4.548706 z"
           id="path4337" />
      </g>
      <g
         transform="matrix(3.1166059,0,0,3.1166059,-988.98051,1382.4518)"
         id="g4377">
        <path
           d="m 545.47356,71.034146 c -2.18853,-1.93118 -6.50843,-0.272054 -9.84146,0.434665 -3.33302,0.70672 -5.68072,0.460605 -8.02738,0.214601 4.5619,-4.473753 9.12381,-8.947515 14.1286,-15.750433 5.00478,-6.802918 10.45243,-15.934942 17.50091,-23.320164 7.04848,-7.385222 15.69692,-13.022774 25.43368,-16.950051 9.73677,-3.927276 20.56075,-6.144076 30.73457,-6.1436393 10.17382,4.368e-4 19.69648,2.2176363 26.97686,5.3799823 7.28037,3.162346 12.31815,7.269014 16.94886,10.158974 4.63071,2.889961 8.85397,4.563479 13.18398,10.553991 4.33002,5.990512 8.76723,16.296847 12.51592,27.20708 3.74869,10.910233 6.80885,22.423725 9.29805,33.582483 2.48919,11.158755 4.41484,22.004105 2.87646,36.597845 -1.53837,14.59374 -6.53648,32.95635 -6.93529,52.68261 -0.3988,19.72627 3.80122,40.81451 6.21973,54.8394 2.41852,14.02488 3.05555,20.98578 2.18577,30.52763 -0.86977,9.54184 -3.24604,21.66433 -5.35034,30.44473 -2.1043,8.78039 -3.93647,14.21842 -5.88317,15.56547 -1.9467,1.34705 -4.00885,-1.39741 -4.89836,-8.26959 -0.88951,-6.87218 -0.60541,-17.87424 -0.31755,-26.28072 0.28787,-8.40649 0.57954,-14.21832 0.34742,-22.12536 -0.23213,-7.90703 -0.98816,-17.90887 -3.82944,-28.25311 -2.84128,-10.34424 -7.76808,-21.03039 -12.95185,-25.88405 -5.18378,-4.85366 -10.43807,-3.90689 -14.94698,-0.80036 -4.50891,3.10653 -8.17807,8.35545 -10.12895,15.94923 -1.95088,7.59378 -2.1854,17.61123 -2.55124,24.88658 -0.36584,7.27535 -0.86385,11.84838 -1.87773,17.92237 -1.01388,6.07399 -2.53802,13.62147 -1.75684,22.48735 0.78117,8.86588 3.86978,19.03559 4.41542,25.50735 0.54563,6.47176 -1.45122,9.24628 -4.16978,6.85037 -2.71856,-2.3959 -6.15935,-9.96299 -9.23165,-19.8296 -3.0723,-9.86661 -5.76972,-22.00542 -6.85985,-33.82621 -1.09012,-11.82079 -0.57451,-23.20218 0.45577,-35.57468 1.03028,-12.37251 2.57279,-25.68172 3.98392,-38.99572 1.41114,-13.314 2.69082,-26.63202 2.97434,-42.91951 0.28352,-16.28749 -0.42923,-35.54356 -2.74207,-47.73842 -2.31283,-12.194849 -6.22639,-17.327985 -9.81204,-15.96938 -3.58566,1.358605 -6.84214,9.209348 -12.38612,13.048818 -5.54398,3.839472 -13.37731,3.667972 -21.20978,3.496492 1.35142,5.70538 2.70312,11.41192 2.71248,15.86554 0.009,4.45362 -1.32281,7.65602 -4.24725,10.80811 -2.92444,3.15208 -7.44138,6.25433 -11.60877,7.16608 -4.16739,0.91176 -7.98599,-0.36751 -10.34766,-2.19723 -2.36168,-1.82972 -3.27273,-4.22944 -1.04587,-6.89075 2.22686,-2.6613 7.58761,-5.59186 12.94882,-8.52268 -1.37266,-2.88714 -2.74474,-5.77308 -6.17473,-11.26742 -3.42999,-5.49434 -8.91729,-13.595491 -11.69024,-20.40641 -2.77294,-6.81092 -2.83063,-12.331083 -5.01917,-14.262264 z"
           fill="#45494b"
           id="path4341" />
        <path
           d="m 656.43308,171.89427 c -8.21003,0.67883 -9.48773,-14.57584 -5.01456,-25.16253 4.47316,-10.58668 14.69656,-16.50389 22.60749,-19.79967 7.91094,-3.29579 13.50843,-3.97008 15.32844,-11.41766 1.82002,-7.44757 -0.13676,-21.66906 0.35477,-23.330126 0.49154,-1.661065 3.45673,9.332936 4.73503,19.048706 1.2783,9.71577 0.88048,18.25077 -6.88924,30.81113 -7.76973,12.56036 -22.91191,29.17132 -31.12193,29.85015 z"
           fill="#181913"
           id="path4343" />
        <path
           d="m 595.64014,99.223074 c 3.64639,-1.727639 7.29321,-3.45548 10.38888,-6.895781 3.09566,-3.440301 5.64667,-8.604894 8.19486,-13.763773 3.87757,4.652046 7.75605,9.305175 10.92241,15.683394 3.16636,6.378216 5.62195,14.482176 6.25517,29.448666 0.63322,14.96649 -0.55551,36.79473 -1.75953,52.18507 -1.20402,15.39033 -2.4232,24.34207 -2.97725,33.54377 -0.55405,9.20169 -0.44307,18.65263 -1.38031,29.73194 -0.93724,11.07932 -2.93434,23.86231 -4.92561,36.60806 0,0 -0.28246,-24.99868 -0.28246,-24.99868 0,0 -1.8234,-26.13696 -1.8234,-26.13696 0,0 0.0469,-45.28803 0.0469,-45.28803 0,0 1.32818,-31.82711 1.32818,-31.82711 0,0 -5.2358,-22.60675 -5.2358,-22.60675 0,0 -9.04367,-16.01753 -9.04367,-16.01753 0,0 -9.70835,-9.666286 -9.70835,-9.666286 z"
           fill="#181913"
           id="path4345" />
        <path
           d="m 655.70549,184.96705 c 0.49462,-8.27889 0.7744,-19.89528 5.78214,-29.61279 5.00773,-9.71751 14.7429,-17.53476 24.42539,-21.75335 9.6825,-4.2186 19.20344,-4.83149 27.30035,-1.76933 8.09692,3.06216 14.71556,9.80151 17.20542,22.03767 2.48987,12.23616 0.85005,29.98934 -6.11131,43.07163 -6.96136,13.0823 -19.245,21.50453 -26.79635,28.79398 -7.55136,7.28945 -10.36965,13.44512 -11.93178,19.13147 -1.56213,5.68636 -1.86817,10.90259 -2.57028,13.82397 -0.70211,2.92138 -1.86592,3.5862 -2.59247,1.9337 -0.72654,-1.65251 -1.04821,-5.6048 -1.75463,-4.54414 -0.70643,1.06065 -1.79972,7.14772 -1.09757,11.45398 0.70215,4.30625 3.35361,6.99649 2.93037,8.04634 -0.42324,1.04986 -4.35838,0.46251 -6.82814,-2.02377 -2.46975,-2.48627 -3.73085,-6.91076 -4.29233,-6.1588 -0.56148,0.75196 -0.42302,6.6804 -1.43887,10.90927 -1.01586,4.22886 -3.18586,6.75887 -4.55516,6.10748 -1.3693,-0.65138 -1.93807,-4.48509 -1.72307,-8.55699 0.215,-4.07191 1.21408,-8.38137 1.00824,-9.35461 -0.20583,-0.97325 -1.58146,1.3314 -3.03041,0.87736 -1.44895,-0.45404 -2.95431,-3.69696 -3.20942,-7.89076 -0.25511,-4.19381 0.6975,-9.11445 1.90503,-13.47552 1.20753,-4.36106 2.69791,-8.17728 3.2995,-12.0854 0.60158,-3.90812 0.33885,-7.97189 -1.08424,-13.06685 -1.42308,-5.09496 -4.11518,-11.47773 -5.07979,-17.07597 -0.96462,-5.59824 -0.25525,-10.53967 0.23938,-18.81857 z"
           fill="#45494b"
           id="path4347" />
        <g
           fill="#181913"
           id="g4365">
          <path
             d="m 654.92675,197.25789 c 0.22397,0.84532 0.80695,7.29296 3.46435,9.48932 2.6574,2.19636 7.38866,0.14281 10.44095,1.3042 3.05229,1.16139 4.42558,5.53618 2.77265,9.69495 -1.65293,4.15876 -6.33163,8.10253 -8.58066,11.46557 -2.24904,3.36304 -2.0683,6.14402 -2.15362,4.7787 -0.0853,-1.36531 -0.43666,-6.87676 -1.46165,-12.23866 -1.02498,-5.3619 -2.73228,-10.59995 -3.65157,-15.59121 -0.9193,-4.99125 -1.05441,-9.74819 -0.83045,-8.90287 z"
             id="path4349" />
          <path
             d="m 661.83347,266.54823 c 0.99279,-3.01549 1.98537,-6.03038 2.26167,-9.06549 0.2763,-3.0351 -0.16423,-6.0902 0.0759,-8.45513 0.24016,-2.36493 1.16153,-4.03912 2.08273,-5.713 -0.3967,1.81511 -0.79355,3.63097 -0.53674,5.48458 0.25682,1.85361 1.16637,3.74519 0.99245,6.07686 -0.17392,2.33166 -1.4305,5.10402 -2.42366,7.12287 -0.99315,2.01885 -1.72267,3.28391 -2.45238,4.54931 z"
             id="path4351" />
          <path
             d="m 669.59768,266.55874 c -0.19828,-1.69619 0.0885,-4.35003 0.68759,-6.21104 0.59909,-1.86101 1.51043,-2.92834 1.93371,-1.66379 0.42327,1.26454 0.3584,4.85995 0.66267,7.79549 0.30428,2.93553 0.97696,5.20964 1.65,7.48498 -1.12402,-1.41126 -2.24718,-2.82142 -3.1503,-3.89627 -0.90312,-1.07484 -1.58539,-1.81319 -1.78367,-3.50937 z"
             id="path4353" />
          <path
             d="m 679.58637,254.27443 c 0.0835,-2.08105 0.80828,-3.8823 1.08702,-2.70193 0.27874,1.18036 0.11127,5.34172 -0.25098,6.24243 -0.36224,0.9007 -0.91954,-1.45945 -0.83604,-3.5405 z"
             id="path4355" />
          <path
             d="m 676.07261,236.4155 c -0.63843,0.79833 -2.44117,3.87572 -2.69219,6.17129 -0.25103,2.29557 1.0485,3.80851 1.06539,5.21784 0.0169,1.40933 -1.24787,2.716 -2.51268,4.02271 1.33803,-0.32317 2.67679,-0.64652 3.36284,-1.91249 0.68605,-1.26597 0.72134,-3.50592 0.67343,-5.55261 -0.0479,-2.04669 -0.17884,-3.91517 0.0185,-5.58991 0.19733,-1.67474 0.72316,-3.15516 0.0847,-2.35683 z"
             id="path4357" />
          <path
             d="m 699.62915,130.44027 c 6.31971,2.47175 12.64064,4.94397 15.69899,12.66966 3.05835,7.72568 2.85658,20.70428 1.26736,32.30373 -1.58922,11.59945 -4.56558,21.81941 -9.1433,29.33187 -4.57772,7.51245 -10.75682,12.31776 -13.83517,16.68889 -3.07835,4.37113 -3.05569,8.30569 -3.03302,12.24134 4.0393,-4.95976 8.07851,-9.9194 12.14113,-14.14435 4.06263,-4.22495 8.14822,-7.71477 12.1186,-11.51903 3.97039,-3.80425 7.82543,-7.92281 10.48512,-14.54511 2.6597,-6.62231 4.12343,-15.74511 4.41198,-23.76764 0.28856,-8.02252 -0.59863,-14.94281 -2.8507,-20.94789 -2.25208,-6.00508 -5.86955,-11.09462 -10.64042,-13.9943 -4.77087,-2.89969 -10.69621,-3.60849 -16.62057,-4.31717 z"
             id="path4359" />
          <path
             d="m 596.02718,100.1522 c 6.19378,7.3649 12.38846,14.73089 16.29913,24.23524 3.91067,9.50436 5.53891,21.14767 5.47768,38.07741 -0.0612,16.92975 -1.81168,39.14502 -1.71635,55.37603 0.0953,16.23102 2.05989,26.60247 4.0127,36.91181 0.53047,-3.75778 1.06083,-7.51471 0.66362,-12.67108 -0.3972,-5.15637 -1.73795,-11.78837 -1.64734,-24.96794 0.0906,-13.17958 1.60507,-32.94407 2.05168,-46.66622 0.4466,-13.72216 -0.1748,-21.40142 -1.72826,-29.60974 -1.55345,-8.20832 -4.03909,-16.9453 -8.09625,-23.81437 -4.05717,-6.86906 -9.68736,-11.87052 -15.31661,-16.87114 z"
             id="path4361" />
          <path
             d="m 598.9612,50.335126 c 5.94056,3.268572 11.88231,6.537796 15.31926,11.501853 3.43694,4.964058 4.37125,11.62287 3.49532,15.602963 -0.87593,3.980094 -3.56272,5.282813 -6.24913,6.585354 0.96118,-3.25535 1.92217,-6.510052 1.47856,-10.415838 -0.44361,-3.905786 -2.29261,-8.462383 -4.86723,-12.449866 -2.57462,-3.987482 -5.87616,-7.406448 -9.17678,-10.824466 z"
             id="path4363" />
        </g>
        <path
           d="m 530.60833,123.08333 c 3.00928,-4.93395 6.4321,-11.83488 6.04042,-19.36875 -0.39168,-7.533873 -4.59851,-15.701132 -9.98335,-21.998134 -5.38485,-6.297003 -11.94791,-10.722991 -19.0722,-12.250318 -7.12428,-1.527326 -14.81732,-0.153554 -20.37614,2.616764 -5.55881,2.770318 -8.98637,6.937481 -10.60253,10.017254 -1.61616,3.079774 -1.42115,5.069918 -1.22603,7.061191 5.49744,-1.816585 10.99547,-3.633369 16.73767,-3.484392 5.7422,0.148977 11.72832,2.262809 14.51507,6.438186 2.78674,4.175376 2.37528,10.411499 0.0122,15.775309 -2.36311,5.3638 -6.6777,9.85588 -10.99239,14.34806 3.11953,3.80145 6.23995,7.60399 10.72022,9.55606 4.48027,1.95207 10.23123,2.05424 14.42661,0.62208 4.19539,-1.43216 6.7912,-4.39937 9.80048,-9.33331 z"
           fill="#45494b"
           id="path4367" />
        <path
           d="m 571.35544,96.396884 c 0.52593,-0.651019 3.17709,1.574239 5.14199,2.948495 1.96491,1.374261 3.24218,1.897411 4.52068,2.421071 0.35138,4.98179 0.70283,9.96464 -0.46178,10.35369 -1.16461,0.38905 -3.84576,-3.81457 -5.98639,-7.67994 -2.14064,-3.86537 -3.74043,-7.392298 -3.2145,-8.043316 z"
           fill="#181913"
           id="path4369" />
        <path
           d="m 471.21404,125.35642 c 1.86947,5.24662 3.73938,10.49445 4.14092,15.12885 0.40155,4.6344 -0.66418,8.65694 -2.49883,13.1987 -1.83465,4.54176 -4.43808,9.60277 -4.88574,12.78926 -0.44767,3.18649 1.2591,4.49781 4.73477,2.51979 3.47567,-1.97803 8.6768,-7.19991 12.04785,-12.29822 3.37106,-5.09832 4.88993,-10.05116 5.13172,-15.18158 0.2418,-5.13043 -0.79411,-10.4398 -1.82981,-15.74812 -3.46049,-0.0773 -6.91995,-0.15464 -9.72678,-0.22275 -2.80683,-0.0681 -4.96096,-0.12703 -7.1141,-0.18593 z"
           fill="#45494b"
           id="path4371" />
        <path
           d="m 485.85268,128.74207 c 0.23506,2.02085 1.79522,6.20612 1.88024,11.02605 0.085,4.81992 -1.30427,10.27407 -2.69375,15.72904 1.93598,-5.33958 3.87175,-10.67859 4.33135,-15.42613 0.45959,-4.74754 -0.55795,-8.90466 -1.57522,-13.06069 -1.08939,-0.14464 -2.17768,-0.28913 -1.94262,1.73173 z"
           fill="#181913"
           id="path4373" />
        <path
           d="m 507.35264,70.397299 c 6.77954,4.856782 13.56021,9.714377 17.71471,14.222223 4.1545,4.507847 5.68459,8.666196 6.6556,14.341724 0.97101,5.675524 1.38327,12.867844 -0.25168,18.266304 -1.63494,5.39845 -5.31693,9.00351 -8.99898,12.60864 3.98615,-3.29101 7.97233,-6.58203 10.3686,-10.96447 2.39627,-4.38243 3.20278,-9.85691 2.93054,-15.08899 -0.27224,-5.232079 -1.62364,-10.221778 -4.96142,-15.212538 -3.33778,-4.99076 -8.66243,-9.982067 -12.90294,-13.011136 -4.24052,-3.029069 -7.39804,-4.095605 -10.55443,-5.161757 z"
           fill="#181913"
           id="path4375" />
      </g>
    </g>
  </g>
</svg>
