<?xml version="1.0" encoding="UTF-8" standalone="no"?>
<!-- Created with Inkscape (http://www.inkscape.org/) -->

<svg
   width="59.29715mm"
   height="93.584656mm"
   viewBox="0 0 59.29715 93.584656"
   version="1.1"
   id="svg1"
   inkscape:version="1.3 (0e150ed6c4, 2023-07-21)"
   sodipodi:docname="hallway.svg"
   xmlns:inkscape="http://www.inkscape.org/namespaces/inkscape"
   xmlns:sodipodi="http://sodipodi.sourceforge.net/DTD/sodipodi-0.dtd"
   xmlns="http://www.w3.org/2000/svg"
   xmlns:svg="http://www.w3.org/2000/svg">
  <sodipodi:namedview
     id="namedview1"
     pagecolor="#505050"
     bordercolor="#eeeeee"
     borderopacity="1"
     inkscape:showpageshadow="0"
     inkscape:pageopacity="0"
     inkscape:pagecheckerboard="0"
     inkscape:deskcolor="#d1d1d1"
     inkscape:document-units="mm"
     inkscape:zoom="0.8772155"
     inkscape:cx="26.219327"
     inkscape:cy="218.87438"
     inkscape:window-width="2158"
     inkscape:window-height="1415"
     inkscape:window-x="0"
     inkscape:window-y="0"
     inkscape:window-maximized="1"
     inkscape:current-layer="layer1" />
  <defs
     id="defs1">
    <inkscape:path-effect
       effect="bspline"
       id="path-effect70"
       is_visible="true"
       lpeversion="1.3"
       weight="33.333333"
       steps="2"
       helper_size="0"
       apply_no_weight="true"
       apply_with_weight="true"
       only_selected="false"
       uniform="false" />
    <inkscape:path-effect
       effect="bspline"
       id="path-effect68"
       is_visible="true"
       lpeversion="1.3"
       weight="33.333333"
       steps="2"
       helper_size="0"
       apply_no_weight="true"
       apply_with_weight="true"
       only_selected="false"
       uniform="false" />
    <inkscape:path-effect
       effect="bspline"
       id="path-effect71"
       is_visible="true"
       lpeversion="1.3"
       weight="33.333333"
       steps="2"
       helper_size="0"
       apply_no_weight="true"
       apply_with_weight="true"
       only_selected="false"
       uniform="false" />
    <inkscape:path-effect
       effect="bspline"
       id="path-effect60"
       is_visible="true"
       lpeversion="1.3"
       weight="33.333333"
       steps="2"
       helper_size="0"
       apply_no_weight="true"
       apply_with_weight="true"
       only_selected="false"
       uniform="false" />
    <inkscape:path-effect
       effect="bspline"
       id="path-effect57-79"
       is_visible="true"
       lpeversion="1.3"
       weight="33.333333"
       steps="2"
       helper_size="0"
       apply_no_weight="true"
       apply_with_weight="true"
       only_selected="false"
       uniform="false" />
    <inkscape:path-effect
       effect="bspline"
       id="path-effect57-79-3"
       is_visible="true"
       lpeversion="1.3"
       weight="33.333333"
       steps="2"
       helper_size="0"
       apply_no_weight="true"
       apply_with_weight="true"
       only_selected="false"
       uniform="false" />
    <inkscape:path-effect
       effect="bspline"
       id="path-effect59"
       is_visible="true"
       lpeversion="1.3"
       weight="33.333333"
       steps="2"
       helper_size="0"
       apply_no_weight="true"
       apply_with_weight="true"
       only_selected="false"
       uniform="false" />
    <inkscape:path-effect
       effect="bspline"
       id="path-effect58"
       is_visible="true"
       lpeversion="1.3"
       weight="33.333333"
       steps="2"
       helper_size="0"
       apply_no_weight="true"
       apply_with_weight="true"
       only_selected="false"
       uniform="false" />
    <inkscape:path-effect
       effect="bspline"
       id="path-effect63"
       is_visible="true"
       lpeversion="1.3"
       weight="33.333333"
       steps="2"
       helper_size="0"
       apply_no_weight="true"
       apply_with_weight="true"
       only_selected="false"
       uniform="false" />
    <inkscape:path-effect
       effect="bspline"
       id="path-effect61"
       is_visible="true"
       lpeversion="1.3"
       weight="33.333333"
       steps="2"
       helper_size="0"
       apply_no_weight="true"
       apply_with_weight="true"
       only_selected="false"
       uniform="false" />
    <inkscape:path-effect
       effect="bspline"
       id="path-effect62"
       is_visible="true"
       lpeversion="1.3"
       weight="33.333333"
       steps="2"
       helper_size="0"
       apply_no_weight="true"
       apply_with_weight="true"
       only_selected="false"
       uniform="false" />
    <inkscape:path-effect
       effect="bspline"
       id="path-effect65"
       is_visible="true"
       lpeversion="1.3"
       weight="33.333333"
       steps="2"
       helper_size="0"
       apply_no_weight="true"
       apply_with_weight="true"
       only_selected="false"
       uniform="false" />
    <inkscape:path-effect
       effect="bspline"
       id="path-effect66"
       is_visible="true"
       lpeversion="1.3"
       weight="33.333333"
       steps="2"
       helper_size="0"
       apply_no_weight="true"
       apply_with_weight="true"
       only_selected="false"
       uniform="false" />
    <inkscape:path-effect
       effect="bspline"
       id="path-effect67"
       is_visible="true"
       lpeversion="1.3"
       weight="33.333333"
       steps="2"
       helper_size="0"
       apply_no_weight="true"
       apply_with_weight="true"
       only_selected="false"
       uniform="false" />
    <inkscape:path-effect
       effect="bspline"
       id="path-effect69"
       is_visible="true"
       lpeversion="1.3"
       weight="33.333333"
       steps="2"
       helper_size="0"
       apply_no_weight="true"
       apply_with_weight="true"
       only_selected="false"
       uniform="false" />
    <inkscape:path-effect
       effect="bspline"
       id="path-effect69-4"
       is_visible="true"
       lpeversion="1.3"
       weight="33.333333"
       steps="2"
       helper_size="0"
       apply_no_weight="true"
       apply_with_weight="true"
       only_selected="false"
       uniform="false" />
    <inkscape:path-effect
       effect="bspline"
       id="path-effect69-8"
       is_visible="true"
       lpeversion="1.3"
       weight="33.333333"
       steps="2"
       helper_size="0"
       apply_no_weight="true"
       apply_with_weight="true"
       only_selected="false"
       uniform="false" />
    <inkscape:path-effect
       effect="bspline"
       id="path-effect69-8-9"
       is_visible="true"
       lpeversion="1.3"
       weight="33.333333"
       steps="2"
       helper_size="0"
       apply_no_weight="true"
       apply_with_weight="true"
       only_selected="false"
       uniform="false" />
  </defs>
  <g
     inkscape:label="Layer 1"
     inkscape:groupmode="layer"
     id="layer1"
     transform="translate(-90.321996,-61.721721)">
    <g
       id="g2"
       transform="matrix(-1.9481992,0,0,1.9481992,424.72316,31.260293)">
      <path
         style="fill:#2e2e22;fill-opacity:1;stroke:none;stroke-width:0.264583px;stroke-linecap:butt;stroke-linejoin:miter;stroke-opacity:1"
         d="m 160.58905,45.062607 c -2.16969,-1.769167 -4.33939,-3.538336 -5.64048,-7.227782 -1.3011,-3.689447 -1.73358,-9.29895 -2.16607,-14.908566 0.96475,1.768091 1.92949,3.536181 2.97062,3.992177 1.04112,0.455996 2.15859,-0.400074 3.27607,-1.256158 z"
         id="path69"
         inkscape:original-d="m 160.58905,45.062607 c 0,0 -4.33939,-3.538334 -6.50908,-5.307501 -0.4325,-5.609728 -1.29747,-16.828847 -1.29747,-16.828847 0,0 1.92949,3.536183 2.89424,5.304272 1.1175,-0.856102 3.35245,-2.568253 3.35245,-2.568253 z"
         inkscape:path-effect="#path-effect70" />
      <path
         style="fill:#2e2e22;fill-opacity:1;stroke:none;stroke-width:0.0661413px;stroke-linecap:butt;stroke-linejoin:miter;stroke-opacity:1"
         d="m 159.81793,91.028625 c 0.001,0.100905 0.40029,0.629631 0.93746,0.870698 0.53716,0.241067 1.21262,0.194478 1.8881,0.147888 -0.0905,2.230277 -0.18103,4.460555 0.0658,5.545182 0.24684,1.084627 0.831,1.023606 1.41997,0.02841 0.58897,-0.995192 1.1827,-2.924479 1.77645,-4.853804 -0.71046,0.543 -1.42091,1.085998 -1.80493,0.836841 -0.38401,-0.249157 -0.44158,-1.290426 -0.64967,-1.89896 -0.20809,-0.608533 -0.56668,-0.784298 -1.06557,-0.732727 -0.49889,0.05157 -1.13804,0.330479 -1.65559,0.306476 -0.51755,-0.024 -0.91348,-0.350911 -0.91203,-0.250007 z"
         id="path67"
         transform="matrix(4.0002719,0,0,4.0002719,-492.0217,-347.88784)"
         inkscape:original-d="m 159.42054,90.600805 c 0.39884,0.528725 0.79768,1.057451 1.19652,1.586176 0.67549,-0.04659 2.02643,-0.13977 2.02643,-0.13977 0,0 -0.18103,4.460555 -0.27154,6.690832 0.58419,-0.06102 1.16835,-0.122044 1.75253,-0.183066 0.59376,-1.929363 1.78124,-5.787975 1.78124,-5.787975 0,0 -1.42091,1.086 -2.13137,1.629 -0.0576,-1.041314 -0.11514,-2.082585 -0.17271,-3.123878 -0.35861,-0.175775 -0.7172,-0.351542 -1.07581,-0.527313 -0.63917,0.278917 -1.27832,0.557824 -1.91748,0.836736 -0.39594,-0.32692 -0.79187,-0.653828 -1.18781,-0.980742 z"
         inkscape:path-effect="#path-effect68" />
      <path
         style="fill:#dcb789;fill-opacity:1;stroke:none;stroke-width:0.0661413px;stroke-linecap:butt;stroke-linejoin:miter;stroke-opacity:1"
         d="m 158.46586,95.74912 c 0,0 1.81011,-0.958163 1.81011,-0.958163 0,0 0.4109,-0.06742 0.4109,-0.06742 0,0 0.54611,0.01396 0.54611,0.01396 0,0 0.21654,0.189571 0.21654,0.189571 0,0 1.60002,0.86343 1.60002,0.86343 0,0 -0.19597,0.623594 -0.19597,0.623594 0,0 -2.55864,-0.04764 -2.55864,-0.04764 z"
         id="path70"
         transform="matrix(4.0002719,0,0,4.0002719,-492.0217,-347.88784)"
         inkscape:original-d="m 158.46586,95.74912 c 0,0 1.81011,-0.958163 1.81011,-0.958163 0,0 0.4109,-0.06742 0.4109,-0.06742 0,0 0.54611,0.01396 0.54611,0.01396 0,0 0.21654,0.189571 0.21654,0.189571 0,0 1.60002,0.86343 1.60002,0.86343 0,0 -0.19597,0.623594 -0.19597,0.623594 0,0 -2.55864,-0.04764 -2.55864,-0.04764 z"
         inkscape:path-effect="#path-effect71" />
      <path
         style="fill:#dcb789;fill-opacity:1;stroke:none;stroke-width:0.264583px;stroke-linecap:butt;stroke-linejoin:miter;stroke-opacity:1"
         d="m 159.28852,97.974452 c -0.0212,0.164406 -0.0635,0.493231 -0.0516,0.671183 0.0119,0.177952 0.0781,0.205038 0.39102,0.210843 0.31291,0.0058 0.87249,-0.0097 1.43209,-0.02515 -0.23999,-0.224475 -0.47999,-0.448952 -0.68951,-0.538974 -0.20952,-0.09002 -0.38856,-0.04559 -0.53637,-0.112395 -0.14781,-0.0668 -0.26437,-0.244822 -0.38094,-0.422848 -0.0478,0.01764 -0.0957,0.0353 -0.1196,0.04411 -0.0239,0.0088 -0.0239,0.0088 -0.0451,0.173226 z m 0.002,-0.240376 c 0,0 -0.16124,1.247677 -0.16124,1.247677 0,0 2.25395,0.0055 2.25395,0.0055 0,0 -0.99633,-0.810618 -0.99633,-0.810618 -0.15882,0.02345 -0.31764,0.0469 -0.43714,-0.02001 -0.11949,-0.06691 -0.19966,-0.224151 -0.27984,-0.381406 z"
         id="path59"
         transform="matrix(4.3591608,0,0,4.3591608,-543.93578,-394.20091)"
         inkscape:original-d="m 159.3097,97.810046 c -0.0423,0.328819 -0.0847,0.657638 -0.12706,0.986454 0.0662,0.02709 0.1324,0.05417 0.1986,0.08126 0.55961,-0.01548 1.67879,-0.04643 1.67879,-0.04643 0,0 -0.47999,-0.448951 -0.71998,-0.673426 -0.17905,0.04443 -0.35809,0.08886 -0.53714,0.133287 -0.11657,-0.17803 -0.3497,-0.534078 -0.3497,-0.534078 0,0 -0.0957,0.03529 -0.14351,0.05293 z m -0.0194,-0.07597 c 0,0 -0.16124,1.247677 -0.16124,1.247677 0,0 2.25395,0.0055 2.25395,0.0055 0,0 -0.99633,-0.810618 -0.99633,-0.810618 0,0 -0.31764,0.0469 -0.47645,0.07035 -0.0802,-0.157258 -0.24053,-0.471764 -0.24053,-0.471764 z"
         inkscape:path-effect="#path-effect60" />
      <path
         style="fill:#342f16;fill-opacity:1;stroke:none;stroke-width:0.264583px;stroke-linecap:butt;stroke-linejoin:miter;stroke-opacity:1"
         d="m 159.75436,94.688879 c 0,0 2.43936,0.0025 2.43936,0.0025 0,0 -0.21336,5.972401 -0.21336,5.972401 0,0 -2.27857,0.0761 -2.27857,0.0761 z"
         id="path56-93"
         sodipodi:nodetypes="ccccc"
         transform="matrix(4.1987267,0,0,4.3591608,-521.15213,-375.47039)"
         inkscape:original-d="m 159.75436,94.688879 2.43936,0.0025 -0.21336,5.972401 -2.27857,0.0761 z"
         inkscape:path-effect="#path-effect57-79" />
      <path
         style="fill:#342f16;fill-opacity:1;stroke:none;stroke-width:0.264583px;stroke-linecap:butt;stroke-linejoin:miter;stroke-opacity:1"
         d="m 159.82314,94.902185 c 0,0 2.37058,-0.210806 2.37058,-0.210806 0,0 -0.14725,6.060201 -0.14725,6.060201 0,0 -2.35113,0.0474 -2.35113,0.0474 z"
         id="path56-93-4"
         sodipodi:nodetypes="ccccc"
         transform="matrix(3.485499,1.4275199,0,4.3188537,-415.40856,-602.78372)"
         inkscape:original-d="m 159.82314,94.902185 2.37058,-0.210806 -0.14725,6.060201 -2.35113,0.0474 z"
         inkscape:path-effect="#path-effect57-79-3" />
      <path
         style="fill:#342f16;fill-opacity:1;stroke:none;stroke-width:0.291747px;stroke-linecap:butt;stroke-linejoin:miter;stroke-opacity:1"
         d="m 161.56841,97.589951 c 0,0 -0.18309,1.445094 -0.18309,1.445094 0,0 -2.27014,0.168222 -2.27014,0.168222 0,0 2.09045,-1.593282 2.09045,-1.593282 z"
         id="path58"
         sodipodi:nodetypes="ccccc"
         inkscape:original-d="m 161.56841,97.589951 -0.18309,1.445094 -2.27014,0.168222 2.09045,-1.593282 z"
         inkscape:path-effect="#path-effect59"
         transform="matrix(3.6186805,1.4820657,0,4.3188537,-434.32201,-629.08724)" />
      <path
         style="fill:#dcb789;fill-opacity:1;stroke:none;stroke-width:0.291747px;stroke-linecap:butt;stroke-linejoin:miter;stroke-opacity:1"
         d="m 161.24479,97.990721 c 0.005,0.160656 0.0146,0.481948 -0.13628,0.686204 -0.15082,0.204255 -0.46216,0.291457 -0.77351,0.378661 -0.29964,0.01583 -0.59928,0.03166 -0.48254,-0.155695 0.11674,-0.187356 0.64982,-0.577877 0.95047,-0.790048 0.30066,-0.212172 0.36884,-0.245971 0.40294,-0.262875 0.0341,-0.0169 0.0341,-0.0169 0.0389,0.143753 z m -2.03575,1.188684 c 0,0 2.08733,-0.20254 2.08733,-0.20254 0,0 0.21479,-1.368943 0.21479,-1.368943 0,0 -0.35343,0.06773 -0.35343,0.06773 z"
         id="path57"
         inkscape:original-d="m 161.23994,97.830064 c 0.01,0.321304 0.0194,0.642605 0.0291,0.96391 -0.31135,0.08722 -0.93404,0.261612 -0.93404,0.261612 0,0 -0.59928,0.03166 -0.89891,0.04749 0.53311,-0.390541 1.06619,-0.781063 1.59929,-1.171595 0.0682,-0.03382 0.13639,-0.06761 0.20459,-0.101416 z m -2.0309,1.349341 c 0,0 2.08733,-0.20254 2.08733,-0.20254 0,0 0.21479,-1.368943 0.21479,-1.368943 0,0 -0.35343,0.06773 -0.35343,0.06773 z"
         inkscape:path-effect="#path-effect58"
         transform="matrix(3.6186805,1.4820657,0,4.3188537,-434.32201,-629.08724)" />
      <path
         style="fill:#342f16;fill-opacity:1;stroke:none;stroke-width:0.264583px;stroke-linecap:butt;stroke-linejoin:miter;stroke-opacity:1"
         d="m 160.39377,98.180322 c 0.0944,-0.01753 0.18886,-0.03506 0.39324,0.0284 0.20438,0.06347 0.5187,0.207918 0.83302,0.352374 0,0 -0.0813,6.138919 -0.0813,6.138919 0,0 -0.29803,0.28612 -0.29803,0.28612 0,0 0.17379,-5.976756 0.17379,-5.976756 z"
         id="path62"
         transform="matrix(4.3591608,0,0,4.3591608,-543.93578,-394.20091)"
         inkscape:original-d="m 160.39377,98.180322 c 0,0 0.18886,-0.03506 0.28329,-0.05259 0.31433,0.14446 0.94297,0.433369 0.94297,0.433369 l -0.0813,6.138919 -0.29803,0.28612 0.17379,-5.976756 z"
         inkscape:path-effect="#path-effect63"
         sodipodi:nodetypes="ccccccc" />
      <path
         style="fill:#342f16;fill-opacity:1;stroke:none;stroke-width:0.264583px;stroke-linecap:butt;stroke-linejoin:miter;stroke-opacity:1"
         d="m 159.32562,98.113109 c -0.0215,0.15374 -0.0644,0.461235 0.22705,0.62488 0.29145,0.163646 0.91727,0.183456 1.0945,0.05932 0.17722,-0.124132 -0.0941,-0.392196 -0.36552,-0.660265 -0.13351,0.0067 -0.26703,0.01332 -0.38695,-0.03869 -0.11993,-0.05201 -0.22626,-0.162673 -0.31842,-0.225564 -0.0922,-0.06289 -0.17013,-0.078 -0.20597,-0.05562 -0.0358,0.02238 -0.0295,0.0823 -0.0264,0.112245 0.003,0.02995 0.003,0.02994 -0.0183,0.183684 z"
         id="path60"
         transform="matrix(4.3591608,0,0,4.3591608,-543.93578,-394.20091)"
         inkscape:original-d="m 159.34709,97.959369 c -0.0429,0.307485 -0.0859,0.614971 -0.12881,0.922456 0.62584,0.01982 1.25166,0.03962 1.87749,0.05943 -0.27138,-0.268073 -0.81412,-0.804207 -0.81412,-0.804207 0,0 -0.26703,0.01331 -0.40054,0.01998 -0.10634,-0.110669 -0.21267,-0.221337 -0.319,-0.332007 -0.078,-0.01511 -0.15596,-0.03022 -0.23393,-0.04533 0.006,0.0599 0.0126,0.119787 0.0189,0.179681 z"
         inkscape:path-effect="#path-effect61" />
      <path
         style="fill:#dcb789;fill-opacity:1;stroke:none;stroke-width:0.264583px;stroke-linecap:butt;stroke-linejoin:miter;stroke-opacity:1"
         d="m 161.21978,98.742001 c -0.14664,-0.110748 -0.43993,-0.332242 -0.4497,-0.411561 -0.01,-0.07932 0.26398,-0.01647 0.41062,0.09428 0.14664,0.110753 0.16618,0.269382 0.18571,0.428023 0,0 2e-5,0 -0.14663,-0.110747 z"
         id="path61"
         transform="matrix(4.3591608,0,0,4.3591608,-543.93578,-394.20091)"
         inkscape:original-d="m 161.36643,98.852748 c -0.29329,-0.221496 -0.58658,-0.44299 -0.87987,-0.664483 0.27376,0.06285 0.5475,0.125706 0.82125,0.188561 0.0196,0.158644 0.0586,0.475922 0.0586,0.475922 z"
         inkscape:path-effect="#path-effect62" />
      <path
         d="m 149.91235,38.062543 1.76982,0.0047 -1.66956,1.468136 z m 3.60939,-0.127711 0.70182,0.932099 1.79598,-0.05805 0.4795,-0.908419 z m 4.86046,0.114532 0.88927,0.845131 0.0305,-1.002887 z"
         style="fill:#dcb789;fill-opacity:1;stroke:none;stroke-width:1.15336px;stroke-linecap:butt;stroke-linejoin:miter;stroke-opacity:1"
         id="path53" />
      <path
         d="m 149.48871,63.127079 1.62869,-0.03301 -1.63158,-1.417501 z m 3.39603,-0.03422 0.58575,-0.928025 1.65684,0.02869 0.50006,0.886087 z m 4.46637,-0.189368 0.76394,-0.844999 0.0929,0.985678 z"
         style="fill:#dcb789;fill-opacity:1;stroke:none;stroke-width:1.09812px;stroke-linecap:butt;stroke-linejoin:miter;stroke-opacity:1"
         id="path53-5" />
      <path
         d="m 150.17826,41.41498 1.09089,0.791741 0.0681,1.680625 -1.04826,1.001343 z m 3.14055,0.927787 -0.0468,1.537169 0.72868,0.927466 1.38917,-0.02622 0.90766,-1.00619 0.0128,-1.516546 -0.69458,-1.017833 -1.49996,-0.06479 z m 5.00274,-0.250378 0.004,1.281727 0.75424,0.897833 -0.11505,-2.976913 z"
         style="fill:#dcb789;fill-opacity:1;stroke:none;stroke-width:1.14034px;stroke-linecap:butt;stroke-linejoin:miter;stroke-opacity:1"
         id="path54" />
      <path
         d="m 149.87232,46.590954 1.11938,0.842526 0.11764,1.687565 -1.02415,0.956609 z m 3.18308,1.070871 -0.002,1.538626 0.75936,0.962309 1.39523,0.03607 0.88269,-0.967779 -0.0315,-1.519474 -0.72774,-1.051353 -1.50922,-0.132252 z m 5.01995,-0.02644 0.0418,1.284893 0.78419,0.933755 -0.20263,-2.988947 z"
         style="fill:#dcb789;fill-opacity:1;stroke:none;stroke-width:1.1437px;stroke-linecap:butt;stroke-linejoin:miter;stroke-opacity:1"
         id="path54-9" />
      <path
         d="m 150.08601,51.66731 0.72062,0.776577 0.11614,1.576136 -1.01106,0.896617 z m 2.75793,0.98389 -0.007,1.436995 0.75388,0.897058 1.37738,0.02963 0.86718,-0.906943 -0.0269,-1.419059 -0.71844,-0.980032 -1.48992,-0.119158 z m 4.95154,-0.0396 0.0454,1.200489 0.77417,0.870009 -0.20004,-2.791604 z"
         style="fill:#dcb789;fill-opacity:1;stroke:none;stroke-width:1.09833px;stroke-linecap:butt;stroke-linejoin:miter;stroke-opacity:1"
         id="path54-9-4" />
      <path
         d="m 149.56087,56.582594 1.0936,0.864794 0.11494,1.689907 -1.00057,0.936234 z m 3.10979,1.134195 -0.002,1.538585 0.74188,0.977414 1.3631,0.06382 0.86237,-0.950219 -0.0307,-1.520097 -0.711,-1.065831 -1.47446,-0.162276 z m 4.90438,0.07343 0.0408,1.285723 0.76614,0.949355 -0.19797,-2.992979 z"
         style="fill:#dcb789;fill-opacity:1;stroke:none;stroke-width:1.13046px;stroke-linecap:butt;stroke-linejoin:miter;stroke-opacity:1"
         id="path54-9-7" />
      <path
         d="m 151.71704,38.585866 -1.41672,1.159746 0.061,1.274494 1.32954,0.803298 1.36006,-0.01084 0.78465,-1.115659 -0.0305,-1.461781 -0.80644,-0.880701 z"
         style="fill:#dcb789;fill-opacity:1;stroke:none;stroke-width:1.15336px;stroke-linecap:butt;stroke-linejoin:miter;stroke-opacity:1"
         id="path55" />
      <path
         d="m 156.57604,38.75561 -0.93286,1.115458 -0.009,1.023228 0.91542,1.098843 1.36006,-0.01084 0.78901,-1.115511 -0.0436,-1.351065 -0.80644,-0.880699 z"
         style="fill:#dcb789;fill-opacity:1;stroke:none;stroke-width:1.15336px;stroke-linecap:butt;stroke-linejoin:miter;stroke-opacity:1"
         id="path55-9" />
      <path
         d="m 154.34126,39.505156 0.0392,1.144729 1.17262,-0.05638 -0.048,-1.130204 z"
         style="fill:#dcb789;fill-opacity:1;stroke:none;stroke-width:1.15336px;stroke-linecap:butt;stroke-linejoin:miter;stroke-opacity:1"
         id="path56" />
      <path
         d="m 151.87626,42.270088 0.0392,1.144729 1.17262,-0.05638 -0.048,-1.130204 z"
         style="fill:#dcb789;fill-opacity:1;stroke:none;stroke-width:1.15336px;stroke-linecap:butt;stroke-linejoin:miter;stroke-opacity:1"
         id="path56-2" />
      <path
         d="m 156.75526,42.424505 0.0392,1.144729 1.17262,-0.05638 -0.048,-1.130203 z"
         style="fill:#dcb789;fill-opacity:1;stroke:none;stroke-width:1.15336px;stroke-linecap:butt;stroke-linejoin:miter;stroke-opacity:1"
         id="path56-8" />
      <path
         d="m 156.39026,47.747205 0.0392,1.144729 1.17262,-0.05638 -0.048,-1.130203 z"
         style="fill:#dcb789;fill-opacity:1;stroke:none;stroke-width:1.15336px;stroke-linecap:butt;stroke-linejoin:miter;stroke-opacity:1"
         id="path56-07" />
      <path
         d="m 151.61626,47.696326 0.0392,1.144729 1.17262,-0.05638 -0.048,-1.130204 z"
         style="fill:#dcb789;fill-opacity:1;stroke:none;stroke-width:1.15336px;stroke-linecap:butt;stroke-linejoin:miter;stroke-opacity:1"
         id="path56-5" />
      <path
         d="m 151.42826,52.756991 0.0392,1.144729 1.17262,-0.05638 -0.048,-1.130204 z"
         style="fill:#dcb789;fill-opacity:1;stroke:none;stroke-width:1.15336px;stroke-linecap:butt;stroke-linejoin:miter;stroke-opacity:1"
         id="path56-71" />
      <path
         d="m 156.11226,52.906837 0.0392,1.144729 1.17262,-0.05638 -0.048,-1.130204 z"
         style="fill:#dcb789;fill-opacity:1;stroke:none;stroke-width:1.15336px;stroke-linecap:butt;stroke-linejoin:miter;stroke-opacity:1"
         id="path56-02" />
      <path
         d="m 156.01326,57.8515 0.0392,1.144729 1.17262,-0.05638 -0.048,-1.130204 z"
         style="fill:#dcb789;fill-opacity:1;stroke:none;stroke-width:1.15336px;stroke-linecap:butt;stroke-linejoin:miter;stroke-opacity:1"
         id="path56-9" />
      <path
         d="m 151.22526,57.79415 0.0392,1.144729 1.17262,-0.05638 -0.048,-1.130204 z"
         style="fill:#dcb789;fill-opacity:1;stroke:none;stroke-width:1.15336px;stroke-linecap:butt;stroke-linejoin:miter;stroke-opacity:1"
         id="path56-9-2" />
      <path
         d="m 151.43304,44.154296 -1.12466,1.240206 -0.009,1.022791 1.10723,0.974532 1.36006,-0.01084 0.78901,-1.115512 -0.0349,-1.46193 -0.80644,-0.8807 z"
         style="fill:#dcb789;fill-opacity:1;stroke:none;stroke-width:1.15336px;stroke-linecap:butt;stroke-linejoin:miter;stroke-opacity:1"
         id="path55-5" />
      <path
         d="m 156.55278,44.158819 -0.93286,1.115459 -0.009,1.023227 0.91542,1.098843 1.36006,-0.01084 0.78901,-1.115511 -0.0436,-1.351066 -0.80644,-0.880699 z"
         style="fill:#dcb789;fill-opacity:1;stroke:none;stroke-width:1.15336px;stroke-linecap:butt;stroke-linejoin:miter;stroke-opacity:1"
         id="path55-9-0" />
      <path
         d="m 154.05726,45.073585 0.0392,1.144729 1.17262,-0.05638 -0.048,-1.130203 z"
         style="fill:#dcb789;fill-opacity:1;stroke:none;stroke-width:1.15336px;stroke-linecap:butt;stroke-linejoin:miter;stroke-opacity:1"
         id="path56-7" />
      <path
         d="m 151.13879,49.408335 -1.03726,1.090895 -0.008,0.900948 1.02118,0.859985 1.25436,-0.0076 0.72769,-0.981524 -0.0322,-1.287825 -0.74377,-0.776911 z"
         style="fill:#dcb789;fill-opacity:1;stroke:none;stroke-width:1.03957px;stroke-linecap:butt;stroke-linejoin:miter;stroke-opacity:1"
         id="path55-1" />
      <path
         d="m 156.28124,49.310685 -0.93286,1.115459 -0.009,1.023227 0.91542,1.098843 1.36006,-0.01084 0.78901,-1.115511 -0.0436,-1.351066 -0.80644,-0.880699 z"
         style="fill:#dcb789;fill-opacity:1;stroke:none;stroke-width:1.15336px;stroke-linecap:butt;stroke-linejoin:miter;stroke-opacity:1"
         id="path55-9-4" />
      <path
         d="m 153.86426,50.234927 0.0392,0.968836 1.17262,-0.04163 -0.048,-0.95659 z"
         style="fill:#dcb789;fill-opacity:1;stroke:none;stroke-width:1.06095px;stroke-linecap:butt;stroke-linejoin:miter;stroke-opacity:1"
         id="path56-0" />
      <path
         d="m 150.96604,54.441973 -1.07963,1.137042 -0.008,0.93903 1.06289,0.896276 1.30561,-0.008 0.75741,-1.023035 -0.0335,-1.342242 -0.77416,-0.809705 z"
         style="fill:#dcb789;fill-opacity:1;stroke:none;stroke-width:1.08277px;stroke-linecap:butt;stroke-linejoin:miter;stroke-opacity:1"
         id="path55-1-7" />
      <path
         d="m 155.94074,54.514954 -0.93887,1.074826 -0.009,0.987145 0.92132,1.061393 1.36881,-0.0085 0.79409,-1.075079 -0.0439,-1.303499 -0.81164,-0.850785 z"
         style="fill:#dcb789;fill-opacity:1;stroke:none;stroke-width:1.13649px;stroke-linecap:butt;stroke-linejoin:miter;stroke-opacity:1"
         id="path55-9-4-8" />
      <path
         d="m 153.54926,55.216312 0.0392,0.968836 1.17262,-0.04163 -0.048,-0.95659 z"
         style="fill:#dcb789;fill-opacity:1;stroke:none;stroke-width:1.06095px;stroke-linecap:butt;stroke-linejoin:miter;stroke-opacity:1"
         id="path56-0-8" />
      <path
         d="m 150.94004,59.530121 -1.00849,0.833273 -0.008,0.920605 1.33489,1.258207 1.30561,-0.0069 0.57329,-0.912122 -0.0335,-1.310234 -0.93317,-0.987936 z"
         style="fill:#dcb789;fill-opacity:1;stroke:none;stroke-width:1.07073px;stroke-linecap:butt;stroke-linejoin:miter;stroke-opacity:1"
         id="path55-1-7-7" />
      <path
         d="m 155.73527,59.571029 -0.88944,1.076492 -0.008,0.98718 0.87281,1.059757 1.29675,-0.01097 0.75228,-1.076488 -0.0416,-1.303422 -0.76891,-0.849346 z"
         style="fill:#dcb789;fill-opacity:1;stroke:none;stroke-width:1.10617px;stroke-linecap:butt;stroke-linejoin:miter;stroke-opacity:1"
         id="path55-9-4-8-2" />
      <path
         d="m 153.59926,60.454997 0.0392,0.968836 1.17262,-0.04163 -0.048,-0.95659 z"
         style="fill:#dcb789;fill-opacity:1;stroke:none;stroke-width:1.06095px;stroke-linecap:butt;stroke-linejoin:miter;stroke-opacity:1"
         id="path56-0-8-6" />
      <path
         d="m 141.85436,36.401435 1.46342,0.490731 -1.38052,0.996036 z m 2.9845,0.864742 0.58032,1.116228 1.48504,0.435732 0.3965,-0.768328 z m 4.01899,1.448341 0.73531,1.081542 0.0252,-0.985232 z"
         style="fill:#dcb789;fill-opacity:1;stroke:none;stroke-width:1.04392px;stroke-linecap:butt;stroke-linejoin:miter;stroke-opacity:1"
         id="path53-9" />
      <path
         d="m 141.48525,60.115109 1.3259,0.534784 -1.25079,-1.721014 z m 2.76284,1.143354 0.52579,-0.556279 1.3455,0.594959 0.35923,0.896518 z m 3.64133,1.385746 0.66622,-0.42698 0.0228,0.837448 z"
         style="fill:#dcb789;fill-opacity:1;stroke:none;stroke-width:0.907358px;stroke-linecap:butt;stroke-linejoin:miter;stroke-opacity:1"
         id="path53-5-8" />
      <path
         d="m 142.05461,39.535316 0.92638,1.126571 0.0579,1.68647 -0.89019,0.663297 z m 2.66697,1.904229 -0.0398,1.508252 0.6188,1.147436 1.17969,0.409734 0.77078,-0.712206 0.0109,-1.498513 -0.58984,-1.226275 -1.27378,-0.534646 z m 4.24833,1.321022 0.004,1.271224 0.64051,1.126096 -0.0977,-2.985471 z"
         style="fill:#dcb789;fill-opacity:1;stroke:none;stroke-width:1.04597px;stroke-linecap:butt;stroke-linejoin:miter;stroke-opacity:1"
         id="path54-5" />
      <path
         d="m 141.85228,44.758009 0.94499,1.134193 0.0993,1.703434 -0.86459,0.673783 z m 2.68719,1.912513 -0.002,1.523804 0.64107,1.156557 1.17786,0.408985 0.74517,-0.722692 -0.0266,-1.513846 -0.61437,-1.236321 -1.2741,-0.534777 z m 4.23789,1.316748 0.0353,1.284177 0.66202,1.134909 -0.17107,-3.015521 z"
         style="fill:#dcb789;fill-opacity:1;stroke:none;stroke-width:1.04597px;stroke-linecap:butt;stroke-linejoin:miter;stroke-opacity:1"
         id="path54-9-73" />
      <path
         d="m 141.98166,49.739421 0.61623,0.970534 0.0993,1.593978 -0.86459,0.60612 z m 2.35843,1.744588 -0.005,1.421965 0.64468,1.099188 1.17787,0.413819 0.74155,-0.656511 -0.023,-1.413428 -0.61437,-1.1715 -1.27409,-0.533925 z m 4.23427,1.342843 0.0389,1.202076 0.66202,1.078048 -0.17107,-2.821628 z"
         style="fill:#dcb789;fill-opacity:1;stroke:none;stroke-width:1.01096px;stroke-linecap:butt;stroke-linejoin:miter;stroke-opacity:1"
         id="path54-9-4-2" />
      <path
         d="m 141.54228,54.662009 0.94499,1.134193 0.0993,1.703434 -0.86459,0.673783 z m 2.68719,1.912513 -0.002,1.523804 0.64107,1.156557 1.17786,0.408985 0.74517,-0.722692 -0.0266,-1.513846 -0.61437,-1.236321 -1.2741,-0.534777 z m 4.23789,1.316748 0.0352,1.284177 0.66202,1.134909 -0.17107,-3.015521 z"
         style="fill:#dcb789;fill-opacity:1;stroke:none;stroke-width:1.04597px;stroke-linecap:butt;stroke-linejoin:miter;stroke-opacity:1"
         id="path54-9-7-9" />
      <path
         d="m 143.26922,37.078933 -1.10671,0.853434 0.0477,1.287988 1.0386,1.091184 1.06244,0.28347 0.61294,-0.946115 -0.0238,-1.468715 -0.62998,-1.055408 z"
         style="fill:#dcb789;fill-opacity:1;stroke:none;stroke-width:1.0195px;stroke-linecap:butt;stroke-linejoin:miter;stroke-opacity:1"
         id="path55-54" />
      <path
         d="m 147.36601,38.861159 -0.7744,0.819126 -0.007,1.011102 0.75992,1.369353 1.12903,0.406261 0.65498,-0.863284 -0.0362,-1.351937 -0.66946,-1.119814 z"
         style="fill:#dcb789;fill-opacity:1;stroke:none;stroke-width:1.04597px;stroke-linecap:butt;stroke-linejoin:miter;stroke-opacity:1"
         id="path55-9-5" />
      <path
         d="m 145.51045,38.919538 0.0326,1.146173 0.97342,0.303662 -0.0398,-1.134453 z"
         style="fill:#dcb789;fill-opacity:1;stroke:none;stroke-width:1.04597px;stroke-linecap:butt;stroke-linejoin:miter;stroke-opacity:1"
         id="path56-08" />
      <path
         d="m 143.46345,40.902538 0.0326,1.146173 0.97342,0.303662 -0.0398,-1.134453 z"
         style="fill:#dcb789;fill-opacity:1;stroke:none;stroke-width:1.04597px;stroke-linecap:butt;stroke-linejoin:miter;stroke-opacity:1"
         id="path56-2-0" />
      <path
         d="m 147.51445,42.551538 0.0326,1.146173 0.97342,0.303662 -0.0398,-1.134453 z"
         style="fill:#dcb789;fill-opacity:1;stroke:none;stroke-width:1.04597px;stroke-linecap:butt;stroke-linejoin:miter;stroke-opacity:1"
         id="path56-8-0" />
      <path
         d="m 147.21145,47.713538 0.0326,1.146173 0.97342,0.303662 -0.0398,-1.134453 z"
         style="fill:#dcb789;fill-opacity:1;stroke:none;stroke-width:1.04597px;stroke-linecap:butt;stroke-linejoin:miter;stroke-opacity:1"
         id="path56-07-4" />
      <path
         d="m 143.24845,46.198538 0.0326,1.146173 0.97342,0.303662 -0.0398,-1.134453 z"
         style="fill:#dcb789;fill-opacity:1;stroke:none;stroke-width:1.04597px;stroke-linecap:butt;stroke-linejoin:miter;stroke-opacity:1"
         id="path56-5-0" />
      <path
         d="m 143.09245,51.155538 0.0326,1.146173 0.97342,0.303662 -0.0398,-1.134453 z"
         style="fill:#dcb789;fill-opacity:1;stroke:none;stroke-width:1.04597px;stroke-linecap:butt;stroke-linejoin:miter;stroke-opacity:1"
         id="path56-71-3" />
      <path
         d="m 146.98045,52.740538 0.0326,1.146173 0.97342,0.303662 -0.0398,-1.134453 z"
         style="fill:#dcb789;fill-opacity:1;stroke:none;stroke-width:1.04597px;stroke-linecap:butt;stroke-linejoin:miter;stroke-opacity:1"
         id="path56-02-5" />
      <path
         d="m 146.89845,57.608538 0.0326,1.146173 0.97342,0.303662 -0.0398,-1.134453 z"
         style="fill:#dcb789;fill-opacity:1;stroke:none;stroke-width:1.04597px;stroke-linecap:butt;stroke-linejoin:miter;stroke-opacity:1"
         id="path56-9-1" />
      <path
         d="m 142.92445,56.083538 0.0326,1.146173 0.97342,0.303662 -0.0398,-1.134453 z"
         style="fill:#dcb789;fill-opacity:1;stroke:none;stroke-width:1.04597px;stroke-linecap:butt;stroke-linejoin:miter;stroke-opacity:1"
         id="path56-9-2-5" />
      <path
         d="m 143.09601,42.634159 -0.93362,0.883912 -0.007,1.01067 0.91914,1.304999 1.12903,0.406261 0.65498,-0.863284 -0.029,-1.459104 -0.66945,-1.119813 z"
         style="fill:#dcb789;fill-opacity:1;stroke:none;stroke-width:1.04597px;stroke-linecap:butt;stroke-linejoin:miter;stroke-opacity:1"
         id="path55-5-4" />
      <path
         d="m 147.13001,44.291159 -0.7744,0.819126 -0.007,1.011102 0.75992,1.369353 1.12903,0.406261 0.65498,-0.863284 -0.0362,-1.351937 -0.66946,-1.119814 z"
         style="fill:#dcb789;fill-opacity:1;stroke:none;stroke-width:1.04597px;stroke-linecap:butt;stroke-linejoin:miter;stroke-opacity:1"
         id="path55-9-0-8" />
      <path
         d="m 145.27445,44.349538 0.0326,1.146173 0.97342,0.303662 -0.0398,-1.134453 z"
         style="fill:#dcb789;fill-opacity:1;stroke:none;stroke-width:1.04597px;stroke-linecap:butt;stroke-linejoin:miter;stroke-opacity:1"
         id="path56-7-9" />
      <path
         d="m 142.85212,47.748837 -0.86106,0.762786 -0.007,0.890152 0.84771,1.165127 1.04129,0.37701 0.60408,-0.74934 -0.0267,-1.285779 -0.61743,-0.997768 z"
         style="fill:#dcb789;fill-opacity:1;stroke:none;stroke-width:0.942781px;stroke-linecap:butt;stroke-linejoin:miter;stroke-opacity:1"
         id="path55-1-0" />
      <path
         d="m 146.96901,49.313159 -0.7744,0.819126 -0.007,1.011102 0.75992,1.369353 1.12903,0.406261 0.65498,-0.863284 -0.0362,-1.351937 -0.66946,-1.119814 z"
         style="fill:#dcb789;fill-opacity:1;stroke:none;stroke-width:1.04597px;stroke-linecap:butt;stroke-linejoin:miter;stroke-opacity:1"
         id="path55-9-4-0" />
      <path
         d="m 145.11445,49.402832 0.0326,0.971906 0.97342,0.318279 -0.0398,-0.962446 z"
         style="fill:#dcb789;fill-opacity:1;stroke:none;stroke-width:0.962164px;stroke-linecap:butt;stroke-linejoin:miter;stroke-opacity:1"
         id="path56-0-7" />
      <path
         d="m 142.70892,52.683267 -0.89624,0.795515 -0.007,0.92777 0.88234,1.213874 1.08382,0.392342 0.62876,-0.781352 -0.0278,-1.340096 -0.64265,-1.039576 z"
         style="fill:#dcb789;fill-opacity:1;stroke:none;stroke-width:0.981957px;stroke-linecap:butt;stroke-linejoin:miter;stroke-opacity:1"
         id="path55-1-7-1" />
      <path
         d="m 146.83823,54.280233 -0.77939,0.777028 -0.007,0.975334 0.76482,1.334055 1.13629,0.411217 0.6592,-0.821668 -0.0364,-1.304895 -0.67376,-1.091769 z"
         style="fill:#dcb789;fill-opacity:1;stroke:none;stroke-width:1.03067px;stroke-linecap:butt;stroke-linejoin:miter;stroke-opacity:1"
         id="path55-9-4-8-6" />
      <path
         d="m 144.85345,54.241832 0.0326,0.971906 0.97342,0.318279 -0.0398,-0.962446 z"
         style="fill:#dcb789;fill-opacity:1;stroke:none;stroke-width:0.962164px;stroke-linecap:butt;stroke-linejoin:miter;stroke-opacity:1"
         id="path56-0-8-2" />
      <path
         d="m 142.68692,57.714934 -0.83718,0.516363 -0.007,0.909514 1.10814,1.655851 1.08382,0.393482 0.47591,-0.727916 -0.0278,-1.308382 -0.77465,-1.26491 z"
         style="fill:#dcb789;fill-opacity:1;stroke:none;stroke-width:0.971037px;stroke-linecap:butt;stroke-linejoin:miter;stroke-opacity:1"
         id="path55-1-7-7-8" />
      <path
         d="m 146.66763,59.226465 -0.73835,0.793834 -0.007,0.975491 0.72455,1.317564 1.07648,0.386715 0.62449,-0.835882 -0.0345,-1.30411 -0.6383,-1.07724 z"
         style="fill:#dcb789;fill-opacity:1;stroke:none;stroke-width:1.00318px;stroke-linecap:butt;stroke-linejoin:miter;stroke-opacity:1"
         id="path55-9-4-8-2-6" />
      <path
         d="m 144.89445,59.446832 0.0326,0.971906 0.97342,0.318279 -0.0398,-0.962446 z"
         style="fill:#dcb789;fill-opacity:1;stroke:none;stroke-width:0.962164px;stroke-linecap:butt;stroke-linejoin:miter;stroke-opacity:1"
         id="path56-0-8-6-8" />
      <path
         d="m 159.80592,37.987721 -0.45836,24.781535 c 0.25408,-0.296898 0.37003,-0.637621 0.63596,-4.981643 0.26158,-4.344166 0.0998,-12.762948 0.16144,-16.734277 0.0573,-3.971908 -0.18033,-3.512218 -0.33904,-3.065615 z"
         style="fill:#dcb789;fill-opacity:1;stroke:none;stroke-width:1.15336px;stroke-linecap:butt;stroke-linejoin:miter;stroke-opacity:1"
         id="path63" />
      <path
         style="fill:#342f16;fill-opacity:1;stroke:none;stroke-width:0.264583px;stroke-linecap:butt;stroke-linejoin:miter;stroke-opacity:1"
         d="m 158.60848,97.865854 c -0.10615,-0.0529 -0.21229,-0.1058 -0.25892,-0.222594 -0.0466,-0.116794 -0.0337,-0.297474 -0.0208,-0.478157 0.0978,-0.921547 0.19557,-1.843097 0.38241,-2.369879 0.18684,-0.526782 0.46271,-0.658791 0.72382,-0.71919 0.26111,-0.0604 0.50744,-0.04919 0.67743,0.08828 0.17,0.137468 0.26365,0.401213 0.36892,0.828331 0.10527,0.427117 0.22216,1.017594 0.28759,1.533394 0.0654,0.515801 0.0794,0.956891 0.0362,1.210542 -0.0432,0.253651 -0.14357,0.319849 -0.29302,0.358376 -0.14944,0.03853 -0.34794,0.04938 -0.54644,0.06023 -0.0705,-0.06892 -0.141,-0.137834 -0.18787,-0.20741 -0.0469,-0.06958 -0.0701,-0.139793 0.0363,-0.175485 0.1064,-0.03569 0.34242,-0.03683 0.57844,-0.03796 0.009,-0.280211 0.0179,-0.560422 -0.0438,-1.044046 -0.0616,-0.483624 -0.19376,-1.170637 -0.33128,-1.586173 -0.13751,-0.415536 -0.28036,-0.559568 -0.42698,-0.625967 -0.14662,-0.0664 -0.29698,-0.05516 -0.435,0.113445 -0.13802,0.168601 -0.26369,0.494549 -0.35081,0.988368 -0.0871,0.493819 -0.13565,1.155472 -0.14282,1.523711 -0.007,0.368238 0.0271,0.443084 0.0793,0.486622 0.0522,0.04354 0.12243,0.05582 0.19264,0.06809 z"
         id="path64"
         transform="matrix(4.3591608,0,0,4.3591608,-543.93101,-394.3049)"
         inkscape:original-d="m 158.60848,97.865854 c 0,0 -0.21229,-0.105801 -0.31844,-0.158702 0.0129,-0.180686 0.0387,-0.542049 0.0387,-0.542049 0,0 0.19558,-1.843096 0.29336,-2.764642 0.27589,-0.132016 0.55176,-0.264025 0.82763,-0.396039 0.24635,0.01122 0.49268,0.02244 0.73902,0.03364 0.0936,0.263739 0.1873,0.527468 0.28095,0.791202 0.1169,0.5905 0.23378,1.180978 0.35067,1.771465 0.014,0.441113 0.0279,0.882205 0.0419,1.323308 -0.10037,0.0662 -0.20074,0.1324 -0.30112,0.198599 -0.19851,0.01085 -0.59551,0.03255 -0.59551,0.03255 0,0 -0.141,-0.137837 -0.21151,-0.206756 -0.0232,-0.07024 -0.0464,-0.140467 -0.0697,-0.210698 0.23603,-0.0011 0.70807,-0.0034 0.70807,-0.0034 0,0 0.0179,-0.560421 0.0268,-0.840634 -0.13215,-0.687038 -0.26431,-1.37405 -0.39647,-2.061077 -0.14287,-0.144042 -0.28572,-0.288079 -0.42859,-0.432118 -0.15037,0.01124 -0.30073,0.02249 -0.45109,0.03373 -0.12568,0.325959 -0.25136,0.651905 -0.37703,0.977858 -0.0486,0.661683 -0.0971,1.32334 -0.14564,1.985007 0.0342,0.07482 0.0685,0.149638 0.10268,0.224457 0.0702,0.01228 0.21063,0.03683 0.21063,0.03683 z"
         inkscape:path-effect="#path-effect65" />
      <path
         style="fill:#dcb789;fill-opacity:1;stroke:none;stroke-width:0.264583px;stroke-linecap:butt;stroke-linejoin:miter;stroke-opacity:1"
         d="m 159.91245,97.816515 c -0.017,0.0282 -0.051,0.0846 -0.0302,0.128153 0.0208,0.04355 0.0962,0.07425 0.21755,0.08276 0.12136,0.0085 0.28862,-0.0052 0.39194,-0.06925 0.10332,-0.06405 0.14269,-0.178432 0.15753,-0.461728 0.0148,-0.283296 0.005,-0.735492 -0.057,-1.213883 -0.0621,-0.478391 -0.17655,-0.982946 -0.26352,-1.335299 -0.087,-0.352353 -0.14646,-0.552486 -0.23627,-0.691079 -0.0898,-0.138594 -0.20992,-0.215641 -0.31529,-0.222793 -0.10537,-0.0072 -0.19601,0.05562 -0.22497,0.11205 -0.029,0.05643 0.004,0.106527 0.0794,0.159902 0.0757,0.05338 0.19441,0.110027 0.33789,0.476464 0.14347,0.366437 0.3117,1.042631 0.40264,1.603022 0.0909,0.56039 0.10457,1.004944 0.09,1.230106 -0.0145,0.225162 -0.0572,0.230921 -0.15073,0.223248 -0.0935,-0.0077 -0.23777,-0.02878 -0.30992,-0.03933 -0.0721,-0.01055 -0.0721,-0.01053 -0.0891,0.01767 z"
         id="path65"
         transform="matrix(4.3591608,0,0,4.3591608,-543.93578,-394.20091)"
         inkscape:original-d="m 159.92944,97.788316 c -0.034,0.05639 -0.068,0.112786 -0.10195,0.169177 0.0755,0.03072 0.15093,0.06143 0.22639,0.09214 0.16726,-0.01371 0.33452,-0.02741 0.50178,-0.04112 0.0394,-0.11438 0.0788,-0.228756 0.11812,-0.343136 -0.01,-0.452223 -0.0194,-0.904425 -0.0291,-1.356637 -0.11446,-0.504571 -0.22893,-1.009124 -0.34339,-1.513684 -0.0595,-0.200144 -0.11897,-0.400281 -0.17846,-0.600419 -0.12012,-0.07705 -0.24024,-0.154099 -0.36037,-0.231146 -0.0906,0.06276 -0.18125,0.125519 -0.27188,0.188281 0.0327,0.0501 0.0654,0.100195 0.0981,0.150291 0.11871,0.05665 0.23741,0.113308 0.35612,0.16996 0.16824,0.67622 0.33647,1.352415 0.50471,2.028624 0.0136,0.444572 0.0273,0.889124 0.0409,1.333688 -0.0427,0.0058 -0.0854,0.01154 -0.1281,0.01728 -0.14429,-0.02111 -0.28857,-0.04221 -0.43287,-0.06332 z"
         inkscape:path-effect="#path-effect66" />
      <path
         style="fill:#dcb789;fill-opacity:1;stroke:none;stroke-width:0.264583px;stroke-linecap:butt;stroke-linejoin:miter;stroke-opacity:1"
         d="m 158.55799,97.579269 c -0.0146,-0.07104 -0.0437,-0.213145 -0.03,-0.486262 0.0137,-0.273117 0.0703,-0.677241 0.11127,-1.049346 0.041,-0.372104 0.0663,-0.712163 0.0265,-0.51526 -0.0398,0.196903 -0.14489,0.930741 -0.19465,1.372526 -0.0498,0.441784 -0.0442,0.591464 -0.0181,0.66768 0.0261,0.07622 0.0728,0.07895 0.0962,0.08031 0.0233,0.0014 0.0234,0.0014 0.009,-0.06965 z"
         id="path66"
         transform="matrix(4.3591608,0,0,4.3591608,-543.93578,-394.20091)"
         inkscape:original-d="m 158.57256,97.650312 c -0.0291,-0.142092 -0.0583,-0.284181 -0.0874,-0.426273 0.0566,-0.404146 0.11316,-0.808273 0.16974,-1.212411 0.0254,-0.340069 0.0508,-0.680125 0.0761,-1.020188 -0.10505,0.733864 -0.2101,1.467702 -0.31515,2.201553 0.006,0.149701 0.0111,0.299397 0.0166,0.449095 0.0467,0.0028 0.0934,0.0055 0.14007,0.0082 z"
         inkscape:path-effect="#path-effect67" />
      <path
         style="fill:#dcb789;fill-opacity:1;stroke:none;stroke-width:0.264583px;stroke-linecap:butt;stroke-linejoin:miter;stroke-opacity:1"
         d="m 167.92655,28.002493 c -0.0359,0.182317 -0.0162,0.391122 0.15883,0.477998 0.17502,0.08688 0.50535,0.05183 0.71776,-0.03414 0.21241,-0.08597 0.30688,-0.222836 0.29715,-0.157038 -0.01,0.0658 -0.12368,0.334259 -0.37915,0.449424 -0.25546,0.115165 -0.65242,0.07703 -0.8867,-0.07637 -0.23429,-0.1534 -0.30588,-0.422052 -0.22694,-0.63357 0.079,-0.211518 0.30843,-0.365894 0.37743,-0.365165 0.069,7.29e-4 -0.0225,0.156549 -0.0584,0.338866 z"
         id="path68"
         inkscape:original-d="m 167.87096,27.976009 c 0.0197,0.208801 0.0394,0.417606 0.0591,0.62641 0.33034,-0.03505 0.66067,-0.0701 0.991,-0.105151 0.0945,-0.136881 0.18896,-0.273756 0.28344,-0.410634 -0.11395,0.268473 -0.22789,0.536936 -0.34184,0.805405 -0.39698,-0.03814 -0.79394,-0.07628 -1.19091,-0.114416 -0.0716,-0.268661 -0.1432,-0.537311 -0.21479,-0.805966 0.22949,-0.154385 0.45897,-0.308761 0.68846,-0.46314 -0.0915,0.155834 -0.18297,0.31166 -0.27446,0.467492 z"
         inkscape:path-effect="#path-effect69" />
      <path
         style="fill:#dcb789;fill-opacity:1;stroke:none;stroke-width:0.264583px;stroke-linecap:butt;stroke-linejoin:miter;stroke-opacity:1"
         d="m 167.92655,28.002493 c -0.0359,0.182317 -0.0162,0.391122 0.15883,0.477998 0.17502,0.08688 0.50535,0.05183 0.71776,-0.03414 0.21241,-0.08597 0.30688,-0.222836 0.29715,-0.157038 -0.01,0.0658 -0.12368,0.334259 -0.37915,0.449424 -0.25546,0.115165 -0.65242,0.07703 -0.8867,-0.07637 -0.23429,-0.1534 -0.30588,-0.422052 -0.22694,-0.63357 0.079,-0.211518 0.30843,-0.365894 0.37743,-0.365165 0.069,7.29e-4 -0.0225,0.156549 -0.0584,0.338866 z"
         id="path68-4"
         transform="rotate(24.010665,150.79139,26.106081)"
         inkscape:original-d="m 167.87096,27.976009 c 0.0197,0.208801 0.0394,0.417606 0.0591,0.62641 0.33034,-0.03505 0.66067,-0.0701 0.991,-0.105151 0.0945,-0.136881 0.18896,-0.273756 0.28344,-0.410634 -0.11395,0.268473 -0.22789,0.536936 -0.34184,0.805405 -0.39698,-0.03814 -0.79394,-0.07628 -1.19091,-0.114416 -0.0716,-0.268661 -0.1432,-0.537311 -0.21479,-0.805966 0.22949,-0.154385 0.45897,-0.308761 0.68846,-0.46314 -0.0915,0.155834 -0.18297,0.31166 -0.27446,0.467492 z"
         inkscape:path-effect="#path-effect69-4" />
      <path
         style="fill:#dcb789;fill-opacity:1;stroke:none;stroke-width:0.264583px;stroke-linecap:butt;stroke-linejoin:miter;stroke-opacity:1"
         d="m 167.92655,28.002493 c -0.0359,0.182317 -0.0162,0.391122 0.15883,0.477998 0.17502,0.08688 0.50535,0.05183 0.71776,-0.03414 0.21241,-0.08597 0.30688,-0.222836 0.29715,-0.157038 -0.01,0.0658 -0.12368,0.334259 -0.37915,0.449424 -0.25546,0.115165 -0.65242,0.07703 -0.8867,-0.07637 -0.23429,-0.1534 -0.30588,-0.422052 -0.22694,-0.63357 0.079,-0.211518 0.30843,-0.365894 0.37743,-0.365165 0.069,7.29e-4 -0.0225,0.156549 -0.0584,0.338866 z"
         id="path68-1"
         transform="rotate(42.281099,149.8575,27.867036)"
         inkscape:original-d="m 167.87096,27.976009 c 0.0197,0.208801 0.0394,0.417606 0.0591,0.62641 0.33034,-0.03505 0.66067,-0.0701 0.991,-0.105151 0.0945,-0.136881 0.18896,-0.273756 0.28344,-0.410634 -0.11395,0.268473 -0.22789,0.536936 -0.34184,0.805405 -0.39698,-0.03814 -0.79394,-0.07628 -1.19091,-0.114416 -0.0716,-0.268661 -0.1432,-0.537311 -0.21479,-0.805966 0.22949,-0.154385 0.45897,-0.308761 0.68846,-0.46314 -0.0915,0.155834 -0.18297,0.31166 -0.27446,0.467492 z"
         inkscape:path-effect="#path-effect69-8" />
      <path
         style="fill:#dcb789;fill-opacity:1;stroke:none;stroke-width:0.264583px;stroke-linecap:butt;stroke-linejoin:miter;stroke-opacity:1"
         d="m 167.92655,28.002493 c -0.0359,0.182317 -0.0162,0.391122 0.15883,0.477998 0.17502,0.08688 0.50535,0.05183 0.71776,-0.03414 0.21241,-0.08597 0.30688,-0.222836 0.29715,-0.157038 -0.01,0.0658 -0.12368,0.334259 -0.37915,0.449424 -0.25546,0.115165 -0.65242,0.07703 -0.8867,-0.07637 -0.23429,-0.1534 -0.30588,-0.422052 -0.22694,-0.63357 0.079,-0.211518 0.30843,-0.365894 0.37743,-0.365165 0.069,7.29e-4 -0.0225,0.156549 -0.0584,0.338866 z"
         id="path68-1-2"
         transform="matrix(-0.30156523,-0.63042642,0.24491456,-0.77624901,197.50899,154.95489)"
         inkscape:original-d="m 167.87096,27.976009 c 0.0197,0.208801 0.0394,0.417606 0.0591,0.62641 0.33034,-0.03505 0.66067,-0.0701 0.991,-0.105151 0.0945,-0.136881 0.18896,-0.273756 0.28344,-0.410634 -0.11395,0.268473 -0.22789,0.536936 -0.34184,0.805405 -0.39698,-0.03814 -0.79394,-0.07628 -1.19091,-0.114416 -0.0716,-0.268661 -0.1432,-0.537311 -0.21479,-0.805966 0.22949,-0.154385 0.45897,-0.308761 0.68846,-0.46314 -0.0915,0.155834 -0.18297,0.31166 -0.27446,0.467492 z"
         inkscape:path-effect="#path-effect69-8-9" />
    </g>
  </g>
</svg>
