<?xml version="1.0" encoding="UTF-8" standalone="no"?>
<!-- Created with Inkscape (http://www.inkscape.org/) -->

<svg
   width="105.99773mm"
   height="134.70831mm"
   viewBox="0 0 105.99773 134.70831"
   version="1.1"
   id="svg1"
   inkscape:version="1.3 (0e150ed6c4, 2023-07-21)"
   sodipodi:docname="theatre.svg"
   xmlns:inkscape="http://www.inkscape.org/namespaces/inkscape"
   xmlns:sodipodi="http://sodipodi.sourceforge.net/DTD/sodipodi-0.dtd"
   xmlns="http://www.w3.org/2000/svg"
   xmlns:svg="http://www.w3.org/2000/svg">
  <sodipodi:namedview
     id="namedview1"
     pagecolor="#505050"
     bordercolor="#eeeeee"
     borderopacity="1"
     inkscape:showpageshadow="0"
     inkscape:pageopacity="0"
     inkscape:pagecheckerboard="0"
     inkscape:deskcolor="#d1d1d1"
     inkscape:document-units="mm"
     inkscape:zoom="1.3226336"
     inkscape:cx="282.0131"
     inkscape:cy="268.40389"
     inkscape:window-width="2158"
     inkscape:window-height="1415"
     inkscape:window-x="0"
     inkscape:window-y="0"
     inkscape:window-maximized="1"
     inkscape:current-layer="g11" />
  <defs
     id="defs1">
    <inkscape:path-effect
       effect="bspline"
       id="path-effect13"
       is_visible="true"
       lpeversion="1.3"
       weight="33.333333"
       steps="2"
       helper_size="0"
       apply_no_weight="true"
       apply_with_weight="true"
       only_selected="false"
       uniform="false" />
    <inkscape:path-effect
       effect="bspline"
       id="path-effect12"
       is_visible="true"
       lpeversion="1.3"
       weight="33.333333"
       steps="2"
       helper_size="0"
       apply_no_weight="true"
       apply_with_weight="true"
       only_selected="false"
       uniform="false" />
    <inkscape:path-effect
       effect="bspline"
       id="path-effect11"
       is_visible="true"
       lpeversion="1.3"
       weight="33.333333"
       steps="2"
       helper_size="0"
       apply_no_weight="true"
       apply_with_weight="true"
       only_selected="false"
       uniform="false" />
    <inkscape:path-effect
       effect="bspline"
       id="path-effect10"
       is_visible="true"
       lpeversion="1.3"
       weight="33.333333"
       steps="2"
       helper_size="0"
       apply_no_weight="true"
       apply_with_weight="true"
       only_selected="false"
       uniform="false" />
    <inkscape:path-effect
       effect="bspline"
       id="path-effect9"
       is_visible="true"
       lpeversion="1.3"
       weight="33.333333"
       steps="2"
       helper_size="0"
       apply_no_weight="true"
       apply_with_weight="true"
       only_selected="false"
       uniform="false" />
    <inkscape:path-effect
       effect="bspline"
       id="path-effect8"
       is_visible="true"
       lpeversion="1.3"
       weight="33.333333"
       steps="2"
       helper_size="0"
       apply_no_weight="true"
       apply_with_weight="true"
       only_selected="false"
       uniform="false" />
    <inkscape:path-effect
       effect="bspline"
       id="path-effect7"
       is_visible="true"
       lpeversion="1.3"
       weight="33.333333"
       steps="2"
       helper_size="0"
       apply_no_weight="true"
       apply_with_weight="true"
       only_selected="false"
       uniform="false" />
    <inkscape:path-effect
       effect="bspline"
       id="path-effect6"
       is_visible="true"
       lpeversion="1.3"
       weight="33.333333"
       steps="2"
       helper_size="0"
       apply_no_weight="true"
       apply_with_weight="true"
       only_selected="false"
       uniform="false" />
    <inkscape:path-effect
       effect="bspline"
       id="path-effect4"
       is_visible="true"
       lpeversion="1.3"
       weight="33.333333"
       steps="2"
       helper_size="0"
       apply_no_weight="true"
       apply_with_weight="true"
       only_selected="false"
       uniform="false" />
    <inkscape:path-effect
       effect="bspline"
       id="path-effect3"
       is_visible="true"
       lpeversion="1.3"
       weight="33.333333"
       steps="2"
       helper_size="0"
       apply_no_weight="true"
       apply_with_weight="true"
       only_selected="false"
       uniform="false" />
    <inkscape:path-effect
       effect="bspline"
       id="path-effect2"
       is_visible="true"
       lpeversion="1.3"
       weight="33.333333"
       steps="2"
       helper_size="0"
       apply_no_weight="true"
       apply_with_weight="true"
       only_selected="false"
       uniform="false" />
    <inkscape:path-effect
       effect="bspline"
       id="path-effect1"
       is_visible="true"
       lpeversion="1.3"
       weight="33.333333"
       steps="2"
       helper_size="0"
       apply_no_weight="true"
       apply_with_weight="true"
       only_selected="false"
       uniform="false" />
    <inkscape:path-effect
       effect="bspline"
       id="path-effect1-5"
       is_visible="true"
       lpeversion="1.3"
       weight="33.333333"
       steps="2"
       helper_size="0"
       apply_no_weight="true"
       apply_with_weight="true"
       only_selected="false"
       uniform="false" />
    <inkscape:path-effect
       effect="bspline"
       id="path-effect6-5"
       is_visible="true"
       lpeversion="1.3"
       weight="33.333333"
       steps="2"
       helper_size="0"
       apply_no_weight="true"
       apply_with_weight="true"
       only_selected="false"
       uniform="false" />
    <inkscape:path-effect
       effect="bspline"
       id="path-effect2-8"
       is_visible="true"
       lpeversion="1.3"
       weight="33.333333"
       steps="2"
       helper_size="0"
       apply_no_weight="true"
       apply_with_weight="true"
       only_selected="false"
       uniform="false" />
    <inkscape:path-effect
       effect="bspline"
       id="path-effect3-0"
       is_visible="true"
       lpeversion="1.3"
       weight="33.333333"
       steps="2"
       helper_size="0"
       apply_no_weight="true"
       apply_with_weight="true"
       only_selected="false"
       uniform="false" />
    <inkscape:path-effect
       effect="bspline"
       id="path-effect4-4"
       is_visible="true"
       lpeversion="1.3"
       weight="33.333333"
       steps="2"
       helper_size="0"
       apply_no_weight="true"
       apply_with_weight="true"
       only_selected="false"
       uniform="false" />
    <inkscape:path-effect
       effect="bspline"
       id="path-effect7-0"
       is_visible="true"
       lpeversion="1.3"
       weight="33.333333"
       steps="2"
       helper_size="0"
       apply_no_weight="true"
       apply_with_weight="true"
       only_selected="false"
       uniform="false" />
    <inkscape:path-effect
       effect="bspline"
       id="path-effect8-8"
       is_visible="true"
       lpeversion="1.3"
       weight="33.333333"
       steps="2"
       helper_size="0"
       apply_no_weight="true"
       apply_with_weight="true"
       only_selected="false"
       uniform="false" />
    <inkscape:path-effect
       effect="bspline"
       id="path-effect9-2"
       is_visible="true"
       lpeversion="1.3"
       weight="33.333333"
       steps="2"
       helper_size="0"
       apply_no_weight="true"
       apply_with_weight="true"
       only_selected="false"
       uniform="false" />
    <inkscape:path-effect
       effect="bspline"
       id="path-effect10-9"
       is_visible="true"
       lpeversion="1.3"
       weight="33.333333"
       steps="2"
       helper_size="0"
       apply_no_weight="true"
       apply_with_weight="true"
       only_selected="false"
       uniform="false" />
    <inkscape:path-effect
       effect="bspline"
       id="path-effect11-9"
       is_visible="true"
       lpeversion="1.3"
       weight="33.333333"
       steps="2"
       helper_size="0"
       apply_no_weight="true"
       apply_with_weight="true"
       only_selected="false"
       uniform="false" />
  </defs>
  <g
     inkscape:label="Layer 1"
     inkscape:groupmode="layer"
     id="layer1"
     transform="translate(-44.372608,-54.753822)">
    <g
       id="g11">
      <path
         style="fill:#373b41;fill-rule:evenodd;stroke-width:0.264999;paint-order:stroke markers fill"
         d="m 150.37034,54.753822 c -5.96916,8.15473 -11.93819,16.309295 -27.83265,22.278227 -15.89446,5.968932 -41.713075,9.751753 -67.532202,13.534648 0,1.928407 0,3.856812 1.165354,7.995267 1.165353,4.138456 3.495967,10.486706 4.661297,25.938786 1.165329,15.45208 1.165329,40.00688 0.822282,52.44338 -0.343048,12.43649 -1.029142,12.75419 -1.697572,12.45753 -0.668429,-0.29665 -1.319184,-1.20764 -1.983152,-1.22122 -0.663969,-0.0136 -1.341145,0.87028 -2.04662,0.95907 -0.705474,0.0888 -1.439256,-0.61746 -2.079589,-0.6795 -0.640332,-0.062 -1.187219,0.52017 -2.064218,0.50146 -0.876998,-0.0187 -2.084117,-0.63833 -3.160229,-0.72157 -1.076111,-0.0832 -2.021214,0.36989 -2.533304,-13.11984 -0.51209,-13.48974 -0.591166,-40.92235 0.04833,-56.33984 0.639492,-15.41749 1.997497,-18.819721 3.355529,-22.222021 0,-1.939752 0,-3.879504 0,-5.819256 -1.706996,-1.905715 -3.413991,-3.81143 -4.267489,-9.595372 -0.853498,-5.783942 -0.853498,-15.445723 -0.853498,-25.107698 0.912288,1.184711 1.824576,2.369423 2.823826,2.409518 0.99925,0.0401 2.085461,-1.064425 2.961789,-1.072337 0.876328,-0.0079 1.542773,1.080788 2.93264,0.963424 1.389868,-0.117363 3.503159,-1.440789 5.604138,-1.486479 2.100979,-0.04569 4.189645,1.186353 6.614017,1.212661 2.424371,0.02631 5.184447,-1.153119 8.203315,-1.027882 3.018869,0.125238 6.29653,1.555142 10.822304,1.408396 4.525773,-0.146746 10.29966,-1.870141 16.063965,-2.054837 5.7643,-0.184696 11.51902,1.169306 17.19757,1.037777 5.67855,-0.13153 11.28094,-1.74859 15.58164,-1.961195 4.30071,-0.212604 7.29974,0.979246 9.94821,1.094805 2.64848,0.115559 4.9464,-0.845171 7.24432,-1.805902 z"
         id="path1"
         sodipodi:nodetypes="ccccccccccccccccccsssssssssssc"
         inkscape:original-d="m 150.37034,54.753822 c 0,0 -11.93819,16.309297 -17.90747,24.464189 -25.81964,3.782971 -77.457382,11.348686 -77.457382,11.348686 0,0 0,3.856812 0,5.78522 2.330707,6.348503 4.661318,12.696753 6.99198,19.045123 0,24.55579 0,49.11059 0,73.66589 -0.686096,0.31769 -1.372192,0.63538 -2.058288,0.95308 -0.650759,-0.911 -1.301517,-1.82199 -1.952275,-2.73299 -0.677175,0.88385 -1.35435,1.7677 -2.031525,2.65154 -0.73378,-0.70625 -1.467561,-1.41251 -2.201341,-2.11877 -0.546885,0.58219 -1.093769,1.16439 -1.640653,1.74658 -1.207117,-0.61961 -2.414234,-1.23923 -3.621351,-1.85885 -0.945104,0.45314 -1.890209,0.90627 -2.835313,1.35941 -0.07908,-27.43261 -0.158152,-54.86522 -0.237226,-82.29783 1.358059,-3.40237 4.074097,-10.206901 4.074097,-10.206901 0,-1.939752 0,-3.879504 0,-5.819256 0,0 -3.41399,-3.811431 -5.120987,-5.717146 0,-9.662168 0,-28.985924 0,-28.985924 0,0 1.824576,2.369423 2.736864,3.554134 1.086211,-1.104521 2.172423,-2.209041 3.258635,-3.313562 0.666444,1.088698 1.332889,2.177397 1.999333,3.266095 2.113291,-1.323425 4.226582,-2.646851 6.339873,-3.970276 2.088667,1.232044 4.177333,2.464088 6.266,3.696132 2.760076,-1.179428 5.520152,-2.358855 8.280228,-3.538283 3.277661,1.429903 6.555322,2.859807 9.832983,4.28971 5.773886,-1.723395 11.547773,-3.44679 17.321658,-5.170185 5.75472,1.354002 11.50944,2.708004 17.26415,4.062006 5.60239,-1.617059 11.20478,-3.234118 16.80716,-4.851178 2.99903,1.191849 5.99806,2.383698 8.99709,3.575548 2.29792,-0.960731 6.89376,-2.882192 6.89376,-2.882192 z"
         inkscape:path-effect="#path-effect1" />
      <path
         style="fill:#282a2e;fill-rule:evenodd;stroke-width:0.264999;paint-order:stroke markers fill"
         d="m 53.521279,88.412066 c 16.575564,-3.544294 33.15113,-7.088588 45.24251,-11.84331 12.091381,-4.754722 19.698281,-10.719636 26.107561,-13.930785 6.40928,-3.211149 11.62058,-3.668401 11.48558,-0.786558 -0.135,2.881843 -5.61618,9.102537 -20.31343,14.085868 -14.69725,4.983332 -38.609497,8.729021 -62.522221,12.474785 z"
         id="path5"
         inkscape:original-d="m 53.521279,88.412066 c 0,0 33.15113,-7.088588 49.726691,-10.632881 7.6072,-5.96515 15.2141,-11.930062 22.82114,-17.895092 5.21152,-0.457271 10.42282,-0.914523 15.63423,-1.371785 -5.48141,6.220946 -10.96259,12.441644 -16.44389,18.662466 -23.9132,3.745839 -71.738171,11.237292 -71.738171,11.237292 z"
         inkscape:path-effect="#path-effect6" />
      <path
         style="fill:#282a2e;fill-rule:evenodd;stroke-width:0.264999;paint-order:stroke markers fill"
         d="m 49.971657,65.870782 c -1.171175,3.080843 -1.874601,9.207807 -1.610202,13.632099 0.264399,4.424292 1.496574,7.145804 2.728774,9.86737 -0.675922,-3.236931 -1.351845,-6.473862 -0.796753,-10.915546 0.555092,-4.441683 2.341127,-10.087891 2.414686,-12.893691 0.07356,-2.8058 -1.565331,-2.771076 -2.736505,0.309768 z"
         id="path2"
         transform="translate(-1.1954127,-1.791572)"
         inkscape:original-d="m 49.503909,62.824663 c -0.703427,6.126962 -1.406853,12.253926 -2.11028,18.38089 1.232223,2.721621 3.6966,8.164698 3.6966,8.164698 0,0 -1.351846,-6.473862 -2.027767,-9.710793 1.786107,-5.646436 3.572142,-11.292644 5.358212,-16.938969 -1.638953,0.03473 -3.277843,0.06945 -4.916765,0.104174 z"
         inkscape:path-effect="#path-effect2" />
      <path
         style="fill:#282a2e;fill-rule:evenodd;stroke-width:0.264999;paint-order:stroke markers fill"
         d="m 54.171071,86.321383 c 12.220577,-4.251502 24.441153,-8.503004 31.837645,-12.952586 7.396492,-4.449581 9.968795,-9.097055 13.90044,-11.355858 3.931644,-2.258802 9.222364,-2.128847 10.204754,0.578334 0.98239,2.707181 -2.34352,7.991371 -12.385563,12.37596 -10.042047,4.384589 -26.799493,7.869334 -43.557276,11.35415 z"
         id="path3"
         transform="rotate(-5.3467363,78.681975,100.41746)"
         inkscape:original-d="m 54.171071,86.321383 c 0,0 24.441153,-8.503004 36.66173,-12.754507 2.572406,-4.64766 5.144709,-9.295135 7.717065,-13.9427 5.290934,0.129961 10.581654,0.259916 15.872484,0.389874 -3.32605,5.284401 -6.65196,10.568591 -9.97793,15.852886 C 87.6863,79.351822 54.171071,86.321383 54.171071,86.321383 Z"
         inkscape:path-effect="#path-effect3" />
      <path
         style="fill:#282a2e;fill-rule:evenodd;stroke-width:0.264999;paint-order:stroke markers fill"
         d="m 53.540876,87.778774 c 4.126013,-5.352712 8.252026,-10.705425 10.362651,-15.154478 2.110624,-4.449054 2.205857,-7.994309 4.345402,-9.932001 2.139545,-1.937692 6.323234,-2.267739 7.919514,-0.111344 1.596281,2.156396 0.605108,6.799058 -3.597476,11.413149 -4.202585,4.614091 -11.616263,9.199336 -19.030091,13.784674 z"
         id="path4"
         inkscape:original-d="m 53.540876,87.778774 c 0,0 8.252026,-10.705425 12.378039,-16.058136 0.09524,-3.545396 0.190469,-7.090651 0.285703,-10.635975 4.183856,-0.33006 8.367545,-0.660109 12.551317,-0.990161 -0.991211,4.642845 -1.982383,9.285507 -2.973575,13.928259 -7.413977,4.585431 -22.241484,13.756013 -22.241484,13.756013 z"
         inkscape:path-effect="#path-effect4" />
      <path
         style="fill:#282a2e;fill-rule:evenodd;stroke-width:0.264999;paint-order:stroke markers fill"
         d="m 52.180436,87.301228 c -0.111737,-5.297703 -0.223474,-10.595406 0.531368,-15.128695 0.754842,-4.533289 2.376197,-8.302014 4.292249,-10.009006 1.916051,-1.706992 4.126679,-1.352191 4.458092,1.312183 0.331413,2.664373 -1.216369,7.638111 -3.076551,11.993996 -1.860183,4.355884 -4.032649,8.093666 -6.205158,11.831522 z"
         id="path6"
         inkscape:original-d="m 52.180436,87.301228 c 0,0 -0.223475,-10.595406 -0.335211,-15.893108 1.62142,-3.768876 3.242776,-7.537601 4.864164,-11.3064 2.210715,0.354817 4.421343,0.709615 6.632014,1.064424 -1.547845,4.973939 -3.095628,9.947677 -4.64344,14.921516 -2.172552,3.73793 -6.517527,11.213568 -6.517527,11.213568 z"
         inkscape:path-effect="#path-effect7" />
      <path
         style="fill:#282a2e;fill-rule:evenodd;stroke-width:0.264999;paint-order:stroke markers fill"
         d="m 54.60633,97.875319 c 1.706995,4.685041 3.413991,9.370081 4.517956,24.304061 1.103965,14.93397 1.60488,40.11586 1.289771,52.71893 -0.315109,12.60306 -1.446205,12.6268 -2.269454,0.30867 -0.82325,-12.31813 -1.338604,-36.97711 -1.877009,-51.92275 C 55.729189,108.3386 55.167765,103.10701 54.60633,97.875319 Z"
         id="path7"
         inkscape:original-d="m 54.60633,97.875319 c 0,0 3.413992,9.370081 5.120986,14.055121 0.500936,25.18291 1.00185,50.3648 1.502775,75.5472 -1.131144,0.0237 -2.26224,0.0474 -3.393363,0.0712 C 57.321354,162.88885 56.805999,138.22987 56.290635,113.5704 55.729187,108.3386 54.60633,97.875319 54.60633,97.875319 Z"
         inkscape:path-effect="#path-effect8" />
      <path
         style="fill:#282a2e;fill-rule:evenodd;stroke-width:0.264999;paint-order:stroke markers fill"
         d="m 53.766756,98.907768 c 0.979159,29.478602 1.958317,58.957192 2.140698,73.746172 0.18238,14.78898 -0.431984,14.88834 -1.097943,1.25204 -0.665959,-13.6363 -1.383467,-41.00717 -1.565853,-55.79617 -0.182385,-14.789 0.170353,-16.9955 0.523098,-19.202042 z"
         id="path8"
         inkscape:original-d="m 53.766756,98.907768 c 0,0 1.958317,58.957192 2.937476,88.435792 -0.614392,0.0994 -1.228762,0.19872 -1.843143,0.29808 -0.717537,-27.37196 -1.435045,-54.74283 -2.152568,-82.11424 0.352753,-2.20659 1.058235,-6.619632 1.058235,-6.619632 z"
         inkscape:path-effect="#path-effect9" />
      <path
         style="fill:#282a2e;fill-rule:evenodd;stroke-width:0.264999;paint-order:stroke markers fill"
         d="m 51.796748,100.05471 c 0.537025,26.70339 1.07405,53.40679 1.213117,67.87639 0.139067,14.4696 -0.119814,16.70533 -0.649628,17.69704 -0.529813,0.9917 -1.330519,0.73935 -1.706814,-2.73934 -0.376295,-3.4787 -0.328163,-10.18346 -0.06687,-24.52709 0.261297,-14.34362 0.735739,-36.32509 1.210191,-58.307 z"
         id="path9"
         inkscape:original-d="m 51.796748,100.05471 c 0,0 1.07405,53.40679 1.611075,80.11018 -0.258893,2.23581 -0.517771,4.47154 -0.776658,6.70731 -0.800741,-0.25236 -1.601446,-0.50471 -2.402171,-0.75706 0.04813,-6.70504 0.09627,-13.4098 0.144399,-20.1147 0.474462,-21.98235 1.423355,-65.94573 1.423355,-65.94573 z"
         inkscape:path-effect="#path-effect10" />
      <path
         style="fill:#282a2e;fill-rule:evenodd;stroke-width:0.264999;paint-order:stroke markers fill"
         d="m 50.506447,98.066131 c -1.202633,3.679409 -2.405265,7.358819 -2.969966,22.281629 -0.5647,14.92281 -0.491471,41.08797 -0.03334,54.12904 0.458128,13.04107 1.301126,12.95752 1.710942,-0.0314 0.409817,-12.9889 0.386437,-38.88211 0.529635,-53.76292 0.143198,-14.88081 0.452961,-18.74855 0.762731,-22.616369 z"
         id="path10"
         inkscape:original-d="m 50.506447,98.066131 c 0,0 -2.405266,7.358819 -3.607898,11.038229 0.07323,26.16621 0.14646,52.33137 0.219691,78.49705 0.843029,-0.0835 1.686023,-0.16709 2.529036,-0.25063 -0.02339,-25.89426 -0.04676,-51.78747 -0.07014,-77.6812 0.309776,-3.86789 0.929309,-11.603449 0.929309,-11.603449 z"
         inkscape:path-effect="#path-effect11" />
      <path
         style="fill:#282a2e;fill-rule:evenodd;stroke-width:0.264999;paint-order:stroke markers fill"
         d="m 54.948158,91.115757 c -0.966048,-0.124968 -1.932096,-0.249936 -2.840418,-0.241154 -0.908323,0.0088 -1.758884,0.151307 -2.609464,0.293835 0.926015,0.09759 1.85203,0.195171 2.760353,0.18639 0.908322,-0.0088 1.798917,-0.123925 2.689529,-0.239071 z m 0.0506,0.879544 c -0.709119,0.155114 -1.418238,0.310227 -2.331338,0.311299 -0.913101,0.0011 -2.030139,-0.151892 -3.147199,-0.304859 1.093265,0.297706 2.186529,0.595413 3.099626,0.594336 0.913097,-0.0011 1.645997,-0.300923 2.378911,-0.600776 z m 0.05646,0.939166 c -0.845978,0.239433 -1.691956,0.478865 -2.617197,0.497832 -0.925242,0.01897 -1.929707,-0.182526 -2.934192,-0.384022 0.944772,0.340733 1.889544,0.681467 2.814784,0.662494 0.925241,-0.01897 1.830914,-0.397634 2.736605,-0.776304 z m 0.08458,0.785018 c -0.880739,0.363757 -1.761478,0.727515 -2.696309,0.804388 -0.934832,0.07687 -1.923717,-0.133129 -2.912621,-0.343135 0.73087,0.330462 1.46174,0.660923 2.396573,0.584043 0.934833,-0.07688 2.073584,-0.561083 3.212357,-1.045296 z m 0.118626,0.851968 c -1.030788,0.437419 -2.061575,0.874838 -3.020002,0.939973 -0.958426,0.06514 -1.844457,-0.242 -2.730505,-0.549142 1.035865,0.549711 2.071731,1.099423 3.030157,1.034277 0.958427,-0.06515 1.83938,-0.74512 2.72035,-1.425108 z"
         id="path11"
         inkscape:path-effect="#path-effect12"
         inkscape:original-d="m 54.948158,91.115757 c 0,0 -1.932096,-0.249936 -2.898143,-0.374904 -0.850598,0.142531 -2.551739,0.427585 -2.551739,0.427585 0,0 1.85203,0.19517 2.778045,0.292757 0.89063,-0.11515 2.671837,-0.345438 2.671837,-0.345438 z m 0.0506,0.879544 c 0,0 -1.418238,0.310227 -2.127356,0.465341 -1.117083,-0.15297 -3.351181,-0.458901 -3.351181,-0.458901 0,0 2.186529,0.595413 3.279794,0.893119 0.732929,-0.299859 2.198743,-0.899559 2.198743,-0.899559 z m 0.05646,0.939166 c 0,0 -1.691956,0.478865 -2.537933,0.718298 -1.004506,-0.2015 -3.013456,-0.604488 -3.013456,-0.604488 0,0 1.889544,0.681466 2.834315,1.0222 0.90571,-0.378678 2.717074,-1.13601 2.717074,-1.13601 z m 0.08458,0.785018 c 0,0 -1.761478,0.727514 -2.642217,1.091272 -0.988924,-0.210011 -2.966713,-0.630019 -2.966713,-0.630019 0,0 1.46174,0.660923 2.19261,0.991385 1.138796,-0.484222 3.41632,-1.452638 3.41632,-1.452638 z m 0.118626,0.851968 c 0,0 -2.061575,0.874838 -3.092363,1.312257 -0.886065,-0.307148 -2.658144,-0.921426 -2.658144,-0.921426 0,0 2.071731,1.099422 3.107596,1.649134 0.880988,-0.680002 2.642911,-2.039965 2.642911,-2.039965 z" />
      <path
         style="fill:#282a2e;fill-rule:evenodd;stroke-width:0.264999;paint-order:stroke markers fill"
         d="m 55.508794,95.919844 c -1.096221,0.436558 -2.19244,0.873116 -3.191363,0.9793 -0.998922,0.106184 -1.900507,-0.117997 -2.802111,-0.342183 0.279619,0.186648 0.559238,0.373296 0.721892,0.561354 0.162653,0.188057 0.208341,0.377518 0.352928,0.379328 0.144588,0.0018 0.388066,-0.184025 0.640485,0.0908 0.252418,0.274825 0.513765,1.010284 0.798316,0.99681 0.284551,-0.01347 0.592292,-0.775863 0.856975,-1.018198 0.264683,-0.242336 0.486293,0.03539 0.704421,-0.0378 0.218127,-0.07318 0.432757,-0.497264 0.614843,-0.534348 0.182085,-0.03708 0.331617,0.312822 0.543464,0.198139 0.211848,-0.114683 0.485996,-0.693938 0.76015,-1.273205 z"
         id="path12"
         inkscape:path-effect="#path-effect13"
         inkscape:original-d="m 55.508794,95.919844 c 0,0 -2.19244,0.873117 -3.288662,1.309675 -0.901623,-0.22419 -2.704812,-0.672558 -2.704812,-0.672558 0,0 0.559239,0.373295 0.838856,0.559943 0.04569,0.189468 0.09138,0.378928 0.137065,0.568391 0.243488,-0.18584 0.486966,-0.371676 0.730446,-0.557514 0.261358,0.735486 0.522703,1.470946 0.784053,2.206416 0.307753,-0.762418 0.615492,-1.524807 0.92324,-2.287212 0.22162,0.277733 0.44323,0.555456 0.664845,0.833186 0.214638,-0.424098 0.429268,-0.848177 0.643903,-1.272264 0.149537,0.349919 0.299069,0.699825 0.448604,1.049737 0.274158,-0.579279 0.822462,-1.7378 0.822462,-1.7378 z" />
    </g>
  </g>
</svg>
